<svg id="svg" version="1.1" xmlns="http://www.w3.org/2000/svg" xmlns:xlink="http://www.w3.org/1999/xlink" width="400" height="400" viewBox="0, 0, 400,400"><g id="svgg"><path id="path0" d="M188.000 85.451 L 188.000 88.000 186.500 88.042 C 185.675 88.066,184.544 88.056,183.987 88.021 C 183.228 87.974,182.958 88.164,182.912 88.779 C 182.878 89.231,183.064 89.603,183.325 89.606 C 183.627 89.610,183.653 89.719,183.396 89.906 C 183.128 90.101,182.993 105.816,182.996 136.600 L 183.000 183.000 138.400 183.000 C 109.129 183.000,93.699 183.137,93.506 183.400 C 93.320 183.654,93.210 183.631,93.206 183.338 C 93.202 183.035,92.304 182.880,90.600 182.889 L 88.000 182.902 88.000 185.451 L 88.000 188.000 86.500 188.042 C 85.675 188.066,84.535 188.055,83.967 188.019 C 82.879 187.950,82.465 189.095,83.361 189.694 C 83.669 189.900,83.657 189.990,83.320 189.994 C 82.699 190.002,82.770 206.445,83.393 206.894 C 83.637 207.070,83.560 207.193,83.200 207.200 C 82.667 207.211,82.667 207.255,83.200 207.600 C 83.600 207.858,83.633 207.990,83.300 207.994 C 83.025 207.997,82.800 208.270,82.800 208.600 C 82.800 209.137,83.267 209.374,84.086 209.252 C 84.243 209.229,84.268 209.477,84.143 209.805 C 84.017 210.132,83.619 210.411,83.257 210.425 C 82.787 210.443,82.847 210.550,83.466 210.800 C 83.942 210.992,84.514 211.474,84.736 211.871 C 84.958 212.268,85.286 212.448,85.464 212.269 C 85.642 212.091,85.341 211.602,84.794 211.182 C 83.989 210.563,83.933 210.416,84.500 210.409 C 84.885 210.404,85.200 210.580,85.200 210.800 C 85.200 211.020,85.425 211.155,85.700 211.100 C 85.979 211.044,86.148 211.309,86.082 211.700 C 86.011 212.124,86.217 212.400,86.606 212.400 C 86.980 212.400,87.131 212.212,86.969 211.949 C 86.768 211.624,86.894 211.613,87.422 211.908 C 88.025 212.246,88.142 212.769,88.086 214.875 C 88.026 217.159,88.103 217.437,88.809 217.491 C 89.244 217.523,89.600 217.381,89.600 217.175 C 89.600 216.969,89.791 216.800,90.024 216.800 C 90.257 216.800,90.336 216.980,90.200 217.200 C 90.056 217.433,90.463 217.600,91.176 217.600 C 91.885 217.600,92.403 217.390,92.406 217.100 C 92.410 216.790,92.524 216.752,92.706 217.000 C 92.899 217.263,108.463 217.400,138.000 217.400 L 183.000 217.400 183.000 262.000 C 183.000 291.271,183.137 306.701,183.400 306.894 C 183.635 307.067,183.553 307.193,183.200 307.200 C 182.667 307.211,182.667 307.255,183.200 307.600 C 183.600 307.858,183.633 307.990,183.300 307.994 C 183.025 307.997,182.800 308.270,182.800 308.600 C 182.800 309.137,183.267 309.374,184.086 309.252 C 184.243 309.229,184.268 309.477,184.143 309.805 C 184.017 310.132,183.619 310.411,183.257 310.425 C 182.787 310.443,182.847 310.550,183.466 310.800 C 183.942 310.992,184.514 311.474,184.736 311.871 C 184.958 312.268,185.286 312.448,185.464 312.269 C 185.642 312.091,185.341 311.602,184.794 311.182 C 183.989 310.563,183.933 310.416,184.500 310.409 C 184.885 310.404,185.200 310.580,185.200 310.800 C 185.200 311.020,185.425 311.155,185.700 311.100 C 185.979 311.044,186.148 311.309,186.082 311.700 C 186.011 312.124,186.217 312.400,186.606 312.400 C 186.980 312.400,187.131 312.212,186.969 311.949 C 186.768 311.624,186.894 311.613,187.422 311.908 C 188.025 312.246,188.142 312.769,188.086 314.875 C 188.026 317.159,188.103 317.437,188.809 317.491 C 189.244 317.523,189.600 317.381,189.600 317.175 C 189.600 316.969,189.791 316.800,190.024 316.800 C 190.257 316.800,190.336 316.980,190.200 317.200 C 190.056 317.433,190.463 317.600,191.176 317.600 C 191.885 317.600,192.403 317.390,192.406 317.100 C 192.410 316.753,192.502 316.735,192.706 317.041 C 193.100 317.633,206.480 317.613,206.894 317.020 C 207.078 316.757,207.190 316.816,207.194 317.176 C 207.198 317.592,207.368 317.536,207.801 316.976 C 208.302 316.329,208.361 316.316,208.158 316.900 C 207.988 317.389,208.121 317.600,208.600 317.600 C 209.024 317.600,209.203 317.386,209.070 317.039 C 208.694 316.058,209.290 315.983,210.115 316.907 L 210.911 317.800 210.654 316.725 C 210.416 315.730,210.964 314.709,211.266 315.585 C 211.352 315.836,211.612 315.837,212.000 315.587 C 212.533 315.243,212.533 315.156,212.000 314.806 C 211.599 314.543,211.566 314.410,211.900 314.406 C 212.175 314.403,212.397 314.085,212.394 313.700 C 212.389 313.102,212.331 313.087,212.000 313.600 C 211.509 314.359,211.478 313.775,211.962 312.872 C 212.242 312.347,212.865 312.202,214.749 312.220 C 217.037 312.242,218.232 311.638,217.183 310.989 C 216.972 310.859,216.800 310.573,216.800 310.353 C 216.800 310.133,216.980 310.064,217.200 310.200 C 217.770 310.552,217.699 308.659,217.120 308.080 C 216.856 307.816,216.811 307.600,217.020 307.600 C 217.258 307.600,217.400 290.718,217.400 262.500 L 217.400 217.400 262.000 217.400 C 291.271 217.400,306.701 217.263,306.894 217.000 C 307.068 216.762,307.190 216.834,307.194 217.176 C 307.198 217.592,307.368 217.536,307.801 216.976 C 308.302 216.329,308.361 216.316,308.158 216.900 C 307.988 217.389,308.121 217.600,308.600 217.600 C 309.024 217.600,309.203 217.386,309.070 217.039 C 308.694 216.058,309.290 215.983,310.115 216.907 L 310.911 217.800 310.654 216.725 C 310.416 215.730,310.964 214.709,311.266 215.585 C 311.352 215.836,311.612 215.837,312.000 215.587 C 312.533 215.243,312.533 215.156,312.000 214.806 C 311.599 214.543,311.566 214.410,311.900 214.406 C 312.175 214.403,312.397 214.085,312.394 213.700 C 312.389 213.102,312.331 213.087,312.000 213.600 C 311.509 214.359,311.478 213.775,311.962 212.872 C 312.242 212.347,312.865 212.202,314.749 212.220 C 317.037 212.242,318.232 211.638,317.183 210.989 C 316.972 210.859,316.800 210.573,316.800 210.353 C 316.800 210.133,316.980 210.064,317.200 210.200 C 317.770 210.552,317.699 208.659,317.120 208.080 C 316.819 207.779,316.797 207.600,317.063 207.600 C 317.639 207.600,317.595 193.913,317.018 193.506 C 316.761 193.325,316.831 193.208,317.200 193.200 C 317.733 193.189,317.733 193.141,317.200 192.763 C 316.748 192.444,316.724 192.289,317.100 192.136 C 317.375 192.025,317.600 191.578,317.600 191.143 C 317.600 190.708,317.420 190.464,317.200 190.600 C 316.980 190.736,316.800 190.672,316.800 190.457 C 316.800 190.242,316.967 190.007,317.172 189.933 C 317.377 189.860,317.262 189.440,316.918 189.000 C 316.432 188.378,316.345 188.353,316.529 188.887 C 316.934 190.065,315.914 190.180,314.954 189.064 C 314.450 188.479,313.805 188.003,313.519 188.006 C 313.142 188.011,313.164 188.130,313.600 188.444 C 314.099 188.803,314.077 188.835,313.467 188.638 C 313.064 188.507,312.600 188.400,312.436 188.400 C 312.272 188.400,312.188 187.280,312.248 185.911 C 312.371 183.145,311.889 182.428,310.641 183.520 C 309.909 184.161,309.879 184.160,310.120 183.500 C 310.425 182.663,308.865 182.495,308.080 183.280 C 307.816 183.544,307.600 183.589,307.600 183.380 C 307.600 183.142,290.718 183.000,262.500 183.000 L 217.400 183.000 217.400 138.400 C 217.400 109.129,217.263 93.699,217.000 93.506 C 216.765 93.333,216.847 93.207,217.200 93.200 C 217.733 93.189,217.733 93.141,217.200 92.763 C 216.748 92.444,216.724 92.289,217.100 92.136 C 217.375 92.025,217.600 91.578,217.600 91.143 C 217.600 90.708,217.420 90.464,217.200 90.600 C 216.980 90.736,216.800 90.672,216.800 90.457 C 216.800 90.242,216.967 90.007,217.172 89.933 C 217.377 89.860,217.262 89.440,216.918 89.000 C 216.432 88.378,216.345 88.353,216.529 88.887 C 216.819 89.730,216.096 90.256,215.485 89.645 C 215.199 89.359,215.188 89.200,215.453 89.200 C 215.681 89.200,215.867 88.930,215.867 88.600 C 215.867 87.876,215.526 87.834,214.880 88.480 C 214.507 88.853,214.400 88.853,214.400 88.480 C 214.400 88.216,214.085 88.003,213.700 88.006 C 213.095 88.011,213.081 88.071,213.600 88.444 C 214.099 88.803,214.077 88.835,213.467 88.638 C 213.064 88.507,212.600 88.400,212.436 88.400 C 212.272 88.400,212.188 87.280,212.248 85.911 C 212.371 83.145,211.889 82.428,210.641 83.520 C 209.909 84.161,209.879 84.160,210.120 83.500 C 210.425 82.663,208.865 82.495,208.080 83.280 C 207.779 83.581,207.600 83.603,207.600 83.337 C 207.600 82.761,193.913 82.805,193.506 83.382 C 193.309 83.662,193.210 83.647,193.206 83.338 C 193.202 83.035,192.304 82.880,190.600 82.889 L 188.000 82.902 188.000 85.451 M315.078 188.256 C 314.779 188.555,315.106 189.200,315.557 189.200 C 315.727 189.200,315.867 188.930,315.867 188.600 C 315.867 187.973,315.514 187.819,315.078 188.256 " stroke="none" fill="#d4d4dc" fill-rule="evenodd"></path><path id="path1" d="M198.691 83.089 C 199.401 83.177,200.661 83.179,201.491 83.092 C 202.321 83.005,201.740 82.933,200.200 82.931 C 198.660 82.929,197.981 83.000,198.691 83.089 M212.000 87.962 C 212.000 88.294,213.641 88.892,213.884 88.649 C 213.950 88.584,213.553 88.325,213.002 88.074 C 212.451 87.823,212.000 87.772,212.000 87.962 M215.953 88.271 C 215.927 88.452,215.927 88.735,215.953 88.900 C 215.979 89.065,215.784 89.200,215.520 89.200 C 215.168 89.200,215.158 89.318,215.485 89.645 C 216.096 90.256,216.819 89.730,216.529 88.887 C 216.341 88.340,216.429 88.363,216.962 89.000 C 217.629 89.796,217.631 89.796,217.511 89.005 C 217.395 88.236,216.049 87.602,215.953 88.271 M182.898 142.298 L 182.800 182.796 142.300 182.900 L 101.800 183.004 142.313 183.102 C 174.427 183.180,182.865 183.096,183.016 182.700 C 183.120 182.425,183.159 164.110,183.101 142.000 L 182.996 101.800 182.898 142.298 M217.397 142.500 L 217.400 183.000 257.700 183.003 L 298.000 183.006 257.802 182.901 L 217.604 182.796 217.499 142.398 L 217.394 102.000 217.397 142.500 M312.000 187.962 C 312.000 188.294,313.641 188.892,313.884 188.649 C 313.950 188.584,313.553 188.325,313.002 188.074 C 312.451 187.823,312.000 187.772,312.000 187.962 M314.400 188.338 C 314.400 188.925,315.931 190.090,316.357 189.826 C 316.582 189.688,316.659 189.265,316.529 188.887 C 316.341 188.340,316.429 188.363,316.962 189.000 L 317.632 189.800 317.511 189.000 C 317.436 188.509,317.082 188.200,316.595 188.200 C 316.140 188.200,315.848 188.430,315.913 188.738 C 315.974 189.033,315.794 189.191,315.513 189.088 C 315.231 188.984,315.045 188.697,315.100 188.450 C 315.155 188.203,315.020 188.000,314.800 188.000 C 314.580 188.000,314.400 188.152,314.400 188.338 M82.931 200.200 C 82.933 201.740,83.005 202.321,83.092 201.491 C 83.179 200.661,83.177 199.401,83.089 198.691 C 83.000 197.981,82.929 198.660,82.931 200.200 M317.331 200.200 C 317.333 201.740,317.405 202.321,317.492 201.491 C 317.579 200.661,317.577 199.401,317.489 198.691 C 317.400 197.981,317.329 198.660,317.331 200.200 M82.933 209.830 C 82.933 210.542,83.844 210.582,84.113 209.882 C 84.225 209.590,84.011 209.341,83.623 209.312 C 83.244 209.283,82.933 209.516,82.933 209.830 M83.500 210.676 C 83.115 210.776,82.800 211.135,82.800 211.472 C 82.800 211.862,83.026 211.999,83.421 211.847 C 83.777 211.711,83.937 211.778,83.797 212.005 C 83.663 212.222,83.833 212.400,84.176 212.400 C 84.929 212.400,84.977 211.947,84.300 211.231 C 83.887 210.795,83.957 210.783,84.700 211.165 C 85.195 211.420,85.603 211.847,85.606 212.114 C 85.610 212.429,85.742 212.395,85.980 212.019 C 86.402 211.352,86.126 210.675,85.572 211.017 C 85.368 211.144,85.200 211.057,85.200 210.824 C 85.200 210.391,84.742 210.351,83.500 210.676 M310.693 215.450 C 310.312 216.066,310.820 217.600,311.404 217.600 C 311.899 217.600,312.400 216.758,312.400 215.924 C 312.400 215.699,312.142 215.614,311.826 215.735 C 311.510 215.856,311.183 215.749,311.099 215.497 C 310.999 215.196,310.860 215.180,310.693 215.450 M309.052 216.316 C 308.796 216.730,309.256 217.371,309.900 217.500 C 310.561 217.632,310.533 217.276,309.826 216.568 C 309.510 216.252,309.161 216.139,309.052 216.316 M142.398 217.499 L 182.796 217.604 182.901 257.802 L 183.006 298.000 183.003 257.700 L 183.000 217.400 142.500 217.397 L 102.000 217.394 142.398 217.499 M217.384 217.700 C 217.280 217.975,217.241 236.200,217.299 258.200 L 217.404 298.200 217.502 257.902 L 217.600 217.604 257.900 217.500 L 298.200 217.396 257.887 217.298 C 225.933 217.220,217.535 217.304,217.384 217.700 M182.933 309.830 C 182.933 310.542,183.844 310.582,184.113 309.882 C 184.225 309.590,184.011 309.341,183.623 309.312 C 183.244 309.283,182.933 309.516,182.933 309.830 M183.500 310.676 C 183.115 310.776,182.800 311.135,182.800 311.472 C 182.800 311.862,183.026 311.999,183.421 311.847 C 183.777 311.711,183.937 311.778,183.797 312.005 C 183.663 312.222,183.833 312.400,184.176 312.400 C 184.929 312.400,184.977 311.947,184.300 311.231 C 183.887 310.795,183.957 310.783,184.700 311.165 C 185.195 311.420,185.603 311.847,185.606 312.114 C 185.610 312.429,185.742 312.395,185.980 312.019 C 186.402 311.352,186.126 310.675,185.572 311.017 C 185.368 311.144,185.200 311.057,185.200 310.824 C 185.200 310.391,184.742 310.351,183.500 310.676 M210.693 315.450 C 210.312 316.066,210.820 317.600,211.404 317.600 C 211.899 317.600,212.400 316.758,212.400 315.924 C 212.400 315.699,212.142 315.614,211.826 315.735 C 211.510 315.856,211.183 315.749,211.099 315.497 C 210.999 315.196,210.860 315.180,210.693 315.450 M209.052 316.316 C 208.796 316.730,209.256 317.371,209.900 317.500 C 210.561 317.632,210.533 317.276,209.826 316.568 C 209.510 316.252,209.161 316.139,209.052 316.316 M198.691 317.489 C 199.401 317.577,200.661 317.579,201.491 317.492 C 202.321 317.405,201.740 317.333,200.200 317.331 C 198.660 317.329,197.981 317.400,198.691 317.489 " stroke="none" fill="#d8d4dc" fill-rule="evenodd"></path><path id="path2" d="M198.691 83.089 C 199.401 83.177,200.661 83.179,201.491 83.092 C 202.321 83.005,201.740 82.933,200.200 82.931 C 198.660 82.929,197.981 83.000,198.691 83.089 M212.000 87.962 C 212.000 88.294,213.641 88.892,213.884 88.649 C 213.950 88.584,213.553 88.325,213.002 88.074 C 212.451 87.823,212.000 87.772,212.000 87.962 M215.953 88.271 C 215.927 88.452,215.927 88.735,215.953 88.900 C 215.979 89.065,215.784 89.200,215.520 89.200 C 215.168 89.200,215.158 89.318,215.485 89.645 C 216.096 90.256,216.819 89.730,216.529 88.887 C 216.341 88.340,216.429 88.363,216.962 89.000 C 217.629 89.796,217.631 89.796,217.511 89.005 C 217.395 88.236,216.049 87.602,215.953 88.271 M182.898 142.298 L 182.800 182.796 142.300 182.900 L 101.800 183.004 142.313 183.102 C 174.427 183.180,182.865 183.096,183.016 182.700 C 183.120 182.425,183.159 164.110,183.101 142.000 L 182.996 101.800 182.898 142.298 M217.397 142.500 L 217.400 183.000 257.700 183.003 L 298.000 183.006 257.802 182.901 L 217.604 182.796 217.499 142.398 L 217.394 102.000 217.397 142.500 M312.000 187.962 C 312.000 188.294,313.641 188.892,313.884 188.649 C 313.950 188.584,313.553 188.325,313.002 188.074 C 312.451 187.823,312.000 187.772,312.000 187.962 M314.400 188.338 C 314.400 188.925,315.931 190.090,316.357 189.826 C 316.582 189.688,316.659 189.265,316.529 188.887 C 316.341 188.340,316.429 188.363,316.962 189.000 L 317.632 189.800 317.511 189.000 C 317.436 188.509,317.082 188.200,316.595 188.200 C 316.140 188.200,315.848 188.430,315.913 188.738 C 315.974 189.033,315.794 189.191,315.513 189.088 C 315.231 188.984,315.045 188.697,315.100 188.450 C 315.155 188.203,315.020 188.000,314.800 188.000 C 314.580 188.000,314.400 188.152,314.400 188.338 M82.931 200.200 C 82.933 201.740,83.005 202.321,83.092 201.491 C 83.179 200.661,83.177 199.401,83.089 198.691 C 83.000 197.981,82.929 198.660,82.931 200.200 M317.331 200.200 C 317.333 201.740,317.405 202.321,317.492 201.491 C 317.579 200.661,317.577 199.401,317.489 198.691 C 317.400 197.981,317.329 198.660,317.331 200.200 M82.933 209.830 C 82.933 210.542,83.844 210.582,84.113 209.882 C 84.225 209.590,84.011 209.341,83.623 209.312 C 83.244 209.283,82.933 209.516,82.933 209.830 M83.500 210.676 C 83.115 210.776,82.800 211.135,82.800 211.472 C 82.800 211.862,83.026 211.999,83.421 211.847 C 83.777 211.711,83.937 211.778,83.797 212.005 C 83.663 212.222,83.833 212.400,84.176 212.400 C 84.929 212.400,84.977 211.947,84.300 211.231 C 83.887 210.795,83.957 210.783,84.700 211.165 C 85.195 211.420,85.603 211.847,85.606 212.114 C 85.610 212.429,85.742 212.395,85.980 212.019 C 86.402 211.352,86.126 210.675,85.572 211.017 C 85.368 211.144,85.200 211.057,85.200 210.824 C 85.200 210.391,84.742 210.351,83.500 210.676 M310.693 215.450 C 310.312 216.066,310.820 217.600,311.404 217.600 C 311.899 217.600,312.400 216.758,312.400 215.924 C 312.400 215.699,312.142 215.614,311.826 215.735 C 311.510 215.856,311.183 215.749,311.099 215.497 C 310.999 215.196,310.860 215.180,310.693 215.450 M309.052 216.316 C 308.796 216.730,309.256 217.371,309.900 217.500 C 310.561 217.632,310.533 217.276,309.826 216.568 C 309.510 216.252,309.161 216.139,309.052 216.316 M142.398 217.499 L 182.796 217.604 182.901 257.802 L 183.006 298.000 183.003 257.700 L 183.000 217.400 142.500 217.397 L 102.000 217.394 142.398 217.499 M217.384 217.700 C 217.280 217.975,217.241 236.200,217.299 258.200 L 217.404 298.200 217.502 257.902 L 217.600 217.604 257.900 217.500 L 298.200 217.396 257.887 217.298 C 225.933 217.220,217.535 217.304,217.384 217.700 M182.933 309.830 C 182.933 310.542,183.844 310.582,184.113 309.882 C 184.225 309.590,184.011 309.341,183.623 309.312 C 183.244 309.283,182.933 309.516,182.933 309.830 M183.500 310.676 C 183.115 310.776,182.800 311.135,182.800 311.472 C 182.800 311.862,183.026 311.999,183.421 311.847 C 183.777 311.711,183.937 311.778,183.797 312.005 C 183.663 312.222,183.833 312.400,184.176 312.400 C 184.929 312.400,184.977 311.947,184.300 311.231 C 183.887 310.795,183.957 310.783,184.700 311.165 C 185.195 311.420,185.603 311.847,185.606 312.114 C 185.610 312.429,185.742 312.395,185.980 312.019 C 186.402 311.352,186.126 310.675,185.572 311.017 C 185.368 311.144,185.200 311.057,185.200 310.824 C 185.200 310.391,184.742 310.351,183.500 310.676 M210.693 315.450 C 210.312 316.066,210.820 317.600,211.404 317.600 C 211.899 317.600,212.400 316.758,212.400 315.924 C 212.400 315.699,212.142 315.614,211.826 315.735 C 211.510 315.856,211.183 315.749,211.099 315.497 C 210.999 315.196,210.860 315.180,210.693 315.450 M209.052 316.316 C 208.796 316.730,209.256 317.371,209.900 317.500 C 210.561 317.632,210.533 317.276,209.826 316.568 C 209.510 316.252,209.161 316.139,209.052 316.316 M198.691 317.489 C 199.401 317.577,200.661 317.579,201.491 317.492 C 202.321 317.405,201.740 317.333,200.200 317.331 C 198.660 317.329,197.981 317.400,198.691 317.489 " stroke="none" fill="#d8d4dc" fill-rule="evenodd"></path><path id="path3" d="M198.691 83.089 C 199.401 83.177,200.661 83.179,201.491 83.092 C 202.321 83.005,201.740 82.933,200.200 82.931 C 198.660 82.929,197.981 83.000,198.691 83.089 M212.000 87.962 C 212.000 88.294,213.641 88.892,213.884 88.649 C 213.950 88.584,213.553 88.325,213.002 88.074 C 212.451 87.823,212.000 87.772,212.000 87.962 M215.953 88.271 C 215.927 88.452,215.927 88.735,215.953 88.900 C 215.979 89.065,215.784 89.200,215.520 89.200 C 215.168 89.200,215.158 89.318,215.485 89.645 C 216.096 90.256,216.819 89.730,216.529 88.887 C 216.341 88.340,216.429 88.363,216.962 89.000 C 217.629 89.796,217.631 89.796,217.511 89.005 C 217.395 88.236,216.049 87.602,215.953 88.271 M182.898 142.298 L 182.800 182.796 142.300 182.900 L 101.800 183.004 142.313 183.102 C 174.427 183.180,182.865 183.096,183.016 182.700 C 183.120 182.425,183.159 164.110,183.101 142.000 L 182.996 101.800 182.898 142.298 M217.397 142.500 L 217.400 183.000 257.700 183.003 L 298.000 183.006 257.802 182.901 L 217.604 182.796 217.499 142.398 L 217.394 102.000 217.397 142.500 M312.000 187.962 C 312.000 188.294,313.641 188.892,313.884 188.649 C 313.950 188.584,313.553 188.325,313.002 188.074 C 312.451 187.823,312.000 187.772,312.000 187.962 M314.400 188.338 C 314.400 188.925,315.931 190.090,316.357 189.826 C 316.582 189.688,316.659 189.265,316.529 188.887 C 316.341 188.340,316.429 188.363,316.962 189.000 L 317.632 189.800 317.511 189.000 C 317.436 188.509,317.082 188.200,316.595 188.200 C 316.140 188.200,315.848 188.430,315.913 188.738 C 315.974 189.033,315.794 189.191,315.513 189.088 C 315.231 188.984,315.045 188.697,315.100 188.450 C 315.155 188.203,315.020 188.000,314.800 188.000 C 314.580 188.000,314.400 188.152,314.400 188.338 M82.931 200.200 C 82.933 201.740,83.005 202.321,83.092 201.491 C 83.179 200.661,83.177 199.401,83.089 198.691 C 83.000 197.981,82.929 198.660,82.931 200.200 M317.331 200.200 C 317.333 201.740,317.405 202.321,317.492 201.491 C 317.579 200.661,317.577 199.401,317.489 198.691 C 317.400 197.981,317.329 198.660,317.331 200.200 M82.933 209.830 C 82.933 210.542,83.844 210.582,84.113 209.882 C 84.225 209.590,84.011 209.341,83.623 209.312 C 83.244 209.283,82.933 209.516,82.933 209.830 M83.500 210.676 C 83.115 210.776,82.800 211.135,82.800 211.472 C 82.800 211.862,83.026 211.999,83.421 211.847 C 83.777 211.711,83.937 211.778,83.797 212.005 C 83.663 212.222,83.833 212.400,84.176 212.400 C 84.929 212.400,84.977 211.947,84.300 211.231 C 83.887 210.795,83.957 210.783,84.700 211.165 C 85.195 211.420,85.603 211.847,85.606 212.114 C 85.610 212.429,85.742 212.395,85.980 212.019 C 86.402 211.352,86.126 210.675,85.572 211.017 C 85.368 211.144,85.200 211.057,85.200 210.824 C 85.200 210.391,84.742 210.351,83.500 210.676 M310.693 215.450 C 310.312 216.066,310.820 217.600,311.404 217.600 C 311.899 217.600,312.400 216.758,312.400 215.924 C 312.400 215.699,312.142 215.614,311.826 215.735 C 311.510 215.856,311.183 215.749,311.099 215.497 C 310.999 215.196,310.860 215.180,310.693 215.450 M309.052 216.316 C 308.796 216.730,309.256 217.371,309.900 217.500 C 310.561 217.632,310.533 217.276,309.826 216.568 C 309.510 216.252,309.161 216.139,309.052 216.316 M142.398 217.499 L 182.796 217.604 182.901 257.802 L 183.006 298.000 183.003 257.700 L 183.000 217.400 142.500 217.397 L 102.000 217.394 142.398 217.499 M217.384 217.700 C 217.280 217.975,217.241 236.200,217.299 258.200 L 217.404 298.200 217.502 257.902 L 217.600 217.604 257.900 217.500 L 298.200 217.396 257.887 217.298 C 225.933 217.220,217.535 217.304,217.384 217.700 M182.933 309.830 C 182.933 310.542,183.844 310.582,184.113 309.882 C 184.225 309.590,184.011 309.341,183.623 309.312 C 183.244 309.283,182.933 309.516,182.933 309.830 M183.500 310.676 C 183.115 310.776,182.800 311.135,182.800 311.472 C 182.800 311.862,183.026 311.999,183.421 311.847 C 183.777 311.711,183.937 311.778,183.797 312.005 C 183.663 312.222,183.833 312.400,184.176 312.400 C 184.929 312.400,184.977 311.947,184.300 311.231 C 183.887 310.795,183.957 310.783,184.700 311.165 C 185.195 311.420,185.603 311.847,185.606 312.114 C 185.610 312.429,185.742 312.395,185.980 312.019 C 186.402 311.352,186.126 310.675,185.572 311.017 C 185.368 311.144,185.200 311.057,185.200 310.824 C 185.200 310.391,184.742 310.351,183.500 310.676 M210.693 315.450 C 210.312 316.066,210.820 317.600,211.404 317.600 C 211.899 317.600,212.400 316.758,212.400 315.924 C 212.400 315.699,212.142 315.614,211.826 315.735 C 211.510 315.856,211.183 315.749,211.099 315.497 C 210.999 315.196,210.860 315.180,210.693 315.450 M209.052 316.316 C 208.796 316.730,209.256 317.371,209.900 317.500 C 210.561 317.632,210.533 317.276,209.826 316.568 C 209.510 316.252,209.161 316.139,209.052 316.316 M198.691 317.489 C 199.401 317.577,200.661 317.579,201.491 317.492 C 202.321 317.405,201.740 317.333,200.200 317.331 C 198.660 317.329,197.981 317.400,198.691 317.489 " stroke="none" fill="#d8d4dc" fill-rule="evenodd"></path><path id="path4" d="M198.691 83.089 C 199.401 83.177,200.661 83.179,201.491 83.092 C 202.321 83.005,201.740 82.933,200.200 82.931 C 198.660 82.929,197.981 83.000,198.691 83.089 M212.000 87.962 C 212.000 88.294,213.641 88.892,213.884 88.649 C 213.950 88.584,213.553 88.325,213.002 88.074 C 212.451 87.823,212.000 87.772,212.000 87.962 M215.953 88.271 C 215.927 88.452,215.927 88.735,215.953 88.900 C 215.979 89.065,215.784 89.200,215.520 89.200 C 215.168 89.200,215.158 89.318,215.485 89.645 C 216.096 90.256,216.819 89.730,216.529 88.887 C 216.341 88.340,216.429 88.363,216.962 89.000 C 217.629 89.796,217.631 89.796,217.511 89.005 C 217.395 88.236,216.049 87.602,215.953 88.271 M182.898 142.298 L 182.800 182.796 142.300 182.900 L 101.800 183.004 142.313 183.102 C 174.427 183.180,182.865 183.096,183.016 182.700 C 183.120 182.425,183.159 164.110,183.101 142.000 L 182.996 101.800 182.898 142.298 M217.397 142.500 L 217.400 183.000 257.700 183.003 L 298.000 183.006 257.802 182.901 L 217.604 182.796 217.499 142.398 L 217.394 102.000 217.397 142.500 M312.000 187.962 C 312.000 188.294,313.641 188.892,313.884 188.649 C 313.950 188.584,313.553 188.325,313.002 188.074 C 312.451 187.823,312.000 187.772,312.000 187.962 M314.400 188.338 C 314.400 188.925,315.931 190.090,316.357 189.826 C 316.582 189.688,316.659 189.265,316.529 188.887 C 316.341 188.340,316.429 188.363,316.962 189.000 L 317.632 189.800 317.511 189.000 C 317.436 188.509,317.082 188.200,316.595 188.200 C 316.140 188.200,315.848 188.430,315.913 188.738 C 315.974 189.033,315.794 189.191,315.513 189.088 C 315.231 188.984,315.045 188.697,315.100 188.450 C 315.155 188.203,315.020 188.000,314.800 188.000 C 314.580 188.000,314.400 188.152,314.400 188.338 M82.931 200.200 C 82.933 201.740,83.005 202.321,83.092 201.491 C 83.179 200.661,83.177 199.401,83.089 198.691 C 83.000 197.981,82.929 198.660,82.931 200.200 M317.331 200.200 C 317.333 201.740,317.405 202.321,317.492 201.491 C 317.579 200.661,317.577 199.401,317.489 198.691 C 317.400 197.981,317.329 198.660,317.331 200.200 M82.933 209.830 C 82.933 210.542,83.844 210.582,84.113 209.882 C 84.225 209.590,84.011 209.341,83.623 209.312 C 83.244 209.283,82.933 209.516,82.933 209.830 M83.500 210.676 C 83.115 210.776,82.800 211.135,82.800 211.472 C 82.800 211.862,83.026 211.999,83.421 211.847 C 83.777 211.711,83.937 211.778,83.797 212.005 C 83.663 212.222,83.833 212.400,84.176 212.400 C 84.929 212.400,84.977 211.947,84.300 211.231 C 83.887 210.795,83.957 210.783,84.700 211.165 C 85.195 211.420,85.603 211.847,85.606 212.114 C 85.610 212.429,85.742 212.395,85.980 212.019 C 86.402 211.352,86.126 210.675,85.572 211.017 C 85.368 211.144,85.200 211.057,85.200 210.824 C 85.200 210.391,84.742 210.351,83.500 210.676 M310.693 215.450 C 310.312 216.066,310.820 217.600,311.404 217.600 C 311.899 217.600,312.400 216.758,312.400 215.924 C 312.400 215.699,312.142 215.614,311.826 215.735 C 311.510 215.856,311.183 215.749,311.099 215.497 C 310.999 215.196,310.860 215.180,310.693 215.450 M309.052 216.316 C 308.796 216.730,309.256 217.371,309.900 217.500 C 310.561 217.632,310.533 217.276,309.826 216.568 C 309.510 216.252,309.161 216.139,309.052 216.316 M142.398 217.499 L 182.796 217.604 182.901 257.802 L 183.006 298.000 183.003 257.700 L 183.000 217.400 142.500 217.397 L 102.000 217.394 142.398 217.499 M217.384 217.700 C 217.280 217.975,217.241 236.200,217.299 258.200 L 217.404 298.200 217.502 257.902 L 217.600 217.604 257.900 217.500 L 298.200 217.396 257.887 217.298 C 225.933 217.220,217.535 217.304,217.384 217.700 M182.933 309.830 C 182.933 310.542,183.844 310.582,184.113 309.882 C 184.225 309.590,184.011 309.341,183.623 309.312 C 183.244 309.283,182.933 309.516,182.933 309.830 M183.500 310.676 C 183.115 310.776,182.800 311.135,182.800 311.472 C 182.800 311.862,183.026 311.999,183.421 311.847 C 183.777 311.711,183.937 311.778,183.797 312.005 C 183.663 312.222,183.833 312.400,184.176 312.400 C 184.929 312.400,184.977 311.947,184.300 311.231 C 183.887 310.795,183.957 310.783,184.700 311.165 C 185.195 311.420,185.603 311.847,185.606 312.114 C 185.610 312.429,185.742 312.395,185.980 312.019 C 186.402 311.352,186.126 310.675,185.572 311.017 C 185.368 311.144,185.200 311.057,185.200 310.824 C 185.200 310.391,184.742 310.351,183.500 310.676 M210.693 315.450 C 210.312 316.066,210.820 317.600,211.404 317.600 C 211.899 317.600,212.400 316.758,212.400 315.924 C 212.400 315.699,212.142 315.614,211.826 315.735 C 211.510 315.856,211.183 315.749,211.099 315.497 C 210.999 315.196,210.860 315.180,210.693 315.450 M209.052 316.316 C 208.796 316.730,209.256 317.371,209.900 317.500 C 210.561 317.632,210.533 317.276,209.826 316.568 C 209.510 316.252,209.161 316.139,209.052 316.316 M198.691 317.489 C 199.401 317.577,200.661 317.579,201.491 317.492 C 202.321 317.405,201.740 317.333,200.200 317.331 C 198.660 317.329,197.981 317.400,198.691 317.489 " stroke="none" fill="#d8d4dc" fill-rule="evenodd"></path></g></svg>