<?xml version="1.0" encoding="UTF-8"?>
<svg version="1.1" xmlns="http://www.w3.org/2000/svg" width="64" height="64">
<path d="M0 0 C2.77765063 1.36905694 4.45709838 2.78074712 6.61254883 4.98876953 C7.31831055 5.70419922 8.02407227 6.41962891 8.7512207 7.15673828 C9.47245117 7.90310547 10.19368164 8.64947266 10.93676758 9.41845703 C12.04761719 10.54960937 12.04761719 10.54960937 13.1809082 11.70361328 C15.00233391 13.56029239 16.81637293 15.42361555 18.62426758 17.29345703 C21.7570212 15.91148627 23.80128083 14.32588953 26.15551758 11.85205078 C26.80133789 11.18625 27.4471582 10.52044922 28.11254883 9.83447266 C29.45564714 8.43008733 30.79678988 7.02382921 32.13598633 5.61572266 C32.78180664 4.95121094 33.42762695 4.28669922 34.09301758 3.60205078 C34.6750293 2.99159912 35.25704102 2.38114746 35.85668945 1.75219727 C37.81524702 0.13584623 39.10804152 -0.43559981 41.62426758 -0.70654297 C43.37426758 0.73095703 43.37426758 0.73095703 44.62426758 2.29345703 C42.20418446 7.86265944 37.6857069 11.76215881 33.49926758 16.04345703 C32.2540332 17.37570313 32.2540332 17.37570313 30.98364258 18.73486328 C23.98063327 25.88056714 23.98063327 25.88056714 19.69848633 26.51220703 C13.90822906 25.75316276 9.81683394 20.55103203 5.99365234 16.54101562 C4.55666668 15.03812218 3.08757688 13.57336164 1.6105957 12.10986328 C-3.63785642 6.74675152 -3.63785642 6.74675152 -5.37573242 4.29345703 C-5.26416016 2.04443359 -5.26416016 2.04443359 -4.37573242 0.29345703 C-2.37573242 -0.70654297 -2.37573242 -0.70654297 0 0 Z " fill="#9CA2AE" transform="translate(12.375732421875,20.70654296875)"/>
</svg>
