<?xml version="1.0" encoding="UTF-8"?>
<svg version="1.1" xmlns="http://www.w3.org/2000/svg" width="96" height="96">
<path d="M0 0 C2.13065056 1.30395814 4.01786095 2.75306582 5.953125 4.33203125 C7.96432182 5.97092637 10.04934753 7.40803449 12.1875 8.875 C18.05631063 13.31408073 21.28725022 18.93231137 22.6875 26.12109375 C22.94730973 28.51459087 23.07018323 30.81967878 23.125 33.22265625 C23.336611 41.76420889 23.5069037 47.82599678 28.62109375 55.03515625 C30.51115085 57.72835376 31.07298838 59.71552275 31 63 C29.81500074 67.04293864 28.66511622 69.38604657 25.5625 72.25 C22.20647346 73.89857444 19.50243992 74.60621249 15.875 75.375 C11.05027906 76.36934506 11.05027906 76.36934506 7.75 79.9375 C7.1725 80.948125 6.595 81.95875 6 83 C2.0896012 86.04847795 -1.6747479 87.34226026 -6.625 87 C-10.83594017 86.27397583 -13.7230652 84.80880126 -17 82 C-17.38542969 81.18015625 -17.77085938 80.3603125 -18.16796875 79.515625 C-20.73827159 75.98625393 -23.8824884 75.4801729 -27.9375 74.5 C-35.21805675 72.73064778 -35.21805675 72.73064778 -38.44140625 69.71875 C-40.26309612 66.54106541 -40.99091504 64.679409 -41 61 C-39.80235459 58.33278002 -38.55591662 55.90689758 -37.125 53.375 C-33.19979899 45.88354948 -32.1257405 39.46090574 -32.30126953 31.04052734 C-32.38641523 23.48113781 -30.06563264 18.00992184 -25.8125 11.8125 C-22.81947202 8.81947202 -19.7533622 6.64033012 -16.18359375 4.39453125 C-13.97097532 3.02703551 -13.97097532 3.02703551 -11.91015625 1.38671875 C-7.83562303 -1.57127572 -4.72887895 -1.16283909 0 0 Z M-21 17 C-24.84370388 22.58371084 -25.53848258 26.62164653 -25.5625 33.3125 C-25.8562624 43.26703962 -26.96380467 51.05129959 -33.20703125 59.11328125 C-34.23285089 61.06953984 -34.23285089 61.06953984 -33.515625 63.58984375 C-30.50715903 68.37392495 -24.21978575 68.79450675 -19 70 C-15.98768178 70.56305013 -13.06020677 70.87272196 -10 71 C-9.23558594 71.03996094 -8.47117187 71.07992187 -7.68359375 71.12109375 C1.38404788 71.36852538 14.11589126 70.96139566 22 66 C23.56314926 63.75901996 23.56314926 63.75901996 24 61 C22.97910334 58.34052978 22.97910334 58.34052978 21.1875 55.875 C18.46916176 51.7819415 16.90938327 48.82020856 16.7890625 43.8671875 C16.76070312 43.06023438 16.73234375 42.25328125 16.703125 41.421875 C16.65176682 39.74759822 16.60729229 38.07309355 16.5703125 36.3984375 C16.2427141 27.77167954 14.50000766 20.07609412 8 14 C-1.87067859 8.04419581 -12.67311687 8.67311687 -21 17 Z M-11 77 C-7.39417559 80.40625929 -7.39417559 80.40625929 -3.75 79.6875 C-2.8425 79.460625 -1.935 79.23375 -1 79 C-1 78.67 -1 78.34 -1 78 C-4.3 77.67 -7.6 77.34 -11 77 Z " fill="#FFFFFF" transform="translate(53,5)"/>
</svg>
