<?xml version="1.0" encoding="UTF-8"?>
<svg version="1.1" xmlns="http://www.w3.org/2000/svg" width="200" height="200">
<path d="M0 0 C0.96419861 -0.0071553 1.92839722 -0.01431061 2.92181396 -0.02168274 C3.97326599 -0.02437164 5.02471802 -0.02706055 6.10803223 -0.02983093 C7.220755 -0.03640213 8.33347778 -0.04297333 9.47991943 -0.04974365 C13.16650461 -0.06947022 16.85304899 -0.08113992 20.53967285 -0.09111023 C21.80080399 -0.09518576 23.06193512 -0.09926128 24.36128235 -0.10346031 C30.35205614 -0.12217124 36.34280532 -0.13673478 42.33360052 -0.14507228 C49.22276778 -0.15482081 56.1116117 -0.18107956 63.00066519 -0.22157317 C68.98713973 -0.25553889 74.97345916 -0.26723114 80.96003723 -0.27127647 C83.49561246 -0.2761321 86.0311845 -0.28771664 88.56669617 -0.30631447 C92.12760721 -0.33080318 95.68768681 -0.32972225 99.24865723 -0.32279968 C100.28391541 -0.33560974 101.31917358 -0.3484198 102.38580322 -0.36161804 C116.44170419 -0.26270657 129.02514742 5.66869719 139.3170166 15.10810852 C147.04298033 23.49262632 153.28387018 35.36351906 153.34309387 46.95124817 C153.35382683 48.39754608 153.35382683 48.39754608 153.36477661 49.87306213 C153.36746552 50.92451416 153.37015442 51.97596619 153.3729248 53.0592804 C153.379496 54.17200317 153.3860672 55.28472595 153.39283752 56.4311676 C153.41256409 60.11775278 153.42423379 63.80429716 153.4342041 67.49092102 C153.43827963 68.75205215 153.44235516 70.01318329 153.44655418 71.31253052 C153.46526511 77.3033043 153.47982865 83.29405349 153.48816615 89.28484869 C153.49791468 96.17401595 153.52417344 103.06285987 153.56466705 109.95191336 C153.59863276 115.9383879 153.61032501 121.92470733 153.61437035 127.9112854 C153.61922597 130.44686063 153.63081051 132.98243266 153.64940834 135.51794434 C153.67389706 139.07885538 153.67281613 142.63893498 153.66589355 146.1999054 C153.68510864 147.75279266 153.68510864 147.75279266 153.70471191 149.33705139 C153.60580044 163.39295235 147.67439668 175.97639559 138.23498535 186.26826477 C129.85046755 193.99422849 117.97957481 200.23511835 106.3918457 200.29434204 C105.42764709 200.30149734 104.46344849 200.30865265 103.47003174 200.31602478 C101.8928537 200.32005814 101.8928537 200.32005814 100.28381348 200.32417297 C99.1710907 200.33074417 98.05836792 200.33731537 96.91192627 200.34408569 C93.2253411 200.36381226 89.53879672 200.37548196 85.85217285 200.38545227 C83.96047615 200.39156556 83.96047615 200.39156556 82.03056335 200.39780235 C76.03978957 200.41651328 70.04904038 200.43107682 64.05824518 200.43941432 C57.16907792 200.44916285 50.280234 200.4754216 43.39118052 200.51591522 C37.40470597 200.54988093 31.41838654 200.56157318 25.43180847 200.56561852 C22.89623324 200.57047414 20.36066121 200.58205868 17.82514954 200.60065651 C14.2642385 200.62514523 10.70415889 200.62406429 7.14318848 200.61714172 C5.59030121 200.63635681 5.59030121 200.63635681 4.00604248 200.65596008 C-10.04985848 200.55704861 -22.63330172 194.62564485 -32.9251709 185.18623352 C-40.65113462 176.80171572 -46.89202448 164.93082298 -46.95124817 153.34309387 C-46.96198112 151.89679596 -46.96198112 151.89679596 -46.97293091 150.42127991 C-46.97561981 149.36982788 -46.97830872 148.31837585 -46.9810791 147.23506165 C-46.9876503 146.12233887 -46.9942215 145.00961609 -47.00099182 143.86317444 C-47.02071839 140.17658926 -47.03238809 136.49004488 -47.0423584 132.80342102 C-47.04643393 131.54228989 -47.05050945 130.28115875 -47.05470848 128.98181152 C-47.07341941 122.99103774 -47.08798295 117.00028855 -47.09632045 111.00949335 C-47.10606897 104.12032609 -47.13232773 97.23148217 -47.17282134 90.34242868 C-47.20678706 84.35595414 -47.21847931 78.36963471 -47.22252464 72.38305664 C-47.22738027 69.84748141 -47.23896481 67.31190938 -47.25756264 64.77639771 C-47.28205135 61.21548666 -47.28097042 57.65540706 -47.27404785 54.09443665 C-47.28685791 53.05917847 -47.29966797 52.02392029 -47.31286621 50.95729065 C-47.21395474 36.90138969 -41.28255098 24.31794645 -31.84313965 14.02607727 C-23.45862184 6.30011355 -11.58772911 0.05922369 0 0 Z M-28.80407715 24.14717102 C-36.92533619 35.11706341 -38.9483634 46.51818782 -38.96520996 59.89936829 C-38.97017487 60.85325943 -38.97513977 61.80715057 -38.98025513 62.78994751 C-38.99480277 65.93116492 -39.0016675 69.07233177 -39.00720215 72.21357727 C-39.01002953 73.29293989 -39.0128569 74.37230251 -39.01576996 75.48437309 C-39.03073517 81.19985573 -39.03998062 86.91531332 -39.04431152 92.6308136 C-39.04978248 98.50226922 -39.07378928 104.37349135 -39.10228348 110.244874 C-39.12101379 114.78767542 -39.12612103 119.33042184 -39.1276474 123.87325859 C-39.13065261 126.03595692 -39.13860803 128.19865479 -39.15183258 130.36131477 C-39.25943253 149.31505057 -38.55223845 165.51768995 -25.03845215 180.07295227 C-14.27282792 190.06691462 -1.22623055 192.29045869 12.94812012 192.30830383 C14.37895683 192.31575119 14.37895683 192.31575119 15.83869934 192.323349 C18.97991675 192.33789664 22.1210836 192.34476138 25.2623291 192.35029602 C26.88137303 192.35453709 26.88137303 192.35453709 28.53312492 192.35886383 C34.24860756 192.37382905 39.96406515 192.38307449 45.67956543 192.3874054 C51.55102105 192.39287636 57.42224318 192.41688316 63.29362583 192.44537735 C67.83642725 192.46410766 72.37917367 192.46921491 76.92201042 192.47074127 C79.08470875 192.47374649 81.24740662 192.4817019 83.4100666 192.49492645 C102.36380241 192.6025264 118.56644179 191.89533232 133.1217041 178.38154602 C143.11566645 167.61592179 145.33921052 154.56932442 145.35705566 140.39497375 C145.36202057 139.44108261 145.36698547 138.48719147 145.37210083 137.50439453 C145.38664847 134.36317712 145.39351321 131.22201027 145.39904785 128.08076477 C145.40187523 127.00140215 145.40470261 125.92203953 145.40761566 124.80996895 C145.42258088 119.09448631 145.43182632 113.37902873 145.43615723 107.66352844 C145.44162819 101.79207282 145.46563499 95.92085069 145.49412918 90.04946804 C145.51285949 85.50666662 145.51796674 80.9639202 145.5194931 76.42108345 C145.52249832 74.25838512 145.53045373 72.09568725 145.54367828 69.93302727 C145.65127823 50.97929147 144.94408416 34.77665209 131.43029785 20.22138977 C120.66467362 10.22742742 107.61807625 8.00388335 93.44372559 7.98603821 C92.48983444 7.9810733 91.5359433 7.9761084 90.55314636 7.97099304 C87.41192896 7.9564454 84.2707621 7.94958066 81.1295166 7.94404602 C79.51047267 7.93980495 79.51047267 7.93980495 77.85872078 7.93547821 C72.14323814 7.920513 66.42778056 7.91126755 60.71228027 7.90693665 C54.84082465 7.90146568 48.96960252 7.87745889 43.09821987 7.84896469 C38.55541846 7.83023438 34.01267203 7.82512714 29.46983528 7.82360077 C27.30713695 7.82059555 25.14443909 7.81264014 22.9817791 7.79941559 C2.99868564 7.685972 -14.38872427 8.61876829 -28.80407715 24.14717102 Z " fill="#374050" transform="translate(46.8040771484375,-0.1471710205078125)"/>
<path d="M0 0 C2.13065056 1.30395814 4.01786095 2.75306582 5.953125 4.33203125 C7.96432182 5.97092637 10.04934753 7.40803449 12.1875 8.875 C18.05631063 13.31408073 21.28725022 18.93231137 22.6875 26.12109375 C22.94730973 28.51459087 23.07018323 30.81967878 23.125 33.22265625 C23.336611 41.76420889 23.5069037 47.82599678 28.62109375 55.03515625 C30.51115085 57.72835376 31.07298838 59.71552275 31 63 C29.81500074 67.04293864 28.66511622 69.38604657 25.5625 72.25 C22.20647346 73.89857444 19.50243992 74.60621249 15.875 75.375 C11.05027906 76.36934506 11.05027906 76.36934506 7.75 79.9375 C7.1725 80.948125 6.595 81.95875 6 83 C2.0896012 86.04847795 -1.6747479 87.34226026 -6.625 87 C-10.83594017 86.27397583 -13.7230652 84.80880126 -17 82 C-17.38542969 81.18015625 -17.77085938 80.3603125 -18.16796875 79.515625 C-20.73827159 75.98625393 -23.8824884 75.4801729 -27.9375 74.5 C-35.21805675 72.73064778 -35.21805675 72.73064778 -38.44140625 69.71875 C-40.26309612 66.54106541 -40.99091504 64.679409 -41 61 C-39.80235459 58.33278002 -38.55591662 55.90689758 -37.125 53.375 C-33.19979899 45.88354948 -32.1257405 39.46090574 -32.30126953 31.04052734 C-32.38641523 23.48113781 -30.06563264 18.00992184 -25.8125 11.8125 C-22.81947202 8.81947202 -19.7533622 6.64033012 -16.18359375 4.39453125 C-13.97097532 3.02703551 -13.97097532 3.02703551 -11.91015625 1.38671875 C-7.83562303 -1.57127572 -4.72887895 -1.16283909 0 0 Z M-21 17 C-24.84370388 22.58371084 -25.53848258 26.62164653 -25.5625 33.3125 C-25.8562624 43.26703962 -26.96380467 51.05129959 -33.20703125 59.11328125 C-34.23285089 61.06953984 -34.23285089 61.06953984 -33.515625 63.58984375 C-30.50715903 68.37392495 -24.21978575 68.79450675 -19 70 C-15.98768178 70.56305013 -13.06020677 70.87272196 -10 71 C-9.23558594 71.03996094 -8.47117187 71.07992187 -7.68359375 71.12109375 C1.38404788 71.36852538 14.11589126 70.96139566 22 66 C23.56314926 63.75901996 23.56314926 63.75901996 24 61 C22.97910334 58.34052978 22.97910334 58.34052978 21.1875 55.875 C18.46916176 51.7819415 16.90938327 48.82020856 16.7890625 43.8671875 C16.76070312 43.06023437 16.73234375 42.25328125 16.703125 41.421875 C16.65176682 39.74759822 16.60729229 38.07309355 16.5703125 36.3984375 C16.2427141 27.77167954 14.50000766 20.07609412 8 14 C-1.87067859 8.04419581 -12.67311687 8.67311687 -21 17 Z M-11 77 C-7.39417559 80.40625929 -7.39417559 80.40625929 -3.75 79.6875 C-2.8425 79.460625 -1.935 79.23375 -1 79 C-1 78.67 -1 78.34 -1 78 C-4.3 77.67 -7.6 77.34 -11 77 Z " fill="#FFFFFF" transform="translate(105,57)"/>
</svg>
