<svg id="svg" version="1.1" xmlns="http://www.w3.org/2000/svg" xmlns:xlink="http://www.w3.org/1999/xlink" width="400" height="400" viewBox="0, 0, 400,400"><g id="svgg"><path id="path0" d="M83.200 0.600 C 83.200 1.093,82.489 1.200,79.200 1.200 L 75.200 1.200 75.200 2.200 C 75.200 3.177,75.129 3.201,72.100 3.243 C 67.343 3.308,67.396 3.296,67.432 4.300 C 67.461 5.125,67.285 5.200,65.332 5.200 C 63.325 5.200,63.200 5.258,63.200 6.200 C 63.200 7.133,63.067 7.200,61.200 7.200 C 59.333 7.200,59.200 7.267,59.200 8.200 C 59.200 9.133,59.067 9.200,57.200 9.200 C 55.333 9.200,55.200 9.267,55.200 10.200 C 55.200 11.133,55.067 11.200,53.200 11.200 C 51.333 11.200,51.200 11.267,51.200 12.200 C 51.200 13.133,51.067 13.200,49.200 13.200 C 47.333 13.200,47.200 13.267,47.200 14.200 C 47.200 15.000,47.000 15.200,46.200 15.200 C 45.400 15.200,45.200 15.400,45.200 16.200 C 45.200 17.133,45.067 17.200,43.200 17.200 C 41.333 17.200,41.200 17.267,41.200 18.200 C 41.200 19.000,41.000 19.200,40.200 19.200 C 39.400 19.200,39.200 19.400,39.200 20.200 C 39.200 21.000,39.000 21.200,38.200 21.200 C 37.400 21.200,37.200 21.400,37.200 22.200 C 37.200 23.014,36.995 23.208,36.100 23.243 C 33.507 23.343,33.399 23.385,33.432 24.300 C 33.457 25.029,33.248 25.200,32.332 25.200 C 31.391 25.200,31.200 25.369,31.200 26.200 C 31.200 27.000,31.000 27.200,30.200 27.200 C 29.400 27.200,29.200 27.400,29.200 28.200 C 29.200 29.000,29.000 29.200,28.200 29.200 C 27.400 29.200,27.200 29.400,27.200 30.200 C 27.200 31.000,27.000 31.200,26.200 31.200 C 25.400 31.200,25.200 31.400,25.200 32.200 C 25.200 33.000,25.000 33.200,24.200 33.200 C 23.267 33.200,23.200 33.333,23.200 35.200 C 23.200 37.067,23.133 37.200,22.200 37.200 C 21.400 37.200,21.200 37.400,21.200 38.200 C 21.200 39.000,21.000 39.200,20.200 39.200 C 19.400 39.200,19.200 39.400,19.200 40.200 C 19.200 41.000,19.000 41.200,18.200 41.200 C 17.267 41.200,17.200 41.333,17.200 43.200 C 17.200 45.067,17.133 45.200,16.200 45.200 C 15.400 45.200,15.200 45.400,15.200 46.200 C 15.200 47.000,15.000 47.200,14.200 47.200 C 13.267 47.200,13.200 47.333,13.200 49.200 C 13.200 51.067,13.133 51.200,12.200 51.200 C 11.267 51.200,11.200 51.333,11.200 53.200 C 11.200 55.067,11.133 55.200,10.200 55.200 C 9.267 55.200,9.200 55.333,9.200 57.200 C 9.200 59.067,9.133 59.200,8.200 59.200 C 7.267 59.200,7.200 59.333,7.200 61.200 C 7.200 63.067,7.133 63.200,6.200 63.200 C 5.222 63.200,5.200 63.267,5.200 66.200 C 5.200 69.133,5.178 69.200,4.200 69.200 C 3.222 69.200,3.200 69.267,3.200 72.200 C 3.200 75.133,3.178 75.200,2.200 75.200 L 1.200 75.200 1.200 79.200 C 1.200 82.489,1.093 83.200,0.600 83.200 C 0.068 83.200,0.000 96.444,0.000 200.000 C 0.000 302.271,0.073 316.800,0.586 316.800 C 1.052 316.800,1.194 317.595,1.286 320.700 C 1.394 324.400,1.446 324.607,2.300 324.728 C 3.140 324.847,3.203 325.061,3.243 327.928 C 3.308 332.670,3.295 332.611,4.279 332.508 C 5.072 332.426,5.171 332.624,5.279 334.508 C 5.384 336.329,5.516 336.617,6.300 336.728 C 7.094 336.841,7.200 337.087,7.200 338.828 C 7.200 340.665,7.269 340.800,8.200 340.800 C 9.133 340.800,9.200 340.933,9.200 342.800 C 9.200 344.655,9.271 344.800,10.178 344.800 C 11.061 344.800,11.168 344.985,11.278 346.700 C 11.382 348.321,11.532 348.619,12.300 348.728 C 13.094 348.841,13.200 349.087,13.200 350.828 C 13.200 351.913,13.335 352.779,13.500 352.753 C 14.682 352.566,15.200 352.885,15.200 353.800 C 15.200 354.600,15.400 354.800,16.200 354.800 C 17.133 354.800,17.200 354.933,17.200 356.800 C 17.200 357.900,17.335 358.779,17.500 358.753 C 18.682 358.566,19.200 358.885,19.200 359.800 C 19.200 360.600,19.400 360.800,20.200 360.800 C 21.000 360.800,21.200 361.000,21.200 361.800 C 21.200 362.600,21.400 362.800,22.200 362.800 C 23.014 362.800,23.208 363.005,23.243 363.900 C 23.344 366.521,23.377 366.602,24.300 366.505 C 25.054 366.425,25.200 366.604,25.200 367.605 C 25.200 368.262,25.335 368.779,25.500 368.753 C 26.682 368.566,27.200 368.885,27.200 369.800 C 27.200 370.350,27.335 370.779,27.500 370.753 C 28.682 370.566,29.200 370.885,29.200 371.800 C 29.200 372.350,29.335 372.779,29.500 372.753 C 30.682 372.566,31.200 372.885,31.200 373.800 C 31.200 374.350,31.335 374.779,31.500 374.753 C 32.682 374.566,33.200 374.885,33.200 375.800 C 33.200 376.350,33.335 376.779,33.500 376.753 C 35.633 376.416,37.200 376.859,37.200 377.800 C 37.200 378.600,37.400 378.800,38.200 378.800 C 39.000 378.800,39.200 379.000,39.200 379.800 C 39.200 380.600,39.400 380.800,40.200 380.800 C 41.000 380.800,41.200 381.000,41.200 381.800 C 41.200 382.350,41.335 382.779,41.500 382.753 C 43.633 382.416,45.200 382.859,45.200 383.800 C 45.200 384.600,45.400 384.800,46.200 384.800 C 47.000 384.800,47.200 385.000,47.200 385.800 C 47.200 386.350,47.335 386.779,47.500 386.753 C 49.633 386.416,51.200 386.859,51.200 387.800 C 51.200 388.733,51.333 388.800,53.200 388.800 C 55.067 388.800,55.200 388.867,55.200 389.800 C 55.200 390.733,55.333 390.800,57.200 390.800 C 59.067 390.800,59.200 390.867,59.200 391.800 C 59.200 392.733,59.333 392.800,61.200 392.800 C 63.067 392.800,63.200 392.867,63.200 393.800 C 63.200 394.778,63.267 394.800,66.200 394.800 C 69.133 394.800,69.200 394.822,69.200 395.800 C 69.200 396.778,69.267 396.800,72.200 396.800 C 75.133 396.800,75.200 396.822,75.200 397.800 L 75.200 398.800 79.200 398.800 C 82.489 398.800,83.200 398.907,83.200 399.400 C 83.200 399.932,96.444 400.000,200.000 400.000 C 303.556 400.000,316.800 399.932,316.800 399.400 C 316.800 398.907,317.511 398.800,320.800 398.800 L 324.800 398.800 324.800 397.800 C 324.800 396.824,324.876 396.799,327.900 396.741 C 332.830 396.647,332.610 396.696,332.505 395.700 C 332.416 394.864,332.567 394.800,334.605 394.800 C 336.680 394.800,336.800 394.745,336.800 393.800 C 336.800 392.867,336.933 392.800,338.800 392.800 C 340.667 392.800,340.800 392.733,340.800 391.800 C 340.800 390.867,340.933 390.800,342.800 390.800 C 344.667 390.800,344.800 390.733,344.800 389.800 C 344.800 388.867,344.933 388.800,346.800 388.800 C 348.655 388.800,348.800 388.729,348.800 387.822 C 348.800 386.939,348.985 386.832,350.700 386.722 C 352.321 386.618,352.619 386.468,352.728 385.700 C 352.820 385.049,353.124 384.800,353.828 384.800 C 354.592 384.800,354.800 384.591,354.800 383.822 C 354.800 382.939,354.985 382.832,356.700 382.722 C 358.321 382.618,358.619 382.468,358.728 381.700 C 358.820 381.049,359.124 380.800,359.828 380.800 C 360.598 380.800,360.800 380.592,360.800 379.800 C 360.800 379.000,361.000 378.800,361.800 378.800 C 362.600 378.800,362.800 378.600,362.800 377.800 C 362.800 376.771,362.734 376.797,365.800 376.641 C 366.374 376.612,366.574 376.353,366.509 375.726 C 366.438 375.043,366.658 374.824,367.509 374.726 C 368.277 374.637,368.637 374.341,368.725 373.725 C 368.802 373.179,369.179 372.802,369.725 372.725 C 370.270 372.647,370.647 372.270,370.725 371.725 C 370.802 371.179,371.179 370.802,371.725 370.725 C 372.270 370.647,372.647 370.270,372.725 369.725 C 372.802 369.179,373.179 368.802,373.725 368.725 C 374.270 368.647,374.647 368.270,374.725 367.725 C 374.802 367.179,375.179 366.802,375.725 366.725 C 376.464 366.619,376.619 366.304,376.722 364.700 C 376.832 362.985,376.939 362.800,377.822 362.800 C 378.599 362.800,378.800 362.594,378.800 361.800 C 378.800 361.000,379.000 360.800,379.800 360.800 C 380.592 360.800,380.800 360.598,380.800 359.828 C 380.800 359.124,381.049 358.820,381.700 358.728 C 382.468 358.619,382.618 358.321,382.722 356.700 C 382.832 354.985,382.939 354.800,383.822 354.800 C 384.591 354.800,384.800 354.592,384.800 353.828 C 384.800 353.124,385.049 352.820,385.700 352.728 C 386.468 352.619,386.618 352.321,386.722 350.700 C 386.832 348.985,386.939 348.800,387.822 348.800 C 388.729 348.800,388.800 348.655,388.800 346.800 C 388.800 344.933,388.867 344.800,389.800 344.800 C 390.733 344.800,390.800 344.667,390.800 342.800 C 390.800 340.933,390.867 340.800,391.800 340.800 C 392.733 340.800,392.800 340.667,392.800 338.800 C 392.800 336.933,392.867 336.800,393.800 336.800 C 394.778 336.800,394.800 336.733,394.800 333.800 C 394.800 330.867,394.822 330.800,395.800 330.800 C 396.778 330.800,396.800 330.733,396.800 327.800 C 396.800 324.867,396.822 324.800,397.800 324.800 L 398.800 324.800 398.800 320.800 C 398.800 317.511,398.907 316.800,399.400 316.800 C 399.932 316.800,400.000 303.556,400.000 200.000 C 400.000 97.729,399.927 83.200,399.414 83.200 C 398.948 83.200,398.806 82.405,398.714 79.300 C 398.606 75.600,398.554 75.393,397.700 75.272 C 396.862 75.153,396.796 74.933,396.741 72.072 C 396.648 67.280,396.673 67.400,395.800 67.400 C 395.133 67.400,394.967 67.067,394.800 65.400 C 394.630 63.704,394.463 63.381,393.700 63.272 C 392.906 63.159,392.800 62.913,392.800 61.172 C 392.800 59.335,392.731 59.200,391.800 59.200 C 390.867 59.200,390.800 59.067,390.800 57.200 C 390.800 55.345,390.729 55.200,389.822 55.200 C 388.939 55.200,388.832 55.015,388.722 53.300 C 388.618 51.679,388.468 51.381,387.700 51.272 C 386.872 51.155,386.444 49.453,386.753 47.500 C 386.779 47.335,386.350 47.200,385.800 47.200 C 385.000 47.200,384.800 47.000,384.800 46.200 C 384.800 45.400,384.600 45.200,383.800 45.200 C 382.859 45.200,382.416 43.633,382.753 41.500 C 382.779 41.335,382.350 41.200,381.800 41.200 C 381.000 41.200,380.800 41.000,380.800 40.200 C 380.800 39.400,380.600 39.200,379.800 39.200 C 379.000 39.200,378.800 39.000,378.800 38.200 C 378.800 37.400,378.600 37.200,377.800 37.200 C 376.771 37.200,376.797 37.266,376.641 34.200 C 376.612 33.639,376.331 33.409,375.700 33.432 C 374.873 33.461,374.548 32.797,374.753 31.500 C 374.779 31.335,374.350 31.200,373.800 31.200 C 372.885 31.200,372.566 30.682,372.753 29.500 C 372.779 29.335,372.350 29.200,371.800 29.200 C 370.885 29.200,370.566 28.682,370.753 27.500 C 370.779 27.335,370.350 27.200,369.800 27.200 C 368.885 27.200,368.566 26.682,368.753 25.500 C 368.779 25.335,368.350 25.200,367.800 25.200 C 366.885 25.200,366.566 24.682,366.753 23.500 C 366.779 23.335,365.900 23.200,364.800 23.200 C 362.933 23.200,362.800 23.133,362.800 22.200 C 362.800 21.400,362.600 21.200,361.800 21.200 C 361.000 21.200,360.800 21.000,360.800 20.200 C 360.800 19.400,360.600 19.200,359.800 19.200 C 358.885 19.200,358.566 18.682,358.753 17.500 C 358.779 17.335,357.900 17.200,356.800 17.200 C 354.933 17.200,354.800 17.133,354.800 16.200 C 354.800 15.400,354.600 15.200,353.800 15.200 C 352.885 15.200,352.566 14.682,352.753 13.500 C 352.779 13.335,351.900 13.200,350.800 13.200 C 348.933 13.200,348.800 13.133,348.800 12.200 C 348.800 11.267,348.667 11.200,346.800 11.200 C 344.933 11.200,344.800 11.133,344.800 10.200 C 344.800 9.267,344.667 9.200,342.800 9.200 C 340.933 9.200,340.800 9.133,340.800 8.200 C 340.800 7.269,340.665 7.200,338.828 7.200 C 337.087 7.200,336.841 7.094,336.728 6.300 C 336.611 5.474,336.361 5.390,333.700 5.282 C 330.919 5.170,330.800 5.125,330.800 4.182 C 330.800 3.227,330.717 3.200,327.828 3.200 C 325.050 3.200,324.847 3.141,324.728 2.300 C 324.607 1.446,324.400 1.394,320.700 1.286 C 317.595 1.194,316.800 1.052,316.800 0.586 C 316.800 0.073,302.271 0.000,200.000 0.000 C 96.444 0.000,83.200 0.068,83.200 0.600 M299.432 17.693 C 299.395 18.739,298.833 18.661,307.032 18.739 C 313.396 18.799,313.463 18.809,313.432 19.686 C 313.397 20.662,313.228 20.624,318.100 20.732 C 321.122 20.798,321.200 20.825,321.200 21.800 C 321.200 22.350,321.335 22.779,321.500 22.753 C 324.217 22.324,327.200 22.872,327.200 23.800 C 327.200 24.733,327.333 24.800,329.200 24.800 C 331.067 24.800,331.200 24.867,331.200 25.800 C 331.200 26.350,331.335 26.779,331.500 26.753 C 333.633 26.416,335.200 26.859,335.200 27.800 C 335.200 28.350,335.335 28.779,335.500 28.753 C 337.633 28.416,339.200 28.859,339.200 29.800 C 339.200 30.350,339.335 30.779,339.500 30.753 C 341.633 30.416,343.200 30.859,343.200 31.800 C 343.200 32.600,343.400 32.800,344.200 32.800 C 345.000 32.800,345.200 33.000,345.200 33.800 C 345.200 34.350,345.335 34.779,345.500 34.753 C 346.797 34.548,347.461 34.873,347.432 35.700 C 347.409 36.331,347.639 36.612,348.200 36.641 C 351.266 36.797,351.200 36.771,351.200 37.800 C 351.200 38.600,351.400 38.800,352.200 38.800 C 353.000 38.800,353.200 39.000,353.200 39.800 C 353.200 40.600,353.400 40.800,354.200 40.800 C 355.000 40.800,355.200 41.000,355.200 41.800 C 355.200 42.600,355.400 42.800,356.200 42.800 C 357.000 42.800,357.200 43.000,357.200 43.800 C 357.200 44.600,357.400 44.800,358.200 44.800 C 359.000 44.800,359.200 45.000,359.200 45.800 C 359.200 46.600,359.400 46.800,360.200 46.800 C 361.000 46.800,361.200 47.000,361.200 47.800 C 361.200 48.600,361.400 48.800,362.200 48.800 C 363.014 48.800,363.208 49.005,363.243 49.900 C 363.344 52.521,363.377 52.602,364.300 52.505 C 365.054 52.425,365.200 52.604,365.200 53.605 C 365.200 54.262,365.335 54.779,365.500 54.753 C 366.682 54.566,367.200 54.885,367.200 55.800 C 367.200 56.594,367.401 56.800,368.178 56.800 C 369.061 56.800,369.168 56.985,369.278 58.700 C 369.382 60.321,369.532 60.619,370.300 60.728 C 370.964 60.822,371.211 61.137,371.243 61.928 C 371.345 64.521,371.379 64.602,372.300 64.505 C 373.060 64.424,373.207 64.610,373.243 65.705 C 373.335 68.514,373.368 68.603,374.279 68.508 C 375.072 68.426,375.171 68.624,375.279 70.508 C 375.384 72.329,375.516 72.617,376.300 72.728 C 377.094 72.841,377.205 73.099,377.243 74.928 C 377.317 78.580,377.326 78.608,378.300 78.505 C 379.165 78.413,379.202 78.537,379.243 81.705 C 379.307 86.710,379.285 86.612,380.300 86.505 C 381.195 86.410,381.200 86.443,381.250 92.305 C 381.325 101.119,381.260 100.615,382.300 100.505 L 383.200 100.409 383.200 199.936 L 383.200 299.464 382.300 299.432 C 381.263 299.395,381.325 298.918,381.250 307.632 C 381.200 313.408,381.191 313.463,380.300 313.432 C 379.296 313.396,379.308 313.343,379.243 318.100 C 379.201 321.129,379.177 321.200,378.200 321.200 C 377.222 321.200,377.200 321.267,377.200 324.200 C 377.200 327.133,377.178 327.200,376.200 327.200 C 375.267 327.200,375.200 327.333,375.200 329.200 C 375.200 331.067,375.133 331.200,374.200 331.200 C 373.267 331.200,373.200 331.333,373.200 333.200 C 373.200 335.067,373.133 335.200,372.200 335.200 C 371.267 335.200,371.200 335.333,371.200 337.200 C 371.200 339.067,371.133 339.200,370.200 339.200 C 369.267 339.200,369.200 339.333,369.200 341.200 C 369.200 343.067,369.133 343.200,368.200 343.200 C 367.400 343.200,367.200 343.400,367.200 344.200 C 367.200 345.000,367.000 345.200,366.200 345.200 C 365.369 345.200,365.200 345.391,365.200 346.332 C 365.200 347.248,365.029 347.457,364.300 347.432 C 363.385 347.399,363.343 347.507,363.243 350.100 C 363.208 350.995,363.014 351.200,362.200 351.200 C 361.400 351.200,361.200 351.400,361.200 352.200 C 361.200 353.000,361.000 353.200,360.200 353.200 C 359.400 353.200,359.200 353.400,359.200 354.200 C 359.200 355.000,359.000 355.200,358.200 355.200 C 357.400 355.200,357.200 355.400,357.200 356.200 C 357.200 357.000,357.000 357.200,356.200 357.200 C 355.400 357.200,355.200 357.400,355.200 358.200 C 355.200 359.000,355.000 359.200,354.200 359.200 C 353.400 359.200,353.200 359.400,353.200 360.200 C 353.200 361.000,353.000 361.200,352.200 361.200 C 351.400 361.200,351.200 361.400,351.200 362.200 C 351.200 363.014,350.995 363.208,350.100 363.243 C 347.507 363.343,347.399 363.385,347.432 364.300 C 347.457 365.029,347.248 365.200,346.332 365.200 C 345.391 365.200,345.200 365.369,345.200 366.200 C 345.200 367.000,345.000 367.200,344.200 367.200 C 343.400 367.200,343.200 367.400,343.200 368.200 C 343.200 369.133,343.067 369.200,341.200 369.200 C 339.333 369.200,339.200 369.267,339.200 370.200 C 339.200 371.014,338.995 371.208,338.100 371.243 C 335.507 371.343,335.399 371.385,335.432 372.300 C 335.458 373.037,335.240 373.208,334.232 373.243 C 331.506 373.337,331.399 373.377,331.432 374.300 C 331.461 375.125,331.285 375.200,329.332 375.200 C 327.325 375.200,327.200 375.258,327.200 376.200 C 327.200 377.134,327.062 377.203,325.100 377.243 C 321.447 377.316,321.398 377.331,321.432 378.300 C 321.462 379.158,321.314 379.202,318.232 379.243 C 313.328 379.307,313.396 379.292,313.432 380.300 C 313.463 381.192,313.412 381.200,307.632 381.237 C 299.093 381.291,299.395 381.251,299.432 382.300 L 299.464 383.200 199.936 383.200 L 100.409 383.200 100.505 382.300 C 100.615 381.260,101.119 381.325,92.305 381.250 C 86.443 381.200,86.410 381.195,86.505 380.300 C 86.597 379.431,86.470 379.396,82.809 379.276 C 78.571 379.136,78.780 379.199,78.693 378.045 C 78.635 377.268,78.395 377.200,75.715 377.200 C 72.872 377.200,72.800 377.175,72.800 376.200 C 72.800 375.267,72.667 375.200,70.800 375.200 C 68.834 375.200,68.525 374.943,68.753 373.500 C 68.779 373.335,67.900 373.200,66.800 373.200 C 64.834 373.200,64.525 372.943,64.753 371.500 C 64.779 371.335,63.900 371.200,62.800 371.200 C 60.834 371.200,60.525 370.943,60.753 369.500 C 60.779 369.335,59.900 369.200,58.800 369.200 C 56.933 369.200,56.800 369.133,56.800 368.200 C 56.800 367.400,56.600 367.200,55.800 367.200 C 54.885 367.200,54.566 366.682,54.753 365.500 C 54.779 365.335,54.262 365.200,53.605 365.200 C 52.604 365.200,52.425 365.054,52.505 364.300 C 52.602 363.377,52.521 363.344,49.900 363.243 C 49.005 363.208,48.800 363.014,48.800 362.200 C 48.800 361.400,48.600 361.200,47.800 361.200 C 47.000 361.200,46.800 361.000,46.800 360.200 C 46.800 359.400,46.600 359.200,45.800 359.200 C 45.000 359.200,44.800 359.000,44.800 358.200 C 44.800 357.400,44.600 357.200,43.800 357.200 C 43.000 357.200,42.800 357.000,42.800 356.200 C 42.800 355.400,42.600 355.200,41.800 355.200 C 41.000 355.200,40.800 355.000,40.800 354.200 C 40.800 353.400,40.600 353.200,39.800 353.200 C 39.000 353.200,38.800 353.000,38.800 352.200 C 38.800 351.400,38.600 351.200,37.800 351.200 C 36.771 351.200,36.797 351.266,36.641 348.200 C 36.612 347.639,36.331 347.409,35.700 347.432 C 34.873 347.461,34.548 346.797,34.753 345.500 C 34.779 345.335,34.350 345.200,33.800 345.200 C 33.000 345.200,32.800 345.000,32.800 344.200 C 32.800 343.406,32.599 343.200,31.822 343.200 C 30.939 343.200,30.832 343.015,30.722 341.300 C 30.618 339.679,30.468 339.381,29.700 339.272 C 29.041 339.179,28.784 338.857,28.741 338.072 C 28.708 337.482,28.663 336.640,28.641 336.200 C 28.612 335.639,28.331 335.409,27.700 335.432 C 26.967 335.458,26.789 335.235,26.741 334.232 C 26.708 333.554,26.663 332.640,26.641 332.200 C 26.614 331.680,26.320 331.400,25.800 331.400 C 25.133 331.400,24.967 331.067,24.800 329.400 C 24.630 327.704,24.463 327.381,23.700 327.272 C 22.908 327.160,22.793 326.895,22.741 325.072 C 22.633 321.308,22.659 321.398,21.700 321.432 C 20.843 321.462,20.797 321.309,20.741 318.232 C 20.648 313.184,20.694 313.397,19.700 313.432 C 18.806 313.463,18.800 313.420,18.741 307.232 C 18.661 298.785,18.742 299.395,17.700 299.432 L 16.800 299.464 16.800 200.000 L 16.800 100.536 17.700 100.568 C 18.760 100.606,18.701 101.041,18.757 92.768 C 18.800 86.575,18.806 86.537,19.700 86.568 C 20.704 86.604,20.692 86.654,20.757 81.928 C 20.797 79.061,20.860 78.847,21.700 78.728 C 22.525 78.611,22.610 78.360,22.717 75.726 C 22.824 73.108,22.913 72.840,23.717 72.726 C 24.463 72.619,24.619 72.309,24.721 70.725 C 24.823 69.144,24.979 68.831,25.721 68.725 C 26.462 68.620,26.619 68.307,26.721 66.725 C 26.823 65.144,26.979 64.831,27.721 64.725 C 28.462 64.620,28.619 64.307,28.721 62.725 C 28.823 61.144,28.979 60.831,29.721 60.725 C 30.464 60.619,30.619 60.307,30.722 58.700 C 30.832 56.985,30.939 56.800,31.822 56.800 C 32.591 56.800,32.800 56.592,32.800 55.828 C 32.800 55.124,33.049 54.820,33.700 54.728 C 34.342 54.637,34.636 54.288,34.726 53.509 C 34.824 52.658,35.043 52.438,35.726 52.509 C 36.353 52.574,36.612 52.374,36.641 51.800 C 36.797 48.734,36.771 48.800,37.800 48.800 C 38.600 48.800,38.800 48.600,38.800 47.800 C 38.800 47.000,39.000 46.800,39.800 46.800 C 40.600 46.800,40.800 46.600,40.800 45.800 C 40.800 45.000,41.000 44.800,41.800 44.800 C 42.600 44.800,42.800 44.600,42.800 43.800 C 42.800 43.000,43.000 42.800,43.800 42.800 C 44.600 42.800,44.800 42.600,44.800 41.800 C 44.800 41.000,45.000 40.800,45.800 40.800 C 46.600 40.800,46.800 40.600,46.800 39.800 C 46.800 39.000,47.000 38.800,47.800 38.800 C 48.600 38.800,48.800 38.600,48.800 37.800 C 48.800 36.771,48.734 36.797,51.800 36.641 C 52.374 36.612,52.574 36.353,52.509 35.726 C 52.438 35.043,52.658 34.824,53.509 34.726 C 54.288 34.636,54.637 34.342,54.728 33.700 C 54.820 33.049,55.124 32.800,55.828 32.800 C 56.598 32.800,56.800 32.592,56.800 31.800 C 56.800 30.867,56.933 30.800,58.800 30.800 C 60.667 30.800,60.800 30.733,60.800 29.800 C 60.800 28.771,60.734 28.797,63.800 28.641 C 64.382 28.611,64.574 28.354,64.505 27.700 C 64.425 26.942,64.614 26.791,65.705 26.741 C 66.417 26.708,67.360 26.663,67.800 26.641 C 68.382 26.611,68.574 26.354,68.505 25.700 C 68.416 24.864,68.567 24.800,70.605 24.800 C 72.680 24.800,72.800 24.745,72.800 23.800 C 72.800 22.868,72.942 22.796,74.900 22.741 C 78.723 22.633,78.607 22.666,78.505 21.700 C 78.413 20.836,78.541 20.798,81.705 20.741 C 86.854 20.648,86.611 20.701,86.505 19.700 C 86.410 18.803,86.430 18.800,92.705 18.741 C 101.254 18.660,100.615 18.746,100.505 17.700 L 100.409 16.800 199.936 16.800 L 299.464 16.800 299.432 17.693 " stroke="none" fill="#e4e4ec" fill-rule="evenodd"></path><path id="path1" d="M195.200 112.200 C 195.200 113.178,195.133 113.200,192.200 113.200 C 189.267 113.200,189.200 113.222,189.200 114.200 C 189.200 115.133,189.067 115.200,187.200 115.200 C 185.333 115.200,185.200 115.267,185.200 116.200 C 185.200 117.000,185.000 117.200,184.200 117.200 C 183.400 117.200,183.200 117.400,183.200 118.200 C 183.200 119.000,183.000 119.200,182.200 119.200 C 181.400 119.200,181.200 119.400,181.200 120.200 C 181.200 121.000,181.000 121.200,180.200 121.200 C 179.400 121.200,179.200 121.400,179.200 122.200 C 179.200 123.000,179.000 123.200,178.200 123.200 C 177.400 123.200,177.200 123.400,177.200 124.200 C 177.200 125.133,177.067 125.200,175.200 125.200 C 173.333 125.200,173.200 125.267,173.200 126.200 C 173.200 127.133,173.067 127.200,171.200 127.200 C 169.333 127.200,169.200 127.267,169.200 128.200 C 169.200 129.000,169.000 129.200,168.200 129.200 C 167.406 129.200,167.200 129.401,167.200 130.178 C 167.200 131.061,167.015 131.168,165.300 131.278 C 163.679 131.382,163.381 131.532,163.272 132.300 C 163.180 132.951,162.876 133.200,162.172 133.200 C 161.402 133.200,161.200 133.408,161.200 134.200 C 161.200 135.000,161.000 135.200,160.200 135.200 C 159.400 135.200,159.200 135.400,159.200 136.200 C 159.200 137.000,159.000 137.200,158.200 137.200 C 157.267 137.200,157.200 137.333,157.200 139.200 C 157.200 141.067,157.133 141.200,156.200 141.200 C 155.400 141.200,155.200 141.400,155.200 142.200 C 155.200 143.000,155.000 143.200,154.200 143.200 C 153.267 143.200,153.200 143.333,153.200 145.200 C 153.200 147.067,153.133 147.200,152.200 147.200 C 151.400 147.200,151.200 147.400,151.200 148.200 C 151.200 149.000,151.000 149.200,150.200 149.200 C 149.222 149.200,149.200 149.267,149.200 152.200 C 149.200 155.133,149.178 155.200,148.200 155.200 C 147.222 155.200,147.200 155.267,147.200 158.200 C 147.200 161.133,147.178 161.200,146.200 161.200 L 145.200 161.200 145.200 181.200 L 145.200 201.200 144.200 201.200 C 143.222 201.200,143.200 201.267,143.200 204.200 C 143.200 207.133,143.178 207.200,142.200 207.200 C 141.267 207.200,141.200 207.333,141.200 209.200 C 141.200 211.067,141.133 211.200,140.200 211.200 C 139.267 211.200,139.200 211.333,139.200 213.200 C 139.200 215.067,139.133 215.200,138.200 215.200 C 137.408 215.200,137.200 215.402,137.200 216.172 C 137.200 216.876,136.951 217.180,136.300 217.272 C 135.532 217.381,135.382 217.679,135.278 219.300 C 135.168 221.015,135.061 221.200,134.178 221.200 C 133.271 221.200,133.200 221.345,133.200 223.200 C 133.200 225.067,133.133 225.200,132.200 225.200 C 131.267 225.200,131.200 225.333,131.200 227.200 C 131.200 229.067,131.133 229.200,130.200 229.200 C 129.223 229.200,129.200 229.269,129.200 232.172 C 129.200 234.950,129.141 235.153,128.300 235.272 C 127.443 235.394,127.400 235.571,127.400 239.000 C 127.400 242.429,127.443 242.606,128.300 242.728 C 129.141 242.847,129.200 243.050,129.200 245.828 C 129.200 248.731,129.223 248.800,130.200 248.800 C 131.133 248.800,131.200 248.933,131.200 250.800 C 131.200 252.667,131.267 252.800,132.200 252.800 C 133.000 252.800,133.200 253.000,133.200 253.800 C 133.200 254.600,133.400 254.800,134.200 254.800 C 135.000 254.800,135.200 255.000,135.200 255.800 C 135.200 256.600,135.400 256.800,136.200 256.800 C 137.000 256.800,137.200 257.000,137.200 257.800 C 137.200 258.733,137.333 258.800,139.200 258.800 C 141.067 258.800,141.200 258.867,141.200 259.800 C 141.200 260.778,141.267 260.800,144.200 260.800 C 147.133 260.800,147.200 260.822,147.200 261.800 C 147.200 262.778,147.267 262.800,150.200 262.800 C 153.133 262.800,153.200 262.822,153.200 263.800 L 153.200 264.800 157.200 264.800 L 161.200 264.800 161.200 265.800 C 161.200 266.800,161.202 266.800,165.172 266.800 C 168.987 266.800,169.149 266.836,169.272 267.700 C 169.353 268.271,169.721 268.646,170.279 268.725 C 171.021 268.831,171.177 269.144,171.279 270.725 C 171.382 272.321,171.534 272.619,172.300 272.728 C 172.951 272.820,173.200 273.124,173.200 273.828 C 173.200 274.592,173.409 274.800,174.178 274.800 C 175.061 274.800,175.168 274.985,175.278 276.700 C 175.381 278.304,175.536 278.619,176.275 278.725 C 176.821 278.802,177.198 279.179,177.275 279.725 C 177.381 280.464,177.696 280.619,179.300 280.722 C 181.015 280.832,181.200 280.939,181.200 281.822 C 181.200 282.599,181.406 282.800,182.200 282.800 C 183.000 282.800,183.200 283.000,183.200 283.800 C 183.200 284.733,183.333 284.800,185.200 284.800 C 187.067 284.800,187.200 284.867,187.200 285.800 L 187.200 286.800 191.200 286.800 L 195.200 286.800 195.200 287.800 L 195.200 288.800 201.000 288.800 L 206.800 288.800 206.800 287.800 C 206.800 286.822,206.867 286.800,209.800 286.800 C 212.733 286.800,212.800 286.778,212.800 285.800 C 212.800 284.867,212.933 284.800,214.800 284.800 C 216.667 284.800,216.800 284.733,216.800 283.800 C 216.800 282.867,216.933 282.800,218.800 282.800 C 220.667 282.800,220.800 282.733,220.800 281.800 C 220.800 281.000,221.000 280.800,221.800 280.800 C 222.600 280.800,222.800 280.600,222.800 279.800 C 222.800 279.000,223.000 278.800,223.800 278.800 C 224.600 278.800,224.800 278.600,224.800 277.800 C 224.800 277.000,225.000 276.800,225.800 276.800 C 226.733 276.800,226.800 276.667,226.800 274.800 C 226.800 272.933,226.867 272.800,227.800 272.800 C 228.733 272.800,228.800 272.667,228.800 270.800 C 228.800 268.933,228.867 268.800,229.800 268.800 C 230.600 268.800,230.800 268.600,230.800 267.800 L 230.800 266.800 234.800 266.800 L 238.800 266.800 238.800 265.800 L 238.800 264.800 242.800 264.800 L 246.800 264.800 246.800 263.800 C 246.800 262.800,246.802 262.800,250.772 262.800 C 254.587 262.800,254.749 262.764,254.872 261.900 C 254.981 261.137,255.304 260.970,257.000 260.800 C 258.681 260.632,259.020 260.460,259.125 259.721 C 259.231 258.979,259.544 258.823,261.125 258.721 C 262.721 258.618,263.019 258.466,263.128 257.700 C 263.220 257.049,263.524 256.800,264.228 256.800 C 264.998 256.800,265.200 256.592,265.200 255.800 C 265.200 255.000,265.400 254.800,266.200 254.800 C 267.000 254.800,267.200 254.600,267.200 253.800 C 267.200 253.086,267.416 252.800,267.957 252.800 C 268.847 252.800,269.200 252.052,269.200 250.167 C 269.200 249.092,269.362 248.800,269.957 248.800 C 271.001 248.800,271.200 248.058,271.200 244.167 C 271.200 241.136,271.275 240.800,271.953 240.800 C 272.426 240.800,272.774 240.451,272.886 239.864 C 273.128 238.599,272.564 237.200,271.813 237.200 C 271.303 237.200,271.200 236.529,271.200 233.226 C 271.200 228.977,270.790 227.200,269.810 227.200 C 269.426 227.200,269.200 226.829,269.200 226.200 C 269.200 225.406,268.999 225.200,268.222 225.200 C 267.339 225.200,267.232 225.015,267.122 223.300 C 267.018 221.679,266.868 221.381,266.100 221.272 C 265.371 221.169,265.200 220.889,265.200 219.805 C 265.200 217.947,264.843 217.200,263.957 217.200 C 263.416 217.200,263.200 216.914,263.200 216.200 C 263.200 215.406,262.999 215.200,262.222 215.200 C 261.339 215.200,261.232 215.015,261.122 213.300 C 261.019 211.693,260.864 211.381,260.121 211.275 C 259.379 211.169,259.223 210.856,259.121 209.275 C 259.018 207.679,258.866 207.381,258.100 207.272 L 257.200 207.144 257.200 190.198 C 257.200 173.286,257.047 171.200,255.810 171.200 C 255.294 171.200,255.200 170.376,255.200 165.833 C 255.200 159.746,255.083 159.200,253.775 159.200 C 252.886 159.200,252.829 159.044,252.718 156.300 C 252.610 153.639,252.526 153.389,251.700 153.272 C 250.906 153.159,250.800 152.913,250.800 151.172 C 250.800 149.335,250.731 149.200,249.800 149.200 C 248.867 149.200,248.800 149.067,248.800 147.200 C 248.800 145.333,248.733 145.200,247.800 145.200 C 247.000 145.200,246.800 145.000,246.800 144.200 C 246.800 143.406,246.599 143.200,245.822 143.200 C 244.939 143.200,244.832 143.015,244.722 141.300 C 244.618 139.679,244.468 139.381,243.700 139.272 C 243.049 139.180,242.800 138.876,242.800 138.172 C 242.800 137.402,242.592 137.200,241.800 137.200 C 241.000 137.200,240.800 137.000,240.800 136.200 C 240.800 135.400,240.600 135.200,239.800 135.200 C 239.000 135.200,238.800 135.000,238.800 134.200 C 238.800 133.400,238.600 133.200,237.800 133.200 C 237.000 133.200,236.800 133.000,236.800 132.200 C 236.800 131.267,236.667 131.200,234.800 131.200 C 232.933 131.200,232.800 131.133,232.800 130.200 C 232.800 129.400,232.600 129.200,231.800 129.200 C 231.000 129.200,230.800 129.000,230.800 128.200 C 230.800 127.267,230.667 127.200,228.800 127.200 C 226.933 127.200,226.800 127.133,226.800 126.200 C 226.800 125.267,226.667 125.200,224.800 125.200 C 222.933 125.200,222.800 125.133,222.800 124.200 C 222.800 123.400,222.600 123.200,221.800 123.200 C 221.000 123.200,220.800 123.000,220.800 122.200 C 220.800 121.400,220.600 121.200,219.800 121.200 C 219.000 121.200,218.800 121.000,218.800 120.200 C 218.800 119.400,218.600 119.200,217.800 119.200 C 217.000 119.200,216.800 119.000,216.800 118.200 C 216.800 117.400,216.600 117.200,215.800 117.200 C 215.000 117.200,214.800 117.000,214.800 116.200 C 214.800 115.267,214.667 115.200,212.800 115.200 C 210.933 115.200,210.800 115.133,210.800 114.200 C 210.800 113.222,210.733 113.200,207.800 113.200 C 204.867 113.200,204.800 113.178,204.800 112.200 L 204.800 111.200 200.000 111.200 L 195.200 111.200 195.200 112.200 M207.200 135.800 C 207.200 136.777,207.269 136.800,210.172 136.800 C 212.950 136.800,213.153 136.859,213.272 137.700 C 213.389 138.526,213.639 138.610,216.300 138.718 C 219.081 138.830,219.200 138.875,219.200 139.818 C 219.200 140.599,219.405 140.800,220.200 140.800 C 221.000 140.800,221.200 141.000,221.200 141.800 C 221.200 142.733,221.333 142.800,223.200 142.800 C 225.067 142.800,225.200 142.867,225.200 143.800 C 225.200 144.600,225.400 144.800,226.200 144.800 C 227.000 144.800,227.200 145.000,227.200 145.800 C 227.200 146.600,227.400 146.800,228.200 146.800 C 229.000 146.800,229.200 147.000,229.200 147.800 C 229.200 148.600,229.400 148.800,230.200 148.800 C 231.000 148.800,231.200 149.000,231.200 149.800 C 231.200 150.600,231.400 150.800,232.200 150.800 C 233.133 150.800,233.200 150.933,233.200 152.800 C 233.200 154.655,233.271 154.800,234.178 154.800 C 235.061 154.800,235.168 154.985,235.278 156.700 C 235.382 158.321,235.532 158.619,236.300 158.728 C 237.094 158.841,237.200 159.087,237.200 160.828 C 237.200 162.658,237.271 162.800,238.188 162.800 L 239.175 162.800 239.288 167.700 C 239.396 172.431,239.431 172.604,240.296 172.727 L 241.192 172.855 241.296 191.727 L 241.400 210.600 242.283 210.726 C 243.087 210.840,243.176 211.108,243.283 213.726 C 243.389 216.339,243.480 216.611,244.279 216.725 C 245.021 216.831,245.177 217.144,245.279 218.725 C 245.382 220.321,245.534 220.619,246.300 220.728 C 246.951 220.820,247.200 221.124,247.200 221.828 C 247.200 222.598,247.408 222.800,248.200 222.800 C 249.133 222.800,249.200 222.933,249.200 224.800 C 249.200 226.655,249.271 226.800,250.178 226.800 C 251.061 226.800,251.168 226.985,251.278 228.700 C 251.382 230.321,251.532 230.619,252.300 230.728 C 252.951 230.820,253.200 231.124,253.200 231.828 C 253.200 232.598,253.408 232.800,254.200 232.800 C 255.133 232.800,255.200 232.933,255.200 234.800 C 255.200 236.667,255.267 236.800,256.200 236.800 C 257.044 236.800,257.200 236.987,257.200 238.000 C 257.200 239.013,257.044 239.200,256.200 239.200 C 255.267 239.200,255.200 239.333,255.200 241.200 C 255.200 243.067,255.133 243.200,254.200 243.200 C 253.406 243.200,253.200 243.401,253.200 244.178 C 253.200 245.061,253.015 245.168,251.300 245.278 C 249.690 245.381,249.381 245.535,249.274 246.283 C 249.160 247.087,248.892 247.176,246.274 247.283 C 243.654 247.390,243.389 247.478,243.274 248.286 C 243.155 249.121,242.928 249.178,239.274 249.286 C 235.601 249.394,235.393 249.447,235.272 250.300 C 235.149 251.164,234.987 251.200,231.172 251.200 C 227.210 251.200,227.200 251.203,227.200 252.192 L 227.200 253.185 218.300 253.292 C 209.412 253.400,209.400 253.401,209.272 254.300 L 209.144 255.200 200.000 255.200 L 190.856 255.200 190.728 254.300 C 190.600 253.401,190.588 253.400,181.700 253.292 L 172.800 253.185 172.800 252.192 C 172.800 251.203,172.790 251.200,168.828 251.200 C 165.013 251.200,164.851 251.164,164.728 250.300 C 164.607 249.446,164.400 249.394,160.700 249.286 C 156.853 249.173,156.800 249.158,156.800 248.186 C 156.800 247.226,156.722 247.200,153.800 247.200 C 150.867 247.200,150.800 247.178,150.800 246.200 C 150.800 245.267,150.667 245.200,148.800 245.200 C 146.933 245.200,146.800 245.133,146.800 244.200 C 146.800 243.406,146.599 243.200,145.822 243.200 C 144.939 243.200,144.832 243.015,144.722 241.300 C 144.618 239.679,144.468 239.381,143.700 239.272 C 142.304 239.074,142.396 236.800,143.800 236.800 C 144.733 236.800,144.800 236.667,144.800 234.800 C 144.800 232.933,144.867 232.800,145.800 232.800 C 146.600 232.800,146.800 232.600,146.800 231.800 C 146.800 231.000,147.000 230.800,147.800 230.800 C 148.733 230.800,148.800 230.667,148.800 228.800 C 148.800 226.933,148.867 226.800,149.800 226.800 C 150.733 226.800,150.800 226.667,150.800 224.800 C 150.800 222.933,150.867 222.800,151.800 222.800 C 152.600 222.800,152.800 222.600,152.800 221.800 C 152.800 221.000,153.000 220.800,153.800 220.800 C 154.733 220.800,154.800 220.667,154.800 218.800 C 154.800 216.933,154.867 216.800,155.800 216.800 C 156.778 216.800,156.800 216.733,156.800 213.800 C 156.800 210.867,156.822 210.800,157.800 210.800 L 158.800 210.800 158.800 205.800 L 158.800 200.800 159.800 200.800 L 160.800 200.800 160.800 181.800 L 160.800 162.800 161.800 162.800 C 162.733 162.800,162.800 162.667,162.800 160.800 C 162.800 158.933,162.867 158.800,163.800 158.800 C 164.733 158.800,164.800 158.667,164.800 156.800 C 164.800 154.933,164.867 154.800,165.800 154.800 C 166.600 154.800,166.800 154.600,166.800 153.800 C 166.800 153.000,167.000 152.800,167.800 152.800 C 168.733 152.800,168.800 152.667,168.800 150.800 C 168.800 148.933,168.867 148.800,169.800 148.800 C 170.600 148.800,170.800 148.600,170.800 147.800 C 170.800 147.000,171.000 146.800,171.800 146.800 C 172.600 146.800,172.800 146.600,172.800 145.800 C 172.800 144.867,172.933 144.800,174.800 144.800 C 176.667 144.800,176.800 144.733,176.800 143.800 C 176.800 143.000,177.000 142.800,177.800 142.800 C 178.600 142.800,178.800 142.600,178.800 141.800 C 178.800 140.867,178.933 140.800,180.800 140.800 C 182.667 140.800,182.800 140.733,182.800 139.800 C 182.800 138.867,182.933 138.800,184.800 138.800 C 186.667 138.800,186.800 138.733,186.800 137.800 L 186.800 136.800 190.800 136.800 L 194.800 136.800 194.800 135.800 L 194.800 134.800 201.000 134.800 L 207.200 134.800 207.200 135.800 M193.200 269.800 L 193.200 270.800 200.300 270.863 C 204.205 270.897,206.500 271.032,205.400 271.163 C 203.717 271.362,203.380 271.543,203.272 272.300 C 203.062 273.782,196.800 273.685,196.800 272.200 C 196.800 271.267,196.667 271.200,194.800 271.200 C 192.945 271.200,192.800 271.129,192.800 270.221 C 192.800 269.325,192.621 269.229,190.700 269.095 L 188.600 268.948 190.900 268.874 C 193.106 268.803,193.200 268.841,193.200 269.800 M210.700 269.076 C 210.315 269.176,209.685 269.176,209.300 269.076 C 208.915 268.975,209.230 268.893,210.000 268.893 C 210.770 268.893,211.085 268.975,210.700 269.076 " stroke="none" fill="#141b24" fill-rule="evenodd"></path><path id="path2" d="M99.714 17.842 C 99.227 18.369,98.989 18.800,99.186 18.800 C 99.656 18.800,100.800 17.645,100.800 17.171 C 100.800 16.688,100.758 16.713,99.714 17.842 M85.714 19.842 C 85.227 20.369,84.989 20.800,85.186 20.800 C 85.656 20.800,86.800 19.645,86.800 19.171 C 86.800 18.688,86.758 18.713,85.714 19.842 M77.714 21.842 C 77.227 22.369,76.989 22.800,77.186 22.800 C 77.656 22.800,78.800 21.645,78.800 21.171 C 78.800 20.688,78.758 20.713,77.714 21.842 M67.714 25.842 C 67.227 26.369,66.989 26.800,67.186 26.800 C 67.656 26.800,68.800 25.645,68.800 25.171 C 68.800 24.688,68.758 24.713,67.714 25.842 M63.714 27.842 C 63.227 28.369,62.989 28.800,63.186 28.800 C 63.656 28.800,64.800 27.645,64.800 27.171 C 64.800 26.688,64.758 26.713,63.714 27.842 M51.714 35.842 C 51.227 36.369,50.989 36.800,51.186 36.800 C 51.656 36.800,52.800 35.645,52.800 35.171 C 52.800 34.688,52.758 34.713,51.714 35.842 M35.714 51.842 C 35.227 52.369,34.989 52.800,35.186 52.800 C 35.656 52.800,36.800 51.645,36.800 51.171 C 36.800 50.688,36.758 50.713,35.714 51.842 M365.714 375.842 C 365.227 376.369,364.989 376.800,365.186 376.800 C 365.656 376.800,366.800 375.645,366.800 375.171 C 366.800 374.688,366.758 374.713,365.714 375.842 M331.714 395.842 C 331.227 396.369,330.989 396.800,331.186 396.800 C 331.656 396.800,332.800 395.645,332.800 395.171 C 332.800 394.688,332.758 394.713,331.714 395.842 " stroke="none" fill="#e8b488" fill-rule="evenodd"></path><path id="path3" d="M99.714 17.842 C 99.227 18.369,98.989 18.800,99.186 18.800 C 99.656 18.800,100.800 17.645,100.800 17.171 C 100.800 16.688,100.758 16.713,99.714 17.842 M85.714 19.842 C 85.227 20.369,84.989 20.800,85.186 20.800 C 85.656 20.800,86.800 19.645,86.800 19.171 C 86.800 18.688,86.758 18.713,85.714 19.842 M77.714 21.842 C 77.227 22.369,76.989 22.800,77.186 22.800 C 77.656 22.800,78.800 21.645,78.800 21.171 C 78.800 20.688,78.758 20.713,77.714 21.842 M67.714 25.842 C 67.227 26.369,66.989 26.800,67.186 26.800 C 67.656 26.800,68.800 25.645,68.800 25.171 C 68.800 24.688,68.758 24.713,67.714 25.842 M63.714 27.842 C 63.227 28.369,62.989 28.800,63.186 28.800 C 63.656 28.800,64.800 27.645,64.800 27.171 C 64.800 26.688,64.758 26.713,63.714 27.842 M51.714 35.842 C 51.227 36.369,50.989 36.800,51.186 36.800 C 51.656 36.800,52.800 35.645,52.800 35.171 C 52.800 34.688,52.758 34.713,51.714 35.842 M35.714 51.842 C 35.227 52.369,34.989 52.800,35.186 52.800 C 35.656 52.800,36.800 51.645,36.800 51.171 C 36.800 50.688,36.758 50.713,35.714 51.842 M365.714 375.842 C 365.227 376.369,364.989 376.800,365.186 376.800 C 365.656 376.800,366.800 375.645,366.800 375.171 C 366.800 374.688,366.758 374.713,365.714 375.842 M331.714 395.842 C 331.227 396.369,330.989 396.800,331.186 396.800 C 331.656 396.800,332.800 395.645,332.800 395.171 C 332.800 394.688,332.758 394.713,331.714 395.842 " stroke="none" fill="#e8b488" fill-rule="evenodd"></path><path id="path4" d="M99.714 17.842 C 99.227 18.369,98.989 18.800,99.186 18.800 C 99.656 18.800,100.800 17.645,100.800 17.171 C 100.800 16.688,100.758 16.713,99.714 17.842 M85.714 19.842 C 85.227 20.369,84.989 20.800,85.186 20.800 C 85.656 20.800,86.800 19.645,86.800 19.171 C 86.800 18.688,86.758 18.713,85.714 19.842 M77.714 21.842 C 77.227 22.369,76.989 22.800,77.186 22.800 C 77.656 22.800,78.800 21.645,78.800 21.171 C 78.800 20.688,78.758 20.713,77.714 21.842 M67.714 25.842 C 67.227 26.369,66.989 26.800,67.186 26.800 C 67.656 26.800,68.800 25.645,68.800 25.171 C 68.800 24.688,68.758 24.713,67.714 25.842 M63.714 27.842 C 63.227 28.369,62.989 28.800,63.186 28.800 C 63.656 28.800,64.800 27.645,64.800 27.171 C 64.800 26.688,64.758 26.713,63.714 27.842 M51.714 35.842 C 51.227 36.369,50.989 36.800,51.186 36.800 C 51.656 36.800,52.800 35.645,52.800 35.171 C 52.800 34.688,52.758 34.713,51.714 35.842 M35.714 51.842 C 35.227 52.369,34.989 52.800,35.186 52.800 C 35.656 52.800,36.800 51.645,36.800 51.171 C 36.800 50.688,36.758 50.713,35.714 51.842 M365.714 375.842 C 365.227 376.369,364.989 376.800,365.186 376.800 C 365.656 376.800,366.800 375.645,366.800 375.171 C 366.800 374.688,366.758 374.713,365.714 375.842 M331.714 395.842 C 331.227 396.369,330.989 396.800,331.186 396.800 C 331.656 396.800,332.800 395.645,332.800 395.171 C 332.800 394.688,332.758 394.713,331.714 395.842 " stroke="none" fill="#e8b488" fill-rule="evenodd"></path></g></svg>