<?xml version="1.0" encoding="UTF-8"?>
<svg version="1.1" xmlns="http://www.w3.org/2000/svg" width="96" height="96">
<path d="M0 0 C2.475 0.495 2.475 0.495 5 1 C5 8.59 5 16.18 5 24 C12.59 24 20.18 24 28 24 C28.495 26.475 28.495 26.475 29 29 C28 30 28 30 25.77514648 30.11352539 C24.81680908 30.10828857 23.85847168 30.10305176 22.87109375 30.09765625 C21.93966553 30.09515869 21.0082373 30.09266113 20.04858398 30.09008789 C18.26109741 30.07643188 18.26109741 30.07643188 16.4375 30.0625 C12.663125 30.041875 8.88875 30.02125 5 30 C5 37.59 5 45.18 5 53 C2.525 53.495 2.525 53.495 0 54 C-1 53 -1 53 -1.11352539 50.77514648 C-1.10828857 49.81680908 -1.10305176 48.85847168 -1.09765625 47.87109375 C-1.09515869 46.93966553 -1.09266113 46.0082373 -1.09008789 45.04858398 C-1.08098389 43.85692627 -1.07187988 42.66526855 -1.0625 41.4375 C-1.041875 37.663125 -1.02125 33.88875 -1 30 C-8.59 30 -16.18 30 -24 30 C-24.33 28.35 -24.66 26.7 -25 25 C-24 24 -24 24 -21.77514648 23.88647461 C-20.81680908 23.89171143 -19.85847168 23.89694824 -18.87109375 23.90234375 C-17.31938477 23.90717773 -17.31938477 23.90717773 -15.73632812 23.91210938 C-14.64771484 23.92048828 -13.55910156 23.92886719 -12.4375 23.9375 C-10.7987793 23.94426758 -10.7987793 23.94426758 -9.12695312 23.95117188 C-6.41791505 23.96300174 -3.70898401 23.97948457 -1 24 C-1.00785522 22.9627478 -1.00785522 22.9627478 -1.01586914 21.90454102 C-1.036575 18.79053648 -1.04963963 15.67654639 -1.0625 12.5625 C-1.07087891 11.47388672 -1.07925781 10.38527344 -1.08789062 9.26367188 C-1.09272461 7.71196289 -1.09272461 7.71196289 -1.09765625 6.12890625 C-1.10551147 4.69140015 -1.10551147 4.69140015 -1.11352539 3.22485352 C-1 1 -1 1 0 0 Z " fill="#111826" transform="translate(46,21)"/>
</svg>
