<svg id="svg" version="1.1" xmlns="http://www.w3.org/2000/svg" xmlns:xlink="http://www.w3.org/1999/xlink" width="400" height="400" viewBox="0, 0, 400,400"><g id="svgg"><path id="path0" d="M94.750 19.406 C 94.601 19.985,94.504 20.261,94.238 20.859 C 94.078 21.221,93.979 21.761,94.020 22.059 C 94.190 23.290,93.925 23.398,90.937 23.311 C 88.441 23.238,87.773 23.350,87.335 23.911 C 86.834 24.553,86.816 24.550,87.058 23.858 C 87.350 23.023,83.507 23.063,78.300 23.949 C 78.135 23.977,78.000 24.202,78.000 24.449 C 78.000 24.730,78.195 24.767,78.519 24.549 C 78.804 24.357,78.700 24.510,78.288 24.889 C 77.796 25.341,77.627 25.856,77.796 26.389 C 78.051 27.192,75.400 27.565,71.700 27.247 C 71.205 27.205,70.800 27.337,70.800 27.540 C 70.800 27.744,70.491 27.886,70.114 27.856 C 69.579 27.812,69.399 28.191,69.294 29.587 C 69.127 31.802,69.512 31.583,65.701 31.638 C 61.939 31.693,60.464 32.607,60.959 34.578 C 61.206 35.563,61.149 35.600,59.379 35.600 C 57.172 35.600,56.619 36.091,56.452 38.200 C 56.297 40.164,56.461 40.020,54.325 40.063 L 52.544 40.099 52.449 41.939 C 52.332 44.203,52.394 44.145,50.210 44.062 C 48.234 43.987,47.722 44.722,48.074 47.124 C 48.224 48.144,48.144 48.224,47.124 48.074 C 44.947 47.755,43.934 48.289,44.011 49.715 C 44.157 52.402,44.159 52.400,42.000 52.400 L 40.000 52.400 40.000 54.400 L 40.000 56.400 38.000 56.400 C 36.900 56.400,35.977 56.580,35.950 56.800 C 35.923 57.020,35.855 57.380,35.800 57.600 C 35.745 57.820,35.678 58.630,35.650 59.400 C 35.602 60.751,35.545 60.800,34.049 60.800 C 33.196 60.800,32.286 61.055,32.027 61.368 C 31.382 62.144,31.624 66.076,32.300 65.817 C 32.575 65.711,32.800 65.799,32.800 66.013 C 32.800 66.226,32.530 66.400,32.200 66.400 C 31.472 66.400,31.395 68.069,32.065 69.326 C 32.477 70.098,32.458 70.140,31.904 69.683 C 30.953 68.898,27.784 69.236,27.856 70.114 C 27.886 70.491,27.780 70.800,27.619 70.800 C 27.458 70.800,27.314 71.610,27.299 72.600 C 27.270 74.538,27.673 74.820,28.892 73.717 C 29.438 73.222,29.821 73.143,30.277 73.431 C 30.904 73.826,31.074 74.491,30.500 74.300 C 30.335 74.245,30.245 74.065,30.300 73.900 C 30.476 73.372,29.715 73.579,29.200 74.200 C 28.926 74.530,28.364 74.800,27.951 74.800 C 27.275 74.800,27.200 75.141,27.200 78.200 C 27.200 81.810,27.184 81.836,25.076 81.617 C 23.513 81.454,23.309 82.178,23.266 88.058 C 23.218 94.730,23.629 94.004,19.699 94.355 C 19.300 94.391,19.203 109.532,19.223 169.009 C 19.238 215.322,19.390 243.530,19.623 243.386 C 19.843 243.250,19.833 243.586,19.599 244.203 C 18.849 246.176,19.088 254.712,19.900 254.924 C 20.554 255.095,20.554 255.110,19.886 255.154 C 19.129 255.203,18.897 262.800,19.652 262.800 C 19.830 262.800,19.859 263.101,19.718 263.469 C 19.523 263.977,19.623 264.077,20.131 263.882 C 20.501 263.740,20.800 263.817,20.800 264.056 C 20.800 264.313,21.194 264.388,21.775 264.242 C 23.106 263.908,23.224 264.237,23.268 268.367 C 23.299 271.320,23.421 271.992,23.953 272.134 C 24.505 272.282,24.497 272.314,23.900 272.354 C 23.373 272.389,23.200 272.752,23.200 273.824 C 23.200 274.856,23.337 275.165,23.700 274.947 C 24.040 274.743,24.024 274.863,23.651 275.323 C 22.869 276.287,23.638 277.057,25.452 277.125 C 27.324 277.195,27.169 276.818,27.257 281.524 C 27.298 283.766,27.495 285.600,27.693 285.600 C 27.892 285.600,27.938 285.965,27.796 286.411 C 27.627 286.944,27.796 287.459,28.288 287.911 C 28.700 288.290,28.804 288.443,28.519 288.251 C 28.195 288.033,28.000 288.070,28.000 288.351 C 28.000 288.819,28.055 288.844,29.465 288.995 C 30.991 289.158,31.600 289.555,31.600 290.387 C 31.600 290.843,31.864 291.200,32.200 291.200 C 32.530 291.200,32.800 291.455,32.800 291.767 C 32.800 292.078,33.025 292.424,33.300 292.535 C 33.692 292.693,33.689 292.744,33.287 292.768 C 33.006 292.786,32.671 292.530,32.545 292.200 C 32.187 291.269,31.589 291.493,31.742 292.500 C 31.862 293.285,32.118 293.400,33.740 293.400 C 35.579 293.400,35.600 293.415,35.600 294.724 C 35.600 295.676,35.740 295.963,36.100 295.747 C 36.484 295.516,36.495 295.581,36.147 296.023 C 35.669 296.631,35.522 299.918,35.942 300.600 C 36.077 300.820,36.191 301.180,36.195 301.400 C 36.202 301.813,36.486 301.875,38.700 301.954 C 39.983 301.999,40.000 302.025,40.000 303.957 C 40.000 306.117,40.305 306.400,42.633 306.400 C 43.891 306.400,44.000 306.497,44.000 307.624 C 44.000 308.496,44.144 308.761,44.500 308.547 C 44.893 308.310,44.892 308.379,44.495 308.870 C 43.800 309.729,44.777 310.642,45.588 309.890 C 45.966 309.540,46.041 309.536,45.851 309.874 C 45.674 310.189,46.025 310.391,46.892 310.474 C 48.055 310.586,48.187 310.722,48.085 311.700 C 48.022 312.305,48.137 312.800,48.340 312.800 C 48.544 312.800,48.686 313.109,48.656 313.486 C 48.612 314.022,48.992 314.201,50.400 314.306 C 52.512 314.465,52.869 314.739,52.952 316.265 C 53.033 317.731,53.446 318.357,54.308 318.318 C 54.689 318.302,55.751 318.410,56.668 318.558 C 58.069 318.786,58.365 318.715,58.521 318.115 C 58.694 317.450,58.710 317.449,58.754 318.100 C 58.779 318.485,58.999 318.800,59.243 318.800 C 59.500 318.800,59.573 318.506,59.418 318.100 C 59.216 317.572,59.353 317.617,59.975 318.283 C 60.475 318.819,60.800 319.705,60.800 320.534 C 60.800 321.287,61.055 322.114,61.368 322.373 C 62.144 323.018,66.076 322.776,65.817 322.100 C 65.711 321.825,65.799 321.600,66.013 321.600 C 66.226 321.600,66.400 321.858,66.400 322.174 C 66.400 322.627,67.077 322.743,69.617 322.724 C 73.388 322.696,73.056 322.493,73.331 325.000 C 73.451 326.100,73.561 327.043,73.575 327.095 C 73.671 327.463,81.045 327.053,81.291 326.667 C 81.511 326.321,81.589 326.330,81.594 326.700 C 81.598 327.033,82.270 327.200,83.600 327.200 C 85.651 327.200,85.874 327.443,85.645 329.436 C 85.533 330.404,87.083 331.291,88.015 330.792 C 88.609 330.474,88.808 330.464,88.625 330.760 C 88.438 331.063,89.171 331.200,90.976 331.200 C 92.994 331.200,93.600 331.067,93.600 330.624 C 93.600 329.846,94.275 329.474,94.634 330.055 C 94.815 330.348,94.750 330.416,94.462 330.238 C 94.188 330.069,94.000 330.207,94.000 330.576 C 94.000 330.975,94.361 331.200,95.000 331.200 C 95.550 331.200,96.000 330.998,96.000 330.751 C 96.000 330.425,96.144 330.422,96.527 330.739 C 96.897 331.046,103.491 331.150,118.643 331.088 L 140.232 331.000 140.070 332.104 C 139.981 332.711,140.154 333.510,140.454 333.880 C 140.829 334.342,140.843 334.459,140.500 334.253 C 140.225 334.088,140.000 334.115,140.000 334.312 C 140.000 334.887,142.020 335.648,142.848 335.385 C 143.709 335.111,143.904 335.487,144.102 337.800 C 144.177 338.680,144.455 339.423,144.719 339.450 C 144.984 339.478,145.830 339.523,146.600 339.550 C 147.813 339.593,148.000 339.733,148.000 340.600 C 148.000 341.305,148.217 341.600,148.738 341.600 C 149.494 341.600,151.088 343.045,150.728 343.405 C 150.618 343.515,150.202 343.244,149.802 342.802 C 148.792 341.686,147.991 341.778,148.092 343.000 C 148.137 343.550,148.327 344.000,148.514 344.000 C 148.701 344.000,148.745 344.345,148.611 344.766 C 148.310 345.712,150.206 347.760,151.074 347.427 C 151.919 347.103,152.792 348.145,152.526 349.161 C 152.385 349.700,152.583 350.349,153.050 350.882 C 153.462 351.352,153.547 351.589,153.238 351.407 C 152.859 351.184,152.769 351.227,152.962 351.538 C 153.119 351.792,153.957 352.000,154.824 352.000 C 156.385 352.000,156.400 352.014,156.400 353.538 C 156.400 355.578,157.406 356.495,159.461 356.326 C 160.481 356.243,160.963 356.021,160.890 355.670 C 160.830 355.379,160.973 355.260,161.210 355.406 C 161.504 355.588,161.510 355.826,161.230 356.164 C 159.611 358.114,161.413 364.682,163.460 364.291 C 163.987 364.190,164.523 364.276,164.650 364.482 C 164.778 364.688,165.268 365.012,165.741 365.203 C 166.591 365.546,166.590 365.550,165.668 365.575 C 164.873 365.596,164.639 367.545,165.347 368.253 C 166.056 368.962,168.000 368.727,168.002 367.932 C 168.005 367.051,168.038 367.062,168.602 368.146 C 168.931 368.776,169.200 370.081,169.200 371.046 L 169.200 372.800 171.200 372.800 C 172.952 372.800,173.200 372.902,173.200 373.624 C 173.200 374.121,173.374 374.339,173.640 374.175 C 173.949 373.984,173.965 374.126,173.694 374.652 C 173.288 375.439,173.467 376.435,174.088 376.841 C 174.848 377.339,179.330 377.237,179.662 376.714 C 179.915 376.314,179.989 376.311,179.994 376.700 C 179.997 376.975,180.360 377.200,180.800 377.200 C 181.565 377.200,181.836 377.973,181.620 379.541 C 181.454 380.752,181.962 381.329,182.682 380.745 C 183.105 380.402,183.246 380.380,183.063 380.685 C 182.845 381.048,183.706 381.199,186.486 381.285 L 190.200 381.400 190.097 382.422 C 189.953 383.858,191.401 385.337,192.645 385.024 C 193.170 384.893,193.600 384.962,193.600 385.178 C 193.600 385.422,196.408 385.564,201.000 385.552 C 205.534 385.541,208.400 385.383,208.400 385.143 C 208.400 384.929,208.580 384.864,208.800 385.000 C 209.020 385.136,209.200 385.046,209.200 384.800 C 209.200 384.554,209.384 384.467,209.610 384.606 C 209.835 384.745,209.980 384.711,209.931 384.530 C 209.882 384.348,209.977 383.802,210.143 383.315 C 210.309 382.828,210.272 382.108,210.061 381.715 C 209.709 381.058,209.893 381.007,212.325 381.084 C 214.043 381.138,215.081 380.998,215.280 380.684 C 215.518 380.310,215.589 380.314,215.594 380.700 C 215.603 381.453,216.315 381.300,216.524 380.500 C 216.687 379.876,216.712 379.882,216.754 380.553 C 216.794 381.212,217.012 381.271,218.500 381.026 C 219.435 380.872,220.498 380.746,220.863 380.746 C 221.958 380.744,222.928 379.364,222.640 378.216 C 222.382 377.191,222.786 377.007,225.100 377.093 C 225.375 377.103,225.600 376.951,225.600 376.756 C 225.600 376.560,225.825 376.445,226.100 376.500 C 226.375 376.555,226.555 376.375,226.500 376.100 C 226.445 375.825,226.535 375.600,226.700 375.599 C 226.865 375.599,227.040 375.034,227.088 374.344 C 227.200 372.754,227.309 372.659,228.961 372.722 C 230.556 372.781,230.998 372.315,231.160 370.400 C 231.309 368.652,231.475 368.377,232.213 368.660 C 232.536 368.784,233.115 368.747,233.500 368.577 C 233.885 368.408,234.380 368.249,234.600 368.225 C 234.820 368.201,234.975 367.870,234.944 367.490 C 234.914 367.111,235.062 366.800,235.273 366.800 C 235.484 366.800,235.624 366.395,235.584 365.900 C 235.446 364.188,235.568 363.936,236.411 364.204 C 236.944 364.373,237.459 364.204,237.911 363.712 C 238.290 363.300,238.443 363.196,238.251 363.481 C 238.033 363.805,238.070 364.000,238.351 364.000 C 238.598 364.000,238.823 363.865,238.851 363.700 C 238.879 363.535,238.981 362.950,239.077 362.400 C 239.222 361.574,239.512 358.242,239.582 356.589 C 239.593 356.351,240.292 356.245,241.248 356.336 C 243.167 356.519,243.498 356.167,243.529 353.909 C 243.556 351.958,243.500 352.014,245.512 351.935 C 247.250 351.867,248.403 350.428,247.858 349.007 C 247.435 347.905,247.995 347.219,249.136 347.442 C 250.961 347.798,251.788 346.804,251.811 344.225 C 251.827 342.480,251.709 342.026,251.282 342.190 C 250.957 342.315,250.808 342.197,250.917 341.900 C 251.017 341.625,251.305 341.446,251.556 341.502 C 251.854 341.569,251.938 341.185,251.799 340.393 C 251.599 339.262,251.653 339.198,252.595 339.435 C 253.723 339.718,256.412 339.322,256.347 338.883 C 256.014 336.622,256.449 335.197,257.400 335.436 C 257.966 335.578,258.400 335.514,258.400 335.288 C 258.400 335.068,258.711 334.914,259.090 334.944 C 259.470 334.975,259.801 334.820,259.825 334.600 C 259.849 334.380,260.008 333.885,260.177 333.500 C 260.347 333.115,260.384 332.536,260.260 332.213 C 259.878 331.218,260.194 331.201,279.737 331.173 C 297.208 331.149,298.766 331.092,298.929 330.473 C 299.086 329.879,299.113 329.884,299.154 330.517 C 299.194 331.147,299.505 331.212,301.700 331.048 C 305.178 330.789,305.808 330.602,305.744 329.853 C 305.714 329.494,305.868 329.200,306.088 329.200 C 306.314 329.200,306.378 328.766,306.236 328.200 C 305.991 327.224,306.037 327.200,308.192 327.200 C 309.689 327.200,310.402 327.039,310.406 326.700 C 310.410 326.344,310.497 326.330,310.706 326.651 C 311.043 327.168,319.200 327.336,319.200 326.827 C 319.200 326.653,319.627 326.593,320.150 326.693 C 321.412 326.934,322.927 325.360,322.618 324.128 C 322.307 322.889,322.751 322.743,326.789 322.762 C 329.031 322.773,330.470 322.611,330.645 322.328 C 330.831 322.027,330.736 321.987,330.362 322.207 C 330.053 322.389,330.129 322.162,330.531 321.703 C 330.933 321.244,331.203 320.452,331.131 319.943 C 331.024 319.190,331.220 318.978,332.177 318.808 C 332.825 318.694,333.306 318.425,333.247 318.210 C 333.188 317.996,333.334 317.755,333.570 317.677 C 333.824 317.592,333.896 317.807,333.745 318.200 C 333.455 318.955,335.704 318.800,337.280 317.957 C 337.873 317.640,338.022 317.641,337.825 317.960 C 337.459 318.551,338.118 318.522,338.720 317.920 C 339.302 317.338,339.359 316.654,338.797 317.002 C 338.392 317.252,339.088 315.315,339.640 314.656 C 339.799 314.467,340.755 314.301,341.765 314.287 L 343.601 314.262 343.536 312.529 C 343.454 310.375,343.578 310.254,345.790 310.338 C 347.622 310.407,348.232 309.744,347.982 307.954 C 347.828 306.847,348.013 306.400,348.624 306.400 C 349.016 306.400,349.136 306.215,348.947 305.900 C 348.773 305.611,348.961 305.653,349.393 306.000 C 350.084 306.556,350.121 306.533,349.901 305.677 C 349.743 305.066,349.821 304.810,350.131 304.919 C 350.389 305.009,350.550 305.369,350.488 305.718 C 350.415 306.128,350.645 306.332,351.138 306.295 C 352.095 306.223,352.189 304.516,351.250 304.266 C 350.692 304.117,350.699 304.086,351.300 304.046 C 351.725 304.018,352.000 303.676,352.000 303.176 C 352.000 302.628,351.833 302.451,351.500 302.645 C 351.225 302.806,351.343 302.547,351.762 302.069 C 352.551 301.169,353.033 300.900,352.600 301.600 C 352.464 301.820,352.710 302.000,353.147 302.000 C 353.584 302.000,354.024 301.685,354.124 301.300 C 354.278 300.711,354.315 300.703,354.354 301.250 C 354.422 302.213,356.222 302.109,356.295 301.138 C 356.332 300.645,356.128 300.415,355.718 300.488 C 355.369 300.550,355.009 300.389,354.919 300.131 C 354.810 299.821,355.066 299.743,355.677 299.901 C 356.533 300.121,356.556 300.084,356.000 299.393 C 355.653 298.961,355.611 298.773,355.900 298.947 C 356.210 299.133,356.419 299.011,356.450 298.624 C 356.543 297.464,356.599 297.267,356.933 296.933 C 357.117 296.750,357.207 296.870,357.133 297.200 C 356.942 298.060,359.700 298.085,360.072 297.227 C 360.534 296.162,360.429 295.666,359.700 295.476 C 359.033 295.302,359.033 295.291,359.700 295.246 C 360.118 295.219,360.400 294.878,360.400 294.400 C 360.400 293.708,360.667 293.600,362.379 293.600 L 364.358 293.600 364.479 291.558 L 364.600 289.516 366.337 289.388 C 368.636 289.219,368.594 289.300,368.597 284.970 C 368.600 281.200,368.669 281.031,370.134 281.185 C 370.538 281.227,371.244 280.933,371.703 280.531 C 372.162 280.129,372.389 280.053,372.207 280.362 C 371.982 280.745,372.026 280.831,372.346 280.633 C 372.678 280.428,372.799 278.514,372.758 274.141 C 372.722 270.199,372.856 267.784,373.128 267.512 C 373.431 267.209,373.490 267.334,373.331 267.942 C 373.128 268.719,373.266 268.800,374.796 268.800 C 376.107 268.800,376.436 268.670,376.263 268.220 C 376.126 267.863,376.233 267.715,376.541 267.833 C 376.882 267.964,377.072 267.519,377.136 266.442 C 377.216 265.084,377.105 264.841,376.351 264.730 C 375.868 264.658,375.429 264.297,375.376 263.928 C 375.314 263.496,375.479 263.332,375.837 263.470 C 376.144 263.587,376.296 263.845,376.174 264.042 C 376.052 264.239,376.204 264.400,376.511 264.400 C 377.240 264.400,377.406 261.178,376.700 260.730 C 376.300 260.476,376.300 260.411,376.700 260.406 C 377.033 260.402,377.200 259.730,377.200 258.400 C 377.200 256.338,377.463 256.106,379.500 256.370 C 379.775 256.406,380.000 256.237,380.000 255.994 C 380.000 255.751,380.160 255.651,380.355 255.772 C 380.908 256.114,381.098 254.827,381.171 250.242 C 381.219 247.230,381.103 246.000,380.770 246.000 C 380.424 246.000,380.418 245.860,380.748 245.463 C 381.370 244.714,381.370 97.848,380.748 98.232 C 380.451 98.416,380.453 98.248,380.757 97.681 C 381.302 96.661,380.917 94.561,380.163 94.450 C 379.853 94.404,379.021 94.329,378.313 94.283 C 377.033 94.200,377.027 94.190,377.147 92.244 C 377.227 90.939,377.090 90.176,376.734 89.951 C 376.370 89.720,376.352 89.610,376.676 89.606 C 377.015 89.602,377.148 88.386,377.139 85.400 C 377.131 83.090,376.958 81.200,376.755 81.200 C 376.551 81.200,376.498 80.750,376.636 80.200 C 376.787 79.597,376.716 79.200,376.456 79.200 C 376.217 79.200,376.140 78.901,376.282 78.531 C 376.477 78.023,376.377 77.923,375.869 78.118 C 375.499 78.260,375.200 78.183,375.200 77.944 C 375.200 77.688,374.807 77.612,374.227 77.757 C 372.997 78.066,372.723 77.315,372.751 73.700 C 372.763 72.186,372.563 70.790,372.286 70.447 C 371.902 69.972,371.905 69.909,372.300 70.147 C 372.575 70.312,372.800 70.276,372.800 70.066 C 372.800 69.541,371.783 69.200,370.214 69.200 C 369.209 69.200,368.841 68.999,368.674 68.360 C 368.534 67.825,368.276 67.629,367.965 67.822 C 367.650 68.016,367.579 67.957,367.766 67.655 C 367.925 67.398,368.248 67.306,368.484 67.452 C 368.781 67.636,368.830 67.054,368.642 65.559 C 368.493 64.371,368.367 63.082,368.361 62.693 C 368.348 61.768,366.778 60.760,365.561 60.894 C 364.670 60.992,364.585 60.839,364.400 58.800 L 364.200 56.600 362.300 56.478 C 360.378 56.355,360.244 56.216,360.387 54.479 C 360.491 53.211,359.665 52.341,358.432 52.419 C 356.544 52.539,355.390 52.394,355.839 52.094 C 356.467 51.674,356.384 50.321,355.746 50.565 C 355.460 50.675,355.119 50.593,354.989 50.383 C 354.859 50.172,355.136 50.000,355.604 50.000 C 356.258 50.000,356.426 49.791,356.328 49.100 C 356.151 47.854,354.400 47.578,354.400 48.796 C 354.400 49.264,354.228 49.541,354.017 49.411 C 353.807 49.281,353.725 48.940,353.835 48.654 C 354.079 48.016,352.726 47.933,352.306 48.561 C 352.010 49.003,351.914 48.257,351.923 45.582 C 351.926 44.451,351.766 44.153,351.129 44.105 C 350.585 44.064,350.402 44.228,350.553 44.622 C 350.675 44.940,350.601 45.200,350.387 45.200 C 350.174 45.200,350.000 44.930,350.000 44.600 C 350.000 44.270,349.865 44.021,349.700 44.047 C 348.257 44.275,348.000 43.966,348.000 42.000 L 348.000 40.000 345.800 40.000 C 343.492 40.000,343.245 39.694,343.580 37.259 C 343.746 36.048,343.238 35.471,342.518 36.055 C 342.056 36.430,341.940 36.444,342.147 36.100 C 342.368 35.733,342.015 35.600,340.816 35.600 C 339.286 35.600,339.200 35.539,339.430 34.623 C 339.565 34.085,339.526 33.410,339.344 33.123 C 339.161 32.835,339.009 32.420,339.006 32.200 C 339.002 31.961,337.428 31.800,335.099 31.800 C 332.795 31.800,331.182 31.636,331.155 31.400 C 331.131 31.180,331.142 30.612,331.179 30.138 C 331.217 29.664,331.054 29.157,330.817 29.011 C 330.581 28.864,330.485 28.586,330.605 28.392 C 331.235 27.372,323.766 26.729,323.106 27.747 C 322.896 28.071,322.811 28.058,322.806 27.700 C 322.802 27.367,322.130 27.200,320.800 27.200 C 318.836 27.200,318.800 27.178,318.800 25.976 C 318.800 25.104,318.656 24.839,318.300 25.053 C 317.907 25.290,317.908 25.221,318.305 24.730 C 319.000 23.871,318.023 22.958,317.212 23.710 C 316.793 24.098,316.742 24.096,316.965 23.700 C 317.173 23.331,316.758 23.200,315.381 23.200 C 313.777 23.200,313.549 23.299,313.758 23.900 C 313.990 24.567,313.976 24.567,313.457 23.900 C 312.823 23.086,310.584 22.901,311.035 23.700 C 311.261 24.100,311.210 24.100,310.779 23.700 C 310.482 23.425,309.376 23.200,308.320 23.200 C 306.346 23.200,306.108 22.919,306.370 20.900 C 306.406 20.625,306.247 20.400,306.018 20.400 C 305.788 20.400,305.645 20.175,305.700 19.900 C 305.799 19.405,94.877 18.910,94.750 19.406 M273.647 48.900 C 273.673 49.395,273.667 50.017,273.634 50.282 C 273.601 50.547,273.984 51.018,274.487 51.329 C 275.617 52.028,282.400 52.265,282.400 51.606 C 282.400 51.300,282.630 51.295,283.179 51.589 C 283.636 51.834,286.732 51.995,290.685 51.979 C 298.316 51.950,298.901 52.059,298.554 53.442 C 298.412 54.008,298.489 54.400,298.744 54.400 C 298.983 54.400,299.060 54.699,298.918 55.069 C 298.723 55.577,298.823 55.677,299.331 55.482 C 299.701 55.340,300.000 55.417,300.000 55.656 C 300.000 55.916,300.397 55.987,301.000 55.836 C 301.550 55.698,302.000 55.750,302.000 55.951 C 302.000 56.153,303.710 56.325,305.800 56.334 C 308.097 56.343,309.600 56.190,309.600 55.946 C 309.600 54.858,310.795 56.916,310.891 58.169 C 310.952 58.964,311.182 59.627,311.401 59.642 C 311.621 59.656,311.980 59.813,312.200 59.991 C 313.011 60.646,315.997 60.401,316.046 59.675 C 316.089 59.048,316.106 59.049,316.272 59.681 C 316.405 60.185,316.809 60.334,317.826 60.254 C 319.148 60.150,319.202 60.200,319.246 61.573 C 319.332 64.226,319.300 64.181,321.200 64.315 C 322.190 64.385,323.101 64.567,323.224 64.721 C 323.739 65.363,324.378 67.234,324.003 67.002 C 323.441 66.654,323.498 67.338,324.080 67.920 C 324.712 68.552,325.330 68.538,324.947 67.900 C 324.713 67.511,324.786 67.513,325.275 67.909 C 325.620 68.188,327.137 68.516,328.646 68.636 C 331.955 68.900,331.566 68.450,331.661 72.124 C 331.755 75.791,332.523 77.035,334.452 76.650 C 335.590 76.422,335.600 76.437,335.600 78.361 C 335.600 80.654,336.376 81.642,337.477 80.749 C 337.937 80.376,338.057 80.360,337.853 80.700 C 337.637 81.060,337.924 81.200,338.876 81.200 L 340.200 81.200 340.200 85.099 C 340.200 87.803,340.343 88.999,340.667 88.999 C 340.923 89.000,341.268 89.135,341.433 89.300 C 342.141 90.008,342.891 89.588,342.700 88.590 C 342.594 88.035,342.691 87.467,342.915 87.329 C 343.140 87.190,343.215 87.252,343.082 87.467 C 342.950 87.682,343.082 88.321,343.376 88.889 C 343.827 89.759,344.046 92.111,344.416 100.107 C 344.461 101.079,346.167 102.128,347.180 101.806 C 347.915 101.573,348.000 101.715,348.000 103.173 C 348.000 104.205,348.183 104.802,348.500 104.806 C 348.887 104.811,348.890 104.882,348.515 105.120 C 347.953 105.478,347.825 125.200,348.385 125.200 C 348.564 125.200,348.686 125.515,348.656 125.900 C 348.621 126.339,348.861 126.579,349.300 126.544 C 349.685 126.514,350.000 126.656,350.000 126.860 C 350.000 127.063,350.495 127.178,351.100 127.115 L 352.200 127.000 352.302 175.112 C 352.413 227.659,352.584 223.557,350.265 223.805 C 348.855 223.956,348.800 223.981,348.800 224.449 C 348.800 224.730,348.995 224.767,349.319 224.549 C 349.604 224.357,349.500 224.510,349.088 224.889 C 348.596 225.341,348.427 225.856,348.596 226.389 C 348.743 226.851,348.674 227.200,348.436 227.200 C 348.162 227.200,348.022 229.374,348.031 233.500 C 348.065 249.313,348.089 248.882,347.189 248.596 C 346.656 248.427,346.141 248.596,345.689 249.088 C 345.310 249.500,345.157 249.604,345.349 249.319 C 345.567 248.995,345.530 248.800,345.249 248.800 C 344.781 248.800,344.756 248.855,344.605 250.265 C 344.554 250.740,344.394 251.438,344.249 251.816 C 344.105 252.193,344.214 252.783,344.493 253.127 C 344.905 253.636,344.902 253.695,344.479 253.440 C 344.066 253.192,343.970 253.817,344.018 256.463 C 344.051 258.299,344.060 260.025,344.039 260.300 C 344.015 260.607,343.402 260.800,342.449 260.800 C 341.596 260.800,340.686 261.055,340.427 261.368 C 339.782 262.144,340.024 266.076,340.700 265.817 C 340.975 265.711,341.200 265.799,341.200 266.013 C 341.200 266.226,340.930 266.400,340.600 266.400 C 339.872 266.400,339.795 268.069,340.465 269.326 C 340.877 270.098,340.858 270.140,340.304 269.683 C 339.543 269.056,336.200 269.209,336.200 269.871 C 336.200 270.125,336.065 270.468,335.900 270.633 C 335.192 271.341,335.612 272.091,336.610 271.900 C 337.165 271.794,337.692 271.826,337.782 271.971 C 337.871 272.115,337.556 272.263,337.080 272.299 C 336.605 272.335,336.004 272.654,335.745 273.008 C 335.486 273.362,334.717 273.667,334.036 273.687 C 332.251 273.737,331.872 274.458,331.711 278.111 C 331.538 282.035,331.862 281.692,328.321 281.689 C 324.808 281.686,323.738 282.222,323.687 284.010 C 323.642 285.609,323.753 285.528,321.391 285.675 L 319.400 285.800 319.282 288.018 L 319.165 290.235 317.782 290.074 C 316.712 289.949,316.400 290.058,316.400 290.556 C 316.400 290.910,316.226 291.200,316.013 291.200 C 315.799 291.200,315.711 290.975,315.817 290.700 C 316.076 290.024,312.144 289.782,311.368 290.427 C 311.055 290.686,310.800 291.596,310.800 292.449 L 310.800 294.000 309.100 294.034 C 308.165 294.053,306.436 294.039,305.257 294.003 C 303.571 293.952,303.183 294.051,303.434 294.469 C 303.695 294.902,303.638 294.907,303.127 294.493 C 302.783 294.214,302.193 294.105,301.816 294.249 C 301.438 294.394,300.740 294.554,300.265 294.605 C 298.855 294.756,298.800 294.781,298.800 295.249 C 298.800 295.530,298.995 295.567,299.319 295.349 C 299.604 295.157,299.500 295.310,299.088 295.689 C 298.596 296.141,298.427 296.656,298.596 297.189 C 298.886 298.100,300.275 298.024,283.100 298.038 C 278.755 298.041,275.200 298.194,275.200 298.377 C 275.200 298.561,274.889 298.686,274.510 298.656 C 274.130 298.625,273.799 298.780,273.775 299.000 C 273.751 299.220,273.592 299.715,273.423 300.100 C 273.253 300.485,273.216 301.064,273.340 301.387 C 273.712 302.357,273.395 302.381,259.652 302.427 C 247.601 302.466,246.396 302.530,246.354 303.135 C 246.316 303.671,246.270 303.655,246.115 303.052 C 245.951 302.414,245.681 302.345,244.262 302.579 C 243.348 302.730,242.302 302.854,241.937 302.854 C 240.842 302.856,239.872 304.236,240.160 305.384 C 240.410 306.380,240.372 306.400,238.208 306.400 C 236.993 306.400,235.978 306.580,235.950 306.800 C 235.923 307.020,235.855 307.380,235.800 307.600 C 235.745 307.820,235.678 308.620,235.650 309.378 C 235.601 310.730,235.564 310.758,233.700 310.878 L 231.800 311.000 231.677 312.698 C 231.609 313.633,231.304 314.880,230.998 315.470 C 230.691 316.060,230.550 316.718,230.682 316.933 C 230.815 317.148,230.740 317.210,230.515 317.071 C 230.291 316.933,230.194 316.365,230.300 315.810 C 230.491 314.812,229.741 314.392,229.033 315.100 C 228.868 315.265,228.523 315.404,228.267 315.410 C 228.010 315.415,227.825 315.730,227.856 316.110 C 227.886 316.489,227.730 316.800,227.509 316.800 C 227.288 316.800,227.205 317.177,227.326 317.639 C 227.656 318.901,227.226 319.662,226.341 319.381 C 225.863 319.230,225.320 319.419,224.889 319.888 C 224.510 320.300,224.357 320.404,224.549 320.119 C 224.767 319.795,224.730 319.600,224.449 319.600 C 224.202 319.600,223.977 319.735,223.949 319.900 C 223.921 320.065,223.827 320.560,223.741 321.000 C 223.655 321.440,223.477 323.015,223.346 324.500 L 223.107 327.200 221.633 327.200 C 219.722 327.200,219.200 327.775,219.200 329.880 C 219.200 331.544,219.158 331.601,217.900 331.646 C 215.686 331.725,215.402 331.787,215.395 332.200 C 215.391 332.420,215.239 332.835,215.056 333.123 C 214.874 333.410,214.834 334.081,214.968 334.614 C 215.210 335.580,213.916 336.349,212.518 336.070 C 211.472 335.860,210.871 337.743,210.936 341.025 C 210.998 344.163,210.976 344.246,210.106 344.080 C 207.766 343.632,206.563 344.296,206.457 346.092 C 206.338 348.099,206.511 347.894,204.800 348.056 C 202.926 348.234,202.400 348.829,202.400 350.771 L 202.400 352.400 200.200 352.400 L 198.000 352.400 197.950 351.000 C 197.855 348.345,197.562 348.000,195.398 348.000 L 193.644 348.000 193.522 346.100 L 193.400 344.200 191.500 344.078 C 189.772 343.967,189.600 343.866,189.600 342.954 C 189.600 342.404,189.432 342.056,189.228 342.183 C 189.023 342.309,188.742 342.230,188.604 342.007 C 188.466 341.783,188.645 341.600,189.001 341.600 C 189.725 341.600,189.583 339.464,188.757 337.920 C 188.440 337.327,188.441 337.178,188.760 337.375 C 189.351 337.741,189.322 337.082,188.720 336.480 C 188.146 335.906,187.452 335.837,187.792 336.387 C 187.924 336.600,187.439 336.521,186.716 336.211 C 185.705 335.778,185.426 335.436,185.511 334.734 C 185.642 333.656,184.866 331.600,184.328 331.600 C 184.122 331.600,184.080 331.825,184.235 332.100 C 184.461 332.500,184.410 332.500,183.979 332.100 C 183.682 331.825,182.936 331.600,182.320 331.600 C 181.324 331.600,181.199 331.456,181.195 330.300 C 181.183 327.629,180.873 327.200,178.953 327.200 C 177.064 327.200,177.085 327.232,177.193 324.500 C 177.233 323.494,177.082 322.800,176.823 322.800 C 176.555 322.800,176.483 322.410,176.636 321.800 C 176.787 321.197,176.716 320.800,176.456 320.800 C 176.217 320.800,176.140 320.501,176.282 320.131 C 176.477 319.623,176.377 319.523,175.869 319.718 C 175.499 319.860,175.200 319.783,175.200 319.544 C 175.200 319.283,174.802 319.213,174.191 319.366 C 173.044 319.654,172.866 319.373,172.697 317.000 C 172.635 316.120,172.407 315.384,172.192 315.365 C 171.976 315.346,171.504 315.199,171.141 315.038 C 170.779 314.878,170.149 314.803,169.741 314.873 C 169.145 314.975,168.976 314.706,168.875 313.492 C 168.790 312.455,168.602 312.072,168.275 312.268 C 167.994 312.437,168.023 312.279,168.345 311.882 C 169.050 311.012,168.494 310.783,165.984 310.909 C 164.192 310.999,164.170 310.984,164.338 309.843 C 164.470 308.938,164.387 308.759,163.954 309.020 C 163.489 309.300,163.485 309.248,163.933 308.696 C 164.555 307.928,164.410 306.622,163.695 306.550 C 163.423 306.522,162.485 306.478,161.610 306.450 C 160.079 306.402,160.029 306.357,160.250 305.249 C 160.383 304.586,160.291 303.980,160.034 303.821 C 159.788 303.669,159.677 303.399,159.787 303.221 C 160.118 302.685,157.596 302.374,156.719 302.843 C 156.138 303.154,155.980 303.155,156.171 302.846 C 156.359 302.543,154.786 302.420,150.920 302.436 C 147.884 302.448,140.315 302.445,134.100 302.429 L 122.800 302.400 122.800 301.280 C 122.800 300.664,122.575 299.918,122.300 299.621 C 121.900 299.190,121.900 299.139,122.300 299.365 C 122.575 299.520,122.800 299.485,122.800 299.288 C 122.800 298.388,120.493 298.061,113.851 298.020 L 106.800 297.976 106.746 298.888 L 106.691 299.800 106.513 298.864 C 106.350 298.009,106.154 297.936,104.267 298.027 C 97.400 298.359,93.138 298.027,93.406 297.180 C 93.729 296.162,92.674 294.455,91.707 294.430 C 91.318 294.420,89.488 294.298,87.639 294.159 C 84.476 293.921,84.294 293.950,84.540 294.653 C 84.786 295.355,84.769 295.358,84.257 294.700 C 83.624 293.887,81.404 293.706,81.806 294.500 C 81.945 294.775,81.795 294.677,81.472 294.281 C 81.149 293.886,80.978 293.205,81.092 292.768 C 81.212 292.309,80.983 291.612,80.550 291.118 C 80.057 290.555,80.005 290.375,80.400 290.590 C 80.858 290.840,80.894 290.802,80.550 290.429 C 80.241 290.093,78.960 289.981,76.449 290.070 L 72.798 290.200 72.752 289.000 C 72.726 288.340,72.739 287.556,72.780 287.259 C 72.946 286.048,72.438 285.471,71.718 286.055 C 71.256 286.430,71.140 286.444,71.347 286.100 C 71.565 285.737,71.256 285.600,70.224 285.600 C 68.832 285.600,68.476 285.076,68.767 283.458 C 68.800 283.270,68.643 282.893,68.418 282.621 C 68.192 282.349,68.125 282.008,68.270 281.863 C 68.415 281.718,67.603 281.600,66.467 281.600 L 64.400 281.600 64.400 279.880 C 64.400 277.764,63.878 277.200,61.920 277.200 C 60.987 277.200,60.388 277.007,60.369 276.700 C 60.353 276.425,60.308 274.670,60.269 272.800 L 60.200 269.400 58.440 269.274 C 57.471 269.205,56.571 269.323,56.440 269.537 C 56.308 269.750,56.232 267.332,56.271 264.163 C 56.320 260.214,56.204 258.400,55.904 258.400 C 55.664 258.400,55.576 258.291,55.709 258.157 C 56.087 257.779,55.064 256.877,54.502 257.093 C 54.226 257.199,54.000 257.067,54.000 256.799 C 54.000 256.481,53.656 256.400,53.000 256.564 C 51.862 256.850,51.919 257.374,51.978 247.100 C 52.005 242.504,51.938 241.995,51.304 241.954 C 50.640 241.910,50.640 241.897,51.297 241.725 C 52.119 241.510,52.239 237.424,51.453 236.423 C 51.100 235.974,51.117 235.917,51.528 236.164 C 51.953 236.420,52.036 235.698,51.955 232.430 C 51.857 228.448,51.431 227.163,50.418 227.789 C 50.188 227.931,50.000 227.837,50.000 227.580 C 50.000 227.282,49.639 227.204,49.003 227.363 L 48.006 227.614 47.903 176.846 C 47.807 129.356,47.843 126.102,48.474 126.439 C 49.528 127.004,50.304 126.869,51.134 125.978 C 52.238 124.794,52.369 113.628,51.280 113.554 C 50.642 113.510,50.642 113.496,51.282 113.328 C 51.883 113.170,51.963 112.510,51.950 107.788 C 51.934 101.918,52.033 101.493,53.328 101.818 C 55.070 102.255,56.500 100.083,55.591 98.383 C 55.252 97.750,55.296 97.662,55.845 97.873 C 56.307 98.050,56.449 97.956,56.312 97.564 C 56.203 97.254,55.820 97.025,55.461 97.055 C 55.102 97.085,54.915 96.938,55.045 96.728 C 55.175 96.517,55.533 96.442,55.840 96.560 C 56.254 96.719,56.400 96.412,56.400 95.387 C 56.400 94.231,56.250 93.991,55.500 93.946 C 54.646 93.894,54.642 93.883,55.440 93.726 C 56.391 93.538,56.722 91.253,55.876 90.715 C 55.515 90.486,55.521 90.411,55.900 90.406 C 56.175 90.403,56.400 90.172,56.400 89.893 C 56.400 89.575,57.001 89.371,58.016 89.344 C 60.188 89.287,60.194 89.275,60.197 84.970 C 60.200 81.303,60.304 81.010,61.541 81.180 C 61.839 81.221,62.379 81.122,62.741 80.962 C 63.104 80.801,63.580 80.654,63.800 80.635 C 64.020 80.616,64.249 80.060,64.310 79.400 C 64.543 76.844,64.781 76.340,65.625 76.608 C 66.142 76.772,66.664 76.598,67.111 76.112 C 67.490 75.700,67.643 75.596,67.451 75.881 C 67.233 76.205,67.270 76.400,67.551 76.400 C 67.798 76.400,68.015 76.265,68.033 76.100 C 68.052 75.935,68.150 75.350,68.252 74.800 C 68.354 74.250,68.505 72.810,68.588 71.600 C 68.670 70.390,68.752 69.286,68.769 69.147 C 68.786 69.007,69.925 68.789,71.300 68.661 C 72.675 68.533,74.250 68.347,74.800 68.247 C 75.350 68.148,75.935 68.052,76.100 68.033 C 76.265 68.015,76.400 67.798,76.400 67.551 C 76.400 67.270,76.205 67.233,75.881 67.451 C 75.596 67.643,75.700 67.490,76.112 67.111 C 76.581 66.680,76.770 66.137,76.619 65.659 C 76.461 65.164,76.600 64.809,77.013 64.650 C 77.383 64.508,77.532 64.195,77.367 63.903 C 77.139 63.500,77.190 63.500,77.621 63.900 C 77.918 64.175,78.754 64.400,79.480 64.400 C 80.245 64.400,80.819 64.190,80.846 63.900 C 80.872 63.625,80.934 63.220,80.985 63.000 C 81.036 62.780,81.106 62.060,81.140 61.400 L 81.201 60.200 84.970 60.197 C 89.275 60.194,89.287 60.188,89.344 58.016 L 89.386 56.400 91.493 56.400 C 93.539 56.400,94.568 55.347,93.190 54.663 C 92.965 54.552,93.010 54.506,93.290 54.561 C 93.571 54.617,93.858 55.054,93.928 55.531 C 94.030 56.227,94.326 56.400,95.415 56.400 C 96.416 56.400,96.718 56.252,96.560 55.840 C 96.442 55.533,96.517 55.175,96.728 55.045 C 96.938 54.915,97.085 55.102,97.055 55.461 C 97.025 55.820,97.254 56.203,97.564 56.312 C 97.956 56.449,98.050 56.307,97.873 55.845 C 97.662 55.296,97.750 55.252,98.383 55.591 C 100.083 56.500,102.255 55.070,101.818 53.328 C 101.494 52.038,101.932 51.933,107.458 51.973 C 111.794 52.005,112.457 51.926,112.257 51.405 C 112.130 51.072,112.199 50.800,112.413 50.800 C 112.626 50.800,112.800 51.069,112.800 51.398 C 112.800 52.131,117.056 52.176,117.977 51.453 C 118.419 51.105,118.484 51.116,118.253 51.500 C 118.022 51.885,118.768 52.000,121.496 52.000 C 123.777 52.000,125.232 51.822,125.579 51.500 C 126.017 51.093,126.055 51.112,125.782 51.600 C 125.490 52.122,125.537 52.127,126.141 51.636 C 126.524 51.326,126.744 50.831,126.631 50.536 C 126.518 50.241,126.619 50.000,126.856 50.000 C 127.116 50.000,127.187 49.603,127.036 49.000 L 126.785 48.000 200.192 48.000 L 273.600 48.000 273.647 48.900 M300.760 53.358 C 301.422 54.062,301.530 54.396,301.168 54.620 C 300.872 54.803,300.779 54.758,300.934 54.507 C 301.201 54.074,300.276 53.057,299.930 53.403 C 299.822 53.512,299.733 53.330,299.733 53.000 C 299.733 52.239,299.697 52.226,300.760 53.358 M98.051 54.300 C 98.545 54.930,98.532 54.947,97.918 54.466 C 97.542 54.172,97.047 54.047,96.818 54.189 C 96.588 54.331,96.400 54.257,96.400 54.024 C 96.400 53.355,97.447 53.530,98.051 54.300 M366.889 63.345 C 367.157 63.179,367.208 63.264,367.022 63.564 C 366.686 64.108,365.200 63.035,365.200 62.249 C 365.200 62.014,365.482 62.225,365.827 62.718 C 366.172 63.210,366.650 63.493,366.889 63.345 M334.164 74.360 C 334.681 74.932,334.731 75.196,334.364 75.422 C 334.064 75.608,333.979 75.557,334.145 75.289 C 334.293 75.050,334.010 74.572,333.518 74.227 C 333.025 73.882,332.814 73.600,333.049 73.600 C 333.284 73.600,333.786 73.942,334.164 74.360 M342.304 85.200 C 342.603 85.200,342.736 85.020,342.600 84.800 C 342.464 84.580,342.533 84.400,342.753 84.400 C 342.973 84.400,343.264 84.580,343.400 84.800 C 343.536 85.020,343.467 85.200,343.247 85.200 C 343.026 85.200,342.916 85.565,343.002 86.011 C 343.089 86.462,342.987 86.716,342.773 86.583 C 342.560 86.452,342.483 86.190,342.599 86.001 C 342.716 85.812,342.418 85.599,341.937 85.529 C 341.456 85.458,340.981 85.130,340.881 84.800 C 340.735 84.316,340.802 84.296,341.230 84.700 C 341.522 84.975,342.005 85.200,342.304 85.200 M54.189 96.818 C 54.047 97.047,54.172 97.542,54.466 97.918 C 54.947 98.532,54.930 98.545,54.300 98.051 C 53.530 97.447,53.355 96.400,54.024 96.400 C 54.257 96.400,54.331 96.588,54.189 96.818 M352.690 122.093 C 352.601 122.812,352.526 122.320,352.524 121.000 C 352.522 119.680,352.595 119.092,352.686 119.693 C 352.777 120.294,352.779 121.374,352.690 122.093 M106.400 121.197 C 106.400 123.261,106.303 123.363,104.479 123.213 C 102.576 123.057,102.498 123.429,102.528 132.607 C 102.549 139.397,102.665 141.200,103.078 141.200 C 103.365 141.200,103.600 141.455,103.600 141.767 C 103.600 142.078,103.825 142.424,104.100 142.535 C 104.492 142.693,104.489 142.744,104.087 142.768 C 103.806 142.786,103.471 142.530,103.345 142.200 C 102.987 141.268,102.329 141.494,102.472 142.500 C 102.586 143.299,102.833 143.402,104.683 143.417 C 105.829 143.426,106.909 143.590,107.083 143.781 C 107.258 143.972,107.189 144.007,106.931 143.860 C 106.595 143.667,106.482 144.185,106.531 145.696 L 106.600 147.800 198.871 147.900 C 286.482 147.996,291.150 147.966,291.324 147.300 C 291.498 146.634,291.509 146.634,291.554 147.300 C 291.607 148.102,293.165 148.285,293.261 147.500 C 293.435 146.071,293.368 145.778,292.809 145.528 C 292.310 145.305,292.329 145.251,292.918 145.228 C 293.312 145.213,293.606 144.975,293.570 144.700 C 293.422 143.562,293.647 143.345,294.804 143.515 C 295.480 143.614,296.302 143.452,296.680 143.146 C 297.142 142.771,297.259 142.757,297.053 143.100 C 296.868 143.408,296.975 143.600,297.330 143.600 C 297.815 143.600,297.903 142.267,297.880 135.222 C 297.865 130.614,297.719 126.927,297.554 127.028 C 297.390 127.130,297.139 127.026,296.998 126.797 C 296.856 126.568,296.979 126.430,297.270 126.490 C 298.067 126.655,298.027 123.875,297.227 123.528 C 296.162 123.066,295.666 123.171,295.476 123.900 C 295.302 124.567,295.291 124.567,295.246 123.900 C 295.217 123.454,294.873 123.200,294.300 123.200 C 293.468 123.200,293.410 123.049,293.539 121.200 C 293.688 119.046,293.254 118.666,291.971 119.826 C 291.445 120.302,291.207 120.335,290.978 119.964 C 290.792 119.664,290.843 119.579,291.111 119.745 C 291.349 119.892,291.656 119.833,291.792 119.613 C 291.957 119.347,261.005 119.210,199.220 119.203 L 106.400 119.194 106.400 121.197 M50.082 124.227 C 49.590 124.572,49.307 125.050,49.455 125.289 C 49.621 125.557,49.536 125.608,49.236 125.422 C 48.692 125.086,49.765 123.600,50.551 123.600 C 50.786 123.600,50.575 123.882,50.082 124.227 M106.666 202.667 C 106.520 202.813,106.400 203.713,106.400 204.667 C 106.400 206.363,106.186 206.604,104.846 206.418 C 102.488 206.088,102.504 206.024,102.523 215.578 C 102.538 223.231,102.621 224.390,103.170 224.538 C 103.652 224.667,103.624 224.718,103.053 224.754 C 102.481 224.789,102.363 225.010,102.548 225.700 C 102.681 226.195,102.792 226.746,102.795 226.924 C 102.798 227.102,103.475 227.192,104.300 227.124 C 105.211 227.049,105.763 226.809,105.705 226.514 C 105.648 226.224,105.862 226.126,106.238 226.270 C 106.617 226.415,106.703 226.613,106.455 226.766 C 106.211 226.917,106.182 227.248,106.384 227.574 C 106.572 227.879,106.633 228.369,106.520 228.665 C 106.406 228.960,106.426 229.648,106.563 230.193 L 106.812 231.185 165.577 231.192 C 221.194 231.199,224.351 231.161,224.524 230.499 C 224.688 229.872,224.712 229.877,224.754 230.547 C 224.789 231.119,225.010 231.237,225.700 231.052 C 226.195 230.919,226.746 230.808,226.924 230.805 C 227.102 230.802,227.192 230.125,227.124 229.300 C 227.049 228.389,226.809 227.837,226.514 227.895 C 226.224 227.952,226.126 227.738,226.270 227.362 C 226.415 226.983,226.613 226.897,226.766 227.145 C 226.917 227.389,227.248 227.418,227.574 227.216 C 227.879 227.028,228.369 226.967,228.665 227.080 C 228.960 227.194,229.628 227.179,230.148 227.049 L 231.094 226.811 231.077 218.022 C 231.062 210.369,230.979 209.210,230.430 209.062 C 229.948 208.933,229.976 208.882,230.547 208.846 C 231.119 208.811,231.237 208.590,231.052 207.900 C 230.919 207.405,230.808 206.854,230.805 206.676 C 230.802 206.498,230.125 206.408,229.300 206.476 C 228.389 206.551,227.837 206.791,227.895 207.086 C 227.952 207.376,227.738 207.474,227.362 207.330 C 226.983 207.185,226.897 206.987,227.145 206.834 C 227.389 206.683,227.418 206.352,227.216 206.026 C 227.028 205.721,226.967 205.231,227.080 204.935 C 227.194 204.640,227.174 203.952,227.037 203.407 L 226.788 202.415 166.861 202.408 C 133.900 202.404,106.813 202.521,106.666 202.667 M21.764 261.960 C 22.312 262.566,22.345 262.782,21.926 263.024 C 21.637 263.192,21.533 263.181,21.697 263.001 C 22.102 262.553,21.211 261.546,20.693 261.866 C 20.451 262.016,20.396 261.930,20.562 261.662 C 20.933 261.061,20.956 261.067,21.764 261.960 M343.798 263.935 C 343.219 264.514,342.510 264.265,342.697 263.549 C 342.856 262.943,343.014 262.880,343.459 263.249 C 343.767 263.505,343.920 263.814,343.798 263.935 M343.225 265.646 C 343.587 266.322,343.569 266.453,343.139 266.296 C 342.842 266.188,342.652 265.875,342.716 265.601 C 342.786 265.302,342.591 265.195,342.229 265.333 C 341.897 265.461,341.519 265.393,341.389 265.183 C 341.259 264.972,341.517 264.800,341.962 264.800 C 342.408 264.800,342.976 265.181,343.225 265.646 M375.440 266.583 C 375.440 267.274,375.305 267.453,374.983 267.186 C 374.732 266.978,374.408 266.925,374.263 267.070 C 374.118 267.215,374.000 267.226,374.000 267.095 C 374.000 266.873,375.148 265.600,375.349 265.600 C 375.399 265.600,375.440 266.042,375.440 266.583 M315.333 292.229 C 315.195 292.591,315.302 292.786,315.601 292.716 C 315.875 292.652,316.188 292.842,316.296 293.139 C 316.453 293.569,316.322 293.587,315.646 293.225 C 315.181 292.976,314.800 292.408,314.800 291.962 C 314.800 291.517,314.972 291.259,315.183 291.389 C 315.393 291.519,315.461 291.897,315.333 292.229 M314.195 293.100 C 314.122 293.485,314.047 293.867,314.031 293.949 C 314.014 294.031,313.713 293.859,313.361 293.568 C 312.781 293.086,312.790 293.011,313.461 292.747 C 313.868 292.587,314.229 292.444,314.265 292.428 C 314.300 292.413,314.269 292.715,314.195 293.100 M54.964 315.960 C 55.481 316.532,55.531 316.796,55.164 317.022 C 54.864 317.208,54.779 317.157,54.945 316.889 C 55.093 316.650,54.810 316.172,54.318 315.827 C 53.825 315.482,53.614 315.200,53.849 315.200 C 54.084 315.200,54.586 315.542,54.964 315.960 M335.600 315.776 C 335.600 316.093,335.431 316.457,335.224 316.585 C 335.018 316.713,334.876 316.453,334.909 316.009 C 334.978 315.095,335.600 314.886,335.600 315.776 M231.148 318.262 C 230.907 318.553,230.547 318.691,230.348 318.568 C 229.845 318.257,230.239 317.733,230.976 317.733 C 231.438 317.733,231.480 317.863,231.148 318.262 M64.540 319.533 C 65.084 320.135,65.099 320.267,64.624 320.267 C 64.305 320.267,64.079 320.072,64.122 319.833 C 64.165 319.595,63.962 319.449,63.670 319.510 C 63.379 319.570,63.255 319.435,63.394 319.210 C 63.729 318.668,63.767 318.679,64.540 319.533 M176.449 323.961 C 176.146 324.153,176.020 324.509,176.170 324.751 C 176.342 325.029,176.210 325.102,175.811 324.949 C 175.107 324.679,175.704 323.595,176.549 323.606 C 176.810 323.610,176.767 323.760,176.449 323.961 M320.882 324.227 C 320.390 324.572,320.107 325.050,320.255 325.289 C 320.421 325.557,320.336 325.608,320.036 325.422 C 319.492 325.086,320.565 323.600,321.351 323.600 C 321.586 323.600,321.375 323.882,320.882 324.227 M213.364 338.440 C 212.986 338.858,212.484 339.200,212.249 339.200 C 212.014 339.200,212.225 338.918,212.718 338.573 C 213.210 338.228,213.493 337.750,213.345 337.511 C 213.179 337.243,213.264 337.192,213.564 337.378 C 213.931 337.604,213.881 337.868,213.364 338.440 M250.082 345.027 C 249.590 345.372,249.307 345.850,249.455 346.089 C 249.621 346.357,249.536 346.408,249.236 346.222 C 248.692 345.886,249.765 344.400,250.551 344.400 C 250.786 344.400,250.575 344.682,250.082 345.027 M168.300 364.467 C 168.245 364.724,168.650 365.178,169.200 365.476 L 170.200 366.018 169.000 365.875 C 167.911 365.746,167.482 365.133,167.898 364.300 C 168.131 363.832,168.411 363.948,168.300 364.467 M192.564 382.760 C 193.081 383.332,193.131 383.596,192.764 383.822 C 192.464 384.008,192.379 383.957,192.545 383.689 C 192.693 383.450,192.410 382.972,191.918 382.627 C 191.425 382.282,191.214 382.000,191.449 382.000 C 191.684 382.000,192.186 382.342,192.564 382.760 " stroke="none" fill="#9ca4ac" fill-rule="evenodd"></path><path id="path1" d="M299.733 53.000 C 299.733 53.330,299.822 53.512,299.930 53.403 C 300.276 53.057,301.201 54.074,300.934 54.507 C 300.779 54.758,300.872 54.803,301.168 54.620 C 301.530 54.396,301.422 54.062,300.760 53.358 C 299.697 52.226,299.733 52.239,299.733 53.000 M96.400 54.024 C 96.400 54.257,96.588 54.331,96.818 54.189 C 97.047 54.047,97.542 54.172,97.918 54.466 C 98.532 54.947,98.545 54.930,98.051 54.300 C 97.447 53.530,96.400 53.355,96.400 54.024 M93.054 54.670 C 93.303 54.851,93.607 55.360,93.728 55.800 C 93.901 56.431,93.932 56.395,93.874 55.631 C 93.833 55.099,93.530 54.590,93.200 54.501 C 92.804 54.394,92.754 54.451,93.054 54.670 M365.200 62.249 C 365.200 63.035,366.686 64.108,367.022 63.564 C 367.208 63.264,367.157 63.179,366.889 63.345 C 366.650 63.493,366.172 63.210,365.827 62.718 C 365.482 62.225,365.200 62.014,365.200 62.249 M28.983 73.628 C 28.837 73.863,28.332 74.212,27.859 74.403 L 27.000 74.749 27.851 74.775 C 28.319 74.789,28.926 74.530,29.200 74.200 C 29.745 73.543,30.459 73.387,30.300 73.960 C 30.208 74.291,30.393 74.400,31.049 74.400 C 31.186 74.400,31.074 74.130,30.800 73.800 C 30.218 73.099,29.360 73.018,28.983 73.628 M333.518 74.227 C 334.010 74.572,334.293 75.050,334.145 75.289 C 333.979 75.557,334.064 75.608,334.364 75.422 C 334.908 75.086,333.835 73.600,333.049 73.600 C 332.814 73.600,333.025 73.882,333.518 74.227 M340.881 84.800 C 340.981 85.130,341.456 85.458,341.937 85.529 C 342.418 85.599,342.716 85.812,342.599 86.001 C 342.483 86.190,342.560 86.452,342.773 86.583 C 342.987 86.716,343.089 86.462,343.002 86.011 C 342.916 85.565,343.026 85.200,343.247 85.200 C 343.467 85.200,343.536 85.020,343.400 84.800 C 343.264 84.580,342.973 84.400,342.753 84.400 C 342.533 84.400,342.464 84.580,342.600 84.800 C 342.955 85.374,341.860 85.294,341.230 84.700 C 340.802 84.296,340.735 84.316,340.881 84.800 M342.724 87.409 C 342.406 87.727,342.845 89.600,343.237 89.600 C 343.426 89.600,343.416 89.169,343.216 88.641 C 343.015 88.114,342.960 87.574,343.092 87.441 C 343.225 87.309,343.243 87.200,343.133 87.200 C 343.023 87.200,342.839 87.294,342.724 87.409 M53.600 96.951 C 53.600 97.254,53.915 97.749,54.300 98.051 C 54.930 98.545,54.947 98.532,54.466 97.918 C 54.172 97.542,54.047 97.047,54.189 96.818 C 54.331 96.588,54.257 96.400,54.024 96.400 C 53.791 96.400,53.600 96.648,53.600 96.951 M352.524 121.000 C 352.526 122.320,352.601 122.812,352.690 122.093 C 352.779 121.374,352.777 120.294,352.686 119.693 C 352.595 119.092,352.522 119.680,352.524 121.000 M49.436 124.360 C 48.919 124.932,48.869 125.196,49.236 125.422 C 49.536 125.608,49.621 125.557,49.455 125.289 C 49.307 125.050,49.590 124.572,50.082 124.227 C 50.575 123.882,50.786 123.600,50.551 123.600 C 50.316 123.600,49.814 123.942,49.436 124.360 M102.524 133.400 C 102.526 134.720,102.601 135.212,102.690 134.493 C 102.779 133.774,102.777 132.694,102.686 132.093 C 102.595 131.492,102.522 132.080,102.524 133.400 M297.724 133.400 C 297.726 134.720,297.801 135.212,297.890 134.493 C 297.979 133.774,297.977 132.694,297.886 132.093 C 297.795 131.492,297.722 132.080,297.724 133.400 M103.180 142.071 C 103.626 142.550,104.113 142.820,104.262 142.671 C 104.411 142.522,104.323 142.400,104.067 142.400 C 103.810 142.400,103.600 142.130,103.600 141.800 C 103.600 141.470,103.323 141.200,102.984 141.200 C 102.490 141.200,102.529 141.372,103.180 142.071 M102.528 216.800 C 102.528 218.230,102.601 218.815,102.689 218.100 C 102.778 217.385,102.778 216.215,102.689 215.500 C 102.601 214.785,102.528 215.370,102.528 216.800 M230.928 216.800 C 230.928 218.230,231.001 218.815,231.089 218.100 C 231.178 217.385,231.178 216.215,231.089 215.500 C 231.001 214.785,230.928 215.370,230.928 216.800 M19.324 233.400 C 19.326 234.720,19.401 235.212,19.490 234.493 C 19.579 233.774,19.577 232.694,19.486 232.093 C 19.395 231.492,19.322 232.080,19.324 233.400 M20.562 261.662 C 20.396 261.930,20.451 262.016,20.693 261.866 C 21.211 261.546,22.102 262.553,21.697 263.001 C 21.533 263.181,21.637 263.192,21.926 263.024 C 22.345 262.782,22.312 262.566,21.764 261.960 C 20.956 261.067,20.933 261.061,20.562 261.662 M342.697 263.549 C 342.568 264.043,342.689 264.287,343.037 264.236 C 343.906 264.108,344.060 263.748,343.459 263.249 C 343.014 262.880,342.856 262.943,342.697 263.549 M375.376 263.928 C 375.432 264.319,375.876 264.631,376.436 264.674 C 377.030 264.719,377.129 264.669,376.695 264.544 C 376.307 264.431,376.081 264.192,376.193 264.012 C 376.304 263.831,376.144 263.587,375.837 263.470 C 375.479 263.332,375.314 263.496,375.376 263.928 M341.389 265.183 C 341.519 265.393,341.897 265.461,342.229 265.333 C 342.591 265.195,342.786 265.302,342.716 265.601 C 342.652 265.875,342.842 266.188,343.139 266.296 C 343.569 266.453,343.587 266.322,343.225 265.646 C 342.976 265.181,342.408 264.800,341.962 264.800 C 341.517 264.800,341.259 264.972,341.389 265.183 M374.629 266.229 C 374.283 266.574,374.000 266.964,374.000 267.095 C 374.000 267.226,374.118 267.215,374.263 267.070 C 374.408 266.925,374.732 266.978,374.983 267.186 C 375.305 267.453,375.440 267.274,375.440 266.583 C 375.440 265.422,375.437 265.420,374.629 266.229 M336.500 271.882 C 336.005 271.978,335.600 272.219,335.600 272.418 C 335.600 272.634,335.988 272.633,336.559 272.416 C 337.086 272.215,337.655 272.175,337.823 272.326 C 337.991 272.476,337.999 272.375,337.841 272.100 C 337.682 271.825,337.518 271.625,337.476 271.654 C 337.434 271.684,336.995 271.787,336.500 271.882 M32.380 292.071 C 32.826 292.550,33.313 292.820,33.462 292.671 C 33.611 292.522,33.523 292.400,33.267 292.400 C 33.010 292.400,32.800 292.130,32.800 291.800 C 32.800 291.470,32.523 291.200,32.184 291.200 C 31.690 291.200,31.729 291.372,32.380 292.071 M314.800 291.962 C 314.800 292.408,315.181 292.976,315.646 293.225 C 316.322 293.587,316.453 293.569,316.296 293.139 C 316.188 292.842,315.875 292.652,315.601 292.716 C 315.302 292.786,315.195 292.591,315.333 292.229 C 315.461 291.897,315.393 291.519,315.183 291.389 C 314.972 291.259,314.800 291.517,314.800 291.962 M313.461 292.747 C 312.790 293.011,312.781 293.086,313.361 293.568 C 313.713 293.859,314.014 294.031,314.031 293.949 C 314.227 292.994,314.317 292.405,314.265 292.428 C 314.229 292.444,313.868 292.587,313.461 292.747 M354.800 300.014 C 354.800 300.559,355.396 300.773,355.953 300.429 C 356.328 300.197,356.242 300.052,355.634 299.893 C 355.175 299.773,354.800 299.827,354.800 300.014 M349.893 305.634 C 350.052 306.242,350.197 306.328,350.429 305.953 C 350.773 305.396,350.559 304.800,350.014 304.800 C 349.827 304.800,349.773 305.175,349.893 305.634 M230.300 315.810 C 230.194 316.365,230.308 316.934,230.554 317.074 C 230.799 317.214,230.876 317.191,230.726 317.023 C 230.575 316.855,230.615 316.286,230.816 315.759 C 231.016 315.231,231.026 314.800,230.837 314.800 C 230.648 314.800,230.406 315.254,230.300 315.810 M54.318 315.827 C 54.810 316.172,55.093 316.650,54.945 316.889 C 54.779 317.157,54.864 317.208,55.164 317.022 C 55.708 316.686,54.635 315.200,53.849 315.200 C 53.614 315.200,53.825 315.482,54.318 315.827 M334.909 316.009 C 334.876 316.453,335.018 316.713,335.224 316.585 C 335.679 316.304,335.727 315.200,335.285 315.200 C 335.112 315.200,334.943 315.564,334.909 316.009 M230.176 318.039 C 229.830 318.599,230.702 318.800,231.148 318.262 C 231.480 317.863,231.438 317.733,230.976 317.733 C 230.640 317.733,230.280 317.871,230.176 318.039 M63.394 319.210 C 63.255 319.435,63.379 319.570,63.670 319.510 C 63.962 319.449,64.165 319.595,64.122 319.833 C 64.079 320.072,64.305 320.267,64.624 320.267 C 65.099 320.267,65.084 320.135,64.540 319.533 C 63.767 318.679,63.729 318.668,63.394 319.210 M175.639 324.153 C 175.284 324.581,175.323 324.762,175.811 324.949 C 176.210 325.102,176.342 325.029,176.170 324.751 C 176.020 324.509,176.146 324.153,176.449 323.961 C 176.767 323.760,176.810 323.610,176.549 323.606 C 176.301 323.603,175.891 323.849,175.639 324.153 M320.236 324.360 C 319.719 324.932,319.669 325.196,320.036 325.422 C 320.336 325.608,320.421 325.557,320.255 325.289 C 320.107 325.050,320.390 324.572,320.882 324.227 C 321.375 323.882,321.586 323.600,321.351 323.600 C 321.116 323.600,320.614 323.942,320.236 324.360 M213.345 337.511 C 213.493 337.750,213.210 338.228,212.718 338.573 C 212.225 338.918,212.014 339.200,212.249 339.200 C 213.035 339.200,214.108 337.714,213.564 337.378 C 213.264 337.192,213.179 337.243,213.345 337.511 M148.400 341.882 C 148.730 342.003,149.405 342.470,149.900 342.921 C 150.395 343.371,150.800 343.556,150.800 343.332 C 150.800 342.667,149.397 341.598,148.569 341.632 C 148.002 341.655,147.958 341.721,148.400 341.882 M249.436 345.160 C 248.919 345.732,248.869 345.996,249.236 346.222 C 249.536 346.408,249.621 346.357,249.455 346.089 C 249.307 345.850,249.590 345.372,250.082 345.027 C 250.575 344.682,250.786 344.400,250.551 344.400 C 250.316 344.400,249.814 344.742,249.436 345.160 M167.898 364.300 C 167.482 365.133,167.911 365.746,169.000 365.875 L 170.200 366.018 169.200 365.476 C 168.650 365.178,168.245 364.724,168.300 364.467 C 168.411 363.948,168.131 363.832,167.898 364.300 M191.918 382.627 C 192.410 382.972,192.693 383.450,192.545 383.689 C 192.379 383.957,192.464 384.008,192.764 383.822 C 193.308 383.486,192.235 382.000,191.449 382.000 C 191.214 382.000,191.425 382.282,191.918 382.627 " stroke="none" fill="#a0a4ac" fill-rule="evenodd"></path><path id="path2" d="M299.733 53.000 C 299.733 53.330,299.822 53.512,299.930 53.403 C 300.276 53.057,301.201 54.074,300.934 54.507 C 300.779 54.758,300.872 54.803,301.168 54.620 C 301.530 54.396,301.422 54.062,300.760 53.358 C 299.697 52.226,299.733 52.239,299.733 53.000 M96.400 54.024 C 96.400 54.257,96.588 54.331,96.818 54.189 C 97.047 54.047,97.542 54.172,97.918 54.466 C 98.532 54.947,98.545 54.930,98.051 54.300 C 97.447 53.530,96.400 53.355,96.400 54.024 M93.054 54.670 C 93.303 54.851,93.607 55.360,93.728 55.800 C 93.901 56.431,93.932 56.395,93.874 55.631 C 93.833 55.099,93.530 54.590,93.200 54.501 C 92.804 54.394,92.754 54.451,93.054 54.670 M365.200 62.249 C 365.200 63.035,366.686 64.108,367.022 63.564 C 367.208 63.264,367.157 63.179,366.889 63.345 C 366.650 63.493,366.172 63.210,365.827 62.718 C 365.482 62.225,365.200 62.014,365.200 62.249 M28.983 73.628 C 28.837 73.863,28.332 74.212,27.859 74.403 L 27.000 74.749 27.851 74.775 C 28.319 74.789,28.926 74.530,29.200 74.200 C 29.745 73.543,30.459 73.387,30.300 73.960 C 30.208 74.291,30.393 74.400,31.049 74.400 C 31.186 74.400,31.074 74.130,30.800 73.800 C 30.218 73.099,29.360 73.018,28.983 73.628 M333.518 74.227 C 334.010 74.572,334.293 75.050,334.145 75.289 C 333.979 75.557,334.064 75.608,334.364 75.422 C 334.908 75.086,333.835 73.600,333.049 73.600 C 332.814 73.600,333.025 73.882,333.518 74.227 M340.881 84.800 C 340.981 85.130,341.456 85.458,341.937 85.529 C 342.418 85.599,342.716 85.812,342.599 86.001 C 342.483 86.190,342.560 86.452,342.773 86.583 C 342.987 86.716,343.089 86.462,343.002 86.011 C 342.916 85.565,343.026 85.200,343.247 85.200 C 343.467 85.200,343.536 85.020,343.400 84.800 C 343.264 84.580,342.973 84.400,342.753 84.400 C 342.533 84.400,342.464 84.580,342.600 84.800 C 342.955 85.374,341.860 85.294,341.230 84.700 C 340.802 84.296,340.735 84.316,340.881 84.800 M342.724 87.409 C 342.406 87.727,342.845 89.600,343.237 89.600 C 343.426 89.600,343.416 89.169,343.216 88.641 C 343.015 88.114,342.960 87.574,343.092 87.441 C 343.225 87.309,343.243 87.200,343.133 87.200 C 343.023 87.200,342.839 87.294,342.724 87.409 M53.600 96.951 C 53.600 97.254,53.915 97.749,54.300 98.051 C 54.930 98.545,54.947 98.532,54.466 97.918 C 54.172 97.542,54.047 97.047,54.189 96.818 C 54.331 96.588,54.257 96.400,54.024 96.400 C 53.791 96.400,53.600 96.648,53.600 96.951 M352.524 121.000 C 352.526 122.320,352.601 122.812,352.690 122.093 C 352.779 121.374,352.777 120.294,352.686 119.693 C 352.595 119.092,352.522 119.680,352.524 121.000 M49.436 124.360 C 48.919 124.932,48.869 125.196,49.236 125.422 C 49.536 125.608,49.621 125.557,49.455 125.289 C 49.307 125.050,49.590 124.572,50.082 124.227 C 50.575 123.882,50.786 123.600,50.551 123.600 C 50.316 123.600,49.814 123.942,49.436 124.360 M102.524 133.400 C 102.526 134.720,102.601 135.212,102.690 134.493 C 102.779 133.774,102.777 132.694,102.686 132.093 C 102.595 131.492,102.522 132.080,102.524 133.400 M297.724 133.400 C 297.726 134.720,297.801 135.212,297.890 134.493 C 297.979 133.774,297.977 132.694,297.886 132.093 C 297.795 131.492,297.722 132.080,297.724 133.400 M103.180 142.071 C 103.626 142.550,104.113 142.820,104.262 142.671 C 104.411 142.522,104.323 142.400,104.067 142.400 C 103.810 142.400,103.600 142.130,103.600 141.800 C 103.600 141.470,103.323 141.200,102.984 141.200 C 102.490 141.200,102.529 141.372,103.180 142.071 M102.528 216.800 C 102.528 218.230,102.601 218.815,102.689 218.100 C 102.778 217.385,102.778 216.215,102.689 215.500 C 102.601 214.785,102.528 215.370,102.528 216.800 M230.928 216.800 C 230.928 218.230,231.001 218.815,231.089 218.100 C 231.178 217.385,231.178 216.215,231.089 215.500 C 231.001 214.785,230.928 215.370,230.928 216.800 M19.324 233.400 C 19.326 234.720,19.401 235.212,19.490 234.493 C 19.579 233.774,19.577 232.694,19.486 232.093 C 19.395 231.492,19.322 232.080,19.324 233.400 M20.562 261.662 C 20.396 261.930,20.451 262.016,20.693 261.866 C 21.211 261.546,22.102 262.553,21.697 263.001 C 21.533 263.181,21.637 263.192,21.926 263.024 C 22.345 262.782,22.312 262.566,21.764 261.960 C 20.956 261.067,20.933 261.061,20.562 261.662 M342.697 263.549 C 342.568 264.043,342.689 264.287,343.037 264.236 C 343.906 264.108,344.060 263.748,343.459 263.249 C 343.014 262.880,342.856 262.943,342.697 263.549 M375.376 263.928 C 375.432 264.319,375.876 264.631,376.436 264.674 C 377.030 264.719,377.129 264.669,376.695 264.544 C 376.307 264.431,376.081 264.192,376.193 264.012 C 376.304 263.831,376.144 263.587,375.837 263.470 C 375.479 263.332,375.314 263.496,375.376 263.928 M341.389 265.183 C 341.519 265.393,341.897 265.461,342.229 265.333 C 342.591 265.195,342.786 265.302,342.716 265.601 C 342.652 265.875,342.842 266.188,343.139 266.296 C 343.569 266.453,343.587 266.322,343.225 265.646 C 342.976 265.181,342.408 264.800,341.962 264.800 C 341.517 264.800,341.259 264.972,341.389 265.183 M374.629 266.229 C 374.283 266.574,374.000 266.964,374.000 267.095 C 374.000 267.226,374.118 267.215,374.263 267.070 C 374.408 266.925,374.732 266.978,374.983 267.186 C 375.305 267.453,375.440 267.274,375.440 266.583 C 375.440 265.422,375.437 265.420,374.629 266.229 M336.500 271.882 C 336.005 271.978,335.600 272.219,335.600 272.418 C 335.600 272.634,335.988 272.633,336.559 272.416 C 337.086 272.215,337.655 272.175,337.823 272.326 C 337.991 272.476,337.999 272.375,337.841 272.100 C 337.682 271.825,337.518 271.625,337.476 271.654 C 337.434 271.684,336.995 271.787,336.500 271.882 M32.380 292.071 C 32.826 292.550,33.313 292.820,33.462 292.671 C 33.611 292.522,33.523 292.400,33.267 292.400 C 33.010 292.400,32.800 292.130,32.800 291.800 C 32.800 291.470,32.523 291.200,32.184 291.200 C 31.690 291.200,31.729 291.372,32.380 292.071 M314.800 291.962 C 314.800 292.408,315.181 292.976,315.646 293.225 C 316.322 293.587,316.453 293.569,316.296 293.139 C 316.188 292.842,315.875 292.652,315.601 292.716 C 315.302 292.786,315.195 292.591,315.333 292.229 C 315.461 291.897,315.393 291.519,315.183 291.389 C 314.972 291.259,314.800 291.517,314.800 291.962 M313.461 292.747 C 312.790 293.011,312.781 293.086,313.361 293.568 C 313.713 293.859,314.014 294.031,314.031 293.949 C 314.227 292.994,314.317 292.405,314.265 292.428 C 314.229 292.444,313.868 292.587,313.461 292.747 M354.800 300.014 C 354.800 300.559,355.396 300.773,355.953 300.429 C 356.328 300.197,356.242 300.052,355.634 299.893 C 355.175 299.773,354.800 299.827,354.800 300.014 M349.893 305.634 C 350.052 306.242,350.197 306.328,350.429 305.953 C 350.773 305.396,350.559 304.800,350.014 304.800 C 349.827 304.800,349.773 305.175,349.893 305.634 M230.300 315.810 C 230.194 316.365,230.308 316.934,230.554 317.074 C 230.799 317.214,230.876 317.191,230.726 317.023 C 230.575 316.855,230.615 316.286,230.816 315.759 C 231.016 315.231,231.026 314.800,230.837 314.800 C 230.648 314.800,230.406 315.254,230.300 315.810 M54.318 315.827 C 54.810 316.172,55.093 316.650,54.945 316.889 C 54.779 317.157,54.864 317.208,55.164 317.022 C 55.708 316.686,54.635 315.200,53.849 315.200 C 53.614 315.200,53.825 315.482,54.318 315.827 M334.909 316.009 C 334.876 316.453,335.018 316.713,335.224 316.585 C 335.679 316.304,335.727 315.200,335.285 315.200 C 335.112 315.200,334.943 315.564,334.909 316.009 M230.176 318.039 C 229.830 318.599,230.702 318.800,231.148 318.262 C 231.480 317.863,231.438 317.733,230.976 317.733 C 230.640 317.733,230.280 317.871,230.176 318.039 M63.394 319.210 C 63.255 319.435,63.379 319.570,63.670 319.510 C 63.962 319.449,64.165 319.595,64.122 319.833 C 64.079 320.072,64.305 320.267,64.624 320.267 C 65.099 320.267,65.084 320.135,64.540 319.533 C 63.767 318.679,63.729 318.668,63.394 319.210 M175.639 324.153 C 175.284 324.581,175.323 324.762,175.811 324.949 C 176.210 325.102,176.342 325.029,176.170 324.751 C 176.020 324.509,176.146 324.153,176.449 323.961 C 176.767 323.760,176.810 323.610,176.549 323.606 C 176.301 323.603,175.891 323.849,175.639 324.153 M320.236 324.360 C 319.719 324.932,319.669 325.196,320.036 325.422 C 320.336 325.608,320.421 325.557,320.255 325.289 C 320.107 325.050,320.390 324.572,320.882 324.227 C 321.375 323.882,321.586 323.600,321.351 323.600 C 321.116 323.600,320.614 323.942,320.236 324.360 M213.345 337.511 C 213.493 337.750,213.210 338.228,212.718 338.573 C 212.225 338.918,212.014 339.200,212.249 339.200 C 213.035 339.200,214.108 337.714,213.564 337.378 C 213.264 337.192,213.179 337.243,213.345 337.511 M148.400 341.882 C 148.730 342.003,149.405 342.470,149.900 342.921 C 150.395 343.371,150.800 343.556,150.800 343.332 C 150.800 342.667,149.397 341.598,148.569 341.632 C 148.002 341.655,147.958 341.721,148.400 341.882 M249.436 345.160 C 248.919 345.732,248.869 345.996,249.236 346.222 C 249.536 346.408,249.621 346.357,249.455 346.089 C 249.307 345.850,249.590 345.372,250.082 345.027 C 250.575 344.682,250.786 344.400,250.551 344.400 C 250.316 344.400,249.814 344.742,249.436 345.160 M167.898 364.300 C 167.482 365.133,167.911 365.746,169.000 365.875 L 170.200 366.018 169.200 365.476 C 168.650 365.178,168.245 364.724,168.300 364.467 C 168.411 363.948,168.131 363.832,167.898 364.300 M191.918 382.627 C 192.410 382.972,192.693 383.450,192.545 383.689 C 192.379 383.957,192.464 384.008,192.764 383.822 C 193.308 383.486,192.235 382.000,191.449 382.000 C 191.214 382.000,191.425 382.282,191.918 382.627 " stroke="none" fill="#a0a4ac" fill-rule="evenodd"></path><path id="path3" d="M299.733 53.000 C 299.733 53.330,299.822 53.512,299.930 53.403 C 300.276 53.057,301.201 54.074,300.934 54.507 C 300.779 54.758,300.872 54.803,301.168 54.620 C 301.530 54.396,301.422 54.062,300.760 53.358 C 299.697 52.226,299.733 52.239,299.733 53.000 M96.400 54.024 C 96.400 54.257,96.588 54.331,96.818 54.189 C 97.047 54.047,97.542 54.172,97.918 54.466 C 98.532 54.947,98.545 54.930,98.051 54.300 C 97.447 53.530,96.400 53.355,96.400 54.024 M93.054 54.670 C 93.303 54.851,93.607 55.360,93.728 55.800 C 93.901 56.431,93.932 56.395,93.874 55.631 C 93.833 55.099,93.530 54.590,93.200 54.501 C 92.804 54.394,92.754 54.451,93.054 54.670 M365.200 62.249 C 365.200 63.035,366.686 64.108,367.022 63.564 C 367.208 63.264,367.157 63.179,366.889 63.345 C 366.650 63.493,366.172 63.210,365.827 62.718 C 365.482 62.225,365.200 62.014,365.200 62.249 M28.983 73.628 C 28.837 73.863,28.332 74.212,27.859 74.403 L 27.000 74.749 27.851 74.775 C 28.319 74.789,28.926 74.530,29.200 74.200 C 29.745 73.543,30.459 73.387,30.300 73.960 C 30.208 74.291,30.393 74.400,31.049 74.400 C 31.186 74.400,31.074 74.130,30.800 73.800 C 30.218 73.099,29.360 73.018,28.983 73.628 M333.518 74.227 C 334.010 74.572,334.293 75.050,334.145 75.289 C 333.979 75.557,334.064 75.608,334.364 75.422 C 334.908 75.086,333.835 73.600,333.049 73.600 C 332.814 73.600,333.025 73.882,333.518 74.227 M340.881 84.800 C 340.981 85.130,341.456 85.458,341.937 85.529 C 342.418 85.599,342.716 85.812,342.599 86.001 C 342.483 86.190,342.560 86.452,342.773 86.583 C 342.987 86.716,343.089 86.462,343.002 86.011 C 342.916 85.565,343.026 85.200,343.247 85.200 C 343.467 85.200,343.536 85.020,343.400 84.800 C 343.264 84.580,342.973 84.400,342.753 84.400 C 342.533 84.400,342.464 84.580,342.600 84.800 C 342.955 85.374,341.860 85.294,341.230 84.700 C 340.802 84.296,340.735 84.316,340.881 84.800 M342.724 87.409 C 342.406 87.727,342.845 89.600,343.237 89.600 C 343.426 89.600,343.416 89.169,343.216 88.641 C 343.015 88.114,342.960 87.574,343.092 87.441 C 343.225 87.309,343.243 87.200,343.133 87.200 C 343.023 87.200,342.839 87.294,342.724 87.409 M53.600 96.951 C 53.600 97.254,53.915 97.749,54.300 98.051 C 54.930 98.545,54.947 98.532,54.466 97.918 C 54.172 97.542,54.047 97.047,54.189 96.818 C 54.331 96.588,54.257 96.400,54.024 96.400 C 53.791 96.400,53.600 96.648,53.600 96.951 M352.524 121.000 C 352.526 122.320,352.601 122.812,352.690 122.093 C 352.779 121.374,352.777 120.294,352.686 119.693 C 352.595 119.092,352.522 119.680,352.524 121.000 M49.436 124.360 C 48.919 124.932,48.869 125.196,49.236 125.422 C 49.536 125.608,49.621 125.557,49.455 125.289 C 49.307 125.050,49.590 124.572,50.082 124.227 C 50.575 123.882,50.786 123.600,50.551 123.600 C 50.316 123.600,49.814 123.942,49.436 124.360 M102.524 133.400 C 102.526 134.720,102.601 135.212,102.690 134.493 C 102.779 133.774,102.777 132.694,102.686 132.093 C 102.595 131.492,102.522 132.080,102.524 133.400 M297.724 133.400 C 297.726 134.720,297.801 135.212,297.890 134.493 C 297.979 133.774,297.977 132.694,297.886 132.093 C 297.795 131.492,297.722 132.080,297.724 133.400 M103.180 142.071 C 103.626 142.550,104.113 142.820,104.262 142.671 C 104.411 142.522,104.323 142.400,104.067 142.400 C 103.810 142.400,103.600 142.130,103.600 141.800 C 103.600 141.470,103.323 141.200,102.984 141.200 C 102.490 141.200,102.529 141.372,103.180 142.071 M102.528 216.800 C 102.528 218.230,102.601 218.815,102.689 218.100 C 102.778 217.385,102.778 216.215,102.689 215.500 C 102.601 214.785,102.528 215.370,102.528 216.800 M230.928 216.800 C 230.928 218.230,231.001 218.815,231.089 218.100 C 231.178 217.385,231.178 216.215,231.089 215.500 C 231.001 214.785,230.928 215.370,230.928 216.800 M19.324 233.400 C 19.326 234.720,19.401 235.212,19.490 234.493 C 19.579 233.774,19.577 232.694,19.486 232.093 C 19.395 231.492,19.322 232.080,19.324 233.400 M20.562 261.662 C 20.396 261.930,20.451 262.016,20.693 261.866 C 21.211 261.546,22.102 262.553,21.697 263.001 C 21.533 263.181,21.637 263.192,21.926 263.024 C 22.345 262.782,22.312 262.566,21.764 261.960 C 20.956 261.067,20.933 261.061,20.562 261.662 M342.697 263.549 C 342.568 264.043,342.689 264.287,343.037 264.236 C 343.906 264.108,344.060 263.748,343.459 263.249 C 343.014 262.880,342.856 262.943,342.697 263.549 M375.376 263.928 C 375.432 264.319,375.876 264.631,376.436 264.674 C 377.030 264.719,377.129 264.669,376.695 264.544 C 376.307 264.431,376.081 264.192,376.193 264.012 C 376.304 263.831,376.144 263.587,375.837 263.470 C 375.479 263.332,375.314 263.496,375.376 263.928 M341.389 265.183 C 341.519 265.393,341.897 265.461,342.229 265.333 C 342.591 265.195,342.786 265.302,342.716 265.601 C 342.652 265.875,342.842 266.188,343.139 266.296 C 343.569 266.453,343.587 266.322,343.225 265.646 C 342.976 265.181,342.408 264.800,341.962 264.800 C 341.517 264.800,341.259 264.972,341.389 265.183 M374.629 266.229 C 374.283 266.574,374.000 266.964,374.000 267.095 C 374.000 267.226,374.118 267.215,374.263 267.070 C 374.408 266.925,374.732 266.978,374.983 267.186 C 375.305 267.453,375.440 267.274,375.440 266.583 C 375.440 265.422,375.437 265.420,374.629 266.229 M336.500 271.882 C 336.005 271.978,335.600 272.219,335.600 272.418 C 335.600 272.634,335.988 272.633,336.559 272.416 C 337.086 272.215,337.655 272.175,337.823 272.326 C 337.991 272.476,337.999 272.375,337.841 272.100 C 337.682 271.825,337.518 271.625,337.476 271.654 C 337.434 271.684,336.995 271.787,336.500 271.882 M32.380 292.071 C 32.826 292.550,33.313 292.820,33.462 292.671 C 33.611 292.522,33.523 292.400,33.267 292.400 C 33.010 292.400,32.800 292.130,32.800 291.800 C 32.800 291.470,32.523 291.200,32.184 291.200 C 31.690 291.200,31.729 291.372,32.380 292.071 M314.800 291.962 C 314.800 292.408,315.181 292.976,315.646 293.225 C 316.322 293.587,316.453 293.569,316.296 293.139 C 316.188 292.842,315.875 292.652,315.601 292.716 C 315.302 292.786,315.195 292.591,315.333 292.229 C 315.461 291.897,315.393 291.519,315.183 291.389 C 314.972 291.259,314.800 291.517,314.800 291.962 M313.461 292.747 C 312.790 293.011,312.781 293.086,313.361 293.568 C 313.713 293.859,314.014 294.031,314.031 293.949 C 314.227 292.994,314.317 292.405,314.265 292.428 C 314.229 292.444,313.868 292.587,313.461 292.747 M354.800 300.014 C 354.800 300.559,355.396 300.773,355.953 300.429 C 356.328 300.197,356.242 300.052,355.634 299.893 C 355.175 299.773,354.800 299.827,354.800 300.014 M349.893 305.634 C 350.052 306.242,350.197 306.328,350.429 305.953 C 350.773 305.396,350.559 304.800,350.014 304.800 C 349.827 304.800,349.773 305.175,349.893 305.634 M230.300 315.810 C 230.194 316.365,230.308 316.934,230.554 317.074 C 230.799 317.214,230.876 317.191,230.726 317.023 C 230.575 316.855,230.615 316.286,230.816 315.759 C 231.016 315.231,231.026 314.800,230.837 314.800 C 230.648 314.800,230.406 315.254,230.300 315.810 M54.318 315.827 C 54.810 316.172,55.093 316.650,54.945 316.889 C 54.779 317.157,54.864 317.208,55.164 317.022 C 55.708 316.686,54.635 315.200,53.849 315.200 C 53.614 315.200,53.825 315.482,54.318 315.827 M334.909 316.009 C 334.876 316.453,335.018 316.713,335.224 316.585 C 335.679 316.304,335.727 315.200,335.285 315.200 C 335.112 315.200,334.943 315.564,334.909 316.009 M230.176 318.039 C 229.830 318.599,230.702 318.800,231.148 318.262 C 231.480 317.863,231.438 317.733,230.976 317.733 C 230.640 317.733,230.280 317.871,230.176 318.039 M63.394 319.210 C 63.255 319.435,63.379 319.570,63.670 319.510 C 63.962 319.449,64.165 319.595,64.122 319.833 C 64.079 320.072,64.305 320.267,64.624 320.267 C 65.099 320.267,65.084 320.135,64.540 319.533 C 63.767 318.679,63.729 318.668,63.394 319.210 M175.639 324.153 C 175.284 324.581,175.323 324.762,175.811 324.949 C 176.210 325.102,176.342 325.029,176.170 324.751 C 176.020 324.509,176.146 324.153,176.449 323.961 C 176.767 323.760,176.810 323.610,176.549 323.606 C 176.301 323.603,175.891 323.849,175.639 324.153 M320.236 324.360 C 319.719 324.932,319.669 325.196,320.036 325.422 C 320.336 325.608,320.421 325.557,320.255 325.289 C 320.107 325.050,320.390 324.572,320.882 324.227 C 321.375 323.882,321.586 323.600,321.351 323.600 C 321.116 323.600,320.614 323.942,320.236 324.360 M213.345 337.511 C 213.493 337.750,213.210 338.228,212.718 338.573 C 212.225 338.918,212.014 339.200,212.249 339.200 C 213.035 339.200,214.108 337.714,213.564 337.378 C 213.264 337.192,213.179 337.243,213.345 337.511 M148.400 341.882 C 148.730 342.003,149.405 342.470,149.900 342.921 C 150.395 343.371,150.800 343.556,150.800 343.332 C 150.800 342.667,149.397 341.598,148.569 341.632 C 148.002 341.655,147.958 341.721,148.400 341.882 M249.436 345.160 C 248.919 345.732,248.869 345.996,249.236 346.222 C 249.536 346.408,249.621 346.357,249.455 346.089 C 249.307 345.850,249.590 345.372,250.082 345.027 C 250.575 344.682,250.786 344.400,250.551 344.400 C 250.316 344.400,249.814 344.742,249.436 345.160 M167.898 364.300 C 167.482 365.133,167.911 365.746,169.000 365.875 L 170.200 366.018 169.200 365.476 C 168.650 365.178,168.245 364.724,168.300 364.467 C 168.411 363.948,168.131 363.832,167.898 364.300 M191.918 382.627 C 192.410 382.972,192.693 383.450,192.545 383.689 C 192.379 383.957,192.464 384.008,192.764 383.822 C 193.308 383.486,192.235 382.000,191.449 382.000 C 191.214 382.000,191.425 382.282,191.918 382.627 " stroke="none" fill="#a0a4ac" fill-rule="evenodd"></path><path id="path4" d="M299.733 53.000 C 299.733 53.330,299.822 53.512,299.930 53.403 C 300.276 53.057,301.201 54.074,300.934 54.507 C 300.779 54.758,300.872 54.803,301.168 54.620 C 301.530 54.396,301.422 54.062,300.760 53.358 C 299.697 52.226,299.733 52.239,299.733 53.000 M96.400 54.024 C 96.400 54.257,96.588 54.331,96.818 54.189 C 97.047 54.047,97.542 54.172,97.918 54.466 C 98.532 54.947,98.545 54.930,98.051 54.300 C 97.447 53.530,96.400 53.355,96.400 54.024 M93.054 54.670 C 93.303 54.851,93.607 55.360,93.728 55.800 C 93.901 56.431,93.932 56.395,93.874 55.631 C 93.833 55.099,93.530 54.590,93.200 54.501 C 92.804 54.394,92.754 54.451,93.054 54.670 M365.200 62.249 C 365.200 63.035,366.686 64.108,367.022 63.564 C 367.208 63.264,367.157 63.179,366.889 63.345 C 366.650 63.493,366.172 63.210,365.827 62.718 C 365.482 62.225,365.200 62.014,365.200 62.249 M28.983 73.628 C 28.837 73.863,28.332 74.212,27.859 74.403 L 27.000 74.749 27.851 74.775 C 28.319 74.789,28.926 74.530,29.200 74.200 C 29.745 73.543,30.459 73.387,30.300 73.960 C 30.208 74.291,30.393 74.400,31.049 74.400 C 31.186 74.400,31.074 74.130,30.800 73.800 C 30.218 73.099,29.360 73.018,28.983 73.628 M333.518 74.227 C 334.010 74.572,334.293 75.050,334.145 75.289 C 333.979 75.557,334.064 75.608,334.364 75.422 C 334.908 75.086,333.835 73.600,333.049 73.600 C 332.814 73.600,333.025 73.882,333.518 74.227 M340.881 84.800 C 340.981 85.130,341.456 85.458,341.937 85.529 C 342.418 85.599,342.716 85.812,342.599 86.001 C 342.483 86.190,342.560 86.452,342.773 86.583 C 342.987 86.716,343.089 86.462,343.002 86.011 C 342.916 85.565,343.026 85.200,343.247 85.200 C 343.467 85.200,343.536 85.020,343.400 84.800 C 343.264 84.580,342.973 84.400,342.753 84.400 C 342.533 84.400,342.464 84.580,342.600 84.800 C 342.955 85.374,341.860 85.294,341.230 84.700 C 340.802 84.296,340.735 84.316,340.881 84.800 M342.724 87.409 C 342.406 87.727,342.845 89.600,343.237 89.600 C 343.426 89.600,343.416 89.169,343.216 88.641 C 343.015 88.114,342.960 87.574,343.092 87.441 C 343.225 87.309,343.243 87.200,343.133 87.200 C 343.023 87.200,342.839 87.294,342.724 87.409 M53.600 96.951 C 53.600 97.254,53.915 97.749,54.300 98.051 C 54.930 98.545,54.947 98.532,54.466 97.918 C 54.172 97.542,54.047 97.047,54.189 96.818 C 54.331 96.588,54.257 96.400,54.024 96.400 C 53.791 96.400,53.600 96.648,53.600 96.951 M352.524 121.000 C 352.526 122.320,352.601 122.812,352.690 122.093 C 352.779 121.374,352.777 120.294,352.686 119.693 C 352.595 119.092,352.522 119.680,352.524 121.000 M49.436 124.360 C 48.919 124.932,48.869 125.196,49.236 125.422 C 49.536 125.608,49.621 125.557,49.455 125.289 C 49.307 125.050,49.590 124.572,50.082 124.227 C 50.575 123.882,50.786 123.600,50.551 123.600 C 50.316 123.600,49.814 123.942,49.436 124.360 M102.524 133.400 C 102.526 134.720,102.601 135.212,102.690 134.493 C 102.779 133.774,102.777 132.694,102.686 132.093 C 102.595 131.492,102.522 132.080,102.524 133.400 M297.724 133.400 C 297.726 134.720,297.801 135.212,297.890 134.493 C 297.979 133.774,297.977 132.694,297.886 132.093 C 297.795 131.492,297.722 132.080,297.724 133.400 M103.180 142.071 C 103.626 142.550,104.113 142.820,104.262 142.671 C 104.411 142.522,104.323 142.400,104.067 142.400 C 103.810 142.400,103.600 142.130,103.600 141.800 C 103.600 141.470,103.323 141.200,102.984 141.200 C 102.490 141.200,102.529 141.372,103.180 142.071 M102.528 216.800 C 102.528 218.230,102.601 218.815,102.689 218.100 C 102.778 217.385,102.778 216.215,102.689 215.500 C 102.601 214.785,102.528 215.370,102.528 216.800 M230.928 216.800 C 230.928 218.230,231.001 218.815,231.089 218.100 C 231.178 217.385,231.178 216.215,231.089 215.500 C 231.001 214.785,230.928 215.370,230.928 216.800 M19.324 233.400 C 19.326 234.720,19.401 235.212,19.490 234.493 C 19.579 233.774,19.577 232.694,19.486 232.093 C 19.395 231.492,19.322 232.080,19.324 233.400 M20.562 261.662 C 20.396 261.930,20.451 262.016,20.693 261.866 C 21.211 261.546,22.102 262.553,21.697 263.001 C 21.533 263.181,21.637 263.192,21.926 263.024 C 22.345 262.782,22.312 262.566,21.764 261.960 C 20.956 261.067,20.933 261.061,20.562 261.662 M342.697 263.549 C 342.568 264.043,342.689 264.287,343.037 264.236 C 343.906 264.108,344.060 263.748,343.459 263.249 C 343.014 262.880,342.856 262.943,342.697 263.549 M375.376 263.928 C 375.432 264.319,375.876 264.631,376.436 264.674 C 377.030 264.719,377.129 264.669,376.695 264.544 C 376.307 264.431,376.081 264.192,376.193 264.012 C 376.304 263.831,376.144 263.587,375.837 263.470 C 375.479 263.332,375.314 263.496,375.376 263.928 M341.389 265.183 C 341.519 265.393,341.897 265.461,342.229 265.333 C 342.591 265.195,342.786 265.302,342.716 265.601 C 342.652 265.875,342.842 266.188,343.139 266.296 C 343.569 266.453,343.587 266.322,343.225 265.646 C 342.976 265.181,342.408 264.800,341.962 264.800 C 341.517 264.800,341.259 264.972,341.389 265.183 M374.629 266.229 C 374.283 266.574,374.000 266.964,374.000 267.095 C 374.000 267.226,374.118 267.215,374.263 267.070 C 374.408 266.925,374.732 266.978,374.983 267.186 C 375.305 267.453,375.440 267.274,375.440 266.583 C 375.440 265.422,375.437 265.420,374.629 266.229 M336.500 271.882 C 336.005 271.978,335.600 272.219,335.600 272.418 C 335.600 272.634,335.988 272.633,336.559 272.416 C 337.086 272.215,337.655 272.175,337.823 272.326 C 337.991 272.476,337.999 272.375,337.841 272.100 C 337.682 271.825,337.518 271.625,337.476 271.654 C 337.434 271.684,336.995 271.787,336.500 271.882 M32.380 292.071 C 32.826 292.550,33.313 292.820,33.462 292.671 C 33.611 292.522,33.523 292.400,33.267 292.400 C 33.010 292.400,32.800 292.130,32.800 291.800 C 32.800 291.470,32.523 291.200,32.184 291.200 C 31.690 291.200,31.729 291.372,32.380 292.071 M314.800 291.962 C 314.800 292.408,315.181 292.976,315.646 293.225 C 316.322 293.587,316.453 293.569,316.296 293.139 C 316.188 292.842,315.875 292.652,315.601 292.716 C 315.302 292.786,315.195 292.591,315.333 292.229 C 315.461 291.897,315.393 291.519,315.183 291.389 C 314.972 291.259,314.800 291.517,314.800 291.962 M313.461 292.747 C 312.790 293.011,312.781 293.086,313.361 293.568 C 313.713 293.859,314.014 294.031,314.031 293.949 C 314.227 292.994,314.317 292.405,314.265 292.428 C 314.229 292.444,313.868 292.587,313.461 292.747 M354.800 300.014 C 354.800 300.559,355.396 300.773,355.953 300.429 C 356.328 300.197,356.242 300.052,355.634 299.893 C 355.175 299.773,354.800 299.827,354.800 300.014 M349.893 305.634 C 350.052 306.242,350.197 306.328,350.429 305.953 C 350.773 305.396,350.559 304.800,350.014 304.800 C 349.827 304.800,349.773 305.175,349.893 305.634 M230.300 315.810 C 230.194 316.365,230.308 316.934,230.554 317.074 C 230.799 317.214,230.876 317.191,230.726 317.023 C 230.575 316.855,230.615 316.286,230.816 315.759 C 231.016 315.231,231.026 314.800,230.837 314.800 C 230.648 314.800,230.406 315.254,230.300 315.810 M54.318 315.827 C 54.810 316.172,55.093 316.650,54.945 316.889 C 54.779 317.157,54.864 317.208,55.164 317.022 C 55.708 316.686,54.635 315.200,53.849 315.200 C 53.614 315.200,53.825 315.482,54.318 315.827 M334.909 316.009 C 334.876 316.453,335.018 316.713,335.224 316.585 C 335.679 316.304,335.727 315.200,335.285 315.200 C 335.112 315.200,334.943 315.564,334.909 316.009 M230.176 318.039 C 229.830 318.599,230.702 318.800,231.148 318.262 C 231.480 317.863,231.438 317.733,230.976 317.733 C 230.640 317.733,230.280 317.871,230.176 318.039 M63.394 319.210 C 63.255 319.435,63.379 319.570,63.670 319.510 C 63.962 319.449,64.165 319.595,64.122 319.833 C 64.079 320.072,64.305 320.267,64.624 320.267 C 65.099 320.267,65.084 320.135,64.540 319.533 C 63.767 318.679,63.729 318.668,63.394 319.210 M175.639 324.153 C 175.284 324.581,175.323 324.762,175.811 324.949 C 176.210 325.102,176.342 325.029,176.170 324.751 C 176.020 324.509,176.146 324.153,176.449 323.961 C 176.767 323.760,176.810 323.610,176.549 323.606 C 176.301 323.603,175.891 323.849,175.639 324.153 M320.236 324.360 C 319.719 324.932,319.669 325.196,320.036 325.422 C 320.336 325.608,320.421 325.557,320.255 325.289 C 320.107 325.050,320.390 324.572,320.882 324.227 C 321.375 323.882,321.586 323.600,321.351 323.600 C 321.116 323.600,320.614 323.942,320.236 324.360 M213.345 337.511 C 213.493 337.750,213.210 338.228,212.718 338.573 C 212.225 338.918,212.014 339.200,212.249 339.200 C 213.035 339.200,214.108 337.714,213.564 337.378 C 213.264 337.192,213.179 337.243,213.345 337.511 M148.400 341.882 C 148.730 342.003,149.405 342.470,149.900 342.921 C 150.395 343.371,150.800 343.556,150.800 343.332 C 150.800 342.667,149.397 341.598,148.569 341.632 C 148.002 341.655,147.958 341.721,148.400 341.882 M249.436 345.160 C 248.919 345.732,248.869 345.996,249.236 346.222 C 249.536 346.408,249.621 346.357,249.455 346.089 C 249.307 345.850,249.590 345.372,250.082 345.027 C 250.575 344.682,250.786 344.400,250.551 344.400 C 250.316 344.400,249.814 344.742,249.436 345.160 M167.898 364.300 C 167.482 365.133,167.911 365.746,169.000 365.875 L 170.200 366.018 169.200 365.476 C 168.650 365.178,168.245 364.724,168.300 364.467 C 168.411 363.948,168.131 363.832,167.898 364.300 M191.918 382.627 C 192.410 382.972,192.693 383.450,192.545 383.689 C 192.379 383.957,192.464 384.008,192.764 383.822 C 193.308 383.486,192.235 382.000,191.449 382.000 C 191.214 382.000,191.425 382.282,191.918 382.627 " stroke="none" fill="#a0a4ac" fill-rule="evenodd"></path></g></svg>