<svg id="svg" version="1.1" xmlns="http://www.w3.org/2000/svg" xmlns:xlink="http://www.w3.org/1999/xlink" width="400" height="400" viewBox="0, 0, 400,400"><g id="svgg"><path id="path0" d="M70.800 19.652 C 70.800 19.830,70.499 19.859,70.131 19.718 C 69.623 19.523,69.523 19.623,69.718 20.131 C 69.859 20.499,69.794 20.800,69.572 20.800 C 69.351 20.800,69.222 21.295,69.285 21.900 L 69.400 23.000 66.326 23.116 C 63.825 23.211,63.219 23.360,63.073 23.916 C 62.907 24.547,62.889 24.546,62.846 23.900 C 62.818 23.475,62.476 23.200,61.976 23.200 C 61.434 23.200,61.249 23.370,61.435 23.700 C 61.653 24.086,61.601 24.093,61.208 23.729 C 60.863 23.411,60.387 23.377,59.735 23.625 C 59.206 23.826,58.643 23.972,58.486 23.948 C 57.732 23.835,57.200 24.042,57.200 24.449 C 57.200 24.730,57.395 24.767,57.719 24.549 C 58.004 24.357,57.900 24.510,57.488 24.889 C 56.996 25.341,56.827 25.856,56.996 26.389 C 57.275 27.267,57.238 27.274,52.100 27.281 C 50.945 27.283,50.000 27.425,50.000 27.598 C 50.000 27.770,49.685 27.886,49.300 27.856 C 48.861 27.821,48.621 28.061,48.656 28.500 C 48.686 28.885,48.544 29.200,48.340 29.200 C 48.137 29.200,48.022 29.695,48.085 30.300 C 48.194 31.346,48.103 31.410,46.200 31.600 L 44.200 31.800 44.078 33.700 C 43.949 35.718,44.024 35.664,41.300 35.691 L 40.000 35.704 40.000 37.852 L 40.000 40.000 37.852 40.000 L 35.704 40.000 35.691 41.300 C 35.663 44.110,35.748 44.000,33.621 44.000 L 31.642 44.000 31.521 46.100 C 31.404 48.128,31.362 48.196,30.300 48.085 C 29.695 48.022,29.200 48.137,29.200 48.340 C 29.200 48.544,28.885 48.686,28.500 48.656 C 28.061 48.621,27.821 48.861,27.856 49.300 C 27.886 49.685,27.780 50.000,27.619 50.000 C 27.458 50.000,27.314 50.810,27.299 51.800 C 27.285 52.790,27.430 53.600,27.624 53.600 C 27.817 53.600,27.871 53.330,27.745 53.000 C 27.614 52.660,27.735 52.400,28.024 52.400 C 28.304 52.400,28.415 52.518,28.270 52.663 C 28.125 52.808,28.207 53.168,28.452 53.463 C 28.801 53.884,28.714 54.000,28.049 54.000 C 27.345 54.000,27.200 54.240,27.200 55.408 C 27.200 56.709,27.125 56.796,26.200 56.564 C 25.634 56.422,25.200 56.486,25.200 56.712 C 25.200 56.932,24.889 57.086,24.510 57.056 C 24.130 57.025,23.815 57.210,23.810 57.467 C 23.804 57.723,23.665 58.068,23.500 58.233 C 22.895 58.838,23.224 59.601,24.100 59.625 L 25.000 59.651 24.117 60.006 C 23.284 60.342,23.233 60.603,23.233 64.592 C 23.233 69.375,23.134 69.699,21.775 69.358 C 21.194 69.212,20.800 69.287,20.800 69.544 C 20.800 69.783,20.501 69.860,20.131 69.718 C 19.623 69.523,19.523 69.623,19.718 70.131 C 19.859 70.499,19.830 70.800,19.652 70.800 C 18.903 70.800,19.131 78.325,19.886 78.522 C 20.560 78.697,20.560 78.710,19.894 78.754 C 18.816 78.824,18.842 321.444,19.920 321.728 C 20.541 321.892,20.542 321.911,19.932 321.954 C 19.358 321.994,19.267 322.526,19.283 325.759 C 19.305 330.100,19.440 330.440,21.234 330.649 C 23.053 330.860,23.280 331.195,23.261 333.631 C 23.249 335.157,23.433 335.892,23.922 336.273 C 24.555 336.767,24.553 336.786,23.900 336.558 C 23.515 336.424,23.200 336.500,23.200 336.728 C 23.200 336.955,23.515 337.224,23.900 337.324 C 24.524 337.487,24.518 337.512,23.847 337.554 C 23.188 337.594,23.129 337.812,23.374 339.300 C 23.528 340.235,23.652 341.318,23.651 341.707 C 23.648 342.668,25.356 343.731,26.380 343.406 C 27.187 343.150,27.571 345.611,27.252 348.990 C 27.158 349.986,27.974 352.000,28.472 352.000 C 28.678 352.000,28.712 351.775,28.547 351.500 C 28.341 351.157,28.458 351.171,28.920 351.546 C 29.290 351.846,30.094 352.018,30.706 351.928 C 31.756 351.774,31.811 351.841,31.666 353.081 C 31.360 355.708,31.806 356.400,33.808 356.400 C 35.661 356.400,35.818 356.585,35.617 358.524 C 35.489 359.758,36.390 360.400,38.249 360.400 L 40.000 360.400 40.000 362.400 L 40.000 364.400 42.000 364.400 C 43.708 364.400,44.000 364.513,44.000 365.171 C 44.000 365.595,44.315 366.024,44.700 366.124 C 45.355 366.295,45.354 366.310,44.686 366.354 C 43.444 366.434,44.016 368.508,45.330 368.684 C 46.137 368.792,46.407 368.652,46.428 368.114 C 46.453 367.488,46.498 367.498,46.800 368.200 C 46.989 368.640,47.156 368.843,47.172 368.651 C 47.187 368.459,47.459 368.517,47.776 368.780 C 48.093 369.043,48.253 369.519,48.131 369.836 C 47.865 370.529,48.740 372.800,49.272 372.800 C 49.478 372.800,49.512 372.575,49.347 372.300 C 49.117 371.917,49.194 371.920,49.680 372.313 C 50.498 372.975,53.599 372.788,53.599 372.076 C 53.600 371.788,53.783 371.666,54.007 371.804 C 54.230 371.942,54.309 372.223,54.182 372.429 C 54.055 372.634,54.367 372.734,54.876 372.651 C 56.154 372.443,56.841 373.096,56.553 374.246 C 56.420 374.774,56.492 375.200,56.712 375.200 C 56.932 375.200,57.086 375.515,57.056 375.900 C 57.021 376.339,57.261 376.579,57.700 376.544 C 58.085 376.514,58.400 376.629,58.400 376.801 C 58.400 376.972,59.795 377.121,61.500 377.131 C 63.205 377.141,65.721 377.160,67.090 377.174 L 69.580 377.200 69.379 378.300 C 68.994 380.410,69.555 380.673,75.264 381.064 C 78.004 381.251,78.347 381.196,78.517 380.537 C 78.685 379.884,78.713 379.879,78.754 380.494 C 78.811 381.355,318.027 381.608,319.062 380.749 C 319.458 380.420,319.600 380.420,319.600 380.751 C 319.600 381.500,321.522 381.273,321.724 380.500 C 321.898 379.833,321.909 379.833,321.954 380.500 C 321.991 381.058,322.371 381.200,323.824 381.200 C 325.048 381.200,325.558 381.055,325.375 380.760 C 325.179 380.443,325.326 380.439,325.901 380.747 C 326.407 381.018,327.143 381.046,327.919 380.823 C 328.590 380.631,329.239 380.572,329.360 380.694 C 329.673 381.007,330.821 379.983,330.758 379.447 C 330.551 377.690,330.822 377.200,332.000 377.200 C 332.690 377.200,333.203 376.988,333.206 376.700 C 333.211 376.300,333.276 376.300,333.530 376.700 C 334.092 377.586,337.133 377.213,337.326 376.235 C 337.482 375.448,337.494 375.452,337.546 376.300 C 337.602 377.233,340.000 377.714,340.000 376.792 C 340.000 376.562,340.416 376.489,340.955 376.624 C 342.199 376.937,343.647 375.458,343.503 374.022 L 343.400 373.000 347.178 372.884 C 351.559 372.749,352.000 372.503,352.000 370.188 C 352.000 368.675,352.093 368.499,352.795 368.683 C 355.133 369.294,356.326 368.504,356.261 366.389 C 356.197 364.295,356.277 364.218,358.345 364.390 C 358.937 364.440,359.190 364.307,359.021 364.035 C 358.874 363.796,358.943 363.600,359.176 363.600 C 359.409 363.600,359.600 363.780,359.600 364.000 C 359.600 364.220,359.780 364.400,360.000 364.400 C 360.220 364.400,360.400 364.040,360.400 363.600 C 360.400 363.160,360.149 362.800,359.843 362.800 C 359.536 362.800,359.166 362.485,359.019 362.100 C 358.805 361.539,358.852 361.499,359.256 361.900 C 360.061 362.699,360.353 362.487,360.193 361.222 C 360.054 360.124,360.124 360.054,361.222 360.193 C 362.487 360.353,362.699 360.061,361.900 359.256 C 361.499 358.852,361.539 358.805,362.100 359.019 C 362.485 359.166,362.800 359.536,362.800 359.843 C 362.800 360.149,363.160 360.400,363.600 360.400 C 364.040 360.400,364.400 360.220,364.400 360.000 C 364.400 359.780,364.220 359.600,364.000 359.600 C 363.780 359.600,363.600 359.409,363.600 359.176 C 363.600 358.943,363.796 358.874,364.035 359.021 C 364.307 359.190,364.440 358.937,364.390 358.345 C 364.254 356.710,364.379 356.400,365.172 356.400 C 365.655 356.400,366.009 356.063,366.118 355.500 L 366.291 354.600 366.346 355.525 C 366.388 356.243,366.602 356.422,367.300 356.325 C 368.711 356.129,369.341 354.200,368.100 353.876 C 367.433 353.702,367.433 353.691,368.100 353.646 C 368.518 353.619,368.800 353.278,368.800 352.800 C 368.800 352.140,369.067 352.000,370.320 352.000 C 372.355 352.000,372.800 351.440,372.800 348.877 C 372.800 347.119,372.688 346.757,372.200 346.945 C 371.870 347.071,371.600 347.001,371.600 346.787 C 371.600 346.574,371.894 346.400,372.253 346.400 C 372.778 346.400,372.865 346.102,372.701 344.876 C 372.501 343.388,372.523 343.357,373.652 343.522 C 374.287 343.616,375.110 343.446,375.480 343.146 C 375.942 342.771,376.059 342.757,375.853 343.100 C 375.688 343.375,375.722 343.600,375.928 343.600 C 377.080 343.600,377.775 334.214,376.674 333.514 C 376.316 333.286,376.322 333.211,376.700 333.206 C 376.988 333.203,377.200 332.690,377.200 332.000 C 377.200 330.822,377.690 330.551,379.447 330.758 C 379.983 330.821,381.007 329.673,380.694 329.360 C 380.572 329.239,380.631 328.590,380.823 327.919 C 381.046 327.143,381.018 326.407,380.747 325.901 C 380.439 325.326,380.443 325.179,380.760 325.375 C 381.055 325.558,381.200 325.056,381.200 323.853 C 381.200 322.480,381.035 322.016,380.500 321.876 C 379.833 321.702,379.833 321.691,380.500 321.646 C 381.282 321.595,381.527 319.600,380.751 319.600 C 380.421 319.600,380.420 319.458,380.746 319.065 C 381.381 318.300,381.381 148.500,380.746 147.736 C 380.417 147.338,380.428 147.200,380.790 147.200 C 381.158 147.200,381.220 146.145,381.041 142.900 C 380.700 136.681,380.522 135.907,379.470 136.037 C 377.701 136.255,377.200 135.982,377.200 134.800 C 377.200 134.110,376.988 133.597,376.700 133.594 C 376.311 133.589,376.308 133.519,376.687 133.278 C 377.258 132.915,377.277 127.200,376.706 127.200 C 376.508 127.200,376.462 126.835,376.604 126.389 C 376.773 125.856,376.604 125.341,376.112 124.889 C 375.700 124.510,375.596 124.357,375.881 124.549 C 376.205 124.767,376.400 124.730,376.400 124.449 C 376.400 124.202,376.265 123.988,376.100 123.972 C 372.829 123.672,372.876 123.739,372.726 119.200 C 372.655 117.049,372.426 115.385,372.200 115.365 C 371.980 115.346,371.504 115.199,371.141 115.038 C 370.779 114.878,370.149 114.803,369.741 114.873 C 369.122 114.979,368.967 114.671,368.800 113.000 L 368.600 111.000 366.289 110.880 C 364.858 110.805,364.073 110.605,364.228 110.355 C 364.366 110.132,364.146 109.559,363.739 109.082 C 363.101 108.333,363.096 108.288,363.700 108.756 C 364.317 109.234,364.400 109.197,364.400 108.449 C 364.400 107.982,364.220 107.600,364.000 107.600 C 363.780 107.600,363.600 107.409,363.600 107.176 C 363.600 106.943,363.780 106.864,364.000 107.000 C 364.220 107.136,364.400 107.057,364.400 106.824 C 364.400 106.591,364.040 106.400,363.600 106.400 C 363.059 106.400,362.800 106.667,362.800 107.224 C 362.800 107.677,362.628 107.941,362.417 107.811 C 362.207 107.681,362.125 107.340,362.235 107.054 C 362.479 106.416,361.126 106.333,360.706 106.961 C 360.459 107.330,360.199 105.670,360.353 104.700 C 360.379 104.535,360.130 104.400,359.800 104.400 C 359.470 104.400,359.200 104.226,359.200 104.013 C 359.200 103.799,359.470 103.729,359.800 103.855 C 360.130 103.982,360.400 103.908,360.400 103.692 C 360.400 103.070,359.318 102.334,358.524 102.417 C 356.602 102.617,356.446 102.466,356.321 100.300 L 356.200 98.200 354.100 98.079 C 352.129 97.966,351.997 97.892,351.954 96.879 C 351.868 94.879,351.801 94.602,351.400 94.595 C 351.180 94.591,350.765 94.439,350.477 94.256 C 350.190 94.074,349.515 94.035,348.977 94.170 L 348.000 94.415 347.968 85.708 C 347.951 80.918,347.964 74.769,347.998 72.042 C 348.044 68.310,347.928 67.001,347.530 66.748 C 347.130 66.495,347.123 66.411,347.500 66.406 C 347.817 66.402,348.000 65.805,348.000 64.776 C 348.000 63.594,347.864 63.229,347.500 63.435 C 347.100 63.661,347.100 63.610,347.500 63.179 C 348.206 62.418,348.120 61.690,347.300 61.476 C 346.642 61.304,346.643 61.290,347.311 61.246 C 348.058 61.198,348.253 56.400,347.508 56.400 C 347.330 56.400,347.294 55.963,347.428 55.429 C 347.787 54.001,347.064 53.036,345.533 52.896 C 344.800 52.830,344.020 52.751,343.800 52.721 C 343.563 52.689,343.400 51.020,343.400 48.634 C 343.400 46.235,343.238 44.587,343.000 44.566 C 342.780 44.547,342.304 44.399,341.941 44.238 C 341.579 44.078,340.949 44.003,340.541 44.073 C 339.922 44.179,339.767 43.871,339.600 42.200 L 339.400 40.200 337.000 39.967 C 335.680 39.839,334.825 39.704,335.100 39.667 C 335.622 39.597,335.789 37.359,335.357 36.233 C 335.058 35.452,333.600 35.390,333.600 36.157 C 333.600 36.464,333.285 36.834,332.900 36.981 C 332.339 37.195,332.299 37.148,332.700 36.744 C 333.464 35.974,333.301 35.659,332.200 35.780 C 331.258 35.884,330.932 35.298,331.153 33.900 C 331.226 33.434,330.614 33.546,330.056 34.100 C 329.652 34.501,329.605 34.461,329.819 33.900 C 329.966 33.515,330.325 33.200,330.618 33.200 C 330.911 33.200,331.123 32.840,331.090 32.400 C 331.022 31.495,329.600 31.263,329.600 32.157 C 329.600 32.464,329.285 32.834,328.900 32.981 C 328.339 33.195,328.299 33.148,328.700 32.744 C 329.341 32.097,329.341 31.547,328.700 31.630 C 327.442 31.793,327.237 31.516,327.121 29.500 L 327.000 27.400 324.900 27.279 C 322.929 27.166,322.797 27.092,322.754 26.079 C 322.668 24.079,322.601 23.802,322.200 23.795 C 321.980 23.791,321.620 23.675,321.400 23.538 C 320.480 22.964,317.651 23.243,317.471 23.925 C 317.308 24.542,317.289 24.543,317.246 23.936 C 317.207 23.366,316.703 23.281,313.700 23.336 L 310.200 23.400 310.344 21.651 C 310.523 19.479,310.251 19.298,306.723 19.244 C 304.609 19.212,304.025 19.320,304.254 19.701 C 304.493 20.099,304.429 20.099,303.940 19.703 C 302.831 18.806,78.909 19.014,78.673 19.913 C 78.509 20.539,78.489 20.537,78.446 19.886 C 78.397 19.129,70.800 18.897,70.800 19.652 M72.167 20.747 C 72.285 20.937,72.043 21.399,71.630 21.773 C 71.031 22.315,70.818 22.346,70.576 21.926 C 70.408 21.637,70.419 21.533,70.599 21.697 C 71.015 22.073,72.066 21.230,71.772 20.755 C 71.651 20.560,71.643 20.400,71.753 20.400 C 71.863 20.400,72.049 20.556,72.167 20.747 M148.047 48.900 C 148.073 49.395,148.066 50.025,148.030 50.300 C 147.994 50.575,148.153 50.800,148.382 50.800 C 148.612 50.800,148.755 51.025,148.700 51.300 C 148.624 51.678,150.012 51.823,154.396 51.894 C 160.774 51.998,161.296 52.085,160.950 52.985 C 160.798 53.381,160.943 53.600,161.357 53.600 C 161.711 53.600,162.000 53.774,162.000 53.987 C 162.000 54.201,161.759 54.283,161.466 54.170 C 161.101 54.030,160.963 54.256,161.032 54.882 C 161.088 55.387,161.148 55.949,161.167 56.131 C 161.185 56.312,161.965 56.405,162.900 56.336 C 164.491 56.220,164.608 56.282,164.727 57.306 C 164.806 57.990,165.105 58.417,165.527 58.446 C 166.084 58.485,166.071 58.526,165.454 58.685 C 164.830 58.845,164.752 59.115,164.980 60.338 C 165.129 61.142,165.307 62.160,165.375 62.600 C 165.442 63.040,165.521 63.535,165.549 63.700 C 165.577 63.865,165.802 64.000,166.049 64.000 C 166.330 64.000,166.367 63.805,166.149 63.481 C 165.957 63.196,166.110 63.300,166.489 63.712 C 166.942 64.205,167.456 64.373,167.991 64.203 C 168.928 63.905,169.138 64.289,169.303 66.600 C 169.365 67.480,169.623 68.200,169.875 68.200 C 170.127 68.200,170.468 68.335,170.633 68.500 C 171.341 69.208,172.091 68.788,171.900 67.790 C 171.794 67.235,171.891 66.667,172.115 66.529 C 172.340 66.390,172.415 66.452,172.282 66.667 C 172.150 66.882,172.291 67.540,172.598 68.130 C 172.904 68.720,173.209 69.967,173.277 70.902 L 173.400 72.600 175.300 72.722 C 176.671 72.810,177.200 73.011,177.200 73.446 C 177.200 73.776,177.368 73.944,177.572 73.817 C 177.777 73.691,178.061 73.774,178.202 74.003 C 178.344 74.232,178.221 74.370,177.930 74.310 C 177.570 74.235,177.387 74.682,177.359 75.700 C 177.336 76.525,177.466 77.200,177.649 77.200 C 177.831 77.200,177.890 77.695,177.779 78.300 C 177.510 79.772,178.043 80.463,179.584 80.643 C 181.331 80.846,181.600 81.073,181.600 82.344 C 181.600 82.947,181.825 83.682,182.100 83.979 C 182.500 84.410,182.500 84.461,182.100 84.235 C 181.825 84.080,181.600 84.122,181.600 84.328 C 181.600 84.927,183.861 85.698,184.771 85.409 C 185.512 85.174,185.605 85.318,185.650 86.773 C 185.678 87.668,185.722 88.625,185.750 88.900 C 185.784 89.236,186.551 89.400,188.088 89.400 C 190.365 89.400,190.375 89.405,190.182 90.502 C 190.058 91.203,190.154 91.567,190.444 91.502 C 190.695 91.446,190.983 91.625,191.083 91.900 C 191.192 92.197,191.043 92.315,190.718 92.190 C 190.291 92.026,190.173 92.480,190.189 94.225 C 190.211 96.666,191.065 97.829,192.552 97.443 C 193.495 97.198,194.477 98.133,194.156 98.970 C 194.023 99.317,194.053 99.915,194.223 100.300 C 194.392 100.685,194.546 101.176,194.565 101.392 C 194.584 101.607,195.311 101.838,196.180 101.905 C 198.085 102.051,198.043 102.014,198.086 103.559 C 198.106 104.242,198.274 104.800,198.461 104.800 C 198.647 104.800,198.755 105.025,198.700 105.300 C 198.645 105.575,198.825 105.755,199.100 105.700 C 199.375 105.645,199.600 105.788,199.600 106.018 C 199.600 106.247,199.825 106.406,200.100 106.370 C 201.757 106.155,202.873 106.432,202.654 107.004 C 202.348 107.800,202.806 110.044,203.221 109.787 C 203.399 109.677,203.652 109.760,203.783 109.972 C 204.187 110.626,207.193 110.317,207.246 109.615 C 207.281 109.151,207.338 109.171,207.476 109.700 C 207.621 110.257,208.097 110.400,209.806 110.400 C 210.987 110.400,212.058 110.571,212.187 110.779 C 212.316 110.988,212.059 111.088,211.617 111.003 C 210.772 110.841,210.664 111.624,211.373 112.762 C 211.613 113.146,211.578 113.234,211.262 113.038 C 210.975 112.861,210.800 113.039,210.800 113.510 C 210.800 114.337,212.004 114.572,212.494 113.839 C 212.690 113.546,212.790 113.582,212.794 113.949 C 212.799 114.414,212.903 114.414,213.477 113.949 C 213.937 113.576,214.057 113.560,213.853 113.900 C 213.688 114.175,213.743 114.400,213.976 114.400 C 214.209 114.400,214.421 114.085,214.446 113.700 C 214.490 113.043,214.504 113.043,214.677 113.709 C 214.838 114.326,215.335 114.412,218.531 114.375 C 220.549 114.352,238.400 114.348,258.200 114.367 L 294.200 114.400 294.238 116.205 C 294.260 117.198,294.370 118.103,294.483 118.216 C 295.093 118.826,310.000 118.834,310.000 118.224 C 310.000 117.881,310.180 117.600,310.400 117.600 C 310.620 117.600,310.800 117.870,310.800 118.200 C 310.800 118.573,311.178 118.800,311.800 118.800 C 312.350 118.800,312.803 118.575,312.806 118.300 C 312.811 117.920,312.885 117.915,313.116 118.277 C 313.322 118.601,314.941 118.759,318.168 118.769 C 323.534 118.786,323.239 118.694,323.287 120.373 C 323.306 121.064,323.478 121.725,323.668 121.842 C 323.858 121.959,323.904 122.232,323.770 122.449 C 323.614 122.700,325.025 122.794,327.681 122.708 L 331.836 122.574 331.672 123.691 C 331.582 124.305,331.754 125.110,332.054 125.480 C 332.429 125.942,332.443 126.059,332.100 125.853 C 331.825 125.688,331.600 125.722,331.600 125.928 C 331.600 126.530,333.651 127.148,335.600 127.132 C 336.590 127.124,337.985 127.136,338.700 127.159 L 340.000 127.200 340.000 130.320 C 340.000 132.262,340.189 133.643,340.500 133.979 C 340.900 134.410,340.900 134.461,340.500 134.235 C 340.225 134.080,340.000 134.115,340.000 134.312 C 340.000 134.875,342.012 135.650,342.812 135.396 C 343.871 135.060,344.086 135.712,344.076 139.228 C 344.071 140.969,344.235 142.498,344.440 142.625 C 344.645 142.751,344.701 143.037,344.563 143.260 C 344.404 143.517,345.054 143.625,346.347 143.556 C 347.466 143.497,348.521 143.601,348.691 143.788 C 348.861 143.975,348.775 143.999,348.500 143.841 C 348.125 143.625,348.000 144.119,348.000 145.819 C 348.000 147.804,348.087 148.055,348.700 147.842 C 349.339 147.619,349.343 147.643,348.746 148.110 C 347.322 149.223,347.840 172.800,349.288 172.800 C 349.485 172.800,349.512 172.575,349.347 172.300 C 349.141 171.957,349.258 171.971,349.720 172.346 C 350.090 172.646,350.889 172.819,351.496 172.730 L 352.600 172.568 352.497 233.043 C 352.410 284.804,352.312 293.679,351.818 294.631 C 351.501 295.242,351.350 295.918,351.482 296.133 C 351.615 296.348,351.540 296.410,351.315 296.271 C 351.091 296.133,350.994 295.565,351.100 295.010 C 351.291 294.012,350.541 293.592,349.833 294.300 C 349.668 294.465,349.323 294.604,349.067 294.610 C 348.810 294.615,348.625 294.930,348.656 295.310 C 348.686 295.689,348.572 296.000,348.402 296.000 C 348.232 296.000,348.064 299.150,348.029 303.000 L 347.966 310.000 348.883 310.054 C 349.777 310.108,349.778 310.113,348.931 310.278 C 347.905 310.478,347.534 316.656,348.510 317.276 C 348.894 317.520,348.892 317.589,348.500 317.594 C 348.148 317.598,348.000 318.430,348.000 320.400 C 348.000 322.669,347.882 323.200,347.376 323.200 C 347.025 323.200,346.871 323.392,347.025 323.640 C 347.208 323.936,347.009 323.926,346.415 323.608 C 344.686 322.683,344.038 323.938,344.125 328.040 L 344.200 331.601 342.549 331.600 C 340.222 331.600,339.934 332.135,340.035 336.272 L 340.121 339.800 336.382 339.916 C 332.098 340.049,331.600 340.313,331.600 342.449 L 331.600 344.000 328.500 344.047 C 326.795 344.073,325.204 344.072,324.964 344.045 C 323.996 343.933,323.109 345.483,323.608 346.415 C 323.926 347.009,323.936 347.208,323.640 347.025 C 323.392 346.871,323.200 347.025,323.200 347.376 C 323.200 347.858,322.745 348.000,321.200 348.000 C 319.870 348.000,319.198 348.167,319.194 348.500 C 319.189 348.865,319.108 348.875,318.894 348.539 C 318.545 347.992,296.000 347.831,296.000 348.376 C 296.000 348.560,295.689 348.686,295.310 348.656 C 294.930 348.625,294.599 348.780,294.575 349.000 C 294.551 349.220,294.399 349.696,294.238 350.059 C 294.078 350.421,294.003 351.051,294.073 351.459 C 294.196 352.179,291.493 352.200,200.200 352.200 L 106.200 352.200 106.329 351.100 C 106.399 350.495,106.284 350.000,106.073 350.000 C 105.862 350.000,105.714 349.685,105.744 349.300 C 105.779 348.861,105.539 348.621,105.100 348.656 C 104.715 348.686,104.400 348.558,104.400 348.370 C 104.400 347.805,83.477 347.954,83.117 348.521 C 82.884 348.887,82.811 348.882,82.806 348.500 C 82.802 348.148,81.970 348.000,80.000 348.000 C 77.623 348.000,77.191 347.894,77.141 347.300 C 77.108 346.915,77.045 346.330,77.000 346.000 C 76.955 345.670,76.892 345.196,76.859 344.947 C 76.774 344.298,75.438 344.035,74.602 344.503 C 74.074 344.799,73.967 344.777,74.188 344.419 C 74.413 344.055,73.787 343.971,71.643 344.075 C 68.855 344.210,68.608 344.106,68.780 342.859 C 68.821 342.561,68.722 342.021,68.562 341.659 C 68.401 341.296,68.254 340.820,68.235 340.600 C 68.215 340.370,66.615 340.171,64.465 340.132 C 59.991 340.050,60.433 340.432,60.351 336.576 C 60.314 334.829,60.085 333.147,59.842 332.839 C 59.599 332.530,59.448 332.170,59.508 332.040 C 59.567 331.909,58.946 331.751,58.128 331.688 C 56.262 331.545,56.446 331.938,56.367 327.926 C 56.279 323.467,56.186 323.351,52.600 323.228 C 51.814 323.201,51.801 322.953,51.883 309.389 C 51.981 293.075,52.229 294.417,49.100 294.320 L 48.000 294.285 48.000 200.135 L 48.000 105.985 49.000 106.236 C 49.639 106.396,50.000 106.318,50.000 106.020 C 50.000 105.763,50.188 105.669,50.418 105.811 C 51.431 106.437,51.857 105.152,51.955 101.170 C 52.036 97.902,51.953 97.180,51.528 97.436 C 51.116 97.684,51.100 97.627,51.456 97.177 C 52.182 96.258,52.162 90.000,51.433 90.000 C 50.647 90.000,50.271 89.327,50.855 88.966 C 51.148 88.785,51.216 88.850,51.038 89.138 C 50.871 89.409,51.001 89.600,51.354 89.600 C 51.863 89.600,51.952 88.679,51.935 83.576 C 51.913 76.881,51.843 77.162,53.559 77.114 C 54.242 77.094,54.800 76.926,54.800 76.739 C 54.800 76.553,55.025 76.445,55.300 76.500 C 55.575 76.555,55.755 76.375,55.700 76.100 C 55.645 75.825,55.747 75.600,55.927 75.600 C 56.107 75.600,56.278 74.160,56.306 72.400 C 56.339 70.287,56.206 69.200,55.912 69.200 C 54.643 69.200,56.228 68.682,57.824 68.576 C 60.315 68.409,60.251 68.586,60.380 61.500 C 60.397 60.592,60.578 60.400,61.424 60.400 C 61.987 60.400,62.344 60.232,62.217 60.028 C 62.091 59.823,62.174 59.539,62.403 59.398 C 62.632 59.256,62.770 59.379,62.710 59.670 C 62.589 60.253,64.855 60.494,67.057 60.133 C 68.429 59.908,69.150 58.201,68.436 56.867 C 68.113 56.265,68.443 56.205,71.839 56.254 C 73.908 56.283,75.600 56.148,75.600 55.954 C 75.600 55.759,75.825 55.645,76.100 55.700 C 76.375 55.755,76.555 55.575,76.500 55.300 C 76.445 55.025,76.553 54.800,76.739 54.800 C 76.926 54.800,77.094 54.242,77.114 53.559 C 77.133 52.876,77.223 52.243,77.314 52.153 C 77.405 52.062,83.706 51.977,91.316 51.964 C 105.432 51.939,106.670 51.807,105.811 50.418 C 105.669 50.188,105.763 50.000,106.020 50.000 C 106.318 50.000,106.396 49.639,106.236 49.000 L 105.985 48.000 126.992 48.000 L 148.000 48.000 148.047 48.900 M286.047 48.900 C 286.073 49.395,286.067 50.017,286.034 50.282 C 285.864 51.633,287.653 51.949,295.066 51.874 C 301.660 51.807,302.373 51.866,302.779 52.516 C 303.025 52.909,303.428 53.106,303.675 52.954 C 303.942 52.789,304.012 52.856,303.849 53.121 C 303.698 53.365,303.310 53.464,302.987 53.340 C 302.317 53.083,302.157 54.203,302.807 54.604 C 303.030 54.742,303.115 55.014,302.995 55.208 C 302.624 55.808,304.116 56.326,306.204 56.319 C 307.302 56.316,308.830 56.332,309.600 56.356 L 311.000 56.398 310.868 59.419 C 310.776 61.509,310.899 62.643,311.268 63.097 C 311.650 63.568,311.659 63.669,311.300 63.453 C 311.025 63.288,310.800 63.324,310.800 63.534 C 310.800 64.064,311.820 64.400,313.433 64.400 L 314.800 64.400 314.805 68.500 C 314.812 73.196,315.017 74.287,315.941 74.532 C 316.360 74.643,316.252 74.724,315.646 74.754 C 314.737 74.798,314.705 74.890,314.982 76.700 C 315.142 77.745,315.281 78.870,315.291 79.200 C 315.318 80.098,316.056 80.864,316.668 80.629 C 318.246 80.024,319.200 81.101,319.200 83.490 L 319.200 85.800 275.126 85.692 C 250.885 85.633,230.984 85.517,230.900 85.434 C 230.817 85.350,230.733 84.727,230.714 84.048 C 230.672 82.570,229.642 81.524,228.344 81.640 C 227.825 81.686,226.365 81.696,225.100 81.662 L 222.800 81.600 222.800 80.033 C 222.800 77.539,222.532 77.200,220.557 77.200 C 219.591 77.200,218.792 77.065,218.782 76.900 C 218.649 74.609,218.417 71.996,218.277 71.200 C 218.181 70.650,218.079 70.065,218.051 69.900 C 218.023 69.735,217.798 69.600,217.551 69.600 C 217.270 69.600,217.233 69.795,217.451 70.119 C 217.643 70.404,217.490 70.300,217.111 69.888 C 216.658 69.395,216.144 69.227,215.609 69.397 C 214.672 69.695,214.462 69.311,214.297 67.000 C 214.235 66.120,214.007 65.384,213.792 65.365 C 213.576 65.346,213.104 65.199,212.741 65.038 C 212.379 64.878,211.749 64.803,211.341 64.873 C 210.722 64.979,210.567 64.671,210.400 63.000 L 210.200 61.000 208.300 60.878 C 206.929 60.790,206.400 60.589,206.400 60.154 C 206.400 59.824,206.232 59.656,206.028 59.783 C 205.823 59.909,205.539 59.826,205.398 59.597 C 205.256 59.368,205.379 59.230,205.670 59.290 C 206.030 59.365,206.213 58.918,206.241 57.900 C 206.264 57.075,206.134 56.400,205.951 56.400 C 205.769 56.400,205.710 55.905,205.821 55.300 C 206.090 53.828,205.557 53.137,204.016 52.957 C 202.269 52.754,202.000 52.527,202.000 51.256 C 202.000 50.653,201.775 49.918,201.500 49.621 C 201.100 49.190,201.100 49.139,201.500 49.365 C 201.775 49.520,202.000 49.484,202.000 49.285 C 202.000 49.085,201.595 48.727,201.100 48.488 C 200.447 48.173,211.952 48.047,243.100 48.027 L 286.000 48.000 286.047 48.900 M289.200 50.551 C 289.200 50.786,288.918 50.575,288.573 50.082 C 288.228 49.590,287.750 49.307,287.511 49.455 C 287.243 49.621,287.192 49.536,287.378 49.236 C 287.714 48.692,289.200 49.765,289.200 50.551 M30.538 52.700 C 30.640 52.865,30.292 53.026,29.764 53.058 C 29.237 53.089,28.905 52.954,29.026 52.758 C 29.295 52.323,30.282 52.285,30.538 52.700 M307.041 52.900 C 307.199 53.175,307.181 53.267,307.001 53.103 C 306.821 52.940,306.477 52.963,306.237 53.154 C 305.989 53.351,305.454 53.346,305.000 53.142 C 304.263 52.812,304.271 52.797,305.100 52.954 C 305.594 53.048,306.100 52.962,306.223 52.762 C 306.524 52.276,306.698 52.306,307.041 52.900 M346.089 54.945 C 346.357 54.779,346.408 54.864,346.222 55.164 C 345.886 55.708,344.400 54.635,344.400 53.849 C 344.400 53.614,344.682 53.825,345.027 54.318 C 345.372 54.810,345.850 55.093,346.089 54.945 M314.236 61.363 C 314.287 61.711,314.043 61.832,313.549 61.703 C 312.943 61.544,312.880 61.386,313.249 60.941 C 313.748 60.340,314.108 60.494,314.236 61.363 M22.167 70.747 C 22.285 70.937,22.043 71.399,21.630 71.773 C 21.031 72.315,20.818 72.346,20.576 71.926 C 20.408 71.637,20.419 71.533,20.599 71.697 C 21.015 72.073,22.066 71.230,21.772 70.755 C 21.651 70.560,21.643 70.400,21.753 70.400 C 21.863 70.400,22.049 70.556,22.167 70.747 M318.400 79.751 C 318.400 79.986,318.118 79.775,317.773 79.282 C 317.428 78.790,316.950 78.507,316.711 78.655 C 316.443 78.821,316.392 78.736,316.578 78.436 C 316.914 77.892,318.400 78.965,318.400 79.751 M185.395 82.408 C 185.287 82.582,184.836 82.630,184.391 82.514 C 183.753 82.347,183.680 82.186,184.045 81.746 C 184.537 81.153,185.791 81.767,185.395 82.408 M192.400 93.138 C 192.400 93.298,192.050 93.429,191.622 93.429 C 191.037 93.429,190.949 93.302,191.267 92.919 C 191.681 92.420,192.400 92.560,192.400 93.138 M213.506 112.152 C 213.125 112.442,212.900 112.766,213.006 112.873 C 213.113 112.979,212.930 113.067,212.600 113.067 C 211.696 113.067,211.880 112.423,212.900 112.012 C 214.158 111.507,214.310 111.542,213.506 112.152 M378.617 137.573 C 378.490 137.778,378.790 138.228,379.282 138.573 C 379.775 138.918,379.986 139.200,379.751 139.200 C 379.150 139.200,377.942 137.791,378.266 137.468 C 378.659 137.075,378.883 137.142,378.617 137.573 M352.689 168.100 C 352.601 168.815,352.528 168.230,352.528 166.800 C 352.528 165.370,352.601 164.785,352.689 165.500 C 352.778 166.215,352.778 167.385,352.689 168.100 M352.198 169.665 C 352.320 169.786,352.167 170.095,351.859 170.351 C 351.414 170.720,351.256 170.657,351.097 170.051 C 350.910 169.335,351.619 169.086,352.198 169.665 M351.948 297.462 C 351.707 297.753,351.347 297.891,351.148 297.768 C 350.645 297.457,351.039 296.933,351.776 296.933 C 352.238 296.933,352.280 297.063,351.948 297.462 M352.690 301.293 C 352.601 302.012,352.526 301.520,352.524 300.200 C 352.522 298.880,352.595 298.292,352.686 298.893 C 352.777 299.494,352.779 300.574,352.690 301.293 M343.560 335.049 C 342.951 335.782,342.426 335.387,342.686 334.391 C 342.853 333.753,343.014 333.680,343.454 334.045 C 343.872 334.392,343.898 334.640,343.560 335.049 M335.266 343.294 C 335.044 343.516,334.968 343.991,335.098 344.349 C 335.227 344.707,334.957 344.550,334.499 344.000 C 333.746 343.098,333.730 342.976,334.332 342.750 C 335.195 342.427,335.787 342.773,335.266 343.294 M52.504 370.017 C 52.777 370.330,52.837 370.456,52.637 370.297 C 52.437 370.137,52.054 370.189,51.786 370.412 C 51.435 370.703,51.241 370.601,51.097 370.051 C 50.863 369.155,51.735 369.134,52.504 370.017 M60.173 373.570 C 60.835 374.301,60.835 374.334,60.168 374.236 C 59.782 374.180,59.422 373.833,59.369 373.467 C 59.244 372.620,59.322 372.630,60.173 373.570 " stroke="none" fill="#9ca4ac" fill-rule="evenodd"></path><path id="path1" d="M98.700 19.489 C 99.415 19.578,100.585 19.578,101.300 19.489 C 102.015 19.401,101.430 19.328,100.000 19.328 C 98.570 19.328,97.985 19.401,98.700 19.489 M71.772 20.755 C 72.066 21.230,71.015 22.073,70.599 21.697 C 70.419 21.533,70.408 21.637,70.576 21.926 C 70.818 22.346,71.031 22.315,71.630 21.773 C 72.283 21.182,72.352 20.400,71.753 20.400 C 71.643 20.400,71.651 20.560,71.772 20.755 M287.378 49.236 C 287.192 49.536,287.243 49.621,287.511 49.455 C 287.750 49.307,288.228 49.590,288.573 50.082 C 288.918 50.575,289.200 50.786,289.200 50.551 C 289.200 49.765,287.714 48.692,287.378 49.236 M27.735 52.974 C 27.856 53.290,27.740 53.636,27.478 53.743 C 27.215 53.849,27.427 53.951,27.949 53.968 C 28.699 53.993,28.805 53.887,28.452 53.463 C 28.207 53.168,28.125 52.808,28.270 52.663 C 28.415 52.518,28.304 52.400,28.024 52.400 C 27.744 52.400,27.614 52.658,27.735 52.974 M29.026 52.758 C 28.905 52.954,29.237 53.089,29.764 53.058 C 30.292 53.026,30.640 52.865,30.538 52.700 C 30.282 52.285,29.295 52.323,29.026 52.758 M306.223 52.762 C 306.100 52.962,305.594 53.048,305.100 52.954 C 304.271 52.797,304.263 52.812,305.000 53.142 C 305.454 53.346,305.989 53.351,306.237 53.154 C 306.477 52.963,306.821 52.940,307.001 53.103 C 307.181 53.267,307.199 53.175,307.041 52.900 C 306.698 52.306,306.524 52.276,306.223 52.762 M344.400 53.849 C 344.400 54.635,345.886 55.708,346.222 55.164 C 346.408 54.864,346.357 54.779,346.089 54.945 C 345.850 55.093,345.372 54.810,345.027 54.318 C 344.682 53.825,344.400 53.614,344.400 53.849 M313.249 60.941 C 312.880 61.386,312.943 61.544,313.549 61.703 C 314.043 61.832,314.287 61.711,314.236 61.363 C 314.108 60.494,313.748 60.340,313.249 60.941 M171.924 66.609 C 171.606 66.927,172.045 68.800,172.437 68.800 C 172.626 68.800,172.616 68.369,172.416 67.841 C 172.215 67.314,172.160 66.774,172.292 66.641 C 172.425 66.509,172.443 66.400,172.333 66.400 C 172.223 66.400,172.039 66.494,171.924 66.609 M21.772 70.755 C 22.066 71.230,21.015 72.073,20.599 71.697 C 20.419 71.533,20.408 71.637,20.576 71.926 C 20.818 72.346,21.031 72.315,21.630 71.773 C 22.283 71.182,22.352 70.400,21.753 70.400 C 21.643 70.400,21.651 70.560,21.772 70.755 M314.846 73.900 C 314.811 74.593,315.007 74.789,315.700 74.754 C 316.338 74.721,316.403 74.655,315.925 74.529 C 315.553 74.431,315.169 74.047,315.071 73.675 C 314.945 73.197,314.879 73.262,314.846 73.900 M316.578 78.436 C 316.392 78.736,316.443 78.821,316.711 78.655 C 316.950 78.507,317.428 78.790,317.773 79.282 C 318.118 79.775,318.400 79.986,318.400 79.751 C 318.400 78.965,316.914 77.892,316.578 78.436 M184.045 81.746 C 183.680 82.186,183.753 82.347,184.391 82.514 C 185.387 82.774,185.782 82.249,185.049 81.640 C 184.640 81.302,184.392 81.328,184.045 81.746 M191.267 92.919 C 190.949 93.302,191.037 93.429,191.622 93.429 C 192.433 93.429,192.657 93.006,192.045 92.628 C 191.850 92.507,191.500 92.638,191.267 92.919 M212.900 112.012 C 211.880 112.423,211.696 113.067,212.600 113.067 C 212.930 113.067,213.113 112.979,213.006 112.873 C 212.900 112.766,213.125 112.442,213.506 112.152 C 214.310 111.542,214.158 111.507,212.900 112.012 M310.000 118.200 C 310.000 118.530,310.180 118.800,310.400 118.800 C 310.620 118.800,310.800 118.530,310.800 118.200 C 310.800 117.870,310.620 117.600,310.400 117.600 C 310.180 117.600,310.000 117.870,310.000 118.200 M298.291 118.689 C 299.001 118.777,300.261 118.779,301.091 118.692 C 301.921 118.605,301.340 118.533,299.800 118.531 C 298.260 118.529,297.581 118.600,298.291 118.689 M378.266 137.468 C 377.942 137.791,379.150 139.200,379.751 139.200 C 379.986 139.200,379.775 138.918,379.282 138.573 C 378.790 138.228,378.490 137.778,378.617 137.573 C 378.883 137.142,378.659 137.075,378.266 137.468 M352.528 166.800 C 352.528 168.230,352.601 168.815,352.689 168.100 C 352.778 167.385,352.778 166.215,352.689 165.500 C 352.601 164.785,352.528 165.370,352.528 166.800 M351.097 170.051 C 351.256 170.657,351.414 170.720,351.859 170.351 C 352.460 169.852,352.306 169.492,351.437 169.364 C 351.089 169.313,350.968 169.557,351.097 170.051 M351.100 295.010 C 350.994 295.565,351.108 296.134,351.354 296.274 C 351.599 296.414,351.676 296.391,351.526 296.223 C 351.375 296.055,351.415 295.486,351.616 294.959 C 351.816 294.431,351.826 294.000,351.637 294.000 C 351.448 294.000,351.206 294.454,351.100 295.010 M350.976 297.239 C 350.630 297.799,351.502 298.000,351.948 297.462 C 352.280 297.063,352.238 296.933,351.776 296.933 C 351.440 296.933,351.080 297.071,350.976 297.239 M19.328 300.400 C 19.328 301.830,19.401 302.415,19.489 301.700 C 19.578 300.985,19.578 299.815,19.489 299.100 C 19.401 298.385,19.328 298.970,19.328 300.400 M352.524 300.200 C 352.526 301.520,352.601 302.012,352.690 301.293 C 352.779 300.574,352.777 299.494,352.686 298.893 C 352.595 298.292,352.522 298.880,352.524 300.200 M342.686 334.391 C 342.426 335.387,342.951 335.782,343.560 335.049 C 343.898 334.640,343.872 334.392,343.454 334.045 C 343.014 333.680,342.853 333.753,342.686 334.391 M334.332 342.750 C 333.730 342.976,333.746 343.098,334.499 344.000 C 334.957 344.550,335.227 344.707,335.098 344.349 C 334.968 343.991,335.044 343.516,335.266 343.294 C 335.787 342.773,335.195 342.427,334.332 342.750 M51.097 370.051 C 51.241 370.601,51.435 370.703,51.786 370.412 C 52.054 370.189,52.437 370.137,52.637 370.297 C 52.837 370.456,52.777 370.330,52.504 370.017 C 51.735 369.134,50.863 369.155,51.097 370.051 M59.369 373.467 C 59.422 373.833,59.782 374.180,60.168 374.236 C 60.835 374.334,60.835 374.301,60.173 373.570 C 59.322 372.630,59.244 372.620,59.369 373.467 " stroke="none" fill="#a0a4ac" fill-rule="evenodd"></path><path id="path2" d="M98.700 19.489 C 99.415 19.578,100.585 19.578,101.300 19.489 C 102.015 19.401,101.430 19.328,100.000 19.328 C 98.570 19.328,97.985 19.401,98.700 19.489 M71.772 20.755 C 72.066 21.230,71.015 22.073,70.599 21.697 C 70.419 21.533,70.408 21.637,70.576 21.926 C 70.818 22.346,71.031 22.315,71.630 21.773 C 72.283 21.182,72.352 20.400,71.753 20.400 C 71.643 20.400,71.651 20.560,71.772 20.755 M287.378 49.236 C 287.192 49.536,287.243 49.621,287.511 49.455 C 287.750 49.307,288.228 49.590,288.573 50.082 C 288.918 50.575,289.200 50.786,289.200 50.551 C 289.200 49.765,287.714 48.692,287.378 49.236 M27.735 52.974 C 27.856 53.290,27.740 53.636,27.478 53.743 C 27.215 53.849,27.427 53.951,27.949 53.968 C 28.699 53.993,28.805 53.887,28.452 53.463 C 28.207 53.168,28.125 52.808,28.270 52.663 C 28.415 52.518,28.304 52.400,28.024 52.400 C 27.744 52.400,27.614 52.658,27.735 52.974 M29.026 52.758 C 28.905 52.954,29.237 53.089,29.764 53.058 C 30.292 53.026,30.640 52.865,30.538 52.700 C 30.282 52.285,29.295 52.323,29.026 52.758 M306.223 52.762 C 306.100 52.962,305.594 53.048,305.100 52.954 C 304.271 52.797,304.263 52.812,305.000 53.142 C 305.454 53.346,305.989 53.351,306.237 53.154 C 306.477 52.963,306.821 52.940,307.001 53.103 C 307.181 53.267,307.199 53.175,307.041 52.900 C 306.698 52.306,306.524 52.276,306.223 52.762 M344.400 53.849 C 344.400 54.635,345.886 55.708,346.222 55.164 C 346.408 54.864,346.357 54.779,346.089 54.945 C 345.850 55.093,345.372 54.810,345.027 54.318 C 344.682 53.825,344.400 53.614,344.400 53.849 M313.249 60.941 C 312.880 61.386,312.943 61.544,313.549 61.703 C 314.043 61.832,314.287 61.711,314.236 61.363 C 314.108 60.494,313.748 60.340,313.249 60.941 M171.924 66.609 C 171.606 66.927,172.045 68.800,172.437 68.800 C 172.626 68.800,172.616 68.369,172.416 67.841 C 172.215 67.314,172.160 66.774,172.292 66.641 C 172.425 66.509,172.443 66.400,172.333 66.400 C 172.223 66.400,172.039 66.494,171.924 66.609 M21.772 70.755 C 22.066 71.230,21.015 72.073,20.599 71.697 C 20.419 71.533,20.408 71.637,20.576 71.926 C 20.818 72.346,21.031 72.315,21.630 71.773 C 22.283 71.182,22.352 70.400,21.753 70.400 C 21.643 70.400,21.651 70.560,21.772 70.755 M314.846 73.900 C 314.811 74.593,315.007 74.789,315.700 74.754 C 316.338 74.721,316.403 74.655,315.925 74.529 C 315.553 74.431,315.169 74.047,315.071 73.675 C 314.945 73.197,314.879 73.262,314.846 73.900 M316.578 78.436 C 316.392 78.736,316.443 78.821,316.711 78.655 C 316.950 78.507,317.428 78.790,317.773 79.282 C 318.118 79.775,318.400 79.986,318.400 79.751 C 318.400 78.965,316.914 77.892,316.578 78.436 M184.045 81.746 C 183.680 82.186,183.753 82.347,184.391 82.514 C 185.387 82.774,185.782 82.249,185.049 81.640 C 184.640 81.302,184.392 81.328,184.045 81.746 M191.267 92.919 C 190.949 93.302,191.037 93.429,191.622 93.429 C 192.433 93.429,192.657 93.006,192.045 92.628 C 191.850 92.507,191.500 92.638,191.267 92.919 M212.900 112.012 C 211.880 112.423,211.696 113.067,212.600 113.067 C 212.930 113.067,213.113 112.979,213.006 112.873 C 212.900 112.766,213.125 112.442,213.506 112.152 C 214.310 111.542,214.158 111.507,212.900 112.012 M310.000 118.200 C 310.000 118.530,310.180 118.800,310.400 118.800 C 310.620 118.800,310.800 118.530,310.800 118.200 C 310.800 117.870,310.620 117.600,310.400 117.600 C 310.180 117.600,310.000 117.870,310.000 118.200 M298.291 118.689 C 299.001 118.777,300.261 118.779,301.091 118.692 C 301.921 118.605,301.340 118.533,299.800 118.531 C 298.260 118.529,297.581 118.600,298.291 118.689 M378.266 137.468 C 377.942 137.791,379.150 139.200,379.751 139.200 C 379.986 139.200,379.775 138.918,379.282 138.573 C 378.790 138.228,378.490 137.778,378.617 137.573 C 378.883 137.142,378.659 137.075,378.266 137.468 M352.528 166.800 C 352.528 168.230,352.601 168.815,352.689 168.100 C 352.778 167.385,352.778 166.215,352.689 165.500 C 352.601 164.785,352.528 165.370,352.528 166.800 M351.097 170.051 C 351.256 170.657,351.414 170.720,351.859 170.351 C 352.460 169.852,352.306 169.492,351.437 169.364 C 351.089 169.313,350.968 169.557,351.097 170.051 M351.100 295.010 C 350.994 295.565,351.108 296.134,351.354 296.274 C 351.599 296.414,351.676 296.391,351.526 296.223 C 351.375 296.055,351.415 295.486,351.616 294.959 C 351.816 294.431,351.826 294.000,351.637 294.000 C 351.448 294.000,351.206 294.454,351.100 295.010 M350.976 297.239 C 350.630 297.799,351.502 298.000,351.948 297.462 C 352.280 297.063,352.238 296.933,351.776 296.933 C 351.440 296.933,351.080 297.071,350.976 297.239 M19.328 300.400 C 19.328 301.830,19.401 302.415,19.489 301.700 C 19.578 300.985,19.578 299.815,19.489 299.100 C 19.401 298.385,19.328 298.970,19.328 300.400 M352.524 300.200 C 352.526 301.520,352.601 302.012,352.690 301.293 C 352.779 300.574,352.777 299.494,352.686 298.893 C 352.595 298.292,352.522 298.880,352.524 300.200 M342.686 334.391 C 342.426 335.387,342.951 335.782,343.560 335.049 C 343.898 334.640,343.872 334.392,343.454 334.045 C 343.014 333.680,342.853 333.753,342.686 334.391 M334.332 342.750 C 333.730 342.976,333.746 343.098,334.499 344.000 C 334.957 344.550,335.227 344.707,335.098 344.349 C 334.968 343.991,335.044 343.516,335.266 343.294 C 335.787 342.773,335.195 342.427,334.332 342.750 M51.097 370.051 C 51.241 370.601,51.435 370.703,51.786 370.412 C 52.054 370.189,52.437 370.137,52.637 370.297 C 52.837 370.456,52.777 370.330,52.504 370.017 C 51.735 369.134,50.863 369.155,51.097 370.051 M59.369 373.467 C 59.422 373.833,59.782 374.180,60.168 374.236 C 60.835 374.334,60.835 374.301,60.173 373.570 C 59.322 372.630,59.244 372.620,59.369 373.467 " stroke="none" fill="#a0a4ac" fill-rule="evenodd"></path><path id="path3" d="M98.700 19.489 C 99.415 19.578,100.585 19.578,101.300 19.489 C 102.015 19.401,101.430 19.328,100.000 19.328 C 98.570 19.328,97.985 19.401,98.700 19.489 M71.772 20.755 C 72.066 21.230,71.015 22.073,70.599 21.697 C 70.419 21.533,70.408 21.637,70.576 21.926 C 70.818 22.346,71.031 22.315,71.630 21.773 C 72.283 21.182,72.352 20.400,71.753 20.400 C 71.643 20.400,71.651 20.560,71.772 20.755 M287.378 49.236 C 287.192 49.536,287.243 49.621,287.511 49.455 C 287.750 49.307,288.228 49.590,288.573 50.082 C 288.918 50.575,289.200 50.786,289.200 50.551 C 289.200 49.765,287.714 48.692,287.378 49.236 M27.735 52.974 C 27.856 53.290,27.740 53.636,27.478 53.743 C 27.215 53.849,27.427 53.951,27.949 53.968 C 28.699 53.993,28.805 53.887,28.452 53.463 C 28.207 53.168,28.125 52.808,28.270 52.663 C 28.415 52.518,28.304 52.400,28.024 52.400 C 27.744 52.400,27.614 52.658,27.735 52.974 M29.026 52.758 C 28.905 52.954,29.237 53.089,29.764 53.058 C 30.292 53.026,30.640 52.865,30.538 52.700 C 30.282 52.285,29.295 52.323,29.026 52.758 M306.223 52.762 C 306.100 52.962,305.594 53.048,305.100 52.954 C 304.271 52.797,304.263 52.812,305.000 53.142 C 305.454 53.346,305.989 53.351,306.237 53.154 C 306.477 52.963,306.821 52.940,307.001 53.103 C 307.181 53.267,307.199 53.175,307.041 52.900 C 306.698 52.306,306.524 52.276,306.223 52.762 M344.400 53.849 C 344.400 54.635,345.886 55.708,346.222 55.164 C 346.408 54.864,346.357 54.779,346.089 54.945 C 345.850 55.093,345.372 54.810,345.027 54.318 C 344.682 53.825,344.400 53.614,344.400 53.849 M313.249 60.941 C 312.880 61.386,312.943 61.544,313.549 61.703 C 314.043 61.832,314.287 61.711,314.236 61.363 C 314.108 60.494,313.748 60.340,313.249 60.941 M171.924 66.609 C 171.606 66.927,172.045 68.800,172.437 68.800 C 172.626 68.800,172.616 68.369,172.416 67.841 C 172.215 67.314,172.160 66.774,172.292 66.641 C 172.425 66.509,172.443 66.400,172.333 66.400 C 172.223 66.400,172.039 66.494,171.924 66.609 M21.772 70.755 C 22.066 71.230,21.015 72.073,20.599 71.697 C 20.419 71.533,20.408 71.637,20.576 71.926 C 20.818 72.346,21.031 72.315,21.630 71.773 C 22.283 71.182,22.352 70.400,21.753 70.400 C 21.643 70.400,21.651 70.560,21.772 70.755 M314.846 73.900 C 314.811 74.593,315.007 74.789,315.700 74.754 C 316.338 74.721,316.403 74.655,315.925 74.529 C 315.553 74.431,315.169 74.047,315.071 73.675 C 314.945 73.197,314.879 73.262,314.846 73.900 M316.578 78.436 C 316.392 78.736,316.443 78.821,316.711 78.655 C 316.950 78.507,317.428 78.790,317.773 79.282 C 318.118 79.775,318.400 79.986,318.400 79.751 C 318.400 78.965,316.914 77.892,316.578 78.436 M184.045 81.746 C 183.680 82.186,183.753 82.347,184.391 82.514 C 185.387 82.774,185.782 82.249,185.049 81.640 C 184.640 81.302,184.392 81.328,184.045 81.746 M191.267 92.919 C 190.949 93.302,191.037 93.429,191.622 93.429 C 192.433 93.429,192.657 93.006,192.045 92.628 C 191.850 92.507,191.500 92.638,191.267 92.919 M212.900 112.012 C 211.880 112.423,211.696 113.067,212.600 113.067 C 212.930 113.067,213.113 112.979,213.006 112.873 C 212.900 112.766,213.125 112.442,213.506 112.152 C 214.310 111.542,214.158 111.507,212.900 112.012 M310.000 118.200 C 310.000 118.530,310.180 118.800,310.400 118.800 C 310.620 118.800,310.800 118.530,310.800 118.200 C 310.800 117.870,310.620 117.600,310.400 117.600 C 310.180 117.600,310.000 117.870,310.000 118.200 M298.291 118.689 C 299.001 118.777,300.261 118.779,301.091 118.692 C 301.921 118.605,301.340 118.533,299.800 118.531 C 298.260 118.529,297.581 118.600,298.291 118.689 M378.266 137.468 C 377.942 137.791,379.150 139.200,379.751 139.200 C 379.986 139.200,379.775 138.918,379.282 138.573 C 378.790 138.228,378.490 137.778,378.617 137.573 C 378.883 137.142,378.659 137.075,378.266 137.468 M352.528 166.800 C 352.528 168.230,352.601 168.815,352.689 168.100 C 352.778 167.385,352.778 166.215,352.689 165.500 C 352.601 164.785,352.528 165.370,352.528 166.800 M351.097 170.051 C 351.256 170.657,351.414 170.720,351.859 170.351 C 352.460 169.852,352.306 169.492,351.437 169.364 C 351.089 169.313,350.968 169.557,351.097 170.051 M351.100 295.010 C 350.994 295.565,351.108 296.134,351.354 296.274 C 351.599 296.414,351.676 296.391,351.526 296.223 C 351.375 296.055,351.415 295.486,351.616 294.959 C 351.816 294.431,351.826 294.000,351.637 294.000 C 351.448 294.000,351.206 294.454,351.100 295.010 M350.976 297.239 C 350.630 297.799,351.502 298.000,351.948 297.462 C 352.280 297.063,352.238 296.933,351.776 296.933 C 351.440 296.933,351.080 297.071,350.976 297.239 M19.328 300.400 C 19.328 301.830,19.401 302.415,19.489 301.700 C 19.578 300.985,19.578 299.815,19.489 299.100 C 19.401 298.385,19.328 298.970,19.328 300.400 M352.524 300.200 C 352.526 301.520,352.601 302.012,352.690 301.293 C 352.779 300.574,352.777 299.494,352.686 298.893 C 352.595 298.292,352.522 298.880,352.524 300.200 M342.686 334.391 C 342.426 335.387,342.951 335.782,343.560 335.049 C 343.898 334.640,343.872 334.392,343.454 334.045 C 343.014 333.680,342.853 333.753,342.686 334.391 M334.332 342.750 C 333.730 342.976,333.746 343.098,334.499 344.000 C 334.957 344.550,335.227 344.707,335.098 344.349 C 334.968 343.991,335.044 343.516,335.266 343.294 C 335.787 342.773,335.195 342.427,334.332 342.750 M51.097 370.051 C 51.241 370.601,51.435 370.703,51.786 370.412 C 52.054 370.189,52.437 370.137,52.637 370.297 C 52.837 370.456,52.777 370.330,52.504 370.017 C 51.735 369.134,50.863 369.155,51.097 370.051 M59.369 373.467 C 59.422 373.833,59.782 374.180,60.168 374.236 C 60.835 374.334,60.835 374.301,60.173 373.570 C 59.322 372.630,59.244 372.620,59.369 373.467 " stroke="none" fill="#a0a4ac" fill-rule="evenodd"></path><path id="path4" d="M98.700 19.489 C 99.415 19.578,100.585 19.578,101.300 19.489 C 102.015 19.401,101.430 19.328,100.000 19.328 C 98.570 19.328,97.985 19.401,98.700 19.489 M71.772 20.755 C 72.066 21.230,71.015 22.073,70.599 21.697 C 70.419 21.533,70.408 21.637,70.576 21.926 C 70.818 22.346,71.031 22.315,71.630 21.773 C 72.283 21.182,72.352 20.400,71.753 20.400 C 71.643 20.400,71.651 20.560,71.772 20.755 M287.378 49.236 C 287.192 49.536,287.243 49.621,287.511 49.455 C 287.750 49.307,288.228 49.590,288.573 50.082 C 288.918 50.575,289.200 50.786,289.200 50.551 C 289.200 49.765,287.714 48.692,287.378 49.236 M27.735 52.974 C 27.856 53.290,27.740 53.636,27.478 53.743 C 27.215 53.849,27.427 53.951,27.949 53.968 C 28.699 53.993,28.805 53.887,28.452 53.463 C 28.207 53.168,28.125 52.808,28.270 52.663 C 28.415 52.518,28.304 52.400,28.024 52.400 C 27.744 52.400,27.614 52.658,27.735 52.974 M29.026 52.758 C 28.905 52.954,29.237 53.089,29.764 53.058 C 30.292 53.026,30.640 52.865,30.538 52.700 C 30.282 52.285,29.295 52.323,29.026 52.758 M306.223 52.762 C 306.100 52.962,305.594 53.048,305.100 52.954 C 304.271 52.797,304.263 52.812,305.000 53.142 C 305.454 53.346,305.989 53.351,306.237 53.154 C 306.477 52.963,306.821 52.940,307.001 53.103 C 307.181 53.267,307.199 53.175,307.041 52.900 C 306.698 52.306,306.524 52.276,306.223 52.762 M344.400 53.849 C 344.400 54.635,345.886 55.708,346.222 55.164 C 346.408 54.864,346.357 54.779,346.089 54.945 C 345.850 55.093,345.372 54.810,345.027 54.318 C 344.682 53.825,344.400 53.614,344.400 53.849 M313.249 60.941 C 312.880 61.386,312.943 61.544,313.549 61.703 C 314.043 61.832,314.287 61.711,314.236 61.363 C 314.108 60.494,313.748 60.340,313.249 60.941 M171.924 66.609 C 171.606 66.927,172.045 68.800,172.437 68.800 C 172.626 68.800,172.616 68.369,172.416 67.841 C 172.215 67.314,172.160 66.774,172.292 66.641 C 172.425 66.509,172.443 66.400,172.333 66.400 C 172.223 66.400,172.039 66.494,171.924 66.609 M21.772 70.755 C 22.066 71.230,21.015 72.073,20.599 71.697 C 20.419 71.533,20.408 71.637,20.576 71.926 C 20.818 72.346,21.031 72.315,21.630 71.773 C 22.283 71.182,22.352 70.400,21.753 70.400 C 21.643 70.400,21.651 70.560,21.772 70.755 M314.846 73.900 C 314.811 74.593,315.007 74.789,315.700 74.754 C 316.338 74.721,316.403 74.655,315.925 74.529 C 315.553 74.431,315.169 74.047,315.071 73.675 C 314.945 73.197,314.879 73.262,314.846 73.900 M316.578 78.436 C 316.392 78.736,316.443 78.821,316.711 78.655 C 316.950 78.507,317.428 78.790,317.773 79.282 C 318.118 79.775,318.400 79.986,318.400 79.751 C 318.400 78.965,316.914 77.892,316.578 78.436 M184.045 81.746 C 183.680 82.186,183.753 82.347,184.391 82.514 C 185.387 82.774,185.782 82.249,185.049 81.640 C 184.640 81.302,184.392 81.328,184.045 81.746 M191.267 92.919 C 190.949 93.302,191.037 93.429,191.622 93.429 C 192.433 93.429,192.657 93.006,192.045 92.628 C 191.850 92.507,191.500 92.638,191.267 92.919 M212.900 112.012 C 211.880 112.423,211.696 113.067,212.600 113.067 C 212.930 113.067,213.113 112.979,213.006 112.873 C 212.900 112.766,213.125 112.442,213.506 112.152 C 214.310 111.542,214.158 111.507,212.900 112.012 M310.000 118.200 C 310.000 118.530,310.180 118.800,310.400 118.800 C 310.620 118.800,310.800 118.530,310.800 118.200 C 310.800 117.870,310.620 117.600,310.400 117.600 C 310.180 117.600,310.000 117.870,310.000 118.200 M298.291 118.689 C 299.001 118.777,300.261 118.779,301.091 118.692 C 301.921 118.605,301.340 118.533,299.800 118.531 C 298.260 118.529,297.581 118.600,298.291 118.689 M378.266 137.468 C 377.942 137.791,379.150 139.200,379.751 139.200 C 379.986 139.200,379.775 138.918,379.282 138.573 C 378.790 138.228,378.490 137.778,378.617 137.573 C 378.883 137.142,378.659 137.075,378.266 137.468 M352.528 166.800 C 352.528 168.230,352.601 168.815,352.689 168.100 C 352.778 167.385,352.778 166.215,352.689 165.500 C 352.601 164.785,352.528 165.370,352.528 166.800 M351.097 170.051 C 351.256 170.657,351.414 170.720,351.859 170.351 C 352.460 169.852,352.306 169.492,351.437 169.364 C 351.089 169.313,350.968 169.557,351.097 170.051 M351.100 295.010 C 350.994 295.565,351.108 296.134,351.354 296.274 C 351.599 296.414,351.676 296.391,351.526 296.223 C 351.375 296.055,351.415 295.486,351.616 294.959 C 351.816 294.431,351.826 294.000,351.637 294.000 C 351.448 294.000,351.206 294.454,351.100 295.010 M350.976 297.239 C 350.630 297.799,351.502 298.000,351.948 297.462 C 352.280 297.063,352.238 296.933,351.776 296.933 C 351.440 296.933,351.080 297.071,350.976 297.239 M19.328 300.400 C 19.328 301.830,19.401 302.415,19.489 301.700 C 19.578 300.985,19.578 299.815,19.489 299.100 C 19.401 298.385,19.328 298.970,19.328 300.400 M352.524 300.200 C 352.526 301.520,352.601 302.012,352.690 301.293 C 352.779 300.574,352.777 299.494,352.686 298.893 C 352.595 298.292,352.522 298.880,352.524 300.200 M342.686 334.391 C 342.426 335.387,342.951 335.782,343.560 335.049 C 343.898 334.640,343.872 334.392,343.454 334.045 C 343.014 333.680,342.853 333.753,342.686 334.391 M334.332 342.750 C 333.730 342.976,333.746 343.098,334.499 344.000 C 334.957 344.550,335.227 344.707,335.098 344.349 C 334.968 343.991,335.044 343.516,335.266 343.294 C 335.787 342.773,335.195 342.427,334.332 342.750 M51.097 370.051 C 51.241 370.601,51.435 370.703,51.786 370.412 C 52.054 370.189,52.437 370.137,52.637 370.297 C 52.837 370.456,52.777 370.330,52.504 370.017 C 51.735 369.134,50.863 369.155,51.097 370.051 M59.369 373.467 C 59.422 373.833,59.782 374.180,60.168 374.236 C 60.835 374.334,60.835 374.301,60.173 373.570 C 59.322 372.630,59.244 372.620,59.369 373.467 " stroke="none" fill="#a0a4ac" fill-rule="evenodd"></path></g></svg>