<svg id="svg" version="1.1" xmlns="http://www.w3.org/2000/svg" xmlns:xlink="http://www.w3.org/1999/xlink" width="400" height="400" viewBox="0, 0, 400,400"><g id="svgg"><path id="path0" d="M83.200 0.586 C 83.200 1.052,82.405 1.194,79.300 1.286 C 75.600 1.394,75.393 1.446,75.272 2.300 C 75.149 3.170,73.185 3.464,68.516 3.310 C 68.249 3.301,68.069 3.498,68.116 3.747 C 68.162 3.996,67.981 4.157,67.714 4.105 C 67.441 4.051,67.325 4.260,67.449 4.583 C 67.620 5.028,67.192 5.183,65.534 5.278 C 63.686 5.384,63.383 5.518,63.275 6.279 C 63.169 7.021,62.856 7.177,61.275 7.279 C 59.693 7.381,59.380 7.538,59.275 8.279 C 59.169 9.021,58.856 9.177,57.275 9.279 C 55.693 9.381,55.380 9.538,55.275 10.279 C 55.169 11.021,54.856 11.177,53.275 11.279 C 51.679 11.382,51.381 11.534,51.272 12.300 C 51.169 13.029,50.890 13.200,49.801 13.200 C 48.523 13.200,47.200 14.028,47.200 14.829 C 47.200 15.033,46.750 15.200,46.200 15.200 C 45.400 15.200,45.200 15.400,45.200 16.200 C 45.200 17.072,45.025 17.200,43.829 17.200 C 42.527 17.200,41.200 18.022,41.200 18.829 C 41.200 19.033,40.750 19.200,40.200 19.200 C 39.400 19.200,39.200 19.400,39.200 20.200 C 39.200 21.000,39.000 21.200,38.200 21.200 C 37.400 21.200,37.200 21.400,37.200 22.200 C 37.200 23.180,36.711 23.382,34.516 23.310 C 34.249 23.301,34.069 23.498,34.116 23.747 C 34.162 23.996,33.981 24.157,33.714 24.105 C 33.447 24.052,33.323 24.255,33.438 24.555 C 33.569 24.897,33.274 25.195,32.651 25.352 C 32.102 25.489,31.542 25.952,31.406 26.380 C 31.270 26.809,30.817 27.267,30.400 27.400 C 29.983 27.533,29.533 27.983,29.400 28.400 C 29.267 28.817,28.817 29.267,28.400 29.400 C 27.983 29.533,27.533 29.983,27.400 30.400 C 27.267 30.817,26.817 31.267,26.400 31.400 C 25.983 31.533,25.530 31.992,25.394 32.420 C 25.257 32.849,24.991 33.200,24.802 33.200 C 24.020 33.200,23.200 34.546,23.200 35.829 C 23.200 37.025,23.072 37.200,22.200 37.200 C 21.400 37.200,21.200 37.400,21.200 38.200 C 21.200 39.000,21.000 39.200,20.200 39.200 C 19.400 39.200,19.200 39.400,19.200 40.200 C 19.200 40.750,19.033 41.200,18.829 41.200 C 18.022 41.200,17.200 42.527,17.200 43.829 C 17.200 45.025,17.072 45.200,16.200 45.200 C 15.400 45.200,15.200 45.400,15.200 46.200 C 15.200 46.750,15.033 47.200,14.829 47.200 C 14.028 47.200,13.200 48.523,13.200 49.801 C 13.200 50.890,13.029 51.169,12.300 51.272 C 11.534 51.381,11.382 51.679,11.279 53.275 C 11.177 54.856,11.021 55.169,10.279 55.275 C 9.538 55.380,9.381 55.693,9.279 57.275 C 9.177 58.856,9.021 59.169,8.279 59.275 C 7.538 59.380,7.381 59.693,7.279 61.275 C 7.177 62.856,7.021 63.169,6.279 63.275 C 5.479 63.389,5.389 63.660,5.282 66.300 C 5.170 69.081,5.125 69.200,4.182 69.200 C 3.227 69.200,3.200 69.283,3.200 72.172 C 3.200 74.950,3.141 75.153,2.300 75.272 C 1.446 75.393,1.394 75.600,1.286 79.300 C 1.194 82.405,1.052 83.200,0.586 83.200 C 0.073 83.200,0.000 97.729,0.000 200.000 C 0.000 302.271,0.073 316.800,0.586 316.800 C 1.052 316.800,1.194 317.595,1.286 320.700 C 1.394 324.400,1.446 324.607,2.300 324.728 C 3.140 324.847,3.203 325.061,3.243 327.928 C 3.307 332.560,3.314 332.595,4.200 332.598 C 4.866 332.600,5.033 332.934,5.200 334.600 C 5.370 336.296,5.537 336.619,6.300 336.728 C 7.094 336.841,7.200 337.087,7.200 338.828 C 7.200 340.665,7.269 340.800,8.200 340.800 C 9.133 340.800,9.200 340.933,9.200 342.800 C 9.200 344.655,9.271 344.800,10.178 344.800 C 11.061 344.800,11.168 344.985,11.278 346.700 C 11.382 348.321,11.532 348.619,12.300 348.728 C 13.094 348.841,13.200 349.087,13.200 350.828 C 13.200 351.913,13.335 352.779,13.500 352.753 C 14.682 352.566,15.200 352.885,15.200 353.800 C 15.200 354.600,15.400 354.800,16.200 354.800 C 17.133 354.800,17.200 354.933,17.200 356.800 C 17.200 357.900,17.335 358.779,17.500 358.753 C 18.682 358.566,19.200 358.885,19.200 359.800 C 19.200 360.600,19.400 360.800,20.200 360.800 C 21.000 360.800,21.200 361.000,21.200 361.800 C 21.200 362.600,21.400 362.800,22.200 362.800 C 23.014 362.800,23.208 363.005,23.243 363.900 C 23.340 366.415,23.403 366.596,24.195 366.598 C 24.761 366.599,25.049 366.939,25.195 367.777 C 25.308 368.425,25.535 368.920,25.700 368.877 C 26.740 368.609,27.200 368.892,27.200 369.800 C 27.200 370.350,27.335 370.779,27.500 370.753 C 28.682 370.566,29.200 370.885,29.200 371.800 C 29.200 372.350,29.335 372.779,29.500 372.753 C 30.682 372.566,31.200 372.885,31.200 373.800 C 31.200 374.350,31.335 374.779,31.500 374.753 C 32.682 374.566,33.200 374.885,33.200 375.800 C 33.200 376.350,33.335 376.779,33.500 376.753 C 35.633 376.416,37.200 376.859,37.200 377.800 C 37.200 378.600,37.400 378.800,38.200 378.800 C 39.000 378.800,39.200 379.000,39.200 379.800 C 39.200 380.600,39.400 380.800,40.200 380.800 C 41.000 380.800,41.200 381.000,41.200 381.800 C 41.200 382.350,41.335 382.779,41.500 382.753 C 43.633 382.416,45.200 382.859,45.200 383.800 C 45.200 384.600,45.400 384.800,46.200 384.800 C 47.000 384.800,47.200 385.000,47.200 385.800 C 47.200 386.350,47.335 386.779,47.500 386.753 C 49.633 386.416,51.200 386.859,51.200 387.800 C 51.200 388.733,51.333 388.800,53.200 388.800 C 55.067 388.800,55.200 388.867,55.200 389.800 C 55.200 390.733,55.333 390.800,57.200 390.800 C 59.067 390.800,59.200 390.867,59.200 391.800 C 59.200 392.733,59.333 392.800,61.200 392.800 C 63.067 392.800,63.200 392.867,63.200 393.800 C 63.200 394.778,63.267 394.800,66.200 394.800 C 69.133 394.800,69.200 394.822,69.200 395.800 C 69.200 396.778,69.267 396.800,72.200 396.800 C 75.133 396.800,75.200 396.822,75.200 397.800 L 75.200 398.800 79.200 398.800 C 82.489 398.800,83.200 398.907,83.200 399.400 C 83.200 399.932,96.444 400.000,200.000 400.000 C 303.556 400.000,316.800 399.932,316.800 399.400 C 316.800 398.907,317.511 398.800,320.800 398.800 L 324.800 398.800 324.800 397.800 C 324.800 396.818,324.859 396.799,328.100 396.754 C 332.638 396.690,332.600 396.699,332.600 395.800 C 332.600 395.117,332.907 394.982,334.700 394.879 C 336.628 394.768,336.800 394.678,336.800 393.779 C 336.800 392.871,336.945 392.800,338.800 392.800 C 340.667 392.800,340.800 392.733,340.800 391.800 C 340.800 390.867,340.933 390.800,342.800 390.800 C 344.667 390.800,344.800 390.733,344.800 389.800 C 344.800 388.867,344.933 388.800,346.800 388.800 C 348.654 388.800,348.800 388.729,348.800 387.823 C 348.800 386.960,348.998 386.832,350.500 386.723 C 351.813 386.628,352.290 386.395,352.595 385.700 C 352.837 385.148,353.340 384.800,353.895 384.800 C 354.588 384.800,354.800 384.571,354.800 383.823 C 354.800 382.960,354.998 382.832,356.500 382.723 C 357.813 382.628,358.290 382.395,358.595 381.700 C 358.837 381.148,359.340 380.800,359.895 380.800 C 360.594 380.800,360.800 380.572,360.800 379.800 C 360.800 379.000,361.000 378.800,361.800 378.800 C 362.600 378.800,362.800 378.600,362.800 377.800 C 362.800 376.948,362.992 376.793,364.100 376.754 C 366.430 376.671,366.600 376.609,366.602 375.845 C 366.603 375.420,367.013 374.939,367.540 374.744 C 368.054 374.554,368.565 374.055,368.675 373.636 C 368.784 373.217,369.231 372.781,369.667 372.667 C 370.103 372.553,370.553 372.103,370.667 371.667 C 370.781 371.231,371.231 370.781,371.667 370.667 C 372.103 370.553,372.553 370.103,372.667 369.667 C 372.781 369.231,373.231 368.781,373.667 368.667 C 374.103 368.553,374.547 368.124,374.654 367.714 C 374.762 367.304,375.243 366.796,375.725 366.584 C 376.392 366.291,376.629 365.797,376.723 364.500 C 376.832 362.998,376.960 362.800,377.823 362.800 C 378.598 362.800,378.800 362.594,378.800 361.800 C 378.800 361.000,379.000 360.800,379.800 360.800 C 380.572 360.800,380.800 360.594,380.800 359.895 C 380.800 359.340,381.148 358.837,381.700 358.595 C 382.395 358.290,382.628 357.813,382.723 356.500 C 382.832 354.998,382.960 354.800,383.823 354.800 C 384.571 354.800,384.800 354.588,384.800 353.895 C 384.800 353.340,385.148 352.837,385.700 352.595 C 386.395 352.290,386.628 351.813,386.723 350.500 C 386.832 348.998,386.960 348.800,387.823 348.800 C 388.729 348.800,388.800 348.654,388.800 346.800 C 388.800 344.933,388.867 344.800,389.800 344.800 C 390.733 344.800,390.800 344.667,390.800 342.800 C 390.800 340.933,390.867 340.800,391.800 340.800 C 392.733 340.800,392.800 340.667,392.800 338.800 C 392.800 336.933,392.867 336.800,393.800 336.800 C 394.778 336.800,394.800 336.733,394.800 333.800 C 394.800 330.867,394.822 330.800,395.800 330.800 C 396.778 330.800,396.800 330.733,396.800 327.800 C 396.800 324.867,396.822 324.800,397.800 324.800 L 398.800 324.800 398.800 320.800 C 398.800 317.511,398.907 316.800,399.400 316.800 C 399.932 316.800,400.000 303.556,400.000 200.000 C 400.000 97.729,399.927 83.200,399.414 83.200 C 398.948 83.200,398.806 82.405,398.714 79.300 C 398.606 75.600,398.554 75.393,397.700 75.272 C 396.856 75.152,396.796 74.940,396.739 71.872 C 396.649 67.058,396.529 66.663,395.431 67.575 C 394.925 67.994,394.825 67.732,394.721 65.732 C 394.614 63.662,394.499 63.386,393.700 63.272 C 392.906 63.159,392.800 62.913,392.800 61.172 C 392.800 59.335,392.731 59.200,391.800 59.200 C 390.867 59.200,390.800 59.067,390.800 57.200 C 390.800 55.345,390.729 55.200,389.822 55.200 C 388.939 55.200,388.832 55.015,388.722 53.300 C 388.618 51.679,388.468 51.381,387.700 51.272 C 386.872 51.155,386.444 49.453,386.753 47.500 C 386.779 47.335,386.350 47.200,385.800 47.200 C 385.000 47.200,384.800 47.000,384.800 46.200 C 384.800 45.400,384.600 45.200,383.800 45.200 C 382.859 45.200,382.416 43.633,382.753 41.500 C 382.779 41.335,382.350 41.200,381.800 41.200 C 381.000 41.200,380.800 41.000,380.800 40.200 C 380.800 39.400,380.600 39.200,379.800 39.200 C 379.000 39.200,378.800 39.000,378.800 38.200 C 378.800 37.400,378.600 37.200,377.800 37.200 C 376.951 37.200,376.791 37.004,376.739 35.900 C 376.644 33.880,376.609 33.676,376.305 33.371 C 376.148 33.214,375.745 33.314,375.410 33.592 C 374.841 34.064,374.513 33.020,374.753 31.500 C 374.779 31.335,374.350 31.200,373.800 31.200 C 372.885 31.200,372.566 30.682,372.753 29.500 C 372.779 29.335,372.350 29.200,371.800 29.200 C 370.885 29.200,370.566 28.682,370.753 27.500 C 370.779 27.335,370.350 27.200,369.800 27.200 C 368.885 27.200,368.566 26.682,368.753 25.500 C 368.779 25.335,368.350 25.200,367.800 25.200 C 366.885 25.200,366.566 24.682,366.753 23.500 C 366.779 23.335,365.900 23.200,364.800 23.200 C 362.933 23.200,362.800 23.133,362.800 22.200 C 362.800 21.400,362.600 21.200,361.800 21.200 C 361.000 21.200,360.800 21.000,360.800 20.200 C 360.800 19.400,360.600 19.200,359.800 19.200 C 358.885 19.200,358.566 18.682,358.753 17.500 C 358.779 17.335,357.900 17.200,356.800 17.200 C 354.933 17.200,354.800 17.133,354.800 16.200 C 354.800 15.400,354.600 15.200,353.800 15.200 C 352.885 15.200,352.566 14.682,352.753 13.500 C 352.779 13.335,351.900 13.200,350.800 13.200 C 348.933 13.200,348.800 13.133,348.800 12.200 C 348.800 11.267,348.667 11.200,346.800 11.200 C 344.933 11.200,344.800 11.133,344.800 10.200 C 344.800 9.267,344.667 9.200,342.800 9.200 C 340.933 9.200,340.800 9.133,340.800 8.200 C 340.800 7.269,340.665 7.200,338.828 7.200 C 337.087 7.200,336.841 7.094,336.728 6.300 C 336.611 5.474,336.361 5.390,333.700 5.282 C 330.919 5.170,330.800 5.125,330.800 4.182 C 330.800 3.227,330.717 3.200,327.828 3.200 C 325.050 3.200,324.847 3.141,324.728 2.300 C 324.607 1.446,324.400 1.394,320.700 1.286 C 317.595 1.194,316.800 1.052,316.800 0.586 C 316.800 0.073,302.271 0.000,200.000 0.000 C 97.729 0.000,83.200 0.073,83.200 0.586 M299.592 17.410 C 298.559 18.654,298.594 18.660,307.349 18.739 C 313.346 18.793,314.042 18.868,313.592 19.410 C 312.660 20.533,313.038 20.649,317.900 20.739 C 321.137 20.799,321.200 20.819,321.200 21.800 C 321.200 22.350,321.335 22.779,321.500 22.753 C 323.992 22.359,327.155 22.878,327.272 23.700 C 327.381 24.468,327.679 24.618,329.300 24.722 C 331.015 24.832,331.200 24.939,331.200 25.822 C 331.200 26.360,331.335 26.779,331.500 26.753 C 333.633 26.416,335.200 26.859,335.200 27.800 C 335.200 28.350,335.335 28.779,335.500 28.753 C 337.633 28.416,339.200 28.859,339.200 29.800 C 339.200 30.350,339.335 30.779,339.500 30.753 C 341.633 30.416,343.200 30.859,343.200 31.800 C 343.200 32.600,343.400 32.800,344.200 32.800 C 345.000 32.800,345.200 33.000,345.200 33.800 C 345.200 34.350,345.335 34.779,345.500 34.753 C 346.793 34.549,347.461 34.874,347.432 35.693 C 347.413 36.215,347.649 36.605,348.000 36.632 C 348.330 36.657,349.185 36.706,349.900 36.739 C 351.004 36.791,351.200 36.951,351.200 37.800 C 351.200 38.600,351.400 38.800,352.200 38.800 C 353.000 38.800,353.200 39.000,353.200 39.800 C 353.200 40.600,353.400 40.800,354.200 40.800 C 355.000 40.800,355.200 41.000,355.200 41.800 C 355.200 42.600,355.400 42.800,356.200 42.800 C 357.000 42.800,357.200 43.000,357.200 43.800 C 357.200 44.600,357.400 44.800,358.200 44.800 C 359.000 44.800,359.200 45.000,359.200 45.800 C 359.200 46.600,359.400 46.800,360.200 46.800 C 361.000 46.800,361.200 47.000,361.200 47.800 C 361.200 48.600,361.400 48.800,362.200 48.800 C 363.014 48.800,363.208 49.005,363.243 49.900 C 363.340 52.415,363.403 52.596,364.195 52.598 C 364.765 52.599,365.049 52.940,365.199 53.800 C 365.314 54.460,365.541 54.955,365.704 54.900 C 366.672 54.573,367.200 54.891,367.200 55.800 C 367.200 56.594,367.401 56.800,368.178 56.800 C 369.061 56.800,369.168 56.985,369.278 58.700 C 369.382 60.321,369.532 60.619,370.300 60.728 C 370.964 60.822,371.211 61.137,371.243 61.928 C 371.342 64.430,371.399 64.600,372.105 64.481 C 372.937 64.341,373.195 64.884,373.313 67.022 C 373.384 68.304,373.550 68.600,374.200 68.600 C 374.867 68.600,375.033 68.933,375.200 70.600 C 375.370 72.296,375.537 72.619,376.300 72.728 C 377.094 72.841,377.205 73.099,377.243 74.928 C 377.315 78.465,377.350 78.608,378.105 78.481 C 379.042 78.324,379.158 78.768,379.289 83.000 C 379.387 86.184,379.482 86.586,380.105 86.481 C 381.113 86.312,381.170 86.673,381.291 94.000 C 381.395 100.297,381.437 100.600,382.200 100.600 C 382.998 100.600,383.000 100.900,383.101 200.143 C 383.190 288.192,383.133 299.660,382.606 299.457 C 382.261 299.325,382.050 299.434,382.105 299.714 C 382.157 299.981,381.996 300.162,381.747 300.116 C 381.498 300.069,381.301 300.249,381.310 300.516 C 381.511 306.619,381.128 313.658,380.605 313.457 C 380.261 313.325,380.050 313.434,380.105 313.714 C 380.157 313.981,380.010 314.167,379.778 314.126 C 379.516 314.080,379.317 315.365,379.251 317.526 C 379.192 319.437,378.974 321.061,378.765 321.136 C 377.644 321.537,377.200 322.584,377.200 324.829 C 377.200 327.177,377.039 327.420,375.573 327.272 C 375.449 327.259,375.304 328.093,375.252 329.124 C 375.200 330.156,374.984 331.061,374.771 331.136 C 373.840 331.463,373.200 332.560,373.200 333.829 C 373.200 334.583,373.033 335.200,372.829 335.200 C 372.022 335.200,371.200 336.527,371.200 337.829 C 371.200 338.583,371.033 339.200,370.829 339.200 C 370.022 339.200,369.200 340.527,369.200 341.829 C 369.200 343.025,369.072 343.200,368.200 343.200 C 367.407 343.200,367.200 343.402,367.200 344.173 C 367.200 344.794,366.911 345.238,366.401 345.400 C 365.961 345.539,365.489 346.102,365.352 346.651 C 365.195 347.274,364.897 347.569,364.555 347.438 C 364.255 347.323,364.052 347.447,364.105 347.714 C 364.157 347.981,363.996 348.162,363.747 348.116 C 363.498 348.069,363.301 348.249,363.310 348.516 C 363.382 350.711,363.180 351.200,362.200 351.200 C 361.400 351.200,361.200 351.400,361.200 352.200 C 361.200 353.000,361.000 353.200,360.200 353.200 C 359.408 353.200,359.200 353.402,359.200 354.172 C 359.200 354.876,358.951 355.180,358.300 355.272 C 357.730 355.353,357.354 355.721,357.275 356.275 C 357.198 356.821,356.821 357.198,356.275 357.275 C 355.730 357.353,355.353 357.730,355.275 358.275 C 355.198 358.821,354.821 359.198,354.275 359.275 C 353.721 359.354,353.353 359.730,353.272 360.300 C 353.180 360.951,352.876 361.200,352.172 361.200 C 351.402 361.200,351.200 361.408,351.200 362.200 C 351.200 363.180,350.711 363.382,348.516 363.310 C 348.249 363.301,348.069 363.498,348.116 363.747 C 348.162 363.996,347.981 364.157,347.714 364.105 C 347.447 364.052,347.323 364.255,347.438 364.555 C 347.569 364.897,347.274 365.195,346.651 365.352 C 346.102 365.489,345.539 365.961,345.400 366.401 C 345.238 366.911,344.794 367.200,344.173 367.200 C 343.408 367.200,343.200 367.409,343.200 368.178 C 343.200 369.061,343.015 369.168,341.300 369.278 C 339.679 369.382,339.381 369.532,339.272 370.300 C 339.151 371.154,338.542 371.377,336.516 371.310 C 336.249 371.301,336.069 371.498,336.116 371.747 C 336.162 371.996,335.981 372.157,335.714 372.105 C 335.434 372.050,335.325 372.261,335.457 372.605 C 335.671 373.161,334.742 373.383,332.516 373.310 C 332.249 373.301,332.069 373.498,332.116 373.747 C 332.162 373.996,331.981 374.157,331.714 374.105 C 331.441 374.051,331.325 374.260,331.449 374.583 C 331.620 375.028,331.192 375.183,329.534 375.278 C 327.670 375.385,327.384 375.514,327.272 376.300 C 327.148 377.173,325.966 377.424,322.516 377.310 C 322.249 377.301,322.069 377.498,322.116 377.747 C 322.162 377.996,321.981 378.157,321.714 378.105 C 321.434 378.050,321.325 378.261,321.457 378.605 C 321.664 379.144,318.683 379.447,314.516 379.310 C 314.249 379.301,314.069 379.498,314.116 379.747 C 314.162 379.996,313.981 380.157,313.714 380.105 C 313.434 380.050,313.325 380.261,313.457 380.605 C 313.650 381.108,302.779 381.639,300.300 381.247 C 300.135 381.221,300.045 381.425,300.100 381.700 C 300.155 381.975,299.981 382.157,299.714 382.105 C 299.434 382.050,299.325 382.261,299.457 382.606 C 299.660 383.133,288.192 383.190,200.143 383.101 C 100.900 383.000,100.600 382.998,100.600 382.200 C 100.600 381.437,100.297 381.395,94.000 381.291 C 86.673 381.170,86.312 381.113,86.481 380.105 C 86.587 379.480,86.171 379.386,82.809 379.276 C 78.571 379.136,78.780 379.199,78.693 378.045 C 78.635 377.269,78.394 377.200,75.743 377.200 C 73.053 377.200,72.847 377.138,72.728 376.300 C 72.619 375.532,72.321 375.382,70.700 375.278 C 68.867 375.160,68.538 374.860,68.753 373.500 C 68.779 373.335,67.900 373.200,66.800 373.200 C 64.834 373.200,64.525 372.943,64.753 371.500 C 64.779 371.335,63.900 371.200,62.800 371.200 C 60.834 371.200,60.525 370.943,60.753 369.500 C 60.779 369.335,59.900 369.200,58.800 369.200 C 56.933 369.200,56.800 369.133,56.800 368.200 C 56.800 367.400,56.600 367.200,55.800 367.200 C 54.892 367.200,54.609 366.740,54.877 365.700 C 54.920 365.535,54.425 365.308,53.777 365.195 C 53.030 365.065,52.598 364.746,52.595 364.323 C 52.587 363.327,52.095 363.023,51.410 363.592 C 50.993 363.938,50.800 363.956,50.800 363.649 C 50.800 363.402,50.350 363.200,49.800 363.200 C 49.000 363.200,48.800 363.000,48.800 362.200 C 48.800 361.400,48.600 361.200,47.800 361.200 C 47.000 361.200,46.800 361.000,46.800 360.200 C 46.800 359.400,46.600 359.200,45.800 359.200 C 45.000 359.200,44.800 359.000,44.800 358.200 C 44.800 357.400,44.600 357.200,43.800 357.200 C 43.000 357.200,42.800 357.000,42.800 356.200 C 42.800 355.400,42.600 355.200,41.800 355.200 C 41.000 355.200,40.800 355.000,40.800 354.200 C 40.800 353.400,40.600 353.200,39.800 353.200 C 39.000 353.200,38.800 353.000,38.800 352.200 C 38.800 351.400,38.600 351.200,37.800 351.200 C 36.951 351.200,36.791 351.004,36.739 349.900 C 36.644 347.880,36.609 347.676,36.305 347.371 C 36.148 347.214,35.745 347.314,35.410 347.592 C 34.841 348.064,34.513 347.020,34.753 345.500 C 34.779 345.335,34.350 345.200,33.800 345.200 C 33.000 345.200,32.800 345.000,32.800 344.200 C 32.800 343.406,32.599 343.200,31.822 343.200 C 30.939 343.200,30.832 343.015,30.722 341.300 C 30.618 339.679,30.468 339.381,29.700 339.272 C 28.998 339.173,28.787 338.864,28.739 337.872 C 28.644 335.879,28.608 335.675,28.305 335.371 C 28.148 335.214,27.745 335.314,27.410 335.592 C 26.880 336.031,26.792 335.867,26.739 334.349 C 26.706 333.387,26.658 332.388,26.634 332.128 C 26.557 331.307,26.040 331.069,25.431 331.575 C 24.925 331.994,24.825 331.732,24.721 329.732 C 24.614 327.662,24.499 327.386,23.700 327.272 C 22.896 327.158,22.794 326.902,22.739 324.872 C 22.639 321.147,22.465 320.716,21.410 321.592 C 20.871 322.039,20.793 321.659,20.739 318.349 C 20.652 312.986,20.556 312.641,19.410 313.592 C 18.868 314.042,18.793 313.346,18.739 307.349 C 18.660 298.593,18.654 298.559,17.409 299.593 C 16.862 300.047,16.809 289.738,16.899 200.350 C 17.000 100.902,17.002 100.601,17.800 100.601 C 18.555 100.600,18.606 100.299,18.703 95.200 C 18.866 86.703,18.880 86.600,19.800 86.600 C 20.696 86.600,20.690 86.627,20.754 82.195 C 20.796 79.277,20.881 78.954,21.700 78.595 C 22.484 78.251,22.615 77.857,22.718 75.526 C 22.824 73.115,22.923 72.839,23.718 72.726 C 24.458 72.620,24.619 72.308,24.718 70.787 C 24.811 69.366,25.027 68.890,25.718 68.587 C 26.381 68.296,26.629 67.800,26.719 66.587 C 26.808 65.374,27.056 64.878,27.719 64.587 C 28.381 64.296,28.629 63.800,28.719 62.587 C 28.808 61.374,29.056 60.878,29.719 60.587 C 30.393 60.291,30.629 59.801,30.723 58.500 C 30.832 56.998,30.960 56.800,31.823 56.800 C 32.586 56.800,32.800 56.591,32.800 55.847 C 32.800 55.230,33.082 54.819,33.599 54.684 C 34.038 54.569,34.554 54.054,34.744 53.540 C 34.939 53.013,35.420 52.603,35.845 52.602 C 36.609 52.600,36.671 52.430,36.754 50.100 C 36.793 48.992,36.948 48.800,37.800 48.800 C 38.600 48.800,38.800 48.600,38.800 47.800 C 38.800 47.000,39.000 46.800,39.800 46.800 C 40.600 46.800,40.800 46.600,40.800 45.800 C 40.800 45.000,41.000 44.800,41.800 44.800 C 42.600 44.800,42.800 44.600,42.800 43.800 C 42.800 43.000,43.000 42.800,43.800 42.800 C 44.600 42.800,44.800 42.600,44.800 41.800 C 44.800 41.000,45.000 40.800,45.800 40.800 C 46.600 40.800,46.800 40.600,46.800 39.800 C 46.800 39.000,47.000 38.800,47.800 38.800 C 48.600 38.800,48.800 38.600,48.800 37.800 C 48.800 36.948,48.992 36.793,50.100 36.754 C 52.430 36.671,52.600 36.609,52.602 35.845 C 52.603 35.420,53.013 34.939,53.540 34.744 C 54.054 34.554,54.569 34.038,54.684 33.599 C 54.819 33.082,55.230 32.800,55.847 32.800 C 56.597 32.800,56.800 32.587,56.800 31.800 C 56.800 30.867,56.933 30.800,58.800 30.800 C 60.667 30.800,60.800 30.733,60.800 29.800 C 60.800 28.948,60.992 28.793,62.100 28.754 C 64.413 28.672,64.600 28.610,64.605 27.928 C 64.612 26.968,64.817 26.855,66.813 26.714 C 68.287 26.610,68.600 26.449,68.600 25.794 C 68.600 25.118,68.912 24.982,70.700 24.879 C 72.628 24.768,72.800 24.678,72.800 23.779 C 72.800 22.859,72.939 22.797,75.100 22.754 C 78.527 22.685,78.600 22.665,78.600 21.800 C 78.600 20.899,78.751 20.864,83.400 20.708 C 86.297 20.610,86.600 20.524,86.600 19.800 C 86.600 18.880,86.703 18.866,95.200 18.703 C 99.659 18.618,100.609 18.495,100.654 18.000 C 100.683 17.670,100.728 17.265,100.754 17.100 C 100.779 16.935,145.642 16.800,200.449 16.800 C 289.683 16.800,300.045 16.864,299.592 17.410 " stroke="none" fill="#d4d4dc" fill-rule="evenodd"></path><path id="path1" d="M147.467 123.467 C 147.320 123.613,147.200 124.063,147.200 124.467 C 147.200 125.080,146.873 125.200,145.200 125.200 C 143.333 125.200,143.200 125.267,143.200 126.200 C 143.200 127.133,143.067 127.200,141.200 127.200 C 139.333 127.200,139.200 127.267,139.200 128.200 C 139.200 129.000,139.000 129.200,138.200 129.200 C 137.400 129.200,137.200 129.400,137.200 130.200 C 137.200 131.000,137.000 131.200,136.200 131.200 C 135.400 131.200,135.200 131.400,135.200 132.200 C 135.200 133.000,135.000 133.200,134.200 133.200 C 133.400 133.200,133.200 133.400,133.200 134.200 C 133.200 135.000,133.000 135.200,132.200 135.200 C 131.267 135.200,131.200 135.333,131.200 137.200 C 131.200 139.070,131.135 139.200,130.194 139.200 L 129.188 139.200 129.294 150.900 L 129.400 162.600 130.300 162.728 C 130.951 162.820,131.200 163.124,131.200 163.828 C 131.200 164.598,131.408 164.800,132.200 164.800 C 133.133 164.800,133.200 164.933,133.200 166.800 C 133.200 168.667,133.267 168.800,134.200 168.800 C 135.000 168.800,135.200 169.000,135.200 169.800 C 135.200 170.600,135.400 170.800,136.200 170.800 C 137.000 170.800,137.200 171.000,137.200 171.800 C 137.200 172.600,137.400 172.800,138.200 172.800 C 139.000 172.800,139.200 173.000,139.200 173.800 C 139.200 174.733,139.333 174.800,141.200 174.800 C 143.067 174.800,143.200 174.867,143.200 175.800 L 143.200 176.800 147.200 176.800 L 151.200 176.800 151.200 177.800 L 151.200 178.800 156.000 178.800 L 160.800 178.800 160.800 177.800 L 160.800 176.800 164.800 176.800 L 168.800 176.800 168.800 175.800 C 168.800 175.000,169.000 174.800,169.800 174.800 C 170.600 174.800,170.800 174.600,170.800 173.800 C 170.800 172.867,170.933 172.800,172.800 172.800 C 174.667 172.800,174.800 172.733,174.800 171.800 C 174.800 171.000,175.000 170.800,175.800 170.800 C 176.733 170.800,176.800 170.667,176.800 168.800 C 176.800 166.933,176.867 166.800,177.800 166.800 C 178.600 166.800,178.800 166.600,178.800 165.800 C 178.800 165.000,179.000 164.800,179.800 164.800 C 180.733 164.800,180.800 164.667,180.800 162.800 C 180.800 160.930,180.865 160.800,181.807 160.800 L 182.814 160.800 182.707 151.100 L 182.600 141.400 181.700 141.272 C 180.906 141.159,180.800 140.913,180.800 139.172 C 180.800 137.347,180.727 137.200,179.822 137.200 C 178.939 137.200,178.832 137.015,178.722 135.300 C 178.618 133.679,178.468 133.381,177.700 133.272 C 177.049 133.180,176.800 132.876,176.800 132.172 C 176.800 131.402,176.592 131.200,175.800 131.200 C 175.000 131.200,174.800 131.000,174.800 130.200 C 174.800 129.408,174.598 129.200,173.828 129.200 C 173.124 129.200,172.820 128.951,172.728 128.300 C 172.619 127.532,172.321 127.382,170.700 127.278 C 168.985 127.168,168.800 127.061,168.800 126.178 C 168.800 125.228,168.715 125.200,165.800 125.200 C 162.867 125.200,162.800 125.178,162.800 124.200 L 162.800 123.200 155.267 123.200 C 151.123 123.200,147.613 123.320,147.467 123.467 M237.200 124.200 C 237.200 125.178,237.133 125.200,234.200 125.200 C 231.285 125.200,231.200 125.228,231.200 126.178 C 231.200 127.061,231.015 127.168,229.300 127.278 C 227.679 127.382,227.381 127.532,227.272 128.300 C 227.180 128.951,226.876 129.200,226.172 129.200 C 225.402 129.200,225.200 129.408,225.200 130.200 C 225.200 131.000,225.000 131.200,224.200 131.200 C 223.400 131.200,223.200 131.400,223.200 132.200 C 223.200 133.000,223.000 133.200,222.200 133.200 C 221.267 133.200,221.200 133.333,221.200 135.200 C 221.200 137.067,221.133 137.200,220.200 137.200 C 219.267 137.200,219.200 137.333,219.200 139.200 C 219.200 141.070,219.135 141.200,218.193 141.200 L 217.186 141.200 217.293 150.900 L 217.400 160.600 218.300 160.728 C 219.094 160.841,219.200 161.087,219.200 162.828 C 219.200 164.665,219.269 164.800,220.200 164.800 C 221.000 164.800,221.200 165.000,221.200 165.800 C 221.200 166.600,221.400 166.800,222.200 166.800 C 223.133 166.800,223.200 166.933,223.200 168.800 C 223.200 170.651,223.272 170.800,224.172 170.800 C 224.876 170.800,225.180 171.049,225.272 171.700 C 225.381 172.468,225.679 172.618,227.300 172.722 C 229.015 172.832,229.200 172.939,229.200 173.822 C 229.200 174.729,229.345 174.800,231.200 174.800 C 233.067 174.800,233.200 174.867,233.200 175.800 C 233.200 176.778,233.267 176.800,236.200 176.800 C 239.133 176.800,239.200 176.822,239.200 177.800 L 239.200 178.800 245.000 178.800 L 250.800 178.800 250.800 177.800 C 250.800 176.823,250.869 176.800,253.772 176.800 C 256.550 176.800,256.753 176.741,256.872 175.900 C 256.981 175.134,257.279 174.982,258.875 174.879 C 260.444 174.778,260.770 174.617,260.875 173.896 C 260.953 173.358,261.377 172.945,262.000 172.800 C 262.621 172.655,263.047 172.242,263.125 171.708 C 263.201 171.180,263.586 170.801,264.125 170.725 C 264.679 170.646,265.047 170.270,265.128 169.700 C 265.207 169.142,265.533 168.800,265.985 168.800 C 266.848 168.800,267.200 168.037,267.200 166.167 C 267.200 164.976,267.328 164.800,268.200 164.800 C 269.133 164.800,269.200 164.667,269.200 162.800 C 269.200 160.933,269.267 160.800,270.200 160.800 L 271.200 160.800 271.200 151.026 C 271.200 141.259,270.958 139.200,269.810 139.200 C 269.430 139.200,269.200 138.832,269.200 138.226 C 269.200 136.765,268.496 135.200,267.838 135.200 C 267.518 135.200,267.198 134.795,267.128 134.300 C 267.046 133.722,266.678 133.354,266.100 133.272 C 265.449 133.180,265.200 132.876,265.200 132.172 C 265.200 131.402,264.992 131.200,264.200 131.200 C 263.400 131.200,263.200 131.000,263.200 130.200 C 263.200 129.412,262.997 129.200,262.243 129.200 C 261.557 129.200,261.216 128.918,261.036 128.200 C 260.815 127.322,260.569 127.200,259.020 127.200 C 257.495 127.200,257.238 127.078,257.128 126.300 C 257.010 125.467,256.769 125.391,253.900 125.283 C 250.906 125.170,250.800 125.133,250.800 124.183 L 250.800 123.200 244.000 123.200 L 237.200 123.200 237.200 124.200 M159.200 139.800 C 159.200 140.733,159.333 140.800,161.200 140.800 C 163.067 140.800,163.200 140.867,163.200 141.800 C 163.200 142.594,163.401 142.800,164.178 142.800 C 165.061 142.800,165.168 142.985,165.278 144.700 C 165.382 146.321,165.532 146.619,166.300 146.728 C 167.168 146.851,167.200 147.006,167.200 151.028 L 167.200 155.200 166.200 155.200 C 165.267 155.200,165.200 155.333,165.200 157.200 C 165.200 159.067,165.133 159.200,164.200 159.200 C 163.400 159.200,163.200 159.400,163.200 160.200 C 163.200 161.133,163.067 161.200,161.200 161.200 C 159.333 161.200,159.200 161.267,159.200 162.200 C 159.200 163.183,159.147 163.200,156.000 163.200 C 152.853 163.200,152.800 163.183,152.800 162.200 C 152.800 161.267,152.667 161.200,150.800 161.200 C 148.933 161.200,148.800 161.133,148.800 160.200 C 148.800 159.400,148.600 159.200,147.800 159.200 C 147.000 159.200,146.800 159.000,146.800 158.200 C 146.800 157.405,146.599 157.200,145.818 157.200 C 144.876 157.200,144.830 157.080,144.718 154.317 C 144.608 151.626,144.533 151.415,143.600 151.157 L 142.600 150.880 143.700 150.840 C 144.799 150.800,144.800 150.796,144.800 147.800 C 144.800 144.867,144.822 144.800,145.800 144.800 C 146.600 144.800,146.800 144.600,146.800 143.800 C 146.800 143.000,147.000 142.800,147.800 142.800 C 148.600 142.800,148.800 142.600,148.800 141.800 C 148.800 140.867,148.933 140.800,150.800 140.800 C 152.667 140.800,152.800 140.733,152.800 139.800 C 152.800 138.817,152.853 138.800,156.000 138.800 C 159.147 138.800,159.200 138.817,159.200 139.800 M249.200 139.800 C 249.200 140.600,249.400 140.800,250.200 140.800 C 251.000 140.800,251.200 141.000,251.200 141.800 C 251.200 142.600,251.400 142.800,252.200 142.800 C 253.000 142.800,253.200 143.000,253.200 143.800 C 253.200 144.595,253.401 144.800,254.182 144.800 C 255.125 144.800,255.170 144.919,255.282 147.700 C 255.394 150.445,255.453 150.609,256.400 150.761 L 257.400 150.922 256.400 151.178 C 255.464 151.417,255.392 151.619,255.282 154.317 C 255.170 157.080,255.124 157.200,254.182 157.200 C 253.401 157.200,253.200 157.405,253.200 158.200 C 253.200 159.000,253.000 159.200,252.200 159.200 C 251.400 159.200,251.200 159.400,251.200 160.200 C 251.200 161.133,251.067 161.200,249.200 161.200 C 247.333 161.200,247.200 161.267,247.200 162.200 C 247.200 163.183,247.147 163.200,244.000 163.200 C 240.853 163.200,240.800 163.183,240.800 162.200 C 240.800 161.267,240.667 161.200,238.800 161.200 C 236.933 161.200,236.800 161.133,236.800 160.200 C 236.800 159.406,236.599 159.200,235.822 159.200 C 234.939 159.200,234.832 159.015,234.722 157.300 C 234.618 155.679,234.468 155.381,233.700 155.272 C 232.832 155.149,232.800 154.994,232.800 150.972 L 232.800 146.800 233.800 146.800 C 234.733 146.800,234.800 146.667,234.800 144.800 C 234.800 142.933,234.867 142.800,235.800 142.800 C 236.600 142.800,236.800 142.600,236.800 141.800 C 236.800 140.867,236.933 140.800,238.800 140.800 C 240.667 140.800,240.800 140.733,240.800 139.800 L 240.800 138.800 245.000 138.800 L 249.200 138.800 249.200 139.800 M149.467 221.467 C 149.320 221.613,149.200 222.055,149.200 222.449 C 149.200 223.060,148.776 223.182,146.300 223.282 C 143.660 223.389,143.389 223.479,143.275 224.279 C 143.169 225.021,142.856 225.177,141.275 225.279 C 139.679 225.382,139.381 225.534,139.272 226.300 C 139.180 226.951,138.876 227.200,138.172 227.200 C 137.402 227.200,137.200 227.408,137.200 228.200 C 137.200 229.000,137.000 229.200,136.200 229.200 C 135.400 229.200,135.200 229.400,135.200 230.200 C 135.200 231.000,135.000 231.200,134.200 231.200 C 133.267 231.200,133.200 231.333,133.200 233.200 C 133.200 235.067,133.133 235.200,132.200 235.200 C 131.267 235.200,131.200 235.333,131.200 237.200 C 131.200 239.070,131.135 239.200,130.193 239.200 L 129.187 239.200 129.293 249.900 C 129.400 260.579,129.402 260.600,130.279 260.725 C 131.021 260.831,131.177 261.144,131.279 262.725 C 131.382 264.321,131.534 264.619,132.300 264.728 C 132.951 264.820,133.200 265.124,133.200 265.828 C 133.200 266.598,133.408 266.800,134.200 266.800 C 135.000 266.800,135.200 267.000,135.200 267.800 C 135.200 268.600,135.400 268.800,136.200 268.800 C 137.000 268.800,137.200 269.000,137.200 269.800 C 137.200 270.600,137.400 270.800,138.200 270.800 C 139.000 270.800,139.200 271.000,139.200 271.800 C 139.200 272.733,139.333 272.800,141.200 272.800 C 143.067 272.800,143.200 272.867,143.200 273.800 C 143.200 274.778,143.267 274.800,146.200 274.800 C 149.133 274.800,149.200 274.822,149.200 275.800 L 149.200 276.800 156.000 276.800 L 162.800 276.800 162.800 275.800 C 162.800 274.822,162.867 274.800,165.800 274.800 C 168.733 274.800,168.800 274.778,168.800 273.800 C 168.800 272.867,168.933 272.800,170.800 272.800 C 172.667 272.800,172.800 272.733,172.800 271.800 C 172.800 271.000,173.000 270.800,173.800 270.800 C 174.600 270.800,174.800 270.600,174.800 269.800 C 174.800 269.000,175.000 268.800,175.800 268.800 C 176.600 268.800,176.800 268.600,176.800 267.800 C 176.800 267.000,177.000 266.800,177.800 266.800 C 178.733 266.800,178.800 266.667,178.800 264.800 C 178.800 262.933,178.867 262.800,179.800 262.800 C 180.733 262.800,180.800 262.667,180.800 260.800 C 180.800 258.930,180.865 258.800,181.807 258.800 L 182.814 258.800 182.707 249.100 L 182.600 239.400 181.700 239.272 C 180.906 239.159,180.800 238.913,180.800 237.172 C 180.800 235.335,180.731 235.200,179.800 235.200 C 179.000 235.200,178.800 235.000,178.800 234.200 C 178.800 233.400,178.600 233.200,177.800 233.200 C 176.867 233.200,176.800 233.067,176.800 231.200 C 176.800 229.349,176.728 229.200,175.828 229.200 C 175.124 229.200,174.820 228.951,174.728 228.300 C 174.619 227.532,174.321 227.382,172.700 227.278 C 170.985 227.168,170.800 227.061,170.800 226.178 C 170.800 225.271,170.655 225.200,168.800 225.200 C 166.933 225.200,166.800 225.133,166.800 224.200 C 166.800 223.222,166.733 223.200,163.800 223.200 C 160.867 223.200,160.800 223.178,160.800 222.200 L 160.800 221.200 155.267 221.200 C 152.223 221.200,149.613 221.320,149.467 221.467 M239.200 222.186 C 239.200 223.158,239.147 223.173,235.300 223.286 C 231.600 223.394,231.393 223.446,231.272 224.300 C 231.180 224.951,230.876 225.200,230.172 225.200 C 229.408 225.200,229.200 225.409,229.200 226.178 C 229.200 227.061,229.015 227.168,227.300 227.278 C 225.679 227.382,225.381 227.532,225.272 228.300 C 225.180 228.951,224.876 229.200,224.172 229.200 C 223.272 229.200,223.200 229.349,223.200 231.200 C 223.200 233.067,223.133 233.200,222.200 233.200 C 221.400 233.200,221.200 233.400,221.200 234.200 C 221.200 235.000,221.000 235.200,220.200 235.200 C 219.269 235.200,219.200 235.335,219.200 237.172 C 219.200 238.913,219.094 239.159,218.300 239.272 L 217.400 239.400 217.400 249.000 L 217.400 258.600 218.300 258.728 C 219.094 258.841,219.200 259.087,219.200 260.828 C 219.200 262.653,219.273 262.800,220.178 262.800 C 221.061 262.800,221.168 262.985,221.278 264.700 C 221.382 266.321,221.532 266.619,222.300 266.728 C 222.951 266.820,223.200 267.124,223.200 267.828 C 223.200 268.598,223.408 268.800,224.200 268.800 C 225.000 268.800,225.200 269.000,225.200 269.800 C 225.200 270.592,225.402 270.800,226.172 270.800 C 226.876 270.800,227.180 271.049,227.272 271.700 C 227.381 272.468,227.679 272.618,229.300 272.722 C 231.015 272.832,231.200 272.939,231.200 273.822 C 231.200 274.772,231.285 274.800,234.200 274.800 C 237.133 274.800,237.200 274.822,237.200 275.800 L 237.200 276.800 245.000 276.800 L 252.800 276.800 252.800 275.821 C 252.800 274.922,252.972 274.832,254.900 274.721 C 256.729 274.616,257.016 274.484,257.128 273.700 C 257.238 272.922,257.495 272.800,259.020 272.800 C 260.569 272.800,260.815 272.678,261.036 271.800 C 261.216 271.082,261.557 270.800,262.243 270.800 C 262.997 270.800,263.200 270.588,263.200 269.800 C 263.200 269.000,263.400 268.800,264.200 268.800 C 265.000 268.800,265.200 268.600,265.200 267.800 C 265.200 267.000,265.400 266.800,266.200 266.800 C 267.000 266.800,267.200 266.600,267.200 265.800 C 267.200 265.086,267.416 264.800,267.957 264.800 C 268.847 264.800,269.200 264.052,269.200 262.167 C 269.200 261.092,269.362 260.800,269.957 260.800 C 271.134 260.800,271.200 260.194,271.200 249.393 C 271.200 239.262,270.965 237.200,269.810 237.200 C 269.426 237.200,269.200 236.829,269.200 236.200 C 269.200 235.400,269.000 235.200,268.200 235.200 C 267.328 235.200,267.200 235.024,267.200 233.833 C 267.200 231.963,266.848 231.200,265.985 231.200 C 265.533 231.200,265.207 230.858,265.128 230.300 C 265.048 229.735,264.679 229.354,264.138 229.277 C 263.613 229.202,263.179 228.772,263.030 228.177 C 262.879 227.576,262.496 227.200,262.036 227.200 C 261.570 227.200,261.192 226.821,261.036 226.200 C 260.816 225.324,260.568 225.200,259.036 225.200 C 257.504 225.200,257.256 225.076,257.036 224.200 C 256.789 223.217,256.717 223.200,252.792 223.200 C 248.801 223.200,248.800 223.200,248.800 222.200 L 248.800 221.200 244.000 221.200 L 239.200 221.200 239.200 222.186 M159.200 237.800 C 159.200 238.733,159.333 238.800,161.200 238.800 C 163.067 238.800,163.200 238.867,163.200 239.800 C 163.200 240.594,163.401 240.800,164.178 240.800 C 165.061 240.800,165.168 240.985,165.278 242.700 C 165.382 244.321,165.532 244.619,166.300 244.728 C 167.167 244.851,167.200 245.007,167.200 249.000 C 167.200 252.993,167.167 253.149,166.300 253.272 C 165.532 253.381,165.382 253.679,165.278 255.300 C 165.168 257.015,165.061 257.200,164.178 257.200 C 163.407 257.200,163.200 257.407,163.200 258.178 C 163.200 259.061,163.015 259.168,161.300 259.278 C 159.679 259.382,159.381 259.532,159.272 260.300 C 159.149 261.168,158.994 261.200,154.972 261.200 L 150.800 261.200 150.800 260.200 C 150.800 259.400,150.600 259.200,149.800 259.200 C 149.000 259.200,148.800 259.000,148.800 258.200 C 148.800 257.400,148.600 257.200,147.800 257.200 C 147.000 257.200,146.800 257.000,146.800 256.200 C 146.800 255.405,146.599 255.200,145.818 255.200 C 144.876 255.200,144.830 255.080,144.718 252.317 C 144.608 249.626,144.533 249.415,143.600 249.157 L 142.600 248.880 143.700 248.840 C 144.799 248.800,144.800 248.796,144.800 245.800 C 144.800 242.867,144.822 242.800,145.800 242.800 C 146.600 242.800,146.800 242.600,146.800 241.800 C 146.800 241.000,147.000 240.800,147.800 240.800 C 148.600 240.800,148.800 240.600,148.800 239.800 C 148.800 238.867,148.933 238.800,150.800 238.800 C 152.667 238.800,152.800 238.733,152.800 237.800 C 152.800 236.817,152.853 236.800,156.000 236.800 C 159.147 236.800,159.200 236.817,159.200 237.800 M247.200 237.800 C 247.200 238.733,247.333 238.800,249.200 238.800 C 251.067 238.800,251.200 238.867,251.200 239.800 C 251.200 240.600,251.400 240.800,252.200 240.800 C 253.000 240.800,253.200 241.000,253.200 241.800 C 253.200 242.595,253.401 242.800,254.182 242.800 C 255.125 242.800,255.170 242.919,255.282 245.700 C 255.394 248.445,255.453 248.609,256.400 248.761 L 257.400 248.922 256.400 249.178 C 255.464 249.417,255.392 249.619,255.282 252.317 C 255.170 255.080,255.124 255.200,254.182 255.200 C 253.401 255.200,253.200 255.405,253.200 256.200 C 253.200 257.000,253.000 257.200,252.200 257.200 C 251.406 257.200,251.200 257.401,251.200 258.178 C 251.200 259.061,251.015 259.168,249.300 259.278 C 247.679 259.382,247.381 259.532,247.272 260.300 C 247.062 261.782,240.800 261.685,240.800 260.200 C 240.800 259.267,240.667 259.200,238.800 259.200 C 236.933 259.200,236.800 259.133,236.800 258.200 C 236.800 257.406,236.599 257.200,235.822 257.200 C 234.939 257.200,234.832 257.015,234.722 255.300 C 234.618 253.679,234.468 253.381,233.700 253.272 C 232.832 253.149,232.800 252.994,232.800 248.972 L 232.800 244.800 233.800 244.800 C 234.733 244.800,234.800 244.667,234.800 242.800 C 234.800 240.933,234.867 240.800,235.800 240.800 C 236.600 240.800,236.800 240.600,236.800 239.800 C 236.800 238.867,236.933 238.800,238.800 238.800 C 240.667 238.800,240.800 238.733,240.800 237.800 C 240.800 236.817,240.853 236.800,244.000 236.800 C 247.147 236.800,247.200 236.817,247.200 237.800 " stroke="none" fill="#141b24" fill-rule="evenodd"></path><path id="path2" d="" stroke="none" fill="#a4d880" fill-rule="evenodd"></path><path id="path3" d="" stroke="none" fill="#a4d880" fill-rule="evenodd"></path><path id="path4" d="" stroke="none" fill="#a4d880" fill-rule="evenodd"></path></g></svg>