<svg id="svg" version="1.1" xmlns="http://www.w3.org/2000/svg" xmlns:xlink="http://www.w3.org/1999/xlink" width="400" height="397.5155279503105" viewBox="0, 0, 400,397.5155279503105"><g id="svgg"><path id="path0" d="M140.996 59.061 C 140.645 59.412,140.358 60.039,140.358 60.455 C 140.358 61.159,139.954 61.219,134.511 61.321 L 128.663 61.431 128.430 62.425 C 128.202 63.395,128.099 63.422,124.237 63.518 C 119.033 63.648,118.489 63.790,118.489 65.018 L 118.489 66.004 114.148 66.004 C 109.116 66.004,108.549 66.149,108.549 67.438 C 108.549 68.344,108.420 68.392,105.865 68.429 C 102.273 68.482,101.271 68.804,100.992 69.995 C 100.778 70.907,100.571 70.981,97.995 71.075 C 94.006 71.221,93.439 71.407,93.439 72.572 C 93.439 73.535,93.369 73.559,90.431 73.559 C 87.117 73.559,85.885 73.988,85.885 75.144 C 85.885 75.801,85.543 75.923,83.400 76.025 C 81.018 76.138,80.909 76.189,80.789 77.237 C 80.672 78.255,80.535 78.330,78.801 78.334 C 75.135 78.343,73.937 78.723,73.690 79.957 C 73.481 81.005,73.326 81.084,71.243 81.194 C 69.240 81.300,68.996 81.411,68.788 82.306 C 68.580 83.199,68.315 83.320,66.187 83.499 L 63.817 83.698 63.699 85.960 C 63.582 88.187,63.560 88.225,62.307 88.346 C 61.192 88.454,61.018 88.630,60.909 89.761 C 60.808 90.814,60.613 91.054,59.858 91.054 C 58.756 91.054,58.449 91.711,58.449 94.068 C 58.449 95.755,58.402 95.825,57.256 95.825 L 56.064 95.825 56.064 98.410 L 56.064 100.994 54.871 100.994 C 53.810 100.994,53.678 101.127,53.678 102.187 C 53.678 103.167,53.514 103.380,52.763 103.380 C 51.386 103.380,50.895 104.133,50.895 106.243 C 50.895 107.815,50.769 108.151,50.179 108.151 C 48.977 108.151,48.509 109.009,48.509 111.213 C 48.509 113.289,48.491 113.320,47.316 113.320 C 46.125 113.320,46.123 113.323,46.123 115.679 C 46.123 117.958,46.086 118.043,45.030 118.164 C 44.119 118.269,43.916 118.506,43.812 119.583 C 43.703 120.707,43.541 120.875,42.562 120.875 C 41.252 120.875,40.954 121.433,40.954 123.889 C 40.954 125.475,40.862 125.646,40.007 125.646 C 38.929 125.646,38.583 126.481,38.574 129.099 C 38.569 130.616,38.473 130.773,37.475 130.888 C 36.386 131.013,36.381 131.028,36.267 134.468 C 36.154 137.896,36.145 137.923,35.074 138.047 C 34.046 138.165,33.991 138.285,33.878 140.632 C 33.761 143.083,33.755 143.094,32.487 143.217 C 31.231 143.338,31.211 143.373,31.093 145.626 C 31.009 147.246,30.814 147.913,30.426 147.913 C 29.115 147.913,28.628 149.105,28.628 152.315 L 28.628 155.467 27.435 155.467 L 26.243 155.467 26.243 158.025 C 26.243 160.520,26.216 160.586,25.149 160.709 C 24.060 160.834,24.055 160.849,23.941 164.289 C 23.827 167.717,23.819 167.744,22.748 167.868 C 21.672 167.992,21.670 167.998,21.556 171.670 L 21.441 175.348 20.306 175.348 C 18.870 175.348,18.688 175.842,18.688 179.728 C 18.688 182.838,18.684 182.850,17.594 182.976 L 16.501 183.101 16.390 187.947 L 16.278 192.792 15.197 192.917 L 14.115 193.042 14.004 197.913 L 13.892 202.783 12.711 202.783 L 11.531 202.783 11.531 208.946 L 11.531 215.109 10.381 215.109 C 8.803 215.109,8.748 215.388,8.748 223.267 L 8.748 230.166 7.654 230.292 L 6.561 230.417 6.455 242.644 C 6.354 254.466,6.325 254.871,5.575 254.871 C 4.046 254.871,3.976 255.812,3.976 276.525 L 3.976 296.640 5.161 296.877 L 6.347 297.114 6.454 305.714 L 6.561 314.314 7.654 314.440 C 8.255 314.509,8.748 314.809,8.748 315.107 C 8.748 316.215,9.973 316.899,11.957 316.899 C 13.869 316.899,13.917 316.927,13.917 318.091 C 13.917 319.146,14.052 319.284,15.083 319.284 C 16.060 319.284,16.270 319.462,16.375 320.378 C 16.496 321.426,16.604 321.476,18.986 321.590 L 21.471 321.708 21.471 323.081 C 21.471 324.341,21.569 324.453,22.664 324.453 C 23.657 324.453,23.857 324.613,23.857 325.405 C 23.857 326.529,24.503 326.839,26.845 326.839 C 28.437 326.839,28.585 326.926,28.701 327.932 C 28.799 328.778,29.065 329.053,29.875 329.147 C 30.676 329.240,30.979 329.545,31.157 330.440 C 31.386 331.580,31.454 331.610,33.787 331.610 C 36.068 331.610,36.183 331.657,36.183 332.590 C 36.183 333.802,37.210 334.394,39.311 334.394 C 40.750 334.394,40.913 334.497,41.027 335.487 C 41.148 336.535,41.257 336.585,43.638 336.699 C 46.099 336.816,46.123 336.829,46.123 337.991 C 46.123 339.019,46.265 339.165,47.266 339.165 C 48.218 339.165,48.449 339.364,48.648 340.358 C 48.882 341.525,48.939 341.551,51.282 341.551 C 53.517 341.551,53.678 341.612,53.678 342.465 C 53.678 343.842,54.431 344.334,56.541 344.334 C 57.930 344.334,58.449 344.489,58.449 344.902 C 58.449 346.015,59.660 346.720,61.571 346.720 C 63.287 346.720,63.482 346.820,63.894 347.913 C 64.343 349.102,64.352 349.105,67.560 349.105 L 70.775 349.105 70.775 350.298 L 70.775 351.491 73.360 351.491 C 75.842 351.491,75.944 351.530,75.944 352.471 C 75.944 353.851,77.011 354.274,80.491 354.274 L 83.499 354.274 83.499 355.467 C 83.499 356.658,83.503 356.660,85.853 356.660 C 88.145 356.660,88.214 356.691,88.469 357.853 L 88.731 359.046 92.278 359.046 L 95.825 359.046 95.825 360.239 L 95.825 361.431 99.602 361.431 L 103.380 361.431 103.380 362.617 C 103.380 364.060,104.096 364.309,107.766 364.137 L 110.338 364.016 110.463 362.724 C 110.572 361.587,110.728 361.431,111.755 361.431 C 112.787 361.431,112.922 361.293,112.922 360.239 C 112.922 359.236,113.079 359.046,113.903 359.046 C 115.114 359.046,115.706 358.019,115.706 355.917 C 115.706 354.478,115.810 354.315,116.799 354.201 C 117.705 354.097,117.914 353.858,118.015 352.807 C 118.116 351.764,118.328 351.517,119.208 351.416 C 120.212 351.300,120.286 351.154,120.396 349.052 C 120.508 346.924,120.573 346.800,121.688 346.577 C 122.833 346.348,122.863 346.282,122.863 343.946 L 122.863 341.551 124.254 341.551 C 125.536 341.551,125.646 341.456,125.646 340.358 C 125.646 339.366,125.806 339.165,126.594 339.165 C 127.642 339.165,128.017 338.328,128.026 335.972 C 128.031 334.779,128.211 334.500,129.225 334.118 L 130.417 333.667 130.417 329.060 L 130.417 324.453 129.274 324.453 C 128.322 324.453,128.091 324.254,127.893 323.260 L 127.654 322.068 124.066 322.068 L 120.477 322.068 120.477 320.875 L 120.477 319.682 118.091 319.682 C 115.725 319.682,115.706 319.672,115.706 318.532 C 115.706 317.172,115.168 316.899,112.492 316.899 C 110.585 316.899,110.537 316.869,110.537 315.706 C 110.537 314.514,110.534 314.513,108.178 314.513 C 105.899 314.513,105.814 314.475,105.692 313.419 C 105.572 312.372,105.463 312.321,103.082 312.208 L 100.596 312.089 100.596 310.717 C 100.596 309.456,100.694 309.344,101.789 309.344 C 102.850 309.344,102.982 309.211,102.982 308.151 C 102.982 306.406,105.638 306.314,105.838 308.052 C 105.957 309.084,106.090 309.152,108.204 309.263 C 110.332 309.375,110.457 309.440,110.680 310.555 L 110.915 311.730 114.503 311.730 C 117.982 311.730,118.091 311.757,118.091 312.644 C 118.091 314.189,118.825 314.513,122.320 314.513 L 125.593 314.513 125.719 315.606 L 125.845 316.700 129.523 316.814 L 133.201 316.928 133.201 318.106 L 133.201 319.284 136.730 319.284 L 140.258 319.284 140.497 320.477 L 140.736 321.670 145.517 321.670 C 150.241 321.670,150.298 321.681,150.298 322.584 C 150.298 324.288,150.904 324.453,157.137 324.453 L 163.022 324.453 163.022 325.405 C 163.022 326.776,163.436 326.839,172.398 326.839 C 179.951 326.839,180.517 326.889,180.517 327.555 C 180.517 329.226,180.503 329.225,204.090 329.225 L 226.709 329.225 227.159 328.032 L 227.610 326.839 235.177 326.834 C 243.885 326.827,244.533 326.728,244.533 325.401 L 244.533 324.453 250.417 324.453 C 256.650 324.453,257.256 324.288,257.256 322.584 C 257.256 321.681,257.314 321.670,262.038 321.670 L 266.819 321.670 267.058 320.477 L 267.296 319.284 271.389 319.284 C 276.163 319.284,276.740 319.130,276.740 317.850 C 276.740 316.944,276.869 316.897,279.423 316.859 C 282.981 316.806,284.066 316.475,284.222 315.391 C 284.334 314.623,284.592 314.513,286.277 314.513 C 288.917 314.513,289.463 314.235,289.463 312.895 L 289.463 311.761 292.925 311.646 C 296.251 311.535,296.397 311.492,296.619 310.537 C 296.827 309.644,297.093 309.522,299.221 309.344 C 301.453 309.157,301.598 309.082,301.716 308.052 C 301.916 306.314,304.573 306.406,304.573 308.151 C 304.573 309.211,304.705 309.344,305.765 309.344 C 306.864 309.344,306.958 309.454,306.958 310.736 L 306.958 312.127 304.573 312.127 L 302.187 312.127 302.187 313.320 L 302.187 314.513 299.602 314.513 L 297.018 314.513 297.018 315.686 C 297.018 316.835,296.971 316.861,294.732 316.978 C 292.471 317.096,292.444 317.112,292.321 318.390 L 292.196 319.682 288.921 319.682 C 285.542 319.682,284.692 320.017,284.692 321.352 C 284.692 321.942,284.356 322.068,282.783 322.068 C 280.766 322.068,279.920 322.561,279.920 323.738 C 279.920 324.290,279.604 324.453,278.529 324.453 L 277.137 324.453 277.137 329.060 L 277.137 333.667 278.286 334.101 C 279.250 334.465,279.473 334.819,279.678 336.313 C 279.957 338.351,280.494 339.165,281.560 339.165 C 282.124 339.165,282.306 339.456,282.306 340.358 C 282.306 341.414,282.441 341.551,283.480 341.551 C 284.642 341.551,284.655 341.575,284.772 344.036 C 284.886 346.417,284.936 346.526,285.984 346.647 C 287.005 346.764,287.078 346.897,287.078 348.655 C 287.078 350.635,287.574 351.491,288.722 351.491 C 289.211 351.491,289.449 351.869,289.537 352.783 C 289.647 353.915,289.820 354.091,290.935 354.199 C 292.188 354.320,292.210 354.358,292.327 356.584 C 292.439 358.723,292.505 358.854,293.539 358.973 C 294.455 359.078,294.632 359.288,294.632 360.265 C 294.632 361.290,294.773 361.431,295.800 361.431 C 296.827 361.431,296.983 361.587,297.092 362.724 C 297.310 364.985,304.175 364.885,304.175 362.621 L 304.175 361.461 307.853 361.347 L 311.531 361.233 311.657 360.139 C 311.782 359.050,311.794 359.046,314.909 359.046 C 318.105 359.046,319.284 358.556,319.284 357.228 C 319.284 356.801,319.899 356.650,321.769 356.620 C 325.130 356.567,326.215 356.221,326.370 355.153 C 326.481 354.385,326.739 354.274,328.425 354.274 C 331.062 354.274,331.610 353.996,331.610 352.660 C 331.610 351.550,331.657 351.527,334.095 351.411 C 336.477 351.297,336.586 351.247,336.706 350.199 C 336.831 349.111,336.848 349.105,339.907 349.105 C 343.048 349.105,343.936 348.749,343.936 347.487 C 343.936 346.970,344.466 346.763,346.319 346.553 C 348.413 346.316,348.732 346.165,348.947 345.309 C 349.132 344.571,349.456 344.334,350.282 344.334 C 352.332 344.334,353.877 343.549,353.877 342.506 C 353.877 341.618,354.024 341.551,355.984 341.551 C 358.188 341.551,359.046 341.083,359.046 339.881 C 359.046 339.291,359.381 339.165,360.954 339.165 C 362.959 339.165,363.817 338.672,363.817 337.520 C 363.817 337.032,364.195 336.793,365.109 336.705 C 366.180 336.602,366.423 336.396,366.526 335.506 C 366.642 334.496,366.784 334.425,368.911 334.313 C 371.144 334.196,371.175 334.178,371.298 332.903 C 371.421 331.622,371.441 331.610,373.545 331.610 C 375.534 331.610,375.693 331.537,376.073 330.447 C 376.372 329.589,376.774 329.250,377.603 329.155 C 378.495 329.052,378.754 328.800,378.853 327.932 C 378.969 326.926,379.118 326.839,380.710 326.839 C 383.040 326.839,383.698 326.529,383.698 325.430 C 383.698 324.676,383.938 324.481,384.990 324.379 C 386.122 324.270,386.298 324.096,386.405 322.981 C 386.527 321.729,386.565 321.706,388.791 321.590 C 390.930 321.478,391.061 321.411,391.179 320.378 C 391.285 319.462,391.495 319.284,392.472 319.284 C 393.503 319.284,393.638 319.146,393.638 318.091 C 393.638 316.927,393.686 316.899,395.598 316.899 C 397.598 316.899,398.807 316.214,398.807 315.081 C 398.807 314.769,399.076 314.513,399.404 314.513 C 399.930 314.513,400.000 309.565,400.000 272.366 C 400.000 235.167,399.930 230.219,399.404 230.219 C 398.896 230.219,398.807 229.167,398.803 223.161 C 398.797 214.432,398.623 213.190,397.363 212.874 C 396.445 212.643,396.421 212.528,396.421 208.339 C 396.421 203.208,396.297 202.783,394.788 202.783 L 393.638 202.783 393.638 197.813 L 393.638 192.843 392.458 192.843 L 391.277 192.843 391.165 187.972 L 391.054 183.101 389.975 182.977 C 388.898 182.853,388.896 182.845,388.782 179.200 L 388.668 175.547 387.575 175.421 L 386.481 175.295 386.481 171.786 C 386.481 168.095,386.328 167.793,384.461 167.793 C 383.765 167.793,383.698 167.477,383.698 164.215 L 383.698 160.636 382.505 160.636 L 381.312 160.636 381.312 157.222 L 381.312 153.808 380.136 153.364 C 379.033 152.947,378.953 152.771,378.844 150.516 C 378.734 148.233,378.673 148.105,377.653 147.987 C 376.643 147.871,376.572 147.729,376.460 145.602 C 376.343 143.369,376.325 143.338,375.050 143.215 L 373.757 143.091 373.757 139.816 C 373.757 136.436,373.422 135.586,372.087 135.586 C 371.498 135.586,371.372 135.251,371.372 133.678 C 371.372 131.660,370.879 130.815,369.702 130.815 C 369.109 130.815,368.986 130.477,368.986 128.855 C 368.986 126.890,368.303 125.646,367.224 125.646 C 366.905 125.646,366.622 124.892,366.475 123.649 C 366.181 121.170,366.002 120.875,364.788 120.875 C 363.881 120.875,363.817 120.737,363.817 118.767 C 363.817 116.563,363.349 115.706,362.147 115.706 C 361.617 115.706,361.431 115.397,361.431 114.513 C 361.431 113.457,361.297 113.320,360.258 113.320 C 359.095 113.320,359.082 113.295,358.965 110.835 C 358.852 108.453,358.801 108.345,357.753 108.224 C 356.732 108.107,356.660 107.974,356.660 106.216 C 356.660 104.140,356.164 103.380,354.811 103.380 C 354.002 103.380,353.905 103.163,353.797 101.110 C 353.689 99.059,353.582 98.818,352.684 98.609 C 351.916 98.431,351.661 98.087,351.565 97.102 C 351.456 95.983,351.296 95.825,350.273 95.825 C 349.143 95.825,349.105 95.763,349.105 93.917 C 349.105 91.899,348.612 91.054,347.435 91.054 C 346.911 91.054,346.720 90.746,346.720 89.903 C 346.720 88.734,346.146 88.270,344.699 88.270 C 344.053 88.270,343.936 87.978,343.936 86.362 C 343.936 83.975,343.465 83.499,341.100 83.499 C 339.342 83.499,339.210 83.427,339.092 82.406 L 338.966 81.312 335.312 81.198 L 331.659 81.084 331.535 79.806 C 331.414 78.553,331.370 78.527,329.206 78.412 C 327.172 78.304,326.966 78.204,326.556 77.120 L 326.113 75.944 322.699 75.944 L 319.284 75.944 319.284 74.751 L 319.284 73.559 316.700 73.559 L 314.115 73.559 314.115 72.366 L 314.115 71.173 310.537 71.173 C 307.268 71.173,306.958 71.107,306.958 70.406 C 306.958 68.747,305.973 68.390,301.390 68.390 L 297.071 68.390 296.945 67.296 L 296.819 66.203 293.166 66.089 C 289.521 65.975,289.513 65.972,289.389 64.896 L 289.264 63.817 284.394 63.705 C 280.042 63.606,279.523 63.519,279.523 62.890 C 279.523 61.427,278.744 61.233,272.883 61.233 C 267.532 61.233,267.197 61.187,267.197 60.466 C 267.197 58.763,266.205 58.416,261.688 58.536 L 257.455 58.648 257.331 59.940 C 257.221 61.077,257.065 61.233,256.038 61.233 C 254.876 61.233,254.871 61.244,254.871 63.618 L 254.871 66.004 253.678 66.004 L 252.485 66.004 252.485 68.563 L 252.485 71.123 251.193 71.247 C 249.915 71.370,249.899 71.398,249.781 73.658 C 249.670 75.784,249.594 75.944,248.693 75.944 C 247.867 75.944,247.685 76.183,247.465 77.560 C 247.283 78.699,247.082 79.050,246.784 78.752 C 246.507 78.475,242.637 78.330,235.507 78.330 C 225.153 78.330,224.652 78.296,224.652 77.583 C 224.652 75.954,224.361 75.933,203.335 76.040 L 183.101 76.143 182.976 77.237 L 182.850 78.330 171.544 78.330 L 160.239 78.330 160.239 77.137 C 160.239 76.081,160.104 75.944,159.066 75.944 C 157.916 75.944,157.890 75.898,157.773 73.658 C 157.661 71.504,157.592 71.365,156.579 71.248 C 155.555 71.130,155.498 71.007,155.386 68.663 C 155.269 66.206,155.267 66.203,153.976 66.078 L 152.684 65.954 152.684 63.593 C 152.684 61.247,152.677 61.233,151.516 61.233 C 150.490 61.233,150.334 61.077,150.224 59.940 L 150.099 58.648 145.866 58.536 C 142.407 58.444,141.517 58.540,140.996 59.061 M140.497 188.867 L 140.736 190.060 145.517 190.060 L 150.298 190.060 150.298 191.252 C 150.298 192.351,150.409 192.445,151.690 192.445 C 152.902 192.445,153.082 192.571,153.082 193.421 C 153.082 194.423,154.782 195.221,156.932 195.226 C 157.583 195.228,157.832 195.502,157.926 196.322 C 158.024 197.174,158.288 197.443,159.121 197.539 C 159.947 197.634,160.218 197.905,160.314 198.732 C 160.416 199.616,160.661 199.823,161.730 199.926 C 162.866 200.035,163.022 200.191,163.022 201.218 C 163.022 202.250,163.160 202.386,164.215 202.386 L 165.408 202.386 165.408 204.781 C 165.408 207.117,165.437 207.183,166.582 207.412 C 167.697 207.635,167.762 207.759,167.874 209.887 C 167.985 212.001,168.053 212.134,169.085 212.253 L 170.179 212.379 170.179 218.089 C 170.179 224.156,170.438 225.050,172.195 225.050 C 172.782 225.050,172.962 225.330,172.962 226.243 C 172.962 227.156,172.782 227.435,172.195 227.435 C 170.438 227.435,170.179 228.329,170.179 234.396 L 170.179 240.106 169.085 240.232 C 168.052 240.351,167.986 240.482,167.874 242.620 C 167.762 244.747,167.691 244.889,166.681 245.005 C 165.656 245.123,165.601 245.244,165.488 247.614 C 165.371 250.075,165.358 250.099,164.196 250.099 C 163.162 250.099,163.022 250.239,163.022 251.267 C 163.022 252.294,162.866 252.450,161.730 252.559 C 160.661 252.662,160.416 252.869,160.314 253.753 C 160.218 254.580,159.947 254.851,159.121 254.946 C 158.306 255.040,158.023 255.315,157.932 256.102 C 157.824 257.028,157.579 257.171,155.546 257.493 C 153.474 257.822,153.270 257.947,153.155 258.946 C 153.044 259.902,152.857 260.040,151.663 260.040 C 150.412 260.040,150.298 260.139,150.298 261.233 L 150.298 262.425 145.805 262.425 C 141.170 262.425,140.358 262.674,140.358 264.095 C 140.358 264.648,140.041 264.811,138.966 264.811 C 137.763 264.811,137.575 264.682,137.575 263.860 C 137.575 262.580,136.998 262.425,132.224 262.425 L 128.131 262.425 127.893 261.233 C 127.660 260.067,127.599 260.040,125.284 260.040 L 122.913 260.040 122.789 258.748 C 122.686 257.679,122.479 257.434,121.595 257.332 C 120.768 257.236,120.497 256.965,120.402 256.139 C 120.300 255.254,120.055 255.048,118.986 254.945 C 117.919 254.842,117.694 254.653,117.694 253.859 C 117.694 253.177,117.418 252.829,116.743 252.659 C 116.096 252.497,115.718 252.050,115.560 251.260 C 115.366 250.291,115.134 250.099,114.150 250.099 C 113.113 250.099,112.958 249.946,112.848 248.807 C 112.745 247.737,112.539 247.494,111.649 247.391 C 110.639 247.274,110.568 247.133,110.456 245.005 C 110.344 242.868,110.278 242.737,109.245 242.618 C 108.209 242.499,108.151 242.382,108.147 240.431 C 108.139 236.804,107.758 235.404,106.706 235.140 L 105.765 234.904 105.765 226.001 L 105.765 217.097 106.707 217.097 C 107.771 217.097,108.139 215.810,108.147 212.054 C 108.151 210.103,108.209 209.986,109.245 209.867 C 110.278 209.748,110.344 209.618,110.456 207.480 C 110.568 205.353,110.639 205.211,111.649 205.094 C 112.539 204.991,112.745 204.748,112.848 203.678 C 112.958 202.539,113.113 202.386,114.150 202.386 C 115.134 202.386,115.366 202.194,115.560 201.225 C 115.716 200.447,116.097 199.988,116.717 199.832 C 117.356 199.672,117.680 199.263,117.767 198.508 C 117.866 197.650,118.128 197.388,118.985 197.290 C 119.748 197.202,120.149 196.879,120.315 196.219 C 120.478 195.569,120.882 195.236,121.608 195.152 C 122.478 195.051,122.686 194.802,122.789 193.738 L 122.913 192.445 125.284 192.445 C 127.599 192.445,127.660 192.418,127.893 191.252 L 128.131 190.060 132.689 190.060 L 137.246 190.060 137.696 188.867 C 138.041 187.954,138.394 187.674,139.202 187.674 C 140.058 187.674,140.304 187.901,140.497 188.867 M270.469 189.563 C 270.747 189.904,272.208 190.060,275.148 190.060 L 279.423 190.060 279.662 191.252 C 279.895 192.419,279.953 192.445,282.296 192.445 C 284.577 192.445,284.692 192.492,284.692 193.425 C 284.692 194.637,285.719 195.229,287.820 195.229 C 289.259 195.229,289.422 195.332,289.536 196.322 C 289.641 197.233,289.878 197.436,290.954 197.540 C 292.091 197.650,292.247 197.806,292.247 198.832 C 292.247 199.865,292.385 200.000,293.439 200.000 C 294.622 200.000,294.632 200.018,294.632 202.221 C 294.632 204.325,294.696 204.467,295.825 204.893 C 296.890 205.295,297.018 205.522,297.018 207.017 C 297.018 208.728,297.771 209.940,298.836 209.940 C 299.256 209.940,299.404 210.486,299.404 212.048 C 299.404 214.348,299.868 215.109,301.272 215.109 L 302.187 215.109 302.187 226.243 C 302.187 236.952,302.158 237.376,301.424 237.376 C 299.687 237.376,299.404 237.768,299.404 240.175 C 299.404 242.407,299.363 242.497,298.310 242.618 C 297.277 242.737,297.210 242.868,297.098 245.002 C 296.986 247.144,296.919 247.275,295.806 247.519 C 294.667 247.769,294.632 247.847,294.632 250.131 C 294.632 252.482,294.630 252.485,293.439 252.485 C 292.379 252.485,292.247 252.618,292.247 253.678 C 292.247 254.842,292.199 254.871,290.287 254.871 C 288.306 254.871,287.078 255.555,287.078 256.657 C 287.078 256.952,286.541 257.311,285.885 257.455 C 284.897 257.672,284.692 257.914,284.692 258.859 C 284.692 259.968,284.629 260.003,282.422 260.119 C 280.371 260.227,280.129 260.335,279.920 261.233 C 279.691 262.209,279.610 262.229,275.354 262.340 C 270.918 262.457,269.980 262.758,269.980 264.065 C 269.980 265.483,267.350 265.081,267.058 263.618 L 266.819 262.425 263.231 262.425 C 260.040 262.425,259.642 262.346,259.642 261.710 C 259.642 260.508,258.785 260.040,256.581 260.040 C 254.521 260.040,254.473 260.013,254.473 258.889 C 254.473 257.552,253.928 257.256,251.459 257.256 C 249.772 257.256,249.702 257.209,249.702 256.064 C 249.702 255.003,249.569 254.871,248.509 254.871 C 247.449 254.871,247.316 254.738,247.316 253.678 C 247.316 252.583,247.203 252.485,245.944 252.485 L 244.572 252.485 244.453 250.215 C 244.345 248.164,244.238 247.923,243.340 247.714 C 242.572 247.536,242.318 247.193,242.221 246.207 C 242.112 245.088,241.953 244.930,240.929 244.930 L 239.761 244.930 239.761 241.981 C 239.761 238.389,239.552 237.773,238.327 237.773 L 237.376 237.773 237.376 226.243 C 237.376 215.404,237.419 214.712,238.091 214.712 C 239.407 214.712,239.761 213.857,239.761 210.682 C 239.761 207.625,239.768 207.607,240.853 207.482 C 241.711 207.383,241.988 207.105,242.146 206.181 C 242.291 205.338,242.628 204.940,243.341 204.773 C 244.236 204.563,244.346 204.318,244.453 202.294 C 244.569 200.086,244.593 200.045,245.844 199.924 C 246.893 199.823,247.139 199.612,247.241 198.732 C 247.336 197.905,247.607 197.634,248.434 197.539 C 249.252 197.445,249.531 197.171,249.624 196.375 C 249.731 195.446,249.957 195.309,251.721 195.100 C 254.177 194.809,254.473 194.628,254.473 193.416 C 254.473 192.509,254.611 192.445,256.581 192.445 C 258.785 192.445,259.642 191.978,259.642 190.775 C 259.642 190.130,260.068 190.060,263.988 190.060 C 268.522 190.060,269.520 189.720,269.629 188.143 C 269.663 187.644,269.724 187.676,269.870 188.270 C 269.978 188.708,270.247 189.289,270.469 189.563 " stroke="none" fill="#4c5464" fill-rule="evenodd"></path><path id="path1" d="" stroke="none" fill="#505464" fill-rule="evenodd"></path><path id="path2" d="" stroke="none" fill="#505464" fill-rule="evenodd"></path><path id="path3" d="" stroke="none" fill="#505464" fill-rule="evenodd"></path><path id="path4" d="" stroke="none" fill="#505464" fill-rule="evenodd"></path></g></svg>