<svg id="svg" version="1.1" xmlns="http://www.w3.org/2000/svg" xmlns:xlink="http://www.w3.org/1999/xlink" width="400" height="400" viewBox="0, 0, 400,400"><g id="svgg"><path id="path0" d="M103.615 19.590 C 103.335 19.764,103.036 20.503,102.951 21.234 C 102.724 23.183,102.656 23.204,96.451 23.238 C 90.993 23.268,90.734 23.306,90.400 24.134 L 90.051 25.000 90.025 24.095 C 90.001 23.214,89.961 23.206,88.585 23.780 C 87.807 24.106,87.278 24.198,87.409 23.986 C 87.748 23.437,87.053 23.507,86.480 24.080 C 85.849 24.711,85.863 25.325,86.500 24.965 C 86.900 24.739,86.900 24.790,86.500 25.221 C 86.225 25.518,86.000 26.084,86.000 26.480 C 86.000 26.876,85.730 27.200,85.400 27.200 C 85.070 27.200,84.797 27.425,84.794 27.700 C 84.789 28.057,84.704 28.071,84.494 27.747 C 83.957 26.921,82.060 27.212,81.876 28.150 C 81.715 28.967,81.707 28.965,81.654 28.097 C 81.606 27.290,81.408 27.201,79.795 27.262 C 77.682 27.342,77.366 27.655,77.250 29.785 C 77.138 31.841,77.394 31.727,73.022 31.664 L 69.229 31.610 69.266 33.420 C 69.312 35.736,69.481 35.637,65.438 35.671 C 63.539 35.688,61.886 35.861,61.765 36.057 C 61.644 36.253,61.377 36.309,61.172 36.183 C 60.961 36.052,60.800 36.829,60.800 37.976 L 60.800 40.000 59.233 40.000 C 56.739 40.000,56.400 40.268,56.400 42.243 C 56.400 44.076,56.262 44.186,54.166 44.024 C 52.953 43.931,52.293 44.962,52.458 46.692 L 52.602 48.200 50.401 48.200 L 48.200 48.200 48.143 50.150 C 48.080 52.279,47.661 52.777,46.172 52.493 C 44.892 52.248,43.938 53.079,44.019 54.368 C 44.144 56.334,44.078 56.400,42.000 56.400 L 40.000 56.400 40.000 58.600 L 40.000 60.800 38.700 60.846 C 36.894 60.910,36.600 60.965,36.600 61.239 C 36.600 61.370,36.392 61.730,36.138 62.039 C 35.412 62.920,35.555 65.523,36.340 65.732 C 36.920 65.886,36.915 65.913,36.300 65.954 C 35.758 65.990,35.600 66.361,35.600 67.600 C 35.600 69.316,35.455 69.396,32.666 69.209 L 31.531 69.132 31.611 71.866 C 31.773 77.396,31.838 77.200,29.849 77.200 C 27.616 77.200,27.123 77.811,27.204 80.477 C 27.367 85.881,27.389 85.809,25.584 85.856 C 23.686 85.906,23.770 85.842,23.415 87.500 C 23.164 88.670,23.229 88.803,24.068 88.825 L 25.000 88.851 24.126 89.203 C 23.279 89.544,23.251 89.758,23.235 95.848 C 23.217 102.663,23.201 102.722,21.234 102.951 C 19.441 103.160,19.305 103.501,19.283 107.818 C 19.268 110.979,19.368 111.581,19.932 111.731 C 20.543 111.892,20.542 111.911,19.917 111.954 C 19.276 111.997,19.235 117.547,19.237 203.802 L 19.240 295.603 20.254 296.618 C 20.909 297.272,21.529 297.550,22.002 297.399 C 23.076 297.058,23.261 298.069,23.250 304.221 C 23.242 308.318,23.356 309.553,23.720 309.335 C 24.058 309.132,24.050 309.232,23.693 309.673 C 23.414 310.017,23.305 310.607,23.449 310.984 C 23.594 311.362,23.754 312.060,23.805 312.535 C 23.956 313.945,23.981 314.000,24.449 314.000 C 24.730 314.000,24.767 313.805,24.549 313.481 C 24.357 313.196,24.510 313.300,24.889 313.712 C 25.341 314.204,25.856 314.373,26.389 314.204 C 27.018 314.004,27.200 314.124,27.200 314.740 C 27.200 315.176,27.425 315.624,27.700 315.735 C 28.100 315.896,28.100 315.943,27.700 315.968 C 27.425 315.986,27.200 316.281,27.200 316.624 C 27.200 316.967,27.368 317.144,27.572 317.017 C 27.777 316.891,28.061 316.974,28.202 317.203 C 28.344 317.432,28.221 317.570,27.930 317.510 C 27.339 317.387,26.978 320.260,27.381 321.868 C 27.589 322.695,27.850 322.800,29.708 322.800 L 31.800 322.799 31.705 326.500 C 31.591 330.933,31.726 331.520,32.682 330.745 C 33.144 330.370,33.260 330.356,33.053 330.700 C 32.835 331.063,33.144 331.200,34.176 331.200 C 35.732 331.200,35.792 331.373,35.605 335.344 C 35.553 336.446,35.668 336.805,36.006 336.596 C 36.366 336.374,36.365 336.518,36.000 337.200 C 35.292 338.522,36.678 339.908,38.000 339.200 C 38.593 338.883,38.805 338.869,38.625 339.160 C 38.462 339.424,38.673 339.600,39.154 339.600 C 39.827 339.600,39.976 339.906,40.078 341.500 L 40.200 343.400 42.100 343.522 L 44.000 343.644 44.000 345.614 C 44.000 347.775,44.683 348.284,47.105 347.928 C 48.186 347.770,48.199 347.795,48.145 349.884 L 48.091 352.000 50.245 352.000 L 52.400 352.000 52.400 353.992 C 52.400 356.044,53.340 356.892,54.935 356.280 C 55.231 356.167,55.721 356.228,56.026 356.416 C 56.352 356.618,56.683 356.589,56.834 356.345 C 56.987 356.097,57.185 356.183,57.330 356.562 C 57.474 356.938,57.376 357.152,57.086 357.095 C 56.328 356.947,56.411 359.741,57.173 360.072 C 58.238 360.534,58.734 360.429,58.924 359.700 C 59.098 359.033,59.109 359.033,59.154 359.700 C 59.181 360.118,59.522 360.400,60.000 360.400 C 60.610 360.400,60.800 360.667,60.800 361.520 C 60.800 362.136,61.025 362.882,61.300 363.179 C 61.700 363.610,61.700 363.661,61.300 363.435 C 61.025 363.280,60.800 363.324,60.800 363.534 C 60.800 364.627,65.441 364.784,65.724 363.700 C 65.889 363.068,65.912 363.072,65.954 363.742 C 65.992 364.361,66.265 364.459,67.600 364.331 C 69.141 364.184,69.201 364.224,69.239 365.389 C 69.329 368.134,69.423 368.599,69.900 368.648 C 70.175 368.677,72.335 368.747,74.700 368.804 C 77.065 368.862,78.595 368.987,78.100 369.082 C 77.465 369.205,77.200 369.538,77.200 370.215 C 77.200 370.954,77.361 371.119,77.900 370.934 C 78.469 370.738,78.450 370.813,77.800 371.333 C 77.307 371.728,77.201 371.979,77.524 371.987 C 77.812 371.994,77.936 372.180,77.800 372.400 C 77.664 372.620,77.934 372.800,78.400 372.800 C 78.939 372.800,79.143 372.632,78.962 372.338 C 78.766 372.022,78.854 371.987,79.238 372.227 C 80.420 372.963,81.308 372.856,81.085 372.004 C 80.969 371.561,81.038 371.300,81.237 371.423 C 81.437 371.546,81.600 371.907,81.600 372.224 C 81.600 372.638,82.094 372.800,83.354 372.800 C 84.319 372.800,85.624 373.069,86.254 373.398 C 87.304 373.945,87.325 373.995,86.500 373.998 C 85.626 374.000,85.293 374.759,85.900 375.367 C 86.065 375.532,86.204 375.877,86.210 376.133 C 86.215 376.390,86.530 376.575,86.910 376.544 C 87.289 376.514,87.600 376.623,87.600 376.787 C 87.600 376.951,90.962 377.112,95.070 377.146 C 103.441 377.214,102.839 377.090,102.887 378.760 C 102.920 379.945,103.772 381.161,104.240 380.694 C 104.361 380.572,105.010 380.631,105.681 380.823 C 106.457 381.046,107.193 381.018,107.699 380.747 C 108.274 380.439,108.421 380.443,108.225 380.760 C 108.042 381.055,108.544 381.200,109.747 381.200 C 111.120 381.200,111.584 381.035,111.724 380.500 C 111.898 379.833,111.909 379.833,111.954 380.500 C 112.005 381.282,114.000 381.527,114.000 380.751 C 114.000 380.422,114.143 380.421,114.533 380.745 C 115.297 381.378,285.100 381.381,285.864 380.747 C 286.258 380.420,286.400 380.421,286.400 380.751 C 286.400 381.539,289.514 381.304,289.724 380.500 C 289.898 379.833,289.909 379.833,289.954 380.500 C 289.989 381.027,290.352 381.200,291.424 381.200 C 292.456 381.200,292.765 381.063,292.547 380.700 C 292.313 380.311,292.386 380.313,292.875 380.709 C 293.329 381.077,293.791 381.108,294.548 380.820 C 295.123 380.601,295.851 380.521,296.166 380.642 C 296.937 380.938,297.731 379.376,297.426 378.163 C 297.191 377.226,297.249 377.200,299.592 377.200 C 301.249 377.200,302.002 377.044,302.006 376.700 C 302.011 376.314,302.082 376.310,302.320 376.684 C 302.685 377.259,310.800 377.319,310.800 376.746 C 310.800 376.547,311.250 376.498,311.800 376.636 C 312.403 376.787,312.800 376.716,312.800 376.456 C 312.800 376.217,313.099 376.140,313.469 376.282 C 313.977 376.477,314.077 376.377,313.882 375.869 C 313.740 375.499,313.817 375.200,314.056 375.200 C 314.317 375.200,314.387 374.802,314.234 374.191 C 313.898 372.854,314.475 372.663,318.975 372.628 L 322.600 372.600 322.633 370.901 C 322.675 368.692,322.551 368.760,326.565 368.760 C 329.147 368.760,329.950 368.639,329.734 368.280 C 329.524 367.929,329.611 367.933,330.060 368.297 C 330.933 369.003,331.200 368.542,331.200 366.333 C 331.200 364.138,330.795 364.292,336.300 364.397 C 338.429 364.438,339.217 364.312,339.265 363.926 C 339.302 363.637,339.362 362.544,339.401 361.498 C 339.439 360.452,339.605 359.462,339.769 359.298 C 339.933 359.134,340.007 359.270,339.933 359.600 C 339.830 360.064,340.207 360.200,341.600 360.200 L 343.400 360.200 343.633 357.800 C 343.761 356.480,343.896 355.635,343.933 355.922 C 344.064 356.938,347.777 356.360,347.928 355.300 C 348.010 354.719,347.849 354.400,347.471 354.400 C 347.149 354.400,346.766 354.085,346.619 353.700 C 346.405 353.139,346.452 353.099,346.856 353.500 C 347.133 353.775,347.474 354.000,347.613 354.000 C 348.046 354.000,347.904 352.616,347.439 352.306 C 347.030 352.032,348.336 351.819,349.500 351.970 C 349.775 352.006,350.000 351.883,350.000 351.698 C 350.000 351.512,349.775 351.133,349.500 350.856 C 349.099 350.452,349.139 350.405,349.700 350.619 C 350.085 350.766,350.400 351.136,350.400 351.443 C 350.400 351.749,350.760 352.000,351.200 352.000 C 351.733 352.000,352.000 351.733,352.000 351.200 C 352.000 350.760,351.749 350.400,351.443 350.400 C 351.136 350.400,350.766 350.085,350.619 349.700 C 350.405 349.139,350.452 349.099,350.856 349.500 C 351.503 350.141,352.053 350.141,351.970 349.500 C 351.807 348.242,352.084 348.037,354.100 347.921 L 356.200 347.800 356.269 345.696 C 356.318 344.185,356.205 343.667,355.869 343.860 C 355.602 344.013,355.542 343.973,355.731 343.766 C 355.913 343.567,356.993 343.403,358.131 343.402 C 360.317 343.400,361.522 341.946,359.723 341.480 C 359.042 341.304,359.043 341.290,359.743 341.246 C 360.200 341.218,360.404 340.988,360.274 340.649 C 360.001 339.937,360.737 339.201,361.449 339.474 C 361.752 339.590,362.315 339.547,362.700 339.377 C 363.085 339.208,363.578 339.054,363.795 339.035 C 364.550 338.969,364.507 335.467,363.744 334.910 C 363.086 334.428,363.088 334.400,363.776 334.400 C 364.396 334.400,364.473 334.160,364.291 332.800 L 364.076 331.200 366.171 331.200 C 368.539 331.200,369.013 330.946,368.297 330.060 C 367.942 329.622,367.936 329.528,368.276 329.732 C 368.630 329.944,368.755 328.980,368.766 325.938 C 368.774 323.695,368.960 321.680,369.181 321.459 C 369.448 321.192,369.530 321.327,369.426 321.865 C 369.290 322.572,369.477 322.669,370.951 322.651 L 372.631 322.631 372.651 320.951 C 372.668 319.521,372.560 319.292,371.925 319.414 C 371.514 319.494,371.284 319.388,371.413 319.179 C 371.542 318.971,371.915 318.800,372.243 318.800 C 372.704 318.800,372.819 318.347,372.748 316.805 C 372.639 314.407,372.584 314.474,374.813 314.306 C 376.209 314.201,376.588 314.021,376.544 313.486 C 376.514 313.109,376.629 312.800,376.801 312.800 C 377.682 312.800,377.193 307.655,376.295 307.482 C 375.421 307.313,375.420 307.308,376.259 307.254 C 377.260 307.191,377.629 302.921,376.686 302.321 C 376.309 302.081,376.312 302.011,376.700 302.006 C 377.044 302.002,377.200 301.249,377.200 299.592 C 377.200 297.243,377.224 297.191,378.171 297.428 C 379.515 297.766,380.572 297.069,380.750 295.728 C 381.392 290.893,381.156 159.246,380.505 159.077 C 379.866 158.910,379.870 158.888,380.547 158.846 C 381.119 158.811,381.237 158.590,381.052 157.900 C 380.919 157.405,380.808 156.854,380.805 156.676 C 380.802 156.498,380.125 156.408,379.300 156.476 C 378.212 156.566,377.837 156.765,377.933 157.200 C 378.007 157.530,377.917 157.650,377.733 157.467 C 377.399 157.133,377.343 156.936,377.250 155.776 C 377.219 155.389,377.010 155.267,376.700 155.453 C 376.411 155.627,376.453 155.439,376.800 155.007 C 377.356 154.316,377.333 154.279,376.477 154.499 C 375.866 154.657,375.610 154.579,375.719 154.269 C 375.809 154.011,376.204 153.859,376.596 153.930 C 377.117 154.025,377.240 153.882,377.054 153.397 C 376.914 153.033,376.800 152.659,376.800 152.567 C 376.800 152.475,375.979 152.400,374.976 152.400 C 373.624 152.400,373.230 152.529,373.453 152.900 C 373.691 153.297,373.625 153.296,373.133 152.897 C 372.762 152.597,372.586 152.008,372.696 151.434 C 372.828 150.740,372.674 150.421,372.140 150.283 C 371.561 150.134,371.541 150.083,372.050 150.046 C 373.013 149.978,372.909 148.178,371.938 148.105 C 371.445 148.068,371.215 148.272,371.288 148.682 C 371.350 149.031,371.189 149.391,370.931 149.481 C 370.621 149.590,370.543 149.334,370.701 148.723 C 370.921 147.867,370.884 147.844,370.193 148.400 C 369.761 148.747,369.573 148.789,369.747 148.500 C 369.912 148.225,369.872 148.000,369.657 148.000 C 369.442 148.000,369.176 148.225,369.065 148.500 C 368.954 148.775,368.849 148.091,368.832 146.980 C 368.814 145.869,368.584 144.744,368.320 144.480 C 367.651 143.811,364.650 143.830,365.053 144.500 C 365.291 144.897,365.225 144.896,364.733 144.497 C 364.348 144.186,364.185 143.610,364.306 142.981 C 364.412 142.423,364.342 142.019,364.150 142.083 C 363.957 142.148,363.800 142.020,363.800 141.800 C 363.800 141.580,363.935 141.445,364.100 141.500 C 364.265 141.555,364.400 141.278,364.400 140.885 C 364.400 139.961,362.909 139.824,362.671 140.727 C 362.520 141.299,362.486 141.288,362.446 140.653 C 362.411 140.081,362.168 139.951,361.403 140.097 C 360.791 140.214,360.211 140.048,359.903 139.667 C 359.504 139.175,359.503 139.109,359.900 139.347 C 360.266 139.567,360.400 139.226,360.400 138.073 C 360.400 136.393,359.713 135.493,358.524 135.617 C 357.032 135.772,356.400 135.582,356.400 134.976 C 356.400 134.584,356.215 134.464,355.900 134.653 C 355.611 134.827,355.653 134.639,356.000 134.207 C 356.556 133.516,356.533 133.479,355.677 133.699 C 355.066 133.857,354.810 133.779,354.919 133.469 C 355.009 133.211,355.369 133.050,355.718 133.112 C 356.128 133.185,356.332 132.955,356.295 132.462 C 356.223 131.505,354.516 131.411,354.266 132.350 C 354.117 132.908,354.086 132.901,354.046 132.300 C 354.018 131.875,353.676 131.600,353.176 131.600 C 352.628 131.600,352.451 131.767,352.645 132.100 C 352.806 132.375,352.547 132.257,352.069 131.838 C 351.169 131.049,350.900 130.567,351.600 131.000 C 351.820 131.136,352.000 130.890,352.000 130.453 C 352.000 130.016,351.685 129.576,351.300 129.476 C 350.711 129.322,350.703 129.285,351.250 129.246 C 352.213 129.178,352.109 127.378,351.138 127.305 C 350.645 127.268,350.415 127.472,350.488 127.882 C 350.550 128.231,350.389 128.591,350.131 128.681 C 349.821 128.790,349.743 128.534,349.901 127.923 C 350.121 127.067,350.084 127.044,349.393 127.600 C 348.961 127.947,348.773 127.989,348.947 127.700 C 349.136 127.385,349.016 127.200,348.624 127.200 C 348.281 127.200,348.000 126.919,348.000 126.576 C 348.000 126.184,347.815 126.064,347.500 126.253 C 347.155 126.460,347.169 126.345,347.545 125.882 C 348.666 124.499,347.805 123.200,345.769 123.200 C 344.422 123.200,344.030 123.329,344.253 123.700 C 344.491 124.097,344.425 124.096,343.933 123.697 C 343.562 123.397,343.386 122.808,343.496 122.234 C 343.628 121.540,343.474 121.221,342.940 121.083 C 342.318 120.923,342.308 120.885,342.875 120.846 C 343.808 120.782,343.654 119.200,342.715 119.200 C 342.322 119.200,342.045 119.335,342.100 119.500 C 342.155 119.665,342.020 119.800,341.800 119.800 C 341.580 119.800,341.452 119.643,341.517 119.450 C 341.581 119.258,341.177 119.188,340.619 119.294 C 339.990 119.415,339.414 119.252,339.103 118.867 C 338.704 118.375,338.703 118.309,339.100 118.547 C 339.770 118.950,339.789 115.949,339.120 115.280 C 338.856 115.016,337.731 114.786,336.620 114.768 C 335.509 114.751,334.825 114.646,335.100 114.535 C 335.375 114.424,335.600 114.158,335.600 113.943 C 335.600 113.728,335.375 113.688,335.100 113.853 C 334.811 114.027,334.853 113.839,335.200 113.407 C 335.756 112.716,335.733 112.679,334.877 112.899 C 334.266 113.057,334.010 112.979,334.119 112.669 C 334.209 112.411,334.569 112.250,334.918 112.312 C 335.328 112.385,335.532 112.155,335.495 111.662 C 335.423 110.705,333.716 110.611,333.466 111.550 C 333.327 112.073,333.284 112.054,333.246 111.453 C 333.211 110.881,332.968 110.751,332.203 110.897 C 331.591 111.014,331.011 110.848,330.703 110.467 C 330.304 109.975,330.303 109.909,330.700 110.147 C 331.070 110.369,331.200 109.985,331.200 108.666 C 331.200 107.412,331.013 106.814,330.567 106.643 C 329.643 106.288,329.553 106.331,329.682 107.059 C 329.747 107.421,329.589 107.791,329.331 107.881 C 329.021 107.990,328.943 107.734,329.101 107.123 C 329.321 106.267,329.284 106.244,328.593 106.800 C 328.161 107.147,327.973 107.189,328.147 106.900 C 328.336 106.585,328.216 106.400,327.824 106.400 C 327.481 106.400,327.200 106.119,327.200 105.776 C 327.200 105.384,327.015 105.264,326.700 105.453 C 326.411 105.627,326.453 105.439,326.800 105.007 C 327.356 104.316,327.333 104.279,326.477 104.499 C 325.866 104.657,325.610 104.579,325.719 104.269 C 325.809 104.011,326.204 103.859,326.596 103.930 C 327.117 104.025,327.240 103.882,327.054 103.397 C 326.914 103.033,326.800 102.659,326.800 102.567 C 326.800 102.475,325.979 102.400,324.976 102.400 C 323.624 102.400,323.230 102.529,323.453 102.900 C 323.691 103.297,323.625 103.296,323.133 102.897 C 322.762 102.597,322.586 102.008,322.696 101.434 C 322.828 100.740,322.674 100.421,322.140 100.283 C 321.561 100.134,321.541 100.083,322.050 100.046 C 323.013 99.978,322.909 98.178,321.938 98.105 C 321.445 98.068,321.215 98.272,321.288 98.682 C 321.350 99.031,321.189 99.391,320.931 99.481 C 320.621 99.590,320.543 99.334,320.701 98.723 C 320.921 97.867,320.884 97.844,320.193 98.400 C 319.761 98.747,319.573 98.789,319.747 98.500 C 319.912 98.225,319.872 98.000,319.657 98.000 C 319.442 98.000,319.176 98.225,319.065 98.500 C 318.954 98.775,318.849 98.091,318.832 96.980 C 318.814 95.869,318.584 94.744,318.320 94.480 C 317.651 93.811,314.650 93.830,315.053 94.500 C 315.291 94.897,315.225 94.896,314.733 94.497 C 314.348 94.186,314.185 93.610,314.306 92.981 C 314.412 92.423,314.342 92.019,314.150 92.083 C 313.957 92.148,313.800 92.020,313.800 91.800 C 313.800 91.580,313.935 91.445,314.100 91.500 C 314.265 91.555,314.400 91.278,314.400 90.885 C 314.400 89.961,312.909 89.824,312.671 90.727 C 312.520 91.299,312.486 91.288,312.446 90.653 C 312.411 90.081,312.168 89.951,311.403 90.097 C 310.791 90.214,310.211 90.048,309.903 89.667 C 309.504 89.175,309.503 89.109,309.900 89.347 C 310.266 89.567,310.400 89.226,310.400 88.073 C 310.400 86.393,309.713 85.493,308.524 85.617 C 307.032 85.772,306.400 85.582,306.400 84.976 C 306.400 84.584,306.215 84.464,305.900 84.653 C 305.611 84.827,305.653 84.639,306.000 84.207 C 306.556 83.516,306.533 83.479,305.677 83.699 C 305.066 83.857,304.810 83.779,304.919 83.469 C 305.009 83.211,305.369 83.050,305.718 83.112 C 306.128 83.185,306.332 82.955,306.295 82.462 C 306.223 81.505,304.516 81.411,304.266 82.350 C 304.117 82.908,304.086 82.901,304.046 82.300 C 304.018 81.875,303.676 81.600,303.176 81.600 C 302.628 81.600,302.451 81.767,302.645 82.100 C 302.806 82.375,302.547 82.257,302.069 81.838 C 301.169 81.049,300.900 80.567,301.600 81.000 C 301.820 81.136,302.000 80.890,302.000 80.453 C 302.000 80.016,301.685 79.576,301.300 79.476 C 300.711 79.322,300.703 79.285,301.250 79.246 C 302.213 79.178,302.109 77.378,301.138 77.305 C 300.645 77.268,300.415 77.472,300.488 77.882 C 300.550 78.231,300.389 78.591,300.131 78.681 C 299.821 78.790,299.743 78.534,299.901 77.923 C 300.121 77.067,300.084 77.044,299.393 77.600 C 298.961 77.947,298.773 77.989,298.947 77.700 C 299.136 77.385,299.016 77.200,298.624 77.200 C 298.281 77.200,298.000 76.919,298.000 76.576 C 298.000 76.184,297.815 76.064,297.500 76.253 C 297.155 76.460,297.169 76.345,297.545 75.882 C 298.666 74.499,297.805 73.200,295.769 73.200 C 294.422 73.200,294.030 73.329,294.253 73.700 C 294.491 74.097,294.425 74.096,293.933 73.697 C 293.562 73.397,293.386 72.808,293.496 72.234 C 293.628 71.540,293.474 71.221,292.940 71.083 C 292.318 70.923,292.308 70.885,292.875 70.846 C 293.808 70.782,293.654 69.200,292.715 69.200 C 292.322 69.200,292.045 69.362,292.100 69.560 C 292.155 69.758,292.020 69.920,291.800 69.920 C 291.580 69.920,291.452 69.736,291.517 69.510 C 291.584 69.273,291.205 69.182,290.619 69.294 C 289.990 69.415,289.414 69.252,289.103 68.867 C 288.704 68.375,288.703 68.309,289.100 68.547 C 289.770 68.950,289.789 65.949,289.120 65.280 C 288.856 65.016,287.731 64.786,286.620 64.768 C 285.509 64.751,284.825 64.646,285.100 64.535 C 285.375 64.424,285.600 64.158,285.600 63.943 C 285.600 63.728,285.375 63.688,285.100 63.853 C 284.811 64.027,284.853 63.839,285.200 63.407 C 285.756 62.716,285.733 62.679,284.877 62.899 C 284.266 63.057,284.010 62.979,284.119 62.669 C 284.209 62.411,284.569 62.250,284.918 62.312 C 285.328 62.385,285.532 62.155,285.495 61.662 C 285.423 60.705,283.716 60.611,283.466 61.550 C 283.327 62.073,283.284 62.054,283.246 61.453 C 283.211 60.881,282.968 60.751,282.203 60.897 C 281.591 61.014,281.011 60.848,280.703 60.467 C 280.304 59.975,280.303 59.909,280.700 60.147 C 281.070 60.369,281.200 59.985,281.200 58.666 C 281.200 57.412,281.013 56.814,280.567 56.643 C 279.643 56.288,279.553 56.331,279.682 57.059 C 279.747 57.421,279.589 57.791,279.331 57.881 C 279.021 57.990,278.943 57.734,279.101 57.123 C 279.321 56.267,279.284 56.244,278.593 56.800 C 278.161 57.147,277.973 57.189,278.147 56.900 C 278.336 56.585,278.216 56.400,277.824 56.400 C 277.481 56.400,277.200 56.119,277.200 55.776 C 277.200 55.384,277.015 55.264,276.700 55.453 C 276.411 55.627,276.453 55.439,276.800 55.007 C 277.356 54.316,277.333 54.279,276.477 54.499 C 275.866 54.657,275.610 54.579,275.719 54.269 C 275.809 54.011,276.204 53.859,276.596 53.930 C 277.117 54.025,277.240 53.882,277.054 53.397 C 276.914 53.033,276.800 52.659,276.800 52.567 C 276.800 52.475,275.979 52.400,274.976 52.400 C 273.624 52.400,273.230 52.529,273.453 52.900 C 273.691 53.297,273.625 53.296,273.133 52.897 C 272.762 52.597,272.586 52.008,272.696 51.434 C 272.828 50.740,272.674 50.421,272.140 50.283 C 271.561 50.134,271.541 50.083,272.050 50.046 C 273.013 49.978,272.909 48.178,271.938 48.105 C 271.445 48.068,271.215 48.272,271.288 48.682 C 271.350 49.031,271.189 49.391,270.931 49.481 C 270.621 49.590,270.543 49.334,270.701 48.723 C 270.921 47.867,270.884 47.844,270.193 48.400 C 269.761 48.747,269.573 48.789,269.747 48.500 C 269.912 48.225,269.872 48.000,269.657 48.000 C 269.442 48.000,269.176 48.225,269.065 48.500 C 268.954 48.775,268.849 48.091,268.832 46.980 C 268.814 45.869,268.584 44.744,268.320 44.480 C 267.651 43.811,264.650 43.830,265.053 44.500 C 265.291 44.897,265.225 44.896,264.733 44.497 C 264.348 44.186,264.185 43.610,264.306 42.981 C 264.412 42.423,264.342 42.019,264.150 42.083 C 263.957 42.148,263.800 42.020,263.800 41.800 C 263.800 41.580,263.935 41.445,264.100 41.500 C 264.265 41.555,264.400 41.278,264.400 40.885 C 264.400 39.961,262.909 39.824,262.671 40.727 C 262.520 41.299,262.486 41.288,262.446 40.653 C 262.411 40.081,262.168 39.951,261.403 40.097 C 260.791 40.214,260.211 40.048,259.903 39.667 C 259.504 39.175,259.503 39.109,259.900 39.347 C 260.266 39.567,260.400 39.226,260.400 38.073 C 260.400 36.393,259.713 35.493,258.524 35.617 C 257.032 35.772,256.400 35.582,256.400 34.976 C 256.400 34.584,256.215 34.464,255.900 34.653 C 255.611 34.827,255.653 34.639,256.000 34.207 C 256.556 33.516,256.533 33.479,255.677 33.699 C 255.066 33.857,254.810 33.779,254.919 33.469 C 255.009 33.211,255.369 33.050,255.718 33.112 C 256.128 33.185,256.332 32.955,256.295 32.462 C 256.223 31.505,254.516 31.411,254.266 32.350 C 254.117 32.908,254.086 32.901,254.046 32.300 C 254.018 31.875,253.676 31.600,253.176 31.600 C 252.628 31.600,252.451 31.767,252.645 32.100 C 252.806 32.375,252.547 32.257,252.069 31.838 C 251.169 31.049,250.900 30.567,251.600 31.000 C 251.820 31.136,252.000 30.890,252.000 30.453 C 252.000 30.016,251.685 29.576,251.300 29.476 C 250.711 29.322,250.703 29.285,251.250 29.246 C 252.213 29.178,252.109 27.378,251.138 27.305 C 250.645 27.268,250.415 27.472,250.488 27.882 C 250.550 28.231,250.389 28.591,250.131 28.681 C 249.821 28.790,249.743 28.534,249.901 27.923 C 250.121 27.067,250.084 27.044,249.393 27.600 C 248.961 27.947,248.773 27.989,248.947 27.700 C 249.136 27.385,249.016 27.200,248.624 27.200 C 248.281 27.200,248.000 26.919,248.000 26.576 C 248.000 26.184,247.815 26.064,247.500 26.253 C 247.155 26.460,247.169 26.345,247.545 25.882 C 248.666 24.499,247.805 23.200,245.769 23.200 C 244.432 23.200,244.027 23.332,244.235 23.700 C 244.460 24.098,244.409 24.099,243.982 23.703 C 243.640 23.386,243.485 22.484,243.553 21.203 C 243.667 19.052,243.239 18.679,241.971 19.826 C 241.445 20.302,241.207 20.335,240.978 19.964 C 240.792 19.664,240.843 19.579,241.111 19.745 C 241.349 19.892,241.659 19.828,241.799 19.601 C 242.105 19.107,104.415 19.096,103.615 19.590 M219.320 92.452 C 219.245 134.681,219.281 137.342,219.939 137.952 C 220.323 138.309,220.404 138.443,220.119 138.251 C 219.795 138.033,219.600 138.070,219.600 138.351 C 219.600 138.819,219.655 138.844,221.065 138.995 C 222.953 139.197,223.200 139.496,223.200 141.587 C 223.200 143.073,223.351 143.600,223.776 143.600 C 224.093 143.600,224.454 143.763,224.577 143.963 C 224.700 144.162,224.441 144.231,224.001 144.116 C 223.324 143.939,223.200 144.103,223.200 145.177 C 223.200 146.087,223.342 146.362,223.700 146.147 C 223.991 145.972,223.949 146.161,223.600 146.598 C 223.058 147.278,223.065 147.325,223.680 147.095 C 224.128 146.928,224.294 147.010,224.168 147.338 C 224.041 147.670,224.474 147.868,225.474 147.936 C 227.347 148.062,227.154 147.625,227.232 151.908 C 227.296 155.402,227.661 156.546,228.658 156.367 C 230.540 156.029,231.600 156.444,231.600 157.520 C 231.600 158.136,231.825 158.882,232.100 159.179 C 232.500 159.610,232.500 159.661,232.100 159.435 C 231.802 159.267,231.600 159.382,231.600 159.719 C 231.600 160.124,232.115 160.286,233.410 160.286 C 235.658 160.286,235.746 160.377,235.660 162.633 L 235.591 164.469 238.177 164.334 C 239.812 164.249,240.623 164.340,240.382 164.580 C 239.838 165.122,239.910 166.943,240.500 167.579 C 240.900 168.010,240.900 168.061,240.500 167.835 C 240.193 167.662,240.000 167.794,240.000 168.176 C 240.000 168.519,240.135 168.779,240.300 168.753 C 242.816 168.355,244.000 168.826,244.000 170.224 C 244.000 171.256,244.137 171.565,244.500 171.347 C 244.844 171.140,244.830 171.256,244.455 171.718 C 243.680 172.674,244.267 172.809,248.700 172.693 L 252.400 172.597 252.450 174.098 C 252.478 174.924,252.545 175.780,252.600 176.000 C 252.655 176.220,252.722 176.546,252.750 176.725 C 252.835 177.280,256.425 177.276,257.111 176.720 C 257.592 176.331,257.678 176.326,257.453 176.700 C 257.229 177.074,257.665 177.200,259.184 177.200 C 261.160 177.200,261.208 177.228,260.960 178.216 C 260.674 179.358,261.631 180.731,262.737 180.765 C 263.102 180.776,264.795 180.896,266.500 181.030 C 269.325 181.254,269.604 181.210,269.646 180.538 C 269.688 179.870,269.710 179.866,269.875 180.498 C 270.043 181.140,270.864 181.195,279.929 181.178 C 285.358 181.167,303.883 181.168,321.096 181.179 L 352.392 181.200 352.496 221.116 L 352.600 261.032 351.496 260.870 C 350.889 260.781,350.090 260.954,349.720 261.254 C 349.258 261.629,349.141 261.643,349.347 261.300 C 349.512 261.025,349.485 260.800,349.288 260.800 C 348.388 260.800,348.061 263.107,348.020 269.749 L 347.976 276.800 348.888 276.854 L 349.800 276.909 348.872 277.086 C 348.114 277.230,347.957 277.496,348.013 278.531 C 348.365 285.064,347.981 290.448,347.180 290.194 C 346.162 289.871,344.455 290.926,344.430 291.893 C 344.420 292.282,344.298 294.112,344.159 295.961 C 343.921 299.124,343.950 299.306,344.653 299.060 C 345.355 298.814,345.358 298.831,344.700 299.343 C 343.885 299.977,343.698 302.229,344.500 301.747 C 344.851 301.536,344.839 301.645,344.461 302.112 C 344.122 302.529,343.973 303.490,344.061 304.688 L 344.200 306.600 342.200 306.600 L 340.200 306.600 340.200 310.600 L 340.200 314.600 338.000 314.800 L 335.800 315.000 335.679 317.100 C 335.559 319.193,335.554 319.200,334.212 319.200 C 332.619 319.200,331.600 319.538,331.600 320.066 C 331.600 320.276,331.825 320.320,332.100 320.165 C 332.500 319.939,332.500 319.990,332.100 320.421 C 331.825 320.718,331.600 321.470,331.600 322.093 C 331.600 323.239,331.114 323.629,329.465 323.805 C 328.055 323.956,328.000 323.981,328.000 324.449 C 328.000 324.730,328.195 324.767,328.519 324.549 C 328.804 324.357,328.695 324.515,328.276 324.899 C 327.838 325.300,327.617 325.867,327.756 326.229 C 328.069 327.044,327.044 328.069,326.229 327.756 C 325.867 327.617,325.300 327.838,324.899 328.276 C 324.515 328.695,324.357 328.804,324.549 328.519 C 324.767 328.195,324.730 328.000,324.449 328.000 C 323.981 328.000,323.956 328.055,323.805 329.465 C 323.629 331.114,323.239 331.600,322.093 331.600 C 321.470 331.600,320.718 331.825,320.421 332.100 C 319.990 332.500,319.939 332.500,320.165 332.100 C 320.320 331.825,320.276 331.600,320.066 331.600 C 319.536 331.600,319.200 332.620,319.200 334.233 C 319.200 335.553,319.145 335.602,317.600 335.650 C 315.154 335.726,315.004 335.763,314.950 336.300 C 314.923 336.575,314.878 337.520,314.850 338.400 C 314.807 339.788,314.678 340.000,313.880 340.000 C 313.374 340.000,312.718 340.225,312.421 340.500 C 311.989 340.901,311.940 340.899,312.172 340.489 C 312.399 340.087,311.562 339.993,308.241 340.046 C 303.690 340.120,302.990 340.422,302.890 342.360 C 302.812 343.884,302.401 344.021,297.365 344.201 C 294.744 344.294,292.282 344.388,291.893 344.409 C 290.919 344.464,289.873 346.169,290.194 347.180 C 290.484 348.096,290.944 348.076,271.112 348.027 C 263.145 348.007,260.800 348.294,260.800 349.288 C 260.800 349.485,261.025 349.520,261.300 349.365 C 261.700 349.139,261.700 349.190,261.300 349.621 C 261.025 349.918,260.800 350.665,260.800 351.281 L 260.800 352.403 200.100 352.301 C 141.257 352.203,139.404 352.177,139.527 351.459 C 139.597 351.051,139.522 350.421,139.362 350.059 C 139.201 349.696,139.049 349.220,139.025 349.000 C 139.001 348.780,138.670 348.625,138.290 348.656 C 137.911 348.686,137.600 348.565,137.600 348.386 C 137.600 348.207,134.450 348.042,130.600 348.019 L 123.600 347.978 123.546 348.889 C 123.492 349.783,123.488 349.784,123.322 348.931 C 123.122 347.905,116.944 347.534,116.324 348.510 C 116.080 348.894,116.011 348.892,116.006 348.500 C 116.002 348.146,115.148 348.000,113.088 348.000 C 110.218 348.000,110.169 347.983,109.721 346.797 C 109.472 346.136,109.432 345.696,109.634 345.821 C 110.168 346.151,110.082 345.442,109.520 344.880 C 108.888 344.248,108.270 344.262,108.653 344.900 C 108.845 345.220,108.701 345.195,108.255 344.833 C 107.278 344.040,101.200 343.692,101.200 344.429 C 101.200 344.842,101.093 344.853,100.720 344.480 C 100.424 344.184,98.969 344.000,96.920 344.000 L 93.600 344.000 93.600 341.986 L 93.600 339.973 89.700 340.062 L 85.800 340.152 85.679 338.076 C 85.613 336.934,85.388 335.978,85.179 335.950 C 84.971 335.923,84.620 335.855,84.400 335.800 C 84.180 335.745,83.277 335.678,82.392 335.650 C 80.879 335.603,80.800 335.541,81.040 334.584 C 81.215 333.884,81.062 333.302,80.547 332.715 C 80.136 332.246,80.053 332.011,80.362 332.193 C 80.741 332.416,80.831 332.373,80.638 332.062 C 80.481 331.808,79.748 331.600,79.009 331.600 C 76.927 331.600,76.370 331.260,76.646 330.158 C 76.788 329.592,76.711 329.200,76.456 329.200 C 76.217 329.200,76.140 328.901,76.282 328.531 C 76.477 328.023,76.377 327.923,75.869 328.118 C 75.497 328.261,75.200 328.182,75.200 327.941 C 75.200 327.695,74.831 327.603,74.348 327.730 C 73.320 327.998,72.308 327.105,72.645 326.227 C 73.025 325.238,71.795 323.700,70.625 323.700 C 69.359 323.700,68.375 322.931,68.667 322.171 C 68.787 321.857,68.747 321.285,68.577 320.900 C 68.408 320.515,68.253 320.020,68.234 319.800 C 68.197 319.387,67.911 319.325,65.700 319.246 C 64.417 319.201,64.400 319.175,64.400 317.243 C 64.400 315.083,64.095 314.800,61.767 314.800 C 60.260 314.800,60.205 314.568,60.396 309.057 C 60.434 307.988,60.306 307.211,60.113 307.330 C 59.920 307.450,59.500 307.382,59.181 307.180 C 58.724 306.891,58.786 306.811,59.472 306.806 C 60.245 306.801,60.306 306.667,60.009 305.630 C 59.824 304.987,59.772 304.361,59.894 304.240 C 60.361 303.772,59.145 302.920,57.960 302.887 C 56.278 302.839,56.344 303.033,56.312 298.037 C 56.296 295.597,56.126 293.600,55.934 293.600 C 55.742 293.600,55.693 293.170,55.824 292.645 C 56.119 291.471,54.591 289.857,53.463 290.152 C 51.834 290.578,51.795 290.345,51.923 280.944 C 52.032 272.966,51.974 271.924,51.436 272.131 C 51.100 272.260,50.716 272.188,50.583 271.973 C 50.450 271.757,50.489 271.606,50.670 271.637 C 51.551 271.790,52.000 271.535,52.000 270.880 C 52.000 270.484,51.775 269.918,51.500 269.621 C 51.099 269.189,51.102 269.140,51.517 269.375 C 51.926 269.607,52.020 268.830,51.970 265.644 C 51.910 261.799,51.568 260.649,50.542 260.833 C 50.354 260.867,49.705 260.873,49.100 260.847 L 48.000 260.800 48.000 200.057 L 48.000 139.315 49.100 139.333 C 50.423 139.354,51.313 139.120,51.648 138.661 C 52.080 138.070,52.014 130.400,51.577 130.400 C 51.307 130.400,51.310 130.143,51.586 129.626 C 52.268 128.351,52.122 123.600,51.400 123.600 C 51.070 123.600,50.800 123.420,50.800 123.200 C 50.800 122.980,51.072 122.800,51.405 122.800 C 51.922 122.800,52.003 121.911,51.957 116.769 C 51.900 110.368,51.988 110.042,53.839 109.826 C 54.478 109.752,55.135 109.671,55.300 109.646 C 55.465 109.621,55.600 109.398,55.600 109.151 C 55.600 108.870,55.405 108.833,55.081 109.051 C 54.796 109.243,54.912 109.080,55.340 108.688 C 55.985 108.098,56.042 107.811,55.676 107.007 C 55.328 106.243,55.344 106.080,55.753 106.237 C 56.131 106.382,56.291 105.887,56.343 104.418 C 56.406 102.656,56.315 102.400,55.631 102.400 C 55.200 102.400,54.732 102.213,54.590 101.984 C 54.423 101.714,54.696 101.659,55.366 101.827 C 56.512 102.115,56.608 101.936,55.960 100.725 C 55.640 100.128,55.640 99.978,55.960 100.175 C 56.267 100.365,56.400 99.411,56.400 97.024 C 56.400 93.375,56.473 93.268,58.741 93.580 C 59.952 93.746,60.529 93.238,59.945 92.518 C 59.570 92.056,59.556 91.940,59.900 92.147 C 60.284 92.378,60.400 91.656,60.400 89.024 L 60.400 85.600 61.800 85.550 C 62.570 85.523,63.425 85.478,63.700 85.450 C 64.005 85.419,64.278 84.548,64.400 83.212 C 64.583 81.213,64.686 81.022,65.600 80.986 C 67.852 80.899,68.520 80.787,68.270 80.537 C 68.125 80.392,68.207 80.033,68.451 79.739 C 68.695 79.445,68.795 78.823,68.673 78.358 C 68.388 77.268,69.117 76.495,70.229 76.708 C 71.354 76.923,72.921 75.306,72.638 74.223 C 72.359 73.156,73.110 72.362,74.150 72.623 C 75.311 72.915,76.931 71.398,76.708 70.229 C 76.495 69.117,77.268 68.388,78.358 68.673 C 78.823 68.795,79.445 68.695,79.739 68.451 C 80.033 68.207,80.370 68.104,80.489 68.222 C 80.790 68.524,81.289 65.668,81.013 65.221 C 80.670 64.665,81.434 64.352,83.192 64.328 C 85.133 64.301,85.740 63.645,85.525 61.806 L 85.361 60.400 89.093 60.400 C 92.590 60.400,92.849 60.343,93.188 59.500 L 93.549 58.600 93.575 59.505 C 93.599 60.386,93.639 60.394,95.015 59.820 C 95.835 59.477,96.316 59.412,96.159 59.666 C 95.998 59.926,96.114 60.025,96.444 59.909 C 96.750 59.802,96.975 59.418,96.944 59.057 C 96.914 58.696,97.068 58.400,97.288 58.400 C 97.514 58.400,97.578 57.966,97.436 57.400 C 97.175 56.362,98.001 56.133,101.100 56.384 C 101.783 56.440,102.013 56.233,102.054 55.529 L 102.109 54.600 102.283 55.506 C 102.439 56.315,102.671 56.405,104.447 56.342 C 105.892 56.291,106.382 56.130,106.237 55.753 C 106.080 55.344,106.243 55.328,107.007 55.676 C 107.811 56.042,108.098 55.985,108.688 55.340 C 109.080 54.912,109.243 54.796,109.051 55.081 C 108.833 55.405,108.870 55.600,109.151 55.600 C 109.615 55.600,109.641 55.542,109.792 54.200 C 110.078 51.655,109.537 51.789,119.044 51.908 C 125.095 51.984,127.863 51.879,128.249 51.559 C 128.664 51.215,128.800 51.218,128.800 51.569 C 128.800 52.071,137.964 52.152,138.646 51.657 C 139.118 51.314,139.354 50.436,139.333 49.102 L 139.315 48.004 179.358 47.900 C 201.381 47.843,219.400 47.752,219.400 47.698 C 219.400 47.644,219.364 67.784,219.320 92.452 M128.939 49.888 C 129.087 49.524,129.145 49.521,129.168 49.876 C 129.236 50.900,128.485 50.708,127.634 49.484 L 126.742 48.200 127.741 49.288 C 128.393 49.997,128.810 50.206,128.939 49.888 M105.529 52.832 C 105.949 52.851,106.012 52.939,105.698 53.066 C 105.331 53.213,105.390 53.448,105.917 53.934 C 106.313 54.300,106.412 54.450,106.136 54.266 C 105.861 54.082,105.477 54.029,105.284 54.148 C 105.091 54.267,104.916 54.148,104.896 53.882 C 104.875 53.617,104.781 53.040,104.686 52.600 C 104.592 52.160,104.592 52.025,104.687 52.300 C 104.781 52.575,105.160 52.814,105.529 52.832 M104.137 54.580 C 104.296 54.994,104.165 55.087,103.680 54.905 C 103.064 54.674,103.057 54.723,103.600 55.425 C 104.156 56.143,104.148 56.160,103.495 55.647 C 102.954 55.223,102.896 54.967,103.244 54.547 C 103.810 53.865,103.863 53.867,104.137 54.580 M75.438 70.062 C 75.609 70.338,75.549 70.415,75.289 70.255 C 75.050 70.107,74.572 70.390,74.227 70.882 C 73.882 71.375,73.600 71.617,73.600 71.420 C 73.600 70.478,75.038 69.415,75.438 70.062 M72.488 71.222 C 72.550 71.320,72.527 71.357,72.437 71.303 C 72.066 71.084,71.229 72.123,71.466 72.507 C 71.608 72.737,71.532 72.805,71.297 72.660 C 70.968 72.456,70.897 71.510,71.169 70.935 C 71.233 70.802,72.382 71.051,72.488 71.222 M252.400 74.792 C 252.400 76.979,252.832 77.307,255.417 77.075 C 256.551 76.973,256.627 77.049,256.525 78.183 C 256.293 80.768,256.621 81.200,258.808 81.200 L 260.800 81.200 260.800 83.355 L 260.800 85.509 262.901 85.455 L 265.002 85.400 264.858 86.908 C 264.665 88.930,265.310 89.600,267.449 89.600 L 269.200 89.600 269.200 91.600 L 269.200 93.600 271.200 93.600 L 273.200 93.600 273.200 95.592 C 273.200 97.777,273.634 98.107,276.200 97.876 L 277.400 97.768 277.345 99.884 L 277.291 102.000 279.445 102.000 L 281.600 102.000 281.600 104.155 L 281.600 106.309 283.720 106.255 L 285.839 106.200 285.716 107.755 C 285.553 109.806,286.122 110.400,288.249 110.400 L 290.000 110.400 290.000 112.400 L 290.000 114.400 292.000 114.400 L 294.000 114.400 294.000 116.151 C 294.000 118.290,294.670 118.935,296.692 118.742 L 298.200 118.598 298.145 120.699 L 298.091 122.800 300.245 122.800 L 302.400 122.800 302.400 124.792 C 302.400 126.979,302.832 127.307,305.417 127.075 C 306.551 126.973,306.627 127.049,306.525 128.183 C 306.293 130.768,306.621 131.200,308.808 131.200 L 310.800 131.200 310.800 133.355 L 310.800 135.509 312.901 135.455 L 315.002 135.400 314.858 136.908 C 314.665 138.930,315.310 139.600,317.449 139.600 L 319.200 139.600 319.200 141.600 L 319.200 143.600 321.200 143.600 L 323.200 143.600 323.200 145.592 C 323.200 147.777,323.634 148.107,326.200 147.876 C 327.394 147.768,327.400 147.778,327.357 149.784 L 327.313 151.800 329.557 152.035 C 330.790 152.164,323.160 152.254,312.600 152.235 L 293.400 152.200 293.503 151.178 C 293.647 149.742,292.199 148.263,290.955 148.576 C 290.430 148.707,290.000 148.656,290.000 148.462 C 290.000 147.513,280.402 147.936,280.346 148.887 C 280.294 149.754,280.283 149.757,280.124 148.951 C 279.926 147.942,273.733 147.550,273.124 148.509 C 272.880 148.894,272.811 148.892,272.806 148.500 C 272.802 148.168,272.134 148.000,270.822 148.000 L 268.844 148.000 268.722 146.100 L 268.600 144.200 266.400 144.000 C 264.232 143.803,264.200 143.781,264.200 142.517 C 264.200 141.016,263.028 139.908,261.746 140.199 C 261.276 140.305,260.726 140.169,260.524 139.896 C 259.874 139.019,259.176 137.138,259.597 137.398 C 260.159 137.746,260.102 137.062,259.520 136.480 C 258.889 135.849,258.275 135.863,258.635 136.500 C 258.861 136.900,258.810 136.900,258.379 136.500 C 258.082 136.225,257.516 136.000,257.120 136.000 C 256.549 136.000,256.400 135.675,256.400 134.433 C 256.400 131.888,256.151 131.600,253.957 131.600 C 251.698 131.600,251.933 132.485,251.999 124.249 C 252.035 119.750,251.962 119.129,251.420 119.337 C 251.079 119.468,250.800 119.401,250.800 119.187 C 250.800 118.974,251.070 118.800,251.400 118.800 C 251.773 118.800,252.000 118.422,252.000 117.800 C 252.000 117.250,251.775 116.797,251.500 116.794 C 251.112 116.789,251.116 116.714,251.516 116.461 C 252.393 115.904,252.067 108.623,251.120 107.606 C 250.304 106.730,249.523 106.599,248.474 107.161 C 247.846 107.497,247.807 106.332,247.908 90.161 L 248.017 72.800 250.208 72.800 L 252.400 72.800 252.400 74.792 M70.882 74.227 C 70.390 74.572,70.107 75.050,70.255 75.289 C 70.421 75.557,70.336 75.608,70.036 75.422 C 69.492 75.086,70.565 73.600,71.351 73.600 C 71.586 73.600,71.375 73.882,70.882 74.227 M55.651 103.500 C 56.159 104.148,56.142 104.155,55.425 103.600 C 54.723 103.057,54.674 103.064,54.905 103.680 C 55.088 104.169,54.995 104.296,54.569 104.133 C 54.116 103.959,54.086 103.779,54.439 103.353 C 55.013 102.661,54.991 102.659,55.651 103.500 M53.882 104.896 C 54.148 104.916,54.267 105.091,54.148 105.284 C 54.029 105.477,54.082 105.861,54.266 106.136 C 54.450 106.412,54.300 106.313,53.934 105.917 C 53.448 105.390,53.213 105.331,53.066 105.698 C 52.939 106.012,52.851 105.949,52.832 105.529 C 52.814 105.160,52.575 104.781,52.300 104.687 C 52.025 104.592,52.160 104.592,52.600 104.686 C 53.040 104.781,53.617 104.875,53.882 104.896 M249.417 108.373 C 249.290 108.578,249.590 109.028,250.082 109.373 C 250.575 109.718,250.786 110.000,250.551 110.000 C 249.950 110.000,248.742 108.591,249.066 108.268 C 249.459 107.875,249.683 107.942,249.417 108.373 M262.889 142.545 C 263.157 142.379,263.208 142.464,263.022 142.764 C 262.686 143.308,261.200 142.235,261.200 141.449 C 261.200 141.214,261.482 141.425,261.827 141.918 C 262.172 142.410,262.650 142.693,262.889 142.545 M226.000 145.190 C 226.000 145.837,224.905 146.894,224.655 146.488 C 224.507 146.250,224.573 145.940,224.800 145.800 C 225.027 145.660,225.128 145.407,225.024 145.239 C 224.920 145.071,225.097 144.933,225.418 144.933 C 225.738 144.933,226.000 145.049,226.000 145.190 M226.621 145.966 C 226.497 146.167,226.578 146.393,226.801 146.467 C 227.025 146.542,226.827 146.840,226.362 147.131 C 225.661 147.569,225.574 147.569,225.852 147.130 C 226.037 146.838,226.213 146.465,226.244 146.300 C 226.359 145.686,226.405 145.600,226.624 145.600 C 226.747 145.600,226.745 145.765,226.621 145.966 M291.017 149.973 C 290.890 150.178,291.190 150.628,291.682 150.973 C 292.175 151.318,292.386 151.600,292.151 151.600 C 291.550 151.600,290.342 150.191,290.666 149.868 C 291.059 149.475,291.283 149.542,291.017 149.973 M140.063 171.323 L 140.200 173.437 138.457 173.305 C 135.403 173.074,135.632 170.175,135.608 209.329 C 135.590 239.939,135.509 244.663,134.993 245.178 C 134.587 245.584,134.400 245.618,134.400 245.286 C 134.400 245.019,134.580 244.800,134.800 244.800 C 135.020 244.800,135.200 244.620,135.200 244.400 C 135.200 244.180,134.840 244.000,134.400 244.000 C 133.960 244.000,133.600 244.251,133.600 244.557 C 133.600 244.864,133.285 245.234,132.900 245.381 C 132.339 245.595,132.299 245.548,132.700 245.144 C 133.465 244.374,133.305 244.105,132.111 244.155 C 131.203 244.193,131.024 244.034,131.030 243.200 C 131.034 242.650,130.759 242.078,130.418 241.928 C 129.887 241.694,129.895 241.652,130.475 241.628 C 131.411 241.589,131.255 240.000,130.315 240.000 C 129.922 240.000,129.600 240.251,129.600 240.557 C 129.600 240.864,129.285 241.234,128.900 241.381 C 128.339 241.595,128.299 241.548,128.700 241.144 C 129.361 240.478,129.339 239.861,128.664 240.120 C 127.729 240.479,127.074 239.721,127.123 238.338 C 127.221 235.563,127.844 235.717,116.692 235.761 L 106.600 235.800 106.479 237.900 C 106.351 240.125,106.060 240.311,103.147 240.029 C 102.556 239.972,102.498 240.943,102.547 250.083 L 102.600 260.200 104.299 260.233 C 106.432 260.274,106.545 260.398,106.462 262.598 L 106.394 264.400 108.597 264.400 L 110.800 264.400 110.800 266.555 L 110.800 268.709 112.900 268.655 L 115.000 268.600 114.945 270.700 L 114.891 272.800 117.045 272.800 L 119.200 272.800 119.200 275.023 L 119.200 277.245 121.320 277.109 L 123.441 276.974 123.317 278.542 C 123.151 280.642,123.724 281.241,125.754 281.088 L 127.400 280.964 127.400 283.182 L 127.400 285.400 128.800 285.466 C 129.570 285.502,130.515 285.547,130.900 285.566 C 131.466 285.593,131.600 285.973,131.600 287.555 L 131.600 289.509 133.700 289.455 L 135.800 289.400 135.745 291.532 L 135.689 293.664 138.226 293.532 C 139.830 293.449,140.623 293.540,140.382 293.780 C 139.838 294.322,139.910 296.143,140.500 296.779 C 140.900 297.210,140.900 297.261,140.500 297.035 C 140.201 296.866,140.000 296.984,140.000 297.330 C 140.000 297.815,141.333 297.903,148.378 297.880 C 152.986 297.865,156.673 297.719,156.572 297.554 C 156.470 297.390,156.574 297.139,156.803 296.998 C 157.032 296.856,157.170 296.979,157.110 297.270 C 156.945 298.067,159.725 298.027,160.072 297.227 C 160.534 296.162,160.429 295.666,159.700 295.476 C 159.033 295.302,159.033 295.291,159.700 295.246 C 160.156 295.216,160.400 294.871,160.400 294.255 C 160.400 293.473,160.566 293.343,161.363 293.495 C 162.060 293.628,162.379 293.475,162.517 292.940 C 162.677 292.318,162.715 292.308,162.754 292.875 C 162.818 293.808,164.400 293.654,164.400 292.715 C 164.400 292.322,164.238 292.045,164.040 292.100 C 163.842 292.155,163.680 292.020,163.680 291.800 C 163.680 291.580,163.864 291.452,164.090 291.517 C 164.327 291.584,164.418 291.205,164.306 290.619 C 164.185 289.990,164.348 289.414,164.733 289.103 C 165.225 288.704,165.291 288.703,165.053 289.100 C 164.650 289.770,167.651 289.789,168.320 289.120 C 168.989 288.451,168.970 285.450,168.300 285.853 C 167.999 286.034,168.033 285.867,168.385 285.433 C 168.736 285.002,169.030 284.891,169.119 285.156 C 169.200 285.400,169.442 285.600,169.657 285.600 C 169.872 285.600,169.912 285.375,169.747 285.100 C 169.573 284.811,169.761 284.853,170.193 285.200 C 170.884 285.756,170.921 285.733,170.701 284.877 C 170.543 284.266,170.621 284.010,170.931 284.119 C 171.189 284.209,171.350 284.569,171.288 284.918 C 171.215 285.328,171.445 285.532,171.938 285.495 C 172.895 285.423,172.989 283.716,172.050 283.466 C 171.527 283.327,171.546 283.284,172.147 283.246 C 172.719 283.211,172.849 282.968,172.703 282.203 C 172.586 281.591,172.752 281.011,173.133 280.703 C 173.625 280.304,173.691 280.303,173.453 280.700 C 173.231 281.070,173.615 281.200,174.934 281.200 C 176.188 281.200,176.786 281.013,176.957 280.567 C 177.312 279.643,177.269 279.553,176.541 279.682 C 176.179 279.747,175.809 279.589,175.719 279.331 C 175.610 279.021,175.866 278.943,176.477 279.101 C 177.333 279.321,177.356 279.284,176.800 278.593 C 176.328 278.006,176.320 277.919,176.763 278.186 C 177.193 278.445,177.276 278.333,177.114 277.713 C 176.941 277.054,177.054 276.941,177.713 277.114 C 178.333 277.276,178.445 277.193,178.186 276.763 C 177.919 276.320,178.006 276.328,178.593 276.800 C 179.284 277.356,179.321 277.333,179.101 276.477 C 178.943 275.866,179.021 275.610,179.331 275.719 C 179.589 275.809,179.741 276.204,179.670 276.596 C 179.575 277.117,179.718 277.240,180.203 277.054 C 180.567 276.914,180.941 276.800,181.033 276.800 C 181.125 276.800,181.200 275.979,181.200 274.976 C 181.200 273.624,181.071 273.230,180.700 273.453 C 180.303 273.691,180.304 273.625,180.703 273.133 C 181.003 272.762,181.592 272.586,182.166 272.696 C 182.860 272.828,183.179 272.674,183.317 272.140 C 183.466 271.561,183.517 271.541,183.554 272.050 C 183.622 273.013,185.422 272.909,185.495 271.938 C 185.532 271.445,185.328 271.215,184.918 271.288 C 184.569 271.350,184.209 271.189,184.119 270.931 C 184.010 270.621,184.266 270.543,184.877 270.701 C 185.733 270.921,185.756 270.884,185.200 270.193 C 184.853 269.761,184.811 269.573,185.100 269.747 C 185.375 269.912,185.600 269.872,185.600 269.657 C 185.600 269.442,185.400 269.200,185.156 269.119 C 184.891 269.030,185.002 268.736,185.433 268.385 C 185.867 268.033,186.034 267.999,185.853 268.300 C 185.450 268.970,188.451 268.989,189.120 268.320 C 189.789 267.651,189.770 264.650,189.100 265.053 C 188.703 265.291,188.704 265.225,189.103 264.733 C 189.414 264.348,189.990 264.185,190.619 264.306 C 191.177 264.412,191.581 264.342,191.517 264.150 C 191.452 263.957,191.580 263.800,191.800 263.800 C 192.020 263.800,192.155 263.935,192.100 264.100 C 192.045 264.265,192.322 264.400,192.715 264.400 C 193.639 264.400,193.776 262.909,192.873 262.671 C 192.301 262.520,192.312 262.486,192.947 262.446 C 193.520 262.411,193.649 262.168,193.502 261.400 C 193.298 260.330,193.541 260.240,196.264 260.387 C 197.945 260.478,197.940 260.503,197.893 250.715 C 197.858 243.556,197.768 242.407,197.226 242.262 C 196.719 242.125,196.733 242.084,197.300 242.046 C 198.102 241.993,198.285 240.435,197.500 240.339 C 196.071 240.165,195.778 240.232,195.528 240.791 C 195.305 241.290,195.251 241.271,195.228 240.682 C 195.213 240.288,194.975 239.994,194.700 240.030 C 193.562 240.178,193.345 239.953,193.515 238.796 C 193.614 238.120,193.452 237.298,193.146 236.920 C 192.771 236.458,192.757 236.341,193.100 236.547 C 193.406 236.731,193.600 236.628,193.600 236.281 C 193.600 235.807,191.962 235.722,183.500 235.758 L 173.400 235.800 173.279 237.900 L 173.158 240.000 171.179 240.000 L 169.200 240.000 169.200 242.000 L 169.200 244.000 167.449 244.000 C 165.290 244.000,164.665 244.667,164.865 246.759 C 164.947 247.624,164.876 248.247,164.707 248.143 C 164.538 248.038,164.400 232.699,164.400 214.056 C 164.400 187.493,164.292 180.043,163.900 179.621 C 163.500 179.190,163.500 179.139,163.900 179.365 C 164.249 179.562,164.400 179.302,164.400 178.504 C 164.400 177.875,164.175 177.118,163.900 176.821 C 163.526 176.418,163.523 176.352,163.888 176.558 C 164.521 176.914,164.472 173.931,163.838 173.506 C 163.096 173.008,162.467 173.167,162.276 173.900 C 162.105 174.552,162.090 174.551,162.046 173.882 C 162.017 173.433,161.738 173.209,161.300 173.282 C 160.720 173.380,160.579 173.044,160.480 171.324 L 160.360 169.247 150.143 169.228 L 139.926 169.209 140.063 171.323 M352.198 263.935 C 351.619 264.514,350.910 264.265,351.097 263.549 C 351.256 262.943,351.414 262.880,351.859 263.249 C 352.167 263.505,352.320 263.814,352.198 263.935 M54.489 292.545 C 54.757 292.379,54.808 292.464,54.622 292.764 C 54.286 293.308,52.800 292.235,52.800 291.449 C 52.800 291.214,53.082 291.425,53.427 291.918 C 53.772 292.410,54.250 292.693,54.489 292.545 M379.282 295.027 C 378.790 295.372,378.507 295.850,378.655 296.089 C 378.821 296.357,378.736 296.408,378.436 296.222 C 377.892 295.886,378.965 294.400,379.751 294.400 C 379.986 294.400,379.775 294.682,379.282 295.027 M370.800 319.405 C 370.800 319.444,370.454 319.789,370.030 320.173 C 369.397 320.746,368.977 320.012,369.569 319.367 C 369.631 319.299,370.800 319.336,370.800 319.405 M335.166 322.641 C 334.792 323.092,334.573 323.109,334.108 322.724 C 333.602 322.303,333.622 322.201,334.261 321.969 C 335.271 321.602,335.740 321.950,335.166 322.641 M322.760 335.049 C 322.151 335.782,321.626 335.387,321.886 334.391 C 322.053 333.753,322.214 333.680,322.654 334.045 C 323.072 334.392,323.098 334.640,322.760 335.049 M64.236 361.363 C 64.287 361.711,64.043 361.832,63.549 361.703 C 62.943 361.544,62.880 361.386,63.249 360.941 C 63.748 360.340,64.108 360.494,64.236 361.363 M80.049 370.479 C 79.665 371.518,78.933 371.878,78.933 371.029 C 78.933 370.702,79.064 370.516,79.225 370.615 C 79.385 370.714,79.619 370.526,79.746 370.198 C 79.872 369.869,80.065 369.600,80.175 369.600 C 80.284 369.600,80.228 369.996,80.049 370.479 M89.173 373.371 C 89.985 374.235,90.003 374.330,89.342 374.233 C 88.934 374.173,88.597 373.961,88.594 373.762 C 88.591 373.563,88.445 373.175,88.270 372.900 C 87.762 372.099,88.186 372.320,89.173 373.371 M296.238 378.462 C 296.409 378.738,296.349 378.815,296.089 378.655 C 295.850 378.507,295.372 378.790,295.027 379.282 C 294.682 379.775,294.400 380.017,294.400 379.820 C 294.400 378.878,295.838 377.815,296.238 378.462 M292.381 379.823 C 291.795 380.529,291.737 380.533,291.487 379.882 C 291.369 379.575,291.608 379.339,292.074 379.304 C 292.716 379.256,292.772 379.351,292.381 379.823 " stroke="none" fill="#9ca4ac" fill-rule="evenodd"></path><path id="path1" d="M131.900 19.489 C 132.615 19.578,133.785 19.578,134.500 19.489 C 135.215 19.401,134.630 19.328,133.200 19.328 C 131.770 19.328,131.185 19.401,131.900 19.489 M249.893 27.966 C 249.773 28.425,249.827 28.800,250.014 28.800 C 250.559 28.800,250.773 28.204,250.429 27.647 C 250.197 27.272,250.052 27.358,249.893 27.966 M254.973 33.244 C 254.616 33.822,254.876 33.944,255.771 33.620 C 256.448 33.374,256.462 33.309,255.884 33.087 C 255.522 32.949,255.112 33.019,254.973 33.244 M270.693 48.766 C 270.573 49.225,270.627 49.600,270.814 49.600 C 271.359 49.600,271.573 49.004,271.229 48.447 C 270.997 48.072,270.852 48.158,270.693 48.766 M127.634 49.484 C 128.485 50.708,129.236 50.900,129.168 49.876 C 129.145 49.521,129.087 49.524,128.939 49.888 C 128.810 50.206,128.393 49.997,127.741 49.288 L 126.742 48.200 127.634 49.484 M104.686 52.600 C 104.781 53.040,104.875 53.617,104.896 53.882 C 104.916 54.148,105.091 54.267,105.284 54.148 C 105.477 54.029,105.861 54.082,106.136 54.266 C 106.412 54.450,106.313 54.300,105.917 53.934 C 105.390 53.448,105.331 53.213,105.698 53.066 C 106.012 52.939,105.949 52.851,105.529 52.832 C 105.160 52.814,104.781 52.575,104.687 52.300 C 104.592 52.025,104.592 52.160,104.686 52.600 M275.773 54.044 C 275.416 54.622,275.676 54.744,276.571 54.420 C 277.248 54.174,277.262 54.109,276.684 53.887 C 276.322 53.749,275.912 53.819,275.773 54.044 M103.244 54.547 C 102.896 54.967,102.954 55.223,103.495 55.647 C 104.148 56.160,104.156 56.143,103.600 55.425 C 103.057 54.723,103.064 54.674,103.680 54.905 C 104.165 55.087,104.296 54.994,104.137 54.580 C 103.863 53.867,103.810 53.865,103.244 54.547 M279.093 57.166 C 278.973 57.625,279.027 58.000,279.214 58.000 C 279.759 58.000,279.973 57.404,279.629 56.847 C 279.397 56.472,279.252 56.558,279.093 57.166 M284.173 62.444 C 283.816 63.022,284.076 63.144,284.971 62.820 C 285.648 62.574,285.662 62.509,285.084 62.287 C 284.722 62.149,284.312 62.219,284.173 62.444 M74.262 70.331 C 73.898 70.734,73.600 71.224,73.600 71.420 C 73.600 71.617,73.882 71.375,74.227 70.882 C 74.572 70.390,75.050 70.107,75.289 70.255 C 75.549 70.415,75.609 70.338,75.438 70.062 C 75.068 69.463,75.042 69.469,74.262 70.331 M71.169 70.935 C 70.897 71.510,70.968 72.456,71.297 72.660 C 71.532 72.805,71.608 72.737,71.466 72.507 C 71.229 72.123,72.066 71.084,72.437 71.303 C 72.527 71.357,72.550 71.320,72.488 71.222 C 72.382 71.051,71.233 70.802,71.169 70.935 M70.236 74.360 C 69.719 74.932,69.669 75.196,70.036 75.422 C 70.336 75.608,70.421 75.557,70.255 75.289 C 70.107 75.050,70.390 74.572,70.882 74.227 C 71.375 73.882,71.586 73.600,71.351 73.600 C 71.116 73.600,70.614 73.942,70.236 74.360 M299.893 77.966 C 299.773 78.425,299.827 78.800,300.014 78.800 C 300.559 78.800,300.773 78.204,300.429 77.647 C 300.197 77.272,300.052 77.358,299.893 77.966 M304.973 83.244 C 304.616 83.822,304.876 83.944,305.771 83.620 C 306.448 83.374,306.462 83.309,305.884 83.087 C 305.522 82.949,305.112 83.019,304.973 83.244 M320.693 98.766 C 320.573 99.225,320.627 99.600,320.814 99.600 C 321.359 99.600,321.573 99.004,321.229 98.447 C 320.997 98.072,320.852 98.158,320.693 98.766 M54.600 102.000 C 54.736 102.220,55.242 102.387,55.724 102.372 C 56.569 102.345,56.571 102.331,55.800 102.000 C 54.699 101.527,54.308 101.527,54.600 102.000 M54.439 103.353 C 54.086 103.779,54.116 103.959,54.569 104.133 C 54.995 104.296,55.088 104.169,54.905 103.680 C 54.674 103.064,54.723 103.057,55.425 103.600 C 56.142 104.155,56.159 104.148,55.651 103.500 C 54.991 102.659,55.013 102.661,54.439 103.353 M325.773 104.044 C 325.416 104.622,325.676 104.744,326.571 104.420 C 327.248 104.174,327.262 104.109,326.684 103.887 C 326.322 103.749,325.912 103.819,325.773 104.044 M52.300 104.687 C 52.575 104.781,52.814 105.160,52.832 105.529 C 52.851 105.949,52.939 106.012,53.066 105.698 C 53.213 105.331,53.448 105.390,53.934 105.917 C 54.300 106.313,54.450 106.412,54.266 106.136 C 54.082 105.861,54.029 105.477,54.148 105.284 C 54.267 105.091,54.148 104.916,53.882 104.896 C 53.617 104.875,53.040 104.781,52.600 104.686 C 52.160 104.592,52.025 104.592,52.300 104.687 M329.093 107.166 C 328.973 107.625,329.027 108.000,329.214 108.000 C 329.759 108.000,329.973 107.404,329.629 106.847 C 329.397 106.472,329.252 106.558,329.093 107.166 M249.066 108.268 C 248.742 108.591,249.950 110.000,250.551 110.000 C 250.786 110.000,250.575 109.718,250.082 109.373 C 249.590 109.028,249.290 108.578,249.417 108.373 C 249.683 107.942,249.459 107.875,249.066 108.268 M334.173 112.444 C 333.816 113.022,334.076 113.144,334.971 112.820 C 335.648 112.574,335.662 112.509,335.084 112.287 C 334.722 112.149,334.312 112.219,334.173 112.444 M50.800 123.200 C 50.800 123.420,51.070 123.600,51.400 123.600 C 51.730 123.600,52.000 123.420,52.000 123.200 C 52.000 122.980,51.730 122.800,51.400 122.800 C 51.070 122.800,50.800 122.980,50.800 123.200 M349.893 127.966 C 349.773 128.425,349.827 128.800,350.014 128.800 C 350.559 128.800,350.773 128.204,350.429 127.647 C 350.197 127.272,350.052 127.358,349.893 127.966 M19.324 133.400 C 19.326 134.720,19.401 135.212,19.490 134.493 C 19.579 133.774,19.577 132.694,19.486 132.093 C 19.395 131.492,19.322 132.080,19.324 133.400 M354.973 133.244 C 354.616 133.822,354.876 133.944,355.771 133.620 C 356.448 133.374,356.462 133.309,355.884 133.087 C 355.522 132.949,355.112 133.019,354.973 133.244 M261.200 141.449 C 261.200 142.235,262.686 143.308,263.022 142.764 C 263.208 142.464,263.157 142.379,262.889 142.545 C 262.650 142.693,262.172 142.410,261.827 141.918 C 261.482 141.425,261.200 141.214,261.200 141.449 M225.024 145.239 C 225.128 145.407,225.027 145.660,224.800 145.800 C 224.573 145.940,224.507 146.250,224.655 146.488 C 224.827 146.768,225.113 146.660,225.461 146.184 C 226.152 145.239,226.141 144.933,225.418 144.933 C 225.097 144.933,224.920 145.071,225.024 145.239 M226.350 145.800 C 226.322 145.910,226.275 146.135,226.244 146.300 C 226.213 146.465,226.037 146.838,225.852 147.130 C 225.574 147.569,225.661 147.569,226.362 147.131 C 226.827 146.840,227.025 146.542,226.801 146.467 C 226.578 146.393,226.497 146.167,226.621 145.966 C 226.745 145.765,226.747 145.600,226.624 145.600 C 226.501 145.600,226.378 145.690,226.350 145.800 M370.693 148.766 C 370.573 149.225,370.627 149.600,370.814 149.600 C 371.359 149.600,371.573 149.004,371.229 148.447 C 370.997 148.072,370.852 148.158,370.693 148.766 M290.666 149.868 C 290.342 150.191,291.550 151.600,292.151 151.600 C 292.386 151.600,292.175 151.318,291.682 150.973 C 291.190 150.628,290.890 150.178,291.017 149.973 C 291.283 149.542,291.059 149.475,290.666 149.868 M375.773 154.044 C 375.416 154.622,375.676 154.744,376.571 154.420 C 377.248 154.174,377.262 154.109,376.684 153.887 C 376.322 153.749,375.912 153.819,375.773 154.044 M115.500 235.889 C 116.215 235.978,117.385 235.978,118.100 235.889 C 118.815 235.801,118.230 235.728,116.800 235.728 C 115.370 235.728,114.785 235.801,115.500 235.889 M182.307 235.890 C 183.026 235.979,184.106 235.977,184.707 235.886 C 185.308 235.795,184.720 235.722,183.400 235.724 C 182.080 235.726,181.588 235.801,182.307 235.890 M102.524 250.200 C 102.526 251.520,102.601 252.012,102.690 251.293 C 102.779 250.574,102.777 249.494,102.686 248.893 C 102.595 248.292,102.522 248.880,102.524 250.200 M197.724 250.200 C 197.726 251.520,197.801 252.012,197.890 251.293 C 197.979 250.574,197.977 249.494,197.886 248.893 C 197.795 248.292,197.722 248.880,197.724 250.200 M351.097 263.549 C 350.968 264.043,351.089 264.287,351.437 264.236 C 352.306 264.108,352.460 263.748,351.859 263.249 C 351.414 262.880,351.256 262.943,351.097 263.549 M19.328 266.800 C 19.328 268.230,19.401 268.815,19.489 268.100 C 19.578 267.385,19.578 266.215,19.489 265.500 C 19.401 264.785,19.328 265.370,19.328 266.800 M184.000 270.814 C 184.000 271.359,184.596 271.573,185.153 271.229 C 185.528 270.997,185.442 270.852,184.834 270.693 C 184.375 270.573,184.000 270.627,184.000 270.814 M179.093 276.434 C 179.252 277.042,179.397 277.128,179.629 276.753 C 179.973 276.196,179.759 275.600,179.214 275.600 C 179.027 275.600,178.973 275.975,179.093 276.434 M175.600 279.214 C 175.600 279.759,176.196 279.973,176.753 279.629 C 177.128 279.397,177.042 279.252,176.434 279.093 C 175.975 278.973,175.600 279.027,175.600 279.214 M170.693 284.834 C 170.852 285.442,170.997 285.528,171.229 285.153 C 171.573 284.596,171.359 284.000,170.814 284.000 C 170.627 284.000,170.573 284.375,170.693 284.834 M52.800 291.449 C 52.800 292.235,54.286 293.308,54.622 292.764 C 54.808 292.464,54.757 292.379,54.489 292.545 C 54.250 292.693,53.772 292.410,53.427 291.918 C 53.082 291.425,52.800 291.214,52.800 291.449 M55.060 294.587 C 54.804 295.256,55.400 295.771,56.000 295.400 C 56.220 295.264,56.386 294.938,56.368 294.676 C 56.346 294.333,56.281 294.339,56.135 294.700 C 56.024 294.975,55.774 295.200,55.579 295.200 C 55.384 295.200,55.329 294.930,55.455 294.600 C 55.582 294.270,55.596 294.000,55.486 294.000 C 55.376 294.000,55.184 294.264,55.060 294.587 M378.636 295.160 C 378.119 295.732,378.069 295.996,378.436 296.222 C 378.736 296.408,378.821 296.357,378.655 296.089 C 378.507 295.850,378.790 295.372,379.282 295.027 C 379.775 294.682,379.986 294.400,379.751 294.400 C 379.516 294.400,379.014 294.742,378.636 295.160 M149.107 297.890 C 149.826 297.979,150.906 297.977,151.507 297.886 C 152.108 297.795,151.520 297.722,150.200 297.724 C 148.880 297.726,148.388 297.801,149.107 297.890 M369.569 319.367 C 368.977 320.012,369.397 320.746,370.030 320.173 C 370.454 319.789,370.800 319.444,370.800 319.405 C 370.800 319.336,369.631 319.299,369.569 319.367 M334.261 321.969 C 333.622 322.201,333.602 322.303,334.108 322.724 C 334.573 323.109,334.792 323.092,335.166 322.641 C 335.740 321.950,335.271 321.602,334.261 321.969 M321.886 334.391 C 321.626 335.387,322.151 335.782,322.760 335.049 C 323.098 334.640,323.072 334.392,322.654 334.045 C 322.214 333.680,322.053 333.753,321.886 334.391 M63.249 360.941 C 62.880 361.386,62.943 361.544,63.549 361.703 C 64.043 361.832,64.287 361.711,64.236 361.363 C 64.108 360.494,63.748 360.340,63.249 360.941 M79.746 370.198 C 79.619 370.526,79.385 370.714,79.225 370.615 C 79.064 370.516,78.933 370.702,78.933 371.029 C 78.933 371.878,79.665 371.518,80.049 370.479 C 80.228 369.996,80.284 369.600,80.175 369.600 C 80.065 369.600,79.872 369.869,79.746 370.198 M88.270 372.900 C 88.445 373.175,88.591 373.563,88.594 373.762 C 88.597 373.961,88.934 374.173,89.342 374.233 C 90.003 374.330,89.985 374.235,89.173 373.371 C 88.186 372.320,87.762 372.099,88.270 372.900 M295.062 378.731 C 294.698 379.134,294.400 379.624,294.400 379.820 C 294.400 380.017,294.682 379.775,295.027 379.282 C 295.372 378.790,295.850 378.507,296.089 378.655 C 296.349 378.815,296.409 378.738,296.238 378.462 C 295.868 377.863,295.842 377.869,295.062 378.731 M291.487 379.882 C 291.737 380.533,291.795 380.529,292.381 379.823 C 292.772 379.351,292.716 379.256,292.074 379.304 C 291.608 379.339,291.369 379.575,291.487 379.882 " stroke="none" fill="#a0a4ac" fill-rule="evenodd"></path><path id="path2" d="M131.900 19.489 C 132.615 19.578,133.785 19.578,134.500 19.489 C 135.215 19.401,134.630 19.328,133.200 19.328 C 131.770 19.328,131.185 19.401,131.900 19.489 M249.893 27.966 C 249.773 28.425,249.827 28.800,250.014 28.800 C 250.559 28.800,250.773 28.204,250.429 27.647 C 250.197 27.272,250.052 27.358,249.893 27.966 M254.973 33.244 C 254.616 33.822,254.876 33.944,255.771 33.620 C 256.448 33.374,256.462 33.309,255.884 33.087 C 255.522 32.949,255.112 33.019,254.973 33.244 M270.693 48.766 C 270.573 49.225,270.627 49.600,270.814 49.600 C 271.359 49.600,271.573 49.004,271.229 48.447 C 270.997 48.072,270.852 48.158,270.693 48.766 M127.634 49.484 C 128.485 50.708,129.236 50.900,129.168 49.876 C 129.145 49.521,129.087 49.524,128.939 49.888 C 128.810 50.206,128.393 49.997,127.741 49.288 L 126.742 48.200 127.634 49.484 M104.686 52.600 C 104.781 53.040,104.875 53.617,104.896 53.882 C 104.916 54.148,105.091 54.267,105.284 54.148 C 105.477 54.029,105.861 54.082,106.136 54.266 C 106.412 54.450,106.313 54.300,105.917 53.934 C 105.390 53.448,105.331 53.213,105.698 53.066 C 106.012 52.939,105.949 52.851,105.529 52.832 C 105.160 52.814,104.781 52.575,104.687 52.300 C 104.592 52.025,104.592 52.160,104.686 52.600 M275.773 54.044 C 275.416 54.622,275.676 54.744,276.571 54.420 C 277.248 54.174,277.262 54.109,276.684 53.887 C 276.322 53.749,275.912 53.819,275.773 54.044 M103.244 54.547 C 102.896 54.967,102.954 55.223,103.495 55.647 C 104.148 56.160,104.156 56.143,103.600 55.425 C 103.057 54.723,103.064 54.674,103.680 54.905 C 104.165 55.087,104.296 54.994,104.137 54.580 C 103.863 53.867,103.810 53.865,103.244 54.547 M279.093 57.166 C 278.973 57.625,279.027 58.000,279.214 58.000 C 279.759 58.000,279.973 57.404,279.629 56.847 C 279.397 56.472,279.252 56.558,279.093 57.166 M284.173 62.444 C 283.816 63.022,284.076 63.144,284.971 62.820 C 285.648 62.574,285.662 62.509,285.084 62.287 C 284.722 62.149,284.312 62.219,284.173 62.444 M74.262 70.331 C 73.898 70.734,73.600 71.224,73.600 71.420 C 73.600 71.617,73.882 71.375,74.227 70.882 C 74.572 70.390,75.050 70.107,75.289 70.255 C 75.549 70.415,75.609 70.338,75.438 70.062 C 75.068 69.463,75.042 69.469,74.262 70.331 M71.169 70.935 C 70.897 71.510,70.968 72.456,71.297 72.660 C 71.532 72.805,71.608 72.737,71.466 72.507 C 71.229 72.123,72.066 71.084,72.437 71.303 C 72.527 71.357,72.550 71.320,72.488 71.222 C 72.382 71.051,71.233 70.802,71.169 70.935 M70.236 74.360 C 69.719 74.932,69.669 75.196,70.036 75.422 C 70.336 75.608,70.421 75.557,70.255 75.289 C 70.107 75.050,70.390 74.572,70.882 74.227 C 71.375 73.882,71.586 73.600,71.351 73.600 C 71.116 73.600,70.614 73.942,70.236 74.360 M299.893 77.966 C 299.773 78.425,299.827 78.800,300.014 78.800 C 300.559 78.800,300.773 78.204,300.429 77.647 C 300.197 77.272,300.052 77.358,299.893 77.966 M304.973 83.244 C 304.616 83.822,304.876 83.944,305.771 83.620 C 306.448 83.374,306.462 83.309,305.884 83.087 C 305.522 82.949,305.112 83.019,304.973 83.244 M320.693 98.766 C 320.573 99.225,320.627 99.600,320.814 99.600 C 321.359 99.600,321.573 99.004,321.229 98.447 C 320.997 98.072,320.852 98.158,320.693 98.766 M54.600 102.000 C 54.736 102.220,55.242 102.387,55.724 102.372 C 56.569 102.345,56.571 102.331,55.800 102.000 C 54.699 101.527,54.308 101.527,54.600 102.000 M54.439 103.353 C 54.086 103.779,54.116 103.959,54.569 104.133 C 54.995 104.296,55.088 104.169,54.905 103.680 C 54.674 103.064,54.723 103.057,55.425 103.600 C 56.142 104.155,56.159 104.148,55.651 103.500 C 54.991 102.659,55.013 102.661,54.439 103.353 M325.773 104.044 C 325.416 104.622,325.676 104.744,326.571 104.420 C 327.248 104.174,327.262 104.109,326.684 103.887 C 326.322 103.749,325.912 103.819,325.773 104.044 M52.300 104.687 C 52.575 104.781,52.814 105.160,52.832 105.529 C 52.851 105.949,52.939 106.012,53.066 105.698 C 53.213 105.331,53.448 105.390,53.934 105.917 C 54.300 106.313,54.450 106.412,54.266 106.136 C 54.082 105.861,54.029 105.477,54.148 105.284 C 54.267 105.091,54.148 104.916,53.882 104.896 C 53.617 104.875,53.040 104.781,52.600 104.686 C 52.160 104.592,52.025 104.592,52.300 104.687 M329.093 107.166 C 328.973 107.625,329.027 108.000,329.214 108.000 C 329.759 108.000,329.973 107.404,329.629 106.847 C 329.397 106.472,329.252 106.558,329.093 107.166 M249.066 108.268 C 248.742 108.591,249.950 110.000,250.551 110.000 C 250.786 110.000,250.575 109.718,250.082 109.373 C 249.590 109.028,249.290 108.578,249.417 108.373 C 249.683 107.942,249.459 107.875,249.066 108.268 M334.173 112.444 C 333.816 113.022,334.076 113.144,334.971 112.820 C 335.648 112.574,335.662 112.509,335.084 112.287 C 334.722 112.149,334.312 112.219,334.173 112.444 M50.800 123.200 C 50.800 123.420,51.070 123.600,51.400 123.600 C 51.730 123.600,52.000 123.420,52.000 123.200 C 52.000 122.980,51.730 122.800,51.400 122.800 C 51.070 122.800,50.800 122.980,50.800 123.200 M349.893 127.966 C 349.773 128.425,349.827 128.800,350.014 128.800 C 350.559 128.800,350.773 128.204,350.429 127.647 C 350.197 127.272,350.052 127.358,349.893 127.966 M19.324 133.400 C 19.326 134.720,19.401 135.212,19.490 134.493 C 19.579 133.774,19.577 132.694,19.486 132.093 C 19.395 131.492,19.322 132.080,19.324 133.400 M354.973 133.244 C 354.616 133.822,354.876 133.944,355.771 133.620 C 356.448 133.374,356.462 133.309,355.884 133.087 C 355.522 132.949,355.112 133.019,354.973 133.244 M261.200 141.449 C 261.200 142.235,262.686 143.308,263.022 142.764 C 263.208 142.464,263.157 142.379,262.889 142.545 C 262.650 142.693,262.172 142.410,261.827 141.918 C 261.482 141.425,261.200 141.214,261.200 141.449 M225.024 145.239 C 225.128 145.407,225.027 145.660,224.800 145.800 C 224.573 145.940,224.507 146.250,224.655 146.488 C 224.827 146.768,225.113 146.660,225.461 146.184 C 226.152 145.239,226.141 144.933,225.418 144.933 C 225.097 144.933,224.920 145.071,225.024 145.239 M226.350 145.800 C 226.322 145.910,226.275 146.135,226.244 146.300 C 226.213 146.465,226.037 146.838,225.852 147.130 C 225.574 147.569,225.661 147.569,226.362 147.131 C 226.827 146.840,227.025 146.542,226.801 146.467 C 226.578 146.393,226.497 146.167,226.621 145.966 C 226.745 145.765,226.747 145.600,226.624 145.600 C 226.501 145.600,226.378 145.690,226.350 145.800 M370.693 148.766 C 370.573 149.225,370.627 149.600,370.814 149.600 C 371.359 149.600,371.573 149.004,371.229 148.447 C 370.997 148.072,370.852 148.158,370.693 148.766 M290.666 149.868 C 290.342 150.191,291.550 151.600,292.151 151.600 C 292.386 151.600,292.175 151.318,291.682 150.973 C 291.190 150.628,290.890 150.178,291.017 149.973 C 291.283 149.542,291.059 149.475,290.666 149.868 M375.773 154.044 C 375.416 154.622,375.676 154.744,376.571 154.420 C 377.248 154.174,377.262 154.109,376.684 153.887 C 376.322 153.749,375.912 153.819,375.773 154.044 M115.500 235.889 C 116.215 235.978,117.385 235.978,118.100 235.889 C 118.815 235.801,118.230 235.728,116.800 235.728 C 115.370 235.728,114.785 235.801,115.500 235.889 M182.307 235.890 C 183.026 235.979,184.106 235.977,184.707 235.886 C 185.308 235.795,184.720 235.722,183.400 235.724 C 182.080 235.726,181.588 235.801,182.307 235.890 M102.524 250.200 C 102.526 251.520,102.601 252.012,102.690 251.293 C 102.779 250.574,102.777 249.494,102.686 248.893 C 102.595 248.292,102.522 248.880,102.524 250.200 M197.724 250.200 C 197.726 251.520,197.801 252.012,197.890 251.293 C 197.979 250.574,197.977 249.494,197.886 248.893 C 197.795 248.292,197.722 248.880,197.724 250.200 M351.097 263.549 C 350.968 264.043,351.089 264.287,351.437 264.236 C 352.306 264.108,352.460 263.748,351.859 263.249 C 351.414 262.880,351.256 262.943,351.097 263.549 M19.328 266.800 C 19.328 268.230,19.401 268.815,19.489 268.100 C 19.578 267.385,19.578 266.215,19.489 265.500 C 19.401 264.785,19.328 265.370,19.328 266.800 M184.000 270.814 C 184.000 271.359,184.596 271.573,185.153 271.229 C 185.528 270.997,185.442 270.852,184.834 270.693 C 184.375 270.573,184.000 270.627,184.000 270.814 M179.093 276.434 C 179.252 277.042,179.397 277.128,179.629 276.753 C 179.973 276.196,179.759 275.600,179.214 275.600 C 179.027 275.600,178.973 275.975,179.093 276.434 M175.600 279.214 C 175.600 279.759,176.196 279.973,176.753 279.629 C 177.128 279.397,177.042 279.252,176.434 279.093 C 175.975 278.973,175.600 279.027,175.600 279.214 M170.693 284.834 C 170.852 285.442,170.997 285.528,171.229 285.153 C 171.573 284.596,171.359 284.000,170.814 284.000 C 170.627 284.000,170.573 284.375,170.693 284.834 M52.800 291.449 C 52.800 292.235,54.286 293.308,54.622 292.764 C 54.808 292.464,54.757 292.379,54.489 292.545 C 54.250 292.693,53.772 292.410,53.427 291.918 C 53.082 291.425,52.800 291.214,52.800 291.449 M55.060 294.587 C 54.804 295.256,55.400 295.771,56.000 295.400 C 56.220 295.264,56.386 294.938,56.368 294.676 C 56.346 294.333,56.281 294.339,56.135 294.700 C 56.024 294.975,55.774 295.200,55.579 295.200 C 55.384 295.200,55.329 294.930,55.455 294.600 C 55.582 294.270,55.596 294.000,55.486 294.000 C 55.376 294.000,55.184 294.264,55.060 294.587 M378.636 295.160 C 378.119 295.732,378.069 295.996,378.436 296.222 C 378.736 296.408,378.821 296.357,378.655 296.089 C 378.507 295.850,378.790 295.372,379.282 295.027 C 379.775 294.682,379.986 294.400,379.751 294.400 C 379.516 294.400,379.014 294.742,378.636 295.160 M149.107 297.890 C 149.826 297.979,150.906 297.977,151.507 297.886 C 152.108 297.795,151.520 297.722,150.200 297.724 C 148.880 297.726,148.388 297.801,149.107 297.890 M369.569 319.367 C 368.977 320.012,369.397 320.746,370.030 320.173 C 370.454 319.789,370.800 319.444,370.800 319.405 C 370.800 319.336,369.631 319.299,369.569 319.367 M334.261 321.969 C 333.622 322.201,333.602 322.303,334.108 322.724 C 334.573 323.109,334.792 323.092,335.166 322.641 C 335.740 321.950,335.271 321.602,334.261 321.969 M321.886 334.391 C 321.626 335.387,322.151 335.782,322.760 335.049 C 323.098 334.640,323.072 334.392,322.654 334.045 C 322.214 333.680,322.053 333.753,321.886 334.391 M63.249 360.941 C 62.880 361.386,62.943 361.544,63.549 361.703 C 64.043 361.832,64.287 361.711,64.236 361.363 C 64.108 360.494,63.748 360.340,63.249 360.941 M79.746 370.198 C 79.619 370.526,79.385 370.714,79.225 370.615 C 79.064 370.516,78.933 370.702,78.933 371.029 C 78.933 371.878,79.665 371.518,80.049 370.479 C 80.228 369.996,80.284 369.600,80.175 369.600 C 80.065 369.600,79.872 369.869,79.746 370.198 M88.270 372.900 C 88.445 373.175,88.591 373.563,88.594 373.762 C 88.597 373.961,88.934 374.173,89.342 374.233 C 90.003 374.330,89.985 374.235,89.173 373.371 C 88.186 372.320,87.762 372.099,88.270 372.900 M295.062 378.731 C 294.698 379.134,294.400 379.624,294.400 379.820 C 294.400 380.017,294.682 379.775,295.027 379.282 C 295.372 378.790,295.850 378.507,296.089 378.655 C 296.349 378.815,296.409 378.738,296.238 378.462 C 295.868 377.863,295.842 377.869,295.062 378.731 M291.487 379.882 C 291.737 380.533,291.795 380.529,292.381 379.823 C 292.772 379.351,292.716 379.256,292.074 379.304 C 291.608 379.339,291.369 379.575,291.487 379.882 " stroke="none" fill="#a0a4ac" fill-rule="evenodd"></path><path id="path3" d="M131.900 19.489 C 132.615 19.578,133.785 19.578,134.500 19.489 C 135.215 19.401,134.630 19.328,133.200 19.328 C 131.770 19.328,131.185 19.401,131.900 19.489 M249.893 27.966 C 249.773 28.425,249.827 28.800,250.014 28.800 C 250.559 28.800,250.773 28.204,250.429 27.647 C 250.197 27.272,250.052 27.358,249.893 27.966 M254.973 33.244 C 254.616 33.822,254.876 33.944,255.771 33.620 C 256.448 33.374,256.462 33.309,255.884 33.087 C 255.522 32.949,255.112 33.019,254.973 33.244 M270.693 48.766 C 270.573 49.225,270.627 49.600,270.814 49.600 C 271.359 49.600,271.573 49.004,271.229 48.447 C 270.997 48.072,270.852 48.158,270.693 48.766 M127.634 49.484 C 128.485 50.708,129.236 50.900,129.168 49.876 C 129.145 49.521,129.087 49.524,128.939 49.888 C 128.810 50.206,128.393 49.997,127.741 49.288 L 126.742 48.200 127.634 49.484 M104.686 52.600 C 104.781 53.040,104.875 53.617,104.896 53.882 C 104.916 54.148,105.091 54.267,105.284 54.148 C 105.477 54.029,105.861 54.082,106.136 54.266 C 106.412 54.450,106.313 54.300,105.917 53.934 C 105.390 53.448,105.331 53.213,105.698 53.066 C 106.012 52.939,105.949 52.851,105.529 52.832 C 105.160 52.814,104.781 52.575,104.687 52.300 C 104.592 52.025,104.592 52.160,104.686 52.600 M275.773 54.044 C 275.416 54.622,275.676 54.744,276.571 54.420 C 277.248 54.174,277.262 54.109,276.684 53.887 C 276.322 53.749,275.912 53.819,275.773 54.044 M103.244 54.547 C 102.896 54.967,102.954 55.223,103.495 55.647 C 104.148 56.160,104.156 56.143,103.600 55.425 C 103.057 54.723,103.064 54.674,103.680 54.905 C 104.165 55.087,104.296 54.994,104.137 54.580 C 103.863 53.867,103.810 53.865,103.244 54.547 M279.093 57.166 C 278.973 57.625,279.027 58.000,279.214 58.000 C 279.759 58.000,279.973 57.404,279.629 56.847 C 279.397 56.472,279.252 56.558,279.093 57.166 M284.173 62.444 C 283.816 63.022,284.076 63.144,284.971 62.820 C 285.648 62.574,285.662 62.509,285.084 62.287 C 284.722 62.149,284.312 62.219,284.173 62.444 M74.262 70.331 C 73.898 70.734,73.600 71.224,73.600 71.420 C 73.600 71.617,73.882 71.375,74.227 70.882 C 74.572 70.390,75.050 70.107,75.289 70.255 C 75.549 70.415,75.609 70.338,75.438 70.062 C 75.068 69.463,75.042 69.469,74.262 70.331 M71.169 70.935 C 70.897 71.510,70.968 72.456,71.297 72.660 C 71.532 72.805,71.608 72.737,71.466 72.507 C 71.229 72.123,72.066 71.084,72.437 71.303 C 72.527 71.357,72.550 71.320,72.488 71.222 C 72.382 71.051,71.233 70.802,71.169 70.935 M70.236 74.360 C 69.719 74.932,69.669 75.196,70.036 75.422 C 70.336 75.608,70.421 75.557,70.255 75.289 C 70.107 75.050,70.390 74.572,70.882 74.227 C 71.375 73.882,71.586 73.600,71.351 73.600 C 71.116 73.600,70.614 73.942,70.236 74.360 M299.893 77.966 C 299.773 78.425,299.827 78.800,300.014 78.800 C 300.559 78.800,300.773 78.204,300.429 77.647 C 300.197 77.272,300.052 77.358,299.893 77.966 M304.973 83.244 C 304.616 83.822,304.876 83.944,305.771 83.620 C 306.448 83.374,306.462 83.309,305.884 83.087 C 305.522 82.949,305.112 83.019,304.973 83.244 M320.693 98.766 C 320.573 99.225,320.627 99.600,320.814 99.600 C 321.359 99.600,321.573 99.004,321.229 98.447 C 320.997 98.072,320.852 98.158,320.693 98.766 M54.600 102.000 C 54.736 102.220,55.242 102.387,55.724 102.372 C 56.569 102.345,56.571 102.331,55.800 102.000 C 54.699 101.527,54.308 101.527,54.600 102.000 M54.439 103.353 C 54.086 103.779,54.116 103.959,54.569 104.133 C 54.995 104.296,55.088 104.169,54.905 103.680 C 54.674 103.064,54.723 103.057,55.425 103.600 C 56.142 104.155,56.159 104.148,55.651 103.500 C 54.991 102.659,55.013 102.661,54.439 103.353 M325.773 104.044 C 325.416 104.622,325.676 104.744,326.571 104.420 C 327.248 104.174,327.262 104.109,326.684 103.887 C 326.322 103.749,325.912 103.819,325.773 104.044 M52.300 104.687 C 52.575 104.781,52.814 105.160,52.832 105.529 C 52.851 105.949,52.939 106.012,53.066 105.698 C 53.213 105.331,53.448 105.390,53.934 105.917 C 54.300 106.313,54.450 106.412,54.266 106.136 C 54.082 105.861,54.029 105.477,54.148 105.284 C 54.267 105.091,54.148 104.916,53.882 104.896 C 53.617 104.875,53.040 104.781,52.600 104.686 C 52.160 104.592,52.025 104.592,52.300 104.687 M329.093 107.166 C 328.973 107.625,329.027 108.000,329.214 108.000 C 329.759 108.000,329.973 107.404,329.629 106.847 C 329.397 106.472,329.252 106.558,329.093 107.166 M249.066 108.268 C 248.742 108.591,249.950 110.000,250.551 110.000 C 250.786 110.000,250.575 109.718,250.082 109.373 C 249.590 109.028,249.290 108.578,249.417 108.373 C 249.683 107.942,249.459 107.875,249.066 108.268 M334.173 112.444 C 333.816 113.022,334.076 113.144,334.971 112.820 C 335.648 112.574,335.662 112.509,335.084 112.287 C 334.722 112.149,334.312 112.219,334.173 112.444 M50.800 123.200 C 50.800 123.420,51.070 123.600,51.400 123.600 C 51.730 123.600,52.000 123.420,52.000 123.200 C 52.000 122.980,51.730 122.800,51.400 122.800 C 51.070 122.800,50.800 122.980,50.800 123.200 M349.893 127.966 C 349.773 128.425,349.827 128.800,350.014 128.800 C 350.559 128.800,350.773 128.204,350.429 127.647 C 350.197 127.272,350.052 127.358,349.893 127.966 M19.324 133.400 C 19.326 134.720,19.401 135.212,19.490 134.493 C 19.579 133.774,19.577 132.694,19.486 132.093 C 19.395 131.492,19.322 132.080,19.324 133.400 M354.973 133.244 C 354.616 133.822,354.876 133.944,355.771 133.620 C 356.448 133.374,356.462 133.309,355.884 133.087 C 355.522 132.949,355.112 133.019,354.973 133.244 M261.200 141.449 C 261.200 142.235,262.686 143.308,263.022 142.764 C 263.208 142.464,263.157 142.379,262.889 142.545 C 262.650 142.693,262.172 142.410,261.827 141.918 C 261.482 141.425,261.200 141.214,261.200 141.449 M225.024 145.239 C 225.128 145.407,225.027 145.660,224.800 145.800 C 224.573 145.940,224.507 146.250,224.655 146.488 C 224.827 146.768,225.113 146.660,225.461 146.184 C 226.152 145.239,226.141 144.933,225.418 144.933 C 225.097 144.933,224.920 145.071,225.024 145.239 M226.350 145.800 C 226.322 145.910,226.275 146.135,226.244 146.300 C 226.213 146.465,226.037 146.838,225.852 147.130 C 225.574 147.569,225.661 147.569,226.362 147.131 C 226.827 146.840,227.025 146.542,226.801 146.467 C 226.578 146.393,226.497 146.167,226.621 145.966 C 226.745 145.765,226.747 145.600,226.624 145.600 C 226.501 145.600,226.378 145.690,226.350 145.800 M370.693 148.766 C 370.573 149.225,370.627 149.600,370.814 149.600 C 371.359 149.600,371.573 149.004,371.229 148.447 C 370.997 148.072,370.852 148.158,370.693 148.766 M290.666 149.868 C 290.342 150.191,291.550 151.600,292.151 151.600 C 292.386 151.600,292.175 151.318,291.682 150.973 C 291.190 150.628,290.890 150.178,291.017 149.973 C 291.283 149.542,291.059 149.475,290.666 149.868 M375.773 154.044 C 375.416 154.622,375.676 154.744,376.571 154.420 C 377.248 154.174,377.262 154.109,376.684 153.887 C 376.322 153.749,375.912 153.819,375.773 154.044 M115.500 235.889 C 116.215 235.978,117.385 235.978,118.100 235.889 C 118.815 235.801,118.230 235.728,116.800 235.728 C 115.370 235.728,114.785 235.801,115.500 235.889 M182.307 235.890 C 183.026 235.979,184.106 235.977,184.707 235.886 C 185.308 235.795,184.720 235.722,183.400 235.724 C 182.080 235.726,181.588 235.801,182.307 235.890 M102.524 250.200 C 102.526 251.520,102.601 252.012,102.690 251.293 C 102.779 250.574,102.777 249.494,102.686 248.893 C 102.595 248.292,102.522 248.880,102.524 250.200 M197.724 250.200 C 197.726 251.520,197.801 252.012,197.890 251.293 C 197.979 250.574,197.977 249.494,197.886 248.893 C 197.795 248.292,197.722 248.880,197.724 250.200 M351.097 263.549 C 350.968 264.043,351.089 264.287,351.437 264.236 C 352.306 264.108,352.460 263.748,351.859 263.249 C 351.414 262.880,351.256 262.943,351.097 263.549 M19.328 266.800 C 19.328 268.230,19.401 268.815,19.489 268.100 C 19.578 267.385,19.578 266.215,19.489 265.500 C 19.401 264.785,19.328 265.370,19.328 266.800 M184.000 270.814 C 184.000 271.359,184.596 271.573,185.153 271.229 C 185.528 270.997,185.442 270.852,184.834 270.693 C 184.375 270.573,184.000 270.627,184.000 270.814 M179.093 276.434 C 179.252 277.042,179.397 277.128,179.629 276.753 C 179.973 276.196,179.759 275.600,179.214 275.600 C 179.027 275.600,178.973 275.975,179.093 276.434 M175.600 279.214 C 175.600 279.759,176.196 279.973,176.753 279.629 C 177.128 279.397,177.042 279.252,176.434 279.093 C 175.975 278.973,175.600 279.027,175.600 279.214 M170.693 284.834 C 170.852 285.442,170.997 285.528,171.229 285.153 C 171.573 284.596,171.359 284.000,170.814 284.000 C 170.627 284.000,170.573 284.375,170.693 284.834 M52.800 291.449 C 52.800 292.235,54.286 293.308,54.622 292.764 C 54.808 292.464,54.757 292.379,54.489 292.545 C 54.250 292.693,53.772 292.410,53.427 291.918 C 53.082 291.425,52.800 291.214,52.800 291.449 M55.060 294.587 C 54.804 295.256,55.400 295.771,56.000 295.400 C 56.220 295.264,56.386 294.938,56.368 294.676 C 56.346 294.333,56.281 294.339,56.135 294.700 C 56.024 294.975,55.774 295.200,55.579 295.200 C 55.384 295.200,55.329 294.930,55.455 294.600 C 55.582 294.270,55.596 294.000,55.486 294.000 C 55.376 294.000,55.184 294.264,55.060 294.587 M378.636 295.160 C 378.119 295.732,378.069 295.996,378.436 296.222 C 378.736 296.408,378.821 296.357,378.655 296.089 C 378.507 295.850,378.790 295.372,379.282 295.027 C 379.775 294.682,379.986 294.400,379.751 294.400 C 379.516 294.400,379.014 294.742,378.636 295.160 M149.107 297.890 C 149.826 297.979,150.906 297.977,151.507 297.886 C 152.108 297.795,151.520 297.722,150.200 297.724 C 148.880 297.726,148.388 297.801,149.107 297.890 M369.569 319.367 C 368.977 320.012,369.397 320.746,370.030 320.173 C 370.454 319.789,370.800 319.444,370.800 319.405 C 370.800 319.336,369.631 319.299,369.569 319.367 M334.261 321.969 C 333.622 322.201,333.602 322.303,334.108 322.724 C 334.573 323.109,334.792 323.092,335.166 322.641 C 335.740 321.950,335.271 321.602,334.261 321.969 M321.886 334.391 C 321.626 335.387,322.151 335.782,322.760 335.049 C 323.098 334.640,323.072 334.392,322.654 334.045 C 322.214 333.680,322.053 333.753,321.886 334.391 M63.249 360.941 C 62.880 361.386,62.943 361.544,63.549 361.703 C 64.043 361.832,64.287 361.711,64.236 361.363 C 64.108 360.494,63.748 360.340,63.249 360.941 M79.746 370.198 C 79.619 370.526,79.385 370.714,79.225 370.615 C 79.064 370.516,78.933 370.702,78.933 371.029 C 78.933 371.878,79.665 371.518,80.049 370.479 C 80.228 369.996,80.284 369.600,80.175 369.600 C 80.065 369.600,79.872 369.869,79.746 370.198 M88.270 372.900 C 88.445 373.175,88.591 373.563,88.594 373.762 C 88.597 373.961,88.934 374.173,89.342 374.233 C 90.003 374.330,89.985 374.235,89.173 373.371 C 88.186 372.320,87.762 372.099,88.270 372.900 M295.062 378.731 C 294.698 379.134,294.400 379.624,294.400 379.820 C 294.400 380.017,294.682 379.775,295.027 379.282 C 295.372 378.790,295.850 378.507,296.089 378.655 C 296.349 378.815,296.409 378.738,296.238 378.462 C 295.868 377.863,295.842 377.869,295.062 378.731 M291.487 379.882 C 291.737 380.533,291.795 380.529,292.381 379.823 C 292.772 379.351,292.716 379.256,292.074 379.304 C 291.608 379.339,291.369 379.575,291.487 379.882 " stroke="none" fill="#a0a4ac" fill-rule="evenodd"></path><path id="path4" d="M131.900 19.489 C 132.615 19.578,133.785 19.578,134.500 19.489 C 135.215 19.401,134.630 19.328,133.200 19.328 C 131.770 19.328,131.185 19.401,131.900 19.489 M249.893 27.966 C 249.773 28.425,249.827 28.800,250.014 28.800 C 250.559 28.800,250.773 28.204,250.429 27.647 C 250.197 27.272,250.052 27.358,249.893 27.966 M254.973 33.244 C 254.616 33.822,254.876 33.944,255.771 33.620 C 256.448 33.374,256.462 33.309,255.884 33.087 C 255.522 32.949,255.112 33.019,254.973 33.244 M270.693 48.766 C 270.573 49.225,270.627 49.600,270.814 49.600 C 271.359 49.600,271.573 49.004,271.229 48.447 C 270.997 48.072,270.852 48.158,270.693 48.766 M127.634 49.484 C 128.485 50.708,129.236 50.900,129.168 49.876 C 129.145 49.521,129.087 49.524,128.939 49.888 C 128.810 50.206,128.393 49.997,127.741 49.288 L 126.742 48.200 127.634 49.484 M104.686 52.600 C 104.781 53.040,104.875 53.617,104.896 53.882 C 104.916 54.148,105.091 54.267,105.284 54.148 C 105.477 54.029,105.861 54.082,106.136 54.266 C 106.412 54.450,106.313 54.300,105.917 53.934 C 105.390 53.448,105.331 53.213,105.698 53.066 C 106.012 52.939,105.949 52.851,105.529 52.832 C 105.160 52.814,104.781 52.575,104.687 52.300 C 104.592 52.025,104.592 52.160,104.686 52.600 M275.773 54.044 C 275.416 54.622,275.676 54.744,276.571 54.420 C 277.248 54.174,277.262 54.109,276.684 53.887 C 276.322 53.749,275.912 53.819,275.773 54.044 M103.244 54.547 C 102.896 54.967,102.954 55.223,103.495 55.647 C 104.148 56.160,104.156 56.143,103.600 55.425 C 103.057 54.723,103.064 54.674,103.680 54.905 C 104.165 55.087,104.296 54.994,104.137 54.580 C 103.863 53.867,103.810 53.865,103.244 54.547 M279.093 57.166 C 278.973 57.625,279.027 58.000,279.214 58.000 C 279.759 58.000,279.973 57.404,279.629 56.847 C 279.397 56.472,279.252 56.558,279.093 57.166 M284.173 62.444 C 283.816 63.022,284.076 63.144,284.971 62.820 C 285.648 62.574,285.662 62.509,285.084 62.287 C 284.722 62.149,284.312 62.219,284.173 62.444 M74.262 70.331 C 73.898 70.734,73.600 71.224,73.600 71.420 C 73.600 71.617,73.882 71.375,74.227 70.882 C 74.572 70.390,75.050 70.107,75.289 70.255 C 75.549 70.415,75.609 70.338,75.438 70.062 C 75.068 69.463,75.042 69.469,74.262 70.331 M71.169 70.935 C 70.897 71.510,70.968 72.456,71.297 72.660 C 71.532 72.805,71.608 72.737,71.466 72.507 C 71.229 72.123,72.066 71.084,72.437 71.303 C 72.527 71.357,72.550 71.320,72.488 71.222 C 72.382 71.051,71.233 70.802,71.169 70.935 M70.236 74.360 C 69.719 74.932,69.669 75.196,70.036 75.422 C 70.336 75.608,70.421 75.557,70.255 75.289 C 70.107 75.050,70.390 74.572,70.882 74.227 C 71.375 73.882,71.586 73.600,71.351 73.600 C 71.116 73.600,70.614 73.942,70.236 74.360 M299.893 77.966 C 299.773 78.425,299.827 78.800,300.014 78.800 C 300.559 78.800,300.773 78.204,300.429 77.647 C 300.197 77.272,300.052 77.358,299.893 77.966 M304.973 83.244 C 304.616 83.822,304.876 83.944,305.771 83.620 C 306.448 83.374,306.462 83.309,305.884 83.087 C 305.522 82.949,305.112 83.019,304.973 83.244 M320.693 98.766 C 320.573 99.225,320.627 99.600,320.814 99.600 C 321.359 99.600,321.573 99.004,321.229 98.447 C 320.997 98.072,320.852 98.158,320.693 98.766 M54.600 102.000 C 54.736 102.220,55.242 102.387,55.724 102.372 C 56.569 102.345,56.571 102.331,55.800 102.000 C 54.699 101.527,54.308 101.527,54.600 102.000 M54.439 103.353 C 54.086 103.779,54.116 103.959,54.569 104.133 C 54.995 104.296,55.088 104.169,54.905 103.680 C 54.674 103.064,54.723 103.057,55.425 103.600 C 56.142 104.155,56.159 104.148,55.651 103.500 C 54.991 102.659,55.013 102.661,54.439 103.353 M325.773 104.044 C 325.416 104.622,325.676 104.744,326.571 104.420 C 327.248 104.174,327.262 104.109,326.684 103.887 C 326.322 103.749,325.912 103.819,325.773 104.044 M52.300 104.687 C 52.575 104.781,52.814 105.160,52.832 105.529 C 52.851 105.949,52.939 106.012,53.066 105.698 C 53.213 105.331,53.448 105.390,53.934 105.917 C 54.300 106.313,54.450 106.412,54.266 106.136 C 54.082 105.861,54.029 105.477,54.148 105.284 C 54.267 105.091,54.148 104.916,53.882 104.896 C 53.617 104.875,53.040 104.781,52.600 104.686 C 52.160 104.592,52.025 104.592,52.300 104.687 M329.093 107.166 C 328.973 107.625,329.027 108.000,329.214 108.000 C 329.759 108.000,329.973 107.404,329.629 106.847 C 329.397 106.472,329.252 106.558,329.093 107.166 M249.066 108.268 C 248.742 108.591,249.950 110.000,250.551 110.000 C 250.786 110.000,250.575 109.718,250.082 109.373 C 249.590 109.028,249.290 108.578,249.417 108.373 C 249.683 107.942,249.459 107.875,249.066 108.268 M334.173 112.444 C 333.816 113.022,334.076 113.144,334.971 112.820 C 335.648 112.574,335.662 112.509,335.084 112.287 C 334.722 112.149,334.312 112.219,334.173 112.444 M50.800 123.200 C 50.800 123.420,51.070 123.600,51.400 123.600 C 51.730 123.600,52.000 123.420,52.000 123.200 C 52.000 122.980,51.730 122.800,51.400 122.800 C 51.070 122.800,50.800 122.980,50.800 123.200 M349.893 127.966 C 349.773 128.425,349.827 128.800,350.014 128.800 C 350.559 128.800,350.773 128.204,350.429 127.647 C 350.197 127.272,350.052 127.358,349.893 127.966 M19.324 133.400 C 19.326 134.720,19.401 135.212,19.490 134.493 C 19.579 133.774,19.577 132.694,19.486 132.093 C 19.395 131.492,19.322 132.080,19.324 133.400 M354.973 133.244 C 354.616 133.822,354.876 133.944,355.771 133.620 C 356.448 133.374,356.462 133.309,355.884 133.087 C 355.522 132.949,355.112 133.019,354.973 133.244 M261.200 141.449 C 261.200 142.235,262.686 143.308,263.022 142.764 C 263.208 142.464,263.157 142.379,262.889 142.545 C 262.650 142.693,262.172 142.410,261.827 141.918 C 261.482 141.425,261.200 141.214,261.200 141.449 M225.024 145.239 C 225.128 145.407,225.027 145.660,224.800 145.800 C 224.573 145.940,224.507 146.250,224.655 146.488 C 224.827 146.768,225.113 146.660,225.461 146.184 C 226.152 145.239,226.141 144.933,225.418 144.933 C 225.097 144.933,224.920 145.071,225.024 145.239 M226.350 145.800 C 226.322 145.910,226.275 146.135,226.244 146.300 C 226.213 146.465,226.037 146.838,225.852 147.130 C 225.574 147.569,225.661 147.569,226.362 147.131 C 226.827 146.840,227.025 146.542,226.801 146.467 C 226.578 146.393,226.497 146.167,226.621 145.966 C 226.745 145.765,226.747 145.600,226.624 145.600 C 226.501 145.600,226.378 145.690,226.350 145.800 M370.693 148.766 C 370.573 149.225,370.627 149.600,370.814 149.600 C 371.359 149.600,371.573 149.004,371.229 148.447 C 370.997 148.072,370.852 148.158,370.693 148.766 M290.666 149.868 C 290.342 150.191,291.550 151.600,292.151 151.600 C 292.386 151.600,292.175 151.318,291.682 150.973 C 291.190 150.628,290.890 150.178,291.017 149.973 C 291.283 149.542,291.059 149.475,290.666 149.868 M375.773 154.044 C 375.416 154.622,375.676 154.744,376.571 154.420 C 377.248 154.174,377.262 154.109,376.684 153.887 C 376.322 153.749,375.912 153.819,375.773 154.044 M115.500 235.889 C 116.215 235.978,117.385 235.978,118.100 235.889 C 118.815 235.801,118.230 235.728,116.800 235.728 C 115.370 235.728,114.785 235.801,115.500 235.889 M182.307 235.890 C 183.026 235.979,184.106 235.977,184.707 235.886 C 185.308 235.795,184.720 235.722,183.400 235.724 C 182.080 235.726,181.588 235.801,182.307 235.890 M102.524 250.200 C 102.526 251.520,102.601 252.012,102.690 251.293 C 102.779 250.574,102.777 249.494,102.686 248.893 C 102.595 248.292,102.522 248.880,102.524 250.200 M197.724 250.200 C 197.726 251.520,197.801 252.012,197.890 251.293 C 197.979 250.574,197.977 249.494,197.886 248.893 C 197.795 248.292,197.722 248.880,197.724 250.200 M351.097 263.549 C 350.968 264.043,351.089 264.287,351.437 264.236 C 352.306 264.108,352.460 263.748,351.859 263.249 C 351.414 262.880,351.256 262.943,351.097 263.549 M19.328 266.800 C 19.328 268.230,19.401 268.815,19.489 268.100 C 19.578 267.385,19.578 266.215,19.489 265.500 C 19.401 264.785,19.328 265.370,19.328 266.800 M184.000 270.814 C 184.000 271.359,184.596 271.573,185.153 271.229 C 185.528 270.997,185.442 270.852,184.834 270.693 C 184.375 270.573,184.000 270.627,184.000 270.814 M179.093 276.434 C 179.252 277.042,179.397 277.128,179.629 276.753 C 179.973 276.196,179.759 275.600,179.214 275.600 C 179.027 275.600,178.973 275.975,179.093 276.434 M175.600 279.214 C 175.600 279.759,176.196 279.973,176.753 279.629 C 177.128 279.397,177.042 279.252,176.434 279.093 C 175.975 278.973,175.600 279.027,175.600 279.214 M170.693 284.834 C 170.852 285.442,170.997 285.528,171.229 285.153 C 171.573 284.596,171.359 284.000,170.814 284.000 C 170.627 284.000,170.573 284.375,170.693 284.834 M52.800 291.449 C 52.800 292.235,54.286 293.308,54.622 292.764 C 54.808 292.464,54.757 292.379,54.489 292.545 C 54.250 292.693,53.772 292.410,53.427 291.918 C 53.082 291.425,52.800 291.214,52.800 291.449 M55.060 294.587 C 54.804 295.256,55.400 295.771,56.000 295.400 C 56.220 295.264,56.386 294.938,56.368 294.676 C 56.346 294.333,56.281 294.339,56.135 294.700 C 56.024 294.975,55.774 295.200,55.579 295.200 C 55.384 295.200,55.329 294.930,55.455 294.600 C 55.582 294.270,55.596 294.000,55.486 294.000 C 55.376 294.000,55.184 294.264,55.060 294.587 M378.636 295.160 C 378.119 295.732,378.069 295.996,378.436 296.222 C 378.736 296.408,378.821 296.357,378.655 296.089 C 378.507 295.850,378.790 295.372,379.282 295.027 C 379.775 294.682,379.986 294.400,379.751 294.400 C 379.516 294.400,379.014 294.742,378.636 295.160 M149.107 297.890 C 149.826 297.979,150.906 297.977,151.507 297.886 C 152.108 297.795,151.520 297.722,150.200 297.724 C 148.880 297.726,148.388 297.801,149.107 297.890 M369.569 319.367 C 368.977 320.012,369.397 320.746,370.030 320.173 C 370.454 319.789,370.800 319.444,370.800 319.405 C 370.800 319.336,369.631 319.299,369.569 319.367 M334.261 321.969 C 333.622 322.201,333.602 322.303,334.108 322.724 C 334.573 323.109,334.792 323.092,335.166 322.641 C 335.740 321.950,335.271 321.602,334.261 321.969 M321.886 334.391 C 321.626 335.387,322.151 335.782,322.760 335.049 C 323.098 334.640,323.072 334.392,322.654 334.045 C 322.214 333.680,322.053 333.753,321.886 334.391 M63.249 360.941 C 62.880 361.386,62.943 361.544,63.549 361.703 C 64.043 361.832,64.287 361.711,64.236 361.363 C 64.108 360.494,63.748 360.340,63.249 360.941 M79.746 370.198 C 79.619 370.526,79.385 370.714,79.225 370.615 C 79.064 370.516,78.933 370.702,78.933 371.029 C 78.933 371.878,79.665 371.518,80.049 370.479 C 80.228 369.996,80.284 369.600,80.175 369.600 C 80.065 369.600,79.872 369.869,79.746 370.198 M88.270 372.900 C 88.445 373.175,88.591 373.563,88.594 373.762 C 88.597 373.961,88.934 374.173,89.342 374.233 C 90.003 374.330,89.985 374.235,89.173 373.371 C 88.186 372.320,87.762 372.099,88.270 372.900 M295.062 378.731 C 294.698 379.134,294.400 379.624,294.400 379.820 C 294.400 380.017,294.682 379.775,295.027 379.282 C 295.372 378.790,295.850 378.507,296.089 378.655 C 296.349 378.815,296.409 378.738,296.238 378.462 C 295.868 377.863,295.842 377.869,295.062 378.731 M291.487 379.882 C 291.737 380.533,291.795 380.529,292.381 379.823 C 292.772 379.351,292.716 379.256,292.074 379.304 C 291.608 379.339,291.369 379.575,291.487 379.882 " stroke="none" fill="#a0a4ac" fill-rule="evenodd"></path></g></svg>