<svg id="svg" version="1.1" xmlns="http://www.w3.org/2000/svg" xmlns:xlink="http://www.w3.org/1999/xlink" width="400" height="395.8762886597938" viewBox="0, 0, 400,395.8762886597938"><g id="svgg"><path id="path0" d="M196.395 43.861 C 196.127 45.849,196.157 47.155,196.478 47.353 C 197.096 47.735,196.078 48.703,195.352 48.424 C 194.934 48.264,194.818 48.338,195.008 48.646 C 195.165 48.900,195.106 49.109,194.875 49.109 C 194.644 49.109,194.455 48.742,194.455 48.293 C 194.455 47.823,194.279 47.587,194.039 47.736 C 193.809 47.877,193.697 48.200,193.789 48.452 C 193.881 48.704,193.667 49.253,193.315 49.672 C 192.938 50.119,192.890 50.306,193.198 50.126 C 193.632 49.871,193.632 49.961,193.201 50.652 C 192.915 51.110,192.581 51.485,192.459 51.485 C 192.337 51.485,192.238 51.931,192.238 52.475 C 192.238 53.020,192.391 53.465,192.578 53.465 C 192.765 53.465,192.811 53.639,192.680 53.851 C 192.549 54.063,192.453 110.111,192.467 178.402 C 192.491 297.728,192.444 304.827,191.634 304.326 C 191.436 304.204,191.377 303.938,191.502 303.735 C 191.627 303.532,191.561 303.366,191.355 303.366 C 191.148 303.366,191.004 303.054,191.034 302.673 C 191.065 302.289,190.856 302.029,190.565 302.089 C 190.276 302.149,190.124 302.060,190.226 301.891 C 190.480 301.472,189.460 300.573,189.118 300.915 C 188.968 301.065,188.904 300.921,188.977 300.594 C 189.050 300.267,188.842 299.983,188.515 299.962 C 187.610 299.903,186.535 299.364,186.535 298.968 C 186.535 298.773,186.847 298.611,187.228 298.608 C 187.803 298.603,187.823 298.540,187.346 298.238 C 187.029 298.038,186.601 297.979,186.393 298.107 C 186.186 298.235,186.143 298.134,186.299 297.883 C 186.457 297.627,186.353 297.423,186.063 297.420 C 185.686 297.415,185.707 297.309,186.139 297.030 C 186.649 296.700,186.636 296.645,186.052 296.640 C 185.678 296.636,185.426 296.411,185.492 296.139 C 185.558 295.866,185.538 295.777,185.447 295.941 C 185.136 296.495,184.555 296.241,184.542 295.545 C 184.531 294.890,184.508 294.890,184.122 295.553 C 183.897 295.939,183.544 296.149,183.336 296.021 C 183.128 295.892,183.060 295.621,183.185 295.418 C 183.311 295.215,183.214 295.050,182.970 295.050 C 182.727 295.050,182.626 294.890,182.747 294.695 C 182.867 294.500,182.719 293.863,182.416 293.280 C 182.053 292.580,181.796 292.398,181.658 292.744 C 181.485 293.178,181.443 293.177,181.417 292.744 C 181.400 292.456,181.119 291.953,180.792 291.627 C 180.250 291.084,180.029 291.206,180.151 291.980 C 180.231 292.483,179.838 292.313,179.010 291.485 C 178.188 290.664,177.943 290.081,178.586 290.478 C 178.789 290.603,179.067 290.525,179.204 290.303 C 179.432 289.935,178.896 289.724,178.089 289.864 C 177.910 289.895,177.876 289.738,178.014 289.515 C 178.152 289.292,178.031 289.106,177.746 289.103 C 177.369 289.098,177.390 288.992,177.822 288.713 C 178.339 288.379,178.332 288.328,177.771 288.323 C 177.417 288.320,176.898 288.041,176.618 287.704 C 176.212 287.215,176.044 287.195,175.784 287.605 C 175.517 288.025,175.457 288.024,175.452 287.600 C 175.448 287.315,175.280 287.185,175.077 287.310 C 174.874 287.435,174.603 287.368,174.474 287.160 C 174.346 286.952,174.556 286.598,174.942 286.373 C 175.605 285.987,175.605 285.964,174.950 285.953 C 174.254 285.941,174.000 285.359,174.554 285.048 C 174.718 284.957,174.629 284.937,174.356 285.003 C 174.084 285.069,173.859 284.817,173.855 284.443 C 173.850 283.859,173.795 283.847,173.465 284.356 C 173.186 284.788,173.080 284.809,173.075 284.432 C 173.072 284.147,172.887 284.027,172.663 284.164 C 172.440 284.302,172.283 284.268,172.314 284.089 C 172.454 283.282,172.243 282.747,171.875 282.974 C 171.653 283.111,171.575 283.389,171.700 283.592 C 171.825 283.794,171.758 283.960,171.551 283.960 C 171.135 283.960,170.593 282.906,170.533 281.980 C 170.512 281.653,170.259 281.435,169.971 281.495 C 169.682 281.555,169.530 281.466,169.632 281.297 C 169.886 280.878,168.866 279.979,168.524 280.321 C 168.374 280.471,168.310 280.327,168.383 280.000 C 168.464 279.635,168.248 279.427,167.822 279.461 C 167.441 279.491,167.129 279.347,167.129 279.141 C 167.129 278.934,166.963 278.868,166.760 278.993 C 166.557 279.118,166.286 279.051,166.158 278.843 C 166.029 278.635,166.217 278.300,166.576 278.099 C 167.127 277.791,167.036 277.649,165.991 277.186 C 165.310 276.885,164.752 276.415,164.752 276.141 C 164.752 275.867,164.574 275.644,164.356 275.644 C 164.139 275.644,163.955 275.332,163.948 274.950 C 163.937 274.296,163.914 274.296,163.528 274.959 C 163.303 275.345,162.949 275.555,162.741 275.427 C 162.533 275.298,162.466 275.027,162.591 274.824 C 162.716 274.621,162.650 274.455,162.444 274.455 C 162.237 274.455,162.093 274.144,162.123 273.762 C 162.153 273.381,161.974 273.108,161.724 273.155 C 161.449 273.206,161.345 272.894,161.461 272.363 C 161.616 271.655,161.571 271.600,161.229 272.079 C 160.858 272.598,160.803 272.591,160.798 272.023 C 160.795 271.665,160.510 271.264,160.166 271.131 C 159.130 270.734,159.012 270.857,159.825 271.486 C 160.576 272.067,160.576 272.075,159.832 271.813 C 159.413 271.666,158.745 271.220,158.347 270.822 C 157.582 270.057,157.372 269.500,157.992 269.884 C 158.195 270.009,158.473 269.931,158.610 269.709 C 158.838 269.341,158.302 269.130,157.495 269.270 C 157.316 269.301,157.282 269.144,157.420 268.921 C 157.558 268.697,157.437 268.512,157.152 268.509 C 156.775 268.504,156.796 268.398,157.228 268.119 C 157.738 267.789,157.725 267.734,157.141 267.729 C 156.673 267.725,156.530 267.506,156.683 267.030 C 156.872 266.443,156.840 266.428,156.473 266.931 C 156.113 267.424,155.981 267.433,155.693 266.987 C 155.440 266.595,155.270 266.573,155.064 266.908 C 154.851 267.252,154.642 267.250,154.217 266.897 C 153.813 266.562,153.772 266.287,154.071 265.927 C 154.370 265.567,154.343 265.365,153.977 265.217 C 153.577 265.056,153.595 264.909,154.059 264.547 C 154.569 264.149,154.555 264.115,153.960 264.307 C 153.484 264.460,153.265 264.317,153.261 263.849 C 153.256 263.265,153.201 263.252,152.871 263.762 C 152.592 264.194,152.486 264.215,152.481 263.838 C 152.478 263.553,152.293 263.432,152.069 263.570 C 151.846 263.708,151.689 263.674,151.720 263.495 C 151.860 262.688,151.649 262.153,151.281 262.380 C 151.059 262.517,150.981 262.795,151.106 262.998 C 151.490 263.618,150.933 263.408,150.168 262.643 C 149.770 262.245,149.324 261.577,149.177 261.158 C 148.923 260.435,148.942 260.437,149.557 261.188 C 150.129 261.887,150.176 261.895,149.954 261.255 C 149.816 260.856,149.703 260.455,149.703 260.364 C 149.703 260.273,149.391 260.195,149.010 260.192 C 148.411 260.187,148.398 260.128,148.911 259.762 C 149.390 259.419,149.335 259.374,148.627 259.529 C 148.096 259.645,147.784 259.541,147.835 259.266 C 147.882 259.016,147.609 258.837,147.228 258.867 C 146.847 258.897,146.535 258.753,146.535 258.546 C 146.535 258.340,146.369 258.274,146.166 258.399 C 145.963 258.524,145.692 258.457,145.564 258.249 C 145.435 258.041,145.646 257.687,146.031 257.462 C 146.694 257.076,146.695 257.053,146.040 257.042 C 145.343 257.030,145.089 256.448,145.644 256.138 C 145.807 256.046,145.718 256.026,145.446 256.092 C 145.173 256.158,144.950 256.010,144.950 255.763 C 144.950 255.516,144.830 255.434,144.683 255.581 C 144.536 255.728,144.115 255.388,143.746 254.827 C 143.186 253.973,143.036 253.911,142.828 254.453 C 142.692 254.809,142.397 254.987,142.175 254.849 C 141.952 254.711,141.872 254.433,141.997 254.230 C 142.122 254.027,142.056 253.861,141.850 253.861 C 141.643 253.861,141.499 253.550,141.529 253.168 C 141.560 252.784,141.351 252.524,141.060 252.584 C 140.771 252.644,140.619 252.555,140.721 252.386 C 140.975 251.967,139.955 251.068,139.613 251.410 C 139.463 251.560,139.399 251.416,139.472 251.089 C 139.545 250.762,139.337 250.478,139.010 250.457 C 138.084 250.397,137.030 249.855,137.030 249.439 C 137.030 249.232,137.196 249.165,137.398 249.290 C 137.601 249.415,137.879 249.337,138.016 249.115 C 138.243 248.747,137.708 248.536,136.901 248.676 C 136.722 248.707,136.688 248.550,136.826 248.327 C 136.964 248.103,136.843 247.918,136.558 247.915 C 136.181 247.910,136.202 247.804,136.634 247.525 C 137.144 247.195,137.131 247.140,136.547 247.135 C 136.173 247.131,135.921 246.906,135.987 246.634 C 136.053 246.361,136.033 246.272,135.942 246.436 C 135.631 246.991,135.050 246.736,135.037 246.040 C 135.026 245.385,135.003 245.385,134.617 246.048 C 134.392 246.434,134.039 246.644,133.831 246.516 C 133.623 246.387,133.555 246.116,133.680 245.913 C 133.806 245.710,133.709 245.545,133.465 245.545 C 133.222 245.545,133.121 245.385,133.242 245.190 C 133.362 244.995,133.214 244.358,132.912 243.776 C 132.548 243.075,132.291 242.893,132.153 243.239 C 131.982 243.665,131.938 243.666,131.912 243.244 C 131.895 242.959,131.699 242.838,131.475 242.976 C 131.252 243.114,131.095 243.080,131.126 242.901 C 131.266 242.094,131.055 241.559,130.687 241.786 C 130.465 241.923,130.387 242.201,130.512 242.404 C 130.910 243.047,130.327 242.802,129.505 241.980 C 128.683 241.159,128.438 240.576,129.082 240.973 C 129.284 241.099,129.562 241.020,129.699 240.799 C 129.927 240.430,129.391 240.219,128.584 240.359 C 128.405 240.390,128.361 240.248,128.488 240.044 C 128.614 239.839,128.494 239.581,128.220 239.471 C 127.877 239.332,127.907 239.260,128.317 239.237 C 128.644 239.218,128.402 238.938,127.781 238.614 C 127.159 238.289,126.491 238.123,126.295 238.243 C 126.100 238.364,125.941 238.263,125.941 238.020 C 125.941 237.776,125.775 237.680,125.572 237.805 C 125.369 237.930,125.098 237.863,124.970 237.655 C 124.841 237.447,125.051 237.093,125.437 236.868 C 126.100 236.482,126.100 236.459,125.446 236.448 C 124.749 236.436,124.495 235.854,125.050 235.543 C 125.213 235.452,125.124 235.432,124.851 235.498 C 124.579 235.564,124.354 235.312,124.350 234.938 C 124.345 234.354,124.290 234.342,123.960 234.851 C 123.681 235.283,123.575 235.304,123.570 234.927 C 123.567 234.642,123.382 234.522,123.159 234.660 C 122.935 234.797,122.778 234.763,122.809 234.584 C 122.949 233.777,122.738 233.242,122.370 233.469 C 122.148 233.606,122.070 233.884,122.195 234.087 C 122.320 234.290,122.234 234.455,122.004 234.455 C 121.773 234.455,121.584 234.188,121.584 233.861 C 121.584 233.535,121.426 233.267,121.232 233.267 C 121.039 233.267,120.905 232.955,120.935 232.574 C 120.969 232.148,120.762 231.932,120.396 232.013 C 120.069 232.086,119.925 232.022,120.075 231.872 C 120.417 231.531,119.518 230.510,119.099 230.764 C 118.930 230.866,118.841 230.714,118.901 230.425 C 118.961 230.134,118.702 229.925,118.317 229.956 C 117.936 229.986,117.624 229.853,117.624 229.659 C 117.624 229.465,117.367 229.307,117.053 229.307 C 116.739 229.307,116.355 229.101,116.200 228.850 C 116.025 228.566,116.091 228.500,116.374 228.675 C 116.626 228.830,116.832 228.769,116.832 228.538 C 116.832 228.308,116.653 228.119,116.436 228.119 C 116.218 228.119,116.040 227.946,116.040 227.735 C 116.040 227.524,116.351 227.457,116.733 227.586 C 117.201 227.744,117.136 227.604,116.535 227.155 C 116.045 226.789,115.644 226.133,115.644 225.697 C 115.644 225.235,115.467 225.013,115.221 225.165 C 114.988 225.309,114.909 225.721,115.046 226.080 C 115.245 226.603,115.195 226.634,114.796 226.238 C 114.150 225.597,113.531 225.597,113.906 226.238 C 114.065 226.510,113.808 226.393,113.335 225.978 C 112.420 225.175,112.166 223.762,112.937 223.762 C 113.191 223.762,113.266 223.629,113.102 223.465 C 112.799 223.162,112.606 223.112,111.386 223.014 C 110.793 222.966,110.779 222.904,111.287 222.583 C 111.807 222.254,111.794 222.120,111.188 221.514 C 110.528 220.853,110.495 220.862,110.495 221.697 C 110.495 222.180,110.317 222.574,110.099 222.574 C 109.881 222.574,109.703 222.218,109.703 221.782 C 109.703 221.347,109.525 220.990,109.307 220.990 C 109.089 220.990,108.911 221.279,108.911 221.633 C 108.911 222.150,108.799 222.182,108.334 221.797 C 107.630 221.212,106.793 221.645,107.097 222.437 C 107.220 222.758,107.145 222.905,106.926 222.769 C 106.711 222.636,106.535 222.260,106.535 221.933 C 106.535 221.607,106.354 221.451,106.132 221.588 C 105.911 221.725,105.856 222.047,106.010 222.305 C 106.164 222.562,105.955 222.505,105.545 222.178 C 105.134 221.851,104.921 221.788,105.070 222.038 C 105.220 222.287,105.066 222.597,104.730 222.726 C 104.382 222.860,104.221 222.794,104.357 222.573 C 104.862 221.757,103.961 220.867,103.362 221.589 C 102.906 222.139,102.911 222.294,103.392 222.598 C 103.861 222.896,103.840 222.968,103.267 223.014 C 102.886 223.044,102.396 223.114,102.178 223.168 C 101.960 223.223,101.649 223.292,101.485 223.323 C 101.322 223.353,101.455 223.549,101.782 223.757 C 102.242 224.050,102.277 224.295,101.938 224.840 C 101.394 225.715,97.398 226.332,96.941 225.612 C 96.778 225.357,96.643 225.304,96.640 225.494 C 96.636 225.684,96.366 225.618,96.040 225.347 C 95.541 224.933,95.439 225.004,95.406 225.793 L 95.367 226.733 95.050 225.743 C 94.875 225.198,94.715 224.986,94.693 225.271 C 94.671 225.556,94.475 225.679,94.257 225.545 C 93.703 225.202,93.762 225.881,94.337 226.455 C 94.706 226.825,94.618 226.931,93.941 226.931 C 93.068 226.931,92.912 227.655,93.663 228.218 C 93.915 228.407,93.863 228.641,93.522 228.861 C 93.110 229.127,93.097 229.277,93.465 229.505 C 93.834 229.733,93.820 229.882,93.409 230.142 C 93.028 230.384,93.013 230.485,93.357 230.489 C 93.704 230.493,93.740 230.763,93.482 231.443 C 93.283 231.964,93.214 232.810,93.328 233.324 C 93.492 234.066,93.447 234.136,93.110 233.663 C 92.757 233.170,92.684 233.221,92.679 233.960 C 92.676 234.450,92.495 234.851,92.277 234.851 C 92.059 234.851,91.861 234.450,91.835 233.960 C 91.800 233.282,91.746 233.236,91.607 233.767 C 91.507 234.151,91.279 234.375,91.101 234.265 C 90.922 234.154,90.670 234.340,90.541 234.676 C 90.412 235.013,90.470 235.187,90.670 235.064 C 90.871 234.940,91.164 235.064,91.323 235.340 C 91.482 235.616,91.471 235.714,91.299 235.558 C 90.934 235.229,89.325 235.991,89.666 236.332 C 89.791 236.458,89.696 236.800,89.453 237.092 C 89.209 237.387,89.181 237.624,89.390 237.624 C 89.914 237.624,89.879 238.939,89.346 239.323 C 89.085 239.512,89.211 239.591,89.663 239.521 C 90.197 239.439,90.436 239.664,90.488 240.297 C 90.542 240.958,90.347 241.190,89.736 241.194 C 89.112 241.199,89.044 241.285,89.457 241.546 C 89.757 241.736,89.881 242.088,89.733 242.327 C 89.558 242.610,89.702 242.672,90.143 242.502 C 90.604 242.325,90.731 242.391,90.537 242.705 C 90.379 242.960,90.427 243.168,90.643 243.168 C 90.859 243.168,91.150 242.809,91.289 242.370 C 91.428 241.932,91.700 241.670,91.892 241.789 C 92.085 241.908,92.142 242.267,92.020 242.587 C 91.891 242.921,92.025 243.171,92.334 243.174 C 92.749 243.179,92.736 243.268,92.277 243.564 C 91.881 243.820,91.848 243.950,92.178 243.954 C 92.450 243.958,92.673 244.317,92.673 244.752 C 92.673 245.188,92.831 245.545,93.023 245.545 C 93.599 245.545,93.873 247.271,93.351 247.610 C 93.022 247.823,93.154 247.998,93.771 248.167 C 94.401 248.340,94.555 248.552,94.286 248.877 C 94.016 249.201,94.134 249.357,94.682 249.398 C 95.111 249.431,95.359 249.290,95.233 249.085 C 95.106 248.880,95.191 248.713,95.422 248.713 C 95.653 248.713,95.842 248.902,95.842 249.132 C 95.842 249.363,96.021 249.441,96.241 249.305 C 96.460 249.169,96.918 249.337,97.259 249.678 C 97.725 250.144,97.749 250.299,97.355 250.303 C 96.968 250.308,96.986 250.411,97.426 250.699 C 97.933 251.032,97.938 251.142,97.461 251.449 C 97.027 251.728,97.113 251.840,97.840 251.944 C 98.443 252.031,98.877 252.434,99.053 253.069 C 99.204 253.614,99.345 253.815,99.366 253.516 C 99.398 253.078,99.521 253.068,100.000 253.465 C 100.449 253.838,100.594 253.843,100.594 253.486 C 100.594 253.182,100.815 253.234,101.213 253.632 C 101.554 253.973,101.722 254.431,101.586 254.650 C 101.450 254.870,101.525 255.050,101.751 255.050 C 101.978 255.050,102.280 255.540,102.423 256.139 C 102.775 257.608,103.021 257.984,103.318 257.504 C 103.727 256.842,105.676 257.409,105.560 258.157 C 105.504 258.517,105.656 258.946,105.898 259.109 C 106.202 259.315,106.155 259.525,105.743 259.796 C 105.416 260.010,105.282 260.211,105.446 260.241 C 105.609 260.272,105.921 260.342,106.139 260.396 C 106.356 260.450,106.713 260.517,106.931 260.545 C 107.149 260.572,107.327 260.841,107.327 261.144 C 107.327 261.523,107.746 261.665,108.675 261.603 C 109.892 261.521,110.007 261.603,109.856 262.439 C 109.763 262.949,109.857 263.366,110.065 263.366 C 110.447 263.366,110.962 264.533,111.244 266.040 C 111.274 266.203,111.475 266.069,111.689 265.743 C 111.960 265.330,112.170 265.283,112.376 265.587 C 112.540 265.829,112.955 265.983,113.300 265.929 C 113.645 265.876,113.936 266.035,113.946 266.282 C 113.957 266.530,114.094 267.045,114.253 267.426 C 114.430 267.854,114.364 268.119,114.078 268.119 C 113.824 268.119,113.727 268.297,113.861 268.515 C 113.996 268.733,114.439 268.911,114.847 268.911 C 115.254 268.911,115.846 269.170,116.162 269.486 C 116.479 269.802,116.839 269.959,116.964 269.835 C 117.088 269.711,117.479 269.897,117.831 270.250 C 118.234 270.653,118.297 270.891,118.000 270.891 C 117.642 270.891,117.647 271.036,118.020 271.485 C 118.291 271.812,118.357 272.091,118.167 272.104 C 117.977 272.118,118.223 272.291,118.713 272.488 C 119.269 272.711,119.606 273.186,119.610 273.750 C 119.615 274.482,119.690 274.541,120.006 274.059 C 120.353 273.531,120.439 273.531,120.786 274.059 C 121.075 274.499,121.178 274.517,121.182 274.130 C 121.187 273.736,121.341 273.760,121.807 274.226 C 122.148 274.567,122.316 275.025,122.180 275.244 C 122.044 275.464,122.122 275.644,122.353 275.644 C 122.584 275.644,122.772 275.832,122.772 276.063 C 122.772 276.294,122.571 276.358,122.325 276.206 C 122.053 276.038,121.950 276.146,122.061 276.480 C 122.162 276.782,122.497 277.030,122.805 277.030 C 123.114 277.030,123.389 277.252,123.416 277.525 C 123.515 278.518,123.582 278.605,123.883 278.131 C 124.099 277.792,124.540 277.752,125.362 277.998 C 126.007 278.190,126.356 278.366,126.139 278.388 C 125.921 278.410,126.010 278.601,126.337 278.812 C 126.865 279.153,126.865 279.197,126.337 279.208 C 125.809 279.219,125.809 279.263,126.337 279.610 C 126.826 279.931,126.837 280.061,126.398 280.344 C 126.002 280.599,126.129 280.754,126.893 280.945 C 127.479 281.092,127.921 281.484,127.921 281.856 C 127.921 282.215,128.038 282.391,128.181 282.248 C 128.325 282.104,128.681 282.186,128.973 282.428 C 129.366 282.754,129.505 282.749,129.505 282.409 C 129.505 282.084,129.667 282.099,130.057 282.460 C 130.361 282.740,130.528 283.105,130.428 283.270 C 130.328 283.435,130.525 283.849,130.866 284.190 C 131.206 284.530,131.485 285.142,131.485 285.549 C 131.485 286.449,132.131 286.931,132.411 286.240 C 132.556 285.884,132.706 285.867,132.940 286.182 C 133.120 286.423,133.561 286.575,133.919 286.520 C 134.331 286.456,134.534 286.659,134.470 287.071 C 134.415 287.429,134.567 287.870,134.809 288.050 C 135.123 288.284,135.106 288.434,134.750 288.579 C 134.060 288.859,134.541 289.505,135.441 289.505 C 135.848 289.505,136.460 289.784,136.800 290.124 C 137.141 290.465,137.555 290.662,137.720 290.562 C 137.885 290.462,138.250 290.629,138.530 290.933 C 138.892 291.323,138.906 291.485,138.581 291.485 C 138.241 291.485,138.236 291.624,138.562 292.017 C 138.805 292.309,138.886 292.665,138.742 292.809 C 138.599 292.952,138.775 293.069,139.134 293.069 C 139.506 293.069,139.898 293.511,140.045 294.097 C 140.237 294.861,140.391 294.988,140.646 294.592 C 140.930 294.153,141.059 294.164,141.380 294.653 C 141.727 295.182,141.771 295.182,141.782 294.653 C 141.793 294.125,141.837 294.125,142.178 294.653 C 142.389 294.980,142.580 295.069,142.602 294.851 C 142.624 294.634,142.800 294.983,142.992 295.628 C 143.238 296.450,143.198 296.891,142.859 297.107 C 142.385 297.408,142.472 297.475,143.465 297.574 C 143.738 297.601,143.960 297.876,143.960 298.185 C 143.960 298.493,144.208 298.828,144.511 298.929 C 144.845 299.041,144.952 298.937,144.784 298.665 C 144.632 298.419,144.696 298.218,144.927 298.218 C 145.158 298.218,145.347 298.407,145.347 298.637 C 145.347 298.868,145.526 298.946,145.746 298.810 C 145.965 298.674,146.423 298.842,146.764 299.183 C 147.230 299.649,147.254 299.803,146.860 299.808 C 146.473 299.813,146.491 299.916,146.931 300.204 C 147.459 300.551,147.459 300.637,146.931 300.984 C 146.450 301.300,146.508 301.375,147.240 301.380 C 147.804 301.384,148.279 301.722,148.503 302.277 C 148.700 302.767,148.872 303.013,148.886 302.823 C 148.900 302.633,149.178 302.699,149.505 302.970 C 149.954 303.343,150.099 303.348,150.099 302.991 C 150.099 302.693,150.337 302.756,150.740 303.159 C 151.093 303.512,151.280 303.902,151.155 304.026 C 151.031 304.151,151.188 304.512,151.504 304.828 C 151.820 305.144,152.079 305.736,152.079 306.144 C 152.079 306.551,152.257 306.994,152.475 307.129 C 152.693 307.263,152.871 307.166,152.871 306.912 C 152.871 306.626,153.136 306.560,153.564 306.737 C 153.946 306.896,154.460 307.034,154.708 307.044 C 154.955 307.054,155.114 307.345,155.061 307.690 C 155.007 308.035,155.161 308.450,155.403 308.614 C 155.707 308.820,155.660 309.030,155.248 309.301 C 154.921 309.515,154.787 309.716,154.950 309.746 C 155.114 309.777,155.426 309.847,155.644 309.901 C 155.861 309.955,156.218 310.022,156.436 310.050 C 156.653 310.077,156.832 310.346,156.832 310.649 C 156.832 311.025,157.247 311.170,158.153 311.110 C 159.419 311.025,159.470 311.076,159.385 312.342 C 159.325 313.248,159.470 313.663,159.846 313.663 C 160.149 313.663,160.418 313.842,160.446 314.059 C 160.473 314.277,160.540 314.634,160.594 314.851 C 160.649 315.069,160.718 315.381,160.749 315.545 C 160.779 315.708,160.980 315.574,161.194 315.248 C 161.465 314.835,161.675 314.788,161.881 315.092 C 162.045 315.334,162.506 315.481,162.908 315.419 C 163.309 315.357,163.538 315.406,163.417 315.527 C 163.295 315.649,163.387 316.103,163.619 316.538 C 163.938 317.134,163.911 317.413,163.506 317.674 C 163.097 317.938,163.183 318.078,163.870 318.266 C 164.500 318.439,164.654 318.651,164.385 318.976 C 164.115 319.300,164.233 319.456,164.781 319.497 C 165.210 319.530,165.458 319.389,165.332 319.184 C 165.205 318.979,165.291 318.812,165.521 318.812 C 165.752 318.812,165.941 319.001,165.941 319.231 C 165.941 319.462,166.120 319.540,166.340 319.404 C 166.559 319.268,167.017 319.436,167.358 319.777 C 167.756 320.175,167.808 320.396,167.505 320.396 C 167.147 320.396,167.152 320.541,167.525 320.990 C 167.796 321.317,167.862 321.595,167.672 321.609 C 167.482 321.623,167.728 321.796,168.218 321.993 C 168.774 322.216,169.111 322.691,169.115 323.255 C 169.120 323.987,169.195 324.046,169.511 323.564 C 169.858 323.036,169.944 323.036,170.291 323.564 C 170.580 324.004,170.683 324.022,170.687 323.635 C 170.692 323.241,170.846 323.265,171.312 323.731 C 171.653 324.072,171.821 324.530,171.685 324.749 C 171.549 324.969,171.627 325.149,171.858 325.149 C 172.088 325.149,172.277 325.337,172.277 325.568 C 172.277 325.799,172.076 325.863,171.830 325.711 C 171.558 325.543,171.454 325.651,171.566 325.984 C 171.667 326.287,172.002 326.535,172.310 326.535 C 172.619 326.535,172.894 326.757,172.921 327.030 C 173.020 328.018,173.087 328.111,173.373 327.660 C 173.820 326.958,175.781 327.470,175.659 328.256 C 175.603 328.616,175.755 329.045,175.997 329.208 C 176.301 329.414,176.254 329.624,175.842 329.895 C 175.515 330.109,175.381 330.310,175.545 330.340 C 175.708 330.371,176.020 330.441,176.238 330.495 C 176.455 330.550,176.812 330.616,177.030 330.644 C 177.248 330.671,177.426 330.990,177.426 331.353 C 177.426 331.716,177.543 331.896,177.686 331.753 C 177.830 331.609,178.186 331.691,178.478 331.933 C 178.871 332.259,179.010 332.254,179.010 331.914 C 179.010 331.588,179.169 331.602,179.554 331.962 C 179.854 332.242,180.013 332.695,179.908 332.968 C 179.803 333.242,179.903 333.465,180.129 333.465 C 180.542 333.465,181.053 334.591,181.343 336.139 C 181.373 336.302,181.574 336.168,181.788 335.842 C 182.059 335.429,182.269 335.382,182.475 335.686 C 182.639 335.928,183.066 336.080,183.424 336.025 C 183.836 335.961,184.039 336.164,183.975 336.576 C 183.920 336.934,184.072 337.361,184.314 337.525 C 184.623 337.734,184.594 337.924,184.215 338.168 C 183.605 338.562,183.885 338.788,185.446 339.161 C 186.045 339.304,186.535 339.606,186.535 339.833 C 186.535 340.059,186.714 340.134,186.934 339.998 C 187.153 339.862,187.611 340.030,187.952 340.371 C 188.350 340.769,188.403 340.990,188.099 340.990 C 187.748 340.990,187.740 341.127,188.067 341.522 C 188.309 341.814,188.391 342.170,188.247 342.314 C 188.104 342.457,188.280 342.574,188.639 342.574 C 189.011 342.574,189.403 343.016,189.550 343.602 C 189.741 344.366,189.896 344.493,190.151 344.097 C 190.434 343.658,190.564 343.669,190.885 344.158 C 191.174 344.598,191.277 344.616,191.281 344.229 C 191.286 343.835,191.440 343.859,191.906 344.325 C 192.247 344.666,192.415 345.124,192.279 345.343 C 192.143 345.563,192.221 345.743,192.452 345.743 C 192.683 345.743,192.871 345.931,192.871 346.162 C 192.871 346.393,192.670 346.457,192.424 346.305 C 192.152 346.137,192.049 346.245,192.160 346.579 C 192.261 346.881,192.596 347.129,192.904 347.129 C 193.213 347.129,193.465 347.381,193.465 347.690 C 193.465 347.998,193.713 348.333,194.016 348.434 C 194.349 348.546,194.457 348.442,194.289 348.170 C 194.137 347.924,194.201 347.723,194.432 347.723 C 194.663 347.723,194.851 347.881,194.851 348.075 C 194.851 348.268,195.074 348.419,195.347 348.408 C 196.744 348.357,197.190 348.548,196.975 349.109 C 196.843 349.452,196.974 349.715,197.284 349.731 C 197.580 349.746,197.465 349.912,197.030 350.099 C 196.293 350.416,196.289 350.441,196.979 350.467 C 197.598 350.490,197.638 350.595,197.220 351.098 C 196.802 351.602,196.826 351.660,197.370 351.452 C 197.849 351.268,198.020 351.428,198.020 352.060 C 198.020 352.568,198.193 352.811,198.443 352.657 C 198.676 352.513,198.754 352.101,198.617 351.742 C 198.418 351.219,198.468 351.187,198.868 351.584 C 199.512 352.224,200.122 352.224,199.791 351.584 C 199.650 351.312,199.903 351.535,200.353 352.079 C 200.913 352.758,201.175 352.882,201.185 352.475 C 201.198 351.988,201.262 351.979,201.542 352.421 C 201.831 352.877,201.918 352.877,202.100 352.421 C 202.239 352.075,202.433 352.023,202.643 352.277 C 203.096 352.826,203.960 352.956,203.960 352.475 C 203.960 351.922,208.057 351.977,208.617 352.538 C 208.964 352.885,209.224 352.873,209.686 352.489 C 210.174 352.084,210.416 352.081,210.891 352.475 C 211.290 352.807,211.485 352.825,211.485 352.531 C 211.485 352.291,211.975 351.974,212.574 351.826 C 213.935 351.491,215.430 350.125,215.439 349.208 C 215.442 348.827,215.634 348.515,215.865 348.515 C 216.096 348.515,216.190 348.362,216.075 348.176 C 215.960 347.990,216.350 347.856,216.943 347.879 C 217.642 347.906,217.982 347.737,217.911 347.396 C 217.851 347.108,217.985 346.985,218.208 347.123 C 218.431 347.261,218.614 347.185,218.614 346.954 C 218.614 346.723,218.862 346.535,219.166 346.535 C 219.469 346.535,219.825 346.253,219.958 345.908 C 220.356 344.870,220.232 344.757,219.582 345.568 C 218.977 346.323,218.973 346.323,219.377 345.545 C 219.936 344.468,220.824 343.366,221.133 343.366 C 221.272 343.366,221.389 343.678,221.392 344.059 C 221.397 344.634,221.460 344.654,221.762 344.177 C 221.962 343.861,222.021 343.432,221.893 343.225 C 221.765 343.018,221.866 342.975,222.117 343.130 C 222.373 343.289,222.577 343.185,222.580 342.895 C 222.585 342.518,222.691 342.539,222.970 342.970 C 223.300 343.480,223.355 343.468,223.360 342.884 C 223.364 342.416,223.583 342.273,224.059 342.426 C 224.654 342.617,224.668 342.583,224.158 342.185 C 223.694 341.823,223.676 341.677,224.076 341.515 C 224.442 341.368,224.469 341.166,224.170 340.806 C 223.869 340.443,223.927 340.158,224.382 339.781 C 224.876 339.371,225.076 339.364,225.313 339.747 C 225.543 340.120,225.735 340.091,226.123 339.623 C 226.403 339.286,226.922 339.007,227.276 339.004 C 227.837 338.999,227.844 338.948,227.327 338.614 C 226.895 338.335,226.874 338.228,227.251 338.224 C 227.536 338.221,227.657 338.035,227.519 337.812 C 227.381 337.589,227.415 337.432,227.594 337.463 C 228.401 337.603,228.937 337.392,228.709 337.023 C 228.572 336.802,228.294 336.723,228.091 336.849 C 227.471 337.232,227.681 336.675,228.446 335.910 C 228.844 335.513,229.512 335.067,229.931 334.919 C 230.654 334.665,230.652 334.685,229.901 335.300 C 229.202 335.872,229.194 335.919,229.834 335.697 C 230.233 335.559,230.634 335.446,230.725 335.446 C 230.817 335.446,230.894 335.134,230.897 334.752 C 230.902 334.160,230.959 334.146,231.287 334.653 C 231.621 335.170,231.672 335.164,231.677 334.603 C 231.680 334.248,231.959 333.730,232.296 333.450 C 232.785 333.044,232.805 332.876,232.395 332.615 C 231.975 332.349,231.976 332.288,232.400 332.283 C 232.685 332.280,232.815 332.111,232.690 331.909 C 232.565 331.706,232.632 331.435,232.840 331.306 C 233.048 331.178,233.402 331.388,233.627 331.774 C 234.013 332.437,234.036 332.437,234.047 331.782 C 234.059 331.086,234.641 330.831,234.952 331.386 C 235.043 331.550,235.063 331.460,234.997 331.188 C 234.931 330.916,235.079 330.693,235.326 330.693 C 235.573 330.693,235.655 330.573,235.508 330.426 C 235.361 330.279,235.733 329.835,236.333 329.438 C 237.145 328.903,237.248 328.717,236.733 328.715 C 235.247 328.710,236.431 327.467,238.020 327.365 C 238.347 327.344,238.554 327.059,238.482 326.733 C 238.409 326.406,238.473 326.262,238.623 326.412 C 238.965 326.753,239.985 325.855,239.731 325.436 C 239.629 325.267,239.781 325.178,240.070 325.238 C 240.358 325.298,240.611 325.079,240.632 324.752 C 240.691 323.847,241.230 322.772,241.627 322.772 C 241.821 322.772,241.981 323.084,241.983 323.465 C 241.985 323.980,242.170 323.878,242.706 323.066 C 243.102 322.465,243.546 322.094,243.693 322.241 C 243.840 322.388,243.960 322.306,243.960 322.059 C 243.960 321.811,244.183 321.663,244.455 321.730 C 244.728 321.796,244.817 321.776,244.653 321.684 C 244.099 321.374,244.353 320.792,245.050 320.780 C 245.704 320.769,245.704 320.746,245.041 320.360 C 244.655 320.135,244.445 319.781,244.573 319.573 C 244.702 319.365,244.973 319.298,245.176 319.423 C 245.379 319.548,245.547 319.417,245.551 319.132 C 245.556 318.709,245.616 318.708,245.883 319.128 C 246.143 319.538,246.311 319.518,246.717 319.029 C 246.997 318.692,247.516 318.413,247.870 318.410 C 248.431 318.405,248.438 318.354,247.921 318.020 C 247.405 317.687,247.413 317.635,247.977 317.630 C 248.335 317.626,248.736 317.342,248.869 316.997 C 249.266 315.962,249.143 315.844,248.514 316.657 C 247.933 317.408,247.925 317.408,248.187 316.664 C 248.334 316.245,248.780 315.577,249.178 315.179 C 249.943 314.414,250.500 314.203,250.116 314.824 C 249.991 315.027,250.069 315.305,250.291 315.442 C 250.659 315.669,250.870 315.133,250.730 314.327 C 250.699 314.147,250.856 314.113,251.079 314.251 C 251.303 314.389,251.488 314.269,251.491 313.984 C 251.496 313.607,251.602 313.628,251.881 314.059 C 252.215 314.576,252.266 314.570,252.271 314.009 C 252.274 313.654,252.553 313.135,252.890 312.856 C 253.358 312.467,253.387 312.276,253.015 312.045 C 252.631 311.808,252.638 311.608,253.048 311.114 C 253.425 310.660,253.710 310.601,254.073 310.903 C 254.433 311.202,254.635 311.175,254.783 310.809 C 254.944 310.409,255.091 310.427,255.453 310.891 C 255.851 311.401,255.885 311.387,255.693 310.792 C 255.540 310.315,255.683 310.097,256.151 310.093 C 256.735 310.088,256.748 310.033,256.238 309.703 C 255.806 309.424,255.785 309.317,256.162 309.313 C 256.452 309.310,256.556 309.106,256.398 308.850 C 256.242 308.598,256.285 308.497,256.492 308.626 C 256.700 308.754,257.128 308.695,257.445 308.495 C 257.922 308.193,257.902 308.130,257.327 308.125 C 256.104 308.114,256.819 307.145,258.812 306.110 L 259.604 305.699 258.812 306.368 C 258.110 306.961,258.102 307.009,258.745 306.786 C 259.144 306.648,259.545 306.535,259.636 306.535 C 259.727 306.535,259.805 306.223,259.808 305.842 C 259.813 305.243,259.872 305.229,260.238 305.743 C 260.581 306.221,260.626 306.167,260.471 305.459 C 260.355 304.928,260.459 304.615,260.734 304.667 C 260.984 304.714,261.163 304.441,261.133 304.059 C 261.103 303.678,261.237 303.366,261.430 303.366 C 261.624 303.366,261.738 303.166,261.683 302.921 C 261.629 302.676,261.792 302.399,262.046 302.305 C 262.300 302.211,262.573 302.456,262.653 302.849 C 262.766 303.405,262.921 303.293,263.347 302.344 C 263.649 301.673,264.423 300.891,265.067 300.606 C 266.063 300.165,266.141 300.033,265.586 299.722 C 265.227 299.522,265.039 299.187,265.168 298.979 C 265.296 298.771,265.567 298.703,265.770 298.829 C 265.973 298.954,266.139 298.888,266.139 298.681 C 266.139 298.475,266.450 298.331,266.832 298.361 C 267.213 298.391,267.486 298.211,267.439 297.961 C 267.388 297.686,267.700 297.583,268.231 297.699 C 268.939 297.853,268.994 297.808,268.515 297.466 C 267.996 297.095,268.003 297.041,268.571 297.036 C 268.929 297.032,269.330 296.748,269.463 296.403 C 269.861 295.365,269.737 295.252,269.087 296.063 C 268.482 296.818,268.478 296.818,268.882 296.040 C 269.917 294.047,270.886 293.332,270.897 294.554 C 270.902 295.129,270.965 295.149,271.267 294.672 C 271.467 294.356,271.526 293.928,271.398 293.720 C 271.270 293.513,271.370 293.470,271.622 293.626 C 271.878 293.784,272.082 293.680,272.085 293.390 C 272.090 293.013,272.196 293.034,272.475 293.465 C 272.809 293.982,272.860 293.976,272.865 293.415 C 272.869 293.060,273.147 292.541,273.484 292.262 C 273.973 291.856,273.993 291.689,273.583 291.435 C 273.179 291.186,273.220 290.967,273.777 290.410 C 274.333 289.854,274.552 289.813,274.802 290.217 C 275.055 290.627,275.222 290.607,275.628 290.118 C 275.908 289.781,276.427 289.502,276.781 289.499 C 277.342 289.494,277.349 289.443,276.832 289.109 C 276.400 288.830,276.379 288.723,276.756 288.719 C 277.041 288.716,277.162 288.530,277.024 288.307 C 276.886 288.084,276.920 287.927,277.099 287.958 C 277.906 288.098,278.441 287.887,278.214 287.518 C 278.077 287.297,277.799 287.218,277.596 287.344 C 277.394 287.469,277.228 287.447,277.228 287.295 C 277.228 286.966,278.300 286.090,279.406 285.516 L 280.198 285.105 279.406 285.774 C 278.704 286.367,278.696 286.415,279.339 286.192 C 279.738 286.054,280.139 285.941,280.230 285.941 C 280.322 285.941,280.399 285.629,280.402 285.248 C 280.407 284.655,280.464 284.641,280.792 285.149 C 281.126 285.665,281.177 285.659,281.182 285.098 C 281.185 284.743,281.464 284.225,281.801 283.945 C 282.290 283.539,282.310 283.371,281.900 283.110 C 281.480 282.844,281.481 282.783,281.905 282.778 C 282.190 282.775,282.320 282.606,282.195 282.404 C 282.070 282.201,282.137 281.930,282.345 281.801 C 282.553 281.673,282.907 281.883,283.132 282.269 C 283.518 282.932,283.541 282.932,283.552 282.277 C 283.559 281.896,283.743 281.584,283.960 281.584 C 284.178 281.584,284.356 281.360,284.356 281.087 C 284.356 280.813,284.936 280.329,285.644 280.011 C 286.594 279.584,286.749 279.395,286.238 279.291 C 284.918 279.022,285.868 277.967,287.525 277.860 C 287.851 277.839,288.070 277.586,288.010 277.297 C 287.950 277.009,288.084 276.886,288.307 277.024 C 288.530 277.162,288.713 277.086,288.713 276.855 C 288.713 276.624,288.961 276.436,289.265 276.436 C 289.568 276.436,289.924 276.154,290.057 275.809 C 290.455 274.771,290.331 274.658,289.681 275.469 C 289.076 276.224,289.072 276.224,289.476 275.446 C 290.035 274.369,290.923 273.267,291.232 273.267 C 291.371 273.267,291.486 273.579,291.488 273.960 C 291.490 274.475,291.675 274.373,292.211 273.561 C 292.607 272.960,293.051 272.589,293.198 272.736 C 293.345 272.883,293.465 272.801,293.465 272.554 C 293.465 272.305,293.774 272.203,294.158 272.327 C 294.753 272.518,294.767 272.484,294.257 272.086 C 293.793 271.724,293.775 271.578,294.175 271.416 C 294.541 271.269,294.568 271.067,294.269 270.707 C 293.968 270.344,294.026 270.059,294.481 269.682 C 294.975 269.272,295.175 269.265,295.412 269.648 C 295.642 270.021,295.834 269.992,296.222 269.524 C 296.502 269.187,297.021 268.908,297.375 268.905 C 297.936 268.900,297.943 268.849,297.426 268.515 C 296.910 268.182,296.918 268.130,297.482 268.125 C 297.840 268.122,298.241 267.837,298.373 267.492 C 298.771 266.457,298.648 266.339,298.019 267.152 C 297.438 267.903,297.430 267.903,297.692 267.159 C 298.034 266.185,299.056 265.163,300.030 264.820 C 300.753 264.566,300.751 264.586,300.000 265.201 C 299.301 265.773,299.293 265.820,299.933 265.598 C 300.332 265.460,300.733 265.347,300.824 265.347 C 300.916 265.347,300.993 265.035,300.996 264.653 C 301.001 264.061,301.058 264.047,301.386 264.554 C 301.720 265.071,301.771 265.065,301.776 264.504 C 301.779 264.149,302.058 263.630,302.395 263.351 C 302.863 262.962,302.892 262.771,302.519 262.540 C 302.136 262.303,302.143 262.104,302.553 261.609 C 302.930 261.155,303.215 261.096,303.578 261.398 C 303.938 261.697,304.140 261.670,304.288 261.304 C 304.449 260.904,304.596 260.922,304.958 261.386 C 305.356 261.896,305.390 261.882,305.198 261.287 C 305.075 260.903,305.176 260.594,305.425 260.594 C 305.672 260.594,305.754 260.474,305.607 260.327 C 305.460 260.180,305.832 259.736,306.432 259.339 C 307.244 258.804,307.347 258.618,306.832 258.616 C 305.607 258.612,306.326 257.639,308.317 256.605 L 309.109 256.194 308.317 256.863 C 307.614 257.456,307.607 257.504,308.250 257.281 C 308.649 257.143,309.050 257.030,309.141 257.030 C 309.232 257.030,309.310 256.718,309.313 256.337 C 309.318 255.738,309.377 255.724,309.743 256.238 C 310.085 256.717,310.131 256.662,309.976 255.954 C 309.860 255.423,309.964 255.110,310.239 255.162 C 310.489 255.209,310.710 254.980,310.731 254.653 C 310.838 252.997,311.894 252.047,312.162 253.366 C 312.268 253.887,312.440 253.757,312.852 252.839 C 313.154 252.168,313.914 251.392,314.541 251.115 C 315.571 250.659,315.616 250.562,315.010 250.119 C 314.396 249.670,314.415 249.608,315.229 249.395 C 315.829 249.238,316.019 248.992,315.813 248.641 C 315.645 248.354,315.864 248.431,316.300 248.812 C 317.271 249.661,317.624 249.687,317.624 248.911 C 317.624 248.584,317.812 248.317,318.043 248.317 C 318.274 248.317,318.371 248.465,318.259 248.647 C 318.146 248.828,318.284 248.977,318.565 248.977 C 318.846 248.977,319.076 248.747,319.076 248.466 C 319.076 248.185,318.940 248.040,318.773 248.143 C 318.607 248.246,318.367 248.161,318.239 247.956 C 318.112 247.750,318.412 247.504,318.905 247.409 L 319.802 247.237 318.888 247.183 C 318.378 247.153,318.083 246.950,318.222 246.726 C 318.359 246.505,318.636 246.426,318.839 246.552 C 319.042 246.677,319.208 246.502,319.208 246.162 C 319.208 245.822,319.386 245.545,319.604 245.545 C 319.822 245.545,320.000 245.188,320.000 244.752 C 320.000 243.658,320.781 243.750,320.838 244.851 C 320.877 245.607,320.913 245.628,321.076 244.992 C 321.231 244.389,321.337 244.350,321.618 244.794 C 321.908 245.252,321.969 245.241,321.974 244.733 C 321.977 244.395,321.789 243.928,321.556 243.695 C 321.255 243.394,321.414 243.302,322.103 243.378 C 322.900 243.465,323.036 243.342,322.866 242.692 C 322.749 242.245,322.900 241.747,323.211 241.550 C 323.602 241.302,323.420 241.198,322.585 241.194 L 321.408 241.188 322.295 240.567 C 322.782 240.225,323.077 239.777,322.950 239.570 C 322.621 239.038,321.918 239.560,322.201 240.126 C 322.330 240.384,322.154 240.248,321.812 239.825 C 321.469 239.403,321.324 238.957,321.490 238.835 C 321.878 238.551,321.992 236.382,321.607 236.620 C 321.448 236.718,321.347 236.304,321.383 235.700 C 321.419 235.097,321.313 234.258,321.148 233.836 C 320.935 233.292,320.840 233.559,320.820 234.752 C 320.804 235.702,320.601 236.436,320.354 236.436 C 320.113 236.436,320.013 236.180,320.133 235.867 C 320.253 235.555,320.153 235.232,319.910 235.151 C 319.463 235.003,319.341 234.405,319.146 231.415 C 319.087 230.505,318.898 229.848,318.727 229.953 C 318.151 230.309,318.410 228.974,319.038 228.345 C 319.380 228.003,319.559 227.700,319.434 227.673 C 319.310 227.646,318.851 227.579,318.416 227.525 C 317.980 227.470,317.446 227.403,317.228 227.376 C 317.010 227.349,316.832 227.095,316.832 226.812 C 316.832 225.885,315.982 225.349,315.187 225.775 C 314.623 226.077,314.455 226.027,314.455 225.558 C 314.455 224.852,313.801 224.736,313.578 225.403 C 313.466 225.742,313.216 225.743,312.587 225.406 C 311.955 225.068,311.709 225.071,311.593 225.420 C 311.508 225.674,311.226 225.752,310.967 225.591 C 310.359 225.216,310.351 223.762,310.957 223.762 C 311.211 223.762,311.285 223.629,311.122 223.465 C 310.819 223.162,310.626 223.112,309.406 223.014 C 308.833 222.968,308.812 222.896,309.281 222.598 C 309.763 222.294,309.767 222.139,309.311 221.589 C 308.712 220.867,307.812 221.757,308.316 222.573 C 308.452 222.794,308.292 222.860,307.944 222.726 C 307.607 222.597,307.429 222.334,307.548 222.141 C 307.667 221.949,307.487 221.897,307.149 222.027 C 306.811 222.157,306.535 222.066,306.535 221.825 C 306.535 221.583,306.346 221.386,306.115 221.386 C 305.885 221.386,305.830 221.609,305.993 221.881 C 306.195 222.218,306.076 222.202,305.621 221.833 C 305.083 221.397,304.833 221.387,304.356 221.782 C 303.870 222.186,303.762 222.159,303.762 221.633 C 303.762 221.279,303.584 220.990,303.366 220.990 C 303.149 220.990,302.970 221.347,302.970 221.782 C 302.970 222.877,302.189 222.785,302.132 221.683 C 302.097 221.005,302.043 220.959,301.904 221.490 C 301.804 221.874,301.576 222.098,301.398 221.987 C 301.219 221.877,300.967 222.062,300.838 222.399 C 300.709 222.736,300.767 222.910,300.967 222.786 C 301.168 222.663,301.446 222.747,301.586 222.974 C 301.726 223.200,301.694 223.360,301.515 223.329 C 300.266 223.112,299.339 223.402,299.739 223.885 C 300.060 224.272,299.972 224.572,299.392 225.069 C 298.956 225.442,298.614 225.541,298.614 225.294 C 298.614 224.971,298.472 224.971,298.082 225.295 C 297.790 225.537,297.434 225.618,297.290 225.475 C 297.147 225.332,297.030 225.512,297.030 225.875 C 297.030 226.238,296.851 226.557,296.634 226.584 C 296.416 226.611,296.059 226.678,295.842 226.733 C 295.624 226.787,295.312 226.857,295.149 226.887 C 294.985 226.918,295.119 227.118,295.446 227.333 C 295.974 227.679,295.974 227.766,295.446 228.113 C 295.119 228.327,295.007 228.505,295.197 228.509 C 295.387 228.512,295.322 228.780,295.053 229.105 C 294.784 229.429,294.406 229.597,294.213 229.477 C 294.019 229.358,293.861 229.449,293.861 229.680 C 293.861 229.910,293.673 230.099,293.442 230.099 C 293.211 230.099,293.147 229.898,293.299 229.652 C 293.467 229.380,293.359 229.276,293.025 229.388 C 292.723 229.488,292.475 229.823,292.475 230.132 C 292.475 230.441,292.223 230.693,291.914 230.693 C 291.606 230.693,291.271 230.941,291.170 231.243 C 291.058 231.577,291.162 231.685,291.434 231.517 C 291.680 231.365,291.881 231.429,291.881 231.660 C 291.881 231.890,291.709 232.079,291.498 232.079 C 291.287 232.079,291.217 232.347,291.342 232.673 C 291.534 233.173,291.015 233.500,290.556 233.168 C 290.480 233.114,290.124 233.314,289.764 233.613 C 289.246 234.042,289.109 234.049,289.109 233.646 C 289.109 233.098,288.548 233.488,288.465 234.092 C 288.438 234.292,288.394 234.634,288.366 234.851 C 288.339 235.069,288.020 235.248,287.657 235.248 C 287.294 235.248,287.114 235.365,287.257 235.508 C 287.401 235.651,287.319 236.008,287.077 236.300 C 286.750 236.694,286.758 236.832,287.109 236.832 C 287.412 236.832,287.360 237.053,286.962 237.451 C 286.621 237.792,286.163 237.959,285.944 237.824 C 285.724 237.688,285.545 237.766,285.545 237.996 C 285.545 238.227,285.356 238.416,285.125 238.416 C 284.894 238.416,284.809 238.248,284.936 238.044 C 285.062 237.839,284.814 237.698,284.385 237.730 C 283.837 237.772,283.719 237.927,283.989 238.252 C 284.258 238.577,284.104 238.789,283.474 238.962 C 282.722 239.167,282.672 239.273,283.168 239.604 C 283.581 239.879,283.628 240.091,283.323 240.297 C 283.082 240.460,282.930 240.887,282.985 241.246 C 283.049 241.658,282.846 241.861,282.434 241.797 C 282.076 241.742,281.649 241.894,281.485 242.135 C 281.279 242.440,281.069 242.392,280.798 241.980 C 280.584 241.653,280.383 241.520,280.353 241.683 C 280.322 241.847,280.252 242.158,280.198 242.376 C 280.144 242.594,280.077 242.950,280.050 243.168 C 280.022 243.386,279.760 243.564,279.467 243.564 C 279.108 243.564,278.962 243.998,279.022 244.884 C 279.082 245.784,278.937 246.205,278.565 246.205 C 278.265 246.205,278.020 246.034,278.020 245.826 C 278.020 245.617,277.783 245.644,277.488 245.889 C 277.196 246.131,276.840 246.212,276.696 246.069 C 276.553 245.926,276.436 246.106,276.436 246.469 C 276.436 246.832,276.257 247.151,276.040 247.178 C 275.822 247.205,275.465 247.272,275.248 247.327 C 275.030 247.381,274.718 247.451,274.554 247.481 C 274.391 247.512,274.525 247.712,274.851 247.927 C 275.264 248.197,275.311 248.408,275.007 248.614 C 274.765 248.777,274.613 249.204,274.668 249.563 C 274.732 249.975,274.529 250.178,274.117 250.114 C 273.759 250.059,273.332 250.211,273.168 250.452 C 272.962 250.757,272.752 250.709,272.481 250.297 C 272.100 249.717,272.032 249.778,271.931 250.792 C 271.903 251.064,271.629 251.287,271.320 251.287 C 271.012 251.287,270.677 251.535,270.576 251.837 C 270.464 252.171,270.568 252.279,270.840 252.111 C 271.086 251.959,271.287 252.023,271.287 252.254 C 271.287 252.485,271.098 252.673,270.868 252.673 C 270.637 252.673,270.559 252.853,270.695 253.072 C 270.831 253.292,270.663 253.750,270.322 254.091 C 269.924 254.489,269.703 254.541,269.703 254.237 C 269.703 253.880,269.558 253.885,269.109 254.257 C 268.782 254.529,268.504 254.595,268.490 254.405 C 268.476 254.215,268.303 254.460,268.106 254.950 C 267.909 255.441,267.446 255.842,267.075 255.842 C 266.705 255.842,266.520 255.959,266.663 256.102 C 266.807 256.245,266.725 256.602,266.483 256.894 C 266.156 257.288,266.164 257.426,266.514 257.426 C 266.818 257.426,266.766 257.647,266.368 258.045 C 266.027 258.386,265.569 258.553,265.350 258.418 C 265.130 258.282,264.950 258.360,264.950 258.590 C 264.950 258.821,264.762 259.010,264.531 259.010 C 264.300 259.010,264.236 258.809,264.388 258.562 C 264.556 258.291,264.448 258.187,264.115 258.298 C 263.812 258.399,263.564 258.734,263.564 259.043 C 263.564 259.351,263.312 259.604,263.003 259.604 C 262.695 259.604,262.360 259.852,262.259 260.154 C 262.148 260.488,262.251 260.596,262.523 260.428 C 262.769 260.276,262.970 260.340,262.970 260.571 C 262.970 260.801,262.782 260.990,262.551 260.990 C 262.320 260.990,262.229 261.148,262.349 261.341 C 262.468 261.534,262.300 261.913,261.976 262.182 C 261.652 262.451,261.383 262.516,261.380 262.326 C 261.377 262.136,261.199 262.248,260.984 262.574 C 260.637 263.102,260.551 263.102,260.204 262.574 C 259.990 262.248,259.789 262.114,259.759 262.277 C 259.728 262.441,259.658 262.752,259.604 262.970 C 259.550 263.188,259.483 263.545,259.455 263.762 C 259.428 263.980,259.109 264.158,258.746 264.158 C 258.383 264.158,258.203 264.276,258.346 264.419 C 258.490 264.562,258.408 264.919,258.166 265.211 C 257.839 265.605,257.847 265.743,258.198 265.743 C 258.515 265.743,258.480 265.933,258.091 266.322 C 257.772 266.641,257.136 266.829,256.676 266.741 C 256.139 266.637,255.842 266.784,255.842 267.151 C 255.842 267.466,255.663 267.745,255.446 267.772 C 255.228 267.800,254.871 267.866,254.653 267.921 C 254.436 267.975,254.124 268.045,253.960 268.075 C 253.797 268.106,253.931 268.306,254.257 268.521 C 254.670 268.791,254.717 269.002,254.413 269.208 C 254.171 269.371,254.019 269.798,254.074 270.157 C 254.138 270.569,253.935 270.772,253.523 270.708 C 253.165 270.653,252.738 270.805,252.574 271.046 C 252.365 271.356,252.175 271.327,251.931 270.948 C 251.537 270.338,251.311 270.618,250.938 272.178 C 250.795 272.777,250.493 273.267,250.266 273.267 C 250.040 273.267,249.965 273.447,250.101 273.666 C 250.237 273.886,250.069 274.344,249.728 274.685 C 249.330 275.083,249.109 275.135,249.109 274.831 C 249.109 274.481,248.972 274.472,248.577 274.800 C 248.285 275.042,247.929 275.123,247.785 274.980 C 247.642 274.837,247.525 275.017,247.525 275.380 C 247.525 275.743,247.347 276.062,247.129 276.089 C 246.911 276.116,246.554 276.183,246.337 276.238 C 246.119 276.292,245.807 276.362,245.644 276.392 C 245.480 276.423,245.614 276.623,245.941 276.838 C 246.427 277.157,246.439 277.289,246.006 277.569 C 245.715 277.757,245.492 278.024,245.511 278.163 C 245.626 279.023,245.475 279.266,244.950 279.065 C 244.624 278.939,244.356 279.009,244.356 279.220 C 244.356 279.431,244.168 279.604,243.937 279.604 C 243.706 279.604,243.642 279.403,243.794 279.157 C 243.962 278.885,243.854 278.781,243.520 278.893 C 243.218 278.993,242.970 279.328,242.970 279.637 C 242.970 279.946,242.718 280.198,242.409 280.198 C 242.101 280.198,241.766 280.446,241.665 280.748 C 241.553 281.082,241.657 281.190,241.929 281.022 C 242.175 280.870,242.376 280.934,242.376 281.165 C 242.376 281.395,242.204 281.584,241.993 281.584 C 241.782 281.584,241.712 281.851,241.837 282.178 C 242.038 282.703,241.796 282.854,240.935 282.738 C 240.796 282.720,240.529 282.943,240.341 283.234 C 240.062 283.667,239.929 283.655,239.610 283.168 C 239.396 282.842,239.195 282.708,239.164 282.871 C 239.134 283.035,239.064 283.347,239.010 283.564 C 238.955 283.782,238.889 284.139,238.861 284.356 C 238.834 284.574,238.515 284.752,238.152 284.752 C 237.789 284.752,237.609 284.870,237.752 285.013 C 237.896 285.156,237.814 285.513,237.572 285.805 C 237.245 286.199,237.253 286.337,237.604 286.337 C 237.908 286.337,237.855 286.558,237.457 286.956 C 237.116 287.297,236.658 287.464,236.439 287.329 C 236.219 287.193,236.040 287.267,236.040 287.494 C 236.040 287.720,235.550 288.023,234.950 288.166 C 233.390 288.539,233.110 288.765,233.720 289.158 C 234.099 289.403,234.128 289.593,233.818 289.802 C 233.577 289.965,233.425 290.392,233.480 290.751 C 233.544 291.163,233.341 291.366,232.929 291.302 C 232.571 291.247,232.144 291.399,231.980 291.640 C 231.774 291.945,231.564 291.897,231.293 291.485 C 231.079 291.158,230.878 291.025,230.848 291.188 C 230.817 291.351,230.748 291.663,230.693 291.881 C 230.639 292.099,230.572 292.455,230.545 292.673 C 230.517 292.891,230.238 293.069,229.924 293.069 C 229.556 293.069,229.410 293.367,229.513 293.904 C 229.602 294.363,229.413 295.000,229.094 295.319 C 228.705 295.708,228.515 295.743,228.515 295.425 C 228.515 295.075,228.378 295.067,227.983 295.394 C 227.691 295.636,227.335 295.717,227.191 295.574 C 227.048 295.431,226.931 295.611,226.931 295.974 C 226.931 296.337,226.752 296.656,226.535 296.683 C 226.317 296.710,225.960 296.777,225.743 296.832 C 225.525 296.886,225.213 296.956,225.050 296.986 C 224.886 297.017,225.020 297.217,225.347 297.432 C 225.759 297.702,225.806 297.913,225.502 298.119 C 225.260 298.282,225.113 298.744,225.175 299.145 C 225.237 299.546,225.188 299.775,225.067 299.654 C 224.946 299.533,224.491 299.624,224.056 299.857 C 223.459 300.176,223.182 300.148,222.926 299.744 C 222.594 299.219,222.526 299.294,222.426 300.297 C 222.399 300.569,222.124 300.792,221.815 300.792 C 221.507 300.792,221.172 301.040,221.071 301.342 C 220.959 301.676,221.063 301.784,221.335 301.616 C 221.581 301.464,221.782 301.528,221.782 301.759 C 221.782 301.989,221.610 302.178,221.399 302.178 C 221.188 302.178,221.118 302.446,221.243 302.772 C 221.388 303.150,221.237 303.366,220.829 303.366 C 220.237 303.366,220.195 293.399,220.291 178.020 C 220.349 109.079,220.252 52.673,220.076 52.673 C 219.899 52.673,219.865 52.495,220.000 52.277 C 220.135 52.059,220.056 51.881,219.825 51.881 C 219.595 51.881,219.406 51.649,219.406 51.366 C 219.406 50.472,218.433 48.714,218.020 48.861 C 217.328 49.107,216.317 48.360,215.719 47.161 C 215.278 46.278,215.262 46.047,215.649 46.195 C 215.929 46.303,216.275 46.200,216.419 45.968 C 216.574 45.717,216.330 45.545,215.823 45.545 C 215.190 45.545,215.030 45.374,215.214 44.894 C 215.416 44.368,215.356 44.334,214.899 44.713 C 214.461 45.077,214.288 45.067,214.129 44.670 C 213.976 44.288,213.916 44.303,213.893 44.729 C 213.870 45.147,213.705 45.094,213.280 44.531 C 212.835 43.943,212.694 43.902,212.680 44.356 C 212.663 44.884,212.619 44.884,212.286 44.356 C 211.849 43.666,211.100 43.558,210.396 44.084 C 210.124 44.287,209.901 44.298,209.901 44.108 C 209.902 43.753,203.034 43.775,202.102 44.133 C 201.817 44.242,201.581 44.114,201.578 43.849 C 201.574 43.511,201.470 43.527,201.232 43.904 C 200.983 44.296,200.815 44.318,200.608 43.983 C 200.403 43.651,200.183 43.644,199.805 43.958 C 199.423 44.275,199.230 44.253,199.079 43.878 C 198.917 43.479,198.772 43.497,198.416 43.960 C 198.071 44.409,197.910 44.433,197.759 44.059 C 197.543 43.527,196.462 43.370,196.395 43.861 " stroke="none" fill="#fcfcfc" fill-rule="evenodd"></path><path id="path1" d="" stroke="none" fill="#100fcfc" fill-rule="evenodd"></path><path id="path2" d="" stroke="none" fill="#100fcfc" fill-rule="evenodd"></path><path id="path3" d="" stroke="none" fill="#100fcfc" fill-rule="evenodd"></path><path id="path4" d="" stroke="none" fill="#100fcfc" fill-rule="evenodd"></path></g></svg>