<svg id="svg" version="1.1" xmlns="http://www.w3.org/2000/svg" xmlns:xlink="http://www.w3.org/1999/xlink" width="400" height="397.5155279503105" viewBox="0, 0, 400,397.5155279503105"><g id="svgg"><path id="path0" d="M170.179 0.785 C 170.179 1.525,169.850 1.575,164.332 1.679 L 158.484 1.789 158.251 2.783 C 158.023 3.753,157.920 3.780,154.058 3.876 C 148.869 4.005,148.310 4.150,148.310 5.361 C 148.310 6.318,148.249 6.335,144.433 6.447 L 140.557 6.561 140.431 7.654 C 140.306 8.736,140.275 8.748,137.382 8.748 C 133.695 8.748,133.201 8.941,133.201 10.381 L 133.201 11.531 129.901 11.531 C 126.495 11.531,125.646 11.864,125.646 13.201 C 125.646 13.791,125.310 13.917,123.738 13.917 C 121.720 13.917,120.875 14.410,120.875 15.586 C 120.875 16.202,120.514 16.302,118.290 16.302 L 115.706 16.302 115.706 17.495 C 115.706 18.659,115.658 18.688,113.750 18.688 C 111.085 18.688,110.537 18.963,110.537 20.301 C 110.537 21.398,110.470 21.435,108.250 21.551 C 106.086 21.664,105.958 21.728,105.838 22.763 C 105.721 23.785,105.588 23.857,103.830 23.857 C 101.851 23.857,100.994 24.354,100.994 25.502 C 100.994 25.990,100.616 26.229,99.702 26.317 C 98.625 26.421,98.389 26.624,98.284 27.535 C 98.168 28.541,98.020 28.628,96.428 28.628 C 93.986 28.628,93.439 28.927,93.439 30.261 C 93.439 31.311,93.317 31.412,92.048 31.412 C 90.772 31.412,90.656 31.509,90.656 32.585 C 90.656 33.734,90.609 33.760,88.370 33.877 C 86.205 33.990,86.077 34.054,85.958 35.089 C 85.852 36.005,85.642 36.183,84.665 36.183 C 83.646 36.183,83.499 36.327,83.499 37.324 C 83.499 38.423,83.411 38.476,81.138 38.733 C 78.947 38.981,78.768 39.077,78.653 40.075 C 78.555 40.919,78.274 41.193,77.336 41.352 C 76.401 41.511,76.116 41.785,76.020 42.622 C 75.924 43.446,75.653 43.718,74.827 43.813 C 74.000 43.908,73.729 44.179,73.634 45.006 C 73.532 45.887,73.286 46.098,72.242 46.199 C 71.199 46.300,70.952 46.512,70.851 47.391 C 70.755 48.218,70.484 48.489,69.658 48.584 C 68.773 48.686,68.567 48.931,68.464 50.000 C 68.354 51.136,68.198 51.292,67.172 51.292 C 66.139 51.292,66.004 51.431,66.004 52.485 C 66.004 53.545,65.871 53.678,64.811 53.678 C 63.751 53.678,63.618 53.810,63.618 54.871 C 63.618 55.969,63.508 56.064,62.227 56.064 C 60.952 56.064,60.835 56.162,60.835 57.230 C 60.835 58.207,60.657 58.417,59.742 58.522 C 58.830 58.627,58.627 58.864,58.524 59.940 C 58.414 61.077,58.258 61.233,57.231 61.233 C 56.199 61.233,56.064 61.371,56.064 62.425 C 56.064 63.486,55.931 63.618,54.871 63.618 C 53.816 63.618,53.678 63.754,53.678 64.786 C 53.678 65.813,53.522 65.969,52.386 66.078 C 51.309 66.182,51.072 66.385,50.968 67.296 C 50.884 68.020,50.609 68.390,50.153 68.390 C 49.205 68.390,48.509 69.170,48.509 70.232 C 48.509 70.905,48.244 71.151,47.416 71.246 C 46.380 71.365,46.316 71.494,46.203 73.658 C 46.086 75.898,46.060 75.944,44.911 75.944 C 43.878 75.944,43.738 76.084,43.738 77.112 C 43.738 78.139,43.582 78.295,42.445 78.404 C 41.309 78.514,41.138 78.685,41.028 79.821 C 40.927 80.874,40.732 81.113,39.978 81.113 C 38.876 81.113,38.569 81.770,38.569 84.128 C 38.569 85.815,38.521 85.885,37.376 85.885 C 36.327 85.885,36.183 86.023,36.183 87.028 C 36.183 87.980,35.984 88.211,34.990 88.410 C 33.825 88.643,33.797 88.703,33.797 91.019 L 33.797 93.389 32.505 93.514 C 31.428 93.617,31.192 93.820,31.087 94.732 C 30.990 95.574,30.749 95.825,30.040 95.825 C 28.991 95.825,28.642 96.682,28.634 99.278 C 28.629 100.795,28.532 100.952,27.535 101.067 C 26.501 101.186,26.435 101.317,26.323 103.455 C 26.211 105.582,26.140 105.724,25.130 105.840 C 24.105 105.958,24.050 106.079,23.937 108.449 C 23.820 110.910,23.807 110.934,22.645 110.934 C 21.475 110.934,21.471 110.943,21.471 113.320 C 21.471 115.684,21.461 115.706,20.325 115.706 C 18.926 115.706,18.701 116.349,18.693 120.378 L 18.688 123.260 17.495 123.260 C 16.305 123.260,16.302 123.266,16.302 125.596 C 16.302 127.874,16.272 127.938,15.109 128.171 L 13.917 128.410 13.917 131.998 L 13.917 135.586 12.724 135.586 L 11.531 135.586 11.531 139.364 L 11.531 143.141 10.381 143.141 C 8.874 143.141,8.748 143.568,8.748 148.653 L 8.748 152.907 7.555 153.357 L 6.362 153.808 6.362 160.751 L 6.362 167.694 5.169 167.932 L 3.976 168.171 3.976 199.712 C 3.976 232.657,3.953 232.207,5.646 232.207 C 6.302 232.207,6.362 232.682,6.362 237.893 C 6.362 243.764,6.555 244.533,8.032 244.533 C 8.669 244.533,8.752 244.956,8.787 248.410 C 8.836 253.208,9.087 254.178,10.352 254.476 C 11.295 254.697,11.336 254.845,11.446 258.367 L 11.561 262.028 12.724 262.028 L 13.887 262.028 14.001 265.706 L 14.115 269.384 15.209 269.510 C 16.291 269.634,16.302 269.665,16.302 272.559 C 16.302 276.092,16.516 276.740,17.681 276.740 C 18.474 276.740,18.602 276.990,18.801 278.916 C 19.075 281.568,19.266 281.909,20.482 281.909 C 21.371 281.909,21.441 282.070,21.552 284.394 C 21.665 286.775,21.716 286.884,22.763 287.005 C 23.819 287.126,23.857 287.211,23.857 289.490 C 23.857 291.846,23.858 291.849,25.050 291.849 C 26.241 291.849,26.243 291.852,26.243 294.203 C 26.243 296.471,26.284 296.566,27.382 296.807 C 28.406 297.032,28.546 297.259,28.756 299.035 C 29.037 301.406,29.240 301.789,30.217 301.789 C 30.769 301.789,30.996 302.127,31.088 303.082 C 31.197 304.213,31.371 304.389,32.486 304.497 C 33.739 304.618,33.761 304.656,33.877 306.883 C 33.990 309.021,34.056 309.152,35.089 309.271 C 36.005 309.376,36.183 309.586,36.183 310.563 C 36.183 311.594,36.321 311.730,37.376 311.730 C 38.540 311.730,38.569 311.777,38.569 313.689 C 38.569 315.673,39.253 316.899,40.360 316.899 C 40.658 316.899,40.958 317.391,41.027 317.992 C 41.132 318.903,41.369 319.106,42.445 319.210 C 43.704 319.331,43.738 319.384,43.738 321.218 C 43.738 323.212,44.234 324.056,45.408 324.056 C 45.933 324.056,46.123 324.364,46.123 325.217 C 46.123 326.174,46.325 326.423,47.271 326.630 C 48.137 326.820,48.476 327.170,48.652 328.053 C 48.838 328.979,49.097 329.225,49.891 329.225 C 50.741 329.225,50.895 329.407,50.895 330.417 C 50.895 331.511,51.008 331.610,52.261 331.610 C 53.512 331.610,53.638 331.720,53.752 332.903 C 53.855 333.971,54.062 334.216,54.946 334.318 C 55.773 334.414,56.043 334.685,56.139 335.511 C 56.234 336.338,56.505 336.609,57.332 336.704 C 58.158 336.799,58.429 337.070,58.525 337.897 C 58.621 338.730,58.890 338.994,59.742 339.092 C 60.657 339.197,60.835 339.407,60.835 340.384 C 60.835 341.448,60.955 341.551,62.201 341.551 C 63.452 341.551,63.578 341.660,63.693 342.843 C 63.796 343.912,64.002 344.157,64.886 344.259 C 65.713 344.354,65.984 344.625,66.079 345.452 C 66.175 346.278,66.446 346.549,67.272 346.644 C 68.099 346.740,68.370 347.011,68.465 347.837 C 68.561 348.670,68.830 348.934,69.682 349.032 C 70.598 349.138,70.775 349.348,70.775 350.325 C 70.775 351.393,70.893 351.491,72.167 351.491 C 73.451 351.491,73.559 351.584,73.559 352.694 C 73.559 353.712,73.742 353.933,74.751 354.135 C 75.654 354.316,75.944 354.592,75.944 355.272 C 75.944 356.276,76.822 356.646,79.225 356.655 C 80.615 356.660,80.716 356.741,80.716 357.853 C 80.716 358.951,80.826 359.046,82.107 359.046 C 83.389 359.046,83.499 359.140,83.499 360.239 C 83.499 361.299,83.632 361.431,84.692 361.431 C 85.695 361.431,85.885 361.588,85.885 362.411 C 85.885 363.623,86.912 364.215,89.013 364.215 C 90.452 364.215,90.615 364.319,90.729 365.308 C 90.833 366.214,91.072 366.423,92.123 366.524 C 93.166 366.625,93.413 366.837,93.515 367.717 C 93.631 368.724,93.773 368.794,95.924 368.907 C 98.164 369.023,98.211 369.050,98.211 370.199 C 98.211 371.237,98.348 371.372,99.404 371.372 C 100.317 371.372,100.596 371.552,100.596 372.139 C 100.596 373.465,101.695 374.155,103.806 374.155 C 105.605 374.155,105.765 374.232,105.765 375.103 C 105.765 376.151,106.603 376.526,108.959 376.535 C 110.151 376.540,110.430 376.720,110.813 377.734 C 111.238 378.861,111.384 378.926,113.458 378.926 C 115.557 378.926,115.658 378.974,115.779 380.020 C 115.898 381.055,116.027 381.120,118.191 381.233 C 120.121 381.333,120.477 381.468,120.477 382.099 C 120.477 383.610,121.541 384.095,124.853 384.095 C 127.968 384.095,127.979 384.099,128.105 385.189 C 128.225 386.235,128.336 386.287,130.691 386.400 C 133.035 386.512,133.157 386.569,133.276 387.593 C 133.399 388.658,133.430 388.669,136.832 388.782 L 140.264 388.896 140.500 390.074 L 140.736 391.252 144.324 391.252 C 147.603 391.252,147.913 391.319,147.913 392.019 C 147.913 393.698,148.884 394.036,153.706 394.036 C 158.221 394.036,158.250 394.042,158.250 394.978 C 158.250 396.214,159.463 396.411,167.097 396.417 C 172.044 396.421,172.962 396.515,172.962 397.018 C 172.962 397.543,176.806 397.614,205.169 397.614 C 233.532 397.614,237.376 397.543,237.376 397.018 C 237.376 396.523,238.140 396.421,241.849 396.417 C 247.854 396.411,249.256 396.157,249.541 395.020 C 249.755 394.169,249.992 394.114,254.052 393.975 C 258.526 393.822,259.642 393.427,259.642 391.999 C 259.642 391.325,259.984 391.252,263.189 391.252 L 266.736 391.252 266.998 390.060 L 267.260 388.867 270.330 388.867 C 273.499 388.867,274.354 388.512,274.354 387.197 C 274.354 386.599,274.698 386.480,276.441 386.477 C 280.095 386.469,281.494 386.090,281.759 385.037 C 281.941 384.309,282.279 384.086,283.244 384.056 C 285.424 383.987,286.439 383.524,286.682 382.490 C 286.891 381.597,287.128 381.501,289.380 381.393 C 291.813 381.276,291.849 381.257,291.849 380.119 C 291.849 378.980,291.883 378.963,294.334 378.846 C 296.716 378.733,296.824 378.682,296.945 377.634 C 297.057 376.663,297.235 376.540,298.535 376.535 C 300.952 376.526,301.789 376.158,301.789 375.103 C 301.789 374.307,301.996 374.149,303.082 374.115 C 305.303 374.047,306.319 373.591,306.562 372.550 C 306.737 371.799,307.088 371.542,308.067 371.446 C 309.181 371.337,309.344 371.175,309.344 370.174 C 309.344 369.055,309.402 369.023,311.630 368.907 C 313.782 368.794,313.924 368.724,314.040 367.717 C 314.142 366.837,314.388 366.625,315.432 366.524 C 316.483 366.423,316.721 366.214,316.826 365.308 C 316.939 364.319,317.102 364.215,318.542 364.215 C 320.643 364.215,321.670 363.623,321.670 362.411 C 321.670 361.588,321.860 361.431,322.863 361.431 C 323.923 361.431,324.056 361.299,324.056 360.239 C 324.056 359.140,324.166 359.046,325.447 359.046 C 326.729 359.046,326.839 358.951,326.839 357.853 C 326.839 356.741,326.940 356.660,328.330 356.655 C 330.732 356.646,331.610 356.276,331.610 355.272 C 331.610 354.592,331.900 354.316,332.803 354.135 C 333.813 353.933,333.996 353.712,333.996 352.694 C 333.996 351.584,334.104 351.491,335.388 351.491 C 336.669 351.491,336.779 351.396,336.779 350.298 C 336.779 349.238,336.912 349.105,337.972 349.105 C 339.026 349.105,339.165 348.970,339.165 347.939 C 339.165 346.962,339.343 346.752,340.258 346.647 C 341.117 346.548,341.379 346.286,341.478 345.427 C 341.583 344.512,341.793 344.334,342.770 344.334 C 343.838 344.334,343.936 344.217,343.936 342.942 C 343.936 341.617,344.003 341.551,345.328 341.551 C 346.609 341.551,346.720 341.456,346.720 340.358 C 346.720 339.298,346.852 339.165,347.913 339.165 C 348.967 339.165,349.105 339.030,349.105 337.999 C 349.105 337.022,349.283 336.812,350.199 336.706 C 351.058 336.608,351.319 336.346,351.418 335.487 C 351.523 334.571,351.733 334.394,352.710 334.394 C 353.778 334.394,353.877 334.276,353.877 333.002 C 353.877 331.677,353.943 331.610,355.268 331.610 C 356.543 331.610,356.660 331.512,356.660 330.444 C 356.660 329.467,356.838 329.257,357.753 329.152 C 358.605 329.054,358.874 328.790,358.970 327.959 C 359.064 327.145,359.371 326.831,360.262 326.635 C 361.395 326.386,361.431 326.306,361.431 324.024 C 361.431 321.673,361.433 321.670,362.624 321.670 C 363.679 321.670,363.817 321.535,363.817 320.502 C 363.817 319.476,363.973 319.320,365.109 319.210 C 366.177 319.107,366.423 318.900,366.525 318.018 C 366.619 317.204,366.925 316.890,367.817 316.695 C 368.950 316.446,368.986 316.365,368.986 314.084 C 368.986 311.733,368.988 311.730,370.179 311.730 C 371.233 311.730,371.372 311.594,371.372 310.563 C 371.372 309.586,371.549 309.376,372.465 309.271 C 373.499 309.152,373.565 309.021,373.677 306.883 C 373.794 304.656,373.816 304.618,375.069 304.497 C 376.184 304.389,376.357 304.213,376.467 303.082 C 376.568 302.029,376.763 301.789,377.517 301.789 C 378.616 301.789,378.926 301.132,378.926 298.806 C 378.926 297.213,379.017 297.061,380.119 296.819 C 381.281 296.564,381.312 296.495,381.312 294.203 C 381.312 291.852,381.314 291.849,382.505 291.849 L 383.698 291.849 383.698 289.463 C 383.698 287.372,383.792 287.078,384.465 287.078 C 385.791 287.078,386.481 285.979,386.481 283.868 C 386.481 282.066,386.558 281.909,387.433 281.909 C 388.655 281.909,388.867 281.292,388.867 277.727 C 388.867 274.834,388.878 274.803,389.960 274.678 C 391.007 274.558,391.059 274.447,391.171 272.092 C 391.284 269.748,391.340 269.626,392.364 269.508 C 393.437 269.384,393.440 269.375,393.554 265.706 L 393.668 262.028 394.803 262.028 C 396.228 262.028,396.421 261.525,396.421 257.820 C 396.421 255.529,396.548 254.871,396.989 254.871 C 398.441 254.871,398.807 253.744,398.807 249.276 C 398.807 245.678,398.910 244.930,399.404 244.930 C 399.930 244.930,400.000 239.563,400.000 199.006 C 400.000 158.449,399.930 153.082,399.404 153.082 C 398.922 153.082,398.806 152.450,398.803 149.801 C 398.796 144.944,398.493 143.575,397.363 143.291 C 396.478 143.069,396.421 142.877,396.421 140.090 C 396.421 136.652,395.995 135.586,394.618 135.586 C 393.650 135.586,393.638 135.544,393.638 132.040 L 393.638 128.493 392.445 128.231 L 391.252 127.969 391.252 124.899 C 391.252 121.763,390.895 120.875,389.634 120.875 C 389.117 120.875,388.910 120.346,388.700 118.492 C 388.465 116.413,388.308 116.078,387.474 115.869 C 386.626 115.656,386.505 115.377,386.400 113.381 C 386.284 111.164,386.265 111.132,384.990 111.009 L 383.698 110.884 383.698 108.325 L 383.698 105.765 382.525 105.765 C 381.376 105.765,381.349 105.719,381.233 103.479 C 381.121 101.343,381.045 101.185,380.069 101.072 C 379.108 100.960,379.003 100.762,378.757 98.589 C 378.525 96.536,378.366 96.197,377.538 95.989 C 376.882 95.824,376.548 95.423,376.464 94.694 C 376.364 93.824,376.114 93.616,375.050 93.514 L 373.757 93.389 373.757 91.019 C 373.757 88.703,373.730 88.643,372.565 88.410 C 371.571 88.211,371.372 87.980,371.372 87.028 C 371.372 86.027,371.226 85.885,370.199 85.885 C 369.050 85.885,369.023 85.838,368.907 83.598 C 368.794 81.447,368.724 81.305,367.717 81.189 C 366.837 81.087,366.625 80.840,366.524 79.797 C 366.417 78.688,366.240 78.513,365.109 78.404 C 363.973 78.295,363.817 78.139,363.817 77.112 C 363.817 76.084,363.677 75.944,362.644 75.944 C 361.495 75.944,361.469 75.898,361.352 73.658 C 361.239 71.494,361.174 71.365,360.139 71.246 C 359.221 71.140,359.046 70.932,359.046 69.944 C 359.046 68.960,358.854 68.729,357.875 68.533 C 356.980 68.354,356.675 68.052,356.583 67.251 C 356.483 66.390,356.230 66.181,355.169 66.078 C 354.033 65.969,353.877 65.813,353.877 64.786 C 353.877 63.754,353.738 63.618,352.684 63.618 C 351.624 63.618,351.491 63.486,351.491 62.425 C 351.491 61.365,351.359 61.233,350.298 61.233 C 349.200 61.233,349.105 61.122,349.105 59.841 C 349.105 58.560,349.011 58.449,347.913 58.449 C 346.852 58.449,346.720 58.317,346.720 57.256 C 346.720 56.158,346.609 56.064,345.328 56.064 C 344.047 56.064,343.936 55.969,343.936 54.871 C 343.936 53.810,343.804 53.678,342.744 53.678 C 341.683 53.678,341.551 53.545,341.551 52.485 C 341.551 51.425,341.418 51.292,340.358 51.292 C 339.260 51.292,339.165 51.182,339.165 49.901 C 339.165 48.626,339.067 48.509,337.999 48.509 C 337.022 48.509,336.812 48.331,336.706 47.416 C 336.601 46.504,336.365 46.301,335.288 46.197 C 334.152 46.088,333.996 45.932,333.996 44.905 C 333.996 43.879,333.855 43.738,332.830 43.738 C 331.853 43.738,331.643 43.560,331.537 42.644 C 331.418 41.611,331.288 41.544,329.149 41.432 C 326.923 41.316,326.885 41.293,326.763 40.041 C 326.655 38.926,326.480 38.752,325.348 38.643 C 324.212 38.533,324.056 38.377,324.056 37.351 C 324.056 36.324,323.915 36.183,322.889 36.183 C 321.912 36.183,321.702 36.005,321.597 35.089 C 321.478 34.054,321.349 33.990,319.185 33.877 C 316.945 33.760,316.899 33.734,316.899 32.585 C 316.899 31.509,316.783 31.412,315.507 31.412 C 314.237 31.412,314.115 31.311,314.115 30.261 C 314.115 28.924,313.570 28.628,311.101 28.628 C 309.414 28.628,309.344 28.581,309.344 27.435 C 309.344 26.387,309.206 26.243,308.201 26.243 C 307.249 26.243,307.018 26.043,306.819 25.050 C 306.586 23.884,306.526 23.857,304.211 23.857 C 301.922 23.857,301.838 23.820,301.716 22.763 C 301.597 21.728,301.469 21.664,299.304 21.551 C 297.375 21.450,297.018 21.315,297.018 20.685 C 297.018 19.384,295.908 18.688,293.835 18.688 C 292.022 18.688,291.894 18.620,291.776 17.594 C 291.657 16.562,291.524 16.494,289.410 16.383 C 287.282 16.271,287.158 16.206,286.935 15.091 L 286.700 13.917 283.111 13.917 L 279.523 13.917 279.523 12.724 L 279.523 11.531 276.938 11.531 L 274.354 11.531 274.354 10.381 C 274.354 8.942,273.858 8.748,270.196 8.748 L 267.296 8.748 267.058 7.555 L 266.819 6.362 263.231 6.362 C 259.929 6.362,259.642 6.299,259.642 5.581 C 259.642 4.329,258.380 3.976,253.903 3.976 C 250.122 3.976,249.702 3.904,249.702 3.260 C 249.702 1.739,248.989 1.590,241.670 1.590 C 234.858 1.590,234.592 1.561,234.592 0.795 C 234.592 0.007,234.327 0.000,202.386 0.000 C 170.589 0.000,170.179 0.010,170.179 0.785 M217.694 32.207 L 217.956 33.400 226.473 33.400 L 234.990 33.400 234.990 34.550 C 234.990 36.060,235.412 36.183,240.589 36.183 C 244.898 36.183,244.930 36.190,244.930 37.131 C 244.930 38.365,245.709 38.556,250.769 38.563 L 254.818 38.569 254.944 39.662 L 255.070 40.755 258.748 40.870 L 262.425 40.984 262.425 42.162 C 262.425 43.337,262.432 43.340,264.811 43.340 C 267.082 43.340,267.197 43.387,267.197 44.320 C 267.197 45.567,268.232 46.123,270.550 46.123 C 272.200 46.123,272.366 46.210,272.366 47.075 C 272.366 48.199,273.012 48.509,275.354 48.509 C 276.946 48.509,277.094 48.596,277.210 49.602 C 277.331 50.650,277.439 50.701,279.821 50.814 C 282.282 50.931,282.306 50.944,282.306 52.106 C 282.306 53.276,282.315 53.280,284.692 53.280 C 286.962 53.280,287.078 53.328,287.078 54.260 C 287.078 55.507,288.113 56.064,290.431 56.064 C 292.183 56.064,292.247 56.105,292.247 57.256 C 292.247 58.311,292.382 58.449,293.413 58.449 C 294.390 58.449,294.600 58.627,294.705 59.543 C 294.824 60.578,294.953 60.643,297.117 60.755 C 299.357 60.872,299.404 60.899,299.404 62.048 C 299.404 63.123,299.519 63.221,300.795 63.221 C 302.079 63.221,302.187 63.314,302.187 64.423 C 302.187 65.434,302.372 65.663,303.347 65.858 C 304.124 66.014,304.585 66.395,304.740 67.013 C 304.934 67.789,305.314 67.978,307.135 68.205 C 309.097 68.450,309.311 68.574,309.421 69.526 C 309.521 70.390,309.773 70.599,310.835 70.701 C 312.698 70.881,312.804 73.324,310.965 73.692 C 309.893 73.906,309.781 74.096,309.528 76.127 C 309.265 78.227,309.198 78.330,308.105 78.330 C 307.059 78.330,306.958 78.453,306.958 79.722 C 306.958 81.003,306.864 81.113,305.765 81.113 C 304.705 81.113,304.573 81.246,304.573 82.306 C 304.573 83.366,304.440 83.499,303.380 83.499 C 302.319 83.499,302.187 83.632,302.187 84.692 C 302.187 85.790,302.076 85.885,300.795 85.885 C 299.514 85.885,299.404 85.979,299.404 87.078 C 299.404 88.138,299.271 88.270,298.211 88.270 C 297.113 88.270,297.018 88.381,297.018 89.662 C 297.018 91.042,297.004 91.054,295.261 91.054 C 292.892 91.054,292.247 91.361,292.247 92.488 C 292.247 93.216,292.032 93.439,291.332 93.439 C 290.235 93.439,289.463 94.129,289.463 95.109 C 289.463 95.639,289.154 95.825,288.270 95.825 C 287.216 95.825,287.078 95.961,287.078 96.991 C 287.078 97.968,286.900 98.178,285.984 98.284 C 285.077 98.388,284.870 98.626,284.767 99.683 C 284.646 100.934,284.606 100.958,282.398 101.074 C 280.372 101.181,280.129 101.290,279.921 102.187 C 279.743 102.954,279.399 103.209,278.414 103.306 C 277.295 103.415,277.137 103.574,277.137 104.598 C 277.137 105.727,277.075 105.765,275.229 105.765 C 273.211 105.765,272.366 106.258,272.366 107.435 C 272.366 107.876,272.072 108.151,271.603 108.151 C 270.156 108.151,269.583 108.614,269.583 109.784 C 269.583 110.893,269.514 110.934,267.674 110.934 C 265.656 110.934,264.811 111.427,264.811 112.604 C 264.811 113.135,264.502 113.320,263.618 113.320 C 262.558 113.320,262.425 113.453,262.425 114.513 L 262.425 115.706 259.841 115.706 L 257.256 115.706 257.256 116.879 C 257.256 118.028,257.210 118.054,254.970 118.171 C 252.717 118.289,252.682 118.309,252.561 119.564 C 252.438 120.832,252.427 120.839,249.976 120.956 C 247.620 121.069,247.510 121.120,247.389 122.167 C 247.268 123.223,247.182 123.260,244.904 123.260 C 242.548 123.260,242.545 123.262,242.545 124.453 L 242.545 125.646 239.392 125.646 C 236.168 125.646,234.990 126.133,234.990 127.464 C 234.990 127.879,234.464 128.032,233.035 128.032 C 230.359 128.032,229.821 128.305,229.821 129.665 C 229.821 130.674,229.677 130.815,228.647 130.815 C 227.485 130.815,227.472 130.790,227.355 128.330 C 227.237 125.845,227.237 125.845,225.944 125.720 L 224.652 125.596 224.652 123.235 C 224.652 120.878,224.651 120.875,223.459 120.875 C 222.308 120.875,222.266 120.811,222.266 119.059 C 222.266 116.865,221.712 115.706,220.662 115.706 C 220.059 115.706,219.881 115.434,219.881 114.513 C 219.881 113.457,219.746 113.320,218.707 113.320 C 217.545 113.320,217.532 113.295,217.415 110.835 C 217.297 108.358,217.292 108.349,216.023 108.227 C 214.770 108.106,214.748 108.067,214.631 105.841 C 214.519 103.702,214.453 103.572,213.419 103.453 C 212.413 103.337,212.326 103.189,212.326 101.597 C 212.326 99.255,212.016 98.608,210.892 98.608 C 210.070 98.608,209.940 98.419,209.940 97.217 C 209.940 95.935,209.846 95.825,208.748 95.825 C 207.602 95.825,207.555 95.755,207.555 94.068 C 207.555 91.599,207.259 91.054,205.922 91.054 C 204.872 91.054,204.771 90.932,204.771 89.662 C 204.771 88.386,204.674 88.270,203.598 88.270 C 202.449 88.270,202.423 88.224,202.306 85.984 C 202.193 83.820,202.129 83.691,201.093 83.572 C 200.087 83.456,200.000 83.308,200.000 81.716 C 200.000 79.385,199.690 78.728,198.591 78.728 C 197.837 78.728,197.642 78.488,197.540 77.435 C 197.438 76.377,197.228 76.121,196.375 76.022 C 195.446 75.915,195.309 75.690,195.100 73.925 C 194.810 71.478,194.627 71.173,193.441 71.173 C 192.665 71.173,192.473 70.941,192.371 69.881 C 192.267 68.804,192.064 68.567,191.153 68.463 C 190.122 68.344,190.060 68.223,190.060 66.341 C 190.060 64.495,189.971 64.311,188.885 63.901 C 188.072 63.594,187.675 63.147,187.593 62.445 C 187.505 61.686,187.214 61.401,186.435 61.311 C 185.503 61.203,185.369 60.979,185.156 59.181 C 184.890 56.935,184.358 56.064,183.252 56.064 C 182.687 56.064,182.505 55.773,182.505 54.871 C 182.505 53.810,182.372 53.678,181.312 53.678 C 180.167 53.678,180.119 53.608,180.119 51.921 C 180.119 49.552,179.812 48.907,178.685 48.907 C 178.012 48.907,177.734 48.683,177.734 48.144 C 177.734 46.787,177.271 46.123,176.326 46.123 C 175.612 46.123,175.372 45.873,175.275 45.030 C 175.170 44.119,174.934 43.916,173.857 43.812 L 172.565 43.687 172.565 41.317 C 172.565 39.001,172.537 38.941,171.372 38.708 C 169.934 38.420,169.504 35.785,170.895 35.785 C 171.808 35.785,172.565 35.032,172.565 34.123 C 172.565 33.469,173.225 33.407,181.213 33.308 L 189.861 33.201 189.987 32.107 L 190.112 31.014 203.772 31.014 L 217.432 31.014 217.694 32.207 M130.959 50.298 C 131.085 50.626,131.641 50.895,132.194 50.895 C 133.048 50.895,133.201 51.076,133.201 52.087 C 133.201 53.148,133.333 53.280,134.394 53.280 C 135.539 53.280,135.586 53.350,135.586 55.037 C 135.586 57.395,135.894 58.052,136.995 58.052 C 137.750 58.052,137.945 58.291,138.046 59.344 C 138.150 60.421,138.353 60.657,139.264 60.762 C 140.192 60.869,140.364 61.080,140.397 62.154 C 140.466 64.348,140.927 65.365,141.962 65.610 C 142.659 65.774,142.999 66.179,143.142 67.016 C 143.301 67.940,143.577 68.218,144.435 68.317 C 145.454 68.434,145.527 68.568,145.527 70.325 C 145.527 72.318,146.023 73.161,147.197 73.161 C 147.637 73.161,147.913 73.454,147.913 73.924 C 147.913 75.271,148.373 75.944,149.293 75.944 C 150.059 75.944,150.227 76.214,150.443 77.793 C 150.732 79.899,151.261 80.716,152.335 80.716 C 152.899 80.716,153.082 81.007,153.082 81.909 C 153.082 82.969,153.214 83.101,154.274 83.101 C 155.420 83.101,155.467 83.171,155.467 84.858 C 155.467 87.216,155.774 87.873,156.876 87.873 C 157.631 87.873,157.826 88.113,157.927 89.165 C 158.031 90.242,158.234 90.478,159.145 90.583 C 160.072 90.690,160.245 90.901,160.278 91.975 C 160.347 94.169,160.807 95.186,161.843 95.431 C 162.540 95.595,162.879 96.000,163.023 96.837 C 163.181 97.761,163.458 98.039,164.316 98.138 C 165.335 98.255,165.408 98.389,165.408 100.146 C 165.408 102.126,165.904 102.982,167.052 102.982 C 167.541 102.982,167.779 103.360,167.867 104.274 C 167.971 105.351,168.174 105.588,169.085 105.692 C 170.092 105.808,170.179 105.957,170.179 107.549 C 170.179 109.991,170.477 110.537,171.812 110.537 C 172.942 110.537,172.962 110.576,172.962 112.734 C 172.962 114.847,173.007 114.939,174.133 115.165 C 175.093 115.357,175.326 115.623,175.426 116.646 C 175.525 117.674,175.739 117.915,176.640 118.018 C 177.646 118.134,177.734 118.283,177.734 119.875 C 177.734 122.217,178.044 122.863,179.168 122.863 C 179.968 122.863,180.126 123.068,180.159 124.155 C 180.227 126.377,180.684 127.392,181.724 127.635 C 182.476 127.811,182.733 128.161,182.828 129.141 C 182.938 130.260,183.097 130.417,184.121 130.417 C 185.273 130.417,185.288 130.446,185.288 132.639 C 185.288 134.726,185.358 134.887,186.444 135.297 C 187.463 135.681,187.632 135.984,187.865 137.846 C 188.090 139.648,188.271 139.995,189.094 140.202 C 189.879 140.399,190.060 140.696,190.060 141.793 L 190.060 143.141 185.765 143.141 C 181.336 143.141,180.517 143.402,180.517 144.811 C 180.517 145.461,180.074 145.527,175.711 145.527 L 170.905 145.527 170.455 146.720 L 170.005 147.913 165.619 147.917 C 159.425 147.923,158.324 148.150,158.173 149.452 L 158.052 150.497 151.889 150.696 L 145.726 150.895 145.600 151.988 L 145.474 153.082 138.423 153.082 C 131.139 153.082,130.417 153.231,130.417 154.744 C 130.417 155.397,129.764 155.460,121.968 155.559 L 113.519 155.666 113.393 156.759 L 113.267 157.853 102.586 157.853 C 91.171 157.853,90.656 157.940,90.656 159.866 C 90.656 160.606,90.080 160.632,71.091 160.732 L 51.527 160.835 51.293 161.829 C 51.060 162.817,51.030 162.824,46.007 162.934 L 40.954 163.046 40.954 159.283 L 40.954 155.520 42.048 155.394 L 43.141 155.268 43.255 151.590 C 43.358 148.289,43.447 147.913,44.122 147.913 C 45.638 147.913,46.123 146.852,46.123 143.537 C 46.123 140.422,46.127 140.410,47.217 140.285 C 48.246 140.166,48.317 140.030,48.427 137.953 C 48.535 135.919,48.635 135.713,49.719 135.304 L 50.895 134.860 50.895 131.446 L 50.895 128.032 52.087 128.032 L 53.280 128.032 53.280 125.447 L 53.280 122.863 54.672 122.863 L 56.064 122.863 56.064 120.504 C 56.064 118.225,56.101 118.140,57.157 118.018 C 57.992 117.922,58.278 117.653,58.369 116.879 C 58.450 116.177,58.847 115.730,59.661 115.423 C 60.768 115.005,60.835 114.853,60.835 112.758 C 60.835 110.566,60.850 110.537,62.003 110.537 C 63.026 110.537,63.186 110.379,63.295 109.260 C 63.390 108.281,63.647 107.930,64.399 107.755 C 65.439 107.511,65.896 106.496,65.964 104.274 C 66.000 103.112,66.124 102.982,67.197 102.982 C 68.251 102.982,68.390 102.847,68.390 101.816 C 68.390 100.839,68.567 100.629,69.483 100.523 C 70.518 100.404,70.583 100.276,70.696 98.111 C 70.813 95.872,70.839 95.825,71.988 95.825 C 73.064 95.825,73.161 95.709,73.161 94.433 C 73.161 93.108,73.227 93.042,74.553 93.042 C 75.834 93.042,75.944 92.947,75.944 91.849 C 75.944 90.838,76.098 90.656,76.948 90.656 C 77.742 90.656,78.001 90.410,78.187 89.485 C 78.363 88.601,78.702 88.252,79.568 88.062 C 80.427 87.873,80.716 87.580,80.716 86.897 C 80.716 86.201,80.999 85.927,81.909 85.746 C 82.918 85.544,83.101 85.323,83.101 84.304 C 83.101 83.231,83.231 83.101,84.304 83.101 C 85.323 83.101,85.544 82.918,85.746 81.909 C 85.927 80.999,86.201 80.716,86.897 80.716 C 87.583 80.716,87.873 80.426,88.066 79.549 C 88.258 78.672,88.613 78.318,89.489 78.126 C 90.367 77.933,90.656 77.643,90.656 76.956 C 90.656 76.260,90.939 75.987,91.849 75.805 C 92.852 75.605,93.042 75.379,93.042 74.389 C 93.042 73.351,93.195 73.197,94.334 73.087 C 95.403 72.984,95.648 72.777,95.750 71.893 C 95.845 71.066,96.116 70.795,96.943 70.700 C 97.776 70.604,98.040 70.335,98.138 69.483 C 98.243 68.567,98.453 68.390,99.430 68.390 C 100.461 68.390,100.596 68.251,100.596 67.197 C 100.596 66.033,100.644 66.004,102.556 66.004 C 104.653 66.004,105.765 65.314,105.765 64.014 C 105.765 63.502,106.103 63.235,106.859 63.148 C 107.718 63.049,107.979 62.787,108.078 61.928 C 108.196 60.907,108.328 60.835,110.086 60.835 C 112.079 60.835,112.922 60.338,112.922 59.165 C 112.922 58.683,113.221 58.449,113.837 58.449 C 114.934 58.449,115.706 57.759,115.706 56.779 C 115.706 56.207,116.031 56.064,117.322 56.064 C 119.449 56.064,120.477 55.476,120.477 54.260 C 120.477 53.340,120.607 53.280,122.625 53.280 C 124.654 53.280,124.796 53.214,125.189 52.087 C 125.568 51.000,125.763 50.895,127.399 50.895 C 128.474 50.895,129.399 50.662,129.706 50.313 C 130.367 49.564,130.676 49.560,130.959 50.298 M335.793 97.813 C 336.558 97.813,336.752 98.049,336.854 99.105 C 336.957 100.182,337.160 100.419,338.072 100.523 C 338.987 100.629,339.165 100.839,339.165 101.816 C 339.165 102.880,339.285 102.982,340.537 102.982 L 341.909 102.982 342.028 105.252 C 342.136 107.303,342.243 107.544,343.141 107.753 C 343.909 107.931,344.164 108.274,344.260 109.260 C 344.369 110.379,344.529 110.537,345.552 110.537 C 346.704 110.537,346.720 110.566,346.720 112.758 C 346.720 114.846,346.789 115.006,347.876 115.416 C 348.896 115.801,349.063 116.102,349.298 117.982 C 349.541 119.926,349.664 120.132,350.708 120.340 C 351.786 120.556,351.859 120.698,351.970 122.793 C 352.076 124.795,352.187 125.040,353.082 125.249 C 353.949 125.451,354.103 125.747,354.288 127.574 C 354.491 129.580,355.031 130.398,356.163 130.411 C 356.491 130.415,356.660 131.068,356.660 132.326 C 356.660 134.334,357.153 135.189,358.311 135.189 C 358.888 135.189,359.028 135.616,359.126 137.674 C 359.244 140.153,359.248 140.159,360.522 140.283 L 361.800 140.406 361.914 144.060 L 362.028 147.714 363.121 147.840 L 364.215 147.965 364.215 152.081 C 364.215 156.879,364.368 157.455,365.649 157.455 C 366.594 157.455,366.600 157.483,366.600 161.797 C 366.600 166.828,366.746 167.396,368.035 167.396 L 368.986 167.396 368.986 174.321 C 368.986 182.228,369.041 182.505,370.619 182.505 L 371.769 182.505 371.769 188.867 L 371.769 195.229 370.404 195.229 C 369.210 195.229,369.023 195.091,368.913 194.135 L 368.787 193.042 361.332 192.934 L 353.877 192.825 353.877 191.883 C 353.877 190.497,353.554 190.457,342.164 190.457 L 331.710 190.457 331.482 189.320 C 331.150 187.657,331.733 187.683,294.561 187.678 C 258.162 187.674,259.642 187.588,259.642 189.690 C 259.642 191.996,257.369 190.543,257.088 188.057 C 256.832 185.801,256.746 185.643,255.645 185.423 C 254.507 185.196,254.473 185.121,254.473 182.853 C 254.473 180.522,254.470 180.517,253.280 180.517 L 252.087 180.517 252.087 177.932 L 252.087 175.348 250.895 175.348 L 249.702 175.348 249.702 172.398 C 249.702 168.836,249.490 168.191,248.319 168.191 C 247.513 168.191,247.390 167.939,247.147 165.791 C 246.892 163.535,246.806 163.377,245.704 163.157 C 243.944 162.805,243.960 160.453,245.726 160.099 C 246.666 159.911,246.918 159.652,246.918 158.876 C 246.918 157.945,247.056 157.884,249.404 157.772 C 251.785 157.659,251.894 157.609,252.014 156.561 C 252.134 155.523,252.247 155.467,254.221 155.467 C 256.496 155.467,257.256 154.999,257.256 153.598 C 257.256 152.746,257.418 152.684,259.642 152.684 C 262.019 152.684,262.028 152.680,262.028 151.510 C 262.028 150.348,262.052 150.335,264.513 150.218 C 266.883 150.105,267.004 150.050,267.122 149.025 C 267.239 148.015,267.380 147.944,269.508 147.832 C 271.645 147.720,271.776 147.654,271.895 146.620 C 272.013 145.595,272.141 145.527,273.954 145.527 C 276.038 145.527,277.137 144.830,277.137 143.510 C 277.137 142.860,277.426 142.744,279.046 142.744 C 281.063 142.744,281.909 142.250,281.909 141.074 C 281.909 140.543,282.218 140.358,283.101 140.358 C 284.150 140.358,284.294 140.220,284.294 139.216 C 284.294 138.116,284.381 138.065,286.677 137.805 C 288.753 137.570,289.091 137.413,289.299 136.584 C 289.464 135.927,289.865 135.594,290.594 135.510 C 291.460 135.410,291.672 135.159,291.773 134.115 C 291.894 132.863,291.935 132.839,294.143 132.723 C 296.167 132.616,296.412 132.506,296.622 131.611 C 296.789 130.899,297.187 130.561,298.030 130.416 C 298.946 130.259,299.232 129.980,299.328 129.147 C 299.424 128.323,299.695 128.052,300.521 127.956 C 301.354 127.860,301.618 127.592,301.716 126.740 C 301.834 125.714,301.962 125.646,303.775 125.646 C 305.859 125.646,306.958 124.950,306.958 123.630 C 306.958 123.043,307.238 122.863,308.151 122.863 C 309.211 122.863,309.344 122.730,309.344 121.670 C 309.344 120.610,309.476 120.477,310.537 120.477 C 311.597 120.477,311.730 120.345,311.730 119.284 C 311.730 118.224,311.862 118.091,312.922 118.091 C 313.977 118.091,314.115 117.956,314.115 116.924 C 314.115 115.897,314.271 115.741,315.408 115.632 C 316.544 115.522,316.715 115.351,316.824 114.215 C 316.946 112.956,316.998 112.922,318.832 112.922 C 320.826 112.922,321.670 112.426,321.670 111.252 C 321.670 110.817,321.963 110.537,322.417 110.537 C 323.278 110.537,323.908 109.879,324.114 108.765 C 324.195 108.332,324.692 107.885,325.236 107.756 C 325.845 107.613,326.300 107.158,326.444 106.548 C 326.573 106.004,327.020 105.507,327.453 105.426 C 328.826 105.172,329.225 104.521,329.225 102.536 C 329.225 100.646,329.255 100.596,330.417 100.596 C 331.478 100.596,331.610 100.464,331.610 99.404 C 331.610 98.343,331.743 98.211,332.803 98.211 C 333.877 98.211,333.999 98.082,334.027 96.918 L 334.059 95.626 334.458 96.720 C 334.739 97.490,335.134 97.813,335.793 97.813 M207.722 174.950 C 207.970 177.144,208.070 177.336,208.966 177.336 C 209.806 177.336,209.940 177.519,209.940 178.668 C 209.940 180.925,210.685 182.505,211.749 182.505 C 212.608 182.505,212.694 182.691,212.803 184.775 C 212.911 186.826,213.018 187.067,213.917 187.276 C 214.828 187.489,214.920 187.713,215.029 189.977 C 215.145 192.402,215.168 192.445,216.287 192.445 C 217.411 192.445,217.429 192.482,217.561 195.014 L 217.694 197.583 215.308 197.698 C 212.935 197.813,212.922 197.820,212.798 199.105 L 212.673 200.398 208.921 200.398 L 205.169 200.398 205.169 201.590 L 205.169 202.783 202.219 202.783 C 198.627 202.783,198.012 202.993,198.012 204.217 C 198.012 205.123,197.888 205.169,195.427 205.169 L 192.843 205.169 192.843 206.343 C 192.843 207.505,192.818 207.518,190.358 207.635 C 187.873 207.753,187.873 207.754,187.748 209.046 L 187.624 210.338 185.263 210.338 C 182.914 210.338,182.903 210.344,182.903 211.512 C 182.903 212.674,182.878 212.687,180.417 212.804 C 178.036 212.918,177.927 212.968,177.807 214.016 C 177.685 215.072,177.600 215.109,175.322 215.109 C 172.965 215.109,172.962 215.111,172.962 216.302 C 172.962 217.466,172.915 217.495,171.003 217.495 C 168.892 217.495,167.793 218.185,167.793 219.512 C 167.793 220.153,167.506 220.278,166.036 220.278 C 163.679 220.278,163.022 220.585,163.022 221.687 C 163.022 222.442,162.782 222.637,161.730 222.738 C 160.653 222.842,160.416 223.045,160.312 223.956 C 160.196 224.963,160.048 225.050,158.451 225.050 C 156.694 225.050,155.467 225.786,155.467 226.841 C 155.467 227.139,154.975 227.439,154.374 227.508 C 153.463 227.613,153.260 227.850,153.156 228.926 C 153.042 230.110,152.916 230.219,151.665 230.219 C 150.417 230.219,150.298 230.320,150.298 231.392 C 150.298 232.541,150.252 232.567,148.012 232.684 C 145.848 232.797,145.719 232.862,145.600 233.897 C 145.494 234.812,145.284 234.990,144.308 234.990 C 143.282 234.990,143.141 235.131,143.141 236.158 C 143.141 237.184,142.985 237.340,141.849 237.450 C 140.717 237.559,140.541 237.733,140.433 238.848 C 140.312 240.100,140.274 240.123,138.048 240.239 C 135.922 240.351,135.778 240.423,135.662 241.427 C 135.566 242.254,135.295 242.525,134.469 242.620 C 133.642 242.716,133.372 242.986,133.276 243.814 C 133.174 244.694,132.928 244.905,131.884 245.006 C 130.841 245.107,130.594 245.319,130.493 246.199 C 130.397 247.025,130.126 247.296,129.300 247.391 C 128.416 247.494,128.209 247.738,128.106 248.807 C 127.996 249.943,127.840 250.099,126.814 250.099 C 125.781 250.099,125.646 250.238,125.646 251.292 C 125.646 252.353,125.514 252.485,124.453 252.485 C 123.393 252.485,123.260 252.618,123.260 253.678 C 123.260 254.776,123.150 254.871,121.869 254.871 C 120.595 254.871,120.477 254.969,120.477 256.037 C 120.477 257.014,120.299 257.224,119.384 257.329 C 118.473 257.434,118.269 257.671,118.166 258.748 C 118.056 259.884,117.900 260.040,116.873 260.040 C 115.841 260.040,115.706 260.178,115.706 261.233 C 115.706 262.293,115.573 262.425,114.513 262.425 C 113.453 262.425,113.320 262.558,113.320 263.618 C 113.320 264.716,113.210 264.811,111.928 264.811 C 110.654 264.811,110.537 264.910,110.537 265.978 C 110.537 266.954,110.359 267.164,109.443 267.270 C 108.532 267.375,108.329 267.611,108.225 268.688 C 108.116 269.824,107.960 269.980,106.933 269.980 C 105.901 269.980,105.765 270.118,105.765 271.173 C 105.765 272.233,105.633 272.366,104.573 272.366 C 103.518 272.366,103.380 272.501,103.380 273.533 C 103.380 274.560,103.224 274.716,102.087 274.826 C 101.011 274.930,100.774 275.133,100.669 276.044 C 100.586 276.768,100.311 277.137,99.854 277.137 C 98.907 277.137,98.211 277.917,98.211 278.980 C 98.211 279.653,97.946 279.898,97.117 279.993 C 96.258 280.092,95.997 280.354,95.898 281.213 C 95.815 281.937,95.539 282.306,95.083 282.306 C 93.936 282.306,93.439 283.163,93.439 285.144 C 93.439 286.978,93.406 287.030,92.147 287.152 C 91.017 287.261,90.840 287.435,90.732 288.544 C 90.631 289.588,90.420 289.834,89.539 289.936 C 88.712 290.032,88.441 290.302,88.346 291.129 C 88.250 291.955,87.979 292.226,87.153 292.322 C 86.147 292.438,86.076 292.581,85.964 294.732 C 85.847 296.971,85.821 297.018,84.672 297.018 C 83.597 297.018,83.499 297.134,83.499 298.410 C 83.499 299.679,83.398 299.801,82.349 299.801 C 81.011 299.801,80.716 300.346,80.716 302.816 C 80.716 304.503,80.668 304.573,79.523 304.573 C 78.463 304.573,78.330 304.705,78.330 305.765 C 78.330 307.488,76.069 307.579,75.871 305.865 C 75.767 304.954,75.530 304.751,74.453 304.647 C 73.317 304.537,73.161 304.381,73.161 303.355 C 73.161 302.322,73.023 302.187,71.968 302.187 C 70.823 302.187,70.775 302.117,70.775 300.430 C 70.775 298.061,70.468 297.416,69.341 297.416 C 68.668 297.416,68.390 297.192,68.390 296.653 C 68.390 295.296,67.927 294.632,66.982 294.632 C 66.268 294.632,66.028 294.382,65.931 293.539 C 65.826 292.628,65.590 292.425,64.513 292.321 L 63.221 292.196 63.221 289.826 C 63.221 287.510,63.193 287.450,62.028 287.217 C 60.895 286.990,60.835 286.879,60.835 285.005 C 60.835 283.178,60.747 282.999,59.642 282.582 C 58.711 282.230,58.449 281.890,58.449 281.026 C 58.449 280.067,58.294 279.920,57.275 279.920 C 56.113 279.920,56.100 279.896,55.983 277.435 C 55.865 274.950,55.865 274.950,54.573 274.826 L 53.280 274.701 53.280 272.341 C 53.280 269.983,53.279 269.980,52.087 269.980 L 50.895 269.980 50.895 266.566 L 50.895 263.152 49.702 262.701 C 48.592 262.282,48.509 262.110,48.509 260.231 C 48.509 258.109,48.030 257.256,46.839 257.256 C 46.230 257.256,46.117 256.885,46.084 254.771 C 46.027 251.218,45.705 250.323,44.432 250.174 C 43.376 250.050,43.368 250.027,43.255 246.396 C 43.141 242.749,43.139 242.743,42.060 242.619 L 40.978 242.494 40.867 237.649 L 40.755 232.803 39.662 232.677 L 38.569 232.552 38.564 225.520 C 38.559 216.819,38.384 215.576,37.124 215.259 L 36.183 215.023 36.183 205.126 L 36.183 195.229 63.121 195.226 C 91.872 195.224,93.042 195.153,93.042 193.421 L 93.042 192.445 104.143 192.445 L 115.245 192.445 115.507 191.252 L 115.769 190.060 125.002 190.060 C 134.569 190.060,135.189 189.958,135.189 188.390 C 135.189 187.733,135.673 187.674,141.054 187.670 C 148.489 187.664,149.841 187.455,150.139 186.267 C 150.359 185.390,150.531 185.359,155.838 185.226 C 161.560 185.083,162.624 184.773,162.624 183.252 C 162.624 182.555,163.018 182.505,168.550 182.505 L 174.475 182.505 174.891 181.312 L 175.307 180.119 179.621 180.119 C 184.072 180.119,184.891 179.860,184.891 178.449 C 184.891 177.812,185.314 177.729,188.767 177.694 C 193.499 177.646,194.592 177.380,194.757 176.241 C 194.874 175.436,195.131 175.369,198.535 175.263 L 202.187 175.149 202.311 173.857 L 202.436 172.565 204.944 172.565 L 207.452 172.565 207.722 174.950 M314.586 218.588 L 314.712 219.682 325.746 219.788 C 336.030 219.886,336.779 219.941,336.779 220.603 C 336.779 222.117,337.499 222.266,344.786 222.266 L 351.838 222.266 351.963 223.559 L 352.087 224.851 356.958 224.963 C 361.781 225.073,361.829 225.083,361.829 226.013 C 361.829 227.225,362.451 227.435,366.036 227.435 L 368.986 227.435 368.986 228.801 C 368.986 229.994,368.849 230.182,367.893 230.292 L 366.799 230.417 366.688 235.288 C 366.588 239.640,366.501 240.159,365.872 240.159 C 364.465 240.159,364.215 240.980,364.215 245.606 L 364.215 250.099 363.022 250.099 L 361.829 250.099 361.829 253.653 L 361.829 257.206 360.537 257.331 C 359.246 257.455,359.244 257.458,359.127 259.916 C 359.015 262.260,358.958 262.382,357.934 262.500 C 356.862 262.624,356.859 262.633,356.745 266.302 L 356.630 269.980 355.452 269.980 C 354.278 269.980,354.274 269.987,354.274 272.366 L 354.274 274.751 353.082 274.751 L 351.889 274.751 351.889 277.336 L 351.889 279.920 350.497 279.920 C 349.223 279.920,349.105 280.019,349.105 281.087 C 349.105 282.064,348.928 282.274,348.012 282.379 C 346.978 282.498,346.912 282.629,346.800 284.767 C 346.689 286.894,346.618 287.036,345.607 287.152 C 344.726 287.254,344.511 287.501,344.412 288.523 C 344.312 289.546,344.079 289.812,343.119 290.004 C 341.995 290.229,341.948 290.324,341.948 292.410 C 341.948 294.570,341.941 294.583,340.656 294.706 C 339.588 294.809,339.342 295.016,339.241 295.898 C 339.146 296.712,338.840 297.026,337.948 297.222 C 336.815 297.471,336.779 297.551,336.779 299.833 C 336.779 302.183,336.778 302.187,335.586 302.187 C 334.526 302.187,334.394 302.319,334.394 303.380 C 334.394 304.440,334.261 304.573,333.201 304.573 C 332.140 304.573,332.008 304.705,332.008 305.765 C 332.008 306.745,331.844 306.958,331.093 306.958 C 329.937 306.958,329.225 307.660,329.225 308.801 C 329.225 309.474,328.960 309.719,328.131 309.815 C 327.279 309.913,327.010 310.177,326.914 311.010 C 326.819 311.836,326.548 312.107,325.721 312.203 C 324.895 312.298,324.624 312.569,324.529 313.395 C 324.433 314.222,324.162 314.493,323.336 314.588 C 322.516 314.683,322.238 314.956,322.145 315.760 C 322.052 316.563,321.747 316.863,320.844 317.044 C 319.935 317.226,319.611 317.549,319.430 318.459 C 319.249 319.362,318.948 319.666,318.146 319.759 C 317.342 319.852,317.069 320.130,316.974 320.950 C 316.878 321.777,316.608 322.047,315.781 322.143 C 314.948 322.239,314.684 322.508,314.586 323.360 C 314.481 324.276,314.271 324.453,313.294 324.453 C 312.268 324.453,312.127 324.594,312.127 325.621 C 312.127 326.648,311.971 326.804,310.835 326.913 C 309.699 327.023,309.528 327.194,309.418 328.330 C 309.309 329.466,309.153 329.622,308.126 329.622 C 307.098 329.622,306.958 329.763,306.958 330.795 C 306.958 331.944,306.912 331.971,304.672 332.088 C 302.531 332.199,302.378 332.273,302.264 333.259 C 302.163 334.132,301.908 334.339,300.773 334.472 L 299.404 334.632 299.404 330.020 C 299.404 325.261,299.161 324.453,297.734 324.453 C 297.087 324.453,297.017 324.021,297.014 319.980 C 297.007 313.616,296.780 312.537,295.384 312.258 L 294.258 312.033 294.147 307.209 L 294.036 302.386 292.954 302.261 L 291.873 302.136 291.762 297.291 L 291.650 292.445 290.557 292.320 L 289.463 292.194 289.463 287.439 L 289.463 282.684 288.270 282.445 L 287.078 282.207 287.073 278.976 C 287.066 273.886,286.782 272.764,285.432 272.494 L 284.294 272.266 284.294 268.539 L 284.294 264.811 283.101 264.811 L 281.909 264.811 281.909 260.466 C 281.909 255.998,281.542 254.871,280.091 254.871 C 279.650 254.871,279.523 254.212,279.523 251.921 C 279.523 248.329,279.313 247.714,278.089 247.714 C 277.183 247.714,277.135 247.585,277.098 245.030 C 277.042 241.263,276.737 240.384,275.432 240.232 C 274.357 240.107,274.354 240.096,274.354 236.832 C 274.354 233.454,274.018 232.604,272.684 232.604 C 272.055 232.604,271.968 232.223,271.968 229.452 C 271.968 226.228,271.482 225.050,270.151 225.050 C 269.716 225.050,269.583 224.440,269.583 222.465 L 269.583 219.881 278.898 219.881 C 288.642 219.881,289.463 219.739,289.463 218.063 C 289.463 217.583,291.395 217.495,301.962 217.495 L 314.460 217.495 314.586 218.588 M232.604 231.014 C 232.604 232.074,232.737 232.207,233.797 232.207 L 234.990 232.207 234.990 235.984 L 234.990 239.761 236.183 239.761 C 237.356 239.761,237.376 239.796,237.380 241.849 C 237.388 245.631,237.754 246.918,238.819 246.918 C 239.713 246.918,239.763 247.055,239.801 249.602 C 239.854 253.194,240.176 254.196,241.366 254.475 C 242.292 254.693,242.352 254.878,242.464 257.851 C 242.587 261.150,242.948 262.028,244.184 262.028 C 244.851 262.028,244.930 262.361,244.930 265.180 C 244.930 268.404,245.417 269.583,246.748 269.583 C 247.193 269.583,247.316 270.268,247.316 272.735 C 247.316 275.959,247.803 277.137,249.134 277.137 C 249.580 277.137,249.702 277.842,249.702 280.437 C 249.702 283.959,250.024 284.692,251.571 284.692 C 252.471 284.692,252.485 284.760,252.485 289.226 L 252.485 293.759 253.678 294.175 L 254.871 294.591 254.871 298.906 C 254.871 303.357,255.130 304.175,256.541 304.175 C 257.188 304.175,257.256 304.606,257.256 308.668 C 257.256 313.303,257.505 314.115,258.926 314.115 C 259.564 314.115,259.646 314.539,259.682 317.992 C 259.731 322.790,259.981 323.760,261.247 324.058 C 262.214 324.286,262.228 324.351,262.338 329.155 L 262.450 334.021 263.631 334.257 L 264.811 334.493 264.811 339.779 C 264.811 345.791,264.928 346.322,266.245 346.322 C 267.185 346.322,267.197 346.369,267.197 350.298 L 267.197 354.274 264.811 354.274 L 262.425 354.274 262.425 355.467 C 262.425 356.641,262.391 356.660,260.338 356.664 C 256.424 356.673,255.254 357.032,254.999 358.306 L 254.771 359.443 251.233 359.443 L 247.694 359.443 247.455 360.636 L 247.217 361.829 242.485 361.829 L 237.753 361.829 237.515 363.022 L 237.276 364.215 229.254 364.215 C 220.951 364.215,220.278 364.340,220.278 365.885 C 220.278 366.563,219.367 366.600,202.833 366.600 L 185.388 366.600 185.149 365.408 L 184.911 364.215 177.571 364.215 L 170.232 364.215 170.106 363.121 L 169.980 362.028 165.109 361.916 L 160.239 361.805 160.239 360.624 L 160.239 359.443 156.461 359.443 L 152.684 359.443 152.684 358.293 C 152.684 356.857,152.186 356.660,148.564 356.660 C 145.748 356.660,145.694 356.640,145.251 355.467 L 144.801 354.274 141.413 354.274 L 138.025 354.274 137.899 353.181 C 137.779 352.133,137.670 352.083,135.288 351.969 C 132.828 351.852,132.803 351.839,132.803 350.677 C 132.803 349.509,132.792 349.503,130.443 349.503 L 128.082 349.503 127.958 348.211 C 127.833 346.919,127.833 346.918,125.348 346.800 C 122.887 346.683,122.863 346.670,122.863 345.508 C 122.863 344.475,122.723 344.334,121.696 344.334 C 120.719 344.334,120.510 344.156,120.404 343.241 C 120.285 342.209,120.153 342.140,118.038 342.029 C 115.910 341.917,115.786 341.852,115.563 340.737 C 115.334 339.592,115.268 339.563,112.932 339.563 L 110.537 339.563 110.537 338.171 C 110.537 336.897,110.438 336.779,109.370 336.779 C 108.393 336.779,108.183 336.602,108.078 335.686 C 107.979 334.827,107.718 334.565,106.859 334.467 C 106.135 334.383,105.765 334.108,105.765 333.652 C 105.765 332.696,104.983 332.008,103.897 332.008 C 102.231 332.008,102.588 329.313,104.274 329.150 C 105.351 329.047,105.588 328.844,105.692 327.932 C 105.762 327.331,106.062 326.839,106.360 326.839 C 107.467 326.839,108.151 325.614,108.151 323.630 C 108.151 321.717,108.180 321.670,109.344 321.670 C 110.398 321.670,110.537 321.535,110.537 320.504 C 110.537 319.527,110.714 319.317,111.630 319.211 C 112.664 319.092,112.730 318.962,112.842 316.823 C 112.959 314.597,112.981 314.558,114.234 314.437 C 115.349 314.329,115.522 314.154,115.632 313.022 C 115.735 311.948,115.921 311.730,116.735 311.730 C 117.500 311.730,117.765 311.474,117.948 310.559 C 118.127 309.664,118.429 309.359,119.230 309.267 C 120.211 309.153,120.286 308.998,120.398 306.859 C 120.514 304.619,120.541 304.573,121.690 304.573 C 122.765 304.573,122.863 304.457,122.863 303.181 C 122.863 301.856,122.929 301.789,124.254 301.789 C 125.529 301.789,125.646 301.691,125.646 300.623 C 125.646 299.646,125.824 299.436,126.740 299.331 C 127.585 299.233,127.861 298.967,127.954 298.157 C 128.047 297.356,128.352 297.053,129.247 296.874 C 130.152 296.693,130.417 296.424,130.417 295.686 C 130.417 294.944,130.683 294.679,131.610 294.493 C 132.620 294.291,132.803 294.070,132.803 293.052 C 132.803 291.978,132.932 291.849,134.006 291.849 C 135.024 291.849,135.245 291.666,135.447 290.656 C 135.633 289.728,135.898 289.463,136.640 289.463 C 137.375 289.463,137.647 289.198,137.825 288.312 C 137.999 287.439,138.334 287.105,139.206 286.930 C 140.093 286.753,140.358 286.480,140.358 285.746 C 140.358 285.003,140.623 284.738,141.551 284.553 C 142.561 284.351,142.744 284.130,142.744 283.111 C 142.744 282.002,142.851 281.909,144.135 281.909 C 145.409 281.909,145.527 281.810,145.527 280.742 C 145.527 279.765,145.705 279.555,146.620 279.450 C 147.479 279.351,147.741 279.089,147.840 278.231 C 147.945 277.315,148.155 277.137,149.132 277.137 C 150.163 277.137,150.298 276.999,150.298 275.944 C 150.298 274.872,150.429 274.747,151.590 274.712 C 153.812 274.644,154.828 274.187,155.071 273.147 C 155.235 272.446,155.611 272.131,156.393 272.040 C 157.241 271.941,157.539 271.651,157.719 270.747 C 157.912 269.783,158.149 269.583,159.095 269.583 C 160.088 269.583,160.239 269.433,160.239 268.445 C 160.239 267.376,160.358 267.293,162.236 267.071 C 164.639 266.786,165.010 266.587,165.010 265.583 C 165.010 265.043,165.284 264.811,165.924 264.811 C 167.090 264.811,167.793 264.108,167.793 262.942 C 167.793 262.191,168.006 262.028,168.986 262.028 C 170.046 262.028,170.179 261.895,170.179 260.835 C 170.179 259.652,170.197 259.642,172.400 259.642 C 174.496 259.642,174.647 259.575,175.065 258.468 C 175.372 257.655,175.819 257.258,176.521 257.176 C 177.290 257.086,177.565 256.798,177.659 255.983 C 177.775 254.973,177.917 254.902,180.044 254.790 C 182.270 254.674,182.308 254.651,182.429 253.399 C 182.550 252.147,182.591 252.124,184.799 252.007 C 186.824 251.900,187.068 251.791,187.276 250.895 C 187.482 250.009,187.738 249.887,189.622 249.779 C 191.541 249.668,191.776 249.551,192.171 248.506 C 192.500 247.633,192.898 247.326,193.817 247.236 C 194.809 247.139,195.053 246.918,195.156 246.024 C 195.271 245.018,195.420 244.930,197.012 244.930 C 199.454 244.930,200.000 244.632,200.000 243.297 C 200.000 242.157,200.020 242.147,202.386 242.147 L 204.771 242.147 204.771 240.954 L 204.771 239.761 208.186 239.761 C 211.586 239.761,211.602 239.757,212.034 238.612 C 212.424 237.577,212.698 237.436,214.783 237.201 C 216.889 236.962,217.097 236.853,217.097 235.983 C 217.097 235.089,217.257 235.020,219.583 234.910 C 222.067 234.791,222.068 234.791,222.192 233.499 L 222.317 232.207 225.592 232.207 C 228.971 232.207,229.821 231.871,229.821 230.537 C 229.821 229.984,230.138 229.821,231.213 229.821 C 232.494 229.821,232.604 229.916,232.604 231.014 " stroke="none" fill="#4c5464" fill-rule="evenodd"></path><path id="path1" d="" stroke="none" fill="#505464" fill-rule="evenodd"></path><path id="path2" d="" stroke="none" fill="#505464" fill-rule="evenodd"></path><path id="path3" d="" stroke="none" fill="#505464" fill-rule="evenodd"></path><path id="path4" d="" stroke="none" fill="#505464" fill-rule="evenodd"></path></g></svg>