<svg id="svg" version="1.1" xmlns="http://www.w3.org/2000/svg" xmlns:xlink="http://www.w3.org/1999/xlink" width="400" height="400" viewBox="0, 0, 400,400"><g id="svgg"><path id="path0" d="M159.000 125.637 C 153.137 126.214,147.018 127.280,145.400 128.006 C 144.520 128.400,143.022 128.848,142.072 129.001 C 141.122 129.154,140.250 129.525,140.135 129.825 C 140.020 130.124,139.538 130.492,139.063 130.642 C 137.318 131.192,131.017 137.483,130.618 139.072 C 130.471 139.658,130.002 140.580,129.575 141.122 C 129.149 141.664,128.800 142.540,128.800 143.068 C 128.800 143.596,128.497 144.491,128.126 145.057 C 127.753 145.626,127.222 147.812,126.940 149.943 C 126.658 152.064,126.214 154.610,125.951 155.600 C 125.346 157.888,124.981 238.860,125.548 245.200 C 125.998 250.238,127.092 257.338,127.673 259.000 C 127.904 259.660,128.355 261.156,128.674 262.323 C 129.448 265.147,132.252 269.231,135.177 271.793 C 135.935 272.457,136.996 273.405,137.536 273.900 C 138.075 274.395,138.736 274.800,139.004 274.800 C 139.273 274.800,139.921 275.134,140.446 275.542 C 140.971 275.950,142.120 276.415,143.000 276.576 C 143.880 276.736,144.895 277.132,145.255 277.455 C 145.651 277.810,147.452 278.200,149.821 278.442 C 151.972 278.662,154.107 279.058,154.566 279.321 C 156.018 280.155,245.656 280.220,249.760 279.390 C 251.498 279.039,254.327 278.591,256.045 278.395 C 257.763 278.199,259.581 277.773,260.085 277.449 C 260.588 277.125,261.720 276.739,262.600 276.592 C 263.480 276.445,264.688 275.982,265.284 275.563 C 265.880 275.143,266.550 274.800,266.773 274.800 C 267.527 274.800,274.800 267.256,274.800 266.474 C 274.800 266.053,275.137 265.279,275.548 264.754 C 275.959 264.229,276.429 263.170,276.592 262.400 C 276.756 261.630,277.151 260.703,277.471 260.339 C 277.823 259.939,278.197 258.161,278.417 255.831 C 278.617 253.714,279.010 251.582,279.291 251.091 C 280.155 249.579,280.251 188.883,279.396 184.662 C 279.041 182.912,278.591 180.073,278.395 178.355 C 278.199 176.637,277.773 174.819,277.449 174.315 C 277.125 173.812,276.739 172.680,276.592 171.800 C 276.445 170.920,275.982 169.712,275.563 169.116 C 275.143 168.520,274.800 167.910,274.800 167.761 C 274.800 167.160,270.185 162.284,267.966 160.541 L 265.600 158.682 265.600 153.555 C 265.600 150.182,265.405 147.841,265.029 146.714 C 264.715 145.771,264.237 143.830,263.966 142.400 C 263.695 140.970,263.142 139.371,262.737 138.846 C 262.332 138.321,262.000 137.556,262.000 137.145 C 262.000 136.201,254.738 128.800,253.812 128.800 C 253.433 128.800,252.646 128.464,252.062 128.054 C 251.478 127.643,250.100 127.176,249.000 127.016 C 247.900 126.855,246.370 126.426,245.600 126.062 C 244.062 125.335,165.957 124.951,159.000 125.637 M185.800 136.469 C 187.863 137.847,189.490 139.491,190.286 141.000 C 190.634 141.660,191.252 142.435,191.660 142.723 C 192.067 143.010,192.400 143.415,192.400 143.623 C 192.400 143.830,192.715 144.333,193.100 144.741 C 194.880 146.624,196.000 148.129,196.000 148.638 C 196.000 148.943,196.360 149.418,196.800 149.693 C 197.240 149.968,197.600 150.348,197.600 150.538 C 197.600 150.728,198.500 151.960,199.600 153.276 C 200.700 154.593,201.600 155.822,201.600 156.007 C 201.600 157.059,207.487 162.291,208.986 162.572 C 209.859 162.735,211.119 163.167,211.786 163.531 C 212.856 164.115,215.401 164.218,233.200 164.397 C 248.492 164.551,253.616 164.724,254.289 165.108 C 254.778 165.388,256.097 165.791,257.221 166.004 C 258.344 166.217,259.723 166.753,260.285 167.196 C 260.848 167.638,261.509 168.001,261.754 168.002 C 262.403 168.004,266.169 171.627,266.743 172.800 C 267.012 173.350,267.492 174.250,267.810 174.800 C 268.128 175.350,268.391 176.275,268.394 176.856 C 268.397 177.437,268.756 178.697,269.191 179.656 C 270.434 182.396,270.442 250.761,269.200 254.296 C 268.760 255.548,268.397 256.939,268.394 257.386 C 268.391 257.834,268.126 258.650,267.805 259.200 C 267.485 259.750,266.983 260.692,266.690 261.294 C 265.969 262.775,262.768 266.400,262.180 266.400 C 261.921 266.400,261.269 266.745,260.733 267.167 C 260.196 267.589,259.047 268.053,258.179 268.198 C 257.310 268.343,255.749 268.811,254.708 269.238 C 251.916 270.385,152.629 270.253,150.520 269.100 C 149.816 268.715,148.826 268.399,148.320 268.398 C 144.204 268.392,137.674 262.059,137.012 257.433 C 136.858 256.352,136.431 255.009,136.065 254.451 C 135.031 252.872,135.043 153.293,136.078 151.282 C 136.451 150.558,136.877 149.161,137.024 148.178 C 137.172 147.195,137.607 145.988,137.991 145.495 C 138.375 145.003,138.814 144.204,138.966 143.719 C 139.280 142.716,142.980 138.800,143.614 138.800 C 143.844 138.800,144.520 138.458,145.116 138.040 C 145.712 137.622,147.001 137.164,147.980 137.022 C 148.959 136.881,150.001 136.565,150.296 136.320 C 151.279 135.505,155.683 135.286,170.000 135.343 L 184.200 135.400 185.800 136.469 M245.469 135.558 C 246.387 135.736,247.435 136.178,247.798 136.541 C 248.160 136.903,248.694 137.200,248.983 137.200 C 249.782 137.200,253.467 140.864,253.810 142.000 C 253.976 142.550,254.447 143.627,254.856 144.394 C 255.451 145.509,255.600 146.664,255.600 150.163 C 255.600 155.500,255.281 156.086,252.689 155.519 C 248.377 154.576,245.954 154.455,230.400 154.401 C 221.270 154.370,213.501 154.221,213.135 154.072 C 211.689 153.481,207.600 149.115,207.600 148.162 C 207.600 147.857,207.240 147.382,206.800 147.107 C 206.360 146.832,206.000 146.445,206.000 146.247 C 206.000 146.049,205.190 144.938,204.200 143.779 C 203.210 142.621,202.400 141.475,202.400 141.234 C 202.400 140.992,201.950 140.403,201.400 139.925 C 200.850 139.447,200.400 138.858,200.400 138.617 C 200.400 138.375,200.032 137.863,199.583 137.478 C 198.676 136.701,198.849 136.119,200.141 135.597 C 201.228 135.159,243.220 135.122,245.469 135.558 " stroke="none" fill="#161e26" fill-rule="evenodd"></path><path id="path1" d="M70.961 11.196 C 69.839 11.362,68.309 11.685,67.561 11.913 C 66.812 12.141,65.390 12.438,64.400 12.573 C 62.143 12.880,56.063 14.753,55.011 15.465 C 54.577 15.759,53.967 16.000,53.656 16.000 C 52.860 16.000,47.034 18.867,44.400 20.554 C 38.365 24.420,36.620 25.813,31.472 30.871 C 28.410 33.880,25.611 36.780,25.252 37.315 C 22.872 40.869,20.091 45.182,19.525 46.200 C 16.047 52.451,13.157 59.953,12.590 64.200 C 12.444 65.300,12.026 67.280,11.662 68.600 C 10.788 71.768,10.625 333.938,11.495 336.400 C 11.767 337.170,12.269 339.410,12.610 341.378 C 12.952 343.346,13.395 345.153,13.595 345.394 C 13.795 345.634,14.130 346.544,14.341 347.416 C 14.916 349.795,17.883 356.729,19.213 358.800 C 19.424 359.130,20.273 360.500,21.099 361.845 C 21.924 363.189,23.396 365.430,24.368 366.824 C 26.457 369.816,35.634 379.046,38.322 380.857 C 39.355 381.553,40.531 382.410,40.935 382.761 C 41.888 383.589,46.196 385.991,50.000 387.816 C 51.650 388.607,53.540 389.535,54.200 389.878 C 54.860 390.220,56.300 390.735,57.400 391.022 C 58.500 391.309,60.210 391.805,61.200 392.124 C 62.190 392.444,65.250 393.131,68.000 393.653 L 73.000 394.600 202.800 394.600 C 300.584 394.600,333.143 394.484,334.800 394.131 C 336.010 393.873,338.451 393.388,340.224 393.053 C 344.088 392.324,348.458 391.002,350.454 389.960 C 351.254 389.542,352.179 389.200,352.509 389.200 C 353.198 389.200,359.027 386.229,361.400 384.668 C 362.280 384.089,364.161 382.847,365.579 381.908 C 368.332 380.085,379.106 369.803,380.362 367.800 C 380.776 367.140,382.032 365.295,383.152 363.700 C 384.273 362.104,385.462 360.214,385.795 359.500 C 386.128 358.785,386.942 357.210,387.605 356.000 C 388.267 354.790,388.911 353.440,389.035 353.000 C 389.159 352.560,389.595 351.480,390.002 350.600 C 391.104 348.223,392.603 342.818,393.662 337.400 L 394.600 332.600 394.600 202.600 L 394.600 72.600 393.483 67.000 C 392.868 63.920,392.103 60.809,391.783 60.086 C 391.462 59.364,391.198 58.464,391.196 58.086 C 391.194 57.709,390.750 56.500,390.209 55.400 C 389.668 54.300,389.219 53.130,389.211 52.800 C 389.203 52.470,388.860 51.648,388.448 50.972 C 388.037 50.297,387.562 49.311,387.394 48.780 C 387.225 48.250,386.777 47.362,386.397 46.808 C 386.017 46.253,385.141 44.900,384.450 43.800 C 380.879 38.113,378.982 35.754,374.079 30.905 C 369.761 26.636,365.353 23.008,362.559 21.425 C 361.922 21.064,360.680 20.332,359.800 19.798 C 358.920 19.265,357.570 18.538,356.800 18.184 C 356.030 17.829,354.668 17.193,353.774 16.770 C 352.879 16.346,351.956 16.000,351.723 16.000 C 351.489 16.000,351.086 15.744,350.826 15.431 C 350.566 15.118,349.599 14.738,348.677 14.587 C 347.755 14.435,346.280 13.991,345.400 13.600 C 344.520 13.208,342.810 12.764,341.600 12.611 C 340.390 12.459,338.410 12.038,337.200 11.675 C 334.833 10.966,75.667 10.500,70.961 11.196 M248.340 124.839 C 249.033 125.081,249.600 125.417,249.600 125.588 C 249.600 125.758,250.508 126.017,251.619 126.165 C 252.783 126.319,253.729 126.671,253.854 126.997 C 253.973 127.307,254.686 127.764,255.438 128.013 C 256.191 128.261,256.991 128.810,257.217 129.232 C 257.443 129.654,257.797 130.000,258.004 130.000 C 258.352 130.000,259.205 130.849,261.763 133.745 C 262.319 134.374,262.895 135.274,263.042 135.745 C 263.190 136.215,263.645 137.029,264.055 137.554 C 264.465 138.079,264.800 138.891,264.800 139.360 C 264.800 139.828,265.181 140.922,265.646 141.791 C 266.394 143.186,266.517 144.242,266.705 150.866 L 266.917 158.362 268.136 158.787 C 269.440 159.242,275.600 165.408,275.600 166.259 C 275.600 166.540,275.967 167.111,276.416 167.529 C 276.865 167.947,277.345 168.989,277.483 169.845 C 277.620 170.700,277.999 171.597,278.325 171.837 C 278.650 172.078,279.057 173.308,279.228 174.570 C 279.400 175.832,279.868 177.526,280.270 178.333 C 281.384 180.572,281.405 253.788,280.292 256.021 C 279.902 256.803,279.413 258.493,279.204 259.776 C 278.995 261.060,278.573 262.401,278.266 262.755 C 277.959 263.110,277.582 263.926,277.429 264.568 C 277.276 265.211,276.802 266.180,276.375 266.722 C 275.949 267.264,275.600 267.973,275.600 268.297 C 275.600 269.020,268.895 275.600,268.159 275.600 C 267.869 275.600,267.289 275.967,266.871 276.416 C 266.453 276.865,265.411 277.345,264.555 277.483 C 263.700 277.620,262.803 277.999,262.563 278.325 C 262.322 278.650,261.092 279.057,259.830 279.228 C 258.568 279.400,256.874 279.868,256.067 280.270 C 253.801 281.398,151.791 281.407,149.600 280.280 C 148.830 279.883,147.390 279.463,146.400 279.346 C 144.354 279.105,142.400 278.448,142.400 278.003 C 142.400 277.837,141.673 277.586,140.785 277.444 C 139.896 277.302,139.073 276.935,138.956 276.629 C 138.838 276.323,138.321 275.967,137.806 275.837 C 136.513 275.513,135.236 274.404,130.850 269.800 C 130.431 269.360,129.952 268.550,129.786 268.000 C 129.621 267.450,129.151 266.765,128.743 266.477 C 128.276 266.149,128.000 265.466,128.000 264.639 C 128.000 263.845,127.692 263.046,127.224 262.621 C 126.710 262.157,126.364 261.154,126.202 259.659 C 126.067 258.417,125.651 256.860,125.278 256.200 C 124.267 254.411,124.227 150.739,125.237 149.182 C 125.588 148.642,125.986 147.243,126.122 146.072 C 126.258 144.902,126.736 143.351,127.184 142.625 C 127.633 141.899,128.000 141.012,128.000 140.653 C 128.000 140.294,128.334 139.666,128.742 139.258 C 129.150 138.850,129.607 138.026,129.757 137.427 C 130.071 136.177,135.998 130.177,137.319 129.771 C 137.804 129.622,138.522 129.163,138.916 128.750 C 139.309 128.338,140.136 128.000,140.754 128.000 C 141.371 128.000,142.187 127.656,142.568 127.236 C 143.032 126.723,144.072 126.379,145.730 126.191 C 147.088 126.037,148.426 125.728,148.702 125.504 C 148.979 125.281,149.789 124.959,150.502 124.790 C 152.653 124.279,246.870 124.327,248.340 124.839 M156.600 137.008 C 155.720 137.322,153.650 137.697,152.000 137.841 C 150.161 138.001,148.211 138.470,146.961 139.051 C 145.840 139.573,144.724 140.000,144.481 140.000 C 144.238 140.000,143.896 140.244,143.720 140.542 C 143.544 140.839,142.995 141.296,142.500 141.556 C 142.005 141.816,141.600 142.285,141.600 142.600 C 141.600 142.915,141.264 143.352,140.853 143.572 C 140.442 143.792,139.990 144.551,139.848 145.260 C 139.706 145.968,139.298 146.870,138.941 147.265 C 138.515 147.736,138.180 149.195,137.966 151.519 C 137.786 153.464,137.358 155.886,137.013 156.901 C 136.189 159.328,136.255 248.027,137.082 249.400 C 137.346 249.840,137.743 251.870,137.964 253.911 C 138.207 256.160,138.595 257.852,138.949 258.207 C 139.271 258.528,139.664 259.379,139.821 260.096 C 139.979 260.813,140.443 261.635,140.854 261.923 C 141.264 262.210,141.600 262.676,141.600 262.958 C 141.600 263.241,142.050 263.677,142.600 263.927 C 143.150 264.178,143.600 264.559,143.600 264.773 C 143.600 264.988,144.232 265.282,145.003 265.427 C 145.775 265.572,146.810 266.001,147.303 266.381 C 147.885 266.828,149.671 267.246,152.389 267.569 C 154.693 267.843,156.943 268.277,157.389 268.534 C 158.824 269.359,247.853 269.186,249.400 268.355 C 250.060 268.000,252.124 267.588,253.987 267.438 C 255.854 267.289,257.649 266.928,257.987 266.634 C 258.324 266.341,259.288 265.880,260.128 265.610 C 260.968 265.340,261.753 264.868,261.871 264.560 C 261.989 264.252,262.330 264.000,262.629 264.000 C 262.927 264.000,263.372 263.626,263.616 263.170 C 263.861 262.713,264.407 261.993,264.830 261.570 C 265.254 261.146,265.600 260.464,265.600 260.054 C 265.600 259.644,265.931 258.879,266.335 258.354 C 266.836 257.705,267.230 256.062,267.569 253.211 C 267.843 250.907,268.277 248.657,268.534 248.211 C 269.355 246.783,269.184 186.543,268.355 185.000 C 268.000 184.340,267.588 182.276,267.438 180.413 C 267.289 178.550,266.930 176.750,266.640 176.413 C 266.350 176.076,265.917 175.215,265.678 174.501 C 265.193 173.055,263.299 170.400,262.753 170.400 C 262.559 170.400,262.040 170.040,261.600 169.600 C 261.160 169.160,260.464 168.800,260.054 168.800 C 259.644 168.800,258.879 168.469,258.354 168.065 C 257.705 167.564,256.062 167.170,253.211 166.831 C 250.907 166.557,248.657 166.123,248.211 165.867 C 247.639 165.539,241.751 165.342,228.267 165.201 C 211.422 165.024,209.079 164.924,208.667 164.366 C 208.410 164.018,207.710 163.611,207.112 163.462 C 206.513 163.312,205.832 162.833,205.597 162.395 C 205.363 161.958,204.920 161.600,204.613 161.600 C 204.305 161.600,203.940 161.240,203.800 160.800 C 203.660 160.360,203.300 160.000,203.000 160.000 C 202.700 160.000,202.340 159.640,202.200 159.200 C 202.060 158.759,201.598 158.213,201.173 157.986 C 200.748 157.758,200.400 157.315,200.400 157.000 C 200.400 156.685,200.040 156.235,199.600 156.000 C 199.160 155.765,198.800 155.315,198.800 155.000 C 198.800 154.685,198.459 154.246,198.042 154.023 C 197.625 153.799,197.085 153.045,196.841 152.345 C 196.597 151.646,196.038 150.822,195.599 150.514 C 195.159 150.206,194.800 149.808,194.800 149.628 C 194.800 149.448,194.079 148.513,193.197 147.551 C 192.315 146.588,191.480 145.440,191.341 145.000 C 191.202 144.560,190.709 143.820,190.244 143.356 C 189.780 142.892,189.040 142.031,188.600 141.443 C 187.257 139.648,185.434 138.004,184.785 138.002 C 184.446 138.001,183.463 137.640,182.600 137.200 C 180.553 136.156,159.416 136.000,156.600 137.008 M201.410 137.300 C 201.556 137.795,202.018 138.447,202.437 138.749 C 202.857 139.051,203.200 139.539,203.200 139.835 C 203.200 140.130,203.560 140.565,204.000 140.800 C 204.440 141.035,204.800 141.485,204.800 141.800 C 204.800 142.115,205.141 142.554,205.558 142.777 C 205.975 143.001,206.515 143.755,206.759 144.455 C 207.003 145.154,207.562 145.978,208.001 146.286 C 208.441 146.594,208.800 147.011,208.800 147.214 C 208.800 147.417,210.015 148.837,211.500 150.370 L 214.200 153.156 234.300 153.278 L 254.400 153.400 254.400 150.585 C 254.400 148.559,254.176 147.329,253.600 146.200 C 253.160 145.337,252.800 144.167,252.800 143.600 C 252.800 141.755,249.309 138.500,246.748 137.958 C 245.567 137.707,244.114 137.255,243.520 136.951 C 242.643 136.504,238.547 136.400,221.793 136.400 L 201.146 136.400 201.410 137.300 " stroke="none" fill="#e3e3eb" fill-rule="evenodd"></path><path id="path2" d="M62.916 3.599 C 62.741 4.269,62.370 4.400,60.653 4.402 C 58.117 4.405,55.580 5.075,55.706 5.708 C 55.766 6.013,54.892 6.272,53.247 6.435 C 51.536 6.604,50.578 6.897,50.341 7.320 C 50.146 7.669,49.181 8.074,48.193 8.222 C 46.798 8.431,46.400 8.658,46.400 9.245 C 46.400 9.860,46.101 10.000,44.787 10.000 C 43.617 10.000,43.104 10.192,42.917 10.700 C 42.562 11.662,41.997 11.987,40.663 11.994 C 39.876 11.998,39.462 12.240,39.322 12.778 C 39.210 13.205,38.732 13.610,38.259 13.678 C 37.721 13.754,37.352 14.137,37.272 14.700 C 37.165 15.456,36.897 15.600,35.599 15.600 C 34.405 15.600,33.996 15.782,33.800 16.400 C 33.660 16.840,33.378 17.222,33.173 17.250 C 32.968 17.277,32.575 17.323,32.300 17.350 C 32.025 17.378,31.742 17.805,31.672 18.300 C 31.590 18.878,31.268 19.200,30.772 19.200 C 30.267 19.200,30.000 19.476,30.000 20.000 C 30.000 20.587,29.733 20.800,28.997 20.800 C 28.426 20.800,27.620 21.231,27.125 21.800 C 26.647 22.350,26.014 22.800,25.718 22.800 C 25.422 22.800,25.009 23.250,24.800 23.800 C 24.591 24.350,24.141 24.800,23.800 24.800 C 23.459 24.800,23.021 25.205,22.827 25.700 C 22.632 26.195,22.097 26.913,21.637 27.296 C 21.176 27.679,20.800 28.444,20.800 28.996 C 20.800 29.733,20.587 30.000,20.000 30.000 C 19.476 30.000,19.200 30.267,19.200 30.772 C 19.200 31.268,18.878 31.590,18.300 31.672 C 17.805 31.742,17.378 32.025,17.350 32.300 C 17.323 32.575,17.277 32.968,17.250 33.173 C 17.223 33.378,16.840 33.660,16.400 33.800 C 15.782 33.996,15.600 34.405,15.600 35.599 C 15.600 36.897,15.456 37.165,14.700 37.272 C 14.137 37.352,13.754 37.721,13.678 38.259 C 13.610 38.732,13.205 39.210,12.778 39.322 C 12.232 39.464,12.000 39.873,12.000 40.690 C 12.000 41.435,11.639 42.170,11.000 42.725 C 10.289 43.344,10.000 44.000,10.000 44.997 C 10.000 45.952,9.816 46.400,9.424 46.400 C 9.107 46.400,8.721 46.604,8.566 46.854 C 8.316 47.260,8.240 47.648,8.051 49.500 C 8.023 49.775,7.733 50.000,7.408 50.000 C 6.747 50.000,6.462 50.931,6.305 53.600 C 6.224 54.988,6.049 55.389,5.540 55.351 C 4.879 55.302,4.553 56.904,4.434 60.800 C 4.406 61.712,4.114 62.391,3.596 62.749 C 2.804 63.295,2.800 64.007,2.800 202.416 C 2.800 340.462,2.816 342.800,3.790 342.800 C 4.134 342.800,4.356 343.754,4.487 345.801 C 4.643 348.226,4.845 348.945,5.540 349.548 C 6.189 350.111,6.400 350.749,6.400 352.147 C 6.400 353.432,6.632 354.232,7.158 354.758 C 7.574 355.174,8.044 356.276,8.201 357.206 C 8.399 358.380,8.718 358.958,9.243 359.095 C 9.823 359.247,10.000 359.660,10.000 360.859 C 10.000 361.985,10.197 362.498,10.700 362.683 C 11.662 363.038,11.987 363.603,11.994 364.937 C 11.998 365.724,12.240 366.138,12.778 366.278 C 13.205 366.390,13.610 366.868,13.678 367.341 C 13.754 367.879,14.137 368.248,14.700 368.328 C 15.439 368.433,15.600 368.708,15.600 369.865 C 15.600 370.938,15.791 371.325,16.400 371.484 C 16.918 371.619,17.200 372.030,17.200 372.647 C 17.200 373.397,17.413 373.600,18.200 373.600 C 19.000 373.600,19.200 373.800,19.200 374.600 C 19.200 375.314,19.416 375.600,19.955 375.600 C 20.507 375.600,20.784 375.991,20.982 377.044 C 21.160 377.995,21.518 378.558,22.026 378.691 C 22.452 378.802,22.800 379.237,22.800 379.657 C 22.800 380.103,23.216 380.578,23.800 380.800 C 24.350 381.009,24.800 381.455,24.800 381.790 C 24.800 382.126,24.971 382.400,25.179 382.400 C 25.388 382.400,26.044 382.850,26.638 383.400 C 27.265 383.981,28.195 384.400,28.858 384.400 C 29.809 384.400,30.000 384.567,30.000 385.400 C 30.000 386.113,30.216 386.400,30.753 386.400 C 31.170 386.400,31.600 386.757,31.716 387.200 C 31.831 387.640,32.259 388.000,32.668 388.000 C 33.076 388.000,33.588 388.405,33.805 388.900 C 34.200 389.800,34.329 389.856,36.200 389.950 C 36.897 389.985,37.200 390.230,37.200 390.757 C 37.200 391.230,37.574 391.607,38.200 391.764 C 38.750 391.902,39.200 392.263,39.200 392.565 C 39.200 393.225,40.065 393.600,41.586 393.600 C 42.349 393.600,42.770 393.842,42.905 394.357 C 43.041 394.878,43.615 395.200,44.751 395.392 C 45.698 395.552,46.400 395.892,46.400 396.192 C 46.400 396.827,47.284 397.200,48.786 397.200 C 49.540 397.200,49.970 397.442,50.100 397.939 C 50.298 398.697,51.875 399.200,54.050 399.200 C 54.682 399.200,55.200 399.380,55.200 399.600 C 55.200 399.866,104.600 400.000,202.600 400.000 C 300.600 400.000,350.000 399.866,350.000 399.600 C 350.000 399.380,350.517 399.200,351.150 399.200 C 353.325 399.200,354.902 398.697,355.100 397.939 C 355.246 397.383,355.672 397.200,356.824 397.200 C 357.866 397.200,358.522 396.961,358.879 396.452 C 359.171 396.034,360.154 395.577,361.101 395.417 C 362.407 395.196,362.800 394.953,362.800 394.365 C 362.800 393.760,363.088 393.600,364.177 393.600 C 365.059 393.600,365.743 393.335,366.077 392.863 C 366.365 392.458,367.005 391.912,367.500 391.649 C 367.995 391.387,368.400 390.908,368.400 390.586 C 368.400 390.215,368.803 389.998,369.500 389.994 C 370.797 389.987,371.364 389.656,371.717 388.700 C 371.859 388.315,372.341 388.000,372.787 388.000 C 373.324 388.000,373.600 387.737,373.600 387.228 C 373.600 386.732,373.922 386.410,374.500 386.328 C 375.078 386.246,375.446 385.878,375.528 385.300 C 375.607 384.745,375.951 384.381,376.428 384.350 C 377.911 384.254,378.068 384.196,378.532 383.565 C 378.790 383.216,379.405 382.715,379.900 382.451 C 380.395 382.188,380.800 381.708,380.800 381.386 C 380.800 381.064,381.064 380.800,381.386 380.800 C 381.708 380.800,382.188 380.395,382.451 379.900 C 382.715 379.405,383.216 378.790,383.565 378.532 C 384.196 378.068,384.254 377.911,384.350 376.428 C 384.381 375.951,384.745 375.607,385.300 375.528 C 385.878 375.446,386.246 375.078,386.328 374.500 C 386.410 373.922,386.732 373.600,387.228 373.600 C 387.737 373.600,388.000 373.324,388.000 372.787 C 388.000 372.341,388.315 371.859,388.700 371.717 C 389.656 371.364,389.987 370.797,389.994 369.500 C 389.998 368.803,390.215 368.400,390.586 368.400 C 390.908 368.400,391.387 367.995,391.649 367.500 C 391.912 367.005,392.458 366.365,392.863 366.077 C 393.330 365.746,393.600 365.060,393.600 364.204 C 393.600 363.230,393.811 362.787,394.358 362.613 C 394.840 362.460,395.217 361.836,395.392 360.900 C 395.544 360.090,396.013 359.186,396.434 358.891 C 396.931 358.543,397.200 357.881,397.200 357.004 C 397.200 356.036,397.412 355.587,397.949 355.416 C 398.697 355.179,399.186 353.485,399.196 351.100 C 399.198 350.495,399.380 350.000,399.600 350.000 C 400.138 350.000,400.156 55.721,399.619 55.533 C 399.409 55.460,399.144 54.435,399.029 53.256 C 398.888 51.804,398.565 50.890,398.028 50.424 C 397.547 50.007,397.194 49.134,397.131 48.208 C 397.060 47.149,396.815 46.624,396.332 46.498 C 395.862 46.375,395.551 45.746,395.373 44.558 C 395.168 43.195,394.940 42.800,394.355 42.800 C 393.779 42.800,393.600 42.509,393.600 41.574 C 393.600 40.132,392.917 38.680,392.392 39.005 C 392.189 39.130,391.909 38.775,391.768 38.216 C 391.608 37.576,391.233 37.200,390.757 37.200 C 390.230 37.200,389.985 36.897,389.950 36.200 C 389.856 34.329,389.800 34.200,388.900 33.805 C 388.405 33.588,388.000 33.076,388.000 32.668 C 388.000 32.259,387.640 31.831,387.200 31.716 C 386.757 31.600,386.400 31.170,386.400 30.753 C 386.400 30.216,386.113 30.000,385.400 30.000 C 384.567 30.000,384.400 29.809,384.400 28.858 C 384.400 28.195,383.981 27.265,383.400 26.638 C 382.850 26.044,382.400 25.388,382.400 25.179 C 382.400 24.971,382.126 24.800,381.790 24.800 C 381.455 24.800,381.009 24.350,380.800 23.800 C 380.578 23.216,380.103 22.800,379.657 22.800 C 379.237 22.800,378.802 22.452,378.691 22.026 C 378.559 21.522,377.998 21.161,377.081 20.989 C 376.173 20.818,375.603 20.454,375.474 19.962 C 375.358 19.519,374.925 19.200,374.437 19.200 C 373.811 19.200,373.600 18.948,373.600 18.200 C 373.600 17.413,373.397 17.200,372.647 17.200 C 372.030 17.200,371.619 16.918,371.484 16.400 C 371.325 15.791,370.938 15.600,369.865 15.600 C 368.708 15.600,368.433 15.439,368.328 14.700 C 368.248 14.137,367.879 13.754,367.341 13.678 C 366.868 13.610,366.390 13.205,366.278 12.778 C 366.133 12.222,365.727 12.000,364.853 12.000 C 364.107 12.000,363.310 11.655,362.805 11.114 C 362.351 10.626,361.401 10.161,360.693 10.080 C 359.514 9.946,359.022 9.594,358.690 8.649 C 358.577 8.328,357.916 8.190,355.833 8.051 C 355.412 8.023,355.185 7.882,355.330 7.737 C 356.006 7.061,354.563 6.400,352.412 6.400 C 350.442 6.400,350.068 6.278,349.732 5.524 C 349.331 4.627,349.126 4.583,344.747 4.454 C 343.257 4.411,342.852 4.243,342.685 3.602 C 342.354 2.338,63.247 2.334,62.916 3.599 M337.200 11.675 C 338.410 12.038,340.390 12.459,341.600 12.611 C 342.810 12.764,344.520 13.208,345.400 13.600 C 346.280 13.991,347.755 14.435,348.677 14.587 C 349.599 14.738,350.566 15.118,350.826 15.431 C 351.086 15.744,351.489 16.000,351.723 16.000 C 351.956 16.000,352.879 16.346,353.774 16.770 C 354.668 17.193,356.030 17.829,356.800 18.184 C 357.570 18.538,358.920 19.265,359.800 19.798 C 360.680 20.332,361.922 21.064,362.559 21.425 C 365.353 23.008,369.761 26.636,374.079 30.905 C 378.982 35.754,380.879 38.113,384.450 43.800 C 385.141 44.900,386.017 46.253,386.397 46.808 C 386.777 47.362,387.225 48.250,387.394 48.780 C 387.562 49.311,388.037 50.297,388.448 50.972 C 388.860 51.648,389.203 52.470,389.211 52.800 C 389.219 53.130,389.668 54.300,390.209 55.400 C 390.750 56.500,391.194 57.709,391.196 58.086 C 391.198 58.464,391.462 59.364,391.783 60.086 C 392.103 60.809,392.868 63.920,393.483 67.000 L 394.600 72.600 394.600 202.600 L 394.600 332.600 393.662 337.400 C 392.603 342.818,391.104 348.223,390.002 350.600 C 389.595 351.480,389.159 352.560,389.035 353.000 C 388.911 353.440,388.267 354.790,387.605 356.000 C 386.942 357.210,386.128 358.785,385.795 359.500 C 385.462 360.214,384.273 362.104,383.152 363.700 C 382.032 365.295,380.776 367.140,380.362 367.800 C 379.106 369.803,368.332 380.085,365.579 381.908 C 364.161 382.847,362.280 384.089,361.400 384.668 C 359.027 386.229,353.198 389.200,352.509 389.200 C 352.179 389.200,351.254 389.542,350.454 389.960 C 348.458 391.002,344.088 392.324,340.224 393.053 C 338.451 393.388,336.010 393.873,334.800 394.131 C 333.143 394.484,300.584 394.600,202.800 394.600 L 73.000 394.600 68.000 393.653 C 65.250 393.131,62.190 392.444,61.200 392.124 C 60.210 391.805,58.500 391.309,57.400 391.022 C 56.300 390.735,54.860 390.220,54.200 389.878 C 53.540 389.535,51.650 388.607,50.000 387.816 C 46.196 385.991,41.888 383.589,40.935 382.761 C 40.531 382.410,39.355 381.553,38.322 380.857 C 35.634 379.046,26.457 369.816,24.368 366.824 C 23.396 365.430,21.924 363.189,21.099 361.845 C 20.273 360.500,19.424 359.130,19.213 358.800 C 17.883 356.729,14.916 349.795,14.341 347.416 C 14.130 346.544,13.795 345.634,13.595 345.394 C 13.395 345.153,12.952 343.346,12.610 341.378 C 12.269 339.410,11.767 337.170,11.495 336.400 C 10.625 333.938,10.788 71.768,11.662 68.600 C 12.026 67.280,12.444 65.300,12.590 64.200 C 13.157 59.953,16.047 52.451,19.525 46.200 C 20.091 45.182,22.872 40.869,25.252 37.315 C 25.611 36.780,28.410 33.880,31.472 30.871 C 36.620 25.813,38.365 24.420,44.400 20.554 C 47.034 18.867,52.860 16.000,53.656 16.000 C 53.967 16.000,54.577 15.759,55.011 15.465 C 56.063 14.753,62.143 12.880,64.400 12.573 C 65.390 12.438,66.812 12.141,67.561 11.913 C 68.309 11.685,69.839 11.362,70.961 11.196 C 75.667 10.500,334.833 10.966,337.200 11.675 M150.502 124.790 C 149.789 124.959,148.979 125.281,148.702 125.504 C 148.426 125.728,147.088 126.037,145.730 126.191 C 144.072 126.379,143.032 126.723,142.568 127.236 C 142.187 127.656,141.371 128.000,140.754 128.000 C 140.136 128.000,139.309 128.338,138.916 128.750 C 138.522 129.163,137.804 129.622,137.319 129.771 C 135.998 130.177,130.071 136.177,129.757 137.427 C 129.607 138.026,129.150 138.850,128.742 139.258 C 128.334 139.666,128.000 140.294,128.000 140.653 C 128.000 141.012,127.633 141.899,127.184 142.625 C 126.736 143.351,126.258 144.902,126.122 146.072 C 125.986 147.243,125.588 148.642,125.237 149.182 C 124.227 150.739,124.267 254.411,125.278 256.200 C 125.651 256.860,126.067 258.417,126.202 259.659 C 126.364 261.154,126.710 262.157,127.224 262.621 C 127.692 263.046,128.000 263.845,128.000 264.639 C 128.000 265.466,128.276 266.149,128.743 266.477 C 129.151 266.765,129.621 267.450,129.786 268.000 C 129.952 268.550,130.431 269.360,130.850 269.800 C 135.236 274.404,136.513 275.513,137.806 275.837 C 138.321 275.967,138.838 276.323,138.956 276.629 C 139.073 276.935,139.896 277.302,140.785 277.444 C 141.673 277.586,142.400 277.837,142.400 278.003 C 142.400 278.448,144.354 279.105,146.400 279.346 C 147.390 279.463,148.830 279.883,149.600 280.280 C 151.791 281.407,253.801 281.398,256.067 280.270 C 256.874 279.868,258.568 279.400,259.830 279.228 C 261.092 279.057,262.322 278.650,262.563 278.325 C 262.803 277.999,263.700 277.620,264.555 277.483 C 265.411 277.345,266.453 276.865,266.871 276.416 C 267.289 275.967,267.869 275.600,268.159 275.600 C 268.895 275.600,275.600 269.020,275.600 268.297 C 275.600 267.973,275.949 267.264,276.375 266.722 C 276.802 266.180,277.276 265.211,277.429 264.568 C 277.582 263.926,277.959 263.110,278.266 262.755 C 278.573 262.401,278.995 261.060,279.204 259.776 C 279.413 258.493,279.902 256.803,280.292 256.021 C 281.405 253.788,281.384 180.572,280.270 178.333 C 279.868 177.526,279.400 175.832,279.228 174.570 C 279.057 173.308,278.650 172.078,278.325 171.837 C 277.999 171.597,277.620 170.700,277.483 169.845 C 277.345 168.989,276.865 167.947,276.416 167.529 C 275.967 167.111,275.600 166.540,275.600 166.259 C 275.600 165.408,269.440 159.242,268.136 158.787 L 266.917 158.362 266.705 150.866 C 266.517 144.242,266.394 143.186,265.646 141.791 C 265.181 140.922,264.800 139.828,264.800 139.360 C 264.800 138.891,264.465 138.079,264.055 137.554 C 263.645 137.029,263.190 136.215,263.042 135.745 C 262.895 135.274,262.319 134.374,261.763 133.745 C 259.205 130.849,258.352 130.000,258.004 130.000 C 257.797 130.000,257.443 129.654,257.217 129.232 C 256.991 128.810,256.191 128.261,255.438 128.013 C 254.686 127.764,253.973 127.307,253.854 126.997 C 253.729 126.671,252.783 126.319,251.619 126.165 C 250.508 126.017,249.600 125.758,249.600 125.588 C 249.600 124.486,245.884 124.401,199.440 124.441 C 173.238 124.463,151.216 124.621,150.502 124.790 M248.400 125.826 C 256.716 128.345,263.377 134.594,264.573 141.000 C 264.737 141.880,265.052 142.818,265.272 143.084 C 265.765 143.681,266.367 150.143,266.386 155.051 C 266.400 158.664,266.412 158.708,267.514 159.165 C 270.144 160.254,276.388 167.539,277.042 170.280 C 277.189 170.896,277.552 171.850,277.850 172.400 C 280.310 176.944,280.859 186.502,280.687 221.800 L 280.545 251.000 279.467 255.864 C 278.875 258.539,278.123 261.239,277.798 261.864 C 277.472 262.489,277.204 263.219,277.202 263.486 C 277.186 266.755,268.196 276.070,264.120 277.042 C 263.504 277.189,262.550 277.552,262.000 277.850 C 260.207 278.821,253.121 280.087,247.400 280.459 C 236.982 281.136,154.173 280.674,151.600 279.924 C 150.390 279.572,148.590 279.166,147.600 279.023 C 141.403 278.128,132.557 272.213,130.042 267.283 C 129.585 266.387,129.029 265.541,128.806 265.404 C 128.583 265.266,128.400 264.794,128.400 264.357 C 128.400 263.919,128.098 262.984,127.728 262.280 C 127.075 261.037,125.906 256.078,125.210 251.600 C 124.525 247.198,124.733 155.329,125.434 152.400 C 125.776 150.970,126.216 148.843,126.412 147.673 C 127.729 139.785,136.599 128.400,141.426 128.400 C 141.864 128.400,142.609 128.129,143.081 127.798 C 143.861 127.252,149.026 125.981,153.600 125.210 C 154.590 125.043,175.560 124.882,200.200 124.852 L 245.000 124.796 248.400 125.826 M152.000 137.012 C 145.596 138.371,139.654 141.791,139.587 144.157 C 139.581 144.401,139.132 145.500,138.591 146.600 C 138.050 147.700,137.606 149.066,137.604 149.636 C 137.602 150.206,137.291 151.556,136.914 152.636 C 136.283 154.440,136.217 158.407,136.101 201.368 L 135.975 248.137 136.994 253.168 C 138.831 262.238,142.800 266.850,149.600 267.815 C 150.590 267.956,152.300 268.370,153.400 268.735 C 156.137 269.645,247.387 269.762,251.400 268.861 C 252.720 268.565,254.700 268.144,255.800 267.925 C 264.346 266.228,268.052 260.348,269.237 246.600 C 269.772 240.396,269.469 185.266,268.887 183.000 C 268.662 182.120,268.263 180.320,268.001 179.000 C 266.634 172.102,261.862 167.496,254.939 166.390 C 253.554 166.169,251.921 165.783,251.310 165.533 C 250.564 165.227,243.771 164.993,230.600 164.820 L 211.000 164.562 208.734 163.501 C 206.222 162.325,202.161 158.459,199.200 154.425 C 198.210 153.076,196.860 151.270,196.200 150.411 C 195.540 149.553,194.280 147.846,193.400 146.619 C 189.867 141.692,186.899 138.317,185.195 137.287 L 183.400 136.202 170.000 136.119 C 157.148 136.039,156.412 136.076,152.000 137.012 M200.510 136.253 C 200.019 136.461,200.600 137.714,201.877 139.200 C 202.451 139.868,205.745 144.171,207.478 146.518 C 209.909 149.808,212.444 152.795,213.105 153.148 C 213.488 153.352,222.321 153.601,232.800 153.703 C 244.427 153.817,252.292 154.051,253.067 154.307 C 254.922 154.919,255.423 153.538,254.874 149.320 C 254.050 142.986,251.825 139.447,247.317 137.302 L 245.000 136.200 223.000 136.123 C 210.900 136.081,200.780 136.140,200.510 136.253 M182.600 137.200 C 183.463 137.640,184.446 138.001,184.785 138.002 C 185.434 138.004,187.257 139.648,188.600 141.443 C 189.040 142.031,189.780 142.892,190.244 143.356 C 190.709 143.820,191.202 144.560,191.341 145.000 C 191.480 145.440,192.315 146.588,193.197 147.551 C 194.079 148.513,194.800 149.448,194.800 149.628 C 194.800 149.808,195.159 150.206,195.599 150.514 C 196.038 150.822,196.597 151.646,196.841 152.345 C 197.085 153.045,197.625 153.799,198.042 154.023 C 198.459 154.246,198.800 154.685,198.800 155.000 C 198.800 155.315,199.160 155.765,199.600 156.000 C 200.040 156.235,200.400 156.685,200.400 157.000 C 200.400 157.315,200.748 157.758,201.173 157.986 C 201.598 158.213,202.060 158.759,202.200 159.200 C 202.340 159.640,202.700 160.000,203.000 160.000 C 203.300 160.000,203.660 160.360,203.800 160.800 C 203.940 161.240,204.305 161.600,204.613 161.600 C 204.920 161.600,205.363 161.958,205.597 162.395 C 205.832 162.833,206.513 163.312,207.112 163.462 C 207.710 163.611,208.410 164.018,208.667 164.366 C 209.079 164.924,211.422 165.024,228.267 165.201 C 241.751 165.342,247.639 165.539,248.211 165.867 C 248.657 166.123,250.907 166.557,253.211 166.831 C 256.062 167.170,257.705 167.564,258.354 168.065 C 258.879 168.469,259.644 168.800,260.054 168.800 C 260.464 168.800,261.160 169.160,261.600 169.600 C 262.040 170.040,262.559 170.400,262.753 170.400 C 263.299 170.400,265.193 173.055,265.678 174.501 C 265.917 175.215,266.350 176.076,266.640 176.413 C 266.930 176.750,267.289 178.550,267.438 180.413 C 267.588 182.276,268.000 184.340,268.355 185.000 C 269.184 186.543,269.355 246.783,268.534 248.211 C 268.277 248.657,267.843 250.907,267.569 253.211 C 267.230 256.062,266.836 257.705,266.335 258.354 C 265.931 258.879,265.600 259.644,265.600 260.054 C 265.600 260.464,265.254 261.146,264.830 261.570 C 264.407 261.993,263.861 262.713,263.616 263.170 C 263.372 263.626,262.927 264.000,262.629 264.000 C 262.330 264.000,261.989 264.252,261.871 264.560 C 261.753 264.868,260.968 265.340,260.128 265.610 C 259.288 265.880,258.324 266.341,257.987 266.634 C 257.649 266.928,255.854 267.289,253.987 267.438 C 252.124 267.588,250.060 268.000,249.400 268.355 C 247.853 269.186,158.824 269.359,157.389 268.534 C 156.943 268.277,154.693 267.843,152.389 267.569 C 149.671 267.246,147.885 266.828,147.303 266.381 C 146.810 266.001,145.775 265.572,145.003 265.427 C 144.232 265.282,143.600 264.988,143.600 264.773 C 143.600 264.559,143.150 264.178,142.600 263.927 C 142.050 263.677,141.600 263.241,141.600 262.958 C 141.600 262.676,141.264 262.210,140.854 261.923 C 140.443 261.635,139.979 260.813,139.821 260.096 C 139.664 259.379,139.271 258.528,138.949 258.207 C 138.595 257.852,138.207 256.160,137.964 253.911 C 137.743 251.870,137.346 249.840,137.082 249.400 C 136.255 248.027,136.189 159.328,137.013 156.901 C 137.358 155.886,137.786 153.464,137.966 151.519 C 138.180 149.195,138.515 147.736,138.941 147.265 C 139.298 146.870,139.706 145.968,139.848 145.260 C 139.990 144.551,140.442 143.792,140.853 143.572 C 141.264 143.352,141.600 142.915,141.600 142.600 C 141.600 142.285,142.005 141.816,142.500 141.556 C 142.995 141.296,143.544 140.839,143.720 140.542 C 143.896 140.244,144.238 140.000,144.481 140.000 C 144.724 140.000,145.840 139.573,146.961 139.051 C 148.211 138.470,150.161 138.001,152.000 137.841 C 153.650 137.697,155.720 137.322,156.600 137.008 C 159.416 136.000,180.553 136.156,182.600 137.200 M243.520 136.951 C 244.114 137.255,245.567 137.707,246.748 137.958 C 249.309 138.500,252.800 141.755,252.800 143.600 C 252.800 144.167,253.160 145.337,253.600 146.200 C 254.176 147.329,254.400 148.559,254.400 150.585 L 254.400 153.400 234.300 153.278 L 214.200 153.156 211.500 150.370 C 210.015 148.837,208.800 147.417,208.800 147.214 C 208.800 147.011,208.441 146.594,208.001 146.286 C 207.562 145.978,207.003 145.154,206.759 144.455 C 206.515 143.755,205.975 143.001,205.558 142.777 C 205.141 142.554,204.800 142.115,204.800 141.800 C 204.800 141.485,204.440 141.035,204.000 140.800 C 203.560 140.565,203.200 140.130,203.200 139.835 C 203.200 139.539,202.857 139.051,202.437 138.749 C 202.018 138.447,201.556 137.795,201.410 137.300 L 201.146 136.400 221.793 136.400 C 238.547 136.400,242.643 136.504,243.520 136.951 " stroke="none" fill="#9ca3ac" fill-rule="evenodd"></path><path id="path3" d="M156.711 125.093 C 157.651 125.178,159.091 125.177,159.911 125.091 C 160.730 125.005,159.960 124.936,158.200 124.937 C 156.440 124.939,155.770 125.009,156.711 125.093 M243.100 125.082 C 243.595 125.178,244.405 125.178,244.900 125.082 C 245.395 124.987,244.990 124.909,244.000 124.909 C 243.010 124.909,242.605 124.987,243.100 125.082 M150.600 125.846 C 149.030 126.398,149.026 126.404,150.400 126.159 C 153.832 125.549,154.715 125.292,153.400 125.288 C 152.740 125.286,151.480 125.537,150.600 125.846 M135.841 131.627 C 134.983 132.272,134.450 132.800,134.656 132.800 C 134.862 132.800,135.653 132.267,136.415 131.616 C 138.187 130.102,137.861 130.108,135.841 131.627 M258.800 131.800 C 259.546 132.570,260.247 133.200,260.357 133.200 C 260.467 133.200,259.946 132.570,259.200 131.800 C 258.454 131.030,257.753 130.400,257.643 130.400 C 257.533 130.400,258.054 131.030,258.800 131.800 M261.143 134.700 C 261.644 135.415,262.139 136.000,262.241 136.000 C 262.587 136.000,261.650 134.540,260.937 133.967 C 260.436 133.565,260.496 133.778,261.143 134.700 M131.800 135.489 C 130.405 137.343,130.258 137.852,131.535 136.400 C 132.213 135.630,132.775 134.865,132.784 134.700 C 132.809 134.228,132.656 134.351,131.800 135.489 M165.500 135.899 C 168.415 135.967,173.185 135.967,176.100 135.899 C 179.015 135.831,176.630 135.775,170.800 135.775 C 164.970 135.775,162.585 135.831,165.500 135.899 M211.528 135.900 C 217.318 135.962,226.678 135.962,232.328 135.900 C 237.978 135.837,233.240 135.786,221.800 135.786 C 210.360 135.786,205.738 135.837,211.528 135.900 M151.400 136.800 L 150.600 137.144 151.400 137.132 C 151.840 137.126,152.650 136.976,153.200 136.800 L 154.200 136.480 153.200 136.468 C 152.650 136.462,151.840 136.611,151.400 136.800 M184.000 136.584 C 184.000 136.694,184.693 137.137,185.540 137.569 C 186.387 138.001,187.774 139.265,188.622 140.377 C 190.075 142.283,190.810 143.014,190.152 141.900 C 188.767 139.555,184.000 135.436,184.000 136.584 M246.400 137.000 C 246.950 137.314,247.580 137.572,247.800 137.572 C 248.020 137.572,247.750 137.314,247.200 137.000 C 246.650 136.686,246.020 136.428,245.800 136.428 C 245.580 136.428,245.850 136.686,246.400 137.000 M262.402 136.479 C 262.401 136.632,262.850 137.604,263.400 138.638 C 263.950 139.673,264.394 140.267,264.388 139.960 C 264.375 139.402,262.406 135.949,262.402 136.479 M129.494 139.303 L 128.788 140.600 129.594 139.656 C 130.280 138.852,130.646 137.994,130.300 138.003 C 130.245 138.004,129.882 138.589,129.494 139.303 M251.591 140.388 C 252.057 141.041,252.642 141.702,252.891 141.856 C 253.141 142.011,252.841 141.476,252.225 140.668 C 250.888 138.915,250.384 138.692,251.591 140.388 M142.200 140.650 C 141.481 141.262,141.334 141.505,141.833 141.257 C 142.566 140.893,143.941 139.576,143.549 139.614 C 143.467 139.622,142.860 140.088,142.200 140.650 M127.593 143.472 C 126.693 145.807,126.695 145.929,127.607 144.272 C 128.070 143.431,128.388 142.564,128.315 142.344 C 128.241 142.124,127.916 142.631,127.593 143.472 M204.794 143.403 C 206.387 145.321,206.521 145.445,206.086 144.596 C 205.859 144.153,205.252 143.434,204.737 142.998 C 203.833 142.234,203.835 142.248,204.794 143.403 M253.628 144.200 C 253.628 144.420,253.886 145.050,254.200 145.600 C 254.514 146.150,254.772 146.420,254.772 146.200 C 254.772 145.980,254.514 145.350,254.200 144.800 C 253.886 144.250,253.628 143.980,253.628 144.200 M193.460 146.728 C 194.307 147.899,195.515 149.429,196.145 150.128 L 197.291 151.400 196.245 150.069 C 195.670 149.337,195.195 148.617,195.188 148.469 C 195.181 148.321,194.444 147.390,193.548 146.400 L 191.920 144.600 193.460 146.728 M138.279 146.374 C 137.906 147.006,137.600 147.759,137.600 148.046 C 137.600 148.334,137.957 147.868,138.394 147.012 C 139.333 145.171,139.253 144.726,138.279 146.374 M207.355 146.731 C 207.930 147.463,208.400 148.183,208.401 148.331 C 208.401 148.479,209.402 149.680,210.624 151.000 L 212.847 153.400 210.633 150.600 C 209.415 149.060,207.945 147.260,207.365 146.600 L 206.310 145.400 207.355 146.731 M254.909 148.400 C 254.909 149.390,254.987 149.795,255.082 149.300 C 255.178 148.805,255.178 147.995,255.082 147.500 C 254.987 147.005,254.909 147.410,254.909 148.400 M125.629 151.429 C 125.354 152.657,125.206 153.739,125.300 153.833 C 125.394 153.928,125.697 153.000,125.971 151.771 C 126.246 150.543,126.394 149.461,126.300 149.367 C 126.206 149.272,125.903 150.200,125.629 151.429 M266.150 154.200 C 266.151 156.620,266.216 157.558,266.296 156.285 C 266.376 155.012,266.375 153.032,266.294 151.885 C 266.214 150.738,266.149 151.780,266.150 154.200 M136.422 153.321 C 136.154 154.280,136.012 155.590,136.107 156.232 C 136.265 157.296,136.285 157.272,136.340 155.960 C 136.373 155.168,136.601 153.943,136.846 153.239 C 137.092 152.535,137.207 151.873,137.101 151.768 C 136.996 151.663,136.691 152.362,136.422 153.321 M197.535 152.200 C 197.774 152.640,198.626 153.720,199.430 154.600 L 200.891 156.200 199.377 154.200 C 197.528 151.757,196.963 151.144,197.535 152.200 M254.620 153.937 C 254.401 154.626,254.192 154.684,253.086 154.367 C 252.382 154.165,251.084 154.023,250.203 154.051 C 248.905 154.092,249.076 154.163,251.099 154.426 C 252.473 154.605,253.769 154.857,253.979 154.987 C 254.379 155.234,255.408 153.675,255.069 153.336 C 254.961 153.228,254.759 153.499,254.620 153.937 M222.500 153.900 C 227.065 153.964,234.535 153.964,239.100 153.900 C 243.665 153.835,239.930 153.783,230.800 153.783 C 221.670 153.783,217.935 153.835,222.500 153.900 M124.934 157.200 C 124.934 158.850,125.005 159.525,125.091 158.700 C 125.178 157.875,125.178 156.525,125.091 155.700 C 125.005 154.875,124.934 155.550,124.934 157.200 M201.624 157.700 C 201.941 157.975,202.543 158.560,202.962 159.000 C 203.522 159.588,203.488 159.455,202.835 158.500 C 202.346 157.785,201.743 157.200,201.496 157.200 C 201.232 157.200,201.284 157.406,201.624 157.700 M268.998 160.337 C 269.434 160.852,270.153 161.459,270.596 161.686 C 271.445 162.121,271.321 161.987,269.403 160.394 C 268.248 159.435,268.234 159.433,268.998 160.337 M135.793 202.800 C 135.793 226.230,135.841 235.815,135.900 224.100 C 135.959 212.385,135.959 193.215,135.900 181.500 C 135.841 169.785,135.793 179.370,135.793 202.800 M209.600 163.800 C 210.150 164.114,210.780 164.372,211.000 164.372 C 211.220 164.372,210.950 164.114,210.400 163.800 C 209.850 163.486,209.220 163.228,209.000 163.228 C 208.780 163.228,209.050 163.486,209.600 163.800 M273.043 164.327 C 273.459 165.057,274.148 165.957,274.574 166.327 C 275.024 166.718,274.866 166.331,274.196 165.400 C 272.593 163.174,272.150 162.761,273.043 164.327 M212.705 164.683 C 213.202 164.779,213.922 164.775,214.305 164.675 C 214.687 164.575,214.280 164.496,213.400 164.501 C 212.520 164.505,212.207 164.587,212.705 164.683 M246.300 165.089 C 247.015 165.178,248.185 165.178,248.900 165.089 C 249.615 165.001,249.030 164.928,247.600 164.928 C 246.170 164.928,245.585 165.001,246.300 165.089 M251.400 165.600 C 251.840 165.789,252.470 165.944,252.800 165.944 C 253.178 165.944,253.104 165.817,252.600 165.600 C 252.160 165.411,251.530 165.256,251.200 165.256 C 250.822 165.256,250.896 165.383,251.400 165.600 M259.000 167.600 C 259.660 168.037,260.380 168.395,260.600 168.396 C 260.820 168.396,260.411 168.038,259.690 167.599 C 257.992 166.563,257.436 166.564,259.000 167.600 M275.200 167.383 C 275.200 167.543,275.560 168.131,276.000 168.691 C 276.440 169.250,276.800 169.577,276.800 169.417 C 276.800 169.257,276.440 168.669,276.000 168.109 C 275.560 167.550,275.200 167.223,275.200 167.383 M277.200 171.678 C 277.200 171.805,277.469 172.424,277.798 173.054 C 278.126 173.684,278.390 173.930,278.385 173.600 C 278.379 173.270,278.110 172.651,277.787 172.224 C 277.464 171.796,277.200 171.551,277.200 171.678 M266.003 173.301 C 266.001 173.467,266.360 174.275,266.800 175.096 C 267.240 175.916,267.599 176.321,267.597 175.994 C 267.596 175.667,267.237 174.860,266.800 174.200 C 266.363 173.540,266.004 173.136,266.003 173.301 M268.236 180.000 C 268.825 183.252,269.106 184.241,269.148 183.200 C 269.170 182.650,268.917 181.390,268.585 180.400 C 268.093 178.928,268.029 178.855,268.236 180.000 M279.443 180.000 C 279.587 180.770,279.836 182.210,279.998 183.200 C 280.274 184.884,280.296 184.910,280.340 183.600 C 280.367 182.830,280.117 181.390,279.785 180.400 C 279.300 178.951,279.234 178.873,279.443 180.000 M269.328 187.200 C 269.328 188.630,269.401 189.215,269.489 188.500 C 269.578 187.785,269.578 186.615,269.489 185.900 C 269.401 185.185,269.328 185.770,269.328 187.200 M280.590 218.000 C 280.590 233.950,280.639 240.475,280.700 232.500 C 280.760 224.525,280.760 211.475,280.700 203.500 C 280.639 195.525,280.590 202.050,280.590 218.000 M124.934 247.200 C 124.934 248.850,125.005 249.525,125.091 248.700 C 125.178 247.875,125.178 246.525,125.091 245.700 C 125.005 244.875,124.934 245.550,124.934 247.200 M269.328 247.200 C 269.328 248.630,269.401 249.215,269.489 248.500 C 269.578 247.785,269.578 246.615,269.489 245.900 C 269.401 245.185,269.328 245.770,269.328 247.200 M280.109 250.400 C 280.109 251.390,280.187 251.795,280.282 251.300 C 280.378 250.805,280.378 249.995,280.282 249.500 C 280.187 249.005,280.109 249.410,280.109 250.400 M268.629 251.829 C 268.481 252.415,268.438 252.972,268.532 253.066 C 268.627 253.160,268.824 252.758,268.971 252.171 C 269.119 251.585,269.162 251.028,269.068 250.934 C 268.973 250.840,268.776 251.242,268.629 251.829 M125.206 252.233 C 125.209 252.875,125.384 253.670,125.595 254.000 C 125.855 254.409,125.899 254.090,125.732 253.000 C 125.429 251.023,125.198 250.686,125.206 252.233 M136.428 252.033 C 136.444 252.565,136.619 253.360,136.819 253.800 C 137.071 254.358,137.107 254.115,136.938 253.000 C 136.655 251.143,136.387 250.636,136.428 252.033 M279.422 253.822 C 279.272 254.625,279.228 255.362,279.326 255.460 C 279.424 255.557,279.627 254.981,279.778 254.178 C 279.928 253.375,279.972 252.638,279.874 252.540 C 279.776 252.443,279.573 253.019,279.422 253.822 M266.679 259.174 C 266.306 259.806,266.001 260.476,266.001 260.662 C 266.002 260.848,266.372 260.395,266.823 259.655 C 267.274 258.915,267.579 258.246,267.501 258.167 C 267.422 258.089,267.052 258.542,266.679 259.174 M138.003 258.890 C 138.001 259.050,138.359 259.770,138.799 260.490 C 139.238 261.211,139.596 261.620,139.596 261.400 C 139.595 261.180,139.237 260.460,138.800 259.800 C 138.363 259.140,138.004 258.731,138.003 258.890 M126.826 260.000 C 126.833 260.587,128.350 263.649,128.383 263.144 C 128.392 263.003,128.044 262.103,127.609 261.144 C 127.174 260.185,126.821 259.670,126.826 260.000 M139.600 262.125 C 139.600 262.194,140.185 262.779,140.900 263.425 L 142.200 264.600 141.025 263.300 C 139.930 262.088,139.600 261.816,139.600 262.125 M276.200 264.934 C 275.012 267.383,275.011 267.600,276.197 265.689 C 276.781 264.747,277.201 263.821,277.130 263.631 C 277.058 263.441,276.640 264.027,276.200 264.934 M128.406 264.476 C 128.403 264.848,128.583 265.266,128.806 265.404 C 129.029 265.541,129.591 266.398,130.054 267.306 C 130.921 269.006,136.877 275.200,137.644 275.200 C 137.880 275.200,137.108 274.413,135.927 273.452 C 133.605 271.560,131.364 268.995,130.159 266.848 C 128.458 263.817,128.412 263.755,128.406 264.476 M259.206 266.823 C 258.440 267.250,258.080 267.599,258.406 267.597 C 258.733 267.596,259.540 267.237,260.200 266.800 C 261.731 265.786,261.038 265.802,259.206 266.823 M273.975 268.900 C 272.532 270.731,272.103 271.640,273.361 270.200 C 274.378 269.038,275.347 267.600,275.114 267.600 C 275.051 267.600,274.539 268.185,273.975 268.900 M152.000 268.621 C 152.990 268.933,153.980 269.177,154.200 269.163 C 154.900 269.121,151.834 268.061,151.000 268.057 C 150.560 268.055,151.010 268.309,152.000 268.621 M253.922 268.211 C 253.806 268.328,252.921 268.578,251.955 268.768 C 250.593 269.035,250.469 269.115,251.400 269.126 C 252.644 269.140,255.888 268.084,254.767 268.030 C 254.418 268.014,254.038 268.095,253.922 268.211 M156.700 269.489 C 157.415 269.578,158.585 269.578,159.300 269.489 C 160.015 269.401,159.430 269.328,158.000 269.328 C 156.570 269.328,155.985 269.401,156.700 269.489 M245.900 269.489 C 246.615 269.578,247.785 269.578,248.500 269.489 C 249.215 269.401,248.630 269.328,247.200 269.328 C 245.770 269.328,245.185 269.401,245.900 269.489 M269.260 273.603 C 268.347 274.264,267.600 274.903,267.600 275.023 C 267.600 275.211,269.854 273.677,270.980 272.722 C 271.927 271.919,270.756 272.518,269.260 273.603 M265.656 276.013 C 264.416 277.046,264.975 277.035,266.291 276.000 C 266.850 275.560,267.149 275.206,266.954 275.213 C 266.759 275.221,266.175 275.581,265.656 276.013 M144.000 278.000 C 144.770 278.422,145.670 278.770,146.000 278.774 C 146.330 278.779,145.815 278.426,144.856 277.991 C 142.650 276.990,142.165 276.995,144.000 278.000 M261.200 277.800 C 260.620 278.132,260.452 278.372,260.800 278.373 C 261.130 278.374,261.749 278.110,262.176 277.787 C 263.164 277.040,262.515 277.048,261.200 277.800 M150.800 279.617 C 151.350 279.854,152.970 280.117,154.400 280.201 C 156.814 280.343,156.857 280.332,155.000 280.045 C 153.900 279.875,152.280 279.612,151.400 279.461 C 150.044 279.227,149.952 279.251,150.800 279.617 M253.893 279.441 C 253.761 279.573,252.696 279.820,251.526 279.991 C 249.854 280.234,249.699 280.310,250.800 280.344 C 251.570 280.368,253.010 280.133,254.000 279.821 C 254.990 279.509,255.425 279.241,254.967 279.227 C 254.508 279.212,254.025 279.308,253.893 279.441 M180.131 280.700 C 192.193 280.759,211.813 280.759,223.731 280.700 C 235.649 280.641,225.780 280.593,201.800 280.593 C 177.820 280.593,168.069 280.641,180.131 280.700 " stroke="none" fill="#7c7c8c" fill-rule="evenodd"></path><path id="path4" d="M157.190 125.192 C 154.874 125.350,152.354 125.672,151.590 125.908 C 150.825 126.144,148.940 126.543,147.400 126.794 C 145.860 127.045,144.237 127.485,143.794 127.773 C 143.351 128.060,142.387 128.427,141.651 128.589 C 138.633 129.252,132.011 134.866,130.550 138.000 C 130.192 138.770,129.678 139.670,129.410 140.000 C 129.141 140.330,128.645 141.410,128.307 142.400 C 127.969 143.390,127.500 144.740,127.266 145.400 C 126.496 147.567,125.544 153.314,125.146 158.200 C 124.583 165.109,124.943 250.021,125.545 252.400 C 125.796 253.390,126.260 255.584,126.577 257.275 C 126.895 258.967,127.409 260.857,127.721 261.475 C 128.033 262.094,128.405 263.090,128.549 263.690 C 129.286 266.765,136.570 275.200,138.489 275.200 C 138.736 275.200,139.234 275.469,139.596 275.797 C 140.708 276.803,144.561 278.045,151.000 279.471 C 154.688 280.289,245.532 280.813,250.530 280.046 C 267.028 277.515,272.711 273.621,277.746 261.400 C 278.395 259.826,279.281 255.512,280.005 250.400 C 280.465 247.155,280.465 186.132,280.005 183.400 C 278.970 177.257,278.243 174.018,277.563 172.522 C 277.143 171.599,276.800 170.588,276.800 170.276 C 276.800 169.963,276.440 169.250,276.000 168.691 C 275.560 168.131,275.200 167.569,275.200 167.440 C 275.200 166.407,270.040 160.988,267.500 159.355 L 266.000 158.390 265.983 152.895 C 265.965 147.242,265.806 146.057,264.470 141.600 C 262.835 136.141,256.828 128.400,254.228 128.400 C 253.937 128.400,253.478 128.135,253.209 127.811 C 252.940 127.486,252.063 127.100,251.260 126.951 C 250.457 126.802,248.810 126.305,247.600 125.846 C 245.295 124.971,168.584 124.416,157.190 125.192 M245.600 126.062 C 246.370 126.426,247.900 126.855,249.000 127.016 C 250.100 127.176,251.478 127.643,252.062 128.054 C 252.646 128.464,253.433 128.800,253.812 128.800 C 254.738 128.800,262.000 136.201,262.000 137.145 C 262.000 137.556,262.332 138.321,262.737 138.846 C 263.142 139.371,263.695 140.970,263.966 142.400 C 264.237 143.830,264.715 145.771,265.029 146.714 C 265.405 147.841,265.600 150.182,265.600 153.555 L 265.600 158.682 267.966 160.541 C 270.185 162.284,274.800 167.160,274.800 167.761 C 274.800 167.910,275.143 168.520,275.563 169.116 C 275.982 169.712,276.445 170.920,276.592 171.800 C 276.739 172.680,277.125 173.812,277.449 174.315 C 277.773 174.819,278.199 176.637,278.395 178.355 C 278.591 180.073,279.041 182.912,279.396 184.662 C 280.251 188.883,280.155 249.579,279.291 251.091 C 279.010 251.582,278.617 253.714,278.417 255.831 C 278.197 258.161,277.823 259.939,277.471 260.339 C 277.151 260.703,276.756 261.630,276.592 262.400 C 276.429 263.170,275.959 264.229,275.548 264.754 C 275.137 265.279,274.800 266.053,274.800 266.474 C 274.800 267.256,267.527 274.800,266.773 274.800 C 266.550 274.800,265.880 275.143,265.284 275.563 C 264.688 275.982,263.480 276.445,262.600 276.592 C 261.720 276.739,260.588 277.125,260.085 277.449 C 259.581 277.773,257.763 278.199,256.045 278.395 C 254.327 278.591,251.498 279.039,249.760 279.390 C 245.656 280.220,156.018 280.155,154.566 279.321 C 154.107 279.058,151.972 278.662,149.821 278.442 C 147.452 278.200,145.651 277.810,145.255 277.455 C 144.895 277.132,143.880 276.736,143.000 276.576 C 142.120 276.415,140.971 275.950,140.446 275.542 C 139.921 275.134,139.273 274.800,139.004 274.800 C 138.736 274.800,138.075 274.395,137.536 273.900 C 136.996 273.405,135.935 272.457,135.177 271.793 C 132.252 269.231,129.448 265.147,128.674 262.323 C 128.355 261.156,127.904 259.660,127.673 259.000 C 127.092 257.338,125.998 250.238,125.548 245.200 C 124.981 238.860,125.346 157.888,125.951 155.600 C 126.214 154.610,126.658 152.064,126.940 149.943 C 127.222 147.812,127.753 145.626,128.126 145.057 C 128.497 144.491,128.800 143.596,128.800 143.068 C 128.800 142.540,129.149 141.664,129.575 141.122 C 130.002 140.580,130.471 139.658,130.618 139.072 C 131.017 137.483,137.318 131.192,139.063 130.642 C 139.538 130.492,140.020 130.124,140.135 129.825 C 140.250 129.525,141.122 129.154,142.072 129.001 C 143.022 128.848,144.520 128.400,145.400 128.006 C 147.018 127.280,153.137 126.214,159.000 125.637 C 165.957 124.951,244.062 125.335,245.600 126.062 M153.316 135.581 C 151.950 135.743,150.591 136.075,150.296 136.320 C 150.001 136.565,148.959 136.881,147.980 137.022 C 147.001 137.164,145.712 137.622,145.116 138.040 C 144.520 138.458,143.844 138.800,143.614 138.800 C 142.980 138.800,139.280 142.716,138.966 143.719 C 138.814 144.204,138.375 145.003,137.991 145.495 C 137.607 145.988,137.172 147.195,137.024 148.178 C 136.877 149.161,136.451 150.558,136.078 151.282 C 135.043 153.293,135.031 252.872,136.065 254.451 C 136.431 255.009,136.858 256.352,137.012 257.433 C 137.380 260.002,139.445 263.211,142.266 265.596 C 143.446 266.593,147.343 268.397,148.320 268.398 C 148.826 268.399,149.816 268.715,150.520 269.100 C 152.629 270.253,251.916 270.385,254.708 269.238 C 255.749 268.811,257.310 268.343,258.179 268.198 C 259.047 268.053,260.196 267.589,260.733 267.167 C 261.269 266.745,261.921 266.400,262.180 266.400 C 262.768 266.400,265.969 262.775,266.690 261.294 C 266.983 260.692,267.485 259.750,267.805 259.200 C 268.126 258.650,268.391 257.834,268.394 257.386 C 268.397 256.939,268.760 255.548,269.200 254.296 C 270.442 250.761,270.434 182.396,269.191 179.656 C 268.756 178.697,268.397 177.437,268.394 176.856 C 268.391 176.275,268.128 175.350,267.810 174.800 C 267.492 174.250,267.012 173.350,266.743 172.800 C 266.169 171.627,262.403 168.004,261.754 168.002 C 261.509 168.001,260.848 167.638,260.285 167.196 C 259.723 166.753,258.344 166.217,257.221 166.004 C 256.097 165.791,254.778 165.388,254.289 165.108 C 253.616 164.724,248.492 164.551,233.200 164.397 C 215.401 164.218,212.856 164.115,211.786 163.531 C 211.119 163.167,209.859 162.735,208.986 162.572 C 207.487 162.291,201.600 157.059,201.600 156.007 C 201.600 155.822,200.700 154.593,199.600 153.276 C 198.500 151.960,197.600 150.728,197.600 150.538 C 197.600 150.348,197.240 149.968,196.800 149.693 C 196.360 149.418,196.000 148.943,196.000 148.638 C 196.000 148.129,194.880 146.624,193.100 144.741 C 192.715 144.333,192.400 143.830,192.400 143.623 C 192.400 143.415,192.067 143.010,191.660 142.723 C 191.252 142.435,190.634 141.660,190.286 141.000 C 189.490 139.491,187.863 137.847,185.800 136.469 L 184.200 135.400 170.000 135.343 C 162.190 135.312,154.682 135.419,153.316 135.581 M200.141 135.597 C 198.849 136.119,198.676 136.701,199.583 137.478 C 200.032 137.863,200.400 138.375,200.400 138.617 C 200.400 138.858,200.850 139.447,201.400 139.925 C 201.950 140.403,202.400 140.992,202.400 141.234 C 202.400 141.475,203.210 142.621,204.200 143.779 C 205.190 144.938,206.000 146.049,206.000 146.247 C 206.000 146.445,206.360 146.832,206.800 147.107 C 207.240 147.382,207.600 147.857,207.600 148.162 C 207.600 149.115,211.689 153.481,213.135 154.072 C 213.501 154.221,221.270 154.370,230.400 154.401 C 245.954 154.455,248.377 154.576,252.689 155.519 C 255.281 156.086,255.600 155.500,255.600 150.163 C 255.600 146.664,255.451 145.509,254.856 144.394 C 254.447 143.627,253.976 142.550,253.810 142.000 C 253.467 140.864,249.782 137.200,248.983 137.200 C 248.694 137.200,248.160 136.903,247.798 136.541 C 247.435 136.178,246.387 135.736,245.469 135.558 C 243.220 135.122,201.228 135.159,200.141 135.597 M185.052 136.885 C 186.323 137.554,187.728 138.770,188.744 140.082 C 189.646 141.247,190.748 142.566,191.192 143.014 C 191.637 143.462,192.000 143.969,192.000 144.141 C 192.000 144.313,192.765 145.420,193.700 146.602 C 194.635 147.783,196.660 150.481,198.200 152.598 C 202.577 158.615,206.108 162.086,209.200 163.410 L 211.800 164.523 231.600 164.807 C 248.185 165.045,251.755 165.198,253.587 165.746 C 254.790 166.106,256.106 166.400,256.512 166.400 C 261.079 166.400,266.540 172.114,268.340 178.777 L 269.374 182.600 269.502 215.526 C 269.588 237.509,269.491 249.142,269.209 250.526 C 268.978 251.667,268.548 253.786,268.255 255.236 C 266.889 261.989,262.475 266.877,256.793 267.932 C 255.587 268.156,254.060 268.578,253.400 268.870 C 251.927 269.521,158.014 269.882,154.869 269.249 C 146.880 267.640,145.184 266.993,141.925 264.311 C 139.620 262.413,138.127 259.821,137.371 256.402 C 137.055 254.971,136.572 252.810,136.298 251.600 C 135.428 247.754,135.591 155.622,136.472 153.000 C 136.842 151.900,137.264 150.231,137.409 149.290 C 139.044 138.718,146.941 135.607,171.800 135.744 L 183.000 135.805 185.052 136.885 M246.936 136.800 C 249.585 137.934,253.056 141.081,253.464 142.719 C 253.612 143.314,254.059 144.520,254.458 145.400 C 256.208 149.264,255.306 155.449,253.101 154.708 C 252.276 154.431,244.845 154.184,232.800 154.035 C 218.471 153.858,213.580 153.674,212.905 153.289 C 211.861 152.692,209.331 149.628,205.400 144.200 C 203.860 142.074,202.195 139.956,201.700 139.495 C 201.205 139.033,200.800 138.440,200.800 138.177 C 200.800 137.913,200.518 137.464,200.173 137.178 C 198.434 135.734,200.509 135.600,223.000 135.702 L 244.600 135.800 246.936 136.800 " stroke="none" fill="#6c747c" fill-rule="evenodd"></path></g></svg>