<svg id="svg" version="1.1" xmlns="http://www.w3.org/2000/svg" xmlns:xlink="http://www.w3.org/1999/xlink" width="400" height="400" viewBox="0, 0, 400,400"><g id="svgg"><path id="path0" d="M240.873 52.660 C 240.480 53.081,240.477 53.200,240.861 53.200 C 241.131 53.200,241.004 53.470,240.576 53.801 C 239.894 54.329,239.888 54.371,240.520 54.150 C 241.129 53.938,241.212 54.077,241.053 55.049 C 240.950 55.682,240.851 56.365,240.833 56.567 C 240.815 56.768,240.683 56.817,240.541 56.674 C 240.398 56.531,239.948 56.799,239.541 57.268 C 239.133 57.738,238.778 58.005,238.750 57.861 C 238.722 57.718,238.678 57.435,238.650 57.233 C 238.623 57.032,238.450 56.717,238.267 56.533 C 238.083 56.350,237.970 56.380,238.014 56.600 C 238.205 57.549,237.960 58.070,237.420 57.863 C 237.034 57.715,236.915 57.833,237.062 58.218 C 237.184 58.536,237.473 58.679,237.704 58.536 C 237.955 58.381,238.004 58.470,237.826 58.758 C 237.596 59.130,237.399 59.131,236.955 58.763 C 236.484 58.372,236.431 58.416,236.659 59.009 C 236.850 59.506,236.790 59.641,236.468 59.442 C 236.191 59.271,236.000 59.395,236.000 59.747 C 236.000 60.074,236.315 60.424,236.700 60.524 C 237.131 60.637,236.977 60.725,236.300 60.754 C 235.695 60.779,235.245 61.008,235.300 61.263 C 235.355 61.518,234.896 61.760,234.281 61.802 C 233.535 61.853,233.224 61.714,233.351 61.385 C 233.477 61.055,233.268 60.962,232.725 61.104 C 232.021 61.288,231.936 61.555,232.105 63.051 C 232.212 64.005,232.143 64.688,231.950 64.569 C 231.758 64.450,231.600 64.713,231.600 65.153 C 231.600 65.593,231.389 66.083,231.132 66.242 C 230.810 66.441,230.750 66.306,230.941 65.809 C 231.175 65.201,231.123 65.166,230.614 65.589 C 230.281 65.865,230.096 66.231,230.202 66.403 C 230.308 66.575,230.129 66.819,229.803 66.944 C 229.476 67.069,229.229 67.043,229.252 66.886 C 229.368 66.106,229.159 65.578,228.817 65.789 C 228.607 65.919,228.548 66.321,228.687 66.682 C 228.876 67.176,228.773 67.275,228.269 67.082 C 227.901 66.941,227.600 66.999,227.600 67.213 C 227.600 67.426,227.870 67.600,228.200 67.600 C 229.045 67.600,228.945 68.117,227.984 68.717 C 227.536 68.997,227.269 69.388,227.391 69.585 C 227.513 69.783,227.426 70.061,227.197 70.202 C 226.968 70.344,226.830 70.311,226.890 70.130 C 226.951 69.948,226.820 69.800,226.600 69.800 C 226.380 69.800,226.237 69.910,226.281 70.044 C 226.420 70.460,224.218 70.242,223.906 69.809 C 223.718 69.547,223.610 69.574,223.606 69.886 C 223.598 70.499,224.988 71.268,225.412 70.886 C 225.586 70.729,225.599 70.825,225.441 71.100 C 225.282 71.375,224.883 71.600,224.553 71.600 C 224.223 71.600,224.051 71.758,224.170 71.952 C 224.454 72.411,222.411 74.454,221.952 74.170 C 221.758 74.051,221.600 74.223,221.600 74.553 C 221.600 74.883,221.375 75.282,221.100 75.441 C 220.825 75.599,220.729 75.586,220.886 75.412 C 221.268 74.988,220.499 73.598,219.886 73.606 C 219.574 73.610,219.547 73.718,219.809 73.906 C 220.242 74.218,220.460 76.420,220.044 76.281 C 219.910 76.237,219.773 76.380,219.740 76.600 C 219.707 76.820,219.855 76.951,220.070 76.890 C 220.284 76.830,220.344 76.968,220.202 77.197 C 220.061 77.426,219.783 77.513,219.585 77.391 C 219.388 77.269,218.997 77.536,218.717 77.984 C 218.117 78.945,217.600 79.045,217.600 78.200 C 217.600 77.870,217.426 77.600,217.213 77.600 C 216.999 77.600,216.941 77.901,217.082 78.269 C 217.275 78.773,217.176 78.876,216.682 78.687 C 216.321 78.548,215.919 78.607,215.789 78.817 C 215.578 79.159,216.106 79.368,216.886 79.252 C 217.043 79.229,217.069 79.476,216.944 79.803 C 216.819 80.129,216.575 80.308,216.403 80.202 C 216.231 80.096,215.865 80.281,215.589 80.614 C 215.166 81.123,215.201 81.175,215.809 80.941 C 216.306 80.750,216.441 80.810,216.242 81.132 C 216.083 81.389,215.593 81.600,215.153 81.600 C 214.713 81.600,214.450 81.758,214.569 81.950 C 214.688 82.143,214.005 82.212,213.051 82.105 C 211.555 81.936,211.288 82.021,211.104 82.725 C 210.962 83.268,211.055 83.477,211.385 83.351 C 211.714 83.224,211.853 83.535,211.802 84.281 C 211.760 84.896,211.518 85.355,211.263 85.300 C 211.008 85.245,210.779 85.695,210.754 86.300 C 210.725 86.977,210.637 87.131,210.524 86.700 C 210.424 86.315,210.074 86.000,209.747 86.000 C 209.395 86.000,209.271 86.191,209.442 86.468 C 209.641 86.790,209.506 86.850,209.009 86.659 C 208.416 86.431,208.372 86.484,208.763 86.955 C 209.131 87.399,209.130 87.596,208.758 87.826 C 208.470 88.004,208.381 87.955,208.536 87.704 C 208.679 87.473,208.536 87.184,208.218 87.062 C 207.833 86.915,207.715 87.034,207.863 87.420 C 208.070 87.960,207.549 88.205,206.600 88.014 C 206.380 87.970,206.350 88.083,206.533 88.267 C 206.717 88.450,207.032 88.623,207.233 88.650 C 207.435 88.678,207.718 88.723,207.861 88.750 C 208.005 88.778,207.738 89.133,207.268 89.541 C 206.799 89.948,206.531 90.398,206.674 90.541 C 206.817 90.683,206.768 90.815,206.567 90.833 C 206.365 90.851,205.682 90.950,205.049 91.053 C 204.077 91.212,203.938 91.129,204.150 90.520 C 204.371 89.888,204.329 89.894,203.801 90.576 C 203.470 91.004,203.200 91.131,203.200 90.861 C 203.200 90.477,203.081 90.480,202.660 90.873 C 202.222 91.282,202.216 91.473,202.631 91.889 C 203.226 92.483,203.755 92.574,203.415 92.024 C 203.287 91.818,203.540 91.675,203.977 91.708 C 204.711 91.764,204.723 91.822,204.132 92.475 C 203.781 92.863,203.337 93.085,203.147 92.967 C 202.843 92.780,202.774 92.952,202.808 93.808 C 202.830 94.338,201.744 95.077,201.233 94.880 C 200.828 94.725,200.736 94.856,200.918 95.331 C 201.059 95.699,200.995 96.000,200.775 96.000 C 200.555 96.000,200.272 95.731,200.146 95.402 C 200.019 95.074,199.763 94.899,199.576 95.015 C 199.388 95.131,199.348 95.521,199.487 95.882 C 199.674 96.370,199.572 96.475,199.090 96.290 C 198.634 96.115,198.507 96.212,198.662 96.618 C 198.784 96.936,199.043 97.097,199.237 96.977 C 199.432 96.857,199.484 97.037,199.354 97.377 C 199.223 97.717,199.000 97.925,198.858 97.840 C 198.533 97.644,197.579 98.646,197.841 98.908 C 197.948 99.014,197.747 99.211,197.396 99.346 C 197.046 99.481,196.857 99.432,196.977 99.237 C 197.097 99.043,196.936 98.784,196.618 98.662 C 196.212 98.507,196.115 98.634,196.290 99.090 C 196.475 99.572,196.370 99.674,195.882 99.487 C 195.521 99.348,195.131 99.388,195.015 99.576 C 194.899 99.763,195.074 100.019,195.402 100.146 C 195.731 100.272,196.000 100.555,196.000 100.775 C 196.000 100.995,195.699 101.059,195.331 100.918 C 194.856 100.736,194.725 100.828,194.880 101.233 C 195.067 101.718,194.031 103.193,193.710 102.900 C 193.416 102.633,192.780 102.844,192.967 103.147 C 193.085 103.337,192.863 103.781,192.475 104.132 C 191.822 104.723,191.764 104.711,191.708 103.977 C 191.675 103.540,191.818 103.287,192.024 103.415 C 192.574 103.755,192.483 103.226,191.889 102.631 C 191.473 102.216,191.282 102.222,190.873 102.660 C 190.480 103.081,190.477 103.200,190.861 103.200 C 191.131 103.200,191.004 103.470,190.576 103.801 C 189.894 104.329,189.888 104.371,190.520 104.150 C 191.129 103.938,191.212 104.077,191.053 105.049 C 190.950 105.682,190.851 106.365,190.833 106.567 C 190.815 106.768,190.683 106.817,190.541 106.674 C 190.398 106.531,189.948 106.799,189.541 107.268 C 189.133 107.738,188.778 108.005,188.750 107.861 C 188.722 107.718,188.678 107.435,188.650 107.233 C 188.623 107.032,188.450 106.717,188.267 106.533 C 188.083 106.350,187.970 106.380,188.014 106.600 C 188.205 107.549,187.960 108.070,187.420 107.863 C 187.034 107.715,186.915 107.833,187.062 108.218 C 187.184 108.536,187.473 108.679,187.704 108.536 C 187.955 108.381,188.004 108.470,187.826 108.758 C 187.596 109.130,187.399 109.131,186.955 108.763 C 186.484 108.372,186.431 108.416,186.659 109.009 C 186.850 109.506,186.790 109.641,186.468 109.442 C 186.191 109.271,186.000 109.395,186.000 109.747 C 186.000 110.074,186.315 110.424,186.700 110.524 C 187.131 110.637,186.977 110.725,186.300 110.754 C 185.695 110.779,185.245 111.008,185.300 111.263 C 185.355 111.518,184.896 111.760,184.281 111.802 C 183.535 111.853,183.224 111.714,183.351 111.385 C 183.477 111.055,183.268 110.962,182.725 111.104 C 182.021 111.288,181.936 111.555,182.105 113.051 C 182.212 114.005,182.143 114.688,181.950 114.569 C 181.758 114.450,181.600 114.713,181.600 115.153 C 181.600 115.593,181.389 116.083,181.132 116.242 C 180.810 116.441,180.750 116.306,180.941 115.809 C 181.175 115.201,181.123 115.166,180.614 115.589 C 180.281 115.865,180.096 116.231,180.202 116.403 C 180.308 116.575,180.129 116.819,179.803 116.944 C 179.476 117.069,179.229 117.043,179.252 116.886 C 179.368 116.106,179.159 115.578,178.817 115.789 C 178.607 115.919,178.548 116.321,178.687 116.682 C 178.876 117.176,178.773 117.275,178.269 117.082 C 177.901 116.941,177.600 116.999,177.600 117.213 C 177.600 117.426,177.870 117.600,178.200 117.600 C 179.045 117.600,178.945 118.117,177.984 118.717 C 177.536 118.997,177.269 119.388,177.391 119.585 C 177.513 119.783,177.426 120.061,177.197 120.202 C 176.968 120.344,176.830 120.311,176.890 120.130 C 176.951 119.948,176.820 119.800,176.600 119.800 C 176.380 119.800,176.237 119.910,176.281 120.044 C 176.420 120.460,174.218 120.242,173.906 119.809 C 173.718 119.547,173.610 119.574,173.606 119.886 C 173.598 120.499,174.988 121.268,175.412 120.886 C 175.586 120.729,175.599 120.825,175.441 121.100 C 175.282 121.375,174.883 121.600,174.553 121.600 C 174.223 121.600,174.051 121.758,174.170 121.952 C 174.290 122.145,173.919 122.772,173.345 123.345 C 172.772 123.919,172.145 124.290,171.952 124.170 C 171.758 124.051,171.600 124.223,171.600 124.553 C 171.600 124.883,171.375 125.282,171.100 125.441 C 170.825 125.599,170.729 125.586,170.886 125.412 C 171.268 124.988,170.499 123.598,169.886 123.606 C 169.574 123.610,169.547 123.718,169.809 123.906 C 170.242 124.218,170.460 126.420,170.044 126.281 C 169.910 126.237,169.800 126.380,169.800 126.600 C 169.800 126.820,169.948 126.951,170.130 126.890 C 170.311 126.830,170.344 126.968,170.202 127.197 C 170.061 127.426,169.783 127.513,169.585 127.391 C 169.388 127.269,168.997 127.536,168.717 127.984 C 168.117 128.945,167.600 129.045,167.600 128.200 C 167.600 127.870,167.426 127.600,167.213 127.600 C 166.999 127.600,166.941 127.901,167.082 128.269 C 167.275 128.773,167.176 128.876,166.682 128.687 C 166.321 128.548,165.919 128.607,165.789 128.817 C 165.578 129.159,166.106 129.368,166.886 129.252 C 167.043 129.229,167.069 129.476,166.944 129.803 C 166.819 130.129,166.575 130.308,166.403 130.202 C 166.231 130.096,165.865 130.281,165.589 130.614 C 165.166 131.123,165.201 131.175,165.809 130.941 C 166.306 130.750,166.441 130.810,166.242 131.132 C 166.083 131.389,165.593 131.600,165.153 131.600 C 164.713 131.600,164.450 131.758,164.569 131.950 C 164.688 132.143,164.005 132.212,163.051 132.105 C 161.555 131.936,161.288 132.021,161.104 132.725 C 160.962 133.268,161.055 133.477,161.385 133.351 C 161.714 133.224,161.853 133.535,161.802 134.281 C 161.760 134.896,161.518 135.355,161.263 135.300 C 161.008 135.245,160.779 135.695,160.754 136.300 C 160.725 136.977,160.637 137.131,160.524 136.700 C 160.424 136.315,160.074 136.000,159.747 136.000 C 159.395 136.000,159.271 136.191,159.442 136.468 C 159.641 136.790,159.506 136.850,159.009 136.659 C 158.416 136.431,158.372 136.484,158.763 136.955 C 159.131 137.399,159.130 137.596,158.758 137.826 C 158.470 138.004,158.381 137.955,158.536 137.704 C 158.679 137.473,158.536 137.184,158.218 137.062 C 157.833 136.915,157.715 137.034,157.863 137.420 C 158.070 137.960,157.549 138.205,156.600 138.014 C 156.380 137.970,156.350 138.083,156.533 138.267 C 156.717 138.450,157.032 138.623,157.233 138.650 C 157.435 138.678,157.718 138.722,157.861 138.750 C 158.005 138.778,157.738 139.133,157.268 139.541 C 156.799 139.948,156.531 140.398,156.674 140.541 C 156.817 140.683,156.768 140.815,156.567 140.833 C 156.365 140.851,155.682 140.950,155.049 141.053 C 154.077 141.212,153.938 141.129,154.150 140.520 C 154.371 139.888,154.329 139.894,153.801 140.576 C 153.470 141.004,153.200 141.131,153.200 140.861 C 153.200 140.477,153.081 140.480,152.660 140.873 C 152.222 141.282,152.216 141.473,152.631 141.889 C 153.226 142.483,153.755 142.574,153.415 142.024 C 153.287 141.818,153.540 141.675,153.977 141.708 C 154.711 141.764,154.723 141.822,154.132 142.475 C 153.781 142.863,153.337 143.085,153.147 142.967 C 152.956 142.849,152.800 142.943,152.800 143.176 C 152.800 144.331,152.018 145.182,151.233 144.880 C 150.828 144.725,150.736 144.856,150.918 145.331 C 151.059 145.699,150.995 146.000,150.775 146.000 C 150.555 146.000,150.272 145.731,150.146 145.402 C 150.019 145.074,149.763 144.899,149.576 145.015 C 149.388 145.131,149.348 145.521,149.487 145.882 C 149.674 146.370,149.572 146.475,149.090 146.290 C 148.634 146.115,148.507 146.212,148.662 146.618 C 148.784 146.936,149.043 147.097,149.237 146.977 C 149.432 146.857,149.484 147.037,149.354 147.377 C 149.223 147.717,149.000 147.925,148.858 147.840 C 148.533 147.644,147.579 148.646,147.841 148.908 C 147.948 149.014,147.747 149.211,147.396 149.346 C 147.046 149.481,146.857 149.432,146.977 149.237 C 147.097 149.043,146.936 148.784,146.618 148.662 C 146.212 148.507,146.115 148.634,146.290 149.090 C 146.475 149.572,146.370 149.674,145.882 149.487 C 145.521 149.348,145.131 149.388,145.015 149.576 C 144.899 149.763,145.074 150.019,145.402 150.146 C 145.731 150.272,146.000 150.555,146.000 150.775 C 146.000 150.995,145.699 151.059,145.331 150.918 C 144.856 150.736,144.725 150.828,144.880 151.233 C 145.067 151.718,144.031 153.193,143.710 152.900 C 143.416 152.633,142.780 152.844,142.967 153.147 C 143.085 153.337,142.863 153.781,142.475 154.132 C 141.822 154.723,141.764 154.711,141.708 153.977 C 141.675 153.540,141.818 153.287,142.024 153.415 C 142.574 153.755,142.483 153.226,141.889 152.631 C 141.473 152.216,141.282 152.222,140.873 152.660 C 140.480 153.081,140.477 153.200,140.861 153.200 C 141.131 153.200,141.004 153.470,140.576 153.801 C 139.894 154.329,139.888 154.371,140.520 154.150 C 141.129 153.938,141.212 154.077,141.053 155.049 C 140.950 155.682,140.851 156.365,140.833 156.567 C 140.815 156.768,140.683 156.817,140.541 156.674 C 140.398 156.531,139.948 156.799,139.541 157.268 C 139.133 157.738,138.778 158.005,138.750 157.861 C 138.722 157.718,138.678 157.435,138.650 157.233 C 138.623 157.032,138.450 156.717,138.267 156.533 C 138.083 156.350,137.970 156.380,138.014 156.600 C 138.205 157.549,137.960 158.070,137.420 157.863 C 137.034 157.715,136.915 157.833,137.062 158.218 C 137.184 158.536,137.473 158.679,137.704 158.536 C 137.955 158.381,138.004 158.470,137.826 158.758 C 137.596 159.130,137.399 159.131,136.955 158.763 C 136.484 158.372,136.431 158.416,136.659 159.009 C 136.850 159.506,136.790 159.641,136.468 159.442 C 136.191 159.271,136.000 159.395,136.000 159.747 C 136.000 160.074,136.315 160.424,136.700 160.524 C 137.131 160.637,136.977 160.725,136.300 160.754 C 135.695 160.779,135.245 161.008,135.300 161.263 C 135.355 161.518,134.896 161.760,134.281 161.802 C 133.535 161.853,133.224 161.714,133.351 161.385 C 133.477 161.055,133.268 160.962,132.725 161.104 C 132.021 161.288,131.936 161.555,132.105 163.051 C 132.212 164.005,132.143 164.688,131.950 164.569 C 131.758 164.450,131.600 164.713,131.600 165.153 C 131.600 165.593,131.389 166.083,131.132 166.242 C 130.810 166.441,130.750 166.306,130.941 165.809 C 131.175 165.201,131.123 165.166,130.614 165.589 C 130.281 165.865,130.096 166.231,130.202 166.403 C 130.308 166.575,130.129 166.819,129.803 166.944 C 129.476 167.069,129.229 167.043,129.252 166.886 C 129.368 166.106,129.159 165.578,128.817 165.789 C 128.607 165.919,128.548 166.321,128.687 166.682 C 128.876 167.176,128.773 167.275,128.269 167.082 C 127.901 166.941,127.600 166.999,127.600 167.213 C 127.600 167.426,127.870 167.600,128.200 167.600 C 128.973 167.600,128.978 168.246,128.207 168.542 C 127.869 168.672,127.715 169.035,127.850 169.385 C 127.979 169.723,127.892 170.000,127.655 170.000 C 127.419 170.000,127.332 170.277,127.462 170.616 C 127.612 171.009,127.498 171.190,127.149 171.116 C 126.847 171.052,126.598 171.302,126.595 171.672 C 126.587 172.715,125.983 173.070,125.545 172.288 C 125.036 171.379,124.400 171.776,124.400 173.004 C 124.400 173.530,124.085 174.144,123.700 174.368 C 123.148 174.689,123.127 174.780,123.600 174.794 C 124.133 174.810,124.133 174.855,123.600 175.200 C 123.200 175.458,123.167 175.590,123.500 175.594 C 123.775 175.597,124.000 175.791,124.000 176.024 C 124.000 176.257,123.819 176.336,123.599 176.199 C 123.362 176.053,123.256 176.330,123.340 176.876 C 123.474 177.742,121.868 180.420,121.262 180.340 C 119.946 180.166,119.521 180.424,120.051 181.077 C 120.424 181.537,120.440 181.657,120.100 181.453 C 119.785 181.264,119.600 181.384,119.600 181.776 C 119.600 182.119,119.375 182.413,119.100 182.428 C 118.825 182.444,118.960 182.611,119.400 182.800 C 119.840 182.989,119.953 183.156,119.651 183.172 C 119.226 183.194,119.207 183.326,119.568 183.761 C 119.924 184.190,119.917 184.361,119.538 184.487 C 119.226 184.591,119.035 185.483,119.021 186.888 C 119.010 188.118,119.135 189.040,119.300 188.938 C 119.465 188.836,119.600 188.933,119.600 189.153 C 119.600 189.373,119.431 189.657,119.225 189.785 C 119.018 189.912,118.943 190.418,119.057 190.908 C 119.171 191.399,119.247 192.070,119.226 192.400 C 119.205 192.730,119.190 193.415,119.191 193.922 C 119.193 194.429,119.036 194.746,118.842 194.626 C 118.443 194.379,118.018 196.610,118.371 197.099 C 118.497 197.274,118.298 197.094,117.929 196.700 C 117.510 196.252,117.161 196.139,117.001 196.398 C 116.860 196.626,116.532 196.707,116.272 196.577 C 116.013 196.447,116.115 196.599,116.500 196.914 C 117.406 197.657,117.443 199.600,116.551 199.600 C 116.000 199.600,115.983 199.697,116.436 200.243 C 116.889 200.789,116.859 200.968,116.238 201.422 C 115.543 201.930,115.549 201.954,116.353 201.894 C 116.950 201.849,117.200 201.560,117.200 200.915 C 117.200 200.412,117.355 200.000,117.545 200.000 C 117.734 200.000,117.803 200.450,117.698 201.000 C 117.570 201.671,117.687 202.002,118.053 202.006 C 118.510 202.011,118.511 202.069,118.061 202.354 C 117.344 202.808,117.660 204.228,118.448 204.098 C 118.788 204.042,119.067 204.267,119.067 204.598 C 119.067 204.929,118.782 205.206,118.433 205.214 C 118.016 205.224,118.142 205.424,118.800 205.800 C 119.350 206.114,119.619 206.378,119.399 206.386 C 118.935 206.402,118.889 210.773,119.344 211.510 C 119.524 211.801,119.434 212.002,119.124 212.006 C 118.708 212.011,118.713 212.084,119.145 212.358 C 119.606 212.649,119.606 212.737,119.145 212.920 C 118.781 213.065,118.761 213.147,119.087 213.168 C 119.356 213.186,119.471 213.470,119.345 213.800 C 119.217 214.133,119.333 214.400,119.606 214.400 C 119.945 214.400,119.974 214.555,119.700 214.900 C 119.368 215.316,119.301 218.116,119.606 218.800 C 119.655 218.910,119.673 219.135,119.647 219.300 C 119.621 219.465,119.870 219.623,120.200 219.650 C 120.530 219.678,121.025 219.722,121.300 219.750 C 121.575 219.778,122.090 220.380,122.444 221.089 C 122.798 221.798,123.180 222.287,123.291 222.175 C 123.403 222.064,123.407 222.430,123.300 222.988 C 123.193 223.547,123.327 224.271,123.598 224.597 C 123.868 224.923,123.981 225.471,123.849 225.816 C 123.717 226.160,123.751 226.354,123.924 226.247 C 124.549 225.861,125.464 226.759,124.849 227.155 C 124.529 227.362,124.428 227.723,124.610 228.016 C 124.848 228.402,125.043 228.356,125.434 227.821 C 125.922 227.153,127.031 227.302,126.613 227.979 C 126.263 228.546,127.631 230.800,128.329 230.806 C 128.909 230.811,128.918 230.865,128.400 231.200 C 128.000 231.458,127.967 231.590,128.300 231.594 C 128.575 231.597,128.800 231.780,128.800 232.000 C 128.800 232.220,128.530 232.400,128.200 232.400 C 127.870 232.400,127.600 232.574,127.600 232.787 C 127.600 233.001,127.901 233.059,128.269 232.918 C 128.773 232.725,128.876 232.824,128.687 233.318 C 128.548 233.679,128.607 234.081,128.817 234.211 C 129.159 234.422,129.368 233.894,129.252 233.114 C 129.229 232.957,129.476 232.931,129.803 233.056 C 130.129 233.181,130.308 233.425,130.202 233.597 C 130.096 233.769,130.281 234.135,130.614 234.411 C 131.123 234.834,131.175 234.799,130.941 234.191 C 130.750 233.694,130.810 233.559,131.132 233.758 C 131.389 233.917,131.600 234.407,131.600 234.847 C 131.600 235.287,131.758 235.550,131.950 235.431 C 132.143 235.312,132.212 235.995,132.105 236.949 C 131.936 238.445,132.021 238.712,132.725 238.896 C 133.268 239.038,133.477 238.945,133.351 238.615 C 133.224 238.286,133.535 238.147,134.281 238.198 C 134.896 238.240,135.355 238.482,135.300 238.737 C 135.245 238.992,135.695 239.221,136.300 239.246 C 136.977 239.275,137.131 239.363,136.700 239.476 C 136.315 239.576,136.000 239.926,136.000 240.253 C 136.000 240.605,136.191 240.729,136.468 240.558 C 136.790 240.359,136.850 240.494,136.659 240.991 C 136.431 241.584,136.484 241.628,136.955 241.237 C 137.399 240.869,137.596 240.870,137.826 241.242 C 138.004 241.530,137.955 241.619,137.704 241.464 C 137.473 241.321,137.177 241.483,137.046 241.823 C 136.907 242.186,136.977 242.338,137.216 242.190 C 137.439 242.052,137.932 242.276,138.311 242.688 C 138.690 243.100,138.856 243.220,138.681 242.954 C 138.142 242.139,139.018 241.992,139.600 242.800 C 139.900 243.216,140.293 243.466,140.473 243.355 C 140.653 243.244,140.815 243.298,140.833 243.476 C 140.851 243.654,140.950 244.318,141.053 244.951 C 141.212 245.923,141.129 246.062,140.520 245.850 C 139.888 245.629,139.894 245.671,140.576 246.199 C 141.004 246.530,141.131 246.800,140.861 246.800 C 140.477 246.800,140.480 246.919,140.873 247.340 C 141.282 247.778,141.473 247.784,141.889 247.369 C 142.483 246.774,142.574 246.245,142.024 246.585 C 141.818 246.713,141.675 246.460,141.708 246.023 C 141.764 245.289,141.822 245.277,142.475 245.868 C 142.863 246.219,143.098 246.642,142.996 246.807 C 142.894 246.972,143.336 247.325,143.978 247.591 C 144.792 247.928,145.073 248.266,144.904 248.707 C 144.724 249.175,144.835 249.272,145.331 249.082 C 145.699 248.941,146.000 249.005,146.000 249.225 C 146.000 249.445,145.731 249.728,145.402 249.854 C 145.074 249.981,144.899 250.237,145.015 250.424 C 145.131 250.612,145.521 250.652,145.882 250.513 C 146.370 250.326,146.475 250.428,146.290 250.910 C 146.115 251.366,146.212 251.493,146.618 251.338 C 146.936 251.216,147.097 250.957,146.977 250.763 C 146.857 250.568,147.046 250.519,147.396 250.654 C 147.747 250.789,147.948 250.986,147.841 251.092 C 147.579 251.354,148.533 252.356,148.858 252.160 C 149.000 252.075,149.223 252.283,149.354 252.623 C 149.484 252.963,149.432 253.143,149.237 253.023 C 149.043 252.903,148.784 253.064,148.662 253.382 C 148.507 253.788,148.634 253.885,149.090 253.710 C 149.572 253.525,149.674 253.630,149.487 254.118 C 149.348 254.479,149.388 254.869,149.576 254.985 C 149.763 255.101,150.019 254.926,150.146 254.598 C 150.272 254.269,150.555 254.000,150.775 254.000 C 150.995 254.000,151.059 254.301,150.918 254.669 C 150.728 255.165,150.825 255.276,151.293 255.096 C 151.734 254.927,152.072 255.208,152.409 256.022 C 152.675 256.664,153.028 257.106,153.193 257.004 C 153.358 256.902,153.781 257.137,154.132 257.525 C 154.723 258.178,154.711 258.236,153.977 258.292 C 153.540 258.325,153.287 258.182,153.415 257.976 C 153.755 257.426,153.226 257.517,152.631 258.111 C 152.216 258.527,152.222 258.718,152.660 259.127 C 153.081 259.520,153.200 259.523,153.200 259.139 C 153.200 258.869,153.470 258.996,153.801 259.424 C 154.329 260.106,154.371 260.112,154.150 259.480 C 153.938 258.871,154.077 258.788,155.049 258.947 C 155.682 259.050,156.365 259.149,156.567 259.167 C 156.768 259.185,156.817 259.317,156.674 259.459 C 156.531 259.602,156.799 260.052,157.268 260.459 C 157.738 260.867,158.005 261.223,157.861 261.250 C 157.718 261.278,157.435 261.322,157.233 261.350 C 157.032 261.377,156.717 261.550,156.533 261.733 C 156.350 261.917,156.380 262.030,156.600 261.986 C 157.549 261.795,158.070 262.040,157.863 262.580 C 157.715 262.966,157.833 263.085,158.218 262.938 C 158.536 262.816,158.679 262.527,158.536 262.296 C 158.381 262.045,158.470 261.996,158.758 262.174 C 159.130 262.404,159.131 262.601,158.763 263.045 C 158.372 263.516,158.416 263.569,159.009 263.341 C 159.506 263.150,159.641 263.210,159.442 263.532 C 159.271 263.809,159.395 264.000,159.747 264.000 C 160.074 264.000,160.424 263.685,160.524 263.300 C 160.637 262.869,160.725 263.023,160.754 263.700 C 160.779 264.305,161.008 264.755,161.263 264.700 C 161.518 264.645,161.760 265.104,161.802 265.719 C 161.853 266.465,161.714 266.776,161.385 266.649 C 161.055 266.523,160.962 266.732,161.104 267.275 C 161.288 267.979,161.555 268.064,163.051 267.895 C 164.005 267.788,164.688 267.857,164.569 268.050 C 164.450 268.242,164.713 268.400,165.153 268.400 C 165.593 268.400,166.083 268.611,166.242 268.868 C 166.441 269.190,166.306 269.250,165.809 269.059 C 165.201 268.825,165.166 268.877,165.589 269.386 C 165.865 269.719,166.231 269.904,166.403 269.798 C 166.575 269.692,166.819 269.871,166.944 270.197 C 167.069 270.524,167.043 270.771,166.886 270.748 C 166.106 270.632,165.578 270.841,165.789 271.183 C 165.919 271.393,166.321 271.452,166.682 271.313 C 167.176 271.124,167.275 271.227,167.082 271.731 C 166.941 272.099,166.999 272.400,167.213 272.400 C 167.426 272.400,167.600 272.130,167.600 271.800 C 167.600 270.955,168.117 271.055,168.717 272.016 C 168.997 272.464,169.388 272.731,169.585 272.609 C 169.783 272.487,170.061 272.574,170.202 272.803 C 170.344 273.032,170.311 273.170,170.130 273.110 C 169.948 273.049,169.800 273.180,169.800 273.400 C 169.800 273.620,169.910 273.763,170.044 273.719 C 170.460 273.580,170.242 275.782,169.809 276.094 C 169.547 276.282,169.574 276.390,169.886 276.394 C 170.480 276.401,171.278 275.011,170.898 274.631 C 170.748 274.481,170.923 274.472,171.287 274.612 C 171.690 274.767,171.854 275.114,171.707 275.499 C 171.559 275.884,171.628 276.030,171.884 275.872 C 172.431 275.534,174.466 277.569,174.128 278.116 C 173.970 278.372,174.116 278.441,174.501 278.293 C 174.886 278.146,175.233 278.310,175.388 278.713 C 175.528 279.077,175.519 279.252,175.369 279.102 C 174.989 278.722,173.599 279.520,173.606 280.114 C 173.610 280.426,173.718 280.453,173.906 280.191 C 174.218 279.758,176.420 279.540,176.281 279.956 C 176.237 280.090,176.380 280.200,176.600 280.200 C 176.820 280.200,176.951 280.052,176.890 279.870 C 176.830 279.689,176.968 279.656,177.197 279.798 C 177.426 279.939,177.513 280.217,177.391 280.415 C 177.269 280.612,177.536 281.003,177.984 281.283 C 178.945 281.883,179.045 282.400,178.200 282.400 C 177.870 282.400,177.600 282.574,177.600 282.787 C 177.600 283.001,177.901 283.059,178.269 282.918 C 178.773 282.725,178.876 282.824,178.687 283.318 C 178.548 283.679,178.607 284.081,178.817 284.211 C 179.159 284.422,179.368 283.894,179.252 283.114 C 179.229 282.957,179.476 282.931,179.803 283.056 C 180.129 283.181,180.308 283.425,180.202 283.597 C 180.096 283.769,180.281 284.135,180.614 284.411 C 181.123 284.834,181.175 284.799,180.941 284.191 C 180.750 283.694,180.810 283.559,181.132 283.758 C 181.389 283.917,181.600 284.407,181.600 284.847 C 181.600 285.287,181.758 285.550,181.950 285.431 C 182.143 285.312,182.212 285.995,182.105 286.949 C 181.936 288.445,182.021 288.712,182.725 288.896 C 183.268 289.038,183.477 288.945,183.351 288.615 C 183.224 288.286,183.535 288.147,184.281 288.198 C 184.896 288.240,185.355 288.482,185.300 288.737 C 185.245 288.992,185.695 289.221,186.300 289.246 C 186.977 289.275,187.131 289.363,186.700 289.476 C 186.315 289.576,186.000 289.926,186.000 290.253 C 186.000 290.605,186.191 290.729,186.468 290.558 C 186.790 290.359,186.850 290.494,186.659 290.991 C 186.431 291.584,186.484 291.628,186.955 291.237 C 187.399 290.869,187.596 290.870,187.826 291.242 C 188.004 291.530,187.955 291.619,187.704 291.464 C 187.473 291.321,187.177 291.483,187.046 291.823 C 186.907 292.186,186.977 292.338,187.216 292.190 C 187.439 292.052,187.932 292.276,188.311 292.688 C 188.690 293.100,188.856 293.220,188.681 292.954 C 188.142 292.139,189.018 291.992,189.600 292.800 C 189.900 293.216,190.293 293.466,190.473 293.355 C 190.653 293.244,190.815 293.298,190.833 293.476 C 190.851 293.654,190.950 294.318,191.053 294.951 C 191.212 295.923,191.129 296.062,190.520 295.850 C 189.888 295.629,189.894 295.671,190.576 296.199 C 191.004 296.530,191.131 296.800,190.861 296.800 C 190.477 296.800,190.480 296.919,190.873 297.340 C 191.282 297.778,191.473 297.784,191.889 297.369 C 192.483 296.774,192.574 296.245,192.024 296.585 C 191.818 296.713,191.675 296.460,191.708 296.023 C 191.764 295.289,191.822 295.277,192.475 295.868 C 192.863 296.219,193.098 296.642,192.996 296.807 C 192.894 296.972,193.336 297.325,193.978 297.591 C 194.792 297.928,195.073 298.266,194.904 298.707 C 194.724 299.175,194.835 299.272,195.331 299.082 C 195.699 298.941,196.000 299.005,196.000 299.225 C 196.000 299.445,195.731 299.728,195.402 299.854 C 195.074 299.981,194.899 300.237,195.015 300.424 C 195.131 300.612,195.521 300.652,195.882 300.513 C 196.370 300.326,196.475 300.428,196.290 300.910 C 196.115 301.366,196.212 301.493,196.618 301.338 C 196.936 301.216,197.097 300.957,196.977 300.763 C 196.857 300.568,197.037 300.516,197.377 300.646 C 197.717 300.777,197.925 301.000,197.840 301.142 C 197.644 301.467,198.646 302.421,198.908 302.159 C 199.014 302.052,199.211 302.253,199.346 302.604 C 199.481 302.954,199.432 303.143,199.237 303.023 C 199.043 302.903,198.784 303.064,198.662 303.382 C 198.507 303.788,198.634 303.885,199.090 303.710 C 199.572 303.525,199.674 303.630,199.487 304.118 C 199.348 304.479,199.388 304.869,199.576 304.985 C 199.763 305.101,200.019 304.926,200.146 304.598 C 200.272 304.269,200.555 304.000,200.775 304.000 C 200.995 304.000,201.059 304.301,200.918 304.669 C 200.728 305.165,200.825 305.276,201.293 305.096 C 201.734 304.927,202.072 305.208,202.409 306.022 C 202.675 306.664,203.028 307.106,203.193 307.004 C 203.358 306.902,203.781 307.137,204.132 307.525 C 204.723 308.178,204.711 308.236,203.977 308.292 C 203.540 308.325,203.287 308.182,203.415 307.976 C 203.755 307.426,203.226 307.517,202.631 308.111 C 202.216 308.527,202.222 308.718,202.660 309.127 C 203.081 309.520,203.200 309.523,203.200 309.139 C 203.200 308.869,203.470 308.996,203.801 309.424 C 204.329 310.106,204.371 310.112,204.150 309.480 C 203.938 308.871,204.077 308.788,205.049 308.947 C 205.682 309.050,206.365 309.149,206.567 309.167 C 206.768 309.185,206.817 309.317,206.674 309.459 C 206.531 309.602,206.799 310.052,207.268 310.459 C 207.738 310.867,208.005 311.223,207.861 311.250 C 207.718 311.278,207.435 311.322,207.233 311.350 C 207.032 311.378,206.717 311.550,206.533 311.733 C 206.350 311.917,206.380 312.030,206.600 311.986 C 207.549 311.795,208.070 312.040,207.863 312.580 C 207.715 312.966,207.833 313.085,208.218 312.938 C 208.536 312.816,208.679 312.527,208.536 312.296 C 208.381 312.045,208.470 311.996,208.758 312.174 C 209.130 312.404,209.131 312.601,208.763 313.045 C 208.372 313.516,208.416 313.569,209.009 313.341 C 209.506 313.150,209.641 313.210,209.442 313.532 C 209.271 313.809,209.395 314.000,209.747 314.000 C 210.074 314.000,210.424 313.685,210.524 313.300 C 210.637 312.869,210.725 313.023,210.754 313.700 C 210.779 314.305,211.008 314.755,211.263 314.700 C 211.518 314.645,211.760 315.104,211.802 315.719 C 211.853 316.465,211.714 316.776,211.385 316.649 C 211.055 316.523,210.962 316.732,211.104 317.275 C 211.288 317.979,211.555 318.064,213.051 317.895 C 214.005 317.788,214.688 317.857,214.569 318.050 C 214.450 318.242,214.713 318.400,215.153 318.400 C 215.593 318.400,216.083 318.611,216.242 318.868 C 216.441 319.190,216.306 319.250,215.809 319.059 C 215.201 318.825,215.166 318.877,215.589 319.386 C 215.865 319.719,216.231 319.904,216.403 319.798 C 216.575 319.692,216.819 319.871,216.944 320.197 C 217.069 320.524,217.043 320.771,216.886 320.748 C 216.106 320.632,215.578 320.841,215.789 321.183 C 215.919 321.393,216.321 321.452,216.682 321.313 C 217.176 321.124,217.275 321.227,217.082 321.731 C 216.941 322.099,216.999 322.400,217.213 322.400 C 217.426 322.400,217.600 322.130,217.600 321.800 C 217.600 320.955,218.117 321.055,218.717 322.016 C 218.997 322.464,219.388 322.731,219.585 322.609 C 219.783 322.487,220.061 322.574,220.202 322.803 C 220.344 323.032,220.284 323.170,220.070 323.110 C 219.855 323.049,219.680 323.180,219.680 323.400 C 219.680 323.620,219.817 323.763,219.984 323.719 C 220.440 323.597,220.281 325.754,219.809 326.094 C 219.547 326.282,219.574 326.390,219.886 326.394 C 220.480 326.401,221.278 325.011,220.898 324.631 C 220.748 324.481,220.923 324.472,221.287 324.612 C 221.690 324.767,221.854 325.114,221.707 325.499 C 221.559 325.884,221.628 326.030,221.884 325.872 C 222.431 325.534,224.466 327.569,224.128 328.116 C 223.970 328.372,224.116 328.441,224.501 328.293 C 224.886 328.146,225.233 328.310,225.388 328.713 C 225.528 329.077,225.519 329.252,225.369 329.102 C 224.989 328.722,223.599 329.520,223.606 330.114 C 223.610 330.426,223.718 330.453,223.906 330.191 C 224.218 329.758,226.420 329.540,226.281 329.956 C 226.237 330.090,226.380 330.200,226.600 330.200 C 226.820 330.200,226.951 330.052,226.890 329.870 C 226.830 329.689,226.968 329.656,227.197 329.798 C 227.426 329.939,227.513 330.217,227.391 330.415 C 227.269 330.612,227.536 331.003,227.984 331.283 C 228.945 331.883,229.045 332.400,228.200 332.400 C 227.870 332.400,227.600 332.574,227.600 332.787 C 227.600 333.001,227.901 333.059,228.269 332.918 C 228.773 332.725,228.876 332.824,228.687 333.318 C 228.548 333.679,228.607 334.081,228.817 334.211 C 229.159 334.422,229.368 333.894,229.252 333.114 C 229.229 332.957,229.476 332.931,229.803 333.056 C 230.129 333.181,230.308 333.425,230.202 333.597 C 230.096 333.769,230.281 334.135,230.614 334.411 C 231.123 334.834,231.175 334.799,230.941 334.191 C 230.750 333.694,230.810 333.559,231.132 333.758 C 231.389 333.917,231.600 334.407,231.600 334.847 C 231.600 335.287,231.758 335.550,231.950 335.431 C 232.143 335.312,232.212 335.995,232.105 336.949 C 231.936 338.445,232.021 338.712,232.725 338.896 C 233.268 339.038,233.477 338.945,233.351 338.615 C 233.224 338.286,233.535 338.147,234.281 338.198 C 234.896 338.240,235.355 338.482,235.300 338.737 C 235.245 338.992,235.695 339.221,236.300 339.246 C 236.977 339.275,237.131 339.363,236.700 339.476 C 236.315 339.576,236.000 339.926,236.000 340.253 C 236.000 340.605,236.191 340.729,236.468 340.558 C 236.790 340.359,236.850 340.494,236.659 340.991 C 236.431 341.584,236.484 341.628,236.955 341.237 C 237.399 340.869,237.596 340.870,237.826 341.242 C 238.004 341.530,237.955 341.619,237.704 341.464 C 237.473 341.321,237.177 341.483,237.046 341.823 C 236.907 342.186,236.977 342.338,237.216 342.190 C 237.439 342.052,237.932 342.276,238.311 342.688 C 238.690 343.100,238.856 343.220,238.681 342.954 C 238.505 342.689,238.550 342.355,238.781 342.212 C 239.011 342.069,239.200 342.173,239.200 342.443 C 239.200 342.713,239.317 342.816,239.461 342.673 C 239.758 342.376,240.800 344.213,240.800 345.033 C 240.800 345.379,241.046 345.480,241.480 345.314 C 241.905 345.151,241.980 344.993,241.680 344.893 C 240.831 344.610,241.169 344.083,242.162 344.142 C 242.691 344.174,243.021 344.366,242.896 344.568 C 242.770 344.772,242.975 344.818,243.355 344.673 C 243.733 344.528,243.946 344.563,243.830 344.751 C 243.223 345.734,245.674 346.798,248.697 346.865 C 249.191 346.876,249.495 347.046,249.374 347.242 C 249.252 347.439,249.433 347.600,249.776 347.600 C 250.119 347.600,250.400 347.418,250.400 347.197 C 250.400 346.957,250.726 346.997,251.200 347.293 C 251.840 347.692,252.160 347.692,252.800 347.293 C 253.486 346.865,253.602 346.894,253.612 347.497 C 253.624 348.156,253.650 348.155,254.044 347.478 C 254.376 346.907,254.584 346.855,255.032 347.227 C 255.483 347.601,255.600 347.564,255.600 347.049 C 255.600 346.681,255.925 346.400,256.351 346.400 C 256.764 346.400,257.333 346.122,257.615 345.782 C 257.897 345.442,258.369 345.256,258.664 345.369 C 259.003 345.499,259.200 345.277,259.200 344.764 C 259.200 344.318,259.378 344.063,259.595 344.197 C 259.822 344.337,259.889 344.177,259.753 343.821 C 259.583 343.379,259.761 343.200,260.370 343.200 C 260.840 343.200,261.335 342.915,261.468 342.566 C 261.664 342.057,261.776 342.038,262.041 342.466 C 262.303 342.890,262.518 342.840,263.086 342.222 C 263.737 341.512,263.739 341.490,263.100 341.971 C 262.715 342.261,262.400 342.318,262.400 342.098 C 262.400 341.878,262.805 341.397,263.300 341.030 C 263.795 340.663,263.930 340.496,263.600 340.658 C 263.124 340.892,263.093 340.834,263.449 340.377 C 263.695 340.060,263.846 339.485,263.784 339.100 C 263.722 338.715,263.790 338.400,263.935 338.400 C 264.081 338.400,264.217 337.405,264.238 336.189 C 264.276 334.051,265.195 332.502,266.096 333.059 C 266.722 333.446,267.252 332.744,266.770 332.164 C 266.412 331.733,266.413 331.600,266.775 331.600 C 267.035 331.600,267.146 331.436,267.022 331.235 C 266.898 331.034,267.247 330.920,267.798 330.980 C 269.157 331.129,269.060 330.710,267.585 330.057 C 266.686 329.660,266.476 329.390,266.781 329.023 C 267.349 328.338,266.847 327.947,265.989 328.406 C 265.162 328.848,264.390 328.132,264.292 326.832 C 264.258 326.374,264.043 325.997,263.815 325.994 C 263.587 325.991,263.670 325.813,264.000 325.600 C 264.400 325.342,264.433 325.210,264.100 325.206 C 263.532 325.199,263.597 324.349,264.200 323.906 C 264.450 323.723,264.417 323.610,264.113 323.606 C 263.823 323.602,263.729 323.330,263.881 322.934 C 264.051 322.490,263.982 322.364,263.673 322.555 C 263.370 322.742,263.292 322.627,263.446 322.223 C 263.577 321.883,263.873 321.721,264.104 321.864 C 264.351 322.017,264.405 321.931,264.234 321.655 C 264.075 321.398,263.732 321.320,263.472 321.482 C 262.408 322.148,262.029 321.928,262.637 320.999 C 263.207 320.130,262.766 319.100,262.107 319.760 C 261.975 319.892,262.087 320.000,262.357 320.000 C 262.627 320.000,262.740 320.173,262.609 320.385 C 262.331 320.834,260.400 320.072,260.400 319.512 C 260.400 319.315,260.189 319.283,259.932 319.442 C 259.620 319.635,259.547 319.516,259.712 319.086 C 259.897 318.604,259.787 318.503,259.280 318.688 C 258.691 318.903,258.702 318.820,259.362 318.068 C 259.781 317.591,259.929 317.200,259.691 317.200 C 259.453 317.200,259.176 316.885,259.076 316.500 C 258.967 316.085,258.861 316.288,258.815 317.000 C 258.772 317.660,258.646 317.974,258.534 317.698 C 258.423 317.421,258.186 317.285,258.008 317.395 C 257.830 317.505,257.577 317.317,257.446 316.977 C 257.316 316.637,257.375 316.461,257.577 316.586 C 257.779 316.711,258.058 316.630,258.196 316.407 C 258.334 316.183,258.122 315.973,257.724 315.939 C 257.326 315.906,256.788 315.858,256.528 315.834 C 255.957 315.781,255.400 315.262,255.400 314.784 C 255.400 314.592,255.058 314.184,254.639 313.878 C 254.048 313.446,253.995 313.250,254.401 312.999 C 254.769 312.772,254.828 312.832,254.600 313.200 C 254.386 313.546,254.433 313.627,254.738 313.438 C 254.992 313.281,255.200 313.343,255.200 313.576 C 255.200 313.809,255.408 314.000,255.662 314.000 C 255.927 314.000,255.819 313.664,255.412 313.213 C 254.867 312.611,254.525 312.519,253.959 312.822 C 253.375 313.134,253.266 313.094,253.443 312.633 C 253.566 312.310,253.967 311.971,254.334 311.877 C 254.700 311.784,254.514 311.767,253.919 311.840 C 252.376 312.029,250.988 311.188,251.044 310.100 C 251.070 309.605,250.925 309.200,250.722 309.200 C 250.519 309.200,250.475 309.002,250.625 308.760 C 250.807 308.465,250.604 308.477,250.010 308.794 C 249.217 309.219,249.150 309.187,249.373 308.484 C 249.576 307.844,249.433 307.700,248.594 307.700 C 247.317 307.700,247.100 307.489,247.100 306.248 C 247.100 305.574,246.925 305.330,246.547 305.476 C 246.158 305.625,246.024 305.408,246.097 304.744 C 246.182 303.966,246.034 303.818,245.256 303.903 C 244.541 303.981,244.371 303.854,244.554 303.377 C 244.731 302.915,244.610 302.805,244.097 302.965 C 243.067 303.285,242.300 302.633,242.300 301.434 C 242.300 300.567,242.160 300.422,241.516 300.627 C 240.813 300.850,240.781 300.783,241.206 299.990 C 241.523 299.396,241.535 299.193,241.240 299.375 C 240.998 299.525,240.800 299.481,240.800 299.278 C 240.800 299.075,240.395 298.930,239.900 298.956 C 238.812 299.012,237.971 297.624,238.160 296.081 C 238.233 295.486,238.216 295.300,238.123 295.666 C 238.029 296.033,237.690 296.434,237.367 296.557 C 236.906 296.734,236.866 296.625,237.178 296.041 C 237.481 295.475,237.389 295.133,236.787 294.588 C 236.336 294.181,236.000 294.073,236.000 294.338 C 236.000 294.592,236.191 294.800,236.424 294.800 C 236.657 294.800,236.719 295.008,236.562 295.262 C 236.373 295.567,236.454 295.614,236.800 295.400 C 237.168 295.172,237.228 295.231,237.001 295.599 C 236.750 296.005,236.552 295.952,236.111 295.361 C 235.799 294.942,235.398 294.638,235.219 294.684 C 235.041 294.730,234.559 294.384,234.148 293.915 C 233.736 293.446,233.656 293.213,233.968 293.397 C 234.398 293.650,234.471 293.561,234.268 293.033 C 234.121 292.649,234.000 292.159,234.000 291.944 C 234.000 291.729,233.817 291.666,233.593 291.804 C 233.370 291.942,233.289 292.221,233.414 292.423 C 233.539 292.625,233.363 292.684,233.023 292.554 C 232.683 292.423,232.495 292.170,232.605 291.992 C 232.715 291.814,232.579 291.577,232.302 291.466 C 232.026 291.354,232.340 291.228,233.000 291.185 C 233.712 291.139,233.915 291.033,233.500 290.924 C 233.115 290.824,232.800 290.547,232.800 290.309 C 232.800 290.071,232.409 290.219,231.932 290.638 C 231.170 291.307,231.095 291.316,231.315 290.713 C 231.452 290.335,231.365 289.902,231.121 289.751 C 230.852 289.585,230.789 289.659,230.962 289.938 C 231.119 290.192,231.036 290.400,230.777 290.400 C 230.504 290.400,230.394 290.065,230.516 289.600 C 230.631 289.161,230.551 288.693,230.339 288.562 C 230.123 288.429,230.255 288.102,230.637 287.823 C 231.177 287.428,231.211 287.254,230.799 286.999 C 230.454 286.786,230.373 286.833,230.562 287.138 C 230.719 287.392,230.672 287.600,230.457 287.600 C 230.242 287.600,229.960 287.375,229.829 287.100 C 229.699 286.825,229.678 287.178,229.783 287.884 C 229.888 288.591,229.800 289.277,229.587 289.408 C 229.374 289.540,229.200 289.266,229.200 288.800 C 229.200 288.282,229.028 288.059,228.757 288.226 C 228.462 288.409,228.401 288.228,228.573 287.684 C 228.861 286.777,228.221 286.119,227.766 286.855 C 227.573 287.167,227.651 287.216,228.000 287.000 C 228.347 286.786,228.427 286.833,228.238 287.139 C 227.905 287.678,226.400 287.042,226.400 286.362 C 226.400 286.137,226.608 286.081,226.862 286.238 C 227.150 286.416,227.215 286.348,227.034 286.055 C 226.875 285.798,226.598 285.678,226.418 285.789 C 226.238 285.900,225.883 285.741,225.629 285.434 C 225.277 285.011,225.284 284.839,225.655 284.715 C 225.939 284.620,226.032 284.261,225.878 283.859 C 225.660 283.291,225.460 283.247,224.776 283.613 C 224.000 284.028,223.973 283.997,224.410 283.182 C 224.741 282.562,224.748 282.385,224.431 282.581 C 223.721 283.020,221.600 281.894,221.600 281.079 C 221.600 280.679,221.778 280.463,221.995 280.597 C 222.226 280.740,222.287 280.570,222.141 280.191 C 221.966 279.735,221.606 279.612,220.936 279.780 C 220.087 279.993,220.007 279.913,220.220 279.064 C 220.388 278.394,220.265 278.034,219.809 277.859 C 219.430 277.713,219.260 277.774,219.403 278.005 C 219.537 278.222,219.321 278.400,218.921 278.400 C 218.106 278.400,216.980 276.279,217.419 275.569 C 217.615 275.252,217.438 275.259,216.818 275.590 C 216.003 276.027,215.972 276.000,216.387 275.224 C 216.753 274.540,216.709 274.340,216.141 274.122 C 215.739 273.968,215.380 274.061,215.285 274.345 C 215.161 274.716,214.989 274.723,214.566 274.371 C 214.259 274.117,214.100 273.762,214.211 273.582 C 214.322 273.402,214.202 273.125,213.945 272.966 C 213.652 272.785,213.584 272.850,213.762 273.138 C 213.919 273.392,213.863 273.600,213.638 273.600 C 212.958 273.600,212.322 272.095,212.861 271.762 C 213.167 271.573,213.214 271.653,213.000 272.000 C 212.784 272.349,212.833 272.427,213.145 272.234 C 213.881 271.779,213.223 271.139,212.316 271.427 C 211.772 271.599,211.591 271.538,211.774 271.243 C 211.941 270.972,211.718 270.800,211.200 270.800 C 210.734 270.800,210.460 270.626,210.592 270.413 C 210.723 270.200,211.409 270.112,212.116 270.217 C 212.822 270.322,213.175 270.301,212.900 270.171 C 212.625 270.040,212.400 269.758,212.400 269.543 C 212.400 269.328,212.608 269.281,212.862 269.438 C 213.167 269.627,213.214 269.546,213.001 269.201 C 212.746 268.789,212.572 268.823,212.177 269.363 C 211.898 269.745,211.571 269.877,211.438 269.661 C 211.307 269.449,210.839 269.369,210.400 269.484 C 209.935 269.606,209.600 269.496,209.600 269.223 C 209.600 268.964,209.808 268.881,210.062 269.038 C 210.341 269.211,210.415 269.148,210.249 268.879 C 210.098 268.635,209.665 268.548,209.287 268.685 C 208.684 268.905,208.693 268.830,209.362 268.068 C 209.781 267.591,209.929 267.200,209.691 267.200 C 209.453 267.200,209.176 266.885,209.076 266.500 C 208.967 266.085,208.861 266.288,208.815 267.000 C 208.772 267.660,208.646 267.974,208.534 267.698 C 208.423 267.421,208.186 267.285,208.008 267.395 C 207.830 267.505,207.577 267.317,207.446 266.977 C 207.316 266.637,207.375 266.461,207.577 266.586 C 207.779 266.711,208.058 266.630,208.196 266.407 C 208.334 266.183,208.122 265.973,207.724 265.939 C 207.326 265.906,206.788 265.858,206.528 265.834 C 205.957 265.781,205.400 265.262,205.400 264.784 C 205.400 264.592,205.058 264.184,204.639 263.878 C 204.048 263.446,203.995 263.250,204.401 262.999 C 204.769 262.772,204.828 262.832,204.600 263.200 C 204.386 263.546,204.433 263.627,204.738 263.438 C 204.992 263.281,205.200 263.343,205.200 263.576 C 205.200 263.809,205.408 264.000,205.662 264.000 C 205.927 264.000,205.819 263.664,205.412 263.213 C 204.867 262.611,204.525 262.519,203.959 262.822 C 203.375 263.134,203.266 263.094,203.443 262.633 C 203.566 262.310,203.967 261.971,204.334 261.877 C 204.700 261.784,204.514 261.767,203.919 261.840 C 202.376 262.029,200.988 261.188,201.044 260.100 C 201.070 259.605,200.925 259.200,200.722 259.200 C 200.519 259.200,200.475 259.002,200.625 258.760 C 200.807 258.465,200.604 258.477,200.010 258.794 C 199.217 259.219,199.150 259.187,199.373 258.484 C 199.576 257.844,199.433 257.700,198.594 257.700 C 197.317 257.700,197.100 257.489,197.100 256.248 C 197.100 255.574,196.925 255.330,196.547 255.476 C 196.158 255.625,196.024 255.408,196.097 254.744 C 196.182 253.966,196.034 253.818,195.256 253.903 C 194.541 253.981,194.371 253.854,194.554 253.377 C 194.731 252.915,194.610 252.805,194.097 252.965 C 193.067 253.285,192.300 252.633,192.300 251.434 C 192.300 250.567,192.160 250.422,191.516 250.627 C 190.813 250.850,190.781 250.783,191.206 249.990 C 191.523 249.396,191.535 249.193,191.240 249.375 C 190.998 249.525,190.800 249.481,190.800 249.278 C 190.800 249.075,190.395 248.930,189.900 248.956 C 188.812 249.012,187.971 247.624,188.160 246.081 C 188.233 245.486,188.216 245.300,188.123 245.666 C 188.029 246.033,187.690 246.434,187.367 246.557 C 186.906 246.734,186.866 246.625,187.178 246.041 C 187.481 245.475,187.389 245.133,186.787 244.588 C 186.336 244.181,186.000 244.073,186.000 244.338 C 186.000 244.592,186.191 244.800,186.424 244.800 C 186.657 244.800,186.719 245.008,186.562 245.262 C 186.373 245.567,186.454 245.614,186.800 245.400 C 187.168 245.172,187.228 245.231,187.001 245.599 C 186.750 246.005,186.552 245.952,186.111 245.361 C 185.799 244.942,185.398 244.638,185.219 244.684 C 185.041 244.730,184.559 244.384,184.148 243.915 C 183.736 243.446,183.656 243.213,183.968 243.397 C 184.398 243.650,184.471 243.561,184.268 243.033 C 184.121 242.649,184.000 242.159,184.000 241.944 C 184.000 241.729,183.817 241.666,183.593 241.804 C 183.370 241.942,183.289 242.221,183.414 242.423 C 183.539 242.625,183.363 242.684,183.023 242.554 C 182.683 242.423,182.495 242.170,182.605 241.992 C 182.715 241.814,182.579 241.577,182.302 241.466 C 182.026 241.354,182.340 241.228,183.000 241.185 C 183.712 241.139,183.915 241.033,183.500 240.924 C 183.115 240.824,182.800 240.547,182.800 240.309 C 182.800 240.071,182.409 240.219,181.932 240.638 C 181.170 241.307,181.095 241.316,181.315 240.713 C 181.452 240.335,181.365 239.902,181.121 239.751 C 180.852 239.585,180.789 239.659,180.962 239.938 C 181.119 240.192,181.036 240.400,180.777 240.400 C 180.504 240.400,180.394 240.065,180.516 239.600 C 180.631 239.161,180.551 238.693,180.339 238.562 C 180.123 238.429,180.255 238.102,180.637 237.823 C 181.177 237.428,181.211 237.254,180.799 236.999 C 180.454 236.786,180.373 236.833,180.562 237.138 C 180.719 237.392,180.672 237.600,180.457 237.600 C 180.242 237.600,179.960 237.375,179.829 237.100 C 179.699 236.825,179.678 237.178,179.783 237.884 C 179.888 238.591,179.800 239.277,179.587 239.408 C 179.374 239.540,179.200 239.266,179.200 238.800 C 179.200 238.282,179.028 238.059,178.757 238.226 C 178.462 238.409,178.401 238.228,178.573 237.684 C 178.861 236.777,178.221 236.119,177.766 236.855 C 177.573 237.167,177.651 237.216,178.000 237.000 C 178.347 236.786,178.427 236.833,178.238 237.139 C 177.905 237.678,176.400 237.042,176.400 236.362 C 176.400 236.137,176.608 236.081,176.862 236.238 C 177.150 236.416,177.215 236.348,177.034 236.055 C 176.875 235.798,176.598 235.678,176.418 235.789 C 176.238 235.900,175.883 235.741,175.629 235.434 C 175.277 235.011,175.284 234.839,175.655 234.715 C 175.939 234.620,176.032 234.261,175.878 233.859 C 175.660 233.291,175.460 233.247,174.776 233.613 C 174.000 234.028,173.973 233.997,174.410 233.182 C 174.741 232.562,174.748 232.385,174.431 232.581 C 173.721 233.020,171.600 231.894,171.600 231.079 C 171.600 230.679,171.778 230.463,171.995 230.597 C 172.226 230.740,172.287 230.570,172.141 230.191 C 171.966 229.735,171.606 229.612,170.936 229.780 C 170.087 229.993,170.007 229.913,170.220 229.064 C 170.388 228.394,170.265 228.034,169.809 227.859 C 169.430 227.713,169.260 227.774,169.403 228.005 C 169.537 228.222,169.321 228.400,168.921 228.400 C 168.106 228.400,166.980 226.279,167.419 225.569 C 167.615 225.252,167.438 225.259,166.818 225.590 C 166.003 226.027,165.972 226.000,166.387 225.224 C 166.753 224.540,166.709 224.340,166.141 224.122 C 165.739 223.968,165.380 224.061,165.285 224.345 C 165.161 224.716,164.989 224.723,164.566 224.371 C 164.259 224.117,164.100 223.762,164.211 223.582 C 164.322 223.402,164.202 223.125,163.945 222.966 C 163.652 222.785,163.584 222.850,163.762 223.138 C 163.919 223.392,163.863 223.600,163.638 223.600 C 162.958 223.600,162.322 222.095,162.861 221.762 C 163.167 221.573,163.214 221.653,163.000 222.000 C 162.784 222.349,162.833 222.427,163.145 222.234 C 163.881 221.779,163.223 221.139,162.316 221.427 C 161.772 221.599,161.591 221.538,161.774 221.243 C 161.941 220.972,161.718 220.800,161.200 220.800 C 160.734 220.800,160.460 220.626,160.592 220.413 C 160.723 220.200,161.409 220.112,162.116 220.217 C 162.822 220.322,163.175 220.301,162.900 220.171 C 162.625 220.040,162.400 219.758,162.400 219.543 C 162.400 219.328,162.608 219.281,162.862 219.438 C 163.167 219.627,163.214 219.546,163.001 219.201 C 162.746 218.789,162.572 218.823,162.177 219.363 C 161.898 219.745,161.571 219.877,161.438 219.661 C 161.307 219.449,160.839 219.369,160.400 219.484 C 159.935 219.606,159.600 219.496,159.600 219.223 C 159.600 218.964,159.808 218.881,160.062 219.038 C 160.341 219.211,160.415 219.148,160.249 218.879 C 160.098 218.635,159.665 218.548,159.287 218.685 C 158.684 218.905,158.693 218.830,159.362 218.068 C 159.781 217.591,159.929 217.200,159.691 217.200 C 159.453 217.200,159.176 216.885,159.076 216.500 C 158.967 216.085,158.861 216.288,158.815 217.000 C 158.772 217.660,158.646 217.974,158.534 217.698 C 158.423 217.421,158.186 217.285,158.008 217.395 C 157.830 217.505,157.577 217.317,157.446 216.977 C 157.316 216.637,157.375 216.461,157.577 216.586 C 157.779 216.711,158.058 216.630,158.196 216.407 C 158.334 216.183,158.122 215.973,157.724 215.939 C 157.326 215.906,156.788 215.858,156.528 215.834 C 155.957 215.781,155.400 215.262,155.400 214.784 C 155.400 214.592,155.058 214.184,154.639 213.878 C 154.048 213.446,153.995 213.250,154.401 212.999 C 154.769 212.772,154.828 212.832,154.600 213.200 C 154.386 213.546,154.433 213.627,154.738 213.438 C 154.992 213.281,155.200 213.343,155.200 213.576 C 155.200 213.809,155.408 214.000,155.662 214.000 C 155.927 214.000,155.819 213.664,155.412 213.213 C 154.867 212.611,154.525 212.519,153.959 212.822 C 153.375 213.134,153.266 213.094,153.443 212.633 C 153.566 212.310,153.967 211.971,154.334 211.879 C 154.700 211.787,154.433 211.781,153.739 211.867 C 152.944 211.964,152.243 211.785,151.839 211.382 C 151.076 210.619,151.004 210.238,151.700 210.645 C 151.975 210.806,151.885 210.577,151.500 210.137 C 150.784 209.318,150.550 208.598,151.114 208.947 C 151.287 209.054,151.429 208.801,151.429 208.386 C 151.429 207.722,151.352 207.700,150.794 208.205 C 150.151 208.787,148.492 207.641,149.100 207.034 C 149.318 206.815,148.579 206.644,147.893 206.755 C 147.607 206.801,147.539 206.022,147.617 203.600 C 147.658 202.347,147.650 202.178,147.461 200.100 C 147.375 199.159,147.480 198.400,147.695 198.400 C 147.909 198.400,148.016 197.690,147.934 196.823 C 147.814 195.572,147.930 195.207,148.492 195.060 C 149.401 194.822,149.406 194.113,148.500 193.876 C 148.069 193.763,148.223 193.675,148.900 193.646 C 149.805 193.608,150.000 193.416,150.000 192.563 C 150.000 191.847,150.259 191.457,150.834 191.307 C 151.468 191.141,151.540 191.008,151.134 190.751 C 150.753 190.509,150.740 190.410,151.087 190.406 C 151.377 190.402,151.471 190.130,151.319 189.734 C 151.149 189.290,151.218 189.164,151.527 189.355 C 151.840 189.548,151.905 189.417,151.726 188.951 C 151.521 188.416,151.616 188.321,152.151 188.526 C 152.585 188.692,152.745 188.634,152.581 188.370 C 152.412 188.096,152.789 188.008,153.661 188.119 C 154.397 188.212,154.700 188.213,154.334 188.121 C 153.967 188.029,153.566 187.690,153.443 187.367 C 153.266 186.906,153.375 186.866,153.959 187.178 C 154.525 187.481,154.867 187.389,155.412 186.787 C 155.819 186.336,155.927 186.000,155.662 186.000 C 155.408 186.000,155.200 186.191,155.200 186.424 C 155.200 186.657,154.992 186.719,154.738 186.562 C 154.433 186.373,154.386 186.454,154.600 186.800 C 154.828 187.168,154.769 187.228,154.401 187.001 C 153.995 186.750,154.048 186.554,154.639 186.122 C 155.058 185.816,155.400 185.408,155.400 185.216 C 155.400 184.738,155.957 184.219,156.528 184.166 C 156.788 184.142,157.326 184.094,157.724 184.061 C 158.122 184.027,158.334 183.817,158.196 183.593 C 158.058 183.370,157.779 183.289,157.577 183.414 C 157.375 183.539,157.316 183.363,157.446 183.023 C 157.577 182.683,157.830 182.495,158.008 182.605 C 158.186 182.715,158.423 182.579,158.534 182.302 C 158.646 182.026,158.772 182.340,158.815 183.000 C 158.861 183.712,158.967 183.915,159.076 183.500 C 159.176 183.115,159.453 182.800,159.691 182.800 C 159.929 182.800,159.781 182.409,159.362 181.932 C 158.693 181.170,158.684 181.095,159.287 181.315 C 159.665 181.452,160.098 181.365,160.249 181.121 C 160.415 180.852,160.341 180.789,160.062 180.962 C 159.808 181.119,159.600 181.036,159.600 180.777 C 159.600 180.504,159.935 180.394,160.400 180.516 C 160.839 180.631,161.307 180.551,161.438 180.339 C 161.571 180.123,161.898 180.255,162.177 180.637 C 162.572 181.177,162.746 181.211,163.001 180.799 C 163.214 180.454,163.167 180.373,162.862 180.562 C 162.608 180.719,162.400 180.672,162.400 180.457 C 162.400 180.242,162.625 179.960,162.900 179.829 C 163.175 179.699,162.822 179.678,162.116 179.783 C 161.409 179.888,160.723 179.800,160.592 179.587 C 160.460 179.374,160.734 179.200,161.200 179.200 C 161.718 179.200,161.941 179.028,161.774 178.757 C 161.591 178.462,161.772 178.401,162.316 178.573 C 163.223 178.861,163.881 178.221,163.145 177.766 C 162.833 177.573,162.784 177.651,163.000 178.000 C 163.214 178.347,163.167 178.427,162.861 178.238 C 162.322 177.905,162.958 176.400,163.638 176.400 C 163.863 176.400,163.919 176.608,163.762 176.862 C 163.584 177.150,163.652 177.215,163.945 177.034 C 164.202 176.875,164.322 176.598,164.211 176.418 C 164.100 176.238,164.277 175.868,164.604 175.596 C 165.018 175.253,165.200 175.239,165.200 175.551 C 165.200 176.105,166.263 176.146,166.597 175.605 C 166.744 175.367,166.554 175.317,166.121 175.479 C 165.514 175.707,165.479 175.653,165.897 175.138 C 166.170 174.802,166.275 174.408,166.130 174.263 C 165.985 174.118,165.974 174.000,166.105 174.000 C 167.103 174.000,167.608 175.331,166.919 176.148 L 166.200 177.000 167.087 176.250 C 167.794 175.652,167.891 175.343,167.562 174.730 C 167.012 173.701,167.924 171.600,168.921 171.600 C 169.321 171.600,169.537 171.778,169.403 171.995 C 169.260 172.226,169.430 172.287,169.809 172.141 C 170.265 171.966,170.388 171.606,170.220 170.936 C 170.007 170.087,170.087 170.007,170.936 170.220 C 171.606 170.388,171.966 170.265,172.141 169.809 C 172.287 169.430,172.226 169.260,171.995 169.403 C 171.778 169.537,171.600 169.321,171.600 168.921 C 171.600 167.924,173.701 167.012,174.730 167.562 C 175.343 167.891,175.652 167.794,176.250 167.087 L 177.000 166.200 176.148 166.919 C 175.331 167.608,174.000 167.103,174.000 166.105 C 174.000 165.974,174.118 165.985,174.263 166.130 C 174.408 166.275,174.802 166.170,175.138 165.897 C 175.653 165.479,175.707 165.514,175.479 166.121 C 175.317 166.554,175.367 166.744,175.605 166.597 C 176.146 166.263,176.105 165.200,175.551 165.200 C 175.239 165.200,175.253 165.018,175.596 164.604 C 175.868 164.277,176.238 164.100,176.418 164.211 C 176.598 164.322,176.875 164.202,177.034 163.945 C 177.215 163.652,177.150 163.584,176.862 163.762 C 176.608 163.919,176.400 163.863,176.400 163.638 C 176.400 162.958,177.905 162.322,178.238 162.861 C 178.427 163.167,178.347 163.214,178.000 163.000 C 177.651 162.784,177.573 162.833,177.766 163.145 C 178.221 163.881,178.861 163.223,178.573 162.316 C 178.401 161.772,178.462 161.591,178.757 161.774 C 179.028 161.941,179.200 161.718,179.200 161.200 C 179.200 160.734,179.374 160.460,179.587 160.592 C 179.800 160.723,179.888 161.409,179.783 162.116 C 179.678 162.822,179.699 163.175,179.829 162.900 C 179.960 162.625,180.242 162.400,180.457 162.400 C 180.672 162.400,180.719 162.608,180.562 162.862 C 180.373 163.167,180.454 163.214,180.799 163.001 C 181.211 162.746,181.177 162.572,180.637 162.177 C 180.255 161.898,180.123 161.571,180.339 161.438 C 180.551 161.307,180.631 160.839,180.516 160.400 C 180.394 159.935,180.504 159.600,180.777 159.600 C 181.036 159.600,181.119 159.808,180.962 160.062 C 180.789 160.341,180.852 160.415,181.121 160.249 C 181.365 160.098,181.452 159.665,181.315 159.287 C 181.095 158.684,181.170 158.693,181.932 159.362 C 182.409 159.781,182.800 159.929,182.800 159.691 C 182.800 159.453,183.115 159.176,183.500 159.076 C 183.915 158.967,183.712 158.861,183.000 158.815 C 182.340 158.772,182.026 158.646,182.302 158.534 C 182.579 158.423,182.715 158.186,182.605 158.008 C 182.495 157.830,182.683 157.577,183.023 157.446 C 183.363 157.316,183.539 157.375,183.414 157.577 C 183.289 157.779,183.370 158.058,183.593 158.196 C 183.817 158.334,184.027 158.122,184.061 157.724 C 184.094 157.326,184.142 156.788,184.166 156.528 C 184.219 155.957,184.738 155.400,185.216 155.400 C 185.408 155.400,185.816 155.058,186.122 154.639 C 186.554 154.048,186.750 153.995,187.001 154.401 C 187.228 154.769,187.168 154.828,186.800 154.600 C 186.454 154.386,186.373 154.433,186.562 154.738 C 186.719 154.992,186.657 155.200,186.424 155.200 C 186.191 155.200,186.000 155.408,186.000 155.662 C 186.000 155.927,186.336 155.819,186.787 155.412 C 187.389 154.867,187.481 154.525,187.178 153.959 C 186.866 153.375,186.906 153.266,187.367 153.443 C 187.690 153.566,188.029 153.967,188.123 154.334 C 188.216 154.700,188.233 154.514,188.160 153.919 C 187.971 152.376,188.812 150.988,189.900 151.044 C 190.395 151.070,190.800 150.925,190.800 150.722 C 190.800 150.519,190.998 150.475,191.240 150.625 C 191.535 150.807,191.523 150.604,191.206 150.010 C 190.773 149.202,190.807 149.148,191.591 149.397 C 192.191 149.588,192.429 149.508,192.378 149.135 C 192.129 147.310,193.153 146.331,194.308 147.290 C 194.829 147.722,194.875 147.666,194.631 146.897 C 194.387 146.130,194.480 146.014,195.273 146.100 C 196.028 146.181,196.181 146.028,196.100 145.273 C 196.014 144.480,196.130 144.387,196.897 144.631 C 197.666 144.875,197.722 144.829,197.290 144.308 C 196.331 143.153,197.310 142.129,199.135 142.378 C 199.508 142.429,199.588 142.191,199.397 141.591 C 199.148 140.807,199.202 140.773,200.010 141.206 C 200.604 141.523,200.807 141.535,200.625 141.240 C 200.475 140.998,200.519 140.800,200.722 140.800 C 200.925 140.800,201.070 140.395,201.044 139.900 C 200.988 138.812,202.376 137.971,203.919 138.160 C 204.514 138.233,204.700 138.216,204.334 138.123 C 203.967 138.029,203.566 137.690,203.443 137.367 C 203.266 136.906,203.375 136.866,203.959 137.178 C 204.525 137.481,204.867 137.389,205.412 136.787 C 205.819 136.336,205.927 136.000,205.662 136.000 C 205.408 136.000,205.200 136.191,205.200 136.424 C 205.200 136.657,204.992 136.719,204.738 136.562 C 204.433 136.373,204.386 136.454,204.600 136.800 C 204.828 137.168,204.769 137.228,204.401 137.001 C 203.995 136.750,204.048 136.554,204.639 136.122 C 205.058 135.816,205.400 135.408,205.400 135.216 C 205.400 134.738,205.957 134.219,206.528 134.166 C 206.788 134.142,207.326 134.094,207.724 134.061 C 208.122 134.027,208.334 133.817,208.196 133.593 C 208.058 133.370,207.779 133.289,207.577 133.414 C 207.375 133.539,207.316 133.363,207.446 133.023 C 207.577 132.683,207.830 132.495,208.008 132.605 C 208.186 132.715,208.423 132.579,208.534 132.302 C 208.646 132.026,208.772 132.340,208.815 133.000 C 208.861 133.712,208.967 133.915,209.076 133.500 C 209.176 133.115,209.453 132.800,209.691 132.800 C 209.929 132.800,209.781 132.409,209.362 131.932 C 208.693 131.170,208.684 131.095,209.287 131.315 C 209.665 131.452,210.098 131.365,210.249 131.121 C 210.415 130.852,210.341 130.789,210.062 130.962 C 209.808 131.119,209.600 131.036,209.600 130.777 C 209.600 130.504,209.935 130.394,210.400 130.516 C 210.839 130.631,211.307 130.551,211.438 130.339 C 211.571 130.123,211.898 130.255,212.177 130.637 C 212.572 131.177,212.746 131.211,213.001 130.799 C 213.214 130.454,213.167 130.373,212.862 130.562 C 212.608 130.719,212.400 130.672,212.400 130.457 C 212.400 130.242,212.625 129.960,212.900 129.829 C 213.175 129.699,212.822 129.678,212.116 129.783 C 211.409 129.888,210.723 129.800,210.592 129.587 C 210.460 129.374,210.734 129.200,211.200 129.200 C 211.718 129.200,211.941 129.028,211.774 128.757 C 211.591 128.462,211.772 128.401,212.316 128.573 C 213.223 128.861,213.881 128.221,213.145 127.766 C 212.833 127.573,212.784 127.651,213.000 128.000 C 213.214 128.347,213.167 128.427,212.861 128.238 C 212.322 127.905,212.958 126.400,213.638 126.400 C 213.863 126.400,213.919 126.608,213.762 126.862 C 213.584 127.150,213.652 127.215,213.945 127.034 C 214.202 126.875,214.322 126.598,214.211 126.418 C 214.100 126.238,214.277 125.868,214.604 125.596 C 215.018 125.253,215.200 125.239,215.200 125.551 C 215.200 126.105,216.263 126.146,216.597 125.605 C 216.744 125.367,216.554 125.317,216.121 125.479 C 215.514 125.707,215.479 125.653,215.897 125.138 C 216.170 124.802,216.275 124.408,216.130 124.263 C 215.985 124.118,215.974 124.000,216.105 124.000 C 217.103 124.000,217.608 125.331,216.919 126.148 L 216.200 127.000 217.087 126.250 C 217.794 125.652,217.891 125.343,217.562 124.730 C 217.012 123.701,217.924 121.600,218.921 121.600 C 219.321 121.600,219.537 121.778,219.403 121.995 C 219.260 122.226,219.430 122.287,219.809 122.141 C 220.265 121.966,220.388 121.606,220.220 120.936 C 220.007 120.087,220.087 120.007,220.936 120.220 C 221.606 120.388,221.966 120.265,222.141 119.809 C 222.287 119.430,222.226 119.260,221.995 119.403 C 221.778 119.537,221.600 119.321,221.600 118.921 C 221.600 117.924,223.701 117.012,224.730 117.562 C 225.343 117.891,225.652 117.794,226.250 117.087 L 227.000 116.200 226.148 116.919 C 225.331 117.608,224.000 117.103,224.000 116.105 C 224.000 115.974,224.118 115.985,224.263 116.130 C 224.408 116.275,224.802 116.170,225.138 115.897 C 225.653 115.479,225.707 115.514,225.479 116.121 C 225.317 116.554,225.367 116.744,225.605 116.597 C 226.146 116.263,226.105 115.200,225.551 115.200 C 225.239 115.200,225.253 115.018,225.596 114.604 C 225.868 114.277,226.238 114.100,226.418 114.211 C 226.598 114.322,226.875 114.202,227.034 113.945 C 227.215 113.652,227.150 113.584,226.862 113.762 C 226.608 113.919,226.400 113.863,226.400 113.638 C 226.400 112.958,227.905 112.322,228.238 112.861 C 228.427 113.167,228.347 113.214,228.000 113.000 C 227.651 112.784,227.573 112.833,227.766 113.145 C 228.221 113.881,228.861 113.223,228.573 112.316 C 228.401 111.772,228.462 111.591,228.757 111.774 C 229.028 111.941,229.200 111.718,229.200 111.200 C 229.200 110.734,229.374 110.460,229.587 110.592 C 229.800 110.723,229.888 111.409,229.783 112.116 C 229.678 112.822,229.699 113.175,229.829 112.900 C 229.960 112.625,230.242 112.400,230.457 112.400 C 230.672 112.400,230.719 112.608,230.562 112.862 C 230.373 113.167,230.454 113.214,230.799 113.001 C 231.211 112.746,231.177 112.572,230.637 112.177 C 230.255 111.898,230.123 111.571,230.339 111.438 C 230.551 111.307,230.631 110.839,230.516 110.400 C 230.394 109.935,230.504 109.600,230.777 109.600 C 231.036 109.600,231.119 109.808,230.962 110.062 C 230.789 110.341,230.852 110.415,231.121 110.249 C 231.365 110.098,231.452 109.665,231.315 109.287 C 231.095 108.684,231.170 108.693,231.932 109.362 C 232.409 109.781,232.800 109.929,232.800 109.691 C 232.800 109.453,233.115 109.176,233.500 109.076 C 233.915 108.967,233.712 108.861,233.000 108.815 C 232.340 108.772,232.026 108.646,232.302 108.534 C 232.579 108.423,232.715 108.186,232.605 108.008 C 232.495 107.830,232.683 107.577,233.023 107.446 C 233.363 107.316,233.539 107.375,233.414 107.577 C 233.289 107.779,233.370 108.058,233.593 108.196 C 233.817 108.334,234.027 108.122,234.061 107.724 C 234.094 107.326,234.142 106.788,234.166 106.528 C 234.219 105.957,234.738 105.400,235.216 105.400 C 235.408 105.400,235.816 105.058,236.122 104.639 C 236.554 104.048,236.750 103.995,237.001 104.401 C 237.228 104.769,237.168 104.828,236.800 104.600 C 236.454 104.386,236.373 104.433,236.562 104.738 C 236.719 104.992,236.657 105.200,236.424 105.200 C 236.191 105.200,236.000 105.408,236.000 105.662 C 236.000 105.927,236.336 105.819,236.787 105.412 C 237.389 104.867,237.481 104.525,237.178 103.959 C 236.866 103.375,236.906 103.266,237.367 103.443 C 237.690 103.566,238.029 103.967,238.123 104.334 C 238.216 104.700,238.233 104.514,238.160 103.919 C 237.971 102.376,238.812 100.988,239.900 101.044 C 240.395 101.070,240.800 100.925,240.800 100.722 C 240.800 100.519,240.998 100.475,241.240 100.625 C 241.535 100.807,241.523 100.604,241.206 100.010 C 240.773 99.202,240.807 99.148,241.591 99.397 C 242.191 99.588,242.429 99.508,242.378 99.135 C 242.129 97.310,243.153 96.331,244.308 97.290 C 244.829 97.722,244.875 97.666,244.631 96.897 C 244.387 96.130,244.480 96.014,245.273 96.100 C 246.028 96.181,246.181 96.028,246.100 95.273 C 246.014 94.480,246.130 94.387,246.897 94.631 C 247.666 94.875,247.722 94.829,247.290 94.308 C 246.331 93.153,247.310 92.129,249.135 92.378 C 249.508 92.429,249.588 92.191,249.397 91.591 C 249.148 90.807,249.202 90.773,250.010 91.206 C 250.604 91.523,250.807 91.535,250.625 91.240 C 250.475 90.998,250.519 90.800,250.722 90.800 C 250.925 90.800,251.070 90.395,251.044 89.900 C 250.988 88.812,252.376 87.971,253.919 88.160 C 254.514 88.233,254.700 88.216,254.334 88.123 C 253.967 88.029,253.566 87.690,253.443 87.367 C 253.266 86.906,253.375 86.866,253.959 87.178 C 254.525 87.481,254.867 87.389,255.412 86.787 C 255.819 86.336,255.927 86.000,255.662 86.000 C 255.408 86.000,255.200 86.191,255.200 86.424 C 255.200 86.657,254.992 86.719,254.738 86.562 C 254.433 86.373,254.386 86.454,254.600 86.800 C 254.828 87.168,254.769 87.228,254.401 87.001 C 253.995 86.750,254.048 86.554,254.639 86.122 C 255.058 85.816,255.400 85.408,255.400 85.216 C 255.400 84.738,255.957 84.219,256.528 84.166 C 256.788 84.142,257.326 84.094,257.724 84.061 C 258.122 84.027,258.334 83.817,258.196 83.593 C 258.058 83.370,257.779 83.289,257.577 83.414 C 257.375 83.539,257.316 83.363,257.446 83.023 C 257.577 82.683,257.830 82.495,258.008 82.605 C 258.186 82.715,258.423 82.579,258.534 82.302 C 258.646 82.026,258.772 82.340,258.815 83.000 C 258.861 83.712,258.967 83.915,259.076 83.500 C 259.176 83.115,259.453 82.800,259.691 82.800 C 259.929 82.800,259.781 82.409,259.362 81.932 C 258.702 81.180,258.691 81.097,259.280 81.312 C 259.787 81.497,259.897 81.396,259.712 80.914 C 259.547 80.484,259.620 80.365,259.932 80.558 C 260.189 80.717,260.400 80.685,260.400 80.488 C 260.400 79.928,262.331 79.166,262.609 79.615 C 262.740 79.827,262.627 80.000,262.357 80.000 C 262.087 80.000,261.975 80.108,262.107 80.240 C 262.766 80.900,263.207 79.870,262.637 79.001 C 262.029 78.072,262.408 77.852,263.472 78.518 C 263.732 78.680,264.075 78.602,264.234 78.345 C 264.393 78.087,264.354 77.981,264.148 78.109 C 263.928 78.245,263.776 77.275,263.783 75.771 C 263.789 74.357,263.941 73.200,264.121 73.200 C 264.300 73.200,264.319 72.993,264.162 72.739 C 264.006 72.486,264.210 72.036,264.615 71.739 C 265.158 71.342,265.201 71.198,264.776 71.194 C 264.282 71.189,264.283 71.135,264.787 70.817 C 265.163 70.579,265.593 70.610,265.987 70.904 C 266.497 71.284,266.516 71.267,266.100 70.801 C 265.505 70.133,265.434 69.450,265.995 69.797 C 266.225 69.939,266.287 69.772,266.144 69.398 C 266.008 69.044,265.641 68.852,265.328 68.972 C 265.012 69.093,264.867 69.014,265.003 68.795 C 265.329 68.267,266.400 68.289,266.400 68.824 C 266.400 69.057,266.603 69.122,266.851 68.968 C 267.160 68.778,267.097 68.574,266.651 68.325 C 266.293 68.124,266.000 67.779,266.000 67.557 C 266.000 67.334,266.208 67.281,266.462 67.438 C 266.767 67.627,266.814 67.546,266.601 67.201 C 266.397 66.872,266.551 66.479,267.015 66.139 C 267.421 65.843,267.561 65.600,267.325 65.600 C 267.090 65.600,266.674 65.870,266.400 66.200 C 265.878 66.829,265.166 67.014,265.247 66.500 C 265.425 65.377,265.168 64.631,264.800 65.200 C 264.397 65.823,264.343 65.576,264.245 62.700 C 264.225 62.095,264.100 61.600,263.968 61.600 C 263.375 61.600,262.870 59.689,263.331 59.190 C 263.700 58.791,263.650 58.735,263.100 58.929 C 262.559 59.119,262.400 58.956,262.400 58.211 C 262.400 57.113,261.798 56.556,261.366 57.255 C 261.173 57.567,261.251 57.616,261.600 57.400 C 261.949 57.184,262.027 57.233,261.834 57.545 C 261.675 57.802,261.365 57.902,261.146 57.766 C 260.926 57.631,260.848 57.419,260.971 57.296 C 261.094 57.172,260.791 56.871,260.298 56.626 C 259.804 56.381,259.344 55.789,259.275 55.312 C 259.202 54.802,258.940 54.525,258.639 54.640 C 258.358 54.748,257.897 54.558,257.615 54.218 C 257.333 53.878,256.764 53.600,256.351 53.600 C 255.480 53.600,255.391 53.183,256.100 52.428 C 256.375 52.136,256.120 52.200,255.533 52.572 C 254.524 53.212,254.444 53.209,254.046 52.524 C 253.651 51.846,253.624 51.845,253.612 52.503 C 253.602 53.106,253.486 53.135,252.800 52.707 C 252.169 52.313,251.835 52.310,251.219 52.696 C 250.727 53.003,250.347 53.039,250.195 52.792 C 250.062 52.576,249.773 52.400,249.553 52.400 C 249.333 52.400,249.276 52.599,249.426 52.843 C 249.604 53.129,249.435 53.209,248.950 53.068 C 247.211 52.565,242.644 52.624,242.967 53.147 C 243.085 53.337,242.863 53.781,242.475 54.132 C 241.822 54.723,241.764 54.711,241.708 53.977 C 241.675 53.540,241.818 53.287,242.024 53.415 C 242.574 53.755,242.483 53.226,241.889 52.631 C 241.473 52.216,241.282 52.222,240.873 52.660 M233.637 63.177 C 233.340 63.360,233.214 63.698,233.355 63.928 C 233.497 64.157,233.444 64.449,233.237 64.577 C 232.588 64.978,232.539 63.424,233.185 62.933 C 233.522 62.676,233.884 62.550,233.988 62.654 C 234.092 62.758,233.934 62.994,233.637 63.177 M214.583 83.228 C 214.468 83.413,214.110 83.464,213.787 83.340 C 213.464 83.216,213.200 83.314,213.200 83.557 C 213.200 83.801,213.018 84.000,212.797 84.000 C 212.548 84.000,212.572 83.714,212.859 83.254 C 213.138 82.807,213.620 82.585,214.058 82.699 C 214.461 82.805,214.697 83.043,214.583 83.228 M183.637 113.177 C 183.340 113.360,183.214 113.698,183.355 113.928 C 183.497 114.157,183.444 114.449,183.237 114.577 C 182.588 114.978,182.539 113.424,183.185 112.933 C 183.522 112.676,183.884 112.550,183.988 112.654 C 184.092 112.758,183.934 112.994,183.637 113.177 M164.583 133.228 C 164.468 133.413,164.110 133.464,163.787 133.340 C 163.464 133.216,163.200 133.314,163.200 133.557 C 163.200 133.801,163.018 134.000,162.797 134.000 C 162.548 134.000,162.572 133.714,162.859 133.254 C 163.138 132.807,163.620 132.585,164.058 132.699 C 164.461 132.805,164.697 133.043,164.583 133.228 M133.637 163.177 C 133.340 163.360,133.214 163.698,133.355 163.928 C 133.497 164.157,133.444 164.449,133.237 164.577 C 132.588 164.978,132.539 163.424,133.185 162.933 C 133.522 162.676,133.884 162.550,133.988 162.654 C 134.092 162.758,133.934 162.994,133.637 163.177 M125.187 170.017 C 124.734 170.303,124.828 170.391,125.600 170.400 C 126.393 170.410,126.476 170.492,126.000 170.800 C 125.639 171.033,125.590 171.190,125.876 171.194 C 126.610 171.203,126.850 170.539,126.282 170.068 C 125.960 169.801,125.558 169.782,125.187 170.017 M150.602 191.997 C 150.467 192.215,150.541 192.710,150.766 193.097 C 150.991 193.484,151.195 193.620,151.218 193.400 C 151.242 193.180,151.322 192.685,151.395 192.300 C 151.539 191.548,151.005 191.344,150.602 191.997 M116.432 197.924 C 116.414 198.212,116.222 198.337,116.005 198.203 C 115.774 198.061,115.713 198.229,115.858 198.606 C 116.020 199.029,116.242 199.118,116.498 198.862 C 116.714 198.646,116.794 198.229,116.677 197.935 C 116.505 197.506,116.457 197.504,116.432 197.924 M116.407 202.943 C 116.902 203.597,116.878 203.754,116.208 204.243 C 115.790 204.549,115.639 204.800,115.875 204.800 C 116.906 204.800,117.357 203.584,116.588 202.880 C 115.881 202.234,115.872 202.237,116.407 202.943 M149.606 206.900 C 149.609 207.175,149.801 207.670,150.032 208.000 C 150.356 208.463,150.391 208.383,150.183 207.650 C 149.983 206.943,150.043 206.780,150.419 207.012 C 150.747 207.214,150.824 207.162,150.638 206.862 C 150.259 206.248,149.598 206.272,149.606 206.900 M126.000 229.200 C 126.509 229.529,126.490 229.589,125.876 229.594 C 125.474 229.597,125.268 229.786,125.412 230.019 C 125.589 230.307,125.848 230.292,126.231 229.974 C 126.841 229.468,126.637 228.796,125.876 228.806 C 125.590 228.810,125.639 228.967,126.000 229.200 M133.340 236.213 C 133.216 236.536,133.314 236.800,133.557 236.800 C 133.801 236.800,134.000 236.982,134.000 237.203 C 134.000 237.452,133.714 237.428,133.254 237.141 C 132.807 236.862,132.585 236.380,132.699 235.942 C 132.805 235.539,133.043 235.303,133.228 235.417 C 133.413 235.532,133.464 235.890,133.340 236.213 M163.200 266.443 C 163.200 266.686,163.464 266.784,163.787 266.660 C 164.110 266.536,164.468 266.587,164.583 266.772 C 164.697 266.957,164.461 267.195,164.058 267.301 C 163.620 267.415,163.138 267.193,162.859 266.746 C 162.572 266.286,162.548 266.000,162.797 266.000 C 163.018 266.000,163.200 266.199,163.200 266.443 M183.340 286.213 C 183.216 286.536,183.314 286.800,183.557 286.800 C 183.801 286.800,184.000 286.982,184.000 287.203 C 184.000 287.452,183.714 287.428,183.254 287.141 C 182.807 286.862,182.585 286.380,182.699 285.942 C 182.805 285.539,183.043 285.303,183.228 285.417 C 183.413 285.532,183.464 285.890,183.340 286.213 M213.200 316.443 C 213.200 316.686,213.464 316.784,213.787 316.660 C 214.110 316.536,214.468 316.587,214.583 316.772 C 214.697 316.957,214.461 317.195,214.058 317.301 C 213.620 317.415,213.138 317.193,212.859 316.746 C 212.572 316.286,212.548 316.000,212.797 316.000 C 213.018 316.000,213.200 316.199,213.200 316.443 M264.958 334.067 C 264.772 334.369,264.856 334.413,265.206 334.196 C 265.591 333.958,265.666 334.051,265.481 334.534 C 265.340 334.900,265.405 335.200,265.625 335.200 C 265.845 335.200,266.128 334.931,266.254 334.602 C 266.381 334.274,266.690 334.122,266.942 334.266 C 267.194 334.410,267.260 334.375,267.090 334.187 C 266.595 333.643,265.267 333.569,264.958 334.067 M233.340 336.213 C 233.216 336.536,233.314 336.800,233.557 336.800 C 233.801 336.800,234.000 336.982,234.000 337.203 C 234.000 337.452,233.714 337.428,233.254 337.141 C 232.807 336.862,232.585 336.380,232.699 335.942 C 232.805 335.539,233.043 335.303,233.228 335.417 C 233.413 335.532,233.464 335.890,233.340 336.213 M242.617 345.572 C 242.491 345.777,242.570 346.058,242.793 346.196 C 243.017 346.334,243.200 346.327,243.200 346.179 C 243.200 346.032,243.554 346.336,243.987 346.856 C 244.419 347.375,244.779 347.575,244.787 347.300 C 244.794 347.025,244.590 346.800,244.333 346.800 C 244.077 346.800,243.978 346.689,244.114 346.552 C 244.250 346.416,244.113 346.056,243.810 345.752 C 243.160 345.103,242.929 345.068,242.617 345.572 " stroke="none" fill="#fcfcfc" fill-rule="evenodd"></path><path id="path1" d="" stroke="none" fill="#100fcfc" fill-rule="evenodd"></path><path id="path2" d="" stroke="none" fill="#100fcfc" fill-rule="evenodd"></path><path id="path3" d="" stroke="none" fill="#100fcfc" fill-rule="evenodd"></path><path id="path4" d="" stroke="none" fill="#100fcfc" fill-rule="evenodd"></path></g></svg>