<svg id="svg" version="1.1" xmlns="http://www.w3.org/2000/svg" xmlns:xlink="http://www.w3.org/1999/xlink" width="400" height="355.55555555555554" viewBox="0, 0, 400,355.55555555555554"><g id="svgg"><path id="path0" d="M149.048 97.051 C 148.308 97.791,147.922 98.608,147.745 99.807 C 147.607 100.744,147.210 102.391,146.864 103.467 C 146.107 105.813,145.534 111.651,145.053 121.914 C 144.517 133.344,144.091 137.707,143.277 140.125 C 142.398 142.734,141.732 149.766,141.149 162.585 C 140.883 168.422,140.540 172.422,140.203 173.607 C 138.662 179.020,138.581 179.606,139.302 180.111 C 139.670 180.369,140.654 181.151,141.489 181.848 C 142.323 182.545,143.350 183.191,143.770 183.282 C 146.400 183.853,149.414 184.233,153.815 184.547 C 156.574 184.743,160.147 185.136,161.756 185.418 C 164.227 185.853,164.802 185.858,165.452 185.450 C 165.876 185.185,166.828 184.776,167.568 184.541 C 168.315 184.304,169.265 183.637,169.702 183.044 C 170.532 181.915,172.044 181.019,174.400 180.261 C 175.182 180.009,176.302 179.447,176.889 179.012 C 179.099 177.374,183.962 176.632,192.533 176.627 C 202.422 176.622,206.016 177.248,208.111 179.344 C 208.589 179.821,209.654 180.414,210.479 180.661 C 212.627 181.305,218.344 186.467,219.392 188.709 C 219.826 189.639,220.648 190.802,221.219 191.294 C 221.987 191.955,222.479 192.953,223.113 195.136 C 223.585 196.758,224.366 198.554,224.848 199.128 C 227.380 202.136,227.132 220.417,224.521 223.303 C 224.236 223.618,223.642 225.138,223.201 226.681 C 222.516 229.081,222.220 229.606,221.156 230.322 C 220.405 230.826,219.730 231.677,219.455 232.468 C 218.901 234.057,216.151 236.951,214.272 237.922 C 213.517 238.313,212.391 239.140,211.769 239.760 C 211.015 240.512,209.751 241.170,207.985 241.729 C 206.527 242.191,205.093 242.772,204.800 243.019 C 202.883 244.638,202.101 244.763,193.754 244.782 L 185.729 244.800 183.087 243.464 C 181.634 242.729,179.376 241.807,178.071 241.414 C 176.459 240.928,175.424 240.374,174.846 239.687 C 174.377 239.130,173.299 238.171,172.449 237.556 C 171.600 236.940,170.503 235.838,170.013 235.107 C 169.522 234.376,168.536 233.106,167.820 232.285 C 166.929 231.261,166.283 229.976,165.766 228.196 C 165.164 226.127,164.641 225.185,163.188 223.556 L 161.365 221.511 149.875 221.511 L 138.385 221.511 137.279 222.770 C 136.060 224.159,136.044 224.690,137.084 229.156 C 137.357 230.329,137.688 232.220,137.820 233.358 C 137.972 234.671,138.363 235.840,138.891 236.558 C 140.740 239.075,141.174 239.884,141.394 241.224 C 141.560 242.238,142.050 243.039,143.167 244.125 C 144.016 244.950,144.711 245.812,144.711 246.040 C 144.711 246.730,152.614 254.600,154.039 255.329 C 154.770 255.703,155.615 256.387,155.918 256.850 C 156.221 257.312,157.208 257.973,158.111 258.318 C 159.015 258.663,160.329 259.464,161.032 260.098 C 162.633 261.542,164.257 262.228,166.837 262.550 C 168.100 262.708,169.291 263.124,170.027 263.665 C 172.058 265.159,173.385 265.590,177.145 265.977 C 179.155 266.184,182.833 266.584,185.319 266.866 C 190.536 267.457,197.759 267.534,200.557 267.029 C 201.620 266.837,205.049 266.429,208.178 266.121 C 214.038 265.545,216.889 265.020,216.889 264.515 C 216.889 263.827,219.200 262.680,221.590 262.183 C 223.747 261.734,224.389 261.426,225.449 260.333 C 226.212 259.546,227.487 258.756,228.641 258.357 C 229.780 257.962,231.004 257.208,231.649 256.504 C 232.247 255.851,233.330 255.068,234.055 254.765 C 234.846 254.435,235.718 253.669,236.234 252.852 C 236.707 252.103,237.562 251.296,238.135 251.058 C 238.728 250.813,239.425 250.105,239.755 249.414 C 240.073 248.747,240.938 247.817,241.678 247.347 C 242.702 246.697,243.178 246.047,243.675 244.623 C 244.044 243.567,244.932 242.125,245.714 241.311 C 246.604 240.384,247.291 239.207,247.638 238.013 C 247.935 236.991,248.727 235.499,249.398 234.696 C 250.608 233.248,250.789 232.680,251.717 227.412 C 251.921 226.257,252.492 224.427,252.988 223.345 C 254.899 219.170,255.261 199.702,253.469 197.472 C 253.294 197.256,252.838 196.166,252.454 195.051 C 251.838 193.259,251.561 191.974,250.827 187.485 C 250.725 186.860,250.082 185.678,249.398 184.860 C 248.650 183.965,247.918 182.523,247.563 181.245 C 247.144 179.736,246.680 178.903,245.968 178.376 C 245.416 177.968,244.498 176.827,243.928 175.839 C 242.334 173.077,233.419 164.269,230.808 162.876 C 230.290 162.599,229.442 161.919,228.924 161.364 C 228.406 160.810,227.652 160.356,227.248 160.356 C 225.895 160.356,222.718 158.941,221.712 157.891 C 220.662 156.795,220.136 156.666,213.008 155.759 C 211.363 155.550,208.272 154.955,206.139 154.437 C 202.740 153.612,202.101 153.550,200.953 153.939 C 200.233 154.183,198.364 154.504,196.800 154.653 C 190.883 155.216,183.601 156.960,182.450 158.091 C 181.988 158.544,180.253 159.357,178.593 159.897 C 176.128 160.700,175.479 161.066,175.052 161.893 C 174.716 162.541,173.865 163.201,172.686 163.726 C 171.673 164.177,170.457 164.963,169.982 165.473 C 166.735 168.966,165.078 157.921,167.881 151.467 C 168.669 149.650,169.350 142.899,169.898 131.454 C 170.294 123.179,170.961 121.084,173.689 119.561 L 175.111 118.767 208.897 118.761 L 242.682 118.756 244.008 117.663 L 245.333 116.570 245.333 107.414 C 245.333 97.325,245.406 97.661,242.957 96.400 C 242.393 96.110,229.545 96.000,196.140 96.000 L 150.099 96.000 149.048 97.051 " stroke="none" fill="#f5f7fb" fill-rule="evenodd"></path><path id="path1" d="M148.800 94.739 C 145.823 96.551,144.989 99.601,144.519 110.400 C 144.202 117.684,143.147 128.440,142.078 135.289 C 141.590 138.418,141.021 143.858,140.815 147.378 C 140.019 160.970,139.347 167.429,138.134 173.156 C 136.245 182.072,137.743 184.149,146.734 185.088 C 154.670 185.916,157.196 186.293,159.644 187.016 C 163.878 188.266,164.885 188.309,165.974 187.287 C 166.502 186.792,167.770 185.969,168.794 185.458 C 169.817 184.946,170.911 184.135,171.226 183.655 C 171.603 183.080,172.786 182.413,174.699 181.696 C 176.294 181.099,178.400 180.230,179.378 179.766 C 183.032 178.031,183.550 177.960,192.533 177.966 C 201.872 177.972,204.768 178.407,206.578 180.075 C 207.067 180.526,208.251 181.235,209.209 181.651 C 212.307 182.996,216.835 187.219,218.684 190.489 C 219.264 191.516,219.894 192.356,220.084 192.356 C 220.722 192.356,221.502 193.984,222.224 196.823 C 222.619 198.375,223.248 200.061,223.621 200.570 C 226.032 203.857,225.926 216.274,223.442 221.636 C 223.000 222.588,222.436 224.391,222.187 225.643 C 221.799 227.597,221.517 228.123,220.195 229.362 C 219.349 230.155,218.352 231.394,217.980 232.113 C 217.139 233.740,214.734 236.041,212.622 237.240 C 211.742 237.740,210.723 238.478,210.359 238.881 C 209.994 239.284,208.394 240.042,206.803 240.567 C 205.213 241.091,203.351 241.798,202.667 242.138 C 198.539 244.186,188.830 244.203,184.676 242.170 C 183.522 241.605,181.777 240.960,180.798 240.735 C 177.663 240.015,172.675 236.428,170.709 233.478 C 170.037 232.470,169.065 231.156,168.549 230.558 C 167.546 229.398,167.199 228.602,166.229 225.244 C 164.579 219.530,164.157 219.380,149.689 219.383 C 135.973 219.386,135.210 219.456,134.675 220.762 C 133.939 222.559,134.155 227.608,135.028 229.021 C 135.457 229.715,136.138 231.709,136.541 233.452 C 137.432 237.304,137.826 238.350,138.669 239.113 C 139.026 239.436,139.676 240.608,140.113 241.717 C 140.550 242.826,141.419 244.293,142.043 244.978 C 142.668 245.662,143.513 246.782,143.921 247.467 C 145.408 249.959,153.991 257.808,156.951 259.382 C 157.787 259.826,159.198 260.745,160.086 261.423 C 161.087 262.187,162.630 262.900,164.140 263.298 C 165.481 263.652,167.138 264.228,167.822 264.578 C 170.910 266.161,171.888 266.456,177.244 267.416 C 180.373 267.977,184.005 268.678,185.315 268.973 C 189.665 269.956,198.524 269.714,204.164 268.460 C 206.763 267.882,210.329 267.236,212.089 267.023 C 216.364 266.508,217.312 266.219,218.911 264.944 C 219.737 264.286,221.198 263.632,222.650 263.271 C 224.402 262.834,225.405 262.335,226.439 261.383 C 227.213 260.671,228.663 259.801,229.662 259.450 C 231.751 258.715,235.729 255.517,240.070 251.082 C 240.325 250.822,241.358 249.782,242.365 248.771 C 243.373 247.760,244.449 246.324,244.756 245.578 C 245.064 244.833,245.875 243.569,246.560 242.769 C 247.244 241.969,248.074 240.579,248.404 239.680 C 248.733 238.780,249.514 237.368,250.140 236.540 C 250.765 235.713,251.547 234.113,251.878 232.985 C 252.209 231.856,252.880 229.733,253.370 228.267 C 253.860 226.800,254.524 224.800,254.847 223.822 C 256.326 219.337,255.573 196.065,253.857 193.244 C 253.273 192.286,252.837 190.856,251.659 186.055 C 251.457 185.229,250.895 184.029,250.411 183.388 C 249.928 182.747,249.004 181.080,248.359 179.683 C 247.715 178.287,246.934 177.003,246.625 176.830 C 246.316 176.657,245.459 175.531,244.721 174.327 C 243.155 171.775,239.858 168.265,235.882 164.919 C 231.267 161.034,229.765 160.016,227.360 159.143 C 226.101 158.686,224.231 157.740,223.203 157.040 C 221.651 155.983,220.579 155.616,216.889 154.877 C 214.444 154.388,211.759 153.745,210.922 153.450 C 206.183 151.777,194.906 151.933,190.674 153.730 C 189.455 154.247,187.085 154.990,185.406 155.382 C 183.404 155.848,181.556 156.574,180.035 157.492 C 178.760 158.261,177.246 158.994,176.670 159.120 C 176.095 159.246,174.908 160.056,174.032 160.919 C 172.814 162.121,172.170 162.490,171.287 162.494 C 170.652 162.496,169.789 162.591,169.368 162.704 C 168.206 163.016,168.036 161.862,168.690 158.116 C 169.004 156.317,169.413 153.964,169.599 152.889 C 169.785 151.813,170.099 148.293,170.296 145.067 C 171.440 126.386,171.687 124.892,174.036 122.440 L 175.523 120.889 209.108 120.889 L 242.694 120.889 244.277 120.089 C 247.398 118.512,247.467 118.240,247.467 107.378 C 247.467 96.516,247.414 96.308,244.267 94.703 L 242.667 93.887 196.444 93.880 L 150.222 93.873 148.800 94.739 M242.957 96.400 C 245.406 97.661,245.333 97.325,245.333 107.414 L 245.333 116.570 244.008 117.663 L 242.682 118.756 208.897 118.761 L 175.111 118.767 173.689 119.561 C 170.961 121.084,170.294 123.179,169.898 131.454 C 169.350 142.899,168.669 149.650,167.881 151.467 C 165.078 157.921,166.735 168.966,169.982 165.473 C 170.457 164.963,171.673 164.177,172.686 163.726 C 173.865 163.201,174.716 162.541,175.052 161.893 C 175.479 161.066,176.128 160.700,178.593 159.897 C 180.253 159.357,181.988 158.544,182.450 158.091 C 183.601 156.960,190.883 155.216,196.800 154.653 C 198.364 154.504,200.233 154.183,200.953 153.939 C 202.101 153.550,202.740 153.612,206.139 154.437 C 208.272 154.955,211.363 155.550,213.008 155.759 C 220.136 156.666,220.662 156.795,221.712 157.891 C 222.718 158.941,225.895 160.356,227.248 160.356 C 227.652 160.356,228.406 160.810,228.924 161.364 C 229.442 161.919,230.290 162.599,230.808 162.876 C 233.419 164.269,242.334 173.077,243.928 175.839 C 244.498 176.827,245.416 177.968,245.968 178.376 C 246.680 178.903,247.144 179.736,247.563 181.245 C 247.918 182.523,248.650 183.965,249.398 184.860 C 250.082 185.678,250.725 186.860,250.827 187.485 C 251.561 191.974,251.838 193.259,252.454 195.051 C 252.838 196.166,253.294 197.256,253.469 197.472 C 255.261 199.702,254.899 219.170,252.988 223.345 C 252.492 224.427,251.921 226.257,251.717 227.412 C 250.789 232.680,250.608 233.248,249.398 234.696 C 248.727 235.499,247.935 236.991,247.638 238.013 C 247.291 239.207,246.604 240.384,245.714 241.311 C 244.932 242.125,244.044 243.567,243.675 244.623 C 243.178 246.047,242.702 246.697,241.678 247.347 C 240.938 247.817,240.073 248.747,239.755 249.414 C 239.425 250.105,238.728 250.813,238.135 251.058 C 237.562 251.296,236.707 252.103,236.234 252.852 C 235.718 253.669,234.846 254.435,234.055 254.765 C 233.330 255.068,232.247 255.851,231.649 256.504 C 231.004 257.208,229.780 257.962,228.641 258.357 C 227.487 258.756,226.212 259.546,225.449 260.333 C 224.389 261.426,223.747 261.734,221.590 262.183 C 219.200 262.680,216.889 263.827,216.889 264.515 C 216.889 265.020,214.038 265.545,208.178 266.121 C 205.049 266.429,201.620 266.837,200.557 267.029 C 197.759 267.534,190.536 267.457,185.319 266.866 C 182.833 266.584,179.155 266.184,177.145 265.977 C 173.385 265.590,172.058 265.159,170.027 263.665 C 169.291 263.124,168.100 262.708,166.837 262.550 C 164.257 262.228,162.633 261.542,161.032 260.098 C 160.329 259.464,159.015 258.663,158.111 258.318 C 157.208 257.973,156.221 257.312,155.918 256.850 C 155.615 256.387,154.770 255.703,154.039 255.329 C 152.614 254.600,144.711 246.730,144.711 246.040 C 144.711 245.812,144.016 244.950,143.167 244.125 C 142.050 243.039,141.560 242.238,141.394 241.224 C 141.174 239.884,140.740 239.075,138.891 236.558 C 138.363 235.840,137.972 234.671,137.820 233.358 C 137.688 232.220,137.357 230.329,137.084 229.156 C 136.044 224.690,136.060 224.159,137.279 222.770 L 138.385 221.511 149.875 221.511 L 161.365 221.511 163.188 223.556 C 164.641 225.185,165.164 226.127,165.766 228.196 C 166.283 229.976,166.929 231.261,167.820 232.285 C 168.536 233.106,169.522 234.376,170.013 235.107 C 170.503 235.838,171.600 236.940,172.449 237.556 C 173.299 238.171,174.377 239.130,174.846 239.687 C 175.424 240.374,176.459 240.928,178.071 241.414 C 179.376 241.807,181.634 242.729,183.087 243.464 L 185.729 244.800 193.754 244.782 C 202.101 244.763,202.883 244.638,204.800 243.019 C 205.093 242.772,206.527 242.191,207.985 241.729 C 209.751 241.170,211.015 240.512,211.769 239.760 C 212.391 239.140,213.517 238.313,214.272 237.922 C 216.151 236.951,218.901 234.057,219.455 232.468 C 219.730 231.677,220.405 230.826,221.156 230.322 C 222.220 229.606,222.516 229.081,223.201 226.681 C 223.642 225.138,224.236 223.618,224.521 223.303 C 227.132 220.417,227.380 202.136,224.848 199.128 C 224.366 198.554,223.585 196.758,223.113 195.136 C 222.479 192.953,221.987 191.955,221.219 191.294 C 220.648 190.802,219.826 189.639,219.392 188.709 C 218.344 186.467,212.627 181.305,210.479 180.661 C 209.654 180.414,208.589 179.821,208.111 179.344 C 206.016 177.248,202.422 176.622,192.533 176.627 C 183.962 176.632,179.099 177.374,176.889 179.012 C 176.302 179.447,175.182 180.009,174.400 180.261 C 172.044 181.019,170.532 181.915,169.702 183.044 C 169.265 183.637,168.315 184.304,167.568 184.541 C 166.828 184.776,165.876 185.185,165.452 185.450 C 164.802 185.858,164.227 185.853,161.756 185.418 C 160.147 185.136,156.574 184.743,153.815 184.547 C 149.414 184.233,146.400 183.853,143.770 183.282 C 143.350 183.191,142.323 182.545,141.489 181.848 C 140.654 181.151,139.670 180.369,139.302 180.111 C 138.581 179.606,138.662 179.020,140.203 173.607 C 140.540 172.422,140.883 168.422,141.149 162.585 C 141.732 149.766,142.398 142.734,143.277 140.125 C 144.091 137.707,144.517 133.344,145.053 121.914 C 145.534 111.651,146.107 105.813,146.864 103.467 C 147.210 102.391,147.607 100.744,147.745 99.807 C 147.922 98.608,148.308 97.791,149.048 97.051 L 150.099 96.000 196.140 96.000 C 229.545 96.000,242.393 96.110,242.957 96.400 " stroke="none" fill="#94b4f4" fill-rule="evenodd"></path><path id="path2" d="M87.111 0.889 L 87.111 1.778 83.111 1.815 C 80.911 1.836,78.687 1.826,78.169 1.792 C 77.650 1.759,77.119 1.905,76.988 2.116 C 76.858 2.327,76.602 2.408,76.420 2.296 C 76.232 2.180,76.089 2.871,76.089 3.890 L 76.089 5.689 72.267 5.727 C 70.164 5.747,67.986 5.733,67.427 5.696 C 66.828 5.655,66.499 5.773,66.627 5.980 C 66.755 6.188,66.558 6.259,66.150 6.152 C 65.488 5.979,64.894 7.024,65.087 8.023 C 65.294 9.099,64.996 9.244,62.578 9.244 C 61.125 9.244,60.089 9.395,60.089 9.607 C 60.089 9.808,59.722 9.877,59.263 9.762 C 58.165 9.486,57.518 10.310,57.663 11.801 L 57.778 12.978 55.822 13.156 L 53.867 13.333 53.758 15.022 L 53.650 16.711 51.447 16.753 C 50.236 16.776,49.023 16.764,48.752 16.727 C 47.841 16.600,46.551 17.083,46.632 17.521 C 46.877 18.850,46.148 20.267,45.216 20.272 C 43.012 20.283,42.667 20.574,42.667 22.423 L 42.667 24.141 40.800 24.248 L 38.933 24.356 38.826 26.026 L 38.718 27.696 37.048 27.804 L 35.378 27.911 35.270 29.778 L 35.163 31.644 33.404 31.644 L 31.644 31.644 31.644 33.404 L 31.644 35.163 29.778 35.270 L 27.911 35.378 27.804 37.220 C 27.709 38.864,27.613 39.058,26.916 39.022 C 24.316 38.886,24.178 38.981,24.178 40.889 L 24.178 42.667 22.441 42.667 C 20.572 42.667,20.283 43.006,20.272 45.216 C 20.267 46.122,18.758 46.928,17.633 46.627 C 17.005 46.459,16.777 47.436,16.744 50.427 C 16.706 53.958,16.867 53.635,15.098 53.742 C 13.402 53.844,13.168 54.128,13.161 56.089 C 13.155 57.640,12.677 57.910,10.427 57.633 C 10.197 57.604,9.892 57.770,9.750 58.001 C 9.572 58.288,9.648 58.328,9.990 58.127 C 10.320 57.932,10.291 58.064,9.902 58.517 C 9.478 59.010,9.305 59.938,9.280 61.849 C 9.239 64.904,9.179 65.004,7.284 65.152 C 5.644 65.279,5.780 64.734,5.727 71.378 L 5.689 76.089 3.890 76.089 C 2.871 76.089,2.180 76.232,2.296 76.420 C 2.408 76.602,2.327 76.858,2.116 76.988 C 1.905 77.119,1.759 77.650,1.792 78.169 C 1.826 78.687,1.836 80.911,1.815 83.111 L 1.778 87.111 0.889 87.111 L 0.000 87.111 0.000 177.778 L 0.000 268.444 0.889 268.444 L 1.778 268.444 1.815 272.444 C 1.836 274.644,1.826 276.869,1.792 277.387 C 1.759 277.905,1.905 278.436,2.116 278.567 C 2.327 278.698,2.408 278.954,2.296 279.136 C 2.180 279.323,2.871 279.467,3.890 279.467 L 5.689 279.467 5.689 284.419 C 5.689 289.983,5.884 290.489,8.025 290.489 L 9.244 290.489 9.244 292.978 C 9.244 294.347,9.389 295.467,9.567 295.467 C 9.744 295.467,9.805 295.788,9.703 296.180 C 9.410 297.297,10.252 298.015,11.706 297.889 L 12.978 297.778 13.156 299.733 L 13.333 301.689 15.022 301.797 L 16.711 301.906 16.753 304.108 C 16.776 305.320,16.764 306.533,16.727 306.803 C 16.564 307.971,17.094 308.978,17.873 308.983 C 19.578 308.993,20.267 309.387,20.272 310.353 C 20.283 312.543,20.576 312.889,22.423 312.889 L 24.141 312.889 24.248 314.756 L 24.356 316.622 26.026 316.730 L 27.696 316.837 27.804 318.508 L 27.911 320.178 29.778 320.285 L 31.644 320.393 31.644 322.152 L 31.644 323.911 33.404 323.911 L 35.163 323.911 35.270 325.778 L 35.378 327.644 37.220 327.751 C 38.864 327.846,39.058 327.942,39.022 328.640 C 38.886 331.239,38.981 331.378,40.889 331.378 L 42.667 331.378 42.667 333.114 C 42.667 334.981,43.007 335.273,45.203 335.284 C 46.164 335.289,46.562 335.978,46.573 337.651 C 46.579 338.650,46.941 338.757,50.478 338.809 C 53.963 338.860,53.635 338.694,53.742 340.458 C 53.844 342.153,54.128 342.387,56.089 342.395 L 57.600 342.400 57.600 343.979 C 57.600 345.970,57.797 346.082,61.689 346.305 L 64.889 346.489 65.067 348.089 L 65.244 349.689 70.667 349.787 L 76.089 349.885 76.089 351.675 C 76.089 352.689,76.232 353.376,76.420 353.260 C 76.602 353.147,76.858 353.228,76.988 353.440 C 77.119 353.651,77.650 353.797,78.169 353.763 C 78.687 353.730,80.911 353.719,83.111 353.740 L 87.111 353.778 87.111 354.667 L 87.111 355.556 200.000 355.556 L 312.889 355.556 312.889 354.667 L 312.889 353.778 316.889 353.740 C 319.089 353.719,321.313 353.730,321.831 353.763 C 322.350 353.797,322.881 353.651,323.012 353.440 C 323.142 353.228,323.398 353.147,323.580 353.260 C 323.768 353.376,323.911 352.685,323.911 351.665 L 323.911 349.867 328.863 349.867 C 334.427 349.867,334.933 349.672,334.933 347.530 L 334.933 346.311 337.422 346.311 C 338.791 346.311,339.911 346.166,339.911 345.989 C 339.911 345.812,340.232 345.750,340.624 345.853 C 341.741 346.145,342.460 345.303,342.333 343.849 L 342.222 342.578 344.178 342.400 L 346.133 342.222 346.242 340.533 L 346.350 338.844 348.553 338.802 C 349.764 338.779,350.977 338.791,351.248 338.829 C 352.415 338.992,353.422 338.462,353.427 337.682 C 353.438 335.978,353.831 335.289,354.797 335.284 C 356.987 335.273,357.333 334.979,357.333 333.133 L 357.333 331.415 359.200 331.307 L 361.067 331.200 361.174 329.530 L 361.282 327.860 362.952 327.752 L 364.622 327.644 364.730 325.778 L 364.837 323.911 366.596 323.911 L 368.356 323.911 368.356 322.152 L 368.356 320.393 370.222 320.285 L 372.089 320.178 372.196 318.335 C 372.291 316.692,372.387 316.498,373.084 316.534 C 375.684 316.669,375.822 316.575,375.822 314.667 L 375.822 312.889 377.559 312.889 C 379.426 312.889,379.717 312.548,379.728 310.353 C 379.733 309.392,380.422 308.993,382.095 308.983 C 383.094 308.976,383.202 308.615,383.253 305.078 C 383.304 301.592,383.138 301.921,384.902 301.814 C 386.598 301.711,386.832 301.427,386.839 299.467 L 386.844 297.956 388.423 297.956 C 390.414 297.956,390.526 297.759,390.750 293.867 L 390.933 290.667 392.533 290.489 L 394.133 290.311 394.231 284.889 L 394.330 279.467 396.119 279.467 C 397.133 279.467,397.820 279.323,397.704 279.136 C 397.592 278.954,397.673 278.698,397.884 278.567 C 398.095 278.436,398.241 277.905,398.208 277.387 C 398.174 276.869,398.164 274.644,398.185 272.444 L 398.222 268.444 399.111 268.444 L 400.000 268.444 400.000 177.778 L 400.000 87.111 399.111 87.111 L 398.222 87.111 398.185 83.111 C 398.164 80.911,398.174 78.687,398.208 78.169 C 398.241 77.650,398.095 77.119,397.884 76.988 C 397.673 76.858,397.592 76.602,397.704 76.420 C 397.820 76.232,397.129 76.089,396.110 76.089 L 394.311 76.089 394.311 71.137 C 394.311 65.573,394.116 65.067,391.975 65.067 L 390.756 65.067 390.756 62.578 C 390.756 61.209,390.611 60.089,390.433 60.089 C 390.256 60.089,390.195 59.768,390.297 59.376 C 390.590 58.259,389.748 57.540,388.294 57.667 L 387.022 57.778 386.844 55.822 L 386.667 53.867 384.978 53.758 L 383.289 53.650 383.247 51.447 C 383.224 50.236,383.236 49.023,383.273 48.752 C 383.400 47.841,382.917 46.551,382.479 46.632 C 381.150 46.877,379.733 46.148,379.728 45.216 C 379.717 43.012,379.426 42.667,377.577 42.667 L 375.859 42.667 375.752 40.800 L 375.644 38.933 373.974 38.826 L 372.304 38.718 372.196 37.048 L 372.089 35.378 370.222 35.270 L 368.356 35.163 368.356 33.404 L 368.356 31.644 366.596 31.644 L 364.837 31.644 364.730 29.778 L 364.622 27.911 362.780 27.804 C 361.136 27.709,360.942 27.613,360.978 26.916 C 361.114 24.316,361.019 24.178,359.111 24.178 L 357.333 24.178 357.333 22.441 C 357.333 20.572,356.994 20.283,354.784 20.272 C 353.878 20.267,353.072 18.758,353.373 17.633 C 353.541 17.005,352.564 16.777,349.573 16.744 C 346.042 16.706,346.365 16.867,346.258 15.098 C 346.156 13.402,345.872 13.168,343.911 13.161 C 342.360 13.155,342.090 12.677,342.367 10.427 C 342.396 10.197,342.230 9.892,341.999 9.750 C 341.712 9.572,341.672 9.648,341.873 9.990 C 342.068 10.320,341.936 10.291,341.483 9.902 C 340.990 9.478,340.062 9.305,338.151 9.280 C 335.136 9.240,334.988 9.158,334.873 7.461 C 334.756 5.733,334.649 5.700,328.978 5.694 L 323.911 5.689 323.911 3.890 C 323.911 2.871,323.768 2.180,323.580 2.296 C 323.398 2.408,323.142 2.327,323.012 2.116 C 322.881 1.905,322.350 1.759,321.831 1.792 C 321.313 1.826,319.089 1.836,316.889 1.815 L 312.889 1.778 312.889 0.889 L 312.889 0.000 200.000 0.000 L 87.111 0.000 87.111 0.889 M246.641 93.010 C 248.632 94.484,248.701 94.906,248.821 106.311 C 248.949 118.503,248.863 119.422,247.437 121.046 C 245.716 123.006,245.398 123.022,208.826 123.022 C 177.778 123.022,175.721 123.060,175.199 123.644 C 174.888 123.993,174.373 125.909,174.030 128.000 C 173.693 130.053,173.139 132.293,172.799 132.978 C 171.967 134.652,171.802 136.431,171.384 148.267 C 170.952 160.485,171.248 162.650,172.978 159.911 C 173.480 159.116,174.159 158.649,175.289 158.323 C 176.248 158.046,177.327 157.382,177.982 156.667 C 179.210 155.328,180.256 154.936,184.356 154.283 C 186.663 153.915,187.373 153.646,188.114 152.857 C 189.405 151.482,190.937 151.196,198.400 150.933 C 208.281 150.584,213.628 151.225,216.533 153.104 C 217.218 153.547,218.818 154.087,220.089 154.305 C 223.505 154.891,224.595 155.315,225.527 156.423 C 226.488 157.565,227.575 158.221,228.510 158.224 C 229.893 158.228,231.802 158.992,232.593 159.858 C 234.125 161.534,235.190 162.489,235.529 162.489 C 236.020 162.489,237.511 163.964,237.511 164.450 C 237.511 164.678,238.296 165.292,239.256 165.814 C 240.446 166.462,241.118 167.101,241.371 167.828 C 241.583 168.437,242.288 169.214,243.019 169.646 C 243.742 170.072,244.622 171.037,245.045 171.866 C 245.456 172.673,246.488 174.130,247.339 175.103 C 248.292 176.193,249.087 177.567,249.412 178.683 C 249.766 179.901,250.218 180.643,250.796 180.952 C 251.934 181.561,252.375 182.619,253.011 186.266 C 253.368 188.315,253.767 189.519,254.234 189.954 C 256.470 192.037,256.823 195.326,256.623 212.242 C 256.453 226.654,256.279 228.091,254.442 230.294 C 253.946 230.890,253.371 232.383,253.011 234.013 C 252.449 236.558,251.239 238.578,250.276 238.578 C 250.115 238.578,249.809 239.258,249.597 240.089 C 248.921 242.736,248.457 243.583,247.075 244.694 C 246.249 245.358,245.634 246.209,245.490 246.889 C 245.213 248.193,244.403 249.206,243.299 249.628 C 242.864 249.794,242.268 250.506,241.974 251.210 C 241.594 252.120,241.046 252.658,240.079 253.071 C 239.103 253.488,238.558 254.027,238.151 254.980 C 237.693 256.053,237.311 256.382,236.167 256.690 C 235.101 256.977,234.641 257.338,234.305 258.149 C 233.808 259.348,233.397 259.627,230.887 260.476 C 229.935 260.797,228.516 261.648,227.733 262.366 C 226.690 263.323,225.743 263.797,224.178 264.145 C 222.706 264.472,221.645 264.979,220.758 265.778 C 219.169 267.208,218.021 267.573,213.554 268.071 C 210.989 268.356,209.753 268.667,208.973 269.222 C 204.976 272.068,180.958 272.013,177.317 269.149 C 176.706 268.668,175.261 268.261,172.915 267.909 C 168.261 267.210,167.180 266.865,165.890 265.667 C 165.113 264.947,164.020 264.479,162.087 264.041 C 159.520 263.459,157.867 262.450,157.867 261.464 C 157.867 261.268,156.988 260.831,155.914 260.492 C 154.532 260.057,153.415 259.350,152.092 258.077 C 151.064 257.088,149.858 256.138,149.413 255.967 C 148.969 255.796,148.265 255.080,147.851 254.377 C 147.436 253.674,146.489 252.716,145.747 252.247 C 145.004 251.779,144.147 250.871,143.842 250.231 C 143.537 249.591,142.561 248.267,141.673 247.289 C 140.616 246.124,139.874 244.877,139.524 243.675 C 139.186 242.514,138.671 241.629,138.124 241.271 C 136.901 240.470,136.330 239.152,135.889 236.110 C 135.642 234.407,135.241 233.141,134.764 232.555 C 132.244 229.456,131.579 221.268,133.659 218.939 L 134.696 217.778 148.066 217.666 C 166.812 217.508,166.481 217.374,167.825 225.688 C 168.187 227.928,168.373 228.342,169.250 228.860 C 169.804 229.187,170.534 230.068,170.872 230.816 C 171.656 232.554,175.083 235.993,176.707 236.672 C 177.394 236.958,178.356 237.628,178.844 238.160 C 179.520 238.895,180.332 239.241,182.222 239.599 C 183.591 239.858,185.500 240.294,186.465 240.568 C 187.429 240.842,188.689 241.067,189.265 241.067 C 189.840 241.067,191.251 241.488,192.400 242.004 L 194.489 242.941 195.869 241.984 C 196.950 241.235,198.297 240.844,202.070 240.183 C 207.374 239.253,207.712 239.128,209.213 237.551 C 209.782 236.953,211.010 236.211,211.940 235.901 C 213.256 235.464,213.714 235.107,213.997 234.296 C 214.222 233.648,214.829 233.028,215.596 232.662 C 216.504 232.230,216.990 231.659,217.426 230.518 C 217.834 229.451,218.373 228.783,219.143 228.392 C 219.761 228.078,220.328 227.766,220.404 227.699 C 220.479 227.632,220.894 225.453,221.326 222.855 C 221.868 219.599,222.474 217.309,223.281 215.477 C 224.698 212.257,224.706 207.655,223.298 205.269 C 222.412 203.767,221.292 199.749,220.954 196.861 C 220.819 195.709,220.477 194.604,220.183 194.373 C 218.595 193.120,217.599 191.981,217.589 191.405 C 217.575 190.599,216.996 189.861,215.756 189.068 C 215.231 188.732,214.589 188.015,214.329 187.474 C 214.070 186.933,213.271 186.214,212.554 185.876 C 211.837 185.539,210.820 184.698,210.294 184.009 C 209.768 183.320,209.038 182.756,208.673 182.756 C 207.554 182.756,203.389 180.936,202.896 180.232 C 201.463 178.187,183.992 178.340,182.362 180.412 C 181.606 181.372,178.795 182.399,176.913 182.401 C 175.698 182.403,174.384 183.150,172.271 185.041 C 171.491 185.740,170.329 186.409,169.689 186.529 C 168.923 186.673,168.320 187.096,167.923 187.768 C 166.322 190.478,158.713 190.183,152.923 187.186 C 152.011 186.714,150.342 186.489,146.167 186.276 C 138.631 185.890,137.742 185.583,136.713 183.012 C 135.450 179.855,136.580 163.119,138.303 159.467 C 139.224 157.514,139.326 156.407,139.740 143.822 C 140.116 132.409,140.870 124.675,141.783 122.865 C 142.843 120.765,142.990 119.459,143.307 109.335 C 143.736 95.666,144.308 93.460,147.681 92.475 C 148.342 92.282,168.629 92.172,197.218 92.207 L 245.637 92.267 246.641 93.010 " stroke="none" fill="#2464ec" fill-rule="evenodd"></path><path id="path3" d="M148.181 94.200 C 145.121 96.140,144.623 98.247,144.014 111.822 C 143.635 120.257,143.182 124.799,142.205 129.956 C 141.160 135.471,140.785 139.168,140.256 149.156 C 139.731 159.063,139.345 162.992,138.507 166.933 C 135.362 181.727,136.548 184.745,145.778 185.424 C 151.029 185.810,156.535 186.682,159.111 187.536 C 163.479 188.985,164.687 188.987,166.407 187.549 C 167.218 186.872,168.574 186.012,169.421 185.637 C 170.269 185.262,171.224 184.556,171.544 184.067 C 172.094 183.228,174.026 182.292,177.244 181.307 C 178.027 181.067,179.547 180.415,180.622 179.857 C 185.588 177.281,202.239 177.601,205.902 180.342 C 206.567 180.840,207.895 181.589,208.854 182.005 C 210.398 182.677,213.534 185.140,216.147 187.733 C 216.639 188.222,217.552 189.467,218.175 190.499 C 218.799 191.532,219.708 192.691,220.196 193.074 C 220.863 193.599,221.234 194.456,221.694 196.531 C 222.030 198.048,222.762 200.169,223.320 201.244 C 225.600 205.641,225.652 214.470,223.428 219.866 C 222.934 221.064,222.235 223.372,221.875 224.994 C 221.275 227.690,221.078 228.075,219.587 229.464 C 218.690 230.299,217.956 231.173,217.956 231.405 C 217.956 232.101,213.971 235.944,212.444 236.719 C 211.662 237.117,210.635 237.857,210.162 238.363 C 209.301 239.286,200.705 242.283,196.429 243.152 C 194.047 243.636,187.250 242.890,185.886 241.995 C 185.359 241.649,183.562 240.990,181.894 240.531 C 178.409 239.572,178.816 239.781,175.118 237.045 C 173.382 235.761,171.805 234.236,171.058 233.117 C 170.386 232.112,169.310 230.668,168.667 229.910 C 167.893 228.996,167.360 227.865,167.088 226.556 C 165.456 218.696,165.176 218.578,148.415 218.729 C 132.726 218.869,133.933 218.421,133.746 224.176 C 133.629 227.751,133.665 227.961,134.688 229.767 C 135.273 230.800,136.028 232.924,136.367 234.489 C 137.033 237.565,137.605 238.926,138.864 240.435 C 139.308 240.968,139.865 242.008,140.100 242.747 C 140.335 243.485,141.039 244.649,141.663 245.333 C 142.288 246.018,143.217 247.236,143.728 248.040 C 144.894 249.876,149.870 254.875,152.369 256.721 C 153.409 257.489,154.372 258.299,154.509 258.521 C 154.646 258.742,155.577 259.289,156.579 259.735 C 157.580 260.181,158.786 260.961,159.259 261.469 C 160.121 262.397,163.360 263.822,164.605 263.822 C 164.972 263.822,166.474 264.459,167.942 265.237 C 170.016 266.335,171.511 266.813,174.639 267.375 C 176.854 267.774,180.267 268.510,182.222 269.012 C 188.886 270.721,199.890 270.602,205.627 268.759 C 206.834 268.371,209.502 267.824,211.556 267.543 C 217.343 266.752,217.475 266.715,218.986 265.452 C 219.970 264.630,221.192 264.071,222.942 263.642 C 224.872 263.169,225.747 262.742,226.617 261.845 C 227.246 261.198,228.691 260.320,229.830 259.894 C 231.123 259.411,232.493 258.535,233.482 257.560 C 234.352 256.702,235.217 256.000,235.403 256.000 C 236.139 256.000,244.252 247.472,245.098 245.810 C 245.580 244.863,246.385 243.706,246.887 243.238 C 247.388 242.770,248.211 241.308,248.715 239.990 C 249.219 238.672,249.960 237.295,250.363 236.931 C 251.433 235.963,251.950 234.797,252.801 231.442 C 253.219 229.793,253.775 228.112,254.037 227.706 C 256.824 223.386,256.842 197.943,254.062 192.178 C 253.402 190.809,252.599 188.460,252.279 186.958 C 251.945 185.394,251.327 183.723,250.833 183.047 C 250.358 182.398,249.414 180.705,248.736 179.285 C 248.058 177.865,247.262 176.610,246.968 176.497 C 246.673 176.384,245.941 175.421,245.340 174.358 C 244.305 172.524,241.741 169.501,239.519 167.494 C 233.173 161.764,230.423 159.726,227.884 158.868 C 226.735 158.480,225.271 157.783,224.631 157.319 C 222.535 155.799,221.727 155.464,218.667 154.847 C 217.004 154.512,214.204 153.760,212.444 153.175 C 207.034 151.378,193.425 151.413,190.341 153.232 C 189.606 153.666,187.194 154.481,184.982 155.044 C 182.516 155.671,180.516 156.403,179.813 156.936 C 179.183 157.414,177.711 158.226,176.543 158.740 C 175.294 159.290,173.991 160.194,173.381 160.935 C 172.440 162.076,172.224 162.172,171.060 161.958 C 169.186 161.614,169.188 161.621,169.795 156.423 C 170.102 153.795,170.571 147.804,170.836 143.111 C 171.487 131.604,171.942 127.947,173.065 125.225 C 174.707 121.245,170.906 121.628,209.823 121.518 L 243.733 121.422 245.162 120.657 C 247.714 119.290,247.822 118.745,247.822 107.241 C 247.822 95.811,247.758 95.531,244.795 94.044 C 243.402 93.346,242.573 93.332,196.609 93.241 L 149.840 93.148 148.181 94.200 M244.267 94.703 C 247.414 96.308,247.467 96.516,247.467 107.378 C 247.467 118.240,247.398 118.512,244.277 120.089 L 242.694 120.889 209.108 120.889 L 175.523 120.889 174.036 122.440 C 171.687 124.892,171.440 126.386,170.296 145.067 C 170.099 148.293,169.785 151.813,169.599 152.889 C 169.413 153.964,169.004 156.317,168.690 158.116 C 168.036 161.862,168.206 163.016,169.368 162.704 C 169.789 162.591,170.652 162.496,171.287 162.494 C 172.170 162.490,172.814 162.121,174.032 160.919 C 174.908 160.056,176.095 159.246,176.670 159.120 C 177.246 158.994,178.760 158.261,180.035 157.492 C 181.556 156.574,183.404 155.848,185.406 155.382 C 187.085 154.990,189.455 154.247,190.674 153.730 C 194.906 151.933,206.183 151.777,210.922 153.450 C 211.759 153.745,214.444 154.388,216.889 154.877 C 220.579 155.616,221.651 155.983,223.203 157.040 C 224.231 157.740,226.101 158.686,227.360 159.143 C 229.765 160.016,231.267 161.034,235.882 164.919 C 239.858 168.265,243.155 171.775,244.721 174.327 C 245.459 175.531,246.316 176.657,246.625 176.830 C 246.934 177.003,247.715 178.287,248.359 179.683 C 249.004 181.080,249.928 182.747,250.411 183.388 C 250.895 184.029,251.457 185.229,251.659 186.055 C 252.837 190.856,253.273 192.286,253.857 193.244 C 255.573 196.065,256.326 219.337,254.847 223.822 C 254.524 224.800,253.860 226.800,253.370 228.267 C 252.880 229.733,252.209 231.856,251.878 232.985 C 251.547 234.113,250.765 235.713,250.140 236.540 C 249.514 237.368,248.733 238.780,248.404 239.680 C 248.074 240.579,247.244 241.969,246.560 242.769 C 245.875 243.569,245.064 244.833,244.756 245.578 C 244.449 246.324,243.373 247.760,242.365 248.771 C 241.358 249.782,240.325 250.822,240.070 251.082 C 235.729 255.517,231.751 258.715,229.662 259.450 C 228.663 259.801,227.213 260.671,226.439 261.383 C 225.405 262.335,224.402 262.834,222.650 263.271 C 221.198 263.632,219.737 264.286,218.911 264.944 C 217.312 266.219,216.364 266.508,212.089 267.023 C 210.329 267.236,206.763 267.882,204.164 268.460 C 198.524 269.714,189.665 269.956,185.315 268.973 C 184.005 268.678,180.373 267.977,177.244 267.416 C 171.888 266.456,170.910 266.161,167.822 264.578 C 167.138 264.228,165.481 263.652,164.140 263.298 C 162.630 262.900,161.087 262.187,160.086 261.423 C 159.198 260.745,157.787 259.826,156.951 259.382 C 153.991 257.808,145.408 249.959,143.921 247.467 C 143.513 246.782,142.668 245.662,142.043 244.978 C 141.419 244.293,140.550 242.826,140.113 241.717 C 139.676 240.608,139.026 239.436,138.669 239.113 C 137.826 238.350,137.432 237.304,136.541 233.452 C 136.138 231.709,135.457 229.715,135.028 229.021 C 134.155 227.608,133.939 222.559,134.675 220.762 C 135.210 219.456,135.973 219.386,149.689 219.383 C 164.157 219.380,164.579 219.530,166.229 225.244 C 167.199 228.602,167.546 229.398,168.549 230.558 C 169.065 231.156,170.037 232.470,170.709 233.478 C 172.675 236.428,177.663 240.015,180.798 240.735 C 181.777 240.960,183.522 241.605,184.676 242.170 C 188.830 244.203,198.539 244.186,202.667 242.138 C 203.351 241.798,205.213 241.091,206.803 240.567 C 208.394 240.042,209.994 239.284,210.359 238.881 C 210.723 238.478,211.742 237.740,212.622 237.240 C 214.734 236.041,217.139 233.740,217.980 232.113 C 218.352 231.394,219.349 230.155,220.195 229.362 C 221.517 228.123,221.799 227.597,222.187 225.643 C 222.436 224.391,223.000 222.588,223.442 221.636 C 225.926 216.274,226.032 203.857,223.621 200.570 C 223.248 200.061,222.619 198.375,222.224 196.823 C 221.502 193.984,220.722 192.356,220.084 192.356 C 219.894 192.356,219.264 191.516,218.684 190.489 C 216.835 187.219,212.307 182.996,209.209 181.651 C 208.251 181.235,207.067 180.526,206.578 180.075 C 204.768 178.407,201.872 177.972,192.533 177.966 C 183.550 177.960,183.032 178.031,179.378 179.766 C 178.400 180.230,176.294 181.099,174.699 181.696 C 172.786 182.413,171.603 183.080,171.226 183.655 C 170.911 184.135,169.817 184.946,168.794 185.458 C 167.770 185.969,166.502 186.792,165.974 187.287 C 164.885 188.309,163.878 188.266,159.644 187.016 C 157.196 186.293,154.670 185.916,146.734 185.088 C 137.743 184.149,136.245 182.072,138.134 173.156 C 139.347 167.429,140.019 160.970,140.815 147.378 C 141.021 143.858,141.590 138.418,142.078 135.289 C 143.147 128.440,144.202 117.684,144.519 110.400 C 144.989 99.601,145.823 96.551,148.800 94.739 L 150.222 93.873 196.444 93.880 L 242.667 93.887 244.267 94.703 " stroke="none" fill="#749cf4" fill-rule="evenodd"></path><path id="path4" d="M147.681 92.475 C 144.308 93.460,143.736 95.666,143.307 109.335 C 142.990 119.459,142.843 120.765,141.783 122.865 C 140.870 124.675,140.116 132.409,139.740 143.822 C 139.326 156.407,139.224 157.514,138.303 159.467 C 136.580 163.119,135.450 179.855,136.713 183.012 C 137.742 185.583,138.631 185.890,146.167 186.276 C 150.342 186.489,152.011 186.714,152.923 187.186 C 158.713 190.183,166.322 190.478,167.923 187.768 C 168.320 187.096,168.923 186.673,169.689 186.529 C 170.329 186.409,171.491 185.740,172.271 185.041 C 174.384 183.150,175.698 182.403,176.913 182.401 C 178.795 182.399,181.606 181.372,182.362 180.412 C 183.992 178.340,201.463 178.187,202.896 180.232 C 203.389 180.936,207.554 182.756,208.673 182.756 C 209.038 182.756,209.768 183.320,210.294 184.009 C 210.820 184.698,211.837 185.539,212.554 185.876 C 213.271 186.214,214.070 186.933,214.329 187.474 C 214.589 188.015,215.231 188.732,215.756 189.068 C 216.996 189.861,217.575 190.599,217.589 191.405 C 217.599 191.981,218.595 193.120,220.183 194.373 C 220.477 194.604,220.819 195.709,220.954 196.861 C 221.292 199.749,222.412 203.767,223.298 205.269 C 224.706 207.655,224.698 212.257,223.281 215.477 C 222.474 217.309,221.868 219.599,221.326 222.855 C 220.894 225.453,220.479 227.632,220.404 227.699 C 220.328 227.766,219.761 228.078,219.143 228.392 C 218.373 228.783,217.834 229.451,217.426 230.518 C 216.990 231.659,216.504 232.230,215.596 232.662 C 214.829 233.028,214.222 233.648,213.997 234.296 C 213.714 235.107,213.256 235.464,211.940 235.901 C 211.010 236.211,209.782 236.953,209.213 237.551 C 207.712 239.128,207.374 239.253,202.070 240.183 C 198.297 240.844,196.950 241.235,195.869 241.984 L 194.489 242.941 192.400 242.004 C 191.251 241.488,189.840 241.067,189.265 241.067 C 188.689 241.067,187.429 240.842,186.465 240.568 C 185.500 240.294,183.591 239.858,182.222 239.599 C 180.332 239.241,179.520 238.895,178.844 238.160 C 178.356 237.628,177.394 236.958,176.707 236.672 C 175.083 235.993,171.656 232.554,170.872 230.816 C 170.534 230.068,169.804 229.187,169.250 228.860 C 168.373 228.342,168.187 227.928,167.825 225.688 C 166.481 217.374,166.812 217.508,148.066 217.666 L 134.696 217.778 133.659 218.939 C 131.579 221.268,132.244 229.456,134.764 232.555 C 135.241 233.141,135.642 234.407,135.889 236.110 C 136.330 239.152,136.901 240.470,138.124 241.271 C 138.671 241.629,139.186 242.514,139.524 243.675 C 139.874 244.877,140.616 246.124,141.673 247.289 C 142.561 248.267,143.537 249.591,143.842 250.231 C 144.147 250.871,145.004 251.779,145.747 252.247 C 146.489 252.716,147.436 253.674,147.851 254.377 C 148.265 255.080,148.969 255.796,149.413 255.967 C 149.858 256.138,151.064 257.088,152.092 258.077 C 153.415 259.350,154.532 260.057,155.914 260.492 C 156.988 260.831,157.867 261.268,157.867 261.464 C 157.867 262.450,159.520 263.459,162.087 264.041 C 164.020 264.479,165.113 264.947,165.890 265.667 C 167.180 266.865,168.261 267.210,172.915 267.909 C 175.261 268.261,176.706 268.668,177.317 269.149 C 180.958 272.013,204.976 272.068,208.973 269.222 C 209.753 268.667,210.989 268.356,213.554 268.071 C 218.021 267.573,219.169 267.208,220.758 265.778 C 221.645 264.979,222.706 264.472,224.178 264.145 C 225.743 263.797,226.690 263.323,227.733 262.366 C 228.516 261.648,229.935 260.797,230.887 260.476 C 233.397 259.627,233.808 259.348,234.305 258.149 C 234.641 257.338,235.101 256.977,236.167 256.690 C 237.311 256.382,237.693 256.053,238.151 254.980 C 238.558 254.027,239.103 253.488,240.079 253.071 C 241.046 252.658,241.594 252.120,241.974 251.210 C 242.268 250.506,242.864 249.794,243.299 249.628 C 244.403 249.206,245.213 248.193,245.490 246.889 C 245.634 246.209,246.249 245.358,247.075 244.694 C 248.457 243.583,248.921 242.736,249.597 240.089 C 249.809 239.258,250.115 238.578,250.276 238.578 C 251.239 238.578,252.449 236.558,253.011 234.013 C 253.371 232.383,253.946 230.890,254.442 230.294 C 256.279 228.091,256.453 226.654,256.623 212.242 C 256.823 195.326,256.470 192.037,254.234 189.954 C 253.767 189.519,253.368 188.315,253.011 186.266 C 252.375 182.619,251.934 181.561,250.796 180.952 C 250.218 180.643,249.766 179.901,249.412 178.683 C 249.087 177.567,248.292 176.193,247.339 175.103 C 246.488 174.130,245.456 172.673,245.045 171.866 C 244.622 171.037,243.742 170.072,243.019 169.646 C 242.288 169.214,241.583 168.437,241.371 167.828 C 241.118 167.101,240.446 166.462,239.256 165.814 C 238.296 165.292,237.511 164.678,237.511 164.450 C 237.511 163.964,236.020 162.489,235.529 162.489 C 235.190 162.489,234.125 161.534,232.593 159.858 C 231.802 158.992,229.893 158.228,228.510 158.224 C 227.575 158.221,226.488 157.565,225.527 156.423 C 224.595 155.315,223.505 154.891,220.089 154.305 C 218.818 154.087,217.218 153.547,216.533 153.104 C 211.826 150.059,190.913 149.877,188.114 152.857 C 187.373 153.646,186.663 153.915,184.356 154.283 C 180.256 154.936,179.210 155.328,177.982 156.667 C 177.327 157.382,176.248 158.046,175.289 158.323 C 174.159 158.649,173.480 159.116,172.978 159.911 C 171.248 162.650,170.952 160.485,171.384 148.267 C 171.802 136.431,171.967 134.652,172.799 132.978 C 173.139 132.293,173.693 130.053,174.030 128.000 C 174.373 125.909,174.888 123.993,175.199 123.644 C 175.721 123.060,177.778 123.022,208.826 123.022 C 245.398 123.022,245.716 123.006,247.437 121.046 C 248.863 119.422,248.949 118.503,248.821 106.311 C 248.701 94.906,248.632 94.484,246.641 93.010 L 245.637 92.267 197.218 92.207 C 168.629 92.172,148.342 92.282,147.681 92.475 M244.795 94.044 C 247.758 95.531,247.822 95.811,247.822 107.241 C 247.822 118.745,247.714 119.290,245.162 120.657 L 243.733 121.422 209.823 121.518 C 170.906 121.628,174.707 121.245,173.065 125.225 C 171.942 127.947,171.487 131.604,170.836 143.111 C 170.571 147.804,170.102 153.795,169.795 156.423 C 169.188 161.621,169.186 161.614,171.060 161.958 C 172.224 162.172,172.440 162.076,173.381 160.935 C 173.991 160.194,175.294 159.290,176.543 158.740 C 177.711 158.226,179.183 157.414,179.813 156.936 C 180.516 156.403,182.516 155.671,184.982 155.044 C 187.194 154.481,189.606 153.666,190.341 153.232 C 193.425 151.413,207.034 151.378,212.444 153.175 C 214.204 153.760,217.004 154.512,218.667 154.847 C 221.727 155.464,222.535 155.799,224.631 157.319 C 225.271 157.783,226.735 158.480,227.884 158.868 C 230.423 159.726,233.173 161.764,239.519 167.494 C 241.741 169.501,244.305 172.524,245.340 174.358 C 245.941 175.421,246.673 176.384,246.968 176.497 C 247.262 176.610,248.058 177.865,248.736 179.285 C 249.414 180.705,250.358 182.398,250.833 183.047 C 251.327 183.723,251.945 185.394,252.279 186.958 C 252.599 188.460,253.402 190.809,254.062 192.178 C 256.842 197.943,256.824 223.386,254.037 227.706 C 253.775 228.112,253.219 229.793,252.801 231.442 C 251.950 234.797,251.433 235.963,250.363 236.931 C 249.960 237.295,249.219 238.672,248.715 239.990 C 248.211 241.308,247.388 242.770,246.887 243.238 C 246.385 243.706,245.580 244.863,245.098 245.810 C 244.252 247.472,236.139 256.000,235.403 256.000 C 235.217 256.000,234.352 256.702,233.482 257.560 C 232.493 258.535,231.123 259.411,229.830 259.894 C 228.691 260.320,227.246 261.198,226.617 261.845 C 225.747 262.742,224.872 263.169,222.942 263.642 C 221.192 264.071,219.970 264.630,218.986 265.452 C 217.475 266.715,217.343 266.752,211.556 267.543 C 209.502 267.824,206.834 268.371,205.627 268.759 C 199.890 270.602,188.886 270.721,182.222 269.012 C 180.267 268.510,176.854 267.774,174.639 267.375 C 171.511 266.813,170.016 266.335,167.942 265.237 C 166.474 264.459,164.972 263.822,164.605 263.822 C 163.360 263.822,160.121 262.397,159.259 261.469 C 158.786 260.961,157.580 260.181,156.579 259.735 C 155.577 259.289,154.646 258.742,154.509 258.521 C 154.372 258.299,153.409 257.489,152.369 256.721 C 149.870 254.875,144.894 249.876,143.728 248.040 C 143.217 247.236,142.288 246.018,141.663 245.333 C 141.039 244.649,140.335 243.485,140.100 242.747 C 139.865 242.008,139.308 240.968,138.864 240.435 C 137.605 238.926,137.033 237.565,136.367 234.489 C 136.028 232.924,135.273 230.800,134.688 229.767 C 133.665 227.961,133.629 227.751,133.746 224.176 C 133.933 218.421,132.726 218.869,148.415 218.729 C 165.176 218.578,165.456 218.696,167.088 226.556 C 167.360 227.865,167.893 228.996,168.667 229.910 C 169.310 230.668,170.386 232.112,171.058 233.117 C 171.805 234.236,173.382 235.761,175.118 237.045 C 178.816 239.781,178.409 239.572,181.894 240.531 C 183.562 240.990,185.359 241.649,185.886 241.995 C 187.250 242.890,194.047 243.636,196.429 243.152 C 200.705 242.283,209.301 239.286,210.162 238.363 C 210.635 237.857,211.662 237.117,212.444 236.719 C 213.971 235.944,217.956 232.101,217.956 231.405 C 217.956 231.173,218.690 230.299,219.587 229.464 C 221.078 228.075,221.275 227.690,221.875 224.994 C 222.235 223.372,222.934 221.064,223.428 219.866 C 225.652 214.470,225.600 205.641,223.320 201.244 C 222.762 200.169,222.030 198.048,221.694 196.531 C 221.234 194.456,220.863 193.599,220.196 193.074 C 219.708 192.691,218.799 191.532,218.175 190.499 C 217.552 189.467,216.639 188.222,216.147 187.733 C 213.534 185.140,210.398 182.677,208.854 182.005 C 207.895 181.589,206.567 180.840,205.902 180.342 C 202.239 177.601,185.588 177.281,180.622 179.857 C 179.547 180.415,178.027 181.067,177.244 181.307 C 174.026 182.292,172.094 183.228,171.544 184.067 C 171.224 184.556,170.269 185.262,169.421 185.637 C 168.574 186.012,167.218 186.872,166.407 187.549 C 164.687 188.987,163.479 188.985,159.111 187.536 C 156.535 186.682,151.029 185.810,145.778 185.424 C 136.548 184.745,135.362 181.727,138.507 166.933 C 139.345 162.992,139.731 159.063,140.256 149.156 C 140.785 139.168,141.160 135.471,142.205 129.956 C 143.182 124.799,143.635 120.257,144.014 111.822 C 144.623 98.247,145.121 96.140,148.181 94.200 L 149.840 93.148 196.609 93.241 C 242.573 93.332,243.402 93.346,244.795 94.044 " stroke="none" fill="#6c94f4" fill-rule="evenodd"></path></g></svg>