<?xml version="1.0" encoding="UTF-8"?>
<svg version="1.1" xmlns="http://www.w3.org/2000/svg" width="97" height="96">
<path d="M0 0 C5.14781403 3.14325218 7.68786426 6.8621259 9.85058594 12.37011719 C12.6014028 19.3914666 12.6014028 19.3914666 18.1796875 24.09082031 C22.31299981 25.32388113 26.39148522 25.82263236 30.671875 26.234375 C34.22270794 26.6495949 35.02668991 27.02057562 38.03515625 29.33984375 C40.18485295 32.2502681 40.79516496 34.26154263 40.54296875 37.89453125 C39.24809513 42.9156599 35.57586531 46.60201014 31.78515625 49.96484375 C27.56322626 53.44550325 27.56322626 53.44550325 25.6796875 58.328125 C25.93330972 60.64915262 26.38205711 62.75036479 27 65 C28.19653568 70.34567381 28.7115769 75.54457713 28 81 C25.9375 84.1875 25.9375 84.1875 23 86 C15.87710231 87.39664661 9.86423903 83.44937986 4.015625 79.7421875 C1.22377708 77.97566426 -0.46481525 76.96585506 -3.81640625 77.1796875 C-7.42004039 78.10823127 -10.02736515 79.54544258 -13.1875 81.5 C-18.68546105 84.87484905 -22.41400271 86.68131006 -29 86 C-31.9375 84.1875 -31.9375 84.1875 -34 81 C-34.92925547 74.89208121 -34.05642286 68.98387795 -32.4375 63.0703125 C-31.87967485 60.43060419 -31.55762899 58.69846315 -32 56 C-33.90661758 53.78144346 -35.72823515 51.89022089 -37.875 49.9375 C-43.37372705 44.827894 -46.07557037 41.93510014 -46.55859375 34.09765625 C-45.62014025 30.57353366 -43.87184839 29.18702301 -41 27 C-38.76449195 26.46980919 -36.59807759 26.2596738 -34.31079102 26.05273438 C-26.53355696 25.30965522 -26.53355696 25.30965522 -20.20507812 21.13037109 C-17.16812945 16.68617391 -15.06197969 11.88273158 -12.95361328 6.94921875 C-10.16267596 1.24444568 -6.15203229 -0.81253257 0 0 Z M-4 7 C-7.90157459 11.50114842 -10.34908824 16.32721526 -12.91210938 21.6484375 C-15.02826716 25.82231874 -16.64355553 28.19818444 -21 30 C-23.70807445 30.70281571 -26.42580826 31.18512874 -29.1875 31.625 C-34.23900305 32.32534622 -34.23900305 32.32534622 -39 34 C-38.71268949 40.0065854 -36.20821888 42.36228721 -32 46.1875 C-25.12099387 52.58307367 -25.12099387 52.58307367 -24.83984375 58.19921875 C-25.00829714 62.19690525 -25.67725438 65.9274701 -26.5625 69.8125 C-27.92148376 74.4786257 -27.92148376 74.4786257 -27 79 C-21.18009327 78.44277489 -17.14379808 75.92176615 -12.38671875 72.79492188 C-8.04248618 70.11968734 -4.12903858 68.94912785 1 70 C3.93838024 71.22079812 6.56565604 72.80059593 9.25 74.5 C10.62551154 75.3513854 12.00558721 76.19545133 13.390625 77.03125 C13.98907227 77.40830078 14.58751953 77.78535156 15.20410156 78.17382812 C17.27618306 79.27862005 17.27618306 79.27862005 21 79 C22.27612436 75.17162692 21.50472274 73.15289597 20.5625 69.25 C17.77968993 57.71943271 17.77968993 57.71943271 20.1796875 52.37109375 C23.00391993 48.6923189 26.4062516 45.7197902 29.8203125 42.59765625 C32.29465059 39.64884831 32.72427208 37.78850159 33 34 C32.2265625 33.80664062 31.453125 33.61328125 30.65625 33.4140625 C28.49754413 32.87438603 26.34003985 32.32988646 24.18359375 31.78125 C22.3305442 31.32651392 20.4703695 30.89665746 18.59765625 30.53125 C13.53461098 29.52058453 11.35398275 27.85604498 8 24 C6.09385305 20.86672535 4.54065362 17.56538741 2.95117188 14.26367188 C0.99973518 10.35467183 0.99973518 10.35467183 -2.24609375 7.54296875 C-2.82488281 7.36378906 -3.40367188 7.18460938 -4 7 Z " fill="#FFFFFF" transform="translate(53,5)"/>
</svg>
