<?xml version="1.0" encoding="UTF-8"?>
<svg version="1.1" xmlns="http://www.w3.org/2000/svg" width="161" height="160">
<path d="M0 0 C2.68031831 1.51610184 4.93267921 2.87999326 7.14453125 5.0234375 C9.34838905 6.54550547 9.34838905 6.54550547 12.52734375 5.45703125 C14.33912109 4.73580078 14.33912109 4.73580078 16.1875 4 C17.39277344 3.53207031 18.59804687 3.06414063 19.83984375 2.58203125 C20.96519531 2.12183594 22.09054688 1.66164063 23.25 1.1875 C24.22066406 0.79949219 25.19132813 0.41148438 26.19140625 0.01171875 C26.87074219 -0.26027344 27.55007812 -0.53226563 28.25 -0.8125 C27.68864007 3.10315878 26.56225965 5.63512608 24.3125 8.875 C23.78785156 9.64199219 23.26320312 10.40898437 22.72265625 11.19921875 C21.25 13.1875 21.25 13.1875 19.25 15.1875 C23.54 14.1975 27.83 13.2075 32.25 12.1875 C30.37767532 16.8683117 29.5840364 17.92403438 25.90820312 20.87597656 C20.42378922 25.42048208 17.63477645 29.17329955 16.90014648 36.36132812 C16.69850628 39.82101505 16.53872056 43.28079254 16.40283203 46.74365234 C15.02098759 68.83991895 1.71784606 89.6090492 -13.73046875 104.58203125 C-34.39611632 122.4138384 -58.10669454 127.08273672 -84.75 125.1875 C-96.43313293 123.87570964 -107.59019141 118.95419788 -117.75 113.1875 C-118.41 112.1975 -119.07 111.2075 -119.75 110.1875 C-118.60144531 110.16171875 -117.45289062 110.1359375 -116.26953125 110.109375 C-103.0404872 109.68198611 -86.7123446 108.1498446 -76.75 98.1875 C-77.50023437 98.00316406 -78.25046875 97.81882812 -79.0234375 97.62890625 C-88.6390332 94.90408379 -96.05009646 90.01400435 -101.375 81.375 C-102.75 78.1875 -102.75 78.1875 -102.75 74.1875 C-99.78 74.1875 -96.81 74.1875 -93.75 74.1875 C-94.31847656 73.8471875 -94.88695313 73.506875 -95.47265625 73.15625 C-104.59891714 67.42757872 -110.97818085 60.83800511 -113.75 50.1875 C-114.02356558 47.41596672 -113.95680047 44.97930633 -113.75 42.1875 C-110.45 42.8475 -107.15 43.5075 -103.75 44.1875 C-104.22050781 43.64222656 -104.69101563 43.09695312 -105.17578125 42.53515625 C-112.1554426 34.08152915 -114.28684579 27.33920912 -114.0546875 16.36328125 C-113.62862026 11.9223496 -112.4273216 8.31091561 -110.75 4.1875 C-106.75 4.1875 -106.75 4.1875 -105.21484375 5.62109375 C-104.71082031 6.28238281 -104.20679688 6.94367187 -103.6875 7.625 C-89.03624138 25.14482083 -67.90374853 33.36686358 -45.75 36.1875 C-45.79640625 35.20910156 -45.8428125 34.23070312 -45.890625 33.22265625 C-46.1068496 25.3690698 -46.04706877 19.00909668 -41.75 12.1875 C-41.3375 11.49140625 -40.925 10.7953125 -40.5 10.078125 C-31.71438088 -3.20014026 -13.96969401 -6.9590091 0 0 Z " fill="#D0D4DA" transform="translate(125.75,18.8125)"/>
</svg>
