<?xml version="1.0" encoding="UTF-8"?>
<svg version="1.1" xmlns="http://www.w3.org/2000/svg" width="87" height="86">
<path d="M0 0 C5.14823736 3.14351067 7.68778379 6.86268562 9.85107422 12.37084961 C12.62402311 19.402111 12.62402311 19.402111 18.21191406 24.13916016 C23.06090856 25.67508822 27.99345498 26.33296492 33.05810547 26.67553711 C35 27 35 27 38 29 C38.99905288 34.51650936 39.36994379 40.51721672 36.60546875 45.52734375 C33.97065796 48.51805491 31.09091248 50.92613361 28 53.4375 C25.7055924 56.37720974 25.76231677 56.94921422 26.125 60.5 C26.52704498 62.83021987 27.02769313 65.12502045 27.5390625 67.43359375 C28.03205188 70.17845833 28.20347223 72.77471091 28.25 75.5625 C28.27578125 76.49191406 28.3015625 77.42132813 28.328125 78.37890625 C27.9337218 81.52943657 27.31150513 82.82768228 25 85 C19.56140203 86.50634275 14.23607153 85.85368359 9.30859375 83.16796875 C7.45869263 82.08701852 5.66715912 80.96626137 3.8972168 79.75878906 C1.07873261 77.89215596 -0.64413004 76.99636867 -4.0625 77.03125 C-7.35625382 78.11748796 -9.76264436 79.61089388 -12.625 81.5625 C-18.094004 84.88077209 -22.16236223 85.74620092 -28.50390625 85.63671875 C-31 85 -31 85 -32.8203125 83.28125 C-35.93295374 77.2621027 -34.15643658 69.34920585 -32.4375 63.0703125 C-31.87967485 60.43060419 -31.55762899 58.69846315 -32 56 C-33.90661758 53.78144346 -35.72823515 51.89022089 -37.875 49.9375 C-43.37372705 44.827894 -46.07557037 41.93510014 -46.55859375 34.09765625 C-45.62014025 30.57353366 -43.87184839 29.18702301 -41 27 C-38.76449195 26.46980919 -36.59807759 26.2596738 -34.31079102 26.05273438 C-26.53355696 25.30965522 -26.53355696 25.30965522 -20.20507812 21.13037109 C-17.16812945 16.68617391 -15.06197969 11.88273158 -12.95361328 6.94921875 C-10.16267596 1.24444568 -6.15203229 -0.81253257 0 0 Z M-4 7 C-7.90157459 11.50114842 -10.34908824 16.32721526 -12.91210938 21.6484375 C-15.02826716 25.82231874 -16.64355553 28.19818444 -21 30 C-23.70807445 30.70281571 -26.42580826 31.18512874 -29.1875 31.625 C-34.23900305 32.32534622 -34.23900305 32.32534622 -39 34 C-38.71268949 40.0065854 -36.20821888 42.36228721 -32 46.1875 C-25.12099387 52.58307367 -25.12099387 52.58307367 -24.83984375 58.19921875 C-25.00829714 62.19690525 -25.67725438 65.9274701 -26.5625 69.8125 C-27.92148376 74.4786257 -27.92148376 74.4786257 -27 79 C-21.18009327 78.44277489 -17.14379808 75.92176615 -12.38671875 72.79492188 C-8.04248618 70.11968734 -4.12903858 68.94912785 1 70 C3.93838024 71.22079812 6.56565604 72.80059593 9.25 74.5 C10.62551154 75.3513854 12.00558721 76.19545133 13.390625 77.03125 C13.98907227 77.40830078 14.58751953 77.78535156 15.20410156 78.17382812 C17.27618306 79.27862005 17.27618306 79.27862005 21 79 C22.27612436 75.17162692 21.50472274 73.15289597 20.5625 69.25 C17.77968993 57.71943271 17.77968993 57.71943271 20.1796875 52.37109375 C23.00391993 48.6923189 26.4062516 45.7197902 29.8203125 42.59765625 C32.29465059 39.64884831 32.72427208 37.78850159 33 34 C32.2265625 33.80664062 31.453125 33.61328125 30.65625 33.4140625 C28.49754413 32.87438603 26.34003985 32.32988646 24.18359375 31.78125 C22.3305442 31.32651392 20.4703695 30.89665746 18.59765625 30.53125 C13.53461098 29.52058453 11.35398275 27.85604498 8 24 C6.09385305 20.86672535 4.54065362 17.56538741 2.95117188 14.26367188 C0.99973518 10.35467183 0.99973518 10.35467183 -2.24609375 7.54296875 C-2.82488281 7.36378906 -3.40367188 7.18460938 -4 7 Z " fill="#FFFFFF" transform="translate(49,1)"/>
</svg>
