<?xml version="1.0" encoding="UTF-8"?>
<svg version="1.1" xmlns="http://www.w3.org/2000/svg" width="128" height="128">
<path d="M0 0 C5.56427915 0.24101397 8.21853469 3.76018887 11.8125 7.5625 C12.40998047 8.17802734 13.00746094 8.79355469 13.62304688 9.42773438 C15.0912621 10.94293249 16.54689553 12.47030438 18 14 C22.93414934 12.14229869 26.05943093 7.90790537 29.49023438 4.08007812 C31.02734375 2.45703125 31.02734375 2.45703125 34 0 C36.87890625 0.13671875 36.87890625 0.13671875 39 1 C38.75898603 6.56427915 35.23981113 9.21853469 31.4375 12.8125 C30.82197266 13.40998047 30.20644531 14.00746094 29.57226562 14.62304688 C28.05706751 16.0912621 26.52969562 17.54689553 25 19 C26.85770131 23.93414934 31.09209463 27.05943093 34.91992188 30.49023438 C36.54296875 32.02734375 36.54296875 32.02734375 39 35 C38.86328125 37.87890625 38.86328125 37.87890625 38 40 C32.43572085 39.75898603 29.78146531 36.23981113 26.1875 32.4375 C25.59001953 31.82197266 24.99253906 31.20644531 24.37695312 30.57226562 C22.9087379 29.05706751 21.45310447 27.52969562 20 26 C15.06585066 27.85770131 11.94056907 32.09209463 8.50976562 35.91992188 C6.97265625 37.54296875 6.97265625 37.54296875 4 40 C1.12109375 39.86328125 1.12109375 39.86328125 -1 39 C-0.75898603 33.43572085 2.76018887 30.78146531 6.5625 27.1875 C7.17802734 26.59001953 7.79355469 25.99253906 8.42773438 25.37695312 C9.94293249 23.9087379 11.47030438 22.45310447 13 21 C11.14229869 16.06585066 6.90790537 12.94056907 3.08007812 9.50976562 C1.45703125 7.97265625 1.45703125 7.97265625 -1 5 C-0.86328125 2.12109375 -0.86328125 2.12109375 0 0 Z " fill="#FFFFFF" transform="translate(45,44)"/>
</svg>
